<?xml version="1.0" encoding="utf-8"?>
<!-- Generator: Adobe Illustrator 15.0.0, SVG Export Plug-In . SVG Version: 6.00 Build 0)  -->
<!DOCTYPE svg PUBLIC "-//W3C//DTD SVG 1.1//EN" "http://www.w3.org/Graphics/SVG/1.1/DTD/svg11.dtd">
<svg version="1.1" id="Layer_1" xmlns="http://www.w3.org/2000/svg" xmlns:xlink="http://www.w3.org/1999/xlink" x="0px" y="0px"
	 width="540px" height="450px" viewBox="0 0 540 450" enable-background="new 0 0 540 450" xml:space="preserve">
<rect x="-10" y="-6" fill-rule="evenodd" clip-rule="evenodd" fill="#DBF0FC" width="550" height="456"/>
<line fill-rule="evenodd" clip-rule="evenodd" fill="#5795CC" x1="-45.925" y1="449.509" x2="607.794" y2="449.509"/>
<path fill="#74AADB" d="M278.29,143.47c0,2.312,2.831,3.457,4.437,1.791c0.466-0.483,0.723-1.119,0.723-1.791v-5.159
	c0-2.312-2.83-3.458-4.437-1.792c-0.466,0.483-0.723,1.12-0.723,1.792V143.47L278.29,143.47z M283.449,107.351L283.449,107.351
	c0-2.312-2.83-3.458-4.437-1.792c-0.466,0.483-0.723,1.12-0.723,1.792v5.159c0,2.312,2.831,3.458,4.437,1.792
	c0.466-0.483,0.723-1.12,0.723-1.792V107.351L283.449,107.351z M283.449,122.83L283.449,122.83c0-2.312-2.83-3.457-4.437-1.791
	c-0.466,0.483-0.723,1.12-0.723,1.791v5.16c0,2.312,2.831,3.457,4.437,1.791c0.466-0.483,0.723-1.119,0.723-1.791V122.83z"/>
<path fill="none" stroke="#74AADB" stroke-width="0.216" stroke-miterlimit="22.9256" d="M278.29,143.47
	c0,2.312,2.831,3.457,4.437,1.791c0.466-0.483,0.723-1.119,0.723-1.791"/>
<line fill="none" stroke="#74AADB" stroke-width="0.216" stroke-miterlimit="22.9256" x1="283.449" y1="143.47" x2="283.449" y2="138.311"/>
<path fill="none" stroke="#74AADB" stroke-width="0.216" stroke-miterlimit="22.9256" d="M283.449,138.311
	c0-2.312-2.83-3.458-4.437-1.792c-0.466,0.483-0.723,1.12-0.723,1.792"/>
<line fill="none" stroke="#74AADB" stroke-width="0.216" stroke-miterlimit="22.9256" x1="278.29" y1="138.311" x2="278.29" y2="143.47"/>
<line fill="none" stroke="#74AADB" stroke-width="0.216" stroke-miterlimit="22.9256" x1="278.29" y1="91.872" x2="278.29" y2="97.031"/>
<path fill="none" stroke="#74AADB" stroke-width="0.216" stroke-miterlimit="22.9256" d="M278.29,97.031
	c0,2.312,2.831,3.457,4.437,1.792c0.466-0.484,0.723-1.12,0.723-1.792"/>
<path fill="none" stroke="#74AADB" stroke-width="0.216" stroke-miterlimit="22.9256" d="M283.449,107.351
	c0-2.312-2.83-3.458-4.437-1.792c-0.466,0.483-0.723,1.12-0.723,1.792"/>
<line fill="none" stroke="#74AADB" stroke-width="0.216" stroke-miterlimit="22.9256" x1="278.29" y1="107.351" x2="278.29" y2="112.51"/>
<path fill="none" stroke="#74AADB" stroke-width="0.216" stroke-miterlimit="22.9256" d="M278.29,112.51
	c0,2.312,2.831,3.458,4.437,1.792c0.466-0.483,0.723-1.12,0.723-1.792"/>
<line fill="none" stroke="#74AADB" stroke-width="0.216" stroke-miterlimit="22.9256" x1="283.449" y1="112.51" x2="283.449" y2="107.351"/>
<path fill="none" stroke="#74AADB" stroke-width="0.216" stroke-miterlimit="22.9256" d="M283.449,122.83
	c0-2.312-2.83-3.457-4.437-1.791c-0.466,0.483-0.723,1.12-0.723,1.791"/>
<line fill="none" stroke="#74AADB" stroke-width="0.216" stroke-miterlimit="22.9256" x1="278.29" y1="122.83" x2="278.29" y2="127.99"/>
<path fill="none" stroke="#74AADB" stroke-width="0.216" stroke-miterlimit="22.9256" d="M278.29,127.99
	c0,2.312,2.831,3.457,4.437,1.791c0.466-0.483,0.723-1.119,0.723-1.791"/>
<line fill="none" stroke="#74AADB" stroke-width="0.216" stroke-miterlimit="22.9256" x1="283.449" y1="127.99" x2="283.449" y2="122.83"/>
<g>
	<polygon fill-rule="evenodd" clip-rule="evenodd" fill="#FFD6B6" points="126.82,326.885 188.768,352.764 148.351,449.509 
		75.593,449.509 	"/>
	<path fill-rule="evenodd" clip-rule="evenodd" fill="#FFD6B6" d="M140.833,262.521l92.205,38.52l-15.768,37.743
		c-12.141,29.061-36.454,45.178-54.749,37.535l-25.679-10.728c-18.295-7.643-27.01-28.864-19.367-47.159L140.833,262.521z"/>
	<path fill-rule="evenodd" clip-rule="evenodd" fill="#FFD6B6" d="M129.474,360.217c-15.885-3.936-32.565-23.935-27.751-43.127
		c6.19-3.521,37.898-7.334,76.681,13.313C173.124,352.147,151.09,365.571,129.474,360.217z"/>
	<path fill-rule="evenodd" clip-rule="evenodd" fill="#E9B68C" d="M119.083,355.384c3.27,10.339,14.92,12.24,25.366,16.568
		c11.428,4.735,19.368,11.607,30.286,6.95c-9.573,2.067-17.233-5.475-28.662-10.209
		C135.628,364.364,125.352,364.201,119.083,355.384z"/>
	<g>
		<path fill-rule="evenodd" clip-rule="evenodd" fill="#303030" d="M432.667,118.199v178.777c0,7.274-5.952,13.226-13.226,13.226
			H143.296c-7.274,0-13.226-5.951-13.226-13.226V118.199c0-7.274,5.951-13.226,13.226-13.226h276.146
			C426.715,104.974,432.667,110.925,432.667,118.199z"/>
		<rect x="157.404" y="115.043" fill-rule="evenodd" clip-rule="evenodd" fill="#FFFFFF" width="244.542" height="185.09"/>
	</g>
	<path fill-rule="evenodd" clip-rule="evenodd" fill="#FFD6B6" d="M124.19,322.406l13.864-58.588
		c4.079-17.239-15.305-35.591-18.864-20.549l-17.468,73.82L124.19,322.406z"/>
	<path fill-rule="evenodd" clip-rule="evenodd" fill="#FFE8D6" d="M125.026,256.988c3.552-11.439-1.327-16.991-4.596-16.864
		c-0.513,0.82-0.936,1.857-1.24,3.146l-3.602,15.223C119.858,259.744,124.143,259.836,125.026,256.988z"/>
	<path fill-rule="evenodd" clip-rule="evenodd" fill="#FFD6B6" d="M161.608,342.483c-33.219,16.174-48.25-3.907-31.73-42.632
		C157.156,297.173,169.897,326.386,161.608,342.483z"/>
	<path fill-rule="evenodd" clip-rule="evenodd" fill="#E9B68C" d="M161.608,342.483c1.277-16.048-9.771-39.849-31.73-42.632
		C157.156,297.173,169.897,326.386,161.608,342.483z"/>
	<polygon fill-rule="evenodd" clip-rule="evenodd" fill="#F9CD7E" points="78.524,418.875 151.854,449.509 158.181,449.509 
		179.492,398.496 100.775,365.611 	"/>
	<polygon fill-rule="evenodd" clip-rule="evenodd" fill="#FFAE00" points="117.883,435.317 151.854,449.509 158.181,449.509 
		179.492,398.496 140.134,382.054 	"/>
	<polygon fill-rule="evenodd" clip-rule="evenodd" fill="#D1651C" points="85.734,388.654 173.671,425.392 163.595,449.509 
		60.312,449.509 	"/>
	<circle fill-rule="evenodd" clip-rule="evenodd" fill="#FFFFFF" cx="102.514" cy="381.956" r="3.778"/>
	<polygon fill-rule="evenodd" clip-rule="evenodd" fill="#C15E1B" points="129.008,408.686 173.671,425.392 163.595,449.509 
		111.954,449.509 	"/>
	<g>
		<g>
			<polygon fill-rule="evenodd" clip-rule="evenodd" fill="#FFD6B6" points="358.298,355.834 417.458,324.099 484.731,449.509 
				408.547,449.509 			"/>
			<path fill-rule="evenodd" clip-rule="evenodd" fill="#FFD6B6" d="M317.202,304.354l88.058-47.236l19.336,36.046
				c14.888,27.753,12.053,56.787-5.42,66.158l-24.523,13.154c-17.472,9.374-39.436,2.746-48.808-14.726L317.202,304.354z"/>
			<path fill-rule="evenodd" clip-rule="evenodd" fill="#FFD6B6" d="M284.028,217.602L284.028,217.602
				c5.708-3.062,12.883-0.897,15.944,4.81l52.439,97.76c3.062,5.707,0.897,12.882-4.81,15.943h-0.001
				c-5.708,3.062-12.882,0.896-15.943-4.811l-52.44-97.76C276.156,227.837,278.321,220.663,284.028,217.602z"/>
			<path fill-rule="evenodd" clip-rule="evenodd" fill="#FFD6B6" d="M351.487,349.257l-45.79-39.09
				c-13.473-11.503-38.651-2.641-26.896,7.396l57.694,49.254L351.487,349.257z"/>
			<path fill-rule="evenodd" clip-rule="evenodd" fill="#FFD6B6" d="M387.12,376.518c-14.458,7.668-37.226,0.547-50.624-9.7
				c2.261-6.753,24.513-34.655,67.176-45.153C414.248,341.382,406.794,366.084,387.12,376.518z"/>
			<path fill-rule="evenodd" clip-rule="evenodd" fill="#FFE8D6" d="M293.015,315.895c-9.033-8.854-16.522-6.346-17.279-3.105
				c0.142,1.511,1.07,3.14,3.018,4.801l10.068,8.596C292.516,322.744,295.416,318.248,293.015,315.895z"/>
			<path fill-rule="evenodd" clip-rule="evenodd" fill="#FFE8D6" d="M280.267,226.52c3.751,7.388,7.512,8.602,12.015,6.466
				c4.27-2.57,5.339-6.375,1.258-13.587C290.757,214.479,277.707,221.48,280.267,226.52z"/>
			<path fill-rule="evenodd" clip-rule="evenodd" fill="#FFD6B6" d="M384.728,243.754L384.728,243.754
				c5.708-3.062,12.883-0.897,15.944,4.811l17.029,31.748c3.062,5.707,0.897,12.882-4.81,15.943h-0.001
				c-5.707,3.062-12.882,0.896-15.943-4.811l-17.03-31.748C376.855,253.99,379.021,246.815,384.728,243.754z"/>
			<path fill-rule="evenodd" clip-rule="evenodd" fill="#FFD6B6" d="M358.593,248.89L358.593,248.89
				c5.707-3.062,12.883-0.897,15.943,4.811l17.03,31.747c3.062,5.707,0.896,12.883-4.811,15.944
				c-5.708,3.061-12.883,0.896-15.943-4.811l-17.03-31.748C350.72,259.125,352.886,251.951,358.593,248.89z"/>
			<path fill-rule="evenodd" clip-rule="evenodd" fill="#FFD6B6" d="M333.906,256.727L333.906,256.727
				c5.708-3.062,12.883-0.896,15.944,4.811l17.03,31.748c3.062,5.707,0.896,12.882-4.811,15.943h-0.001
				c-5.707,3.062-12.881,0.897-15.943-4.811l-17.03-31.747C326.034,266.963,328.199,259.788,333.906,256.727z"/>
		</g>
		
			<rect x="378.145" y="372.477" transform="matrix(0.8812 -0.4727 0.4727 0.8812 -139.7322 246.584)" fill-rule="evenodd" clip-rule="evenodd" fill="#F9CD7E" width="85.31" height="57.724"/>
		
			<rect x="380.679" y="382.558" transform="matrix(0.8812 -0.4727 0.4727 0.8812 -146.733 238.906)" fill-rule="evenodd" clip-rule="evenodd" fill="#FFAE00" width="42.654" height="57.724"/>
		<polygon fill-rule="evenodd" clip-rule="evenodd" fill="#D1651C" points="461.939,377.227 377.957,422.275 392.565,449.509 
			500.713,449.509 		"/>
		<circle fill-rule="evenodd" clip-rule="evenodd" fill="#FFFFFF" cx="384.788" cy="405.218" r="3.779"/>
		<polygon fill-rule="evenodd" clip-rule="evenodd" fill="#C15E1B" points="420.8,401.339 377.958,422.275 392.566,449.509 
			446.639,449.509 		"/>
	</g>
</g>
<g id="wRoq0t_1_">
	
		<image overflow="visible" width="2776" height="1393" id="wRoq0t" xlink:href="722C6500.jpg"  transform="matrix(0.0255 0 0 0.0255 240.7744 134.3291)">
	</image>
</g>
<path fill-rule="evenodd" clip-rule="evenodd" fill="#71B0F4" d="M315.474,231.029c0,8.222-6.665,14.887-14.887,14.887h-58.108
	c-8.222,0-14.887-6.665-14.887-14.887l0,0c0-8.222,6.665-14.887,14.887-14.887h58.108
	C308.809,216.143,315.474,222.808,315.474,231.029L315.474,231.029z"/>
<text transform="matrix(1 0 0 1 252.583 235.1426)" fill="#FFFFFF" font-family="'MyriadPro-Regular'" font-size="13.0744">LOGIN</text>
<path fill-rule="evenodd" clip-rule="evenodd" fill="#FFD6B6" d="M283.687,217.602L283.687,217.602
	c5.708-3.062,12.883-0.897,15.945,4.81l52.439,97.76c3.062,5.707,0.896,12.882-4.811,15.943h-0.001
	c-5.707,3.062-12.882,0.896-15.943-4.811l-52.439-97.76C275.815,227.837,277.979,220.663,283.687,217.602z"/>
<path fill-rule="evenodd" clip-rule="evenodd" fill="#FFE8D6" d="M279.925,226.52c3.751,7.388,7.512,8.602,12.015,6.466
	c4.271-2.57,5.34-6.375,1.259-13.587C290.415,214.479,277.365,221.48,279.925,226.52z"/>
<text transform="matrix(1 0 0 1 202.7842 190.4185)"><tspan x="0" y="0" fill="#194D84" font-family="'MyriadPro-Regular'" font-size="13.0744">SOFTWARE DEVELOPMENT</tspan><tspan x="50.12" y="15.689" fill="#194D84" font-family="'MyriadPro-Regular'" font-size="13.0744">INQUIRY</tspan></text>
</svg>
