<?xml version="1.0" encoding="utf-8"?>
<!-- Generator: Adobe Illustrator 15.0.0, SVG Export Plug-In . SVG Version: 6.00 Build 0)  -->
<!DOCTYPE svg PUBLIC "-//W3C//DTD SVG 1.1//EN" "http://www.w3.org/Graphics/SVG/1.1/DTD/svg11.dtd">
<svg version="1.1" id="Layer_1" xmlns="http://www.w3.org/2000/svg" xmlns:xlink="http://www.w3.org/1999/xlink" x="0px" y="0px"
	 width="540px" height="450px" viewBox="0 0 540 450" enable-background="new 0 0 540 450" xml:space="preserve">
<rect x="-4.621" y="-5.241" fill="#E5D7C1" width="544.621" height="455.241"/>
<path fill="#515151" d="M87.482,336.992l29.482-29.481c9.196-9.196,24.105-9.196,33.301,0l42.987,42.987
	c9.196,9.194,9.196,24.104,0,33.301l-29.482,29.482c-9.196,9.195-24.105,9.195-33.3,0l-42.988-42.988
	C78.286,361.098,78.286,346.188,87.482,336.992"/>
<path fill="#4D373A" d="M133.928,358.141c1.539,1.146,3.356,2.996,5.084,3.997c1.002,1.728,2.851,3.544,3.996,5.084
	c2.791,3.753,5.813,7.335,9.043,10.719c1.813,1.899,3.738,3.77,6.104,4.909c2.366,1.141,4.704,2.449,6.252,0.328
	c11.77-16.128,27.58-27.867,35.294-46.993c0.363-0.049,0.206-0.102,0.569-0.149c-3.551-3.932-7.167-7.808-10.718-11.739
	l-4.355-4.354l-3.99-3.99l-4.354-4.355c-3.931-3.549-7.807-7.166-11.738-10.716c-0.048,0.361-0.102,0.205-0.151,0.568
	c-19.125,7.714-30.865,23.523-46.994,35.294c-2.121,1.547-0.812,3.887,0.329,6.252c1.14,2.365,3.01,4.291,4.909,6.104
	C126.591,352.329,130.174,355.351,133.928,358.141"/>
<path fill="#402D30" d="M118.298,342.995c1.14,2.365,3.01,4.291,4.909,6.104c3.384,3.23,6.966,6.252,10.721,9.042
	c1.54,1.146,3.356,2.996,5.084,3.997c1.001,1.728,2.85,3.544,3.995,5.084c2.792,3.753,5.814,7.336,9.044,10.719
	c1.813,1.899,3.738,3.77,6.103,4.909c2.366,1.141,4.704,2.449,6.252,0.328c3.154-4.321,6.599-8.327,10.1-12.246
	c-1-1.029-1.836-2.24-2.487-3.518c-1.369-2.687-2.035-5.666-2.688-8.609c-0.721-3.245-1.441-6.49-2.161-9.736
	c-0.531-2.394-1.11-4.887-2.685-6.764c-2.122-2.531-5.574-3.415-8.386-5.149c-4.483-2.765-7.239-7.64-11.37-10.909
	c-2.761-2.183-5.926-3.518-9.3-4.299c-5.617,5.067-11.208,10.234-17.458,14.796C115.85,338.29,117.159,340.63,118.298,342.995"/>
<path fill="#515151" d="M163.77,53.017l29.482,29.482c9.196,9.196,9.196,24.105,0,33.301l-42.987,42.987
	c-9.196,9.196-24.104,9.196-33.3,0l-29.483-29.482c-9.195-9.195-9.195-24.105,0-33.3l42.988-42.988
	C139.666,43.821,154.575,43.821,163.77,53.017"/>
<path fill="#19130D" d="M142.621,99.463c-1.145,1.54-2.994,3.355-3.995,5.083c-1.728,1.001-3.544,2.851-5.084,3.996
	c-3.754,2.791-7.336,5.813-10.72,9.043c-1.899,1.813-3.77,3.738-4.91,6.104s-2.449,4.704-0.328,6.252
	c16.128,11.77,27.867,27.58,46.993,35.294c0.048,0.363,0.102,0.206,0.15,0.569c3.932-3.551,7.807-7.168,11.739-10.718l4.354-4.354
	l3.99-3.99l4.354-4.353c3.55-3.931,7.167-7.807,10.717-11.739c-0.362-0.048-0.206-0.102-0.567-0.151
	c-7.715-19.125-23.524-30.864-35.294-46.993c-1.548-2.121-3.887-0.812-6.252,0.328c-2.366,1.14-4.291,3.01-6.104,4.909
	C148.433,92.126,145.411,95.708,142.621,99.463"/>
<path fill="#110D0A" d="M157.768,83.833c-2.366,1.14-4.292,3.01-6.104,4.909c-3.23,3.384-6.252,6.966-9.043,10.72
	c-1.145,1.54-2.994,3.355-3.995,5.085c-1.729,1-3.544,2.85-5.084,3.994c-3.754,2.792-7.336,5.814-10.72,9.044
	c-1.899,1.813-3.77,3.738-4.909,6.103c-1.14,2.366-2.449,4.704-0.328,6.252c4.322,3.154,8.328,6.599,12.246,10.1
	c1.03-1,2.242-1.836,3.519-2.487c2.687-1.369,5.665-2.035,8.608-2.688c3.246-0.721,6.49-1.441,9.737-2.161
	c2.393-0.531,4.887-1.11,6.764-2.686c2.531-2.122,3.415-5.573,5.148-8.386c2.765-4.483,7.64-7.24,10.908-11.37
	c2.184-2.761,3.519-5.927,4.301-9.3c-5.068-5.617-10.235-11.208-14.796-17.458C162.472,81.384,160.133,82.694,157.768,83.833"/>
<path fill="#515151" d="M447.746,129.304l-29.481,29.482c-9.197,9.196-24.107,9.196-33.302,0l-42.987-42.988
	c-9.195-9.195-9.195-24.104,0-33.3l29.481-29.483c9.195-9.195,24.105-9.195,33.301,0l42.988,42.988
	C456.941,105.2,456.941,120.11,447.746,129.304"/>
<path fill="#002761" d="M401.3,108.156c-1.54-1.145-3.355-2.995-5.083-3.995c-1.002-1.729-2.853-3.545-3.997-5.084
	c-2.79-3.754-5.812-7.336-9.043-10.72c-1.812-1.899-3.738-3.77-6.104-4.909c-2.365-1.14-4.704-2.449-6.251-0.328
	c-11.771,16.128-27.58,27.867-35.296,46.994c-0.361,0.048-0.205,0.102-0.566,0.149c3.549,3.932,7.166,7.807,10.717,11.739
	l4.354,4.354l3.99,3.99l4.353,4.354c3.932,3.551,7.808,7.168,11.739,10.718c0.048-0.362,0.102-0.206,0.15-0.568
	c19.125-7.715,30.865-23.524,46.993-35.294c2.122-1.548,0.812-3.887-0.328-6.252c-1.14-2.366-3.009-4.291-4.909-6.104
	C408.636,113.968,405.054,110.946,401.3,108.156"/>
<path fill="#17234D" d="M416.929,123.303c-1.14-2.366-3.009-4.291-4.909-6.104c-3.383-3.231-6.966-6.252-10.72-9.043
	c-1.54-1.145-3.355-2.995-5.084-3.995c-1.001-1.729-2.852-3.545-3.995-5.084c-2.792-3.754-5.813-7.336-9.045-10.72
	c-1.812-1.898-3.737-3.77-6.103-4.909c-2.366-1.14-4.704-2.449-6.251-0.328c-3.154,4.322-6.6,8.328-10.101,12.246
	c1,1.03,1.836,2.241,2.487,3.519c1.369,2.686,2.034,5.665,2.688,8.608c0.721,3.246,1.441,6.491,2.161,9.736
	c0.53,2.394,1.11,4.887,2.685,6.765c2.123,2.531,5.575,3.415,8.386,5.149c4.484,2.765,7.24,7.64,11.371,10.908
	c2.76,2.184,5.927,3.519,9.3,4.3c5.617-5.068,11.209-10.235,17.458-14.796C419.379,128.007,418.068,125.668,416.929,123.303"/>
<path fill="#515151" d="M371.458,413.281L341.976,383.8c-9.196-9.197-9.196-24.107,0-33.302l42.988-42.988
	c9.194-9.195,24.104-9.195,33.301,0l29.481,29.482c9.195,9.196,9.195,24.105,0,33.301l-42.987,42.988
	C395.562,422.476,380.652,422.476,371.458,413.281"/>
<path fill="#4D373A" d="M392.605,366.835c1.146-1.54,2.996-3.356,3.997-5.084c1.728-1.001,3.544-2.852,5.084-3.996
	c3.753-2.791,7.336-5.812,10.72-9.043c1.899-1.812,3.769-3.738,4.908-6.104c1.142-2.365,2.449-4.703,0.329-6.251
	c-16.129-11.771-27.868-27.58-46.993-35.295c-0.049-0.361-0.102-0.205-0.15-0.567c-3.932,3.55-7.808,7.167-11.738,10.718
	l-4.354,4.354l-3.99,3.989l-4.354,4.354c-3.55,3.931-7.167,7.807-10.717,11.739c0.362,0.048,0.205,0.102,0.568,0.15
	c7.715,19.125,23.523,30.864,35.294,46.993c1.548,2.121,3.887,0.812,6.252-0.329c2.365-1.139,4.291-3.008,6.104-4.908
	C386.795,374.171,389.815,370.589,392.605,366.835"/>
<path fill="#402D30" d="M377.46,382.464c2.365-1.14,4.292-3.009,6.104-4.909c3.23-3.384,6.252-6.966,9.042-10.72
	c1.146-1.54,2.996-3.355,3.997-5.085c1.729-1,3.544-2.85,5.084-3.995c3.753-2.791,7.336-5.812,10.72-9.044
	c1.899-1.812,3.769-3.738,4.908-6.103c1.142-2.366,2.45-4.704,0.329-6.251c-4.322-3.154-8.327-6.6-12.246-10.102
	c-1.03,1-2.24,1.836-3.519,2.487c-2.686,1.369-5.665,2.035-8.608,2.688c-3.245,0.721-6.491,1.441-9.737,2.161
	c-2.394,0.53-4.886,1.11-6.764,2.685c-2.531,2.122-3.415,5.574-5.148,8.386c-2.766,4.484-7.641,7.239-10.91,11.371
	c-2.183,2.76-3.517,5.926-4.298,9.301c5.067,5.616,10.233,11.208,14.795,17.457C372.756,384.914,375.095,383.604,377.46,382.464"/>
<path fill="#6EBAB5" d="M372.111,128.65c58.664,58.664,58.664,153.777,0,212.439c-58.663,58.664-153.776,58.664-212.439,0
	c-58.664-58.662-58.664-153.775,0-212.439C218.335,69.987,313.448,69.987,372.111,128.65"/>
<path fill="#79CDC7" d="M367.262,133.501c55.986,55.985,55.986,146.754,0,202.739c-55.985,55.986-146.755,55.986-202.74,0
	c-55.986-55.985-55.986-146.754,0-202.739C220.507,77.515,311.276,77.515,367.262,133.501"/>
<path fill="#FFFFFF" d="M374.256,282.512l-58.621,58.621c-1.109,1.109-2.909,1.109-4.019,0l-38.361-38.361
	c-1.109-1.11-1.109-2.91,0-4.02l58.62-58.62c1.11-1.11,2.909-1.11,4.02,0l38.361,38.36
	C375.365,279.602,375.365,281.401,374.256,282.512"/>
<path fill="#575757" d="M277.666,294.341l1.005,1.005c0.883,0.883,2.313,0.883,3.195,0l46.604-46.604
	c0.882-0.882,0.882-2.312,0-3.194l-1.006-1.005L277.666,294.341z"/>
<path fill="#919191" d="M287.893,300.719l-1.754,1.752c-0.323,0.324-0.848,0.324-1.173,0l-1.752-1.752
	c-0.325-0.324-0.325-0.85,0-1.175l1.752-1.752c0.325-0.324,0.85-0.324,1.173,0l1.754,1.752
	C288.216,299.869,288.216,300.395,287.893,300.719"/>
<path fill="#919191" d="M291.488,297.122l-1.753,1.753c-0.324,0.324-0.851,0.324-1.174,0l-1.752-1.753
	c-0.324-0.322-0.324-0.849,0-1.173l1.752-1.753c0.323-0.324,0.85-0.324,1.174,0l1.753,1.753
	C291.812,296.273,291.812,296.8,291.488,297.122"/>
<path fill="#919191" d="M295.084,293.526l-1.753,1.754c-0.324,0.322-0.85,0.322-1.174,0l-1.753-1.754
	c-0.323-0.323-0.323-0.849,0-1.174l1.753-1.752c0.324-0.324,0.85-0.324,1.174,0l1.753,1.752
	C295.407,292.678,295.407,293.203,295.084,293.526"/>
<path fill="#919191" d="M298.68,289.932l-1.754,1.752c-0.323,0.325-0.849,0.325-1.173,0l-1.752-1.752
	c-0.324-0.325-0.324-0.85,0-1.173l1.752-1.753c0.324-0.324,0.85-0.324,1.173,0l1.754,1.753
	C299.003,289.082,299.003,289.606,298.68,289.932"/>
<path fill="#919191" d="M302.275,286.336l-1.753,1.752c-0.323,0.324-0.85,0.324-1.175,0l-1.752-1.752
	c-0.324-0.323-0.324-0.85,0-1.174l1.752-1.753c0.325-0.323,0.852-0.323,1.175,0l1.753,1.753
	C302.599,285.486,302.599,286.013,302.275,286.336"/>
<path fill="#919191" d="M305.87,282.74l-1.752,1.753c-0.324,0.323-0.85,0.323-1.174,0l-1.753-1.753c-0.324-0.324-0.324-0.85,0-1.174
	l1.753-1.753c0.324-0.323,0.85-0.323,1.174,0l1.752,1.753C306.194,281.891,306.194,282.416,305.87,282.74"/>
<path fill="#919191" d="M309.467,279.145l-1.753,1.752c-0.324,0.325-0.85,0.325-1.175,0l-1.751-1.752
	c-0.325-0.324-0.325-0.85,0-1.173l1.751-1.754c0.325-0.323,0.851-0.323,1.175,0l1.753,1.754
	C309.791,278.295,309.791,278.82,309.467,279.145"/>
<path fill="#919191" d="M313.062,275.55l-1.752,1.752c-0.324,0.324-0.85,0.324-1.174,0l-1.753-1.752
	c-0.324-0.325-0.324-0.852,0-1.175l1.753-1.753c0.324-0.323,0.85-0.323,1.174,0l1.752,1.753
	C313.386,274.698,313.386,275.225,313.062,275.55"/>
<path fill="#919191" d="M316.657,271.953l-1.753,1.753c-0.323,0.324-0.849,0.324-1.174,0l-1.751-1.753
	c-0.325-0.324-0.325-0.85,0-1.174l1.751-1.752c0.325-0.324,0.851-0.324,1.174,0l1.753,1.752
	C316.981,271.104,316.981,271.629,316.657,271.953"/>
<path fill="#919191" d="M320.254,268.357l-1.753,1.752c-0.325,0.325-0.85,0.325-1.175,0l-1.751-1.752
	c-0.325-0.324-0.325-0.85,0-1.174l1.751-1.752c0.325-0.324,0.85-0.324,1.175,0l1.753,1.752
	C320.577,267.508,320.577,268.033,320.254,268.357"/>
<path fill="#919191" d="M323.848,264.762l-1.752,1.753c-0.324,0.324-0.849,0.324-1.173,0l-1.753-1.753
	c-0.324-0.324-0.324-0.85,0-1.174l1.753-1.752c0.324-0.324,0.849-0.324,1.173,0l1.752,1.752
	C324.173,263.912,324.173,264.438,323.848,264.762"/>
<path fill="#919191" d="M327.444,261.167l-1.753,1.751c-0.324,0.325-0.849,0.325-1.173,0l-1.752-1.751
	c-0.325-0.325-0.325-0.851,0-1.174l1.752-1.753c0.324-0.324,0.849-0.324,1.173,0l1.753,1.753
	C327.769,260.316,327.769,260.842,327.444,261.167"/>
<path fill="#919191" d="M331.04,257.571l-1.752,1.751c-0.324,0.325-0.851,0.325-1.174,0l-1.753-1.751
	c-0.324-0.325-0.324-0.85,0-1.174l1.753-1.753c0.323-0.324,0.85-0.324,1.174,0l1.752,1.753
	C331.364,256.722,331.364,257.246,331.04,257.571"/>
<path fill="#919191" d="M293,302.355l-3.488,3.488c-0.324,0.324-0.85,0.324-1.174,0l-1.752-1.753c-0.324-0.323-0.324-0.85,0-1.173
	l3.489-3.488c0.323-0.325,0.849-0.325,1.174,0l1.751,1.751C293.325,301.505,293.325,302.031,293,302.355"/>
<path fill="#919191" d="M296.596,298.76l-1.752,1.752c-0.325,0.324-0.851,0.324-1.173,0l-1.754-1.752
	c-0.323-0.325-0.323-0.85,0-1.174l1.754-1.752c0.322-0.324,0.848-0.324,1.173,0l1.752,1.752
	C296.921,297.91,296.921,298.435,296.596,298.76"/>
<path fill="#919191" d="M300.192,295.164l-1.753,1.751c-0.324,0.325-0.85,0.325-1.174,0l-1.753-1.751
	c-0.323-0.325-0.323-0.85,0-1.174l1.753-1.753c0.324-0.324,0.85-0.324,1.174,0l1.753,1.753
	C300.516,294.314,300.516,294.839,300.192,295.164"/>
<path fill="#919191" d="M303.787,291.568l-1.752,1.752c-0.323,0.325-0.85,0.325-1.174,0l-1.753-1.752
	c-0.324-0.325-0.324-0.849,0-1.174l1.753-1.752c0.324-0.325,0.851-0.325,1.174,0l1.752,1.752
	C304.111,290.72,304.111,291.243,303.787,291.568"/>
<path fill="#919191" d="M307.384,287.973l-1.752,1.751c-0.325,0.325-0.852,0.325-1.175,0l-1.753-1.751
	c-0.323-0.324-0.323-0.849,0-1.174l1.753-1.752c0.323-0.324,0.85-0.324,1.175,0l1.752,1.752
	C307.707,287.124,307.707,287.648,307.384,287.973"/>
<path fill="#919191" d="M310.979,284.377l-1.753,1.752c-0.323,0.324-0.85,0.324-1.175,0l-1.752-1.752
	c-0.324-0.323-0.324-0.85,0-1.174l1.752-1.753c0.325-0.323,0.852-0.323,1.175,0l1.753,1.753
	C311.303,283.527,311.303,284.054,310.979,284.377"/>
<path fill="#919191" d="M314.574,280.78l-1.753,1.754c-0.324,0.323-0.85,0.323-1.173,0l-1.753-1.754
	c-0.323-0.323-0.323-0.849,0-1.173l1.753-1.752c0.323-0.325,0.849-0.325,1.173,0l1.753,1.752
	C314.898,279.932,314.898,280.457,314.574,280.78"/>
<path fill="#919191" d="M318.171,277.186l-1.754,1.752c-0.323,0.324-0.849,0.324-1.174,0l-1.752-1.752
	c-0.323-0.324-0.323-0.85,0-1.174l1.752-1.753c0.325-0.324,0.851-0.324,1.174,0l1.754,1.753
	C318.493,276.336,318.493,276.861,318.171,277.186"/>
<path fill="#919191" d="M321.766,273.59l-1.753,1.754c-0.323,0.323-0.849,0.323-1.173,0l-1.752-1.754
	c-0.325-0.323-0.325-0.85,0-1.174l1.752-1.752c0.324-0.325,0.85-0.325,1.173,0l1.753,1.752
	C322.09,272.74,322.09,273.267,321.766,273.59"/>
<path fill="#919191" d="M325.361,269.993l-1.752,1.754c-0.325,0.323-0.85,0.323-1.174,0l-1.753-1.754
	c-0.323-0.322-0.323-0.848,0-1.174l1.753-1.751c0.324-0.324,0.849-0.324,1.174,0l1.752,1.751
	C325.686,269.146,325.686,269.671,325.361,269.993"/>
<path fill="#919191" d="M328.956,266.398l-1.752,1.753c-0.323,0.323-0.849,0.323-1.174,0l-1.752-1.753
	c-0.325-0.324-0.325-0.85,0-1.174l1.752-1.753c0.325-0.322,0.851-0.322,1.174,0l1.752,1.753
	C329.28,265.549,329.28,266.074,328.956,266.398"/>
<path fill="#919191" d="M332.552,262.804l-1.752,1.752c-0.323,0.323-0.85,0.323-1.174,0l-1.752-1.752
	c-0.324-0.325-0.324-0.851,0-1.174l1.752-1.753c0.324-0.324,0.851-0.324,1.174,0l1.752,1.753
	C332.877,261.953,332.877,262.479,332.552,262.804"/>
<path fill="#919191" d="M338.967,256.389l-4.57,4.57c-0.325,0.325-0.85,0.325-1.175,0l-1.752-1.751c-0.324-0.325-0.324-0.85,0-1.174
	l4.571-4.571c0.323-0.325,0.85-0.325,1.173,0l1.753,1.752C339.291,255.538,339.291,256.065,338.967,256.389"/>
<path fill="#919191" d="M335.595,253.017l-2.711,2.711c-0.325,0.325-0.852,0.325-1.174,0l-1.753-1.752
	c-0.324-0.325-0.324-0.85,0-1.174l2.711-2.712c0.325-0.324,0.85-0.324,1.174,0l1.753,1.752
	C335.918,252.166,335.918,252.692,335.595,253.017"/>
<path fill="#919191" d="M294.637,307.464l-1.752,1.751c-0.324,0.326-0.85,0.326-1.174,0l-1.753-1.751
	c-0.323-0.326-0.323-0.85,0-1.174l1.753-1.752c0.324-0.324,0.85-0.324,1.174,0l1.752,1.752
	C294.961,306.614,294.961,307.138,294.637,307.464"/>
<path fill="#919191" d="M298.233,303.867l-1.754,1.753c-0.323,0.324-0.849,0.324-1.173,0l-1.752-1.753
	c-0.325-0.323-0.325-0.849,0-1.173l1.752-1.752c0.324-0.325,0.85-0.325,1.173,0l1.754,1.752
	C298.557,303.019,298.557,303.544,298.233,303.867"/>
<path fill="#919191" d="M301.829,300.272l-1.753,1.752c-0.324,0.323-0.85,0.323-1.175,0l-1.752-1.752
	c-0.324-0.324-0.324-0.85,0-1.175l1.752-1.752c0.325-0.323,0.851-0.323,1.175,0l1.753,1.752
	C302.152,299.423,302.152,299.948,301.829,300.272"/>
<path fill="#919191" d="M305.425,296.677l-1.753,1.753c-0.324,0.324-0.85,0.324-1.175,0l-1.751-1.753
	c-0.325-0.324-0.325-0.851,0-1.174l1.751-1.753c0.325-0.324,0.851-0.324,1.175,0l1.753,1.753
	C305.748,295.826,305.748,296.353,305.425,296.677"/>
<path fill="#919191" d="M309.02,293.08l-1.752,1.754c-0.324,0.323-0.85,0.323-1.175,0l-1.752-1.754
	c-0.324-0.322-0.324-0.849,0-1.174l1.752-1.752c0.325-0.325,0.851-0.325,1.175,0l1.752,1.752
	C309.344,292.231,309.344,292.758,309.02,293.08"/>
<path fill="#919191" d="M312.614,289.485l-1.752,1.753c-0.323,0.323-0.849,0.323-1.173,0l-1.753-1.753
	c-0.324-0.324-0.324-0.85,0-1.175l1.753-1.751c0.324-0.325,0.85-0.325,1.173,0l1.752,1.751
	C312.939,288.636,312.939,289.161,312.614,289.485"/>
<path fill="#919191" d="M316.211,285.889l-1.753,1.753c-0.324,0.324-0.849,0.324-1.173,0l-1.752-1.753
	c-0.325-0.322-0.325-0.849,0-1.174l1.752-1.752c0.324-0.324,0.849-0.324,1.173,0l1.753,1.752
	C316.535,285.04,316.535,285.566,316.211,285.889"/>
<path fill="#919191" d="M319.807,282.293l-1.752,1.754c-0.324,0.322-0.85,0.322-1.174,0l-1.752-1.754
	c-0.325-0.323-0.325-0.849,0-1.174l1.752-1.752c0.324-0.323,0.85-0.323,1.174,0l1.752,1.752
	C320.131,281.444,320.131,281.97,319.807,282.293"/>
<path fill="#919191" d="M323.401,278.699l-1.751,1.751c-0.325,0.325-0.85,0.325-1.173,0l-1.753-1.751
	c-0.324-0.326-0.324-0.851,0-1.174l1.753-1.753c0.323-0.323,0.848-0.323,1.173,0l1.751,1.753
	C323.728,277.849,323.728,278.373,323.401,278.699"/>
<path fill="#919191" d="M326.998,275.103l-1.752,1.752c-0.325,0.325-0.851,0.325-1.175,0l-1.752-1.752
	c-0.324-0.323-0.324-0.85,0-1.173l1.752-1.753c0.324-0.324,0.85-0.324,1.175,0l1.752,1.753
	C327.321,274.253,327.321,274.779,326.998,275.103"/>
<path fill="#919191" d="M330.593,271.507l-1.752,1.753c-0.323,0.324-0.85,0.324-1.173,0l-1.754-1.753
	c-0.323-0.324-0.323-0.85,0-1.174l1.754-1.752c0.323-0.324,0.85-0.324,1.173,0l1.752,1.752
	C330.918,270.657,330.918,271.183,330.593,271.507"/>
<path fill="#919191" d="M334.189,267.911l-1.752,1.752c-0.325,0.325-0.851,0.325-1.174,0l-1.753-1.752
	c-0.324-0.324-0.324-0.85,0-1.173l1.753-1.754c0.323-0.323,0.849-0.323,1.174,0l1.752,1.754
	C334.514,267.062,334.514,267.587,334.189,267.911"/>
<path fill="#919191" d="M337.785,264.316l-1.752,1.753c-0.324,0.323-0.851,0.323-1.175,0l-1.752-1.753
	c-0.324-0.324-0.324-0.851,0-1.175l1.752-1.753c0.324-0.323,0.851-0.323,1.175,0l1.752,1.753
	C338.109,263.466,338.109,263.992,337.785,264.316"/>
<path fill="#919191" d="M299.746,309.101l-3.489,3.488c-0.324,0.323-0.849,0.323-1.173,0l-1.753-1.754
	c-0.323-0.322-0.323-0.848,0-1.173l3.488-3.488c0.324-0.323,0.85-0.323,1.175,0l1.752,1.753
	C300.07,308.251,300.07,308.775,299.746,309.101"/>
<path fill="#919191" d="M303.341,305.505l-1.752,1.751c-0.324,0.326-0.851,0.326-1.173,0l-1.754-1.751
	c-0.323-0.325-0.323-0.851,0-1.173l1.754-1.754c0.322-0.323,0.849-0.323,1.173,0l1.752,1.754
	C303.665,304.654,303.665,305.18,303.341,305.505"/>
<path fill="#919191" d="M306.938,301.909l-1.753,1.752c-0.324,0.324-0.85,0.324-1.175,0l-1.752-1.752
	c-0.322-0.324-0.322-0.851,0-1.174l1.752-1.753c0.325-0.324,0.851-0.324,1.175,0l1.753,1.753
	C307.26,301.059,307.26,301.585,306.938,301.909"/>
<path fill="#919191" d="M310.532,298.312l-1.753,1.753c-0.323,0.325-0.849,0.325-1.173,0l-1.752-1.753
	c-0.325-0.324-0.325-0.85,0-1.173l1.752-1.752c0.324-0.325,0.85-0.325,1.173,0l1.753,1.752
	C310.856,297.463,310.856,297.988,310.532,298.312"/>
<path fill="#919191" d="M314.128,294.718l-1.752,1.752c-0.325,0.325-0.85,0.325-1.174,0l-1.752-1.752
	c-0.325-0.324-0.325-0.851,0-1.174l1.752-1.753c0.324-0.324,0.849-0.324,1.174,0l1.752,1.753
	C314.452,293.867,314.452,294.394,314.128,294.718"/>
<path fill="#919191" d="M317.725,291.122l-1.754,1.753c-0.323,0.323-0.849,0.323-1.175,0l-1.751-1.753
	c-0.324-0.324-0.324-0.851,0-1.175l1.751-1.751c0.326-0.325,0.852-0.325,1.175,0l1.754,1.751
	C318.047,290.271,318.047,290.798,317.725,291.122"/>
<path fill="#919191" d="M321.32,287.526l-1.754,1.752c-0.323,0.324-0.85,0.324-1.174,0l-1.751-1.752
	c-0.326-0.325-0.326-0.85,0-1.175l1.751-1.751c0.324-0.325,0.851-0.325,1.174,0l1.754,1.751
	C321.644,286.677,321.644,287.201,321.32,287.526"/>
<path fill="#919191" d="M324.915,283.931l-1.752,1.752c-0.324,0.324-0.851,0.324-1.175,0l-1.753-1.752
	c-0.323-0.325-0.323-0.85,0-1.174l1.753-1.753c0.324-0.324,0.851-0.324,1.175,0l1.752,1.753
	C325.239,283.081,325.239,283.605,324.915,283.931"/>
<path fill="#919191" d="M328.511,280.335l-1.753,1.752c-0.323,0.324-0.849,0.324-1.174,0l-1.752-1.752
	c-0.325-0.324-0.325-0.85,0-1.174l1.752-1.752c0.325-0.325,0.851-0.325,1.174,0l1.753,1.752
	C328.835,279.485,328.835,280.011,328.511,280.335"/>
<path fill="#919191" d="M332.105,276.739l-1.751,1.752c-0.324,0.325-0.851,0.325-1.174,0l-1.753-1.752
	c-0.324-0.324-0.324-0.849,0-1.173l1.753-1.753c0.323-0.324,0.85-0.324,1.174,0l1.751,1.753
	C332.432,275.891,332.432,276.415,332.105,276.739"/>
<path fill="#919191" d="M335.702,273.144l-1.752,1.753c-0.325,0.323-0.85,0.323-1.174,0l-1.753-1.753
	c-0.324-0.323-0.324-0.85,0-1.174l1.753-1.753c0.324-0.323,0.849-0.323,1.174,0l1.752,1.753
	C336.025,272.294,336.025,272.82,335.702,273.144"/>
<path fill="#919191" d="M339.297,269.547l-1.752,1.754c-0.324,0.323-0.85,0.323-1.173,0l-1.752-1.754
	c-0.325-0.323-0.325-0.849,0-1.173l1.752-1.752c0.323-0.325,0.849-0.325,1.173,0l1.752,1.752
	C339.622,268.698,339.622,269.224,339.297,269.547"/>
<path fill="#919191" d="M345.713,263.133l-4.571,4.572c-0.326,0.324-0.851,0.324-1.175,0l-1.753-1.753
	c-0.323-0.323-0.323-0.85,0-1.174l4.571-4.57c0.325-0.325,0.851-0.325,1.174,0l1.754,1.752
	C346.036,262.284,346.036,262.809,345.713,263.133"/>
<path fill="#919191" d="M303.515,312.87l-3.487,3.487c-0.325,0.325-0.852,0.325-1.174,0l-1.755-1.753
	c-0.321-0.323-0.321-0.849,0-1.172l3.49-3.49c0.324-0.323,0.85-0.323,1.173,0l1.753,1.754
	C303.839,312.02,303.839,312.545,303.515,312.87"/>
<path fill="#919191" d="M307.111,309.274l-1.754,1.752c-0.323,0.325-0.85,0.325-1.174,0l-1.752-1.752
	c-0.324-0.325-0.324-0.852,0-1.174l1.752-1.753c0.324-0.324,0.851-0.324,1.174,0l1.754,1.753
	C307.435,308.423,307.435,308.949,307.111,309.274"/>
<path fill="#919191" d="M313.046,303.339l-4.093,4.091c-0.323,0.325-0.85,0.325-1.174,0l-1.753-1.751
	c-0.324-0.324-0.324-0.851,0-1.175l4.093-4.092c0.323-0.323,0.85-0.323,1.174,0l1.753,1.753
	C313.37,302.489,313.37,303.015,313.046,303.339"/>
<path fill="#919191" d="M332.279,284.104l-17.391,17.392c-0.324,0.323-0.851,0.323-1.174,0l-1.753-1.753
	c-0.323-0.324-0.323-0.85,0-1.174l17.393-17.392c0.323-0.323,0.848-0.323,1.173,0l1.752,1.753
	C332.604,283.255,332.604,283.779,332.279,284.104"/>
<path fill="#919191" d="M335.876,280.509l-1.753,1.751c-0.324,0.325-0.849,0.325-1.174,0l-1.752-1.751
	c-0.324-0.324-0.324-0.851,0-1.174l1.752-1.752c0.325-0.325,0.85-0.325,1.174,0l1.753,1.752
	C336.199,279.658,336.199,280.185,335.876,280.509"/>
<path fill="#919191" d="M339.47,276.913l-1.751,1.753c-0.323,0.323-0.85,0.323-1.173,0l-1.753-1.753
	c-0.324-0.324-0.324-0.85,0-1.175l1.753-1.752c0.323-0.324,0.85-0.324,1.173,0l1.751,1.752
	C339.796,276.063,339.796,276.589,339.47,276.913"/>
<path fill="#919191" d="M343.066,273.317l-1.751,1.753c-0.326,0.324-0.852,0.324-1.175,0l-1.752-1.753
	c-0.324-0.324-0.324-0.851,0-1.175l1.752-1.752c0.323-0.324,0.849-0.324,1.175,0l1.751,1.752
	C343.393,272.467,343.393,272.993,343.066,273.317"/>
<path fill="#919191" d="M349.48,266.903l-4.57,4.571c-0.324,0.323-0.85,0.323-1.174,0l-1.753-1.754
	c-0.323-0.322-0.323-0.848,0-1.173l4.571-4.57c0.324-0.325,0.85-0.325,1.174,0l1.752,1.751
	C349.806,266.053,349.806,266.578,349.48,266.903"/>
<path fill="#919191" d="M342.34,259.762l-2.712,2.711c-0.324,0.324-0.85,0.324-1.173,0l-1.754-1.752
	c-0.323-0.325-0.323-0.851,0-1.175l2.712-2.712c0.323-0.323,0.85-0.323,1.175,0l1.752,1.754
	C342.663,258.911,342.663,259.437,342.34,259.762"/>
<path fill="#E3E3E3" d="M351.316,300.081l-17.336,17.334c-0.875,0.878-2.296,0.878-3.17,0L320.293,306.9
	c-0.875-0.876-0.875-2.296,0-3.172l17.336-17.335c0.876-0.877,2.297-0.877,3.173,0l10.515,10.515
	C352.192,297.784,352.192,299.205,351.316,300.081"/>
<path fill="#DEDEDE" d="M342.993,229.014l-0.769-0.768c-1.584-1.583-4.149-1.583-5.733,0l-75.122,75.123
	c-1.583,1.582-1.583,4.147-0.001,5.732l0.769,0.768L342.993,229.014z"/>
<path fill="#8C8C8C" d="M326.461,218.205l-57.325-59.886c-1.086-1.133-1.047-2.933,0.087-4.018l39.19-37.515
	c1.135-1.085,2.934-1.045,4.019,0.088l57.326,59.886c1.084,1.134,1.045,2.934-0.089,4.019l-39.19,37.514
	C329.345,219.377,327.545,219.338,326.461,218.205"/>
<rect x="282.891" y="140.413" transform="matrix(0.6915 0.7224 -0.7224 0.6915 219.5768 -179.0748)" fill="#F4D4CB" width="73.109" height="54.252"/>
<path fill="#FFFFFF" d="M345.539,166.473c0.002,0.003,0.003,0.003,0.004,0.005c0.123,0.127,0.19,0.298,0.188,0.475l-0.167,9.805
	c-0.007,0.369-0.311,0.662-0.679,0.656c-0.369-0.006-0.662-0.309-0.656-0.678l0.157-9.138l-13.239-0.227
	c-0.178-0.003-0.338-0.08-0.468-0.204c-0.123-0.127-0.191-0.297-0.188-0.475l0.114-6.716l-17.515-0.299
	c-0.175-0.003-0.352-0.063-0.468-0.204l-4.312-4.461l-17.698-0.302c-0.367-0.007-0.663-0.31-0.656-0.678
	c0.007-0.369,0.31-0.662,0.679-0.656l17.975,0.307c0.178,0.003,0.34,0.086,0.47,0.204l4.311,4.462l17.904,0.306
	c0.178,0.002,0.334,0.079,0.469,0.203c0.123,0.127,0.191,0.298,0.188,0.474l-0.116,6.717l13.239,0.226
	C345.25,166.278,345.416,166.349,345.539,166.473"/>
<path fill="#FFFFFF" d="M343.842,175.655c0.603-0.582,1.563-0.564,2.146,0.037c0.582,0.603,0.565,1.563-0.036,2.144
	c-0.603,0.583-1.563,0.566-2.146-0.035C343.225,177.199,343.239,176.239,343.842,175.655"/>
<path fill="#FFFFFF" d="M344.06,165.903c0.603-0.583,1.562-0.566,2.146,0.037c0.581,0.603,0.565,1.562-0.038,2.145
	c-0.602,0.582-1.562,0.565-2.145-0.037C343.44,167.445,343.458,166.486,344.06,165.903"/>
<path fill="#FFFFFF" d="M330.065,165.766c0.604-0.582,1.562-0.564,2.145,0.038c0.582,0.603,0.566,1.562-0.036,2.145
	c-0.602,0.582-1.562,0.565-2.146-0.037C329.446,167.309,329.463,166.348,330.065,165.766"/>
<path fill="#FFFFFF" d="M330.195,158.208c0.602-0.582,1.562-0.565,2.145,0.037s0.565,1.562-0.036,2.145
	c-0.603,0.582-1.563,0.565-2.146-0.037C329.577,159.75,329.592,158.791,330.195,158.208"/>
<path fill="#FFFFFF" d="M312.166,157.951c0.604-0.582,1.563-0.566,2.146,0.037c0.582,0.602,0.566,1.562-0.036,2.145
	s-1.562,0.566-2.146-0.037C311.548,159.494,311.565,158.534,312.166,157.951"/>
<path fill="#FFFFFF" d="M307.499,153.121c0.603-0.583,1.562-0.565,2.145,0.037c0.584,0.602,0.565,1.563-0.036,2.145
	c-0.603,0.583-1.562,0.566-2.145-0.036C306.88,154.664,306.896,153.703,307.499,153.121"/>
<path fill="#FFFFFF" d="M289.57,152.952c0.603-0.583,1.562-0.565,2.145,0.037c0.582,0.603,0.566,1.563-0.037,2.145
	c-0.602,0.583-1.562,0.566-2.145-0.036C288.951,154.494,288.969,153.534,289.57,152.952"/>
<path fill="#E6E6E6" d="M291.289,135.893c0.85-0.814,2.198-0.784,3.013,0.066c0.813,0.849,0.784,2.199-0.066,3.012
	c-0.85,0.814-2.198,0.784-3.012-0.065C290.41,138.055,290.438,136.707,291.289,135.893"/>
<path fill="#FFFFFF" d="M264.704,361.973v-11.024h5.549v11.024c0,1.532-1.242,2.775-2.774,2.775S264.704,363.505,264.704,361.973"/>
<path fill="#FFFFFF" d="M267.479,355.485c-8.841,0-16.009-7.166-16.009-16.009c0-8.842,7.167-16.009,16.009-16.009
	c8.842,0,16.009,7.167,16.009,16.009C283.487,348.319,276.32,355.485,267.479,355.485"/>
<path fill="#1E1204" d="M267.479,353.699c-7.854,0-14.221-6.368-14.221-14.223s6.367-14.222,14.221-14.222
	s14.222,6.367,14.222,14.222S275.333,353.699,267.479,353.699"/>
<path fill="#FFFFFF" d="M387.562,250.055l-1.869,1.868c-3.332,3.332-8.736,3.332-12.067,0l-11.159-11.161
	c-3.334-3.331-3.334-8.734,0-12.066l1.867-1.869c3.333-3.332,8.736-3.332,12.067,0l11.161,11.16
	C390.894,241.317,390.894,246.721,387.562,250.055"/>
<rect x="146.455" y="263.819" transform="matrix(0.7071 0.7071 -0.7071 0.7071 262.8056 -47.8629)" fill="#FFFFFF" width="85.445" height="58.96"/>
<rect x="126.989" y="310.816" transform="matrix(0.7071 0.7071 -0.7071 0.7071 270.869 -28.3958)" fill="#4F90FF" width="85.445" height="3.899"/>
<line fill="none" stroke="#D9D9D9" stroke-width="5" stroke-linecap="round" stroke-linejoin="round" stroke-miterlimit="10" x1="180.483" y1="251.83" x2="191.407" y2="262.755"/>
<line fill="none" stroke="#D9D9D9" stroke-width="5" stroke-linecap="round" stroke-linejoin="round" stroke-miterlimit="10" x1="177.473" y1="254.841" x2="227.524" y2="304.893"/>
<line fill="none" stroke="#D9D9D9" stroke-width="5" stroke-linecap="round" stroke-linejoin="round" stroke-miterlimit="10" x1="174.462" y1="257.853" x2="224.514" y2="307.903"/>
<line fill="none" stroke="#D9D9D9" stroke-width="5" stroke-linecap="round" stroke-linejoin="round" stroke-miterlimit="10" x1="171.452" y1="260.862" x2="221.504" y2="310.914"/>
<line fill="none" stroke="#D9D9D9" stroke-width="5" stroke-linecap="round" stroke-linejoin="round" stroke-miterlimit="10" x1="168.441" y1="263.872" x2="218.493" y2="313.924"/>
<line fill="none" stroke="#D9D9D9" stroke-width="5" stroke-linecap="round" stroke-linejoin="round" stroke-miterlimit="10" x1="165.431" y1="266.883" x2="215.483" y2="316.936"/>
<line fill="none" stroke="#D9D9D9" stroke-width="5" stroke-linecap="round" stroke-linejoin="round" stroke-miterlimit="10" x1="162.421" y1="269.893" x2="212.473" y2="319.945"/>
<rect x="149.848" y="264.549" transform="matrix(0.5636 0.826 -0.826 0.5636 326.9078 -30.7634)" fill="#FFFFFF" width="85.445" height="58.961"/>
<rect x="127.108" y="307.596" transform="matrix(0.5636 0.826 -0.826 0.5636 329.8021 -5.208)" fill="#FFAC52" width="85.445" height="3.9"/>
<line fill="none" stroke="#D9D9D9" stroke-width="5" stroke-linecap="round" stroke-linejoin="round" stroke-miterlimit="10" x1="191.721" y1="251.667" x2="200.428" y2="264.43"/>
<line fill="none" stroke="#D9D9D9" stroke-width="5" stroke-linecap="round" stroke-linejoin="round" stroke-miterlimit="10" x1="188.204" y1="254.067" x2="228.1" y2="312.536"/>
<line fill="none" stroke="#D9D9D9" stroke-width="5" stroke-linecap="round" stroke-linejoin="round" stroke-miterlimit="10" x1="184.688" y1="256.466" x2="224.583" y2="314.936"/>
<line fill="none" stroke="#D9D9D9" stroke-width="5" stroke-linecap="round" stroke-linejoin="round" stroke-miterlimit="10" x1="181.171" y1="258.867" x2="221.068" y2="317.334"/>
<line fill="none" stroke="#D9D9D9" stroke-width="5" stroke-linecap="round" stroke-linejoin="round" stroke-miterlimit="10" x1="177.654" y1="261.266" x2="217.55" y2="319.735"/>
<line fill="none" stroke="#D9D9D9" stroke-width="5" stroke-linecap="round" stroke-linejoin="round" stroke-miterlimit="10" x1="174.137" y1="263.665" x2="214.034" y2="322.134"/>
<line fill="none" stroke="#D9D9D9" stroke-width="5" stroke-linecap="round" stroke-linejoin="round" stroke-miterlimit="10" x1="170.621" y1="266.065" x2="210.518" y2="324.533"/>
<rect x="149.493" y="241.15" transform="matrix(0.764 0.6452 -0.6452 0.764 219.9871 -60.151)" fill="#FFFFFF" width="85.444" height="58.961"/>
<rect x="132.403" y="290.386" transform="matrix(0.764 0.6452 -0.6452 0.764 229.9619 -44.0004)" fill="#1C4488" width="85.445" height="3.901"/>
<line fill="none" stroke="#D9D9D9" stroke-width="5" stroke-linecap="round" stroke-linejoin="round" stroke-miterlimit="10" x1="180.743" y1="230.711" x2="192.546" y2="240.681"/>
<line fill="none" stroke="#D9D9D9" stroke-width="5" stroke-linecap="round" stroke-linejoin="round" stroke-miterlimit="10" x1="177.996" y1="233.964" x2="232.074" y2="279.637"/>
<line fill="none" stroke="#D9D9D9" stroke-width="5" stroke-linecap="round" stroke-linejoin="round" stroke-miterlimit="10" x1="175.249" y1="237.217" x2="229.327" y2="282.89"/>
<line fill="none" stroke="#D9D9D9" stroke-width="5" stroke-linecap="round" stroke-linejoin="round" stroke-miterlimit="10" x1="172.502" y1="240.469" x2="226.58" y2="286.142"/>
<line fill="none" stroke="#D9D9D9" stroke-width="5" stroke-linecap="round" stroke-linejoin="round" stroke-miterlimit="10" x1="169.755" y1="243.722" x2="223.833" y2="289.394"/>
<line fill="none" stroke="#D9D9D9" stroke-width="5" stroke-linecap="round" stroke-linejoin="round" stroke-miterlimit="10" x1="167.008" y1="246.974" x2="221.086" y2="292.646"/>
<line fill="none" stroke="#D9D9D9" stroke-width="5" stroke-linecap="round" stroke-linejoin="round" stroke-miterlimit="10" x1="164.261" y1="250.227" x2="218.339" y2="295.899"/>
<path fill="#FFFFFF" d="M129.618,234.432h11.025v5.549h-11.025c-1.533,0-2.775-1.243-2.775-2.774
	C126.843,235.674,128.085,234.432,129.618,234.432"/>
<path fill="#FFFFFF" d="M136.105,237.206c0-8.842,7.167-16.009,16.008-16.009c8.842,0,16.009,7.167,16.009,16.009
	c0,8.841-7.167,16.008-16.009,16.008C143.273,253.214,136.105,246.047,136.105,237.206"/>
<path fill="#1E1204" d="M137.892,237.206c0-7.854,6.368-14.223,14.222-14.223s14.222,6.368,14.222,14.223
	s-6.368,14.222-14.222,14.222S137.892,245.061,137.892,237.206"/>
<path fill="#21494C" d="M156.209,172.048l48.672-48.672c1.676-1.675,4.391-1.675,6.065,0l36.626,36.625
	c1.674,1.675,1.674,4.39,0,6.066l-48.673,48.671c-1.674,1.675-4.391,1.675-6.065,0l-36.626-36.625
	C154.535,176.438,154.535,173.722,156.209,172.048"/>
<rect x="168.168" y="142.755" transform="matrix(-0.7071 0.7071 -0.7071 -0.7071 464.1923 145.8372)" fill="#FFFFFF" width="67.447" height="52.604"/>
<rect x="173.107" y="154.679" transform="matrix(-0.7071 0.7071 -0.7071 -0.7071 452.2694 174.6258)" fill="#EDEDED" width="33.724" height="52.604"/>
<rect x="210.795" y="158.781" transform="matrix(-0.7071 0.7071 -0.7071 -0.7071 501.0159 127.1631)" fill="#64D8CA" width="26.751" height="17.137"/>
<rect x="170.851" y="160.793" transform="matrix(-0.7071 0.7071 -0.7071 -0.7071 438.4068 168.8873)" fill="#FFCD87" width="26.75" height="28.892"/>
<rect x="200.576" y="133.724" transform="matrix(-0.7071 0.7071 -0.7071 -0.7071 449.3024 89.9085)" fill="#64D8CA" width="10.909" height="8.568"/>
<rect x="188.849" y="143.656" transform="matrix(-0.7071 0.7071 -0.7071 -0.7071 439.3685 113.8885)" fill="#64D8CA" width="14.496" height="8.568"/>
<line fill="none" stroke="#D9D9D9" stroke-width="2" stroke-linecap="round" stroke-linejoin="round" stroke-miterlimit="10" x1="224.82" y1="149.726" x2="220.832" y2="153.714"/>
<line fill="none" stroke="#D9D9D9" stroke-width="2" stroke-linecap="round" stroke-linejoin="round" stroke-miterlimit="10" x1="223.125" y1="148.033" x2="204.858" y2="166.306"/>
<line fill="none" stroke="#D9D9D9" stroke-width="2" stroke-linecap="round" stroke-linejoin="round" stroke-miterlimit="10" x1="221.433" y1="146.34" x2="203.165" y2="164.613"/>
<line fill="none" stroke="#D9D9D9" stroke-width="2" stroke-linecap="round" stroke-linejoin="round" stroke-miterlimit="10" x1="219.74" y1="144.647" x2="201.471" y2="162.921"/>
<line fill="none" stroke="#D9D9D9" stroke-width="2" stroke-linecap="round" stroke-linejoin="round" stroke-miterlimit="10" x1="218.046" y1="142.955" x2="199.779" y2="161.228"/>
<line fill="none" stroke="#D9D9D9" stroke-width="2" stroke-linecap="round" stroke-linejoin="round" stroke-miterlimit="10" x1="216.353" y1="141.262" x2="198.085" y2="159.535"/>
<line fill="none" stroke="#D9D9D9" stroke-width="2" stroke-linecap="round" stroke-linejoin="round" stroke-miterlimit="10" x1="214.66" y1="139.569" x2="196.392" y2="157.842"/>
<line fill="none" stroke="#D9D9D9" stroke-width="2" stroke-linecap="round" stroke-linejoin="round" stroke-miterlimit="10" x1="215.448" y1="188.188" x2="211.46" y2="192.176"/>
<line fill="none" stroke="#D9D9D9" stroke-width="2" stroke-linecap="round" stroke-linejoin="round" stroke-miterlimit="10" x1="213.754" y1="186.495" x2="195.487" y2="204.768"/>
<line fill="none" stroke="#D9D9D9" stroke-width="2" stroke-linecap="round" stroke-linejoin="round" stroke-miterlimit="10" x1="212.061" y1="184.803" x2="193.794" y2="203.075"/>
<line fill="none" stroke="#D9D9D9" stroke-width="2" stroke-linecap="round" stroke-linejoin="round" stroke-miterlimit="10" x1="210.368" y1="183.11" x2="192.101" y2="201.383"/>
<line fill="none" stroke="#D9D9D9" stroke-width="2" stroke-linecap="round" stroke-linejoin="round" stroke-miterlimit="10" x1="208.675" y1="181.417" x2="190.407" y2="199.689"/>
<line fill="none" stroke="#D9D9D9" stroke-width="2" stroke-linecap="round" stroke-linejoin="round" stroke-miterlimit="10" x1="206.981" y1="179.724" x2="188.714" y2="197.998"/>
<line fill="none" stroke="#D9D9D9" stroke-width="2" stroke-linecap="round" stroke-linejoin="round" stroke-miterlimit="10" x1="205.288" y1="178.032" x2="187.021" y2="196.305"/>
<path fill="#FFAA2B" d="M169.882,210.112l-8.043,8.043c-1.087,1.087-2.851,1.087-3.939,0l-13.943-13.943
	c-1.088-1.087-1.088-2.851,0-3.939l8.043-8.042c1.087-1.088,2.852-1.088,3.938,0l13.944,13.942
	C170.97,207.262,170.97,209.024,169.882,210.112"/>
<path fill="#6B4712" d="M143.275,201.396l17.441,17.442c0.41-0.132,0.797-0.357,1.122-0.683l1.084-1.084l-17.881-17.882
	l-1.084,1.084C143.631,200.599,143.405,200.985,143.275,201.396"/>
<path fill="#FF5842" d="M234.182,316.11l-4.207-0.116l0.469-3.914c0.108-0.896,0.881-1.564,1.786-1.54
	c0.903,0.024,1.64,0.734,1.698,1.638L234.182,316.11z"/>
<rect x="228.437" y="320.987" transform="matrix(-0.9996 -0.0273 0.0273 -0.9996 453.9397 674.6367)" fill="#FF5A45" width="6.288" height="26.457"/>
<polygon fill="#FF998C" points="228.079,347.231 234.366,347.404 233.422,354.055 228.656,353.925 "/>
<polygon fill="#FF998C" points="235.085,321.078 228.8,320.906 229.784,312.688 234.552,312.82 "/>
<path fill="#FFA742" d="M211.431,113.254l-2.308,3.521l-3.084-2.455c-0.707-0.563-0.869-1.573-0.373-2.329
	c0.496-0.756,1.485-1.01,2.283-0.586L211.431,113.254z"/>
<rect x="222.329" y="111.747" transform="matrix(-0.5483 0.8363 -0.8363 -0.5483 453.616 4.9419)" fill="#FFA845" width="6.289" height="26.458"/>
<polygon fill="#FFC98C" points="234.711,134.792 238.159,129.532 243.325,133.827 240.71,137.815 "/>
<polygon fill="#FFC98C" points="216.134,115.094 212.686,120.354 206.211,115.2 208.825,111.211 "/>
<path fill="#707070" d="M374.031,426.345L374.031,426.345c-5.549-5.548-5.549-14.542,0-20.091l66.688-66.688
	c5.549-5.548,14.543-5.548,20.091,0c5.549,5.548,5.549,14.544,0,20.092l-66.688,66.688
	C388.574,431.894,379.578,431.894,374.031,426.345"/>
<path fill="#5E5E5E" d="M435.747,378.815c0.913-3.671,0.832-7.503,0.035-11.208c4.137-4.929,6.839-10.397,6.224-16.643
	c-0.361-3.665-0.966-7.305-1.797-10.89l-65.282,65.282c3.587,0.831,7.225,1.436,10.889,1.797c8.212,0.809,15.082-4.11,21.142-10.496
	c1.174,0.17,2.392,0.268,3.661,0.281C421.761,397.06,433.062,389.628,435.747,378.815"/>
<path fill="#FDC08A" d="M293.356,316.777c0.855-0.484,1.946-0.173,2.486,0.65l1.053,1.612l0.595-0.39l-2.222-3.395
	c-0.537-0.824-0.387-1.949,0.399-2.54c0.863-0.646,2.078-0.424,2.657,0.466l2.258,3.446l0.594-0.39l-3.388-5.178
	c-0.539-0.823-0.389-1.949,0.398-2.539c0.862-0.647,2.076-0.424,2.658,0.464l3.422,5.231l0.596-0.389l-5.878-8.984
	c-0.539-0.822-0.388-1.948,0.399-2.539c0.861-0.647,2.075-0.423,2.657,0.464l5.911,9.037l0.778,1.188l2.854,4.363l1.378-6.594
	c0.259-1.233,1.444-2.09,2.683-1.855c1.261,0.241,2.076,1.467,1.813,2.718l-2.329,11.147c1.148,1.757,0.656,4.111-1.1,5.26
	l-7.548,4.939c-1.889,1.235-4.423,0.707-5.658-1.183l-3.753-5.734l-3.266-4.994l-1.09-1.663
	C292.135,318.509,292.416,317.308,293.356,316.777"/>
<polygon fill="#FDC08A" points="305.631,339.164 322.715,338.62 313.847,325.066 303.739,331.678 "/>
<path fill="#FDC08A" d="M353.021,257.111c-0.484,0.857-0.173,1.948,0.65,2.487l1.613,1.055l-0.39,0.596l-3.396-2.223
	c-0.823-0.54-1.948-0.388-2.539,0.398c-0.647,0.862-0.424,2.077,0.464,2.657l3.447,2.256l-0.388,0.595l-5.179-3.388
	c-0.825-0.538-1.949-0.389-2.54,0.398c-0.646,0.863-0.424,2.077,0.465,2.658l5.229,3.423l-0.39,0.595l-8.982-5.879
	c-0.822-0.537-1.948-0.387-2.538,0.4c-0.646,0.862-0.424,2.076,0.463,2.656l9.036,5.913l1.189,0.776l4.363,2.857l-6.594,1.377
	c-1.232,0.258-2.089,1.444-1.853,2.683c0.238,1.262,1.463,2.074,2.715,1.813l11.147-2.329c1.757,1.148,4.112,0.655,5.261-1.1
	l4.938-7.549c1.236-1.89,0.707-4.423-1.181-5.659l-5.736-3.75l-4.993-3.269l-1.665-1.089
	C354.753,255.892,353.551,256.173,353.021,257.111"/>
<polygon fill="#FDC08A" points="375.406,269.387 374.864,286.472 361.311,277.604 367.922,267.498 "/>
<path fill="#335CB5" d="M436.774,345.732c-1.7-17.242-8.735-33.921-19.901-47.168c-11.165-13.248-26.496-21.975-41.467-29.178
	l-10.624,10.625c15.059,15.756,31.353,20.333,40.627,35.636c1.674,2.761,3.168,5.709,3.67,8.9c0.503,3.188,1,8.523-1.956,9.826
	c-8.444,3.726-15.377,8.478-21.886,14.873v-0.001c-0.194,0.189-0.379,0.38-0.569,0.57c-0.189,0.189-0.381,0.374-0.569,0.567v0.001
	c-6.395,6.511-11.146,13.441-14.873,21.887c-1.304,2.955-6.637,2.457-9.828,1.956c-3.189-0.503-6.136-1.996-8.899-3.671
	c-15.301-9.273-24.209-26.872-34.252-42.009l-10.615,10.616c7.202,14.969,14.537,31.692,27.785,42.857s29.926,18.201,47.169,19.9
	c13.657,1.345,23.604-13.146,32.292-23.897C423.628,369.337,438.121,359.392,436.774,345.732"/>
<path fill="#2C57A3" d="M414.895,327.806c0.131-7.533-2.505-15.083-7.296-20.898c-5.89-7.152-14.505-11.363-22.575-15.913
	c-6.484-3.657-13.033-7.958-17.337-13.886l-2.904,2.903c15.059,15.758,31.353,20.333,40.626,35.635
	c1.674,2.762,3.169,5.711,3.671,8.9c0.503,3.189,1,8.524-1.956,9.827c-8.444,3.726-15.377,8.478-21.886,14.873v-0.001
	c-0.194,0.188-0.379,0.38-0.569,0.569c-0.189,0.19-0.381,0.375-0.569,0.568l0.001,0.001c-6.395,6.511-11.147,13.442-14.874,21.887
	c-1.303,2.956-6.638,2.457-9.827,1.957c-3.19-0.504-6.138-1.997-8.899-3.672c-15.302-9.273-24.21-26.872-34.254-42.009l-2.841,2.843
	c7.482,18.68,21.081,34.9,38.292,45.354c3.361,2.043,6.99,3.913,10.916,4.151c4.877,0.297,9.562-1.968,13.568-4.764
	c11.539-8.05,21.376-17.151,30.694-27.693C411.866,342.794,414.763,335.339,414.895,327.806"/>
<path fill="#FDC08A" d="M423.051,382.086c-8.666,8.665-21.327,10.053-40.118-8.737c-10.271-10.274-5.753-19.802,2.913-28.467
	c8.666-8.666,18.193-13.187,28.468-2.914C429.909,357.564,431.715,373.42,423.051,382.086"/>
<path fill="#FDC08A" d="M386.191,349.009c-0.838-1.069-1.697-2.181-2.035-3.498c-0.34-1.316-0.018-2.902,1.116-3.652
	c1.643-1.085,3.798,0.067,5.408,1.198c0.636,1.536,0.253,3.112-0.681,4.487C389.065,348.919,387.854,349.032,386.191,349.009"/>
<path fill="#191511" d="M379.58,377.095c-5.496-5.938-6.851-15.34-3.255-22.587c3.594-7.247,12.344-11.688,20.395-10.904
	c3.011-1.601,5.28-4.534,6.075-7.85c2.246-1.282,5.112-1.591,7.474-0.53c2.36,1.059,4.308,2.849,6.15,4.667
	c4.54,4.478,8.771,9.39,11.567,15.12s4.068,12.385,2.53,18.571c-2.687,10.813-13.988,18.247-25.13,18.127
	C394.247,391.586,387.146,385.27,379.58,377.095"/>
<path fill="#707070" d="M161.198,39.951L161.198,39.951c5.548,5.549,5.548,14.544,0,20.092l-66.689,66.688
	c-5.548,5.548-14.544,5.548-20.092,0c-5.548-5.548-5.548-14.544,0-20.092l66.689-66.689
	C146.654,34.404,155.649,34.404,161.198,39.951"/>
<path fill="#5E5E5E" d="M99.48,87.482c-0.912,3.67-0.831,7.502-0.034,11.208c-4.137,4.928-6.84,10.396-6.224,16.643
	c0.361,3.665,0.966,7.303,1.797,10.889l65.282-65.281c-3.586-0.832-7.225-1.437-10.889-1.798
	c-8.212-0.809-15.082,4.109-21.143,10.496c-1.173-0.169-2.389-0.267-3.661-0.281C113.468,69.237,102.166,76.669,99.48,87.482"/>
<path fill="#FDC08A" d="M241.872,149.521c-0.857,0.484-1.949,0.172-2.487-0.651l-1.055-1.612l-0.595,0.39l2.222,3.395
	c0.538,0.823,0.387,1.948-0.398,2.539c-0.863,0.647-2.077,0.424-2.658-0.464l-2.257-3.447l-0.595,0.388l3.389,5.178
	c0.539,0.824,0.388,1.949-0.4,2.539c-0.862,0.648-2.075,0.425-2.657-0.462l-3.422-5.231l-0.594,0.389l5.877,8.984
	c0.538,0.823,0.387,1.947-0.399,2.539c-0.862,0.647-2.077,0.425-2.658-0.464l-5.912-9.036l-0.777-1.189l-2.856-4.363l-1.378,6.593
	c-0.258,1.233-1.444,2.09-2.682,1.854c-1.26-0.24-2.075-1.465-1.813-2.717l2.329-11.147c-1.148-1.756-0.657-4.111,1.1-5.26
	l7.548-4.939c1.89-1.236,4.423-0.706,5.659,1.182l3.753,5.734l3.267,4.994l1.089,1.665
	C243.092,147.788,242.81,148.99,241.872,149.521"/>
<polygon fill="#FDC08A" points="229.598,127.133 212.513,127.677 221.38,141.231 231.488,134.619 "/>
<path fill="#FDC08A" d="M182.208,209.185c0.483-0.856,0.172-1.947-0.651-2.486l-1.612-1.054l0.389-0.595l3.395,2.221
	c0.823,0.538,1.948,0.387,2.539-0.399c0.647-0.862,0.424-2.076-0.463-2.657l-3.448-2.256l0.389-0.594l5.178,3.389
	c0.824,0.538,1.95,0.387,2.539-0.4c0.648-0.862,0.425-2.077-0.462-2.658l-5.231-3.422l0.389-0.595l8.983,5.878
	c0.823,0.538,1.948,0.387,2.539-0.398c0.647-0.863,0.424-2.078-0.464-2.659l-9.036-5.912l-1.189-0.778l-4.363-2.854l6.593-1.378
	c1.233-0.257,2.09-1.444,1.854-2.682c-0.239-1.262-1.465-2.076-2.717-1.813l-11.147,2.329c-1.756-1.149-4.111-0.657-5.26,1.099
	l-4.939,7.548c-1.236,1.89-0.706,4.424,1.183,5.659l5.734,3.751l4.994,3.267l1.665,1.09
	C180.475,210.405,181.677,210.123,182.208,209.185"/>
<polygon fill="#FDC08A" points="159.821,196.911 160.363,179.826 173.917,188.694 167.306,198.8 "/>
<path fill="#0094C3" d="M98.454,120.565c1.699,17.242,8.735,33.919,19.901,47.167c11.165,13.248,26.497,21.975,41.466,29.179
	l10.625-10.625c-15.058-15.758-31.353-20.334-40.627-35.636c-1.674-2.762-3.168-5.708-3.67-8.899c-0.502-3.19-1-8.525,1.955-9.828
	c8.446-3.727,15.377-8.478,21.887-14.873l0.001,0.001c0.193-0.189,0.378-0.38,0.569-0.569c0.189-0.19,0.38-0.376,0.569-0.569
	l0-0.001c6.395-6.51,11.146-13.441,14.873-21.887c1.304-2.955,6.637-2.457,9.828-1.955c3.19,0.502,6.137,1.996,8.9,3.67
	c15.302,9.273,24.211,26.874,34.253,42.009l10.616-10.616c-7.204-14.969-14.538-31.693-27.786-42.858s-29.926-18.202-47.168-19.9
	c-13.658-1.346-23.605,13.147-32.291,23.898C111.6,96.96,97.107,106.906,98.454,120.565"/>
<path fill="#007CA3" d="M120.334,138.491c-0.132,7.533,2.504,15.083,7.293,20.899c5.892,7.152,14.506,11.361,22.577,15.914
	c6.484,3.656,13.033,7.958,17.337,13.885l2.904-2.903c-15.058-15.759-31.353-20.334-40.626-35.636
	c-1.674-2.762-3.168-5.709-3.67-8.899c-0.502-3.191-1-8.525,1.956-9.829c8.445-3.726,15.377-8.478,21.886-14.874l0.001,0.002
	c0.193-0.188,0.379-0.38,0.569-0.569c0.189-0.191,0.38-0.376,0.569-0.569l-0.001,0c6.395-6.511,11.146-13.442,14.873-21.888
	c1.304-2.955,6.638-2.458,9.828-1.955c3.191,0.502,6.138,1.996,8.9,3.67c15.302,9.273,24.211,26.874,34.253,42.01l2.842-2.842
	c-7.483-18.68-21.083-34.901-38.293-45.354c-3.362-2.042-6.991-3.912-10.917-4.151c-4.876-0.297-9.56,1.967-13.567,4.763
	c-11.539,8.051-21.375,17.151-30.695,27.694C123.362,123.503,120.465,130.958,120.334,138.491"/>
<path fill="#FDC08A" d="M112.178,84.212c8.665-8.666,21.326-10.053,40.117,8.737c10.273,10.274,5.753,19.802-2.913,28.468
	c-8.665,8.665-18.193,13.186-28.467,2.913C105.319,108.733,103.512,92.877,112.178,84.212"/>
<path fill="#FDC08A" d="M149.036,117.289c0.838,1.069,1.697,2.181,2.036,3.497c0.339,1.316,0.016,2.902-1.117,3.653
	c-1.643,1.086-3.796-0.068-5.409-1.199c-0.635-1.536-0.253-3.111,0.681-4.486C146.162,117.378,147.374,117.265,149.036,117.289"/>
<path fill="#2D281F" d="M134.861,133.811c2.9,0.248,5.859-1.58,6.934-4.285c0.551-1.387,0.633-2.907,0.768-4.393
	c0.135-1.486,0.343-3.015,1.105-4.298c0.761-1.282,2.209-2.268,3.686-2.054c-0.832-1.242,0.91-2.875,2.341-3.307
	c1.431-0.433,2.969-0.085,4.463-0.151c3.776-0.167,7.081-3.138,8.292-6.72c1.211-3.582,0.569-7.6-1.064-11.01
	s-4.182-6.294-6.871-8.953c-6.703-6.628-14.82-12.299-24.101-13.951c-9.281-1.652-19.818,1.476-25.031,9.331
	c-4.953,7.463-4.191,17.62-0.258,25.667c3.933,8.048,10.572,14.405,17.244,20.383C125.382,132.773,130.853,134.381,134.861,133.811"
	/>
<path fill="#707070" d="M74.417,339.565L74.417,339.565c5.548-5.548,14.544-5.548,20.092,0l66.688,66.688
	c5.548,5.548,5.548,14.543,0,20.091c-5.548,5.549-14.544,5.549-20.092,0l-66.689-66.688
	C68.869,354.109,68.869,345.113,74.417,339.565"/>
<path fill="#5E5E5E" d="M121.947,401.282c3.67,0.912,7.501,0.831,11.208,0.035c4.928,4.136,10.396,6.839,16.643,6.224
	c3.664-0.361,7.303-0.966,10.889-1.798l-65.282-65.281c-0.832,3.586-1.436,7.225-1.797,10.889
	c-0.809,8.212,4.109,15.081,10.496,21.142c-0.169,1.174-0.267,2.392-0.281,3.661C103.702,387.296,111.134,398.597,121.947,401.282"
	/>
<path fill="#FDC08A" d="M183.986,258.891c0.483,0.855,0.172,1.947-0.651,2.487l-1.612,1.053l0.389,0.595l3.395-2.222
	c0.823-0.537,1.948-0.387,2.54,0.398c0.647,0.864,0.424,2.078-0.464,2.658l-3.447,2.258l0.388,0.594l5.179-3.388
	c0.824-0.539,1.949-0.389,2.539,0.398c0.648,0.862,0.425,2.076-0.463,2.657l-5.231,3.422l0.389,0.596l8.983-5.878
	c0.823-0.539,1.948-0.387,2.54,0.399c0.647,0.861,0.424,2.075-0.464,2.658l-9.037,5.911l-1.188,0.778l-4.363,2.854l6.593,1.378
	c1.233,0.259,2.09,1.444,1.854,2.683c-0.239,1.26-1.465,2.075-2.716,1.812l-11.148-2.329c-1.756,1.149-4.111,0.658-5.26-1.1
	l-4.939-7.548c-1.236-1.889-0.707-4.422,1.182-5.657l5.734-3.754l4.994-3.266l1.665-1.089
	C182.253,257.669,183.455,257.952,183.986,258.891"/>
<polygon fill="#FDC08A" points="161.599,271.166 162.142,288.25 175.696,279.382 169.084,269.274 "/>
<path fill="#FDC08A" d="M243.65,318.555c-0.856-0.484-1.948-0.172-2.487,0.651l-1.054,1.612l-0.594-0.389l2.221-3.396
	c0.538-0.824,0.388-1.948-0.399-2.539c-0.862-0.647-2.077-0.424-2.658,0.464l-2.256,3.447l-0.594-0.389l3.389-5.179
	c0.537-0.824,0.388-1.949-0.4-2.539c-0.862-0.646-2.077-0.425-2.657,0.464l-3.422,5.23l-0.595-0.39l5.878-8.982
	c0.538-0.823,0.387-1.948-0.398-2.539c-0.863-0.646-2.077-0.423-2.659,0.464l-5.913,9.036l-0.777,1.188l-2.855,4.364l-1.378-6.595
	c-0.257-1.231-1.443-2.088-2.682-1.852c-1.261,0.237-2.075,1.463-1.813,2.715l2.33,11.147c-1.149,1.757-0.658,4.11,1.098,5.261
	l7.549,4.938c1.89,1.236,4.423,0.706,5.659-1.183l3.751-5.734l3.267-4.994l1.09-1.664
	C244.871,320.288,244.589,319.086,243.65,318.555"/>
<polygon fill="#FDC08A" points="231.376,340.941 214.292,340.399 223.159,326.845 233.266,333.457 "/>
<path fill="#F26D44" d="M155.03,402.31c17.242-1.7,33.919-8.735,47.168-19.901c13.247-11.166,21.975-26.496,29.178-41.467
	l-10.625-10.624c-15.758,15.058-20.334,31.353-35.636,40.626c-2.761,1.674-5.708,3.169-8.899,3.671s-8.525,1-9.828-1.956
	c-3.726-8.444-8.477-15.377-14.873-21.886h0.001c-0.189-0.194-0.38-0.379-0.57-0.57c-0.19-0.188-0.376-0.38-0.568-0.568h-0.001
	c-6.511-6.395-13.441-11.146-21.887-14.873c-2.954-1.304-2.457-6.638-1.955-9.828c0.502-3.189,1.996-6.137,3.67-8.899
	c9.273-15.302,26.873-24.209,42.009-34.253l-10.616-10.614c-14.969,7.202-31.693,14.537-42.858,27.784
	c-11.165,13.249-18.202,29.927-19.9,47.17c-1.346,13.657,13.147,23.604,23.898,32.291
	C131.426,389.162,141.372,403.656,155.03,402.31"/>
<path fill="#E2603D" d="M172.956,380.429c7.533,0.131,15.084-2.504,20.899-7.295c7.153-5.891,11.362-14.505,15.914-22.575
	c3.656-6.484,7.958-13.033,13.885-17.337l-2.903-2.904c-15.758,15.058-20.334,31.353-35.635,40.626
	c-2.762,1.674-5.709,3.168-8.899,3.671c-3.191,0.502-8.525,1-9.829-1.957c-3.726-8.443-8.477-15.376-14.873-21.884l0.001-0.001
	c-0.188-0.194-0.38-0.38-0.57-0.57c-0.19-0.188-0.376-0.38-0.569-0.568l0,0c-6.511-6.395-13.442-11.146-21.888-14.873
	c-2.955-1.304-2.458-6.638-1.955-9.828c0.502-3.189,1.996-6.137,3.67-8.899c9.273-15.302,26.873-24.21,42.01-34.253l-2.842-2.842
	c-18.68,7.483-34.901,21.082-45.354,38.293c-2.043,3.36-3.912,6.99-4.151,10.916c-0.297,4.877,1.968,9.562,4.763,13.568
	c8.051,11.539,17.151,21.376,27.694,30.694C157.968,377.4,165.423,380.298,172.956,380.429"/>
<path fill="#FDC08A" d="M118.677,388.585c-8.665-8.665-10.053-21.327,8.737-40.118c10.274-10.271,19.802-5.752,28.467,2.913
	c8.665,8.667,13.187,18.193,2.912,28.468C143.198,395.444,127.342,397.25,118.677,388.585"/>
<path fill="#FDC08A" d="M151.754,351.727c1.069-0.838,2.181-1.697,3.497-2.036c1.316-0.339,2.902-0.017,3.653,1.117
	c1.085,1.643-0.068,3.798-1.199,5.407c-1.536,0.637-3.111,0.254-4.486-0.68C151.844,354.6,151.73,353.389,151.754,351.727"/>
<path fill="#33261C" d="M137.069,340.377c2.33-1.021,5.236-0.563,7.14,1.125c1.904,1.688,2.706,4.517,1.971,6.953
	c7.861-3.226,17.598,1.77,21.053,9.533c3.456,7.763,1.478,17.183-3.415,24.129c-4.893,6.947-12.305,11.737-20.014,15.309
	c-2.979,1.382-6.134,2.628-9.418,2.589c-3.284-0.041-6.74-1.646-8.1-4.635c-3.333,2.927-9.313-0.32-11.986-3.861
	c-2.674-3.538-3.081-8.27-2.986-12.703c0.125-5.892,0.957-11.768,2.473-17.462c1.479-5.555,3.72-11.107,7.829-15.127
	C125.725,342.207,131.707,338.309,137.069,340.377"/>
<path fill="#707070" d="M460.81,126.732L460.81,126.732c-5.547,5.549-14.542,5.549-20.091,0l-66.688-66.688
	c-5.549-5.548-5.549-14.544,0-20.092c5.548-5.548,14.543-5.548,20.091,0l66.688,66.689
	C466.358,112.188,466.358,121.184,460.81,126.732"/>
<path fill="#5E5E5E" d="M413.28,65.015c-3.67-0.912-7.501-0.831-11.208-0.034c-4.928-4.137-10.396-6.839-16.643-6.224
	c-3.665,0.361-7.305,0.965-10.89,1.797l65.282,65.282c0.831-3.586,1.436-7.224,1.797-10.889c0.809-8.211-4.109-15.082-10.495-21.142
	c0.169-1.173,0.268-2.389,0.28-3.662C431.525,79.002,424.093,67.7,413.28,65.015"/>
<path fill="#FDC08A" d="M351.242,207.407c-0.483-0.857-0.173-1.949,0.651-2.486l1.611-1.055l-0.39-0.595l-3.395,2.221
	c-0.823,0.54-1.948,0.388-2.54-0.398c-0.646-0.863-0.424-2.076,0.465-2.658l3.448-2.255l-0.39-0.595l-5.179,3.388
	c-0.822,0.539-1.949,0.389-2.539-0.399c-0.647-0.862-0.423-2.076,0.464-2.657l5.232-3.423l-0.39-0.593l-8.983,5.877
	c-0.823,0.539-1.948,0.388-2.539-0.399c-0.647-0.862-0.424-2.077,0.463-2.657l9.037-5.913l1.188-0.778l4.363-2.855l-6.592-1.378
	c-1.235-0.258-2.092-1.445-1.856-2.682c0.24-1.261,1.466-2.075,2.718-1.814l11.146,2.33c1.757-1.149,4.111-0.656,5.261,1.1
	l4.938,7.548c1.236,1.89,0.707,4.423-1.183,5.659l-5.733,3.751l-4.994,3.267l-1.664,1.089
	C352.975,208.627,351.772,208.345,351.242,207.407"/>
<polygon fill="#FDC08A" points="373.629,195.132 373.085,178.048 359.531,186.916 366.144,197.022 "/>
<path fill="#FDC08A" d="M291.577,147.742c0.856,0.483,1.948,0.172,2.486-0.651l1.055-1.612l0.596,0.39l-2.223,3.395
	c-0.539,0.823-0.388,1.948,0.398,2.54c0.862,0.647,2.078,0.424,2.657-0.464l2.257-3.448l0.594,0.388l-3.388,5.178
	c-0.538,0.824-0.388,1.95,0.398,2.54c0.863,0.648,2.077,0.424,2.658-0.463l3.423-5.231l0.595,0.389l-5.879,8.983
	c-0.537,0.823-0.387,1.948,0.4,2.539c0.862,0.647,2.076,0.424,2.657-0.464l5.912-9.037l0.777-1.188l2.856-4.363l1.378,6.593
	c0.257,1.234,1.444,2.09,2.682,1.855c1.262-0.24,2.074-1.465,1.814-2.717l-2.33-11.147c1.149-1.756,0.657-4.11-1.1-5.26
	l-7.548-4.938c-1.891-1.236-4.423-0.707-5.659,1.182l-3.751,5.734l-3.269,4.994l-1.089,1.665
	C290.356,146.009,290.639,147.212,291.577,147.742"/>
<polygon fill="#FDC08A" points="303.852,125.355 320.937,125.898 312.068,139.453 301.963,132.841 "/>
<path fill="#E59E38" d="M380.197,63.988c-17.242,1.699-33.92,8.735-47.168,19.901c-13.248,11.165-21.974,26.496-29.178,41.466
	l10.625,10.625c15.758-15.058,20.334-31.353,35.636-40.627c2.762-1.673,5.71-3.168,8.9-3.67c3.188-0.502,8.523-0.999,9.827,1.956
	c3.726,8.446,8.477,15.377,14.872,21.886l-0.001,0.001c0.189,0.193,0.38,0.378,0.57,0.568c0.189,0.19,0.374,0.381,0.567,0.57
	l0.001-0.001c6.51,6.395,13.442,11.146,21.887,14.873c2.956,1.304,2.457,6.637,1.957,9.828c-0.504,3.19-1.996,6.137-3.671,8.9
	c-9.274,15.301-26.872,24.21-42.009,34.252l10.615,10.616c14.969-7.203,31.693-14.538,42.858-27.787
	c11.164-13.247,18.2-29.925,19.899-47.168c1.346-13.658-13.146-23.604-23.896-32.291C403.802,77.135,393.856,62.642,380.197,63.988"
	/>
<path fill="#D38D31" d="M362.271,85.869c-7.532-0.132-15.082,2.504-20.898,7.293c-7.151,5.891-11.362,14.506-15.913,22.577
	c-3.657,6.484-7.959,13.033-13.886,17.337l2.904,2.904c15.757-15.058,20.333-31.353,35.634-40.627c2.763-1.674,5.711-3.168,8.9-3.67
	c3.19-0.503,8.524-1,9.828,1.955c3.725,8.446,8.477,15.377,14.873,21.886l-0.002,0.001c0.188,0.193,0.381,0.379,0.57,0.568
	c0.19,0.19,0.375,0.381,0.568,0.57v0c6.51,6.395,13.442,11.146,21.887,14.872c2.956,1.304,2.458,6.638,1.957,9.828
	c-0.504,3.191-1.996,6.139-3.671,8.9c-9.274,15.303-26.873,24.211-42.01,34.253l2.843,2.841c18.68-7.482,34.9-21.082,45.354-38.292
	c2.043-3.362,3.912-6.992,4.151-10.917c0.298-4.876-1.968-9.561-4.763-13.567c-8.051-11.539-17.151-21.376-27.693-30.695
	C377.259,88.896,369.805,86,362.271,85.869"/>
<path fill="#FDC08A" d="M416.551,77.712c8.665,8.665,10.053,21.326-8.737,40.117c-10.273,10.273-19.802,5.753-28.467-2.913
	c-8.666-8.665-13.187-18.193-2.913-28.467C392.029,70.854,407.885,69.046,416.551,77.712"/>
<path fill="#FDC08A" d="M383.475,114.571c-1.07,0.838-2.182,1.697-3.499,2.036c-1.316,0.339-2.901,0.016-3.651-1.117
	c-1.086-1.643,0.066-3.796,1.197-5.409c1.536-0.635,3.111-0.253,4.487,0.682S383.497,112.908,383.475,114.571"/>
<path fill="#14120E" d="M411.56,121.183c-5.937,5.495-15.34,6.85-22.587,3.255c-7.247-3.595-11.688-12.345-10.903-20.396
	c-1.602-3.011-4.534-5.281-7.85-6.075c-1.283-2.247-1.592-5.114-0.531-7.475c1.059-2.36,2.849-4.309,4.667-6.15
	c4.478-4.54,9.39-8.771,15.12-11.567s12.385-4.067,18.572-2.53c10.813,2.686,18.246,13.988,18.126,25.129
	C426.052,106.516,419.734,113.615,411.56,121.183"/>
<path fill="#070605" d="M429.821,78.096c0,6.849-5.552,12.401-12.4,12.401s-12.401-5.552-12.401-12.401s5.553-12.401,12.401-12.401
	S429.821,71.247,429.821,78.096"/>
</svg>
