<?xml version="1.0" encoding="utf-8"?>
<!-- Generator: Adobe Illustrator 15.0.0, SVG Export Plug-In . SVG Version: 6.00 Build 0)  -->
<!DOCTYPE svg PUBLIC "-//W3C//DTD SVG 1.1//EN" "http://www.w3.org/Graphics/SVG/1.1/DTD/svg11.dtd">
<svg version="1.1" id="Layer_1" xmlns="http://www.w3.org/2000/svg" xmlns:xlink="http://www.w3.org/1999/xlink" x="0px" y="0px"
	 width="1366px" height="563px" viewBox="0 0 1366 563" enable-background="new 0 0 1366 563" xml:space="preserve">
<rect x="-50.373" y="-11.395" fill="#3C5B8C" width="1465.487" height="574.393"/>
<path fill="#5272A0" d="M492.567,461.334v-41.158h-29.557V392.82h-30.522v48.215h-32.283v51.521h-26.602v15.279v52.66v2.5h113.114
	h59.309v-55.16v-46.502H492.567z M510.717,537.91h-14.742v-17.688h14.742V537.91z M510.717,514.832h-14.742v-17.688h14.742V514.832z
	 M510.717,491.752h-14.742v-17.689h14.742V491.752z M532.014,537.91h-14.743v-17.688h14.743V537.91z M532.014,514.832h-14.743
	v-17.688h14.743V514.832z M532.014,491.752h-14.743v-17.689h14.743V491.752z"/>
<path fill="#5272A0" d="M321.373,353.705h-29.559V326.35h-30.521v48.216h-32.282v51.522H202.41v15.279v52.66v68.969h113.115h59.308
	V441.367v-46.504h-53.459V353.705z M346.076,407.594h14.744v17.688h-14.744V407.594z M346.076,430.674h14.744v17.688h-14.744
	V430.674z M346.076,453.754h14.744v17.686h-14.744V453.754z M324.781,407.594h14.744v17.688h-14.744V407.594z M324.781,430.674
	h14.744v17.688h-14.744V430.674z M324.781,453.754h14.744v17.686h-14.744V453.754z"/>
<path fill="#5272A0" d="M163.934,408.838v-30.254h-21.726v-20.106h-22.436v35.44H96.044v37.869H76.489v11.232v18.314H28.118v-41.158
	H1v142.82h21.27h59.308v-55.158v-11.189h78.057h43.594V443.02v-34.182H163.934z M109.973,400.916h6.16v10.854h-6.16V400.916z
	 M46.271,537.91H31.527v-17.686h14.744V537.91z M46.271,514.832H31.527v-17.688h14.744V514.832z M46.271,491.75H31.527v-17.688
	h14.744V491.75z M67.566,537.91H52.823v-17.686h14.744V537.91z M67.566,514.832H52.823v-17.688h14.744V514.832z M67.566,491.75
	H52.823v-17.688h14.744V491.75z M87.576,463.74h-5.998v-2.406h-0.163v-8.445h6.161V463.74z M87.576,448.322h-6.161v-10.854h6.161
	V448.322z M96.675,463.74h-6.161v-10.852h6.161V463.74z M96.675,448.322h-6.161v-10.854h6.161V448.322z M107.036,427.188h-6.163
	v-10.854h6.163V427.188z M107.036,411.77h-6.163v-10.854h6.163V411.77z M109.973,416.334h6.16v10.854h-6.16V416.334z
	 M121.033,481.771h-6.16v-10.854h6.16V481.771z M121.033,466.352h-6.16V455.5h6.16V466.352z M130.131,481.771h-6.161v-10.854h6.161
	V481.771z M130.131,466.352h-6.161V455.5h6.161V466.352z M140.492,445.219h-6.161v-10.854h6.161V445.219z M140.492,429.799h-6.161
	v-10.854h6.161V429.799z M149.591,445.219h-6.161v-10.854h6.161V445.219z M149.591,429.799h-6.161v-10.854h6.161V429.799z
	 M177.276,465.125h-10.837v-13h10.837V465.125z M177.276,448.16h-10.837v-13h10.837V448.16z M177.276,431.193h-10.837v-12.998
	h10.837V431.193z M192.929,465.125H182.09v-13h10.838V465.125z M192.929,448.16H182.09v-13h10.838V448.16z M192.929,431.193H182.09
	v-12.998h10.838V431.193z"/>
<rect x="77.787" y="492.121" fill="#5272A0" width="125.442" height="70.875"/>
<path fill="#5272A0" d="M664.171,461.334v-41.158h-29.557V392.82h-30.521v48.215h-32.284v51.521h-26.602v15.279v52.66v2.5h113.114
	h59.308v-55.16v-46.502H664.171z M682.321,537.91h-14.742v-17.688h14.742V537.91z M682.321,514.832h-14.742v-17.688h14.742V514.832z
	 M682.321,491.752h-14.742v-17.689h14.742V491.752z M703.618,537.91h-14.744v-17.688h14.744V537.91z M703.618,514.832h-14.744
	v-17.688h14.744V514.832z M703.618,491.752h-14.744v-17.689h14.744V491.752z"/>
<path fill="#5272A0" d="M1037.04,353.705h-29.559V326.35H976.96v48.216h-32.281v51.522h-26.603v15.279v52.66v68.969h113.115h59.309
	V441.367v-46.504h-53.46V353.705z M1061.744,407.594h14.742v17.688h-14.742V407.594z M1061.744,430.674h14.742v17.688h-14.742
	V430.674z M1061.744,453.754h14.742v17.686h-14.742V453.754z M1040.448,407.594h14.743v17.688h-14.743V407.594z M1040.448,430.674
	h14.743v17.688h-14.743V430.674z M1040.448,453.754h14.743v17.686h-14.743V453.754z"/>
<path fill="#5272A0" d="M879.601,408.838v-30.254h-21.726v-20.106h-22.437v35.44h-23.728v37.869h-19.555v11.232v18.314h-48.371
	v-41.158h-27.119v142.82h21.271h59.308v-55.158v-11.189h78.057h43.594V443.02v-34.182H879.601z M825.64,400.916h6.161v10.854h-6.161
	V400.916z M761.938,537.91h-14.743v-17.686h14.743V537.91z M761.938,514.832h-14.743v-17.688h14.743V514.832z M761.938,491.75
	h-14.743v-17.688h14.743V491.75z M783.233,537.91H768.49v-17.686h14.743V537.91z M783.233,514.832H768.49v-17.688h14.743V514.832z
	 M783.233,491.75H768.49v-17.688h14.743V491.75z M803.242,463.74h-5.997v-2.406h-0.163v-8.445h6.16V463.74z M803.242,448.322h-6.16
	v-10.854h6.16V448.322z M812.343,463.74h-6.161v-10.852h6.161V463.74z M812.343,448.322h-6.161v-10.854h6.161V448.322z
	 M822.703,427.188h-6.163v-10.854h6.163V427.188z M822.703,411.77h-6.163v-10.854h6.163V411.77z M825.64,416.334h6.161v10.854
	h-6.161V416.334z M836.7,481.771h-6.16v-10.854h6.16V481.771z M836.7,466.352h-6.16V455.5h6.16V466.352z M845.798,481.771h-6.161
	v-10.854h6.161V481.771z M845.798,466.352h-6.161V455.5h6.161V466.352z M856.159,445.219h-6.161v-10.854h6.161V445.219z
	 M856.159,429.799h-6.161v-10.854h6.161V429.799z M865.258,445.219h-6.159v-10.854h6.159V445.219z M865.258,429.799h-6.159v-10.854
	h6.159V429.799z M892.942,465.125h-10.838v-13h10.838V465.125z M892.942,448.16h-10.838v-13h10.838V448.16z M892.942,431.193
	h-10.838v-12.998h10.838V431.193z M908.596,465.125h-10.838v-13h10.838V465.125z M908.596,448.16h-10.838v-13h10.838V448.16z
	 M908.596,431.193h-10.838v-12.998h10.838V431.193z"/>
<rect x="793.454" y="492.121" fill="#5272A0" width="125.441" height="70.875"/>
<path fill="#5272A0" d="M1089.536,461.336v46.504V563h59.31h113.114v-2.5v-52.66v-15.281h-26.602v-51.521h-32.284v-48.215h-30.521
	v27.355h-29.558v41.158H1089.536z M1124.846,520.227h14.742v17.688h-14.742V520.227z M1124.846,497.146h14.742v17.688h-14.742
	V497.146z M1124.846,474.066h14.742v17.688h-14.742V474.066z M1103.549,520.227h14.743v17.688h-14.743V520.227z M1103.549,497.146
	h14.743v17.688h-14.743V497.146z M1103.549,474.066h14.743v17.688h-14.743V474.066z"/>
<path fill="#5272A0" d="M1309.111,413.186h-47.635v41.436V563h52.848h100.79v-61.455v-46.924v-13.613h-23.703v-45.91h-28.765
	v-42.962h-27.196v24.374h-26.339V413.186z M1287.101,440.289h-13.139v-15.762h13.139V440.289z M1287.101,460.855h-13.139v-15.762
	h13.139V460.855z M1287.101,481.418h-13.139V465.66h13.139V481.418z M1306.076,440.289h-13.139v-15.762h13.139V440.289z
	 M1306.076,460.855h-13.139v-15.762h13.139V460.855z M1306.076,481.418h-13.139V465.66h13.139V481.418z"/>
</svg>
