<?xml version="1.0" encoding="utf-8"?>
<!-- Generator: Adobe Illustrator 15.0.0, SVG Export Plug-In . SVG Version: 6.00 Build 0)  -->
<!DOCTYPE svg PUBLIC "-//W3C//DTD SVG 1.1//EN" "http://www.w3.org/Graphics/SVG/1.1/DTD/svg11.dtd">
<svg version="1.1" id="Layer_1" xmlns="http://www.w3.org/2000/svg" xmlns:xlink="http://www.w3.org/1999/xlink" x="0px" y="0px"
	 width="1366px" height="563px" viewBox="0 0 1366 563" enable-background="new 0 0 1366 563" xml:space="preserve">
<rect x="-50.373" y="-32.394" fill="#AD455E" width="1465.487" height="595.391"/>
<path fill="#913043" d="M491.567,461.334v-41.158h-29.557V392.82h-30.522v48.216h-32.283v51.521h-26.602v15.28v52.66v2.5h113.114
	h59.309v-55.16v-46.503H491.567z M509.717,537.911h-14.742v-17.688h14.742V537.911z M509.717,514.832h-14.742v-17.688h14.742
	V514.832z M509.717,491.752h-14.742v-17.688h14.742V491.752z M531.014,537.911h-14.743v-17.688h14.743V537.911z M531.014,514.832
	h-14.743v-17.688h14.743V514.832z M531.014,491.752h-14.743v-17.688h14.743V491.752z"/>
<path fill="#913043" d="M320.373,353.706h-29.559V326.35h-30.521v48.217h-32.282v51.521H201.41v15.28v52.66v68.969h113.115h59.308
	V441.368v-46.504h-53.459V353.706z M345.076,407.594h14.744v17.688h-14.744V407.594z M345.076,430.675h14.744v17.688h-14.744
	V430.675z M345.076,453.755h14.744v17.686h-14.744V453.755z M323.781,407.594h14.744v17.688h-14.744V407.594z M323.781,430.675
	h14.744v17.688h-14.744V430.675z M323.781,453.755h14.744v17.686h-14.744V453.755z"/>
<path fill="#913043" d="M162.934,408.838v-30.254h-21.726v-20.105h-22.436v35.439H95.044v37.87H75.489v11.231v18.315H27.118v-41.159
	H0v142.821h21.27h59.308v-55.159v-11.189h78.057h43.594V443.02v-34.182H162.934z M108.973,400.916h6.16v10.854h-6.16V400.916z
	 M45.271,537.911H30.527v-17.687h14.744V537.911z M45.271,514.832H30.527v-17.687h14.744V514.832z M45.271,491.751H30.527v-17.688
	h14.744V491.751z M66.566,537.911H51.823v-17.687h14.744V537.911z M66.566,514.832H51.823v-17.687h14.744V514.832z M66.566,491.751
	H51.823v-17.688h14.744V491.751z M86.576,463.741h-5.998v-2.406h-0.163v-8.446h6.161V463.741z M86.576,448.322h-6.161v-10.854h6.161
	V448.322z M95.675,463.741h-6.161v-10.853h6.161V463.741z M95.675,448.322h-6.161v-10.854h6.161V448.322z M106.036,427.188h-6.163
	v-10.854h6.163V427.188z M106.036,411.77h-6.163v-10.854h6.163V411.77z M108.973,416.335h6.16v10.854h-6.16V416.335z
	 M120.033,481.772h-6.16v-10.854h6.16V481.772z M120.033,466.353h-6.16v-10.852h6.16V466.353z M129.131,481.772h-6.161v-10.854
	h6.161V481.772z M129.131,466.353h-6.161v-10.852h6.161V466.353z M139.492,445.22h-6.161v-10.854h6.161V445.22z M139.492,429.799
	h-6.161v-10.853h6.161V429.799z M148.591,445.22h-6.161v-10.854h6.161V445.22z M148.591,429.799h-6.161v-10.853h6.161V429.799z
	 M176.276,465.126h-10.837v-13h10.837V465.126z M176.276,448.161h-10.837V435.16h10.837V448.161z M176.276,431.194h-10.837v-12.999
	h10.837V431.194z M191.929,465.126H181.09v-13h10.838V465.126z M191.929,448.161H181.09V435.16h10.838V448.161z M191.929,431.194
	H181.09v-12.999h10.838V431.194z"/>
<rect x="76.787" y="492.121" fill="#913043" width="125.442" height="70.876"/>
<path fill="#913043" d="M663.171,461.334v-41.158h-29.557V392.82h-30.521v48.216h-32.284v51.521h-26.602v15.28v52.66v2.5h113.114
	h59.308v-55.16v-46.503H663.171z M681.321,537.911h-14.742v-17.688h14.742V537.911z M681.321,514.832h-14.742v-17.688h14.742
	V514.832z M681.321,491.752h-14.742v-17.688h14.742V491.752z M702.618,537.911h-14.744v-17.688h14.744V537.911z M702.618,514.832
	h-14.744v-17.688h14.744V514.832z M702.618,491.752h-14.744v-17.688h14.744V491.752z"/>
<path fill="#913043" d="M1036.04,353.706h-29.559V326.35H975.96v48.217h-32.281v51.521h-26.603v15.28v52.66v68.969h113.115h59.309
	V441.368v-46.504h-53.46V353.706z M1060.744,407.594h14.742v17.688h-14.742V407.594z M1060.744,430.675h14.742v17.688h-14.742
	V430.675z M1060.744,453.755h14.742v17.686h-14.742V453.755z M1039.448,407.594h14.743v17.688h-14.743V407.594z M1039.448,430.675
	h14.743v17.688h-14.743V430.675z M1039.448,453.755h14.743v17.686h-14.743V453.755z"/>
<path fill="#913043" d="M878.601,408.838v-30.254h-21.726v-20.105h-22.437v35.439h-23.728v37.87h-19.555v11.231v18.315h-48.371
	v-41.159h-27.119v142.821h21.271h59.308v-55.159v-11.189h78.057h43.594V443.02v-34.182H878.601z M824.64,400.916h6.161v10.854
	h-6.161V400.916z M760.938,537.911h-14.743v-17.687h14.743V537.911z M760.938,514.832h-14.743v-17.687h14.743V514.832z
	 M760.938,491.751h-14.743v-17.688h14.743V491.751z M782.233,537.911H767.49v-17.687h14.743V537.911z M782.233,514.832H767.49
	v-17.687h14.743V514.832z M782.233,491.751H767.49v-17.688h14.743V491.751z M802.242,463.741h-5.997v-2.406h-0.163v-8.446h6.16
	V463.741z M802.242,448.322h-6.16v-10.854h6.16V448.322z M811.343,463.741h-6.161v-10.853h6.161V463.741z M811.343,448.322h-6.161
	v-10.854h6.161V448.322z M821.703,427.188h-6.163v-10.854h6.163V427.188z M821.703,411.77h-6.163v-10.854h6.163V411.77z
	 M824.64,416.335h6.161v10.854h-6.161V416.335z M835.7,481.772h-6.16v-10.854h6.16V481.772z M835.7,466.353h-6.16v-10.852h6.16
	V466.353z M844.798,481.772h-6.161v-10.854h6.161V481.772z M844.798,466.353h-6.161v-10.852h6.161V466.353z M855.159,445.22h-6.161
	v-10.854h6.161V445.22z M855.159,429.799h-6.161v-10.853h6.161V429.799z M864.258,445.22h-6.159v-10.854h6.159V445.22z
	 M864.258,429.799h-6.159v-10.853h6.159V429.799z M891.942,465.126h-10.838v-13h10.838V465.126z M891.942,448.161h-10.838V435.16
	h10.838V448.161z M891.942,431.194h-10.838v-12.999h10.838V431.194z M907.596,465.126h-10.838v-13h10.838V465.126z M907.596,448.161
	h-10.838V435.16h10.838V448.161z M907.596,431.194h-10.838v-12.999h10.838V431.194z"/>
<rect x="792.454" y="492.121" fill="#913043" width="125.441" height="70.876"/>
<path fill="#913043" d="M1088.536,461.337v46.503V563h59.31h113.114v-2.5v-52.66v-15.28h-26.602v-51.521h-32.284v-48.215h-30.521
	v27.354h-29.558v41.159H1088.536z M1123.846,520.227h14.742v17.688h-14.742V520.227z M1123.846,497.146h14.742v17.688h-14.742
	V497.146z M1123.846,474.066h14.742v17.688h-14.742V474.066z M1102.549,520.227h14.743v17.688h-14.743V520.227z M1102.549,497.146
	h14.743v17.688h-14.743V497.146z M1102.549,474.066h14.743v17.688h-14.743V474.066z"/>
<path fill="#913043" d="M1308.111,413.186h-47.635v41.437V563h52.848h100.79v-61.455v-46.923v-13.614h-23.703v-45.909h-28.765
	v-42.962h-27.196v24.374h-26.339V413.186z M1286.101,440.289h-13.139v-15.762h13.139V440.289z M1286.101,460.855h-13.139v-15.762
	h13.139V460.855z M1286.101,481.418h-13.139V465.66h13.139V481.418z M1305.076,440.289h-13.139v-15.762h13.139V440.289z
	 M1305.076,460.855h-13.139v-15.762h13.139V460.855z M1305.076,481.418h-13.139V465.66h13.139V481.418z"/>
</svg>
