<?xml version="1.0" encoding="utf-8"?>
<!-- Generator: Adobe Illustrator 15.0.0, SVG Export Plug-In . SVG Version: 6.00 Build 0)  -->
<!DOCTYPE svg PUBLIC "-//W3C//DTD SVG 1.1//EN" "http://www.w3.org/Graphics/SVG/1.1/DTD/svg11.dtd">
<svg version="1.1" id="Layer_1" xmlns="http://www.w3.org/2000/svg" xmlns:xlink="http://www.w3.org/1999/xlink" x="0px" y="0px"
	 width="320px" height="640px" viewBox="0 0 320 640" enable-background="new 0 0 320 640" xml:space="preserve">
<ellipse opacity="0.25" fill="#3D3D3D" enable-background="new    " cx="224.325" cy="380.777" rx="55.952" ry="3.091"/>
<ellipse opacity="0.26" fill="#3D3D3D" enable-background="new    " cx="171.604" cy="432.606" rx="129.239" ry="4.062"/>
<path opacity="0.24" fill="#3D3D3D" enable-background="new    " d="M248.817,395.296c0,1.516-35.281,5.395-78.805,5.395
	c-43.525,0-82.624-2.546-82.624-4.062c0-1.515,39.16-4.062,82.624-4.062S248.817,393.841,248.817,395.296z"/>
<g>
	<g>
		<path fill="#9B9B9B" d="M251.623,310.938L251.623,310.938c2.789-1.453,16.186-9.82,16.609-10.73
			c0.364-0.727-0.242-1.029-1.697-1.878c-1.455-0.787-5.273-3.212-7.335-3.394c-0.546-0.062-1.879,0.12-3.698,0.424
			c0,0-0.06,0.062,0,0.062c1.577,0.908,4.426,2.182,4.244,3.697c-0.183,1.576-3.759,6.426-5.456,8.607
			C253.806,308.271,252.836,309.484,251.623,310.938z"/>
		<path fill="#B7B7B7" d="M168.696,261.776C168.696,261.837,168.696,261.837,168.696,261.776c0.183,0.121,1.637,0.97,4.001,2.425
			c13.882,8.547,59.225,36.432,59.589,36.734c0.424,0.363,2.062,0.85,3.394,0.424c0.121-0.061,0.243-0.121,0.364-0.121
			c2.122-1.031,4.788-2.061,7.517-2.969c1.455-0.425,2.91-0.849,4.305-1.273c2.849-0.728,5.516-1.334,7.637-1.758
			c1.819-0.364,3.214-0.485,3.759-0.424c2.062,0.182,5.88,2.606,7.335,3.394l-73.895-44.918c0,0-1.03-0.606-2.667-1.395
			c-2.788-1.333-7.153-3.212-10.002-2.91C175.668,249.531,168.999,261.291,168.696,261.776z"/>
		<path fill="#898989" d="M231.133,314.695c0.122,0.363,0.426,0.729,0.789,1.031l0.061,0.061c1.576,1.274,4.85,2.606,6.668,3.517
			c4.122,2.121,5.517,0.545,5.517,0.545s4.364-5.153,7.456-8.851c1.273-1.514,2.242-2.727,2.729-3.334
			c1.697-2.121,5.212-7.031,5.455-8.607c0.183-1.516-2.668-2.789-4.243-3.698l0,0c-2.062,0.364-4.729,0.97-7.518,1.698v0.06
			c0.606,0.061,1.213,0.304,1.698,0.606c2.667,1.757,2.667,6.607-0.122,10.851c-2.728,4.242-7.152,6.182-9.88,4.426
			c-2.668-1.76-2.668-6.609,0.121-10.852c1.03-1.576,2.304-2.85,3.637-3.758v-0.062c-2.728,0.849-5.334,1.82-7.396,2.91
			c-0.121,0.061-0.242,0.121-0.363,0.121c0,0-1.697,3.334-3.516,7.336C230.285,312.695,230.71,313.18,231.133,314.695z"/>
		<path fill="#666666" d="M168.696,276.446l19.763,12.245l11.396,7.093l32.128,20.003c-0.424-0.363-0.728-0.729-0.788-1.031
			c-0.424-1.576-0.788-2,0.971-6c1.696-3.699,3.272-6.91,3.515-7.275c0,0,0-0.061-0.06-0.061c-1.335,0.426-2.972-0.121-3.334-0.424
			c-0.425-0.303-45.707-28.188-59.528-36.735h-0.061c-0.364,0.97-1.091,2.304-1.88,3.759c-0.666,1.152-1.272,2.364-1.818,3.516
			C167.969,273.779,167.423,275.718,168.696,276.446z"/>
		<path fill="#898989" d="M179.305,334.944c0,1.211,0.97,2.121,2.121,2.121h17.398c1.212,0,2.122-0.971,2.122-2.121v-29.946
			c0-1.213-0.97-2.123-2.122-2.123h-17.398c-1.213,0-2.121,0.971-2.121,2.123V334.944z"/>
		<path fill="#E2CD71" d="M239.682,313c2.666,1.756,7.152-0.184,9.88-4.426c2.729-4.184,2.788-9.094,0.122-10.851
			c-0.546-0.363-1.152-0.546-1.818-0.606l0,0c-1.395,0.364-2.85,0.788-4.305,1.273l0,0c-1.394,0.909-2.667,2.182-3.818,3.819
			C237.014,306.391,236.953,311.24,239.682,313z"/>
		<path fill="#282828" d="M145.419,287.054c2.97,3.213,7.94,3.273,13.154,3.455c5.759,0.122,11.638,0.243,16.003,4.062
			c2.91,2.546,4.668,5.333,5.637,8.791c0.426,1.393,0.606,2.969,0.729,4.607c0.061,1.029,0.909,1.818,1.939,1.818
			c0.061,0,0.121,0,0.121,0c1.092-0.062,1.879-0.971,1.819-2.062c-0.121-1.697-0.304-3.213-0.728-4.729
			c-1.092-4.423-3.334-8.123-6.972-11.334c-5.455-4.789-12.366-4.911-18.488-5.032c-4.606-0.121-8.547-0.182-10.427-2.182
			c-2.182-2.364-2.546-4.971-2.425-6.85c0.182-2.97,1.759-6.123,3.94-8.002c5.455-4.546,14.004-2.485,19.156,2h0.06
			c0.485-1.151,1.152-2.364,1.819-3.516c0,0,0,0,0-0.061c-6.487-5.213-16.61-7.153-23.46-1.455
			c-3.031,2.546-5.092,6.607-5.335,10.729C141.66,280.992,142.873,284.387,145.419,287.054z"/>
		<path fill="#666666" d="M186.094,293.783v16.731c0,3.637,2.729,6.79,6.365,7.032c2.121,0.121,4.001-0.668,5.273-2.001
			c0.425-0.424,0.788-0.971,1.092-1.516c0.546-0.969,0.909-2.121,0.909-3.334v-15.034l0,0l-11.396-7.091
			c-0.121,0.121-0.182,0.121-0.304,0.242C186.821,290.206,186.094,291.904,186.094,293.783z"/>
		
			<ellipse transform="matrix(-0.9297 -0.3682 0.3682 -0.9297 368.0038 676.8634)" fill="#FFFFFF" cx="248.578" cy="303.322" rx="1.697" ry="2.424"/>
		<path fill="#565656" d="M184.639,323.306c1.88,1.574,4.91,1.574,7.335,1.574c2.426,0,5.396-1.029,6.305-3.516
			c0.909-2.424-0.788-4.545,0.667-7.214c-0.304,0.545-0.728,1.031-1.091,1.516c-1.334,1.335-3.213,2.122-5.274,2.001
			c-3.638-0.242-6.364-3.396-6.364-7.032v-1.15c0-0.062-0.062-0.062-0.062,0c-0.97,2.848-2.121,4.363-2.789,6.121
			C182.518,317.425,182.821,321.669,184.639,323.306z"/>
	</g>
	<path opacity="0.43" fill="#808080" enable-background="new    " d="M233.195,306.453
		C233.195,306.453,233.255,306.453,233.195,306.453c1.152-0.305,2.97-0.789,5.092-1.273c4.667-1.092,10.729-2.184,13.215-1.576
		c0.364,0.121,0.667,0.182,0.848,0.424c2.243,1.818-0.423,6.607-1.212,7.457c0.122-0.121,0.243-0.305,0.364-0.426
		c1.273-1.516,2.243-2.727,2.728-3.334c1.637-2.121,5.214-7.031,5.456-8.607c0.182-1.515-2.668-2.789-4.243-3.697l0,0
		c-0.425,0.121-0.909,0.121-1.394,0.241c-0.365,0.062-0.729,0.122-1.093,0.183c-0.666,0.121-1.272,0.303-2,0.424
		c-0.363,0.121-0.666,0.121-0.97,0.243c-0.121,0.06-0.303,0.06-0.425,0.12c-0.545,0.122-1.09,0.304-1.637,0.426
		c-1.394,0.363-2.909,0.787-4.304,1.271c-2.789,0.91-5.455,1.82-7.517,2.97c-0.121,0.061-0.242,0.121-0.363,0.121
		S234.528,303.604,233.195,306.453z"/>
	<path opacity="0.43" fill="#808080" enable-background="new    " d="M184.942,323.548l13.578,13.578l0,0h0.364
		c1.213,0,2.182-0.971,2.182-2.182V312.09l0,0l-1.212-1.213h-0.061c0,1.213-0.363,2.365-0.909,3.273
		c-1.395,2.669,0.242,4.79-0.667,7.214c-0.909,2.365-3.818,3.516-6.304,3.516C189.671,324.88,186.821,324.88,184.942,323.548
		C184.942,323.487,184.881,323.548,184.942,323.548z"/>
	<path opacity="0.43" fill="#808080" enable-background="new    " d="M186.094,293.783v3.213c0,0,0.061,0.062,0.061,0
		c2.243-2.97,5.273-2.364,6.789-2.364s6.851,2.971,6.851,8.546v-7.394l0,0l-11.396-7.093c-0.121,0.121-0.182,0.182-0.303,0.243
		C186.821,290.206,186.094,291.904,186.094,293.783z"/>
	<path opacity="0.43" fill="#808080" enable-background="new    " d="M171.546,266.625l1.758,2.97l0,0
		c0.06,0.061,1.575,0.97,4,2.425c11.519,7.092,44.798,27.581,55.892,34.493h0.06c1.273-2.668,2.243-4.668,2.365-4.91
		c0,0,0-0.062-0.062-0.062c-1.333,0.426-2.97-0.121-3.333-0.424c-0.364-0.242-40.434-24.914-56.74-35.037
		c-1.03-0.667-2-1.212-2.788-1.758h-0.061C172.394,264.928,171.97,265.716,171.546,266.625L171.546,266.625z"/>
</g>
<g>
	<path fill="#58595B" d="M181.832,352.893c-2.484,8.123-10.002,14.063-18.974,14.063c-8.911,0-16.488-5.94-18.974-14.063h-4.486
		c1.092-4.547,2.668-8.973,4.85-12.791c3.819-6.668,9.699-11.457,18.549-11.457c8.852,0,14.731,4.789,18.551,11.457
		c2.182,3.818,3.818,8.305,4.85,12.791H181.832z"/>
	<circle cx="162.858" cy="347.133" r="18.428"/>
	<circle fill="#B1B3B6" cx="162.858" cy="347.133" r="16.488"/>
	<circle cx="162.858" cy="347.133" r="15.094"/>
	<circle fill="#636466" cx="162.858" cy="347.133" r="5.274"/>
	<circle cx="162.858" cy="347.133" r="4.607"/>
	<circle fill="#2C6277" cx="162.858" cy="347.134" r="4.183"/>
	<g>
		<circle fill="#77787B" cx="162.858" cy="359.863" r="1.273"/>
		<circle fill="#9D9FA2" cx="162.858" cy="360.349" r="0.728"/>
	</g>
	<g>
		<circle fill="#77787B" cx="162.858" cy="355.317" r="1.273"/>
		<circle fill="#9D9FA2" cx="162.858" cy="355.681" r="0.728"/>
	</g>
	<g>
		<circle fill="#77787B" cx="162.858" cy="338.95" r="1.273"/>
		<circle fill="#9D9FA2" cx="162.858" cy="339.313" r="0.728"/>
	</g>
	<g>
		<circle fill="#77787B" cx="154.676" cy="347.134" r="1.272"/>
		<circle fill="#9D9FA2" cx="154.25" cy="347.134" r="0.728"/>
	</g>
	<g>
		<circle fill="#77787B" cx="171.043" cy="347.134" r="1.272"/>
		<circle fill="#9D9FA2" cx="170.617" cy="347.134" r="0.728"/>
	</g>
	<g>
		<ellipse fill="#77787B" cx="157.041" cy="352.913" rx="1.273" ry="1.273"/>
		<ellipse fill="#9D9FA2" cx="156.774" cy="353.192" rx="0.727" ry="0.727"/>
	</g>
	<g>
		<ellipse fill="#77787B" cx="168.604" cy="341.344" rx="1.273" ry="1.273"/>
		<ellipse fill="#9D9FA2" cx="168.347" cy="341.616" rx="0.727" ry="0.727"/>
	</g>
	<g>
		<ellipse fill="#77787B" cx="157.07" cy="341.308" rx="1.273" ry="1.273"/>
		<ellipse fill="#9D9FA2" cx="156.766" cy="340.999" rx="0.727" ry="0.727"/>
	</g>
	<g>
		<ellipse fill="#77787B" cx="168.609" cy="352.915" rx="1.273" ry="1.273"/>
		<ellipse fill="#9D9FA2" cx="168.384" cy="352.577" rx="0.727" ry="0.727"/>
	</g>
	<g>
		<circle fill="#77787B" cx="162.858" cy="334.282" r="1.272"/>
		<circle fill="#9D9FA2" cx="162.858" cy="334.767" r="0.728"/>
	</g>
	<g>
		<circle fill="#77787B" cx="150.068" cy="347.134" r="1.272"/>
		<circle fill="#9D9FA2" cx="149.645" cy="347.134" r="0.728"/>
	</g>
	<g>
		<circle fill="#77787B" cx="175.648" cy="347.134" r="1.272"/>
		<circle fill="#9D9FA2" cx="175.225" cy="347.134" r="0.728"/>
	</g>
	<g>
		<ellipse fill="#77787B" cx="171.889" cy="356.15" rx="1.273" ry="1.273"/>
		<ellipse fill="#9D9FA2" cx="172.182" cy="356.47" rx="0.728" ry="0.728"/>
	</g>
	<g>
		<ellipse fill="#77787B" cx="153.806" cy="338.055" rx="1.273" ry="1.273"/>
		<ellipse fill="#9D9FA2" cx="154.055" cy="338.347" rx="0.727" ry="0.727"/>
	</g>
	<g>
		<ellipse fill="#77787B" cx="153.837" cy="356.148" rx="1.273" ry="1.273"/>
		<ellipse fill="#9D9FA2" cx="153.536" cy="356.463" rx="0.728" ry="0.728"/>
	</g>
	<g>
		<ellipse fill="#77787B" cx="171.98" cy="338.069" rx="1.273" ry="1.273"/>
		<ellipse fill="#9D9FA2" cx="171.604" cy="338.353" rx="0.727" ry="0.727"/>
	</g>
	<circle cx="162.858" cy="347.133" r="1.636"/>
	<ellipse fill="#9DDBF9" cx="162.858" cy="349.498" rx="2.667" ry="1.455"/>
	<g>
		<path fill="#808285" d="M188.621,380.534h-51.465c0,0-0.303-4.668,0.061-11.093h51.344
			C188.863,375.928,188.621,380.534,188.621,380.534z"/>
		<path fill="#77787B" d="M137.156,369.441c0.242-4.85,0.909-10.729,2.242-16.488h4.426c2.485,8.123,10.002,14.063,18.973,14.063
			c8.912,0,16.489-5.94,18.975-14.063h4.426c1.395,5.759,2,11.699,2.242,16.488H137.156z"/>
	</g>
	<ellipse fill="#939598" cx="162.98" cy="373.927" rx="24.611" ry="4.122"/>
	<ellipse fill="#BCBEC0" cx="162.98" cy="375.382" rx="18.973" ry="2.182"/>
	<path fill="#9D9FA2" d="M168.133,369.077h19.459c0,0-0.85-11.94-2.244-15.155h-2.909c0,0-2.122,10.003-14.185,13.034
		L168.133,369.077z"/>
	<path fill="#9D9FA2" d="M157.585,369.077h-19.459c0,0,0.849-11.94,2.243-15.155h2.971c0,0,2.121,10.003,14.184,13.034
		L157.585,369.077z"/>
</g>
<g>
	<rect x="194.319" y="378.171" width="12.729" height="3.03"/>
	<rect x="262.517" y="378.171" width="12.729" height="3.03"/>
	<circle fill="#2B2B2B" cx="253.362" cy="329.918" r="9.396"/>
	<circle fill="#353535" cx="257.303" cy="326.766" r="4"/>
	<circle fill="#FFFFFF" cx="258.272" cy="325.796" r="2.304"/>
	<rect x="255" y="320.521" fill="#D1D3D4" width="4.303" height="18.731"/>
	<rect x="255" y="320.521" fill="#BCBEC0" width="2.303" height="18.731"/>
	<path fill="#E6E7E8" d="M235.177,306.216c-13.094,0-23.701,10.608-23.701,23.702s10.607,23.701,23.701,23.701
		c8.851,0,16.488-4.85,20.61-12.002v-23.338C251.665,311.065,244.027,306.216,235.177,306.216z"/>
	<path fill="#FFFFFF" d="M277.004,379.383h3.576c0,0-6.607-24.309-42.615-24.309c-21.822,0-48.191,0-48.191,0v2.365
		c7.213,0,27.885,0,45.525,0C264.334,357.5,274.275,373.32,277.004,379.383z"/>
	<path d="M271.973,379.383h5.031c-2.729-6.062-12.67-21.943-41.705-21.943c-17.641,0-38.312,0-45.525,0v3.455
		c11.094,0,32.431,0,45.343,0C259.425,360.955,268.82,373.32,271.973,379.383z"/>
	<path fill="#333132" d="M271.973,379.383c-3.152-6.122-12.548-18.428-36.856-18.428c-12.912,0-34.311,0-45.343,0v18.428H271.973z"
		/>
	<circle fill="#D1D3D4" cx="235.177" cy="334.161" r="18.731"/>
	<circle fill="#FFFFFF" cx="235.177" cy="329.918" r="16.186"/>
	<polygon fill="#FFFFFF" points="250.513,356.59 219.841,356.59 224.629,340.647 245.664,340.647 	"/>
	<circle fill="#D1D3D4" cx="235.177" cy="329.918" r="12.002"/>
	<circle fill="#BCBEC0" cx="235.177" cy="329.918" r="9.396"/>
	<path fill="#FFFFFF" d="M201.836,344.709c-8.001,0-12.062,0-12.062,0v10.365h23.581
		C213.354,355.074,201.533,355.378,201.836,344.709z"/>
	<path fill="#FFFFFF" d="M195.774,305.67L195.774,305.67c-1.575,0-2.849,1.273-2.849,2.85v33.34h5.758v-33.34
		C198.684,306.943,197.35,305.67,195.774,305.67z"/>
	<path fill="#DCDDDE" d="M196.381,308.096L196.381,308.096c-0.97,0-1.758,0.727-1.758,1.696v32.796c0,0.969,0.727,1.697,1.758,1.697
		l0,0c0.969,0,1.758-0.729,1.758-1.697v-32.796C198.139,308.822,197.35,308.096,196.381,308.096z"/>
	<rect x="190.562" y="341.859" fill="#FFFFFF" width="10.427" height="2.85"/>
	<rect x="196.744" y="341.859" fill="#DCDDDE" width="4.305" height="2.85"/>
</g>
<path fill="#191919" d="M130.276,384.922H29.042c-3.273,0-6.001-2.668-6.001-6.001v-76.866c0-3.273,2.667-6,6.001-6h101.233
	c3.273,0,6.001,2.667,6.001,6v76.866C136.217,382.193,133.549,384.922,130.276,384.922z"/>
<path fill="#212121" d="M56.018,384.922h-24.49c-3.273,0-6.001-2.668-6.001-6.001v-76.866c0-3.273,2.667-6,6.001-6h24.49
	c3.273,0,6.001,2.667,6.001,6v76.866C62.019,382.193,59.352,384.922,56.018,384.922z"/>
<path fill="#191919" d="M52.441,387.468H34.499c-3.274,0-6.002-2.668-6.002-6.001v-88.262c0-3.273,2.667-6.001,6.002-6.001h17.943
	c3.273,0,6.001,2.667,6.001,6.001v88.262C58.443,384.8,55.715,387.468,52.441,387.468z"/>
<path fill="#D1D1D1" d="M125.366,340.003H71.233c-3.273,0-6-2.668-6-6.002v-38.795c0-3.273,2.667-6.001,6-6.001h54.072
	c3.273,0,6.002,2.667,6.002,6.001v38.795C131.368,337.335,128.639,340.003,125.366,340.003z"/>
<rect x="71.476" y="295.69" fill="#A6CE9F" width="53.345" height="37.099"/>
<rect x="69.476" y="348.61" fill="#4C4C4C" width="9.153" height="4.002"/>
<rect x="82.933" y="348.61" fill="#4C4C4C" width="9.153" height="4.002"/>
<rect x="96.451" y="348.61" fill="#4C4C4C" width="9.153" height="4.002"/>
<rect x="69.476" y="356.188" fill="#4C4C4C" width="9.153" height="4"/>
<rect x="82.933" y="356.188" fill="#4C4C4C" width="9.153" height="4"/>
<rect x="96.451" y="356.188" fill="#4C4C4C" width="9.153" height="4"/>
<rect x="69.293" y="363.22" fill="#4C4C4C" width="9.153" height="4.001"/>
<rect x="82.69" y="363.22" fill="#4C4C4C" width="9.154" height="4.001"/>
<rect x="96.208" y="363.22" fill="#4C4C4C" width="9.153" height="4.001"/>
<rect x="69.293" y="370.009" fill="#4C4C4C" width="9.153" height="4.001"/>
<rect x="82.69" y="370.009" fill="#4C4C4C" width="9.154" height="4.001"/>
<rect x="96.208" y="370.009" fill="#4C4C4C" width="9.153" height="4.001"/>
<circle fill="#4C4C4C" cx="122.578" cy="357.643" r="9.578"/>
<line fill="none" stroke="#191919" stroke-miterlimit="10" x1="114.394" y1="352.612" x2="129.67" y2="364.069"/>
<line fill="none" stroke="#191919" stroke-miterlimit="10" x1="130.701" y1="352.612" x2="115.364" y2="364.069"/>
<circle fill="#191919" cx="122.88" cy="357.886" r="5.213"/>
<circle fill="#4C4C4C" cx="122.88" cy="357.886" r="4.91"/>
<path fill="#4C4C4C" d="M117.606,373.949h-5.212c-1.091,0-2-0.909-2-2l0,0c0-1.091,0.909-2,2-2h5.212c1.092,0,2.001,0.909,2.001,2
	l0,0C119.607,373.101,118.698,373.949,117.606,373.949z"/>
<path fill="#4C4C4C" d="M130.397,373.949h-5.213c-1.092,0-2-0.909-2-2l0,0c0-1.091,0.908-2,2-2h5.213c1.092,0,2,0.909,2,2l0,0
	C132.397,373.101,131.489,373.949,130.397,373.949z"/>
<path fill="#494949" d="M122.305,385.658L122.305,385.658c1.94-0.91,2.789-3.213,1.879-5.153l-31.522-67.59
	c-0.909-1.939-3.213-2.788-5.152-1.879l0,0c-1.94,0.909-2.789,3.213-1.879,5.152l31.522,67.59
	C118.062,385.718,120.365,386.567,122.305,385.658z"/>
<path fill="#494949" d="M209.476,385.658L209.476,385.658c1.939,0.909,4.243,0.06,5.152-1.88l31.521-67.59
	c0.91-1.939,0.061-4.243-1.879-5.152l0,0c-1.939-0.909-4.243-0.061-5.152,1.879l-31.521,67.59
	C206.747,382.445,207.597,384.688,209.476,385.658z"/>
<path fill="#EDEDED" d="M95.208,395.782h147.123c3.273,0,6.001-2.669,6.001-6.002v-11.275c0-3.273-2.667-6.002-6.001-6.002H95.208
	c-3.273,0-6.001,2.668-6.001,6.002v11.275C89.268,393.113,91.935,395.782,95.208,395.782z"/>
<rect x="89.511" y="377.838" fill="#111111" width="158.821" height="12.063"/>
<rect x="145.825" y="380.809" fill="#37BC20" width="12.548" height="3.091"/>
<rect x="127.761" y="380.809" fill="#37BC20" width="12.549" height="3.091"/>
<rect x="109.697" y="380.809" fill="#37BC20" width="12.548" height="3.091"/>
<rect x="47.094" y="397.205" fill="#75191D" width="249.022" height="35.341"/>
<rect x="51.397" y="410.177" fill="#BCB491" width="66.56" height="17.52"/>
<polygon fill="#161616" points="53.216,411.996 53.216,423.09 55.702,423.09 55.702,425.15 64.612,425.15 64.612,423.09 
	67.28,423.09 67.28,411.996 "/>
<polygon fill="#161616" points="69.461,411.996 69.461,423.09 71.947,423.09 71.947,425.15 80.797,425.15 80.797,423.09 
	83.465,423.09 83.465,411.996 "/>
<polygon fill="#161616" points="86.071,411.996 86.071,423.09 88.618,423.09 88.618,425.15 97.468,425.15 97.468,423.09 
	100.135,423.09 100.135,411.996 "/>
<polygon fill="#161616" points="102.014,411.996 102.014,423.09 104.561,423.09 104.561,425.15 113.41,425.15 113.41,423.09 
	116.078,423.09 116.078,411.996 "/>
<rect x="126.323" y="409.813" fill="#BCB491" width="66.56" height="17.519"/>
<polygon fill="#161616" points="128.202,411.633 128.202,422.786 130.748,422.786 130.748,424.847 139.598,424.847 139.598,422.786 
	142.265,422.786 142.265,411.633 "/>
<polygon fill="#161616" points="144.387,411.633 144.387,422.786 146.872,422.786 146.872,424.847 155.783,424.847 155.783,422.786 
	158.451,422.786 158.451,411.633 "/>
<polygon fill="#161616" points="161.057,411.633 161.057,422.786 163.543,422.786 163.543,424.847 172.453,424.847 172.453,422.786 
	175.061,422.786 175.061,411.633 "/>
<polygon fill="#161616" points="177,411.633 177,422.786 179.484,422.786 179.484,424.847 188.396,424.847 188.396,422.786 
	191.063,422.786 191.063,411.633 "/>
<circle fill="#161616" cx="204.885" cy="415.027" r="2.364"/>
<circle fill="#161616" cx="211.855" cy="415.027" r="2.364"/>
<circle fill="#161616" cx="218.766" cy="415.027" r="2.364"/>
<circle fill="#161616" cx="225.738" cy="415.027" r="2.364"/>
<circle fill="#161616" cx="205.127" cy="422.362" r="2.364"/>
<circle fill="#161616" cx="212.099" cy="422.362" r="2.364"/>
<circle fill="#161616" cx="219.009" cy="422.362" r="2.364"/>
<circle fill="#161616" cx="225.92" cy="422.362" r="2.364"/>
</svg>
