<?xml version="1.0" encoding="utf-8"?>
<!-- Generator: Adobe Illustrator 15.0.0, SVG Export Plug-In . SVG Version: 6.00 Build 0)  -->
<!DOCTYPE svg PUBLIC "-//W3C//DTD SVG 1.1//EN" "http://www.w3.org/Graphics/SVG/1.1/DTD/svg11.dtd">
<svg version="1.1" id="Layer_1" xmlns="http://www.w3.org/2000/svg" xmlns:xlink="http://www.w3.org/1999/xlink" x="0px" y="0px"
	 width="768px" height="1024px" viewBox="0 0 768 1024" enable-background="new 0 0 768 1024" xml:space="preserve">
<ellipse opacity="0.25" fill="#3D3D3D" enable-background="new    " cx="525.702" cy="604.777" rx="121.868" ry="6.733"/>
<ellipse opacity="0.26" fill="#3D3D3D" enable-background="new    " cx="410.87" cy="717.665" rx="281.493" ry="8.848"/>
<path opacity="0.24" fill="#3D3D3D" enable-background="new    " d="M579.046,636.4c0,3.302-76.844,11.753-171.644,11.753
	c-94.8,0-179.96-5.548-179.96-8.849s85.292-8.849,179.96-8.849C502.073,630.456,579.046,633.231,579.046,636.4z"/>
<g>
	<g>
		<path fill="#9B9B9B" d="M585.158,452.661L585.158,452.661c6.076-3.164,35.254-21.387,36.178-23.369
			c0.791-1.584-0.527-2.242-3.697-4.091c-3.169-1.714-11.485-6.995-15.977-7.394c-1.188-0.134-4.095,0.265-8.055,0.924
			c0,0-0.132,0.136,0,0.136c3.436,1.978,9.64,4.752,9.244,8.053c-0.4,3.433-8.188,13.996-11.883,18.746
			C589.914,446.854,587.8,449.497,585.158,452.661z"/>
		<path fill="#B7B7B7" d="M404.535,345.583C404.535,345.717,404.535,345.717,404.535,345.583c0.4,0.264,3.568,2.114,8.717,5.284
			c30.236,18.616,128.996,79.351,129.789,80.011c0.924,0.789,4.49,1.85,7.392,0.923c0.265-0.134,0.53-0.264,0.794-0.264
			c4.622-2.247,10.428-4.49,16.371-6.466c3.17-0.927,6.338-1.851,9.379-2.773c6.204-1.586,12.013-2.906,16.634-3.829
			c3.962-0.794,6.999-1.058,8.186-0.923c4.493,0.396,12.809,5.674,15.979,7.391l-160.95-97.834c0,0-2.244-1.321-5.809-3.04
			c-6.072-2.901-15.58-6.994-21.785-6.339C419.723,318.914,405.197,344.527,404.535,345.583z"/>
		<path fill="#898989" d="M540.529,460.847c0.266,0.791,0.928,1.586,1.719,2.246l0.133,0.132c3.433,2.773,10.564,5.675,14.523,7.661
			c8.979,4.618,12.017,1.187,12.017,1.187s9.505-11.224,16.24-19.279c2.771-3.296,4.884-5.938,5.945-7.261
			c3.694-4.621,11.35-15.315,11.881-18.748c0.397-3.301-5.811-6.074-9.243-8.053l0,0c-4.49,0.792-10.3,2.113-16.374,3.697v0.131
			c1.318,0.132,2.642,0.662,3.698,1.318c5.81,3.83,5.81,14.392-0.266,23.637c-5.943,9.24-15.579,13.465-21.52,9.64
			c-5.811-3.834-5.811-14.396,0.263-23.636c2.245-3.434,5.019-6.209,7.923-8.186v-0.135c-5.941,1.849-11.619,3.964-16.109,6.338
			c-0.263,0.132-0.526,0.264-0.79,0.264c0,0-3.697,7.262-7.657,15.979C538.684,456.49,539.608,457.545,540.529,460.847z"/>
		<path fill="#666666" d="M404.535,377.537l43.047,26.671l24.823,15.448l69.976,43.568c-0.924-0.792-1.586-1.587-1.715-2.245
			c-0.924-3.435-1.717-4.357,2.114-13.07c3.692-8.057,7.124-15.051,7.657-15.845c0,0,0-0.133-0.132-0.133
			c-2.908,0.927-6.476-0.263-7.263-0.922c-0.927-0.659-99.553-61.396-129.656-80.013h-0.133c-0.793,2.112-2.375,5.018-4.094,8.187
			c-1.451,2.51-2.771,5.149-3.961,7.66C402.953,371.729,401.764,375.951,404.535,377.537z"/>
		<path fill="#898989" d="M427.644,504.948c0,2.64,2.114,4.62,4.62,4.62h37.896c2.64,0,4.619-2.114,4.619-4.62v-65.224
			c0-2.642-2.109-4.624-4.619-4.624h-37.896c-2.643,0-4.62,2.115-4.62,4.624V504.948z"/>
		<path fill="#E2CD71" d="M559.149,457.154c5.807,3.825,15.579-0.399,21.521-9.64c5.942-9.112,6.07-19.807,0.265-23.637
			c-1.188-0.791-2.51-1.188-3.959-1.318l0,0c-3.041,0.792-6.209,1.717-9.379,2.773l0,0c-3.034,1.979-5.807,4.752-8.314,8.317
			C553.339,442.758,553.207,453.32,559.149,457.154z"/>
		<path fill="#282828" d="M353.838,400.641c6.469,7,17.293,7.129,28.65,7.526c12.544,0.266,25.348,0.529,34.856,8.846
			c6.339,5.546,10.167,11.617,12.276,19.148c0.928,3.035,1.319,6.467,1.588,10.034c0.134,2.241,1.981,3.961,4.224,3.961
			c0.132,0,0.264,0,0.264,0c2.378-0.137,4.093-2.114,3.961-4.492c-0.262-3.697-0.659-6.998-1.585-10.299
			c-2.378-9.634-7.262-17.693-15.185-24.687c-11.882-10.431-26.935-10.697-40.269-10.96c-10.033-0.263-18.616-0.396-22.71-4.752
			c-4.753-5.149-5.545-10.828-5.282-14.92c0.396-6.469,3.831-13.336,8.582-17.429c11.88-9.901,30.5-5.412,41.723,4.356h0.132
			c1.054-2.505,2.507-5.147,3.96-7.657c0,0,0,0,0-0.131c-14.127-11.356-36.177-15.581-51.097-3.169
			c-6.601,5.543-11.091,14.389-11.621,23.367C345.651,387.439,348.293,394.832,353.838,400.641z"/>
		<path fill="#666666" d="M442.431,415.299v36.439c0,7.921,5.945,14.79,13.864,15.317c4.619,0.264,8.715-1.455,11.486-4.358
			c0.925-0.924,1.714-2.114,2.378-3.301c1.188-2.11,1.978-4.621,1.978-7.263v-32.745l0,0l-24.82-15.444
			c-0.264,0.263-0.397,0.263-0.661,0.527C444.014,407.506,442.431,411.206,442.431,415.299z"/>
		
			<ellipse transform="matrix(-0.3683 0.9297 -0.9297 -0.3683 1197.0745 58.8655)" fill="#FFFFFF" cx="578.539" cy="436.111" rx="5.279" ry="3.697"/>
		<path fill="#565656" d="M439.261,479.603c4.097,3.427,10.695,3.427,15.979,3.427c5.284,0,11.753-2.24,13.732-7.657
			c1.979-5.281-1.717-9.901,1.451-15.713c-0.659,1.188-1.585,2.246-2.374,3.301c-2.905,2.908-6.998,4.623-11.488,4.359
			c-7.923-0.528-13.862-7.396-13.862-15.317v-2.505c0-0.134-0.134-0.134-0.134,0c-2.111,6.203-4.62,9.503-6.074,13.332
			C434.642,466.791,435.301,476.036,439.261,479.603z"/>
	</g>
	<path opacity="0.43" fill="#808080" enable-background="new    " d="M545.022,442.895
		C545.022,442.895,545.151,442.895,545.022,442.895c2.509-0.663,6.468-1.719,11.089-2.773c10.165-2.379,23.369-4.756,28.784-3.435
		c0.793,0.265,1.452,0.399,1.846,0.924c4.886,3.96-0.921,14.392-2.638,16.243c0.264-0.262,0.527-0.664,0.792-0.928
		c2.773-3.302,4.886-5.938,5.942-7.262c3.565-4.62,11.354-15.314,11.882-18.746c0.397-3.298-5.812-6.074-9.24-8.053l0,0
		c-0.927,0.263-1.979,0.263-3.038,0.525c-0.794,0.136-1.586,0.266-2.379,0.399c-1.45,0.262-2.772,0.659-4.356,0.924
		c-0.791,0.263-1.45,0.263-2.111,0.527c-0.265,0.132-0.659,0.132-0.928,0.262c-1.187,0.266-2.375,0.662-3.565,0.928
		c-3.035,0.79-6.334,1.715-9.374,2.768c-6.074,1.982-11.882,3.962-16.372,6.469c-0.263,0.132-0.527,0.263-0.79,0.263
		C550.301,431.931,547.924,436.687,545.022,442.895z"/>
	<path opacity="0.43" fill="#808080" enable-background="new    " d="M439.921,480.128l29.574,29.574l0,0h0.793
		c2.644,0,4.754-2.114,4.754-4.754v-49.776l0,0l-2.642-2.642h-0.132c0,2.642-0.791,5.151-1.98,7.129
		c-3.037,5.812,0.528,10.432-1.452,15.713c-1.979,5.149-8.316,7.657-13.73,7.657C450.223,483.029,444.014,483.029,439.921,480.128
		C439.921,479.994,439.789,480.128,439.921,480.128z"/>
	<path opacity="0.43" fill="#808080" enable-background="new    " d="M442.431,415.299v6.998c0,0,0.132,0.135,0.132,0
		c4.889-6.47,11.486-5.149,14.787-5.149c3.304,0,14.923,6.473,14.923,18.614v-16.104l0,0l-24.821-15.448
		c-0.265,0.264-0.396,0.396-0.66,0.527C444.014,407.506,442.431,411.206,442.431,415.299z"/>
	<path opacity="0.43" fill="#808080" enable-background="new    " d="M410.744,356.146l3.831,6.469l0,0
		c0.128,0.134,3.429,2.112,8.712,5.281c25.089,15.447,97.571,60.076,121.735,75.13h0.132c2.772-5.812,4.885-10.168,5.151-10.693
		c0,0,0-0.137-0.137-0.137c-2.901,0.928-6.468-0.264-7.257-0.923c-0.796-0.528-88.07-54.265-123.585-76.313
		c-2.243-1.453-4.356-2.639-6.073-3.829h-0.134C412.594,352.449,411.67,354.165,410.744,356.146L410.744,356.146z"/>
</g>
<g>
	<path fill="#58595B" d="M433.148,544.043c-5.411,17.693-21.785,30.631-41.328,30.631c-19.408,0-35.911-12.938-41.327-30.631h-9.77
		c2.379-9.903,5.812-19.543,10.564-27.859c8.317-14.523,21.126-24.955,40.401-24.955c19.28,0,32.084,10.432,40.404,24.955
		c4.755,8.316,8.317,18.09,10.565,27.859H433.148z"/>
	<circle cx="391.82" cy="531.498" r="40.137"/>
	<path fill="#B1B3B6" d="M391.82,495.585c19.834,0,35.912,16.081,35.912,35.912c0,19.836-16.078,35.913-35.912,35.913
		c-19.833,0-35.911-16.077-35.911-35.913C355.91,511.666,371.988,495.585,391.82,495.585z"/>
	<circle cx="391.82" cy="531.498" r="32.876"/>
	<circle fill="#636466" cx="391.82" cy="531.499" r="11.487"/>
	<circle cx="391.82" cy="531.498" r="10.035"/>
	<circle fill="#2C6277" cx="391.82" cy="531.5" r="9.11"/>
	<g>
		<circle fill="#77787B" cx="391.82" cy="559.225" r="2.773"/>
		<circle fill="#9D9FA2" cx="391.82" cy="560.284" r="1.586"/>
	</g>
	<g>
		<circle fill="#77787B" cx="391.82" cy="549.324" r="2.773"/>
		<circle fill="#9D9FA2" cx="391.82" cy="550.117" r="1.586"/>
	</g>
	<g>
		<circle fill="#77787B" cx="391.82" cy="513.674" r="2.772"/>
		<circle fill="#9D9FA2" cx="391.82" cy="514.466" r="1.586"/>
	</g>
	<g>
		<circle fill="#77787B" cx="374" cy="531.5" r="2.772"/>
		<circle fill="#9D9FA2" cx="373.073" cy="531.5" r="1.585"/>
	</g>
	<g>
		<circle fill="#77787B" cx="409.648" cy="531.5" r="2.772"/>
		<circle fill="#9D9FA2" cx="408.722" cy="531.5" r="1.585"/>
	</g>
	<g>
		<ellipse fill="#77787B" cx="379.152" cy="544.087" rx="2.771" ry="2.771"/>
		<path fill="#9D9FA2" d="M378.57,543.111c0.875,0,1.584,0.711,1.584,1.582c0,0.877-0.71,1.586-1.584,1.586
			c-0.874,0-1.583-0.709-1.583-1.586C376.986,543.822,377.696,543.111,378.57,543.111z"/>
	</g>
	<g>
		<ellipse fill="#77787B" cx="404.336" cy="518.889" rx="2.773" ry="2.773"/>
		<ellipse fill="#9D9FA2" cx="403.778" cy="519.481" rx="1.583" ry="1.583"/>
	</g>
	<g>
		<ellipse fill="#77787B" cx="379.215" cy="518.811" rx="2.773" ry="2.773"/>
		<ellipse fill="#9D9FA2" cx="378.553" cy="518.138" rx="1.584" ry="1.584"/>
	</g>
	<g>
		<ellipse fill="#77787B" cx="404.348" cy="544.093" rx="2.771" ry="2.771"/>
		<ellipse fill="#9D9FA2" cx="403.857" cy="543.355" rx="1.583" ry="1.583"/>
	</g>
	<g>
		<circle fill="#77787B" cx="391.82" cy="503.508" r="2.771"/>
		<circle fill="#9D9FA2" cx="391.82" cy="504.564" r="1.586"/>
	</g>
	<g>
		<circle fill="#77787B" cx="363.964" cy="531.5" r="2.772"/>
		<circle fill="#9D9FA2" cx="363.042" cy="531.5" r="1.585"/>
	</g>
	<g>
		<circle fill="#77787B" cx="419.68" cy="531.5" r="2.772"/>
		<circle fill="#9D9FA2" cx="418.757" cy="531.5" r="1.585"/>
	</g>
	<g>
		<path fill="#77787B" d="M411.49,548.364c1.532,0,2.774,1.243,2.774,2.775c0,1.53-1.242,2.771-2.774,2.771
			c-1.531,0-2.771-1.24-2.771-2.771C408.719,549.607,409.959,548.364,411.49,548.364z"/>
		<ellipse fill="#9D9FA2" cx="412.129" cy="551.835" rx="1.586" ry="1.586"/>
	</g>
	<g>
		<ellipse fill="#77787B" cx="372.105" cy="511.726" rx="2.773" ry="2.773"/>
		<ellipse fill="#9D9FA2" cx="372.648" cy="512.362" rx="1.583" ry="1.583"/>
	</g>
	<g>
		<ellipse fill="#77787B" cx="372.173" cy="551.134" rx="2.772" ry="2.772"/>
		<ellipse fill="#9D9FA2" cx="371.518" cy="551.82" rx="1.586" ry="1.586"/>
	</g>
	<g>
		<ellipse fill="#77787B" cx="411.691" cy="511.756" rx="2.772" ry="2.772"/>
		<path fill="#9D9FA2" d="M410.87,510.791c0.876,0,1.585,0.709,1.585,1.585c0,0.871-0.709,1.583-1.585,1.583
			c-0.872,0-1.583-0.712-1.583-1.583C409.287,511.5,409.998,510.791,410.87,510.791z"/>
	</g>
	<path d="M391.82,527.935c1.97,0,3.564,1.596,3.564,3.562c0,1.971-1.595,3.565-3.564,3.565c-1.966,0-3.561-1.595-3.561-3.565
		C388.26,529.53,389.854,527.935,391.82,527.935z"/>
	<ellipse fill="#9DDBF9" cx="391.82" cy="536.649" rx="5.811" ry="3.169"/>
	<g>
		<path fill="#808285" d="M447.936,604.248H335.841c0,0-0.661-10.167,0.132-24.16h111.831
			C448.463,594.215,447.936,604.248,447.936,604.248z"/>
		<path fill="#77787B" d="M335.841,580.088c0.527-10.564,1.979-23.37,4.883-35.913h9.641c5.412,17.692,21.785,30.63,41.324,30.63
			c19.411,0,35.915-12.938,41.328-30.63h9.642c3.038,12.543,4.356,25.482,4.882,35.913H335.841z"/>
	</g>
	<ellipse fill="#939598" cx="392.088" cy="589.857" rx="53.604" ry="8.979"/>
	<ellipse fill="#BCBEC0" cx="392.088" cy="593.027" rx="41.324" ry="4.753"/>
	<path fill="#9D9FA2" d="M403.311,579.295h42.383c0,0-1.851-26.008-4.888-33.01h-6.335c0,0-4.623,21.787-30.896,28.389
		L403.311,579.295z"/>
	<path fill="#9D9FA2" d="M380.336,579.295h-42.383c0,0,1.85-26.008,4.886-33.01h6.47c0,0,4.62,21.787,30.894,28.389L380.336,579.295
		z"/>
</g>
<g>
	<rect x="460.345" y="599.102" width="27.726" height="6.601"/>
	<rect x="608.888" y="599.102" width="27.724" height="6.601"/>
	<path fill="#2B2B2B" d="M588.944,473.536c11.304,0,20.467,9.164,20.467,20.467c0,11.304-9.163,20.466-20.467,20.466
		c-11.3,0-20.463-9.162-20.463-20.466C568.481,482.7,577.645,473.536,588.944,473.536z"/>
	<circle fill="#353535" cx="597.529" cy="487.137" r="8.712"/>
	<path fill="#FFFFFF" d="M599.64,480.008c2.773,0,5.021,2.245,5.021,5.017s-2.247,5.018-5.021,5.018
		c-2.77,0-5.018-2.246-5.018-5.018S596.87,480.008,599.64,480.008z"/>
	<rect x="592.514" y="473.536" fill="#D1D3D4" width="9.371" height="40.797"/>
	<rect x="592.514" y="473.536" fill="#BCBEC0" width="5.016" height="40.797"/>
	<path fill="#E6E7E8" d="M549.338,442.378c-28.52,0-51.621,23.104-51.621,51.625c0,28.52,23.102,51.623,51.621,51.623
		c19.277,0,35.912-10.563,44.891-26.142v-50.832C585.25,452.938,568.615,442.378,549.338,442.378z"/>
	<path fill="#FFFFFF" d="M640.439,601.74h7.79c0,0-14.392-52.944-92.819-52.944c-47.53,0-104.965,0-104.965,0v5.15
		c15.711,0,60.737,0,99.158,0C612.845,554.079,634.497,588.537,640.439,601.74z"/>
	<path d="M629.481,601.74h10.958c-5.942-13.203-27.595-47.794-90.836-47.794c-38.423,0-83.447,0-99.158,0v7.525
		c24.165,0,70.639,0,98.762,0C602.152,561.604,622.615,588.537,629.481,601.74z"/>
	<path fill="#333132" d="M629.481,601.74c-6.866-13.334-27.329-40.136-80.274-40.136c-28.123,0-74.73,0-98.762,0v40.136H629.481z"/>
	<circle fill="#D1D3D4" cx="549.338" cy="503.245" r="40.798"/>
	<circle fill="#FFFFFF" cx="549.338" cy="494.002" r="35.253"/>
	<polygon fill="#FFFFFF" points="582.742,552.097 515.935,552.097 526.364,517.37 572.18,517.37 	"/>
	<circle fill="#D1D3D4" cx="549.338" cy="494.002" r="26.141"/>
	<circle fill="#BCBEC0" cx="549.338" cy="494.002" r="20.466"/>
	<path fill="#FFFFFF" d="M476.719,526.219c-17.427,0-26.273,0-26.273,0v22.577h51.364
		C501.805,548.796,476.06,549.457,476.719,526.219z"/>
	<path fill="#FFFFFF" d="M463.514,441.188L463.514,441.188c-3.429,0-6.204,2.773-6.204,6.207v72.616h12.543v-72.616
		C469.853,443.962,466.947,441.188,463.514,441.188z"/>
	<path fill="#DCDDDE" d="M464.837,446.472L464.837,446.472c-2.112,0-3.829,1.586-3.829,3.694v71.433c0,2.11,1.583,3.697,3.829,3.697
		l0,0c2.11,0,3.828-1.587,3.828-3.697v-71.433C468.665,448.055,466.947,446.472,464.837,446.472z"/>
	<rect x="452.164" y="520.012" fill="#FFFFFF" width="22.71" height="6.207"/>
	<rect x="465.628" y="520.012" fill="#DCDDDE" width="9.376" height="6.207"/>
</g>
<path fill="#191919" d="M320.855,613.806H100.36c-7.129,0-13.071-5.811-13.071-13.07V433.314c0-7.127,5.809-13.068,13.071-13.068
	h220.493c7.129,0,13.07,5.811,13.07,13.068v167.421C333.795,607.863,327.984,613.806,320.855,613.806z"/>
<path fill="#212121" d="M159.115,613.806h-53.341c-7.128,0-13.07-5.811-13.07-13.07V433.314c0-7.127,5.809-13.068,13.07-13.068
	h53.341c7.129,0,13.071,5.811,13.071,13.068v167.421C172.187,607.863,166.377,613.806,159.115,613.806z"/>
<path fill="#191919" d="M151.324,619.352h-39.079c-7.13,0-13.073-5.812-13.073-13.071V414.039c0-7.129,5.81-13.07,13.073-13.07
	h39.081c7.129,0,13.071,5.809,13.071,13.07V606.28C164.397,613.539,158.455,619.352,151.324,619.352z"/>
<path fill="#D1D1D1" d="M310.162,515.969H192.255c-7.129,0-13.069-5.812-13.069-13.073v-84.498c0-7.127,5.809-13.071,13.069-13.071
	h117.774c7.128,0,13.073,5.81,13.073,13.071v84.498C323.234,510.157,317.291,515.969,310.162,515.969z"/>
<rect x="192.785" y="419.45" fill="#A6CE9F" width="116.189" height="80.806"/>
<rect x="188.428" y="534.714" fill="#4C4C4C" width="19.936" height="8.716"/>
<rect x="217.739" y="534.714" fill="#4C4C4C" width="19.935" height="8.716"/>
<rect x="247.182" y="534.714" fill="#4C4C4C" width="19.936" height="8.716"/>
<rect x="188.428" y="551.22" fill="#4C4C4C" width="19.936" height="8.713"/>
<rect x="217.739" y="551.22" fill="#4C4C4C" width="19.935" height="8.713"/>
<rect x="247.182" y="551.22" fill="#4C4C4C" width="19.936" height="8.713"/>
<rect x="188.029" y="566.536" fill="#4C4C4C" width="19.936" height="8.715"/>
<rect x="217.209" y="566.536" fill="#4C4C4C" width="19.938" height="8.715"/>
<rect x="246.652" y="566.536" fill="#4C4C4C" width="19.936" height="8.715"/>
<rect x="188.029" y="581.324" fill="#4C4C4C" width="19.936" height="8.714"/>
<rect x="217.209" y="581.324" fill="#4C4C4C" width="19.938" height="8.714"/>
<rect x="246.652" y="581.324" fill="#4C4C4C" width="19.936" height="8.714"/>
<circle fill="#4C4C4C" cx="304.088" cy="554.389" r="20.862"/>
<line fill="none" stroke="#191919" stroke-miterlimit="10" x1="286.263" y1="543.43" x2="319.535" y2="568.385"/>
<line fill="none" stroke="#191919" stroke-miterlimit="10" x1="321.781" y1="543.43" x2="288.375" y2="568.385"/>
<circle fill="#191919" cx="304.746" cy="554.919" r="11.355"/>
<circle fill="#4C4C4C" cx="304.746" cy="554.919" r="10.694"/>
<path fill="#4C4C4C" d="M293.259,589.906h-11.352c-2.376,0-4.356-1.98-4.356-4.356l0,0c0-2.378,1.98-4.355,4.356-4.355h11.352
	c2.379,0,4.358,1.978,4.358,4.355l0,0C297.617,588.061,295.638,589.906,293.259,589.906z"/>
<path fill="#4C4C4C" d="M321.119,589.906h-11.354c-2.379,0-4.356-1.98-4.356-4.356l0,0c0-2.378,1.977-4.355,4.356-4.355h11.354
	c2.378,0,4.356,1.978,4.356,4.355l0,0C325.475,588.061,323.497,589.906,321.119,589.906z"/>
<path fill="#494949" d="M303.495,615.41L303.495,615.41c4.225-1.983,6.073-6.998,4.092-11.226L238.929,456.97
	c-1.98-4.223-6.998-6.073-11.223-4.094l0,0c-4.225,1.98-6.073,6.998-4.092,11.221l68.658,147.217
	C294.252,615.539,299.269,617.388,303.495,615.41z"/>
<path fill="#494949" d="M493.36,615.41L493.36,615.41c4.223,1.978,9.239,0.129,11.221-4.097l68.653-147.217
	c1.982-4.223,0.135-9.24-4.093-11.221l0,0c-4.222-1.979-9.239-0.134-11.22,4.094l-68.654,147.215
	C487.416,608.412,489.268,613.296,493.36,615.41z"/>
<path fill="#EDEDED" d="M244.475,637.46H564.92c7.128,0,13.07-5.812,13.07-13.072v-24.559c0-7.129-5.809-13.072-13.07-13.072
	H244.475c-7.129,0-13.071,5.81-13.071,13.072v24.559C231.537,631.647,237.346,637.46,244.475,637.46z"/>
<rect x="232.066" y="598.376" fill="#111111" width="345.924" height="26.273"/>
<rect x="354.723" y="604.847" fill="#37BC20" width="27.33" height="6.733"/>
<rect x="315.378" y="604.847" fill="#37BC20" width="27.332" height="6.733"/>
<rect x="276.032" y="604.847" fill="#37BC20" width="27.332" height="6.733"/>
<rect x="139.679" y="640.56" fill="#75191D" width="542.39" height="76.976"/>
<rect x="149.051" y="668.812" fill="#BCB491" width="144.973" height="38.161"/>
<polygon fill="#161616" points="153.012,672.775 153.012,696.938 158.428,696.938 158.428,701.426 177.833,701.426 177.833,696.938 
	183.645,696.938 183.645,672.775 "/>
<polygon fill="#161616" points="188.396,672.775 188.396,696.938 193.81,696.938 193.81,701.426 213.086,701.426 213.086,696.938 
	218.897,696.938 218.897,672.775 "/>
<polygon fill="#161616" points="224.573,672.775 224.573,696.938 230.121,696.938 230.121,701.426 249.396,701.426 249.396,696.938 
	255.205,696.938 255.205,672.775 "/>
<polygon fill="#161616" points="259.299,672.775 259.299,696.938 264.846,696.938 264.846,701.426 284.12,701.426 284.12,696.938 
	289.932,696.938 289.932,672.775 "/>
<rect x="312.246" y="668.02" fill="#BCB491" width="144.972" height="38.159"/>
<polygon fill="#161616" points="316.338,671.983 316.338,696.276 321.884,696.276 321.884,700.765 341.16,700.765 341.16,696.276 
	346.969,696.276 346.969,671.983 "/>
<polygon fill="#161616" points="351.591,671.983 351.591,696.276 357.002,696.276 357.002,700.765 376.412,700.765 376.412,696.276 
	382.223,696.276 382.223,671.983 "/>
<polygon fill="#161616" points="387.897,671.983 387.897,696.276 393.313,696.276 393.313,700.765 412.721,700.765 412.721,696.276 
	418.4,696.276 418.4,671.983 "/>
<polygon fill="#161616" points="422.623,671.983 422.623,696.276 428.035,696.276 428.035,700.765 447.446,700.765 447.446,696.276 
	453.253,696.276 453.253,671.983 "/>
<circle fill="#161616" cx="483.359" cy="679.376" r="5.149"/>
<path fill="#161616" d="M498.542,674.228c2.842,0,5.147,2.306,5.147,5.149c0,2.845-2.306,5.148-5.147,5.148
	c-2.846,0-5.149-2.304-5.149-5.148C493.393,676.533,495.696,674.228,498.542,674.228z"/>
<circle fill="#161616" cx="513.593" cy="679.376" r="5.149"/>
<circle fill="#161616" cx="528.779" cy="679.376" r="5.149"/>
<circle fill="#161616" cx="483.887" cy="695.353" r="5.148"/>
<path fill="#161616" d="M499.074,690.204c2.841,0,5.146,2.307,5.146,5.149c0,2.844-2.306,5.147-5.146,5.147
	c-2.847,0-5.152-2.304-5.152-5.147C493.922,692.511,496.228,690.204,499.074,690.204z"/>
<circle fill="#161616" cx="514.122" cy="695.353" r="5.148"/>
<circle fill="#161616" cx="529.176" cy="695.353" r="5.148"/>
</svg>
