<?xml version="1.0" encoding="utf-8"?>
<!-- Generator: Adobe Illustrator 15.0.0, SVG Export Plug-In . SVG Version: 6.00 Build 0)  -->
<!DOCTYPE svg PUBLIC "-//W3C//DTD SVG 1.1//EN" "http://www.w3.org/Graphics/SVG/1.1/DTD/svg11.dtd">
<svg version="1.1" id="Layer_1" xmlns="http://www.w3.org/2000/svg" xmlns:xlink="http://www.w3.org/1999/xlink" x="0px" y="0px"
	 width="1024px" height="1366px" viewBox="0 0 1024 1366" enable-background="new 0 0 1024 1366" xml:space="preserve">
<ellipse opacity="0.25" fill="#3D3D3D" enable-background="new    " cx="686.104" cy="798.642" rx="160.039" ry="8.842"/>
<path opacity="0.26" fill="#3D3D3D" enable-background="new    " d="M535.305,935.269c204.159,0,369.661,5.201,369.661,11.617
	c0,6.42-165.502,11.621-369.661,11.621c-204.155,0-369.657-5.201-369.657-11.621C165.647,940.47,331.15,935.269,535.305,935.269z"/>
<path opacity="0.24" fill="#3D3D3D" enable-background="new    " d="M756.155,840.171c0,4.338-100.911,15.432-225.402,15.432
	c-124.494,0-236.327-7.284-236.327-11.619c0-4.336,112.008-11.62,236.327-11.62C655.074,832.363,756.155,836.009,756.155,840.171z"
	/>
<g>
	<g>
		<path fill="#9B9B9B" d="M764.184,598.883L764.184,598.883c7.978-4.156,46.295-28.087,47.508-30.691
			c1.038-2.079-0.693-2.944-4.855-5.371c-4.161-2.252-15.084-9.188-20.979-9.708c-1.562-0.178-5.378,0.343-10.579,1.212
			c0,0-0.174,0.177,0,0.177c4.512,2.598,12.658,6.242,12.14,10.576c-0.525,4.506-10.754,18.38-15.605,24.618
			C770.43,591.255,767.652,594.724,764.184,598.883z"/>
		<path fill="#B7B7B7" d="M526.987,458.266C526.987,458.44,526.987,458.44,526.987,458.266c0.524,0.346,4.684,2.774,11.446,6.937
			c39.706,24.446,169.399,104.205,170.441,105.069c1.211,1.038,5.896,2.432,9.705,1.213c0.347-0.175,0.696-0.345,1.043-0.345
			c6.069-2.95,13.696-5.896,21.499-8.492c4.163-1.217,8.323-2.429,12.316-3.642c8.147-2.082,15.775-3.815,21.843-5.027
			c5.203-1.042,9.192-1.389,10.751-1.213c5.899,0.521,16.821,7.454,20.982,9.707L595.653,433.994c0,0-2.947-1.733-7.628-3.99
			c-7.976-3.813-20.461-9.188-28.608-8.325C546.931,423.243,527.855,456.879,526.987,458.266z"/>
		<path fill="#898989" d="M705.576,609.628c0.35,1.039,1.217,2.085,2.257,2.95l0.173,0.175c4.508,3.644,13.874,7.454,19.071,10.06
			c11.794,6.065,15.782,1.559,15.782,1.559s12.483-14.738,21.326-25.317c3.641-4.331,6.414-7.8,7.809-9.536
			c4.852-6.067,14.904-20.112,15.603-24.619c0.522-4.336-7.631-7.978-12.14-10.578l0,0c-5.896,1.042-13.524,2.775-21.503,4.858
			v0.171c1.732,0.174,3.469,0.869,4.858,1.733c7.627,5.025,7.627,18.897-0.35,31.037c-7.805,12.133-20.458,17.682-28.26,12.66
			c-7.631-5.034-7.631-18.903,0.344-31.04c2.951-4.507,6.592-8.152,10.405-10.749v-0.177c-7.801,2.427-15.257,5.205-21.153,8.324
			c-0.346,0.173-0.692,0.345-1.04,0.345c0,0-4.854,9.536-10.055,20.982C703.151,603.909,704.365,605.296,705.576,609.628z"/>
		<path fill="#666666" d="M526.987,500.227l56.529,35.023l32.597,20.289l91.893,57.214c-1.213-1.04-2.08-2.085-2.252-2.95
			c-1.212-4.507-2.254-5.721,2.777-17.161c4.848-10.58,9.357-19.766,10.056-20.809c0,0,0-0.175-0.173-0.175
			c-3.819,1.218-8.503-0.347-9.537-1.212c-1.218-0.868-130.735-80.626-170.268-105.074h-0.173c-1.042,2.776-3.12,6.591-5.377,10.753
			c-1.905,3.295-3.64,6.762-5.201,10.057C524.909,492.597,523.347,498.144,526.987,500.227z"/>
		<path fill="#898989" d="M557.333,667.545c0,3.467,2.776,6.067,6.066,6.067h49.764c3.467,0,6.067-2.777,6.067-6.067v-85.652
			c0-3.469-2.771-6.073-6.067-6.073h-49.764c-3.469,0-6.066,2.778-6.066,6.073V667.545z"/>
		<path fill="#E2CD71" d="M730.027,604.781c7.627,5.022,20.458-0.527,28.262-12.66c7.805-11.967,7.973-26.012,0.347-31.037
			c-1.558-1.039-3.293-1.563-5.197-1.733l0,0c-3.993,1.041-8.153,2.254-12.316,3.641l0,0c-3.985,2.6-7.624,6.242-10.919,10.923
			C722.396,585.878,722.224,599.748,730.027,604.781z"/>
		<path fill="#282828" d="M460.41,530.567c8.496,9.191,22.71,9.363,37.625,9.882c16.472,0.349,33.287,0.696,45.772,11.619
			c8.323,7.283,13.353,15.253,16.123,25.145c1.218,3.984,1.731,8.492,2.083,13.177c0.176,2.944,2.604,5.201,5.548,5.201
			c0.173,0,0.347,0,0.347,0c3.122-0.178,5.374-2.778,5.201-5.898c-0.344-4.854-0.866-9.191-2.081-13.526
			c-3.124-12.65-9.536-23.234-19.941-32.418c-15.603-13.697-35.371-14.047-52.882-14.394c-13.174-0.346-24.446-0.519-29.823-6.24
			c-6.242-6.762-7.282-14.219-6.936-19.593c0.52-8.495,5.031-17.514,11.27-22.889c15.602-13.002,40.054-7.107,54.791,5.721h0.172
			c1.386-3.292,3.295-6.762,5.201-10.056c0,0,0,0,0-0.174c-18.552-14.912-47.508-20.459-67.101-4.162
			c-8.669,7.282-14.564,18.897-15.26,30.688C449.658,513.229,453.128,522.939,460.41,530.567z"/>
		<path fill="#666666" d="M576.752,549.815v47.855c0,10.402,7.807,19.42,18.205,20.113c6.067,0.346,11.444-1.911,15.084-5.724
			c1.215-1.212,2.252-2.776,3.122-4.336c1.562-2.771,2.599-6.065,2.599-9.536v-43.001l0,0l-32.595-20.283
			c-0.346,0.346-0.521,0.346-0.869,0.693C578.829,539.584,576.752,544.44,576.752,549.815z"/>
		
			<ellipse transform="matrix(-0.3682 0.9297 -0.9297 -0.3682 1570.2667 87.2426)" fill="#FFFFFF" cx="755.491" cy="577.146" rx="6.933" ry="4.855"/>
		<path fill="#565656" d="M572.589,634.261c5.38,4.5,14.044,4.5,20.983,4.5c6.938,0,15.433-2.942,18.033-10.056
			c2.598-6.934-2.255-13,1.904-20.635c-0.866,1.56-2.08,2.95-3.117,4.337c-3.815,3.818-9.189,6.069-15.086,5.723
			c-10.404-0.692-18.203-9.714-18.203-20.114v-3.289c0-0.178-0.176-0.178-0.176,0c-2.774,8.146-6.067,12.48-7.978,17.507
			C566.522,617.438,567.389,629.577,572.589,634.261z"/>
	</g>
	<path opacity="0.43" fill="#808080" enable-background="new    " d="M711.475,586.055
		C711.475,586.055,711.646,586.055,711.475,586.055c3.297-0.873,8.494-2.257,14.564-3.641c13.349-3.125,30.686-6.247,37.798-4.508
		c1.043,0.347,1.908,0.521,2.425,1.212c6.417,5.202-1.21,18.898-3.463,21.33c0.346-0.346,0.691-0.872,1.038-1.218
		c3.643-4.336,6.416-7.8,7.804-9.536c4.683-6.067,14.911-20.111,15.604-24.618c0.522-4.334-7.631-7.978-12.134-10.575l0,0
		c-1.217,0.346-2.6,0.346-3.989,0.689c-1.045,0.177-2.083,0.35-3.124,0.524c-1.906,0.345-3.641,0.866-5.722,1.212
		c-1.039,0.347-1.905,0.347-2.773,0.696c-0.347,0.171-0.866,0.171-1.217,0.342c-1.561,0.35-3.118,0.87-4.682,1.219
		c-3.986,1.038-8.318,2.251-12.311,3.636c-7.978,2.603-15.604,5.205-21.5,8.494c-0.347,0.175-0.692,0.347-1.039,0.347
		C718.408,571.659,715.285,577.906,711.475,586.055z"/>
	<path opacity="0.43" fill="#808080" enable-background="new    " d="M573.455,634.951l38.838,38.837l0,0h1.042
		c3.472,0,6.242-2.776,6.242-6.243v-65.368l0,0l-3.469-3.469h-0.173c0,3.469-1.04,6.765-2.601,9.361
		c-3.989,7.635,0.692,13.702-1.908,20.635c-2.599,6.763-10.922,10.056-18.03,10.056
		C586.982,638.761,578.829,638.761,573.455,634.951C573.455,634.775,573.282,634.951,573.455,634.951z"/>
	<path opacity="0.43" fill="#808080" enable-background="new    " d="M576.752,549.815v9.189c0,0,0.173,0.178,0.173,0
		c6.419-8.495,15.083-6.762,19.419-6.762c4.337,0,19.597,8.498,19.597,24.443v-21.147l0,0l-32.597-20.289
		c-0.348,0.347-0.521,0.521-0.866,0.696C578.829,539.584,576.752,544.44,576.752,549.815z"/>
	<path opacity="0.43" fill="#808080" enable-background="new    " d="M535.14,472.136l5.031,8.494l0,0
		c0.171,0.176,4.503,2.775,11.441,6.937c32.946,20.285,128.131,78.89,159.862,98.661h0.174c3.643-7.633,6.416-13.354,6.766-14.044
		c0,0,0-0.178-0.179-0.178c-3.811,1.218-8.495-0.346-9.531-1.212c-1.045-0.693-115.654-71.262-162.293-100.216
		c-2.947-1.908-5.721-3.466-7.975-5.028h-0.177C537.568,467.281,536.355,469.535,535.14,472.136L535.14,472.136z"/>
</g>
<g>
	<path fill="#58595B" d="M564.562,718.885c-7.107,23.234-28.609,40.226-54.273,40.226c-25.486,0-47.159-16.991-54.27-40.226h-12.831
		c3.124-13.005,7.631-25.664,13.872-36.586c10.923-19.072,27.743-32.77,53.056-32.77c25.317,0,42.133,13.698,53.06,32.77
		c6.243,10.922,10.922,23.758,13.875,36.586H564.562z"/>
	<path d="M510.289,649.702c29.11,0,52.711,23.597,52.711,52.708c0,29.111-23.601,52.709-52.711,52.709
		c-29.108,0-52.707-23.598-52.707-52.709C457.582,673.299,481.181,649.702,510.289,649.702z"/>
	<circle fill="#B1B3B6" cx="510.289" cy="702.41" r="47.161"/>
	<path d="M510.289,659.238c23.846,0,43.175,19.329,43.175,43.172c0,23.844-19.329,43.172-43.175,43.172
		c-23.842,0-43.171-19.328-43.171-43.172C467.118,678.567,486.447,659.238,510.289,659.238z"/>
	<circle fill="#636466" cx="510.289" cy="702.412" r="15.084"/>
	<circle cx="510.289" cy="702.411" r="13.178"/>
	<path fill="#2C6277" d="M510.289,690.45c6.608,0,11.966,5.357,11.966,11.964c0,6.607-5.357,11.963-11.966,11.963
		c-6.605,0-11.963-5.355-11.963-11.963C498.326,695.808,503.684,690.45,510.289,690.45z"/>
	<g>
		<circle fill="#77787B" cx="510.289" cy="738.822" r="3.641"/>
		<circle fill="#9D9FA2" cx="510.289" cy="740.213" r="2.082"/>
	</g>
	<g>
		<circle fill="#77787B" cx="510.289" cy="725.819" r="3.642"/>
		<path fill="#9D9FA2" d="M510.289,724.779c1.15,0,2.084,0.932,2.084,2.084c0,1.146-0.934,2.08-2.084,2.08
			c-1.148,0-2.081-0.934-2.081-2.08C508.208,725.711,509.141,724.779,510.289,724.779z"/>
	</g>
	<g>
		<circle fill="#77787B" cx="510.289" cy="679.004" r="3.641"/>
		<circle fill="#9D9FA2" cx="510.289" cy="680.043" r="2.082"/>
	</g>
	<g>
		<circle fill="#77787B" cx="486.887" cy="702.413" r="3.64"/>
		<circle fill="#9D9FA2" cx="485.669" cy="702.413" r="2.081"/>
	</g>
	<g>
		<path fill="#77787B" d="M533.702,698.773c2.011,0,3.637,1.632,3.637,3.641c0,2.008-1.626,3.639-3.637,3.639
			c-2.012,0-3.637-1.631-3.637-3.639C530.065,700.405,531.69,698.773,533.702,698.773z"/>
		<circle fill="#9D9FA2" cx="532.484" cy="702.413" r="2.081"/>
	</g>
	<g>
		<ellipse fill="#77787B" cx="493.652" cy="718.944" rx="3.639" ry="3.639"/>
		<ellipse fill="#9D9FA2" cx="492.888" cy="719.741" rx="2.079" ry="2.079"/>
	</g>
	<g>
		<ellipse fill="#77787B" cx="526.725" cy="685.852" rx="3.642" ry="3.642"/>
		<path fill="#9D9FA2" d="M525.992,684.551c1.146,0,2.078,0.933,2.078,2.08c0,1.148-0.933,2.078-2.078,2.078
			c-1.151,0-2.081-0.93-2.081-2.078C523.911,685.483,524.841,684.551,525.992,684.551z"/>
	</g>
	<g>
		<ellipse fill="#77787B" cx="493.735" cy="685.75" rx="3.641" ry="3.641"/>
		<ellipse fill="#9D9FA2" cx="492.865" cy="684.866" rx="2.081" ry="2.081"/>
	</g>
	<g>
		<ellipse fill="#77787B" cx="526.741" cy="718.949" rx="3.639" ry="3.639"/>
		<ellipse fill="#9D9FA2" cx="526.096" cy="717.981" rx="2.079" ry="2.079"/>
	</g>
	<g>
		<circle fill="#77787B" cx="510.289" cy="665.654" r="3.639"/>
		<circle fill="#9D9FA2" cx="510.289" cy="667.041" r="2.082"/>
	</g>
	<g>
		<circle fill="#77787B" cx="473.707" cy="702.413" r="3.64"/>
		<circle fill="#9D9FA2" cx="472.498" cy="702.413" r="2.081"/>
	</g>
	<g>
		<circle fill="#77787B" cx="546.874" cy="702.413" r="3.64"/>
		<circle fill="#9D9FA2" cx="545.662" cy="702.413" r="2.081"/>
	</g>
	<g>
		<ellipse fill="#77787B" cx="536.121" cy="728.201" rx="3.641" ry="3.641"/>
		<ellipse fill="#9D9FA2" cx="536.959" cy="729.118" rx="2.083" ry="2.083"/>
	</g>
	<g>
		<ellipse fill="#77787B" cx="484.399" cy="676.446" rx="3.641" ry="3.641"/>
		<path fill="#9D9FA2" d="M485.112,675.202c1.148,0,2.08,0.93,2.08,2.081c0,1.146-0.932,2.079-2.08,2.079
			c-1.149,0-2.08-0.933-2.08-2.079C483.032,676.131,483.963,675.202,485.112,675.202z"/>
	</g>
	<g>
		<ellipse fill="#77787B" cx="484.487" cy="728.196" rx="3.642" ry="3.642"/>
		<ellipse fill="#9D9FA2" cx="483.627" cy="729.097" rx="2.084" ry="2.084"/>
	</g>
	<g>
		<ellipse fill="#77787B" cx="536.383" cy="676.485" rx="3.641" ry="3.641"/>
		<path fill="#9D9FA2" d="M535.305,675.218c1.151,0,2.081,0.931,2.081,2.081c0,1.146-0.93,2.079-2.081,2.079
			c-1.146,0-2.078-0.933-2.078-2.079C533.227,676.149,534.159,675.218,535.305,675.218z"/>
	</g>
	<path d="M510.289,697.732c2.586,0,4.681,2.094,4.681,4.678c0,2.586-2.094,4.682-4.681,4.682c-2.581,0-4.676-2.096-4.676-4.682
		C505.613,699.826,507.708,697.732,510.289,697.732z"/>
	<ellipse fill="#9DDBF9" cx="510.289" cy="709.176" rx="7.632" ry="4.162"/>
	<g>
		<path fill="#808285" d="M583.98,797.948H436.776c0,0-0.868-13.353,0.173-31.729h146.857
			C584.673,784.772,583.98,797.948,583.98,797.948z"/>
		<path fill="#77787B" d="M436.776,766.22c0.691-13.874,2.599-30.69,6.412-47.161h12.66c7.107,23.234,28.608,40.223,54.268,40.223
			c25.49,0,47.164-16.988,54.272-40.223h12.662c3.988,16.471,5.72,33.463,6.41,47.161H436.776z"/>
	</g>
	<ellipse fill="#939598" cx="510.641" cy="779.049" rx="70.393" ry="11.79"/>
	<ellipse fill="#BCBEC0" cx="510.641" cy="783.212" rx="54.267" ry="6.242"/>
	<path fill="#9D9FA2" d="M525.378,765.177h55.658c0,0-2.431-34.151-6.419-43.348h-8.318c0,0-6.072,28.611-40.575,37.281
		L525.378,765.177z"/>
	<path fill="#9D9FA2" d="M495.208,765.177H439.55c0,0,2.428-34.151,6.416-43.348h8.497c0,0,6.067,28.611,40.571,37.281
		L495.208,765.177z"/>
</g>
<g>
	<rect x="600.275" y="791.188" width="36.41" height="8.667"/>
	<rect x="795.345" y="791.188" width="36.407" height="8.667"/>
	<path fill="#2B2B2B" d="M769.154,626.295c14.845,0,26.877,12.033,26.877,26.876s-12.032,26.876-26.877,26.876
		c-14.84,0-26.873-12.033-26.873-26.876S754.314,626.295,769.154,626.295z"/>
	<circle fill="#353535" cx="780.429" cy="644.154" r="11.441"/>
	<path fill="#FFFFFF" d="M783.199,634.792c3.644,0,6.593,2.95,6.593,6.588c0,3.64-2.949,6.589-6.593,6.589
		c-3.636,0-6.589-2.949-6.589-6.589C776.61,637.742,779.563,634.792,783.199,634.792z"/>
	<rect x="773.843" y="626.295" fill="#D1D3D4" width="12.307" height="53.574"/>
	<rect x="773.843" y="626.295" fill="#BCBEC0" width="6.586" height="53.574"/>
	<path fill="#E6E7E8" d="M717.143,585.376c-37.452,0-67.79,30.342-67.79,67.795c0,37.452,30.338,67.792,67.79,67.792
		c25.315,0,47.161-13.871,58.952-34.328V619.88C764.304,599.246,742.458,585.376,717.143,585.376z"/>
	<path fill="#FFFFFF" d="M836.78,794.655h10.229c0,0-18.899-69.53-121.892-69.53c-62.418,0-137.841,0-137.841,0v6.766
		c20.631,0,79.761,0,130.216,0C800.541,732.063,828.976,777.313,836.78,794.655z"/>
	<path d="M822.39,794.655h14.391c-7.805-17.342-36.239-62.765-119.288-62.765c-50.458,0-109.585,0-130.216,0v9.883
		c31.733,0,92.764,0,129.696,0C786.499,741.945,813.373,777.313,822.39,794.655z"/>
	<path fill="#333132" d="M822.39,794.655c-9.017-17.512-35.891-52.71-105.417-52.71c-36.933,0-98.138,0-129.696,0v52.71H822.39z"/>
	<circle fill="#D1D3D4" cx="717.143" cy="665.308" r="53.576"/>
	<circle fill="#FFFFFF" cx="717.143" cy="653.171" r="46.296"/>
	<polygon fill="#FFFFFF" points="761.011,729.461 673.277,729.461 686.972,683.858 747.139,683.858 	"/>
	<circle fill="#D1D3D4" cx="717.143" cy="653.171" r="34.329"/>
	<path fill="#BCBEC0" d="M717.143,626.295c14.843,0,26.877,12.033,26.877,26.876s-12.034,26.876-26.877,26.876
		c-14.841,0-26.874-12.033-26.874-26.876S702.302,626.295,717.143,626.295z"/>
	<path fill="#FFFFFF" d="M621.778,695.478c-22.885,0-34.502,0-34.502,0v29.647h67.451
		C654.722,725.125,620.913,725.994,621.778,695.478z"/>
	<path fill="#FFFFFF" d="M604.438,583.814L604.438,583.814c-4.503,0-8.146,3.642-8.146,8.152v95.36h16.471v-95.36
		C612.762,587.456,608.946,583.814,604.438,583.814z"/>
	<path fill="#DCDDDE" d="M606.176,590.754L606.176,590.754c-2.774,0-5.028,2.08-5.028,4.851v93.805c0,2.771,2.078,4.855,5.028,4.855
		l0,0c2.771,0,5.027-2.084,5.027-4.855v-93.805C611.203,592.832,608.946,590.754,606.176,590.754z"/>
	<rect x="589.533" y="687.327" fill="#FFFFFF" width="29.823" height="8.15"/>
	<rect x="607.214" y="687.327" fill="#DCDDDE" width="12.313" height="8.15"/>
</g>
<path fill="#191919" d="M417.097,810.497H127.539c-9.362,0-17.165-7.631-17.165-17.164V573.476c0-9.362,7.628-17.162,17.165-17.162
	h289.554c9.362,0,17.165,7.628,17.165,17.162v219.857C434.089,802.694,426.458,810.497,417.097,810.497z"/>
<path fill="#212121" d="M204.699,810.497h-70.05c-9.361,0-17.165-7.631-17.165-17.164V573.476c0-9.362,7.628-17.162,17.165-17.162
	h70.05c9.361,0,17.164,7.628,17.164,17.162v219.857C221.863,802.694,214.234,810.497,204.699,810.497z"/>
<path fill="#191919" d="M194.467,817.779h-51.319c-9.364,0-17.167-7.631-17.167-17.164V548.163c0-9.362,7.628-17.165,17.167-17.165
	h51.321c9.362,0,17.165,7.628,17.165,17.165v252.453C211.634,810.148,203.831,817.779,194.467,817.779z"/>
<path fill="#D1D1D1" d="M403.053,682.017H248.217c-9.362,0-17.162-7.631-17.162-17.167V553.886c0-9.362,7.628-17.165,17.162-17.165
	h154.662c9.361,0,17.167,7.628,17.167,17.165V664.85C420.221,674.386,412.415,682.017,403.053,682.017z"/>
<rect x="248.913" y="555.27" fill="#A6CE9F" width="152.581" height="106.114"/>
<rect x="243.192" y="706.633" fill="#4C4C4C" width="26.18" height="11.447"/>
<rect x="281.683" y="706.633" fill="#4C4C4C" width="26.18" height="11.447"/>
<rect x="320.348" y="706.633" fill="#4C4C4C" width="26.18" height="11.447"/>
<rect x="243.192" y="728.31" fill="#4C4C4C" width="26.18" height="11.44"/>
<rect x="281.683" y="728.31" fill="#4C4C4C" width="26.18" height="11.44"/>
<rect x="320.348" y="728.31" fill="#4C4C4C" width="26.18" height="11.44"/>
<rect x="242.668" y="748.424" fill="#4C4C4C" width="26.18" height="11.443"/>
<rect x="280.987" y="748.424" fill="#4C4C4C" width="26.182" height="11.443"/>
<rect x="319.653" y="748.424" fill="#4C4C4C" width="26.18" height="11.443"/>
<rect x="242.668" y="767.843" fill="#4C4C4C" width="26.18" height="11.443"/>
<rect x="280.987" y="767.843" fill="#4C4C4C" width="26.182" height="11.443"/>
<rect x="319.653" y="767.843" fill="#4C4C4C" width="26.18" height="11.443"/>
<circle fill="#4C4C4C" cx="395.078" cy="732.471" r="27.396"/>
<line fill="none" stroke="#191919" stroke-miterlimit="10" x1="371.67" y1="718.08" x2="415.363" y2="750.852"/>
<line fill="none" stroke="#191919" stroke-miterlimit="10" x1="418.312" y1="718.08" x2="374.445" y2="750.852"/>
<circle fill="#191919" cx="395.942" cy="733.168" r="14.912"/>
<circle fill="#4C4C4C" cx="395.942" cy="733.168" r="14.043"/>
<path fill="#4C4C4C" d="M380.857,779.113h-14.908c-3.12,0-5.72-2.601-5.72-5.721l0,0c0-3.123,2.601-5.722,5.72-5.722h14.908
	c3.124,0,5.723,2.599,5.723,5.722l0,0C386.58,776.688,383.981,779.113,380.857,779.113z"/>
<path fill="#4C4C4C" d="M417.442,779.113h-14.91c-3.125,0-5.721-2.601-5.721-5.721l0,0c0-3.123,2.596-5.722,5.721-5.722h14.91
	c3.125,0,5.721,2.599,5.721,5.722l0,0C423.164,776.688,420.567,779.113,417.442,779.113z"/>
<path fill="#494949" d="M394.297,812.604L394.297,812.604c5.549-2.604,7.977-9.189,5.375-14.74L309.51,604.538
	c-2.6-5.546-9.19-7.975-14.737-5.375l0,0c-5.549,2.6-7.976,9.19-5.374,14.736l90.162,193.325
	C382.162,812.774,388.749,815.201,394.297,812.604z"/>
<path fill="#494949" d="M643.633,812.604L643.633,812.604c5.544,2.597,12.134,0.17,14.734-5.38l90.157-193.325
	c2.604-5.546,0.177-12.136-5.374-14.736l0,0c-5.545-2.6-12.134-0.174-14.733,5.375l-90.158,193.326
	C635.825,803.415,638.259,809.827,643.633,812.604z"/>
<path fill="#EDEDED" d="M316.792,841.562h420.813c9.36,0,17.164-7.635,17.164-17.168v-32.25c0-9.36-7.629-17.168-17.164-17.168
	H316.792c-9.361,0-17.165,7.631-17.165,17.168v32.25C299.803,833.927,307.431,841.562,316.792,841.562z"/>
<rect x="300.497" y="790.235" fill="#111111" width="454.273" height="34.502"/>
<rect x="461.572" y="798.733" fill="#37BC20" width="35.89" height="8.843"/>
<rect x="409.903" y="798.733" fill="#37BC20" width="35.894" height="8.843"/>
<rect x="358.234" y="798.733" fill="#37BC20" width="35.892" height="8.843"/>
<rect x="179.172" y="845.631" fill="#75191D" width="712.274" height="101.085"/>
<rect x="191.481" y="882.734" fill="#BCB491" width="190.38" height="50.112"/>
<polygon fill="#161616" points="196.683,887.938 196.683,919.669 203.795,919.669 203.795,925.562 229.279,925.562 229.279,919.669 
	236.91,919.669 236.91,887.938 "/>
<polygon fill="#161616" points="243.149,887.938 243.149,919.669 250.259,919.669 250.259,925.562 275.572,925.562 275.572,919.669 
	283.204,919.669 283.204,887.938 "/>
<polygon fill="#161616" points="290.658,887.938 290.658,919.669 297.944,919.669 297.944,925.562 323.256,925.562 323.256,919.669 
	330.885,919.669 330.885,887.938 "/>
<polygon fill="#161616" points="336.26,887.938 336.26,919.669 343.544,919.669 343.544,925.562 368.855,925.562 368.855,919.669 
	376.487,919.669 376.487,887.938 "/>
<rect x="405.791" y="881.692" fill="#BCB491" width="190.38" height="50.111"/>
<polygon fill="#161616" points="411.165,886.899 411.165,918.8 418.447,918.8 418.447,924.694 443.76,924.694 443.76,918.8 
	451.389,918.8 451.389,886.899 "/>
<polygon fill="#161616" points="457.458,886.899 457.458,918.8 464.566,918.8 464.566,924.694 490.054,924.694 490.054,918.8 
	497.685,918.8 497.685,886.899 "/>
<polygon fill="#161616" points="505.138,886.899 505.138,918.8 512.25,918.8 512.25,924.694 537.735,924.694 537.735,918.8 
	545.193,918.8 545.193,886.899 "/>
<polygon fill="#161616" points="550.74,886.899 550.74,918.8 557.847,918.8 557.847,924.694 583.338,924.694 583.338,918.8 
	590.964,918.8 590.964,886.899 "/>
<circle fill="#161616" cx="630.499" cy="896.607" r="6.761"/>
<path fill="#161616" d="M650.438,889.846c3.731,0,6.759,3.028,6.759,6.763s-3.027,6.76-6.759,6.76c-3.737,0-6.764-3.025-6.764-6.76
	S646.7,889.846,650.438,889.846z"/>
<path fill="#161616" d="M670.202,889.846c3.737,0,6.763,3.028,6.763,6.763s-3.025,6.76-6.763,6.76c-3.731,0-6.76-3.025-6.76-6.76
	S666.471,889.846,670.202,889.846z"/>
<circle fill="#161616" cx="690.146" cy="896.607" r="6.761"/>
<circle fill="#161616" cx="631.191" cy="917.586" r="6.761"/>
<path fill="#161616" d="M651.136,910.825c3.731,0,6.759,3.027,6.759,6.762c0,3.736-3.027,6.76-6.759,6.76
	c-3.738,0-6.765-3.023-6.765-6.76C644.371,913.853,647.397,910.825,651.136,910.825z"/>
<circle fill="#161616" cx="670.897" cy="917.586" r="6.761"/>
<circle fill="#161616" cx="690.665" cy="917.586" r="6.761"/>
</svg>
