<?xml version="1.0" encoding="utf-8"?>
<!-- Generator: Adobe Illustrator 21.0.0, SVG Export Plug-In . SVG Version: 6.00 Build 0)  -->
<svg version="1.1" id="Layer_1" xmlns="http://www.w3.org/2000/svg" xmlns:xlink="http://www.w3.org/1999/xlink" x="0px" y="0px"
	 viewBox="0 0 1366 563" style="enable-background:new 0 0 1366 563;" xml:space="preserve">
<style type="text/css">
	.st0{opacity:0.25;fill:#3D3D3D;enable-background:new    ;}
	.st1{opacity:0.26;fill:#3D3D3D;enable-background:new    ;}
	.st2{opacity:0.24;fill:#3D3D3D;enable-background:new    ;}
	.st3{fill:#9B9B9B;}
	.st4{fill:#B7B7B7;}
	.st5{fill:#898989;}
	.st6{fill:#666666;}
	.st7{fill:#E2CD71;}
	.st8{fill:#282828;}
	.st9{fill:#FFFFFF;}
	.st10{fill:#565656;}
	.st11{opacity:0.43;fill:#808080;enable-background:new    ;}
	.st12{fill:#58595B;}
	.st13{fill:#B1B3B6;}
	.st14{fill:#636466;}
	.st15{fill:#2C6277;}
	.st16{fill:#77787B;}
	.st17{fill:#9D9FA2;}
	.st18{fill:#9DDBF9;}
	.st19{fill:#808285;}
	.st20{fill:#939598;}
	.st21{fill:#BCBEC0;}
	.st22{fill:#2B2B2B;}
	.st23{fill:#353535;}
	.st24{fill:#D1D3D4;}
	.st25{fill:#E6E7E8;}
	.st26{fill:#333132;}
	.st27{fill:#DCDDDE;}
	.st28{fill:#191919;}
	.st29{fill:#212121;}
	.st30{fill:#D1D1D1;}
	.st31{fill:#A6CE9F;}
	.st32{fill:#4C4C4C;}
	.st33{fill:none;stroke:#191919;stroke-miterlimit:10;}
	.st34{fill:#494949;}
	.st35{fill:#EDEDED;}
	.st36{fill:#111111;}
	.st37{fill:#37BC20;}
	.st38{fill:#75191D;}
	.st39{fill:#BCB491;}
	.st40{fill:#161616;}
</style>
<ellipse class="st0" cx="824.1" cy="378.4" rx="92.3" ry="5.1"/>
<ellipse class="st1" cx="668.6" cy="426.3" rx="213.2" ry="6.7"/>
<path class="st2" d="M576.2,384.6c0,2.5-58.2,8.9-130,8.9s-136.3-4.2-136.3-6.7c0-2.5,64.6-6.7,136.3-6.7S576.2,382.2,576.2,384.6z"
	/>
<g>
	<g>
		<path class="st3" d="M1009.9,319.3C1009.9,319.3,1009.9,319.3,1009.9,319.3c4.6-2.4,26.7-16.2,27.4-17.7c0.6-1.2-0.4-1.7-2.8-3.1
			c-2.4-1.3-8.7-5.3-12.1-5.6c-0.9-0.1-3.1,0.2-6.1,0.7c0,0-0.1,0.1,0,0.1c2.6,1.5,7.3,3.6,7,6.1c-0.3,2.6-6.2,10.6-9,14.2
			C1013.5,314.9,1011.9,316.9,1009.9,319.3z"/>
		<path class="st4" d="M873.1,238.2C873.1,238.3,873.1,238.3,873.1,238.2c0.3,0.2,2.7,1.6,6.6,4c22.9,14.1,97.7,60.1,98.3,60.6
			c0.7,0.6,3.4,1.4,5.6,0.7c0.2-0.1,0.4-0.2,0.6-0.2c3.5-1.7,7.9-3.4,12.4-4.9c2.4-0.7,4.8-1.4,7.1-2.1c4.7-1.2,9.1-2.2,12.6-2.9
			c3-0.6,5.3-0.8,6.2-0.7c3.4,0.3,9.7,4.3,12.1,5.6l-121.9-74.1c0,0-1.7-1-4.4-2.3c-4.6-2.2-11.8-5.3-16.5-4.8
			C884.6,218,873.6,237.4,873.1,238.2z"/>
		<path class="st5" d="M976.1,325.5c0.2,0.6,0.7,1.2,1.3,1.7l0.1,0.1c2.6,2.1,8,4.3,11,5.8c6.8,3.5,9.1,0.9,9.1,0.9
			s7.2-8.5,12.3-14.6c2.1-2.5,3.7-4.5,4.5-5.5c2.8-3.5,8.6-11.6,9-14.2c0.3-2.5-4.4-4.6-7-6.1l0,0c-3.4,0.6-7.8,1.6-12.4,2.8v0.1
			c1,0.1,2,0.5,2.8,1c4.4,2.9,4.4,10.9-0.2,17.9c-4.5,7-11.8,10.2-16.3,7.3c-4.4-2.9-4.4-10.9,0.2-17.9c1.7-2.6,3.8-4.7,6-6.2v-0.1
			c-4.5,1.4-8.8,3-12.2,4.8c-0.2,0.1-0.4,0.2-0.6,0.2c0,0-2.8,5.5-5.8,12.1C974.7,322.2,975.4,323,976.1,325.5z"/>
		<path class="st6" d="M873.1,262.4l32.6,20.2l18.8,11.7l53,33c-0.7-0.6-1.2-1.2-1.3-1.7c-0.7-2.6-1.3-3.3,1.6-9.9
			c2.8-6.1,5.4-11.4,5.8-12c0,0,0-0.1-0.1-0.1c-2.2,0.7-4.9-0.2-5.5-0.7c-0.7-0.5-75.4-46.5-98.2-60.6h-0.1
			c-0.6,1.6-1.8,3.8-3.1,6.2c-1.1,1.9-2.1,3.9-3,5.8C871.9,258,871,261.2,873.1,262.4z"/>
		<path class="st5" d="M890.6,358.9c0,2,1.6,3.5,3.5,3.5h28.7c2,0,3.5-1.6,3.5-3.5v-49.4c0-2-1.6-3.5-3.5-3.5h-28.7
			c-2,0-3.5,1.6-3.5,3.5V358.9z"/>
		<path class="st7" d="M990.2,322.7c4.4,2.9,11.8-0.3,16.3-7.3c4.5-6.9,4.6-15,0.2-17.9c-0.9-0.6-1.9-0.9-3-1l0,0
			c-2.3,0.6-4.7,1.3-7.1,2.1l0,0c-2.3,1.5-4.4,3.6-6.3,6.3C985.8,311.8,985.7,319.8,990.2,322.7z"/>
		<path class="st8" d="M834.7,279.9c4.9,5.3,13.1,5.4,21.7,5.7c9.5,0.2,19.2,0.4,26.4,6.7c4.8,4.2,7.7,8.8,9.3,14.5
			c0.7,2.3,1,4.9,1.2,7.6c0.1,1.7,1.5,3,3.2,3c0.1,0,0.2,0,0.2,0c1.8-0.1,3.1-1.6,3-3.4c-0.2-2.8-0.5-5.3-1.2-7.8
			c-1.8-7.3-5.5-13.4-11.5-18.7c-9-7.9-20.4-8.1-30.5-8.3c-7.6-0.2-14.1-0.3-17.2-3.6c-3.6-3.9-4.2-8.2-4-11.3
			c0.3-4.9,2.9-10.1,6.5-13.2c9-7.5,23.1-4.1,31.6,3.3h0.1c0.8-1.9,1.9-3.9,3-5.8c0,0,0,0,0-0.1c-10.7-8.6-27.4-11.8-38.7-2.4
			c-5,4.2-8.4,10.9-8.8,17.7C828.5,269.9,830.5,275.5,834.7,279.9z"/>
		<path class="st6" d="M901.8,291v27.6c0,6,4.5,11.2,10.5,11.6c3.5,0.2,6.6-1.1,8.7-3.3c0.7-0.7,1.3-1.6,1.8-2.5
			c0.9-1.6,1.5-3.5,1.5-5.5v-24.8l0,0l-18.8-11.7c-0.2,0.2-0.3,0.2-0.5,0.4C903,285.1,901.8,287.9,901.8,291z"/>
		
			<ellipse transform="matrix(0.3678 -0.9299 0.9299 0.3678 350.0746 1128.3889)" class="st9" cx="1004.9" cy="306.7" rx="4" ry="2.8"/>
		<path class="st10" d="M899.4,339.7c3.1,2.6,8.1,2.6,12.1,2.6c4,0,8.9-1.7,10.4-5.8c1.5-4-1.3-7.5,1.1-11.9
			c-0.5,0.9-1.2,1.7-1.8,2.5c-2.2,2.2-5.3,3.5-8.7,3.3c-6-0.4-10.5-5.6-10.5-11.6v-1.9c0-0.1-0.1-0.1-0.1,0
			c-1.6,4.7-3.5,7.2-4.6,10.1C895.9,330,896.4,337,899.4,339.7z"/>
	</g>
	<path class="st11" d="M979.5,311.9C979.5,311.9,979.6,311.9,979.5,311.9c1.9-0.5,4.9-1.3,8.4-2.1c7.7-1.8,17.7-3.6,21.8-2.6
		c0.6,0.2,1.1,0.3,1.4,0.7c3.7,3-0.7,10.9-2,12.3c0.2-0.2,0.4-0.5,0.6-0.7c2.1-2.5,3.7-4.5,4.5-5.5c2.7-3.5,8.6-11.6,9-14.2
		c0.3-2.5-4.4-4.6-7-6.1l0,0c-0.7,0.2-1.5,0.2-2.3,0.4c-0.6,0.1-1.2,0.2-1.8,0.3c-1.1,0.2-2.1,0.5-3.3,0.7c-0.6,0.2-1.1,0.2-1.6,0.4
		c-0.2,0.1-0.5,0.1-0.7,0.2c-0.9,0.2-1.8,0.5-2.7,0.7c-2.3,0.6-4.8,1.3-7.1,2.1c-4.6,1.5-9,3-12.4,4.9c-0.2,0.1-0.4,0.2-0.6,0.2
		C983.5,303.6,981.7,307.2,979.5,311.9z"/>
	<path class="st11" d="M899.9,340.1l22.4,22.4l0,0h0.6c2,0,3.6-1.6,3.6-3.6v-37.7l0,0l-2-2h-0.1c0,2-0.6,3.9-1.5,5.4
		c-2.3,4.4,0.4,7.9-1.1,11.9c-1.5,3.9-6.3,5.8-10.4,5.8C907.7,342.3,903,342.3,899.9,340.1C899.9,340,899.8,340.1,899.9,340.1z"/>
	<path class="st11" d="M901.8,291v5.3c0,0,0.1,0.1,0.1,0c3.7-4.9,8.7-3.9,11.2-3.9s11.3,4.9,11.3,14.1v-12.2l0,0l-18.8-11.7
		c-0.2,0.2-0.3,0.3-0.5,0.4C903,285.1,901.8,287.9,901.8,291z"/>
	<path class="st11" d="M877.8,246.2l2.9,4.9l0,0c0.1,0.1,2.6,1.6,6.6,4c19,11.7,73.9,45.5,92.2,56.9h0.1c2.1-4.4,3.7-7.7,3.9-8.1
		c0,0,0-0.1-0.1-0.1c-2.2,0.7-4.9-0.2-5.5-0.7c-0.6-0.4-66.7-41.1-93.6-57.8c-1.7-1.1-3.3-2-4.6-2.9h-0.1
		C879.2,243.4,878.5,244.7,877.8,246.2L877.8,246.2z"/>
</g>
<g>
	<path class="st12" d="M754,332.4c-4.1,13.4-16.5,23.2-31.3,23.2c-14.7,0-27.2-9.8-31.3-23.2H684c1.8-7.5,4.4-14.8,8-21.1
		c6.3-11,16-18.9,30.6-18.9c14.6,0,24.3,7.9,30.6,18.9c3.6,6.3,6.3,13.7,8,21.1H754z"/>
	<circle cx="722.7" cy="322.9" r="30.4"/>
	<circle class="st13" cx="722.7" cy="322.9" r="27.2"/>
	<circle cx="722.7" cy="322.9" r="24.9"/>
	<circle class="st14" cx="722.7" cy="322.9" r="8.7"/>
	<circle cx="722.7" cy="322.9" r="7.6"/>
	<circle class="st15" cx="722.7" cy="322.9" r="6.9"/>
	<g>
		<circle class="st16" cx="722.7" cy="343.9" r="2.1"/>
		<circle class="st17" cx="722.7" cy="344.7" r="1.2"/>
	</g>
	<g>
		<circle class="st16" cx="722.7" cy="336.4" r="2.1"/>
		<circle class="st17" cx="722.7" cy="337" r="1.2"/>
	</g>
	<g>
		<circle class="st16" cx="722.7" cy="309.4" r="2.1"/>
		<circle class="st17" cx="722.7" cy="310" r="1.2"/>
	</g>
	<g>
		<circle class="st16" cx="709.2" cy="322.9" r="2.1"/>
		<circle class="st17" cx="708.5" cy="322.9" r="1.2"/>
	</g>
	<g>
		<circle class="st16" cx="736.2" cy="322.9" r="2.1"/>
		<circle class="st17" cx="735.5" cy="322.9" r="1.2"/>
	</g>
	<g>
		
			<ellipse transform="matrix(0.7071 -0.7071 0.7071 0.7071 -26.1712 601.627)" class="st16" cx="713.1" cy="332.4" rx="2.1" ry="2.1"/>
		
			<ellipse transform="matrix(0.7072 -0.707 0.707 0.7072 -26.7197 601.3472)" class="st17" cx="712.7" cy="332.9" rx="1.2" ry="1.2"/>
	</g>
	<g>
		
			<ellipse transform="matrix(0.7071 -0.7071 0.7071 0.7071 -7.0954 609.5538)" class="st16" cx="732.2" cy="313.3" rx="2.1" ry="2.1"/>
		
			<ellipse transform="matrix(0.7071 -0.7071 0.7071 0.7071 -7.5908 609.3644)" class="st17" cx="731.8" cy="313.8" rx="1.2" ry="1.2"/>
	</g>
	<g>
		
			<ellipse transform="matrix(0.7071 -0.7071 0.7071 0.7071 -12.6883 596.0591)" class="st16" cx="713.2" cy="313.3" rx="2.1" ry="2.1"/>
		
			<ellipse transform="matrix(0.707 -0.7072 0.7072 0.707 -12.4412 595.6519)" class="st17" cx="712.7" cy="312.8" rx="1.2" ry="1.2"/>
	</g>
	<g>
		
			<ellipse transform="matrix(0.7071 -0.7071 0.7071 0.7071 -20.5923 615.1353)" class="st16" cx="732.2" cy="332.4" rx="2.1" ry="2.1"/>
		
			<ellipse transform="matrix(0.7072 -0.7071 0.7071 0.7072 -20.399 614.6151)" class="st17" cx="731.8" cy="331.9" rx="1.2" ry="1.2"/>
	</g>
	<g>
		<circle class="st16" cx="722.7" cy="301.7" r="2.1"/>
		<circle class="st17" cx="722.7" cy="302.5" r="1.2"/>
	</g>
	<g>
		<circle class="st16" cx="701.6" cy="322.9" r="2.1"/>
		<circle class="st17" cx="700.9" cy="322.9" r="1.2"/>
	</g>
	<g>
		<circle class="st16" cx="743.8" cy="322.9" r="2.1"/>
		<circle class="st17" cx="743.1" cy="322.9" r="1.2"/>
	</g>
	<g>
		
			<ellipse transform="matrix(0.7071 -0.7071 0.7071 0.7071 -22.817 620.4735)" class="st16" cx="737.6" cy="337.8" rx="2.1" ry="2.1"/>
		
			<ellipse transform="matrix(0.7071 -0.7071 0.7071 0.7071 -23.0421 620.9995)" class="st17" cx="738.1" cy="338.3" rx="1.2" ry="1.2"/>
	</g>
	<g>
		
			<ellipse transform="matrix(0.7071 -0.7071 0.7071 0.7071 -10.4355 590.693)" class="st16" cx="707.8" cy="307.9" rx="2.1" ry="2.1"/>
		
			<ellipse transform="matrix(0.7072 -0.707 0.707 0.7072 -10.7006 591.0028)" class="st17" cx="708.2" cy="308.4" rx="1.2" ry="1.2"/>
	</g>
	<g>
		
			<ellipse transform="matrix(0.7071 -0.7071 0.7071 0.7071 -31.5262 599.399)" class="st16" cx="707.8" cy="337.8" rx="2.1" ry="2.1"/>
		
			<ellipse transform="matrix(0.7071 -0.7071 0.7071 0.7071 -32.0224 599.2102)" class="st17" cx="707.3" cy="338.3" rx="1.2" ry="1.2"/>
	</g>
	<g>
		
			<ellipse transform="matrix(0.7071 -0.7072 0.7072 0.7071 -1.6982 611.8614)" class="st16" cx="737.7" cy="308" rx="2.1" ry="2.1"/>
		
			<ellipse transform="matrix(0.707 -0.7072 0.7072 0.707 -2.1025 611.6539)" class="st17" cx="737.1" cy="308.4" rx="1.2" ry="1.2"/>
	</g>
	<circle cx="722.7" cy="322.9" r="2.7"/>
	<ellipse class="st18" cx="722.7" cy="326.8" rx="4.4" ry="2.4"/>
	<g>
		<path class="st19" d="M765.2,378h-84.9c0,0-0.5-7.7,0.1-18.3h84.7C765.6,370.4,765.2,378,765.2,378z"/>
		<path class="st16" d="M680.3,359.7c0.4-8,1.5-17.7,3.7-27.2h7.3c4.1,13.4,16.5,23.2,31.3,23.2c14.7,0,27.2-9.8,31.3-23.2h7.3
			c2.3,9.5,3.3,19.3,3.7,27.2H680.3z"/>
	</g>
	<ellipse class="st20" cx="722.9" cy="367.1" rx="40.6" ry="6.8"/>
	<ellipse class="st21" cx="722.9" cy="369.5" rx="31.3" ry="3.6"/>
	<path class="st17" d="M731.4,359.1h32.1c0,0-1.4-19.7-3.7-25H755c0,0-3.5,16.5-23.4,21.5L731.4,359.1z"/>
	<path class="st17" d="M714,359.1h-32.1c0,0,1.4-19.7,3.7-25h4.9c0,0,3.5,16.5,23.4,21.5L714,359.1z"/>
</g>
<g>
	<rect x="774.6" y="374.1" width="21" height="5"/>
	<rect x="887.1" y="374.1" width="21" height="5"/>
	<circle class="st22" cx="872" cy="294.5" r="15.5"/>
	<circle class="st23" cx="878.5" cy="289.3" r="6.6"/>
	<circle class="st9" cx="880.1" cy="287.7" r="3.8"/>
	<rect x="874.7" y="279" class="st24" width="7.1" height="30.9"/>
	<rect x="874.7" y="279" class="st21" width="3.8" height="30.9"/>
	<path class="st25" d="M842,255.4c-21.6,0-39.1,17.5-39.1,39.1s17.5,39.1,39.1,39.1c14.6,0,27.2-8,34-19.8v-38.5
		C869.2,263.4,856.6,255.4,842,255.4z"/>
	<path class="st9" d="M911,376.1h5.9c0,0-10.9-40.1-70.3-40.1c-36,0-79.5,0-79.5,0v3.9c11.9,0,46,0,75.1,0
		C890.1,340,906.5,366.1,911,376.1z"/>
	<path d="M902.7,376.1h8.3c-4.5-10-20.9-36.2-68.8-36.2c-29.1,0-63.2,0-75.1,0v5.7c18.3,0,53.5,0,74.8,0
		C882,345.7,897.5,366.1,902.7,376.1z"/>
	<path class="st26" d="M902.7,376.1c-5.2-10.1-20.7-30.4-60.8-30.4c-21.3,0-56.6,0-74.8,0v30.4H902.7z"/>
	<circle class="st24" cx="842" cy="301.5" r="30.9"/>
	<circle class="st9" cx="842" cy="294.5" r="26.7"/>
	<polygon class="st9" points="867.3,338.5 816.7,338.5 824.6,312.2 859.3,312.2 	"/>
	<circle class="st24" cx="842" cy="294.5" r="19.8"/>
	<circle class="st21" cx="842" cy="294.5" r="15.5"/>
	<path class="st9" d="M787,318.9c-13.2,0-19.9,0-19.9,0V336H806C806,336,786.5,336.5,787,318.9z"/>
	<path class="st9" d="M777,254.5L777,254.5c-2.6,0-4.7,2.1-4.7,4.7v55h9.5v-55C781.8,256.6,779.6,254.5,777,254.5z"/>
	<path class="st27" d="M778,258.5L778,258.5c-1.6,0-2.9,1.2-2.9,2.8v54.1c0,1.6,1.2,2.8,2.9,2.8l0,0c1.6,0,2.9-1.2,2.9-2.8v-54.1
		C780.9,259.7,779.6,258.5,778,258.5z"/>
	<rect x="768.4" y="314.2" class="st9" width="17.2" height="4.7"/>
	<rect x="778.6" y="314.2" class="st27" width="7.1" height="4.7"/>
</g>
<path class="st28" d="M661.7,374.1h-167c-5.4,0-9.9-4.4-9.9-9.9V237.4c0-5.4,4.4-9.9,9.9-9.9h167c5.4,0,9.9,4.4,9.9,9.9v126.8
	C671.5,369.6,667.1,374.1,661.7,374.1z"/>
<path class="st29" d="M539.2,374.1h-40.4c-5.4,0-9.9-4.4-9.9-9.9V237.4c0-5.4,4.4-9.9,9.9-9.9h40.4c5.4,0,9.9,4.4,9.9,9.9v126.8
	C549.1,369.6,544.7,374.1,539.2,374.1z"/>
<path class="st28" d="M533.3,378.3h-29.6c-5.4,0-9.9-4.4-9.9-9.9V222.8c0-5.4,4.4-9.9,9.9-9.9h29.6c5.4,0,9.9,4.4,9.9,9.9v145.6
	C543.2,373.9,538.7,378.3,533.3,378.3z"/>
<path class="st30" d="M653.6,300h-89.3c-5.4,0-9.9-4.4-9.9-9.9v-64c0-5.4,4.4-9.9,9.9-9.9h89.2c5.4,0,9.9,4.4,9.9,9.9v64
	C663.5,295.6,659,300,653.6,300z"/>
<rect x="564.7" y="226.9" class="st31" width="88" height="61.2"/>
<rect x="561.4" y="314.2" class="st32" width="15.1" height="6.6"/>
<rect x="583.6" y="314.2" class="st32" width="15.1" height="6.6"/>
<rect x="605.9" y="314.2" class="st32" width="15.1" height="6.6"/>
<rect x="561.4" y="326.7" class="st32" width="15.1" height="6.6"/>
<rect x="583.6" y="326.7" class="st32" width="15.1" height="6.6"/>
<rect x="605.9" y="326.7" class="st32" width="15.1" height="6.6"/>
<rect x="561.1" y="338.3" class="st32" width="15.1" height="6.6"/>
<rect x="583.2" y="338.3" class="st32" width="15.1" height="6.6"/>
<rect x="605.5" y="338.3" class="st32" width="15.1" height="6.6"/>
<rect x="561.1" y="349.5" class="st32" width="15.1" height="6.6"/>
<rect x="583.2" y="349.5" class="st32" width="15.1" height="6.6"/>
<rect x="605.5" y="349.5" class="st32" width="15.1" height="6.6"/>
<circle class="st32" cx="649" cy="329.1" r="15.8"/>
<line class="st33" x1="635.5" y1="320.8" x2="660.7" y2="339.7"/>
<line class="st33" x1="662.4" y1="320.8" x2="637.1" y2="339.7"/>
<circle class="st28" cx="649.5" cy="329.5" r="8.6"/>
<circle class="st32" cx="649.5" cy="329.5" r="8.1"/>
<path class="st32" d="M640.8,356h-8.6c-1.8,0-3.3-1.5-3.3-3.3l0,0c0-1.8,1.5-3.3,3.3-3.3h8.6c1.8,0,3.3,1.5,3.3,3.3l0,0
	C644.1,354.6,642.6,356,640.8,356z"/>
<path class="st32" d="M661.9,356h-8.6c-1.8,0-3.3-1.5-3.3-3.3l0,0c0-1.8,1.5-3.3,3.3-3.3h8.6c1.8,0,3.3,1.5,3.3,3.3l0,0
	C665.2,354.6,663.7,356,661.9,356z"/>
<path class="st34" d="M367.5,368.7L367.5,368.7c3.2-1.5,4.6-5.3,3.1-8.5l-52-111.5c-1.5-3.2-5.3-4.6-8.5-3.1l0,0
	c-3.2,1.5-4.6,5.3-3.1,8.5l52,111.5C360.5,368.8,364.3,370.2,367.5,368.7z"/>
<path class="st34" d="M511.3,368.7L511.3,368.7c3.2,1.5,7,0.1,8.5-3.1l52-111.5c1.5-3.2,0.1-7-3.1-8.5l0,0c-3.2-1.5-7-0.1-8.5,3.1
	l-52,111.5C506.8,363.4,508.2,367.1,511.3,368.7z"/>
<path class="st35" d="M322.8,385.4h242.7c5.4,0,9.9-4.4,9.9-9.9v-18.6c0-5.4-4.4-9.9-9.9-9.9H322.8c-5.4,0-9.9,4.4-9.9,9.9v18.6
	C313,381,317.4,385.4,322.8,385.4z"/>
<rect x="313.4" y="355.8" class="st36" width="262" height="19.9"/>
<rect x="406.3" y="360.7" class="st37" width="20.7" height="5.1"/>
<rect x="376.5" y="360.7" class="st37" width="20.7" height="5.1"/>
<rect x="346.7" y="360.7" class="st37" width="20.7" height="5.1"/>
<rect x="463.2" y="367.9" class="st38" width="410.8" height="58.3"/>
<rect x="470.3" y="389.3" class="st39" width="109.8" height="28.9"/>
<polygon class="st40" points="473.3,392.3 473.3,410.6 477.4,410.6 477.4,414 492.1,414 492.1,410.6 496.5,410.6 496.5,392.3 "/>
<polygon class="st40" points="500.1,392.3 500.1,410.6 504.2,410.6 504.2,414 518.8,414 518.8,410.6 523.2,410.6 523.2,392.3 "/>
<polygon class="st40" points="527.5,392.3 527.5,410.6 531.7,410.6 531.7,414 546.3,414 546.3,410.6 550.7,410.6 550.7,392.3 "/>
<polygon class="st40" points="553.8,392.3 553.8,410.6 558,410.6 558,414 572.6,414 572.6,410.6 577,410.6 577,392.3 "/>
<rect x="593.9" y="388.7" class="st39" width="109.8" height="28.9"/>
<polygon class="st40" points="597,391.7 597,410.1 601.2,410.1 601.2,413.5 615.8,413.5 615.8,410.1 620.2,410.1 620.2,391.7 "/>
<polygon class="st40" points="623.7,391.7 623.7,410.1 627.8,410.1 627.8,413.5 642.5,413.5 642.5,410.1 646.9,410.1 646.9,391.7 
	"/>
<polygon class="st40" points="651.2,391.7 651.2,410.1 655.3,410.1 655.3,413.5 670,413.5 670,410.1 674.3,410.1 674.3,391.7 "/>
<polygon class="st40" points="677.5,391.7 677.5,410.1 681.6,410.1 681.6,413.5 696.3,413.5 696.3,410.1 700.7,410.1 700.7,391.7 
	"/>
<circle class="st40" cx="723.5" cy="397.3" r="3.9"/>
<circle class="st40" cx="735" cy="397.3" r="3.9"/>
<circle class="st40" cx="746.4" cy="397.3" r="3.9"/>
<circle class="st40" cx="757.9" cy="397.3" r="3.9"/>
<circle class="st40" cx="723.9" cy="409.4" r="3.9"/>
<circle class="st40" cx="735.4" cy="409.4" r="3.9"/>
<circle class="st40" cx="746.8" cy="409.4" r="3.9"/>
<circle class="st40" cx="758.2" cy="409.4" r="3.9"/>
</svg>
