<?xml version="1.0" encoding="utf-8"?>
<!-- Generator: Adobe Illustrator 15.0.0, SVG Export Plug-In . SVG Version: 6.00 Build 0)  -->
<!DOCTYPE svg PUBLIC "-//W3C//DTD SVG 1.1//EN" "http://www.w3.org/Graphics/SVG/1.1/DTD/svg11.dtd">
<svg version="1.1" id="Layer_1" xmlns="http://www.w3.org/2000/svg" xmlns:xlink="http://www.w3.org/1999/xlink" x="0px" y="0px"
	 width="768px" height="1024px" viewBox="0 0 768 1024" enable-background="new 0 0 768 1024" xml:space="preserve">
<rect y="618.772" fill="#6E90BA" width="768" height="415.228"/>
<rect x="-19.081" y="-14" fill="#9CC4E1" width="805.874" height="621.848"/>
<path fill="#6DA1BC" d="M597.616,491.92v58.399v69.268h74.479h142.047v-3.14v-66.128v-19.19h-33.406v-64.697h-40.54v-60.549h-38.328
	v34.353H664.75v51.685H597.616z M641.958,565.873h18.513v22.213h-18.513V565.873z M641.958,536.891h18.513v22.212h-18.513V536.891z
	 M641.958,507.907h18.513v22.211h-18.513V507.907z M615.215,565.873h18.512v22.213h-18.512V565.873z M615.215,536.891h18.512v22.212
	h-18.512V536.891z M615.215,507.907h18.512v22.211h-18.512V507.907z"/>
<path fill="#6DA1BC" d="M382.122,491.92v58.399v69.268H456.6h142.047v-3.14v-66.128v-19.19h-33.405v-64.697h-40.543v-60.549h-38.327
	v34.353h-37.117v51.685H382.122z M426.463,565.873h18.512v22.213h-18.512V565.873z M426.463,536.891h18.512v22.212h-18.512V536.891z
	 M426.463,507.907h18.512v22.211h-18.512V507.907z M399.718,565.873h18.516v22.213h-18.516V565.873z M399.718,536.891h18.516v22.212
	h-18.516V536.891z M399.718,507.907h18.516v22.211h-18.516V507.907z"/>
<path fill="#6DA1BC" d="M-18.984,408.451h-67.133v58.399v152.737h74.478h142.047v-86.609V466.85v-19.19H97v-64.7H56.462v-60.548
	H18.135v34.353h-37.119V408.451z M-50.007,446.647H-68.52v-22.213h18.513V446.647z M-50.007,475.632H-68.52v-22.213h18.513V475.632z
	 M-50.007,504.613H-68.52v-22.211h18.513V504.613z M-23.264,446.647h-18.514v-22.213h18.514V446.647z M-23.264,475.632h-18.514
	v-22.213h18.514V475.632z M-23.264,504.613h-18.514v-22.211h18.514V504.613z"/>
<path fill="#6DA1BC" d="M129.377,425.998v42.924v67.346h54.745h98.021v14.052v69.268h74.478h26.712V440.236h-34.055v51.686h-60.744
	v-23v-14.104h-24.556v-47.556H234.18v-44.504h-28.175v25.249h-27.282v37.992H129.377z M246.487,429.68h-7.737v-13.63h7.737V429.68z
	 M326.482,565.873h18.512v22.213h-18.512V565.873z M326.482,536.893h18.512v22.21h-18.512V536.893z M326.482,507.905h18.512v22.213
	h-18.512V507.905z M299.739,565.873h18.514v22.213h-18.514V565.873z M299.739,536.893h18.514v22.21h-18.514V536.893z
	 M299.739,507.905h18.514v22.213h-18.514V507.905z M274.613,481.314h7.736v10.607h-0.205v3.022h-7.531V481.314L274.613,481.314z
	 M274.613,461.951h7.736v13.63h-7.736V461.951z M263.185,481.314h7.737v13.631h-7.737V481.314z M263.185,461.951h7.737v13.63h-7.737
	V461.951z M250.175,435.412h7.739v13.63h-7.739V435.412z M250.175,416.05h7.739v13.63h-7.739V416.05z M246.487,449.042h-7.737
	v-13.63h7.737V449.042z M232.597,503.957h7.736v13.63h-7.736V503.957z M232.597,484.596h7.736v13.627h-7.736V484.596z
	 M221.173,503.957h7.737v13.63h-7.737V503.957z M221.173,484.596h7.737v13.627h-7.737V484.596z M208.162,458.057h7.736v13.629
	h-7.736V458.057z M208.162,438.691h7.736v13.629h-7.736V438.691z M196.735,458.057h7.735v13.629h-7.735V458.057z M196.735,438.691
	h7.735v13.629h-7.735V438.691z M161.97,480.357h13.611v16.326H161.97V480.357z M161.97,459.052h13.611v16.327H161.97V459.052z
	 M161.97,437.75h13.611v16.322H161.97V437.75z M142.313,480.357h13.61v16.326h-13.61V480.357z M142.313,459.052h13.61v16.327h-13.61
	V459.052z M142.313,437.75h13.61v16.322h-13.61V437.75z"/>
<rect x="129.377" y="530.582" fill="#6DA1BC" width="157.526" height="89.005"/>
<polygon fill="#008279" points="630.683,759.771 630.675,762.551 584.981,789.105 584.989,786.324 "/>
<polygon fill="#005B54" points="584.989,786.324 584.981,789.104 502.151,741.284 502.159,738.502 "/>
<polygon fill="#2BA7AA" points="630.683,759.771 584.989,786.324 502.159,738.502 547.853,711.948 "/>
<polygon fill="#008279" points="628.374,708.753 630.778,707.355 630.63,760.199 628.224,761.597 "/>
<polygon fill="#009287" points="545.544,660.932 547.95,659.533 630.78,707.355 628.374,708.753 "/>
<polygon fill="#005B54" points="628.374,708.753 628.224,761.597 545.394,713.774 545.544,660.932 "/>
<path fill="#B7F9FE" d="M623.337,710.368c0.691,0.398,1.252,1.37,1.25,2.165l-0.123,43.214c-0.002,0.795-0.566,1.116-1.258,0.718
	l-74.48-42.974c-0.693-0.4-1.252-1.371-1.25-2.166l0.121-43.215c0.004-0.794,0.566-1.115,1.26-0.717L623.337,710.368z"/>
<polygon fill="#FFFFFF" points="549.548,721.576 549.546,722.133 544.702,724.947 544.704,724.392 "/>
<polygon fill="#FFFFFF" points="544.704,724.392 544.702,724.947 539.823,722.131 539.823,721.574 "/>
<polygon fill="#FFFFFF" points="549.548,721.576 544.704,724.392 539.823,721.574 544.667,718.76 "/>
<polygon fill="#FFFFFF" points="543.579,725.046 543.577,725.602 538.729,728.42 538.731,727.862 "/>
<polygon fill="#FFFFFF" points="538.731,727.863 538.729,728.419 533.851,725.602 533.851,725.046 "/>
<polygon fill="#FFFFFF" points="543.579,725.046 538.731,727.862 533.851,725.046 538.698,722.229 "/>
<polygon fill="#FFFFFF" points="537.604,728.517 537.603,729.073 532.761,731.888 532.761,731.332 "/>
<polygon fill="#FFFFFF" points="532.761,731.332 532.759,731.888 527.88,729.071 527.882,728.515 "/>
<polygon fill="#FFFFFF" points="537.604,728.517 532.761,731.332 527.882,728.515 532.726,725.7 "/>
<polygon fill="#FFFFFF" points="531.632,731.988 531.63,732.544 526.786,735.359 526.788,734.804 "/>
<polygon fill="#FFFFFF" points="526.788,734.804 526.786,735.359 521.907,732.542 521.907,731.986 "/>
<polygon fill="#FFFFFF" points="531.632,731.988 526.788,734.804 521.907,731.986 526.751,729.171 "/>
<polygon fill="#FFFFFF" points="555.747,725.156 555.745,725.712 550.903,728.527 550.903,727.971 "/>
<polygon fill="#FFFFFF" points="550.903,727.971 550.901,728.527 546.022,725.71 546.024,725.154 "/>
<polygon fill="#FFFFFF" points="555.747,725.156 550.903,727.971 546.024,725.153 550.868,722.339 "/>
<polygon fill="#FFFFFF" points="549.778,728.625 549.776,729.181 544.929,731.999 544.931,731.442 "/>
<polygon fill="#FFFFFF" points="544.931,731.442 544.929,731.998 540.05,729.182 540.05,728.625 "/>
<polygon fill="#FFFFFF" points="549.778,728.625 544.931,731.442 540.05,728.625 544.899,725.808 "/>
<polygon fill="#FFFFFF" points="543.806,732.097 543.804,732.652 538.96,735.468 538.962,734.911 "/>
<polygon fill="#FFFFFF" points="538.962,734.911 538.96,735.468 534.081,732.65 534.081,732.095 "/>
<polygon fill="#FFFFFF" points="543.806,732.097 538.962,734.911 534.081,732.095 538.925,729.279 "/>
<polygon fill="#FFFFFF" points="537.831,735.567 537.829,736.124 532.987,738.938 532.987,738.383 "/>
<polygon fill="#FFFFFF" points="532.987,738.383 532.985,738.938 528.106,736.122 528.108,735.565 "/>
<polygon fill="#FFFFFF" points="537.831,735.567 532.987,738.383 528.108,735.565 532.952,732.751 "/>
<polygon fill="#FFFFFF" points="561.948,728.735 561.946,729.292 557.103,732.106 557.104,731.551 "/>
<polygon fill="#FFFFFF" points="557.104,731.551 557.103,732.106 552.224,729.29 552.224,728.733 "/>
<polygon fill="#FFFFFF" points="561.948,728.735 557.104,731.551 552.226,728.733 557.067,725.919 "/>
<polygon fill="#FFFFFF" points="555.979,732.204 555.978,732.761 551.128,735.578 551.13,735.021 "/>
<polygon fill="#FFFFFF" points="551.13,735.021 551.128,735.578 546.249,732.761 546.251,732.205 "/>
<polygon fill="#FFFFFF" points="555.979,732.204 551.13,735.021 546.251,732.204 551.099,729.388 "/>
<polygon fill="#FFFFFF" points="550.005,735.676 550.003,736.232 545.159,739.047 545.161,738.491 "/>
<polygon fill="#FFFFFF" points="545.161,738.491 545.159,739.047 540.28,736.229 540.282,735.674 "/>
<polygon fill="#FFFFFF" points="550.005,735.676 545.161,738.491 540.282,735.674 545.126,732.859 "/>
<polygon fill="#FFFFFF" points="544.032,739.147 544.03,739.703 539.187,742.519 539.188,741.963 "/>
<polygon fill="#FFFFFF" points="539.188,741.962 539.187,742.519 534.308,739.701 534.308,739.146 "/>
<polygon fill="#FFFFFF" points="544.032,739.147 539.188,741.963 534.308,739.146 539.151,736.33 "/>
<polygon fill="#FFFFFF" points="568.147,732.315 568.146,732.871 563.302,735.687 563.304,735.13 "/>
<polygon fill="#FFFFFF" points="563.304,735.13 563.302,735.687 558.423,732.869 558.425,732.313 "/>
<polygon fill="#FFFFFF" points="568.147,732.315 563.304,735.13 558.425,732.313 563.269,729.498 "/>
<polygon fill="#FFFFFF" points="562.179,735.784 562.177,736.34 557.329,739.158 557.331,738.602 "/>
<polygon fill="#FFFFFF" points="557.331,738.602 557.329,739.157 552.45,736.341 552.45,735.784 "/>
<polygon fill="#FFFFFF" points="562.179,735.784 557.331,738.602 552.45,735.784 557.298,732.967 "/>
<polygon fill="#FFFFFF" points="556.204,739.256 556.202,739.812 551.36,742.627 551.36,742.07 "/>
<polygon fill="#FFFFFF" points="551.36,742.07 551.358,742.627 546.479,739.81 546.481,739.254 "/>
<polygon fill="#FFFFFF" points="556.204,739.256 551.36,742.07 546.481,739.254 551.325,736.438 "/>
<polygon fill="#FFFFFF" points="550.231,742.727 550.229,743.283 545.386,746.098 545.388,745.542 "/>
<polygon fill="#FFFFFF" points="545.388,745.542 545.386,746.098 540.507,743.281 540.507,742.725 "/>
<polygon fill="#FFFFFF" points="550.231,742.727 545.388,745.542 540.507,742.725 545.351,739.91 "/>
<polygon fill="#FFFFFF" points="574.347,735.895 574.345,736.451 569.503,739.266 569.503,738.71 "/>
<polygon fill="#FFFFFF" points="569.503,738.71 569.501,739.266 564.622,736.448 564.624,735.893 "/>
<polygon fill="#FFFFFF" points="574.347,735.895 569.503,738.71 564.624,735.893 569.468,733.078 "/>
<polygon fill="#FFFFFF" points="568.378,739.363 568.376,739.92 563.528,742.737 563.53,742.181 "/>
<polygon fill="#FFFFFF" points="563.53,742.181 563.528,742.737 558.649,739.92 558.649,739.364 "/>
<polygon fill="#FFFFFF" points="568.378,739.363 563.53,742.181 558.651,739.363 563.499,736.547 "/>
<polygon fill="#FFFFFF" points="562.405,742.835 562.403,743.391 557.56,746.206 557.562,745.65 "/>
<polygon fill="#FFFFFF" points="557.562,745.65 557.56,746.206 552.681,743.389 552.681,742.833 "/>
<polygon fill="#FFFFFF" points="562.405,742.835 557.562,745.65 552.681,742.833 557.524,740.018 "/>
<polygon fill="#FFFFFF" points="556.431,746.307 556.429,746.862 551.587,749.678 551.587,749.121 "/>
<polygon fill="#FFFFFF" points="551.587,749.121 551.585,749.678 546.706,746.86 546.708,746.305 "/>
<polygon fill="#FFFFFF" points="556.431,746.307 551.587,749.121 546.708,746.305 551.552,743.489 "/>
<polygon fill="#FFFFFF" points="580.548,739.475 580.546,740.03 575.702,742.846 575.704,742.289 "/>
<polygon fill="#FFFFFF" points="575.704,742.289 575.702,742.845 570.827,740.03 570.829,739.475 "/>
<polygon fill="#FFFFFF" points="580.548,739.475 575.704,742.289 570.829,739.475 575.673,736.659 "/>
<polygon fill="#FFFFFF" points="574.579,742.943 574.577,743.499 569.728,746.317 569.729,745.76 "/>
<polygon fill="#FFFFFF" points="569.729,745.761 569.728,746.316 564.853,743.502 564.854,742.945 "/>
<polygon fill="#FFFFFF" points="574.579,742.943 569.729,745.76 564.854,742.946 569.704,740.128 "/>
<polygon fill="#FFFFFF" points="568.604,746.415 568.603,746.971 563.761,749.785 563.761,749.229 "/>
<polygon fill="#FFFFFF" points="563.761,749.229 563.759,749.785 558.884,746.971 558.886,746.414 "/>
<polygon fill="#FFFFFF" points="568.604,746.415 563.761,749.229 558.886,746.415 563.729,743.6 "/>
<polygon fill="#FFFFFF" points="562.632,749.886 562.63,750.442 557.786,753.257 557.788,752.701 "/>
<polygon fill="#FFFFFF" points="557.788,752.701 557.786,753.257 552.911,750.442 552.913,749.886 "/>
<polygon fill="#FFFFFF" points="562.632,749.886 557.788,752.701 552.913,749.886 557.757,747.071 "/>
<polygon fill="#FFFFFF" points="586.747,743.054 586.745,743.609 581.903,746.425 581.903,745.869 "/>
<polygon fill="#FFFFFF" points="581.903,745.869 581.901,746.425 577.026,743.609 577.028,743.054 "/>
<polygon fill="#FFFFFF" points="586.747,743.054 581.903,745.869 577.028,743.054 581.872,740.238 "/>
<polygon fill="#FFFFFF" points="580.778,746.522 580.776,747.079 575.929,749.896 575.931,749.34 "/>
<polygon fill="#FFFFFF" points="575.931,749.34 575.929,749.896 571.054,747.081 571.056,746.525 "/>
<polygon fill="#FFFFFF" points="580.778,746.522 575.931,749.34 571.054,746.525 575.903,743.708 "/>
<polygon fill="#FFFFFF" points="574.806,749.994 574.804,750.55 569.96,753.365 569.96,752.81 "/>
<polygon fill="#FFFFFF" points="569.962,752.809 569.96,753.365 565.085,750.55 565.087,749.994 "/>
<polygon fill="#FFFFFF" points="574.806,749.994 569.96,752.81 565.085,749.994 569.931,747.179 "/>
<polygon fill="#FFFFFF" points="568.831,753.466 568.829,754.021 563.985,756.837 563.987,756.28 "/>
<polygon fill="#FFFFFF" points="563.987,756.28 563.985,756.837 559.11,754.021 559.112,753.466 "/>
<polygon fill="#FFFFFF" points="568.831,753.466 563.987,756.28 559.112,753.466 563.956,750.65 "/>
<polygon fill="#FFFFFF" points="592.948,746.634 592.946,747.189 588.103,750.004 588.103,749.448 "/>
<polygon fill="#FFFFFF" points="588.104,749.448 588.103,750.004 583.228,747.189 583.229,746.633 "/>
<polygon fill="#FFFFFF" points="592.948,746.634 588.103,749.448 583.228,746.634 588.073,743.818 "/>
<polygon fill="#FFFFFF" points="586.978,750.103 586.976,750.658 582.128,753.477 582.13,752.919 "/>
<polygon fill="#FFFFFF" points="582.13,752.92 582.128,753.476 577.253,750.661 577.255,750.104 "/>
<polygon fill="#FFFFFF" points="586.978,750.103 582.13,752.919 577.255,750.105 582.103,747.287 "/>
<polygon fill="#FFFFFF" points="581.005,753.573 581.003,754.13 576.159,756.944 576.161,756.389 "/>
<polygon fill="#FFFFFF" points="576.161,756.389 576.159,756.944 571.284,754.13 571.286,753.573 "/>
<polygon fill="#FFFFFF" points="581.005,753.573 576.161,756.389 571.286,753.573 576.13,750.759 "/>
<polygon fill="#FFFFFF" points="575.032,757.045 575.028,757.602 570.187,760.416 570.187,759.86 "/>
<polygon fill="#FFFFFF" points="570.187,759.86 570.185,760.416 565.31,757.601 565.312,757.045 "/>
<polygon fill="#FFFFFF" points="575.032,757.045 570.187,759.86 565.312,757.045 570.157,754.23 "/>
<polygon fill="#FFFFFF" points="599.147,750.213 599.146,750.769 594.302,753.584 594.304,753.028 "/>
<polygon fill="#FFFFFF" points="594.304,753.027 594.302,753.584 589.427,750.769 589.429,750.213 "/>
<polygon fill="#FFFFFF" points="599.147,750.213 594.304,753.028 589.429,750.213 594.272,747.397 "/>
<polygon fill="#FFFFFF" points="593.179,753.682 593.177,754.237 588.329,757.056 588.331,756.499 "/>
<polygon fill="#FFFFFF" points="588.331,756.499 588.327,757.055 583.452,754.24 583.456,753.685 "/>
<polygon fill="#FFFFFF" points="593.179,753.682 588.331,756.499 583.454,753.685 588.304,750.867 "/>
<polygon fill="#FFFFFF" points="587.204,757.153 587.202,757.709 582.36,760.524 582.36,759.969 "/>
<polygon fill="#FFFFFF" points="582.36,759.968 582.358,760.524 577.483,757.709 577.485,757.153 "/>
<polygon fill="#FFFFFF" points="587.204,757.153 582.36,759.969 577.485,757.153 582.329,754.338 "/>
<polygon fill="#FFFFFF" points="581.231,760.625 581.229,761.181 576.386,763.996 576.388,763.439 "/>
<polygon fill="#FFFFFF" points="576.388,763.439 576.386,763.995 571.511,761.181 571.513,760.625 "/>
<polygon fill="#FFFFFF" points="581.231,760.625 576.388,763.439 571.513,760.625 576.356,757.81 "/>
<polygon fill="#FFFFFF" points="605.347,753.792 605.345,754.349 600.503,757.163 600.503,756.607 "/>
<polygon fill="#FFFFFF" points="600.503,756.607 600.501,757.163 595.626,754.349 595.628,753.792 "/>
<polygon fill="#FFFFFF" points="605.347,753.792 600.503,756.607 595.628,753.792 600.472,750.978 "/>
<polygon fill="#FFFFFF" points="599.378,757.262 599.376,757.817 594.528,760.636 594.53,760.078 "/>
<polygon fill="#FFFFFF" points="594.53,760.079 594.528,760.635 589.653,757.819 589.655,757.264 "/>
<polygon fill="#FFFFFF" points="599.378,757.262 594.53,760.078 589.653,757.265 594.503,754.446 "/>
<polygon fill="#FFFFFF" points="593.405,760.732 593.403,761.289 588.56,764.104 588.56,763.548 "/>
<polygon fill="#FFFFFF" points="588.562,763.548 588.56,764.104 583.685,761.289 583.687,760.732 "/>
<polygon fill="#FFFFFF" points="593.405,760.732 588.56,763.548 583.685,760.732 588.53,757.918 "/>
<polygon fill="#FFFFFF" points="587.431,764.204 587.429,764.76 582.587,767.575 582.587,767.02 "/>
<polygon fill="#FFFFFF" points="582.587,767.02 582.585,767.575 577.71,764.76 577.712,764.204 "/>
<polygon fill="#FFFFFF" points="587.431,764.204 582.587,767.02 577.712,764.204 582.556,761.389 "/>
<polygon fill="#FFFFFF" points="611.548,757.372 611.546,757.928 606.702,760.743 606.704,760.187 "/>
<polygon fill="#FFFFFF" points="606.704,760.187 606.702,760.743 601.827,757.928 601.829,757.372 "/>
<polygon fill="#FFFFFF" points="611.548,757.372 606.704,760.187 601.829,757.372 606.673,754.557 "/>
<polygon fill="#FFFFFF" points="605.577,760.841 605.575,761.396 600.728,764.215 600.729,763.658 "/>
<polygon fill="#FFFFFF" points="600.729,763.658 600.728,764.214 595.853,761.399 595.854,760.844 "/>
<polygon fill="#FFFFFF" points="605.577,760.841 600.729,763.658 595.854,760.844 600.702,758.025 "/>
<polygon fill="#FFFFFF" points="599.604,764.312 599.603,764.868 594.759,767.684 594.761,767.127 "/>
<polygon fill="#FFFFFF" points="594.761,767.127 594.759,767.684 589.884,764.868 589.886,764.312 "/>
<polygon fill="#FFFFFF" points="599.604,764.312 594.761,767.127 589.886,764.312 594.729,761.497 "/>
<polygon fill="#FFFFFF" points="593.632,767.783 593.63,768.34 588.786,771.154 588.786,770.599 "/>
<polygon fill="#FFFFFF" points="588.788,770.599 588.786,771.154 583.911,768.34 583.913,767.783 "/>
<polygon fill="#FFFFFF" points="593.632,767.783 588.786,770.599 583.911,767.783 588.757,764.969 "/>
<polygon fill="#FFFFFF" points="617.747,760.951 617.745,761.508 612.901,764.322 612.903,763.767 "/>
<polygon fill="#FFFFFF" points="612.903,763.767 612.901,764.322 608.026,761.508 608.028,760.951 "/>
<polygon fill="#FFFFFF" points="617.747,760.951 612.903,763.767 608.028,760.951 612.872,758.137 "/>
<polygon fill="#FFFFFF" points="611.778,764.42 611.776,764.977 606.929,767.794 606.931,767.237 "/>
<polygon fill="#FFFFFF" points="606.931,767.237 606.929,767.794 602.054,764.979 602.056,764.423 "/>
<polygon fill="#FFFFFF" points="611.778,764.42 606.931,767.237 602.054,764.424 606.903,761.605 "/>
<polygon fill="#FFFFFF" points="605.804,767.892 605.802,768.448 600.96,771.263 600.96,770.707 "/>
<polygon fill="#FFFFFF" points="600.96,770.707 600.958,771.263 596.083,768.447 596.085,767.892 "/>
<polygon fill="#FFFFFF" points="605.804,767.892 600.96,770.707 596.085,767.892 600.929,765.077 "/>
<polygon fill="#FFFFFF" points="599.831,771.363 599.829,771.919 594.985,774.734 594.987,774.179 "/>
<polygon fill="#FFFFFF" points="594.987,774.178 594.985,774.734 590.11,771.919 590.112,771.363 "/>
<polygon fill="#FFFFFF" points="599.831,771.363 594.987,774.179 590.112,771.363 594.956,768.548 "/>
<g>
	<defs>
		<path id="SVGID_1_" d="M538.696,756.136c0,0.021,0.014,0.042,0.043,0.059l0.002-0.576c-0.029-0.016-0.043-0.037-0.043-0.058
			L538.696,756.136z"/>
	</defs>
	<clipPath id="SVGID_2_">
		<use xlink:href="#SVGID_1_"  overflow="visible"/>
	</clipPath>
	<path clip-path="url(#SVGID_2_)" fill="#1B1B1B" d="M538.741,755.618l-0.002,0.575c-0.029-0.016-0.043-0.037-0.043-0.058
		l0.002-0.575C538.698,755.581,538.712,755.603,538.741,755.618"/>
</g>
<g>
	<defs>
		<path id="SVGID_3_" d="M565.132,760.019l-0.002,0.575c0.025-0.016,0.039-0.036,0.039-0.059v-0.574
			C565.169,759.981,565.155,760.004,565.132,760.019"/>
	</defs>
	<clipPath id="SVGID_4_">
		<use xlink:href="#SVGID_3_"  overflow="visible"/>
	</clipPath>
	<rect x="565.167" y="759.962" clip-path="url(#SVGID_4_)" fill="#1E1E1E" width="0.002" height="0.574"/>
	<polyline clip-path="url(#SVGID_4_)" fill="#1F1F1F" points="565.169,759.962 565.167,760.537 565.167,760.546 565.169,759.971 
		565.169,759.962 	"/>
	<polyline clip-path="url(#SVGID_4_)" fill="#202020" points="565.169,759.971 565.167,760.546 565.165,760.555 565.165,759.979 
		565.169,759.971 	"/>
	<polyline clip-path="url(#SVGID_4_)" fill="#212121" points="565.165,759.979 565.163,760.555 565.159,760.563 565.161,759.987 
		565.165,759.979 	"/>
	<polyline clip-path="url(#SVGID_4_)" fill="#222222" points="565.161,759.987 565.159,760.562 565.155,760.571 565.155,759.996 
		565.161,759.987 	"/>
	<polyline clip-path="url(#SVGID_4_)" fill="#232323" points="565.157,759.996 565.155,760.571 565.146,760.58 565.147,760.005 
		565.157,759.996 	"/>
	<path clip-path="url(#SVGID_4_)" fill="#242424" d="M565.147,760.005l-0.002,0.575c-0.004,0.005-0.008,0.008-0.014,0.012v-0.574
		C565.138,760.014,565.144,760.009,565.147,760.005"/>
	<polyline clip-path="url(#SVGID_4_)" fill="#252525" points="565.132,760.017 565.13,760.592 565.13,760.593 565.132,760.018 
		565.132,760.017 	"/>
</g>
<polygon fill="#272727" points="565.13,760.018 565.128,760.593 555.874,765.972 555.876,765.396 "/>
<polygon fill="#1B1B1B" points="555.677,765.396 555.675,765.971 538.739,756.194 538.741,755.618 "/>
<g>
	<defs>
		<path id="SVGID_5_" d="M555.677,765.396l-0.002,0.576c0.053,0.029,0.143,0.033,0.199,0l0.002-0.576
			C555.819,765.43,555.728,765.427,555.677,765.396"/>
	</defs>
	<clipPath id="SVGID_6_">
		<use xlink:href="#SVGID_5_"  overflow="visible"/>
	</clipPath>
	<path clip-path="url(#SVGID_6_)" fill="#252525" d="M555.876,765.396l-0.002,0.574c-0.01,0.007-0.02,0.011-0.029,0.015l0.002-0.576
		C555.856,765.406,555.868,765.401,555.876,765.396"/>
	<path clip-path="url(#SVGID_6_)" fill="#242424" d="M555.847,765.409l-0.002,0.575c-0.01,0.003-0.018,0.005-0.027,0.007
		l0.002-0.575C555.829,765.414,555.837,765.412,555.847,765.409"/>
	<path clip-path="url(#SVGID_6_)" fill="#232323" d="M555.819,765.416l-0.002,0.575c-0.006,0.001-0.012,0.002-0.018,0.003
		l0.002-0.575C555.808,765.418,555.813,765.417,555.819,765.416"/>
	<path clip-path="url(#SVGID_6_)" fill="#222222" d="M555.802,765.418l-0.002,0.575c-0.006,0.001-0.01,0.001-0.016,0.001
		l0.002-0.574C555.79,765.42,555.796,765.42,555.802,765.418"/>
	<path clip-path="url(#SVGID_6_)" fill="#212121" d="M555.786,765.42l-0.002,0.574c-0.006,0.001-0.01,0.001-0.016,0l0.002-0.574
		C555.776,765.42,555.78,765.42,555.786,765.42"/>
	<path clip-path="url(#SVGID_6_)" fill="#202020" d="M555.771,765.42l-0.002,0.574c-0.004,0-0.01,0-0.014,0l0.002-0.575
		C555.761,765.42,555.765,765.42,555.771,765.42"/>
	<path clip-path="url(#SVGID_6_)" fill="#1F1F1F" d="M555.757,765.419l-0.002,0.575c-0.004,0-0.01-0.001-0.014-0.001l0.002-0.576
		C555.747,765.418,555.751,765.419,555.757,765.419"/>
	<path clip-path="url(#SVGID_6_)" fill="#1E1E1E" d="M555.741,765.417l-0.002,0.575c-0.004,0-0.008-0.001-0.014-0.002l0.002-0.576
		C555.731,765.415,555.737,765.416,555.741,765.417"/>
	<path clip-path="url(#SVGID_6_)" fill="#1D1D1D" d="M555.728,765.415l-0.002,0.574c-0.006-0.001-0.01-0.002-0.016-0.003
		l0.002-0.575C555.718,765.413,555.724,765.414,555.728,765.415"/>
	<path clip-path="url(#SVGID_6_)" fill="#1C1C1C" d="M555.712,765.411l-0.002,0.575c-0.004-0.001-0.01-0.003-0.016-0.005
		l0.002-0.576C555.7,765.407,555.706,765.409,555.712,765.411"/>
	<path clip-path="url(#SVGID_6_)" fill="#1B1B1B" d="M555.696,765.405l-0.002,0.575c-0.008-0.002-0.014-0.005-0.02-0.009
		l0.002-0.575C555.683,765.399,555.688,765.402,555.696,765.405"/>
</g>
<path fill="#2C2C2C" d="M565.13,759.902c0.053,0.03,0.053,0.086,0.002,0.116l-9.256,5.378c-0.057,0.032-0.146,0.029-0.199,0
	l-16.936-9.778c-0.057-0.032-0.057-0.083-0.002-0.116l9.256-5.378c0.053-0.03,0.143-0.032,0.199,0L565.13,759.902z"/>
<polygon fill="#FF5643" points="147.71,775.075 162.323,766.719 162.334,764.098 132.322,749.235 117.717,754.977 117.706,757.595 
	"/>
<polygon fill="#263238" points="156.647,778.003 167.684,771.688 167.688,770.566 159.865,767.13 148.833,772.324 148.83,773.447 
	"/>
<polygon fill="#263238" points="156.652,776.879 167.688,770.567 159.869,766.008 148.834,772.324 "/>
<polygon fill="#FFFFFF" points="161.773,771.96 164.188,770.579 162.627,769.671 160.212,771.048 "/>
<polygon fill="#FFFFFF" points="156.705,774.856 159.123,773.48 157.558,772.568 155.14,773.951 "/>
<g opacity="0.5">
	<g>
		<defs>
			<rect id="SVGID_7_" x="148.834" y="769.167" width="13.334" height="7.713"/>
		</defs>
		<clipPath id="SVGID_8_">
			<use xlink:href="#SVGID_7_"  overflow="visible"/>
		</clipPath>
		<polygon clip-path="url(#SVGID_8_)" fill="#FFFFFF" points="154.353,769.168 148.833,772.323 156.652,776.88 162.167,773.723 		
			"/>
	</g>
</g>
<polygon fill="#FF5643" points="147.721,772.454 162.333,764.098 132.333,746.617 117.716,754.977 "/>
<polygon fill="#FF6A5F" points="155.031,768.275 147.721,772.454 117.717,754.977 125.022,750.795 "/>
<path fill="#217F7F" d="M622.376,648.972c-2.582,1.49-2.584,3.914,0,5.405l41.35,23.877c2.586,1.49,6.783,1.489,9.365,0
	l17.461-10.08c2.58-1.492,2.578-3.912-0.006-5.407l-41.352-23.871c-2.586-1.494-6.779-1.497-9.361-0.003L622.376,648.972z"/>
<polygon fill="#217F7F" points="668.737,679.106 692.485,665.373 692.485,660.598 668.737,674.331 "/>
<polygon fill="#217F7F" points="667.942,679.371 620.442,651.901 620.442,646.898 667.942,674.368 "/>
<path fill="#2C88A8" d="M622.376,644.196c-2.582,1.487-2.584,3.914,0,5.405l41.35,23.876c2.586,1.491,6.783,1.49,9.365,0
	l17.461-10.08c2.58-1.493,2.578-3.911-0.006-5.407l-41.352-23.871c-2.586-1.492-6.779-1.495-9.361-0.004L622.376,644.196z"/>
<polygon fill="#2A383D" points="683.765,675.077 688.591,672.289 688.591,670.926 684.522,668.576 679.694,671.364 679.694,672.763 
	"/>
<polygon fill="#263238" points="683.765,673.712 688.591,670.925 684.522,668.576 679.694,671.364 "/>
<polygon fill="#334349" points="683.765,673.712 686.249,672.277 682.181,669.942 679.694,671.377 "/>
<path fill="#135263" d="M691.571,676.591c-0.777,0-1.557-0.175-2.164-0.524l-3.967-2.308v-0.685l0.688-0.159l3.824,2.21
	c0.873,0.504,2.35,0.507,3.225,0.006l18.215-10.437c0.32-0.185,0.504-0.407,0.504-0.612c0.002-0.205-0.182-0.428-0.502-0.613
	l-62.684-36.19c-0.873-0.503-2.35-0.503-3.223,0l-42.613,24.604c-0.322,0.186-0.506,0.41-0.506,0.616s0.184,0.431,0.506,0.616
	l15.611,9.013l-0.543,0.941l-15.613-9.014c-0.666-0.384-1.047-0.951-1.047-1.557c0-0.604,0.381-1.173,1.047-1.557l42.615-24.605
	c1.207-0.697,3.1-0.697,4.309,0l62.684,36.19c0.666,0.385,1.047,0.953,1.047,1.557c-0.002,0.604-0.385,1.17-1.053,1.553
	l-18.213,10.437C693.114,676.418,692.343,676.591,691.571,676.591"/>
<path fill="#17617C" d="M691.571,675.898c-0.779,0-1.557-0.175-2.162-0.526l-3.969-2.298l1.08-0.625l3.432,1.983
	c0.873,0.504,2.35,0.507,3.225,0.006l18.213-10.436c0.322-0.184,0.506-0.406,0.506-0.611c0.002-0.205-0.182-0.429-0.502-0.613
	l-62.684-36.192c-0.873-0.504-2.35-0.504-3.221,0l-42.615,24.604c-0.322,0.185-0.506,0.409-0.506,0.616
	c0,0.206,0.184,0.431,0.506,0.615l15.611,9.014l-0.543,0.94l-15.611-9.013c-0.666-0.385-1.049-0.952-1.049-1.557
	c0-0.605,0.383-1.173,1.049-1.558l42.613-24.604c1.207-0.698,3.1-0.697,4.309,0l62.684,36.191c0.666,0.385,1.047,0.952,1.047,1.557
	c-0.002,0.604-0.385,1.17-1.053,1.552l-18.213,10.436C693.116,675.727,692.343,675.898,691.571,675.898"/>
<polygon fill="#263238" points="615.054,663.438 619.005,661.155 614.614,658.621 610.663,659.993 610.663,660.902 "/>
<polygon fill="#263238" points="615.054,662.527 619.005,660.246 614.614,657.71 610.663,659.992 "/>
<g opacity="0.5">
	<g>
		<defs>
			<rect id="SVGID_9_" x="610.661" y="658.896" width="4.096" height="2.364"/>
		</defs>
		<clipPath id="SVGID_10_">
			<use xlink:href="#SVGID_9_"  overflow="visible"/>
		</clipPath>
		<polygon clip-path="url(#SVGID_10_)" fill="#FFFFFF" points="614.757,660.161 612.858,661.26 610.663,659.993 612.562,658.896 		
			"/>
	</g>
</g>
<polygon fill="#155668" points="619.821,669.603 628.683,664.487 628.683,662.893 618.735,658.742 609.872,662.269 609.872,663.86 
	"/>
<polygon fill="#263238" points="625.261,671.36 631.954,667.494 631.954,666.812 627.19,664.743 620.497,667.928 620.497,668.611 
	"/>
<polygon fill="#263238" points="625.261,670.677 631.954,666.812 627.19,664.062 620.497,667.928 "/>
<polygon fill="#FFFFFF" points="628.362,667.674 629.827,666.828 628.874,666.281 627.411,667.123 "/>
<polygon fill="#FFFFFF" points="625.288,669.447 626.753,668.605 625.802,668.055 624.335,668.901 "/>
<g opacity="0.5">
	<g>
		<defs>
			<rect id="SVGID_11_" x="620.497" y="665.995" width="8.109" height="4.683"/>
		</defs>
		<clipPath id="SVGID_12_">
			<use xlink:href="#SVGID_11_"  overflow="visible"/>
		</clipPath>
		<polygon clip-path="url(#SVGID_12_)" fill="#FFFFFF" points="623.845,665.995 620.497,667.928 625.261,670.678 628.606,668.744 		
			"/>
	</g>
</g>
<polygon fill="#135263" points="619.821,668.01 628.683,662.894 618.735,657.15 609.872,662.269 "/>
<polygon fill="#17617C" points="624.255,665.451 619.821,668.01 609.87,662.269 614.302,659.708 "/>
<path fill="#FFFFFF" d="M673.909,668.221l7.602-4.389c0.602-0.348,1.574-0.349,2.174,0c0.602,0.345,0.602,0.909,0,1.254l-7.602,4.39
	c-0.602,0.348-1.576,0.347-2.174,0C673.306,669.129,673.306,668.565,673.909,668.221"/>
<path fill="#2BA7AA" d="M676.136,667.562l4.238-2.444c0.301-0.172,0.781-0.173,1.084-0.001c0.301,0.174,0.301,0.453,0,0.627
	l-4.234,2.446c-0.299,0.171-0.787,0.171-1.088,0C675.835,668.015,675.837,667.736,676.136,667.562"/>
<path fill="#FFFFFF" d="M636.312,638.412l-6.436,3.714c-0.16,0.094-0.047,0.308,0.254,0.481c0.301,0.172,0.672,0.243,0.832,0.146
	l6.436-3.716c0.17-0.097,0.051-0.31-0.25-0.481C636.849,638.383,636.479,638.315,636.312,638.412"/>
<path fill="#B7F9FE" d="M624.856,648.694l39.145,22.602c0.186,0.107,0.488,0.112,0.68,0.001l21.703-12.53
	c0.186-0.104,0.18-0.28-0.008-0.388l-39.148-22.601c-0.188-0.11-0.484-0.111-0.672-0.004l-21.699,12.528
	C624.665,648.412,624.669,648.587,624.856,648.694"/>
<path fill="#217F7F" d="M101.613,671.411c-2.582,1.49-2.583,3.914,0.001,5.405l41.35,23.877c2.585,1.489,6.783,1.489,9.366,0
	l17.46-10.08c2.58-1.492,2.578-3.912-0.006-5.407l-41.353-23.871c-2.586-1.494-6.779-1.497-9.36-0.003L101.613,671.411z"/>
<polygon fill="#217F7F" points="147.974,701.546 171.723,687.812 171.723,683.037 147.974,696.771 "/>
<polygon fill="#217F7F" points="147.18,701.811 99.68,674.341 99.68,669.338 147.18,696.808 "/>
<path fill="#2C88A8" d="M101.613,666.636c-2.582,1.487-2.583,3.914,0.001,5.405l41.35,23.876c2.585,1.49,6.783,1.49,9.366,0
	l17.46-10.08c2.58-1.493,2.578-3.911-0.006-5.407l-41.353-23.871c-2.586-1.492-6.779-1.496-9.36-0.004L101.613,666.636z"/>
<path fill="#FFFFFF" d="M153.146,690.66l7.602-4.389c0.601-0.348,1.574-0.349,2.175,0c0.6,0.345,0.6,0.909,0,1.254l-7.603,4.391
	c-0.601,0.347-1.576,0.346-2.174,0C152.543,691.568,152.544,691.005,153.146,690.66"/>
<path fill="#2BA7AA" d="M155.374,690.002l4.237-2.444c0.301-0.172,0.783-0.173,1.084-0.001c0.301,0.174,0.301,0.453,0,0.627
	l-4.233,2.445c-0.3,0.172-0.788,0.172-1.088,0C155.073,690.454,155.074,690.176,155.374,690.002"/>
<path fill="#FFFFFF" d="M115.549,660.852l-6.435,3.714c-0.161,0.094-0.047,0.308,0.253,0.481c0.301,0.172,0.672,0.243,0.833,0.146
	l6.435-3.716c0.17-0.097,0.051-0.31-0.251-0.481C116.085,660.821,115.716,660.755,115.549,660.852"/>
<path fill="#B7F9FE" d="M104.093,671.134l39.146,22.602c0.185,0.107,0.488,0.112,0.68,0.001l21.703-12.53
	c0.184-0.104,0.178-0.28-0.009-0.388l-39.148-22.601c-0.187-0.11-0.485-0.111-0.671-0.005l-21.7,12.529
	C103.902,670.852,103.906,671.026,104.093,671.134"/>
<path fill="#536A7C" d="M117.287,701.2L117.287,701.2v-0.825l-1.15,0.127l-11.658-6.73c-0.054-0.031-0.142-0.031-0.197,0
	l-8.001,4.619l-0.96-0.237v0.844l0.008,0.004c0.006,0.013,0.016,0.024,0.033,0.035l2.372,1.368l0.007,0.005l2.17,1.253
	c0.055,0.031,0.162,0.056,0.238,0.055l0.878-0.011c0.077,0,0.182,0.023,0.236,0.057l0.442,0.263v0.638v0.002
	c0.002,0.021,0.017,0.042,0.044,0.058l1.041,0.602c0.055,0.03,0.161,0.055,0.238,0.053l1.887-0.049
	c0.076-0.002,0.182,0.021,0.236,0.053l4.108,2.373c0.054,0.032,0.142,0.032,0.196,0.001l7.791-4.499
	C117.272,701.241,117.287,701.221,117.287,701.2"/>
<g opacity="0.3">
	<g>
		<defs>
			<rect id="SVGID_13_" x="95.321" y="693.747" width="20.816" height="12.031"/>
		</defs>
		<clipPath id="SVGID_14_">
			<use xlink:href="#SVGID_13_"  overflow="visible"/>
		</clipPath>
		<path clip-path="url(#SVGID_14_)" fill="#FFFFFF" d="M113.452,702.623l2.685-2.12l-11.658-6.731c-0.054-0.032-0.142-0.032-0.197,0
			l-8.001,4.619l-0.96-0.237v0.843l0.008,0.005c0.006,0.013,0.016,0.024,0.033,0.034l2.372,1.37l0.007,0.004l2.17,1.252
			c0.055,0.032,0.162,0.057,0.238,0.057l0.878-0.011c0.077-0.002,0.182,0.022,0.236,0.056l0.442,0.263v0.637v0.004
			c0.002,0.021,0.017,0.042,0.044,0.057l1.041,0.601c0.055,0.032,0.161,0.056,0.238,0.054l1.887-0.05
			c0.076-0.002,0.182,0.022,0.236,0.054l4.108,2.374c0.054,0.03,0.142,0.03,0.196,0l3.997-2.309V702.623z"/>
	</g>
</g>
<g opacity="0.6">
	<g>
		<defs>
			<rect id="SVGID_15_" x="95.321" y="692.924" width="21.966" height="12.029"/>
		</defs>
		<clipPath id="SVGID_16_">
			<use xlink:href="#SVGID_15_"  overflow="visible"/>
		</clipPath>
		<path clip-path="url(#SVGID_16_)" fill="#6C8193" d="M95.362,698.211l4.549,2.626c0.055,0.032,0.161,0.056,0.238,0.056
			l0.878-0.011c0.077-0.001,0.182,0.023,0.236,0.056l0.815,0.484c0.053,0.032,0.098,0.105,0.048,0.139l-0.386,0.22
			c-0.05,0.032-0.046,0.086,0.008,0.118l1.041,0.601c0.056,0.032,0.162,0.055,0.239,0.053l1.886-0.049
			c0.077-0.002,0.183,0.022,0.237,0.053l4.108,2.374c0.053,0.032,0.142,0.032,0.196,0l7.791-4.498c0.055-0.031,0.055-0.082,0-0.113
			l-12.767-7.371c-0.054-0.032-0.142-0.032-0.197,0l-8.92,5.149C95.307,698.128,95.307,698.179,95.362,698.211"/>
	</g>
</g>
<path fill="#263238" d="M95.362,698.211l4.549,2.626c0.055,0.032,0.161,0.056,0.238,0.056l0.878-0.011
	c0.077-0.001,0.182,0.023,0.236,0.056l0.815,0.484c0.053,0.032,0.098,0.105,0.048,0.139l-0.386,0.22
	c-0.05,0.032-0.046,0.086,0.008,0.118l1.041,0.601c0.056,0.032,0.162,0.055,0.239,0.053l1.886-0.049
	c0.077-0.002,0.183,0.022,0.237,0.053l4.108,2.374c0.053,0.032,0.142,0.032,0.196,0l7.791-4.498c0.055-0.031,0.055-0.082,0-0.113
	l-12.767-7.371c-0.054-0.032-0.142-0.032-0.197,0l-8.92,5.149C95.307,698.128,95.307,698.179,95.362,698.211"/>
<path fill="#FFEB3B" d="M115.757,700.746c0.112-0.064,0.112-0.17-0.001-0.233l-3.145-1.817c-0.112-0.063-0.294-0.064-0.406,0
	l-0.676,0.392c-0.112,0.063-0.113,0.17-0.001,0.233l3.146,1.816c0.112,0.064,0.295,0.064,0.407,0L115.757,700.746z"/>
<path fill="#FFEB3B" d="M114.133,701.684c0.112-0.064,0.112-0.169-0.001-0.234l-3.145-1.816c-0.112-0.064-0.294-0.065-0.406,0
	l-0.677,0.391c-0.111,0.065-0.112,0.17,0,0.234l3.146,1.816c0.112,0.064,0.295,0.064,0.406,0L114.133,701.684z"/>
<path fill="#FFEB3B" d="M112.51,702.621c0.112-0.064,0.112-0.17,0-0.234l-3.146-1.816c-0.112-0.065-0.294-0.065-0.406,0
	l-0.676,0.391c-0.113,0.065-0.112,0.17,0,0.234l3.145,1.817c0.113,0.063,0.295,0.063,0.407,0L112.51,702.621z"/>
<path fill="#FFEB3B" d="M110.886,703.559c0.112-0.064,0.112-0.169-0.001-0.234l-3.145-1.816c-0.112-0.064-0.294-0.064-0.406,0
	l-0.676,0.391c-0.112,0.065-0.112,0.17-0.001,0.234l3.146,1.816c0.113,0.064,0.295,0.064,0.407,0L110.886,703.559z"/>
<g opacity="0.6">
	<g>
		<defs>
			<rect id="SVGID_17_" x="76.036" y="680.121" width="20.81" height="13.098"/>
		</defs>
		<clipPath id="SVGID_18_">
			<use xlink:href="#SVGID_17_"  overflow="visible"/>
		</clipPath>
		<path clip-path="url(#SVGID_18_)" fill="#6C8193" d="M96.686,686.242l-10.502-6.063c-0.132-0.077-0.346-0.077-0.478,0
			l-9.571,5.526c-0.133,0.076-0.133,0.199-0.001,0.275l12.437,7.181c0.132,0.076,0.346,0.076,0.478,0l7.697-4.444
			c0.064-0.037,0.1-0.088,0.099-0.141l-0.059-2.199C96.784,686.327,96.748,686.278,96.686,686.242"/>
	</g>
</g>
<path fill="#536A7C" d="M96.786,687.201c-0.002-0.05-0.038-0.099-0.1-0.135l-10.502-6.063c-0.132-0.076-0.346-0.076-0.478,0
	l-9.044,5.222l-0.623-0.363v0.787c-0.01,0.056,0.021,0.114,0.096,0.157l12.436,7.18c0.132,0.076,0.346,0.076,0.478,0l7.697-4.444
	c0.065-0.037,0.1-0.088,0.099-0.141L96.786,687.201z"/>
<path fill="#263238" d="M96.686,686.242l-10.502-6.063c-0.132-0.077-0.346-0.077-0.478,0l-9.571,5.526
	c-0.133,0.076-0.133,0.199-0.001,0.275l12.437,7.181c0.132,0.076,0.346,0.076,0.478,0l7.697-4.444
	c0.064-0.037,0.1-0.088,0.099-0.141l-0.059-2.199C96.784,686.327,96.748,686.278,96.686,686.242"/>
<g opacity="0.3">
	<g>
		<defs>
			<rect id="SVGID_19_" x="76.035" y="682.941" width="17.8" height="11.101"/>
		</defs>
		<clipPath id="SVGID_20_">
			<use xlink:href="#SVGID_19_"  overflow="visible"/>
		</clipPath>
		<path clip-path="url(#SVGID_20_)" fill="#FFFFFF" d="M80.92,682.941c-1.279,0.737-4.757,2.686-4.845,2.811
			c-0.057,0.081-0.037,0.109-0.037,0.109v0.787c-0.009,0.056,0.022,0.113,0.096,0.156l12.436,7.181c0.132,0.076,0.347,0.077,0.479,0
			l4.786-2.763v-0.824L80.92,682.941z"/>
	</g>
</g>
<path fill="#FFEB3B" d="M86.991,681.732c-0.162-0.094-0.425-0.094-0.587,0l-7.825,4.518c-0.161,0.093-0.161,0.245,0,0.338
	l7.825,4.519c0.162,0.094,0.425,0.093,0.587,0l7.825-4.519c0.162-0.093,0.162-0.244,0-0.338L86.991,681.732z"/>
<path fill="#FF5643" d="M93.286,686.78l-5.963,3.442c-0.386,0.224-1.012,0.223-1.398,0l-5.963-3.442
	c-0.385-0.223-0.385-0.584,0-0.808l5.963-3.442c0.386-0.223,1.013-0.223,1.398,0l5.963,3.442
	C93.67,686.195,93.67,686.558,93.286,686.78"/>
<polygon fill="#FFEB3B" points="89.487,688.65 87.974,687.776 86.621,688.558 88.134,689.432 "/>
<polygon fill="#FFEB3B" points="89.583,686.847 88.243,687.62 89.757,688.495 91.097,687.722 "/>
<path fill="#FFEB3B" d="M90.025,684.413l-4.752,2.744l1.608,0.927l2.702-1.559l1.793,1.035l1.63-0.941
	c0.231-0.134,0.232-0.352,0.001-0.485L90.025,684.413z"/>
<path fill="#FFEB3B" d="M86.415,684.427l1.817-1.049l-1.188-0.687c-0.232-0.133-0.607-0.133-0.838,0l-1.398,0.808L86.415,684.427z"
	/>
<polygon fill="#FFEB3B" points="84.318,685.637 86.135,684.588 84.528,683.66 82.711,684.709 "/>
<polygon fill="#FFEB3B" points="82.222,686.848 84.04,685.798 82.433,684.871 80.615,685.92 "/>
<path fill="#FFEB3B" d="M80.242,686.618l2.702,1.561l1.77-1.022l0.28-0.161l4.752-2.743l-1.235-0.712l-1.956,1.129l-0.14,0.081
	l-1.957,1.13l-0.139,0.08l-2.097,1.211l-1.887-1.091l-0.093,0.055C80.011,686.269,80.01,686.484,80.242,686.618"/>
<polygon fill="#FFEB3B" points="83.224,688.34 84.831,689.268 86.601,688.246 84.993,687.318 "/>
<path fill="#FFEB3B" d="M85.11,689.43l1.095,0.632c0.231,0.134,0.607,0.134,0.838,0l0.822-0.475l-1.514-0.873L85.11,689.43
	L85.11,689.43z"/>
<g opacity="0.6">
	<g>
		<defs>
			<polyline id="SVGID_21_" points="232.368,811.337 232.368,721.012 199.384,721.012 			"/>
		</defs>
		<clipPath id="SVGID_22_">
			<use xlink:href="#SVGID_21_"  overflow="visible"/>
		</clipPath>
		<g clip-path="url(#SVGID_22_)">
			<g>
				<defs>
					<polyline id="SVGID_23_" points="232.368,811.337 232.368,721.012 199.384,721.012 					"/>
				</defs>
				<clipPath id="SVGID_24_">
					<use xlink:href="#SVGID_23_"  overflow="visible"/>
				</clipPath>
				<polygon clip-path="url(#SVGID_24_)" fill="#6C8193" points="199.384,792.293 232.368,811.336 232.368,740.056 199.384,721.012 
									"/>
			</g>
		</g>
	</g>
</g>
<polygon fill="#7D00AD" points="198.542,732.397 202.736,734.819 206.039,732.912 201.843,730.49 "/>
<polygon fill="#7D00AD" points="198.542,756.346 202.736,758.768 206.039,756.861 201.843,754.438 "/>
<polygon fill="#FFEB3B" points="199.384,792.293 232.368,811.336 232.368,740.056 199.384,721.012 "/>
<path fill="#263238" d="M200.767,788.701c0,0.775,0.548,1.717,1.223,2.107l27.777,16.036c0.671,0.388,1.219,0.078,1.219-0.696
	v-62.504c0-0.77-0.548-1.719-1.219-2.106l-27.777-16.036c-0.675-0.391-1.223-0.074-1.223,0.696V788.701z"/>
<polygon fill="#FFFFFF" points="208.454,732.122 223.3,740.693 223.3,739.197 208.454,730.627 "/>
<path fill="#FFFFFF" d="M214.865,792.646c0,0.652,0.459,1.436,1.016,1.758c0.559,0.323,1.008,0.064,1.008-0.589
	c0-0.645-0.449-1.423-1.008-1.746C215.323,791.747,214.865,792.003,214.865,792.646"/>
<path fill="#FFFFFF" d="M222.898,797.283c-0.001,0.494,0.34,1.074,0.758,1.315c0.42,0.242,0.76,0.056,0.76-0.439
	c0-0.481-0.34-1.062-0.759-1.305C223.238,796.612,222.897,796.801,222.898,797.283"/>
<path fill="#FFFFFF" d="M207.336,788.3c0,0.494,0.342,1.074,0.761,1.315c0.419,0.242,0.761,0.057,0.761-0.438
	c0-0.482-0.342-1.065-0.761-1.308C207.678,787.63,207.336,787.816,207.336,788.3"/>
<polygon fill="#B7F9FE" points="202.318,781.516 229.641,797.29 229.641,747.263 202.318,731.487 "/>
<polygon fill="#FFCE00" points="232.368,811.364 237.188,808.581 237.188,737.272 232.368,740.055 "/>
<polygon fill="#FFEB3B" points="199.384,721.012 232.368,740.052 237.187,737.271 203.712,718.513 "/>
<polygon fill="#263238" points="223.233,732.563 232.225,737.755 233.539,736.996 224.414,731.882 "/>
<polygon fill="#FFEB3B" points="232.368,811.364 237.188,808.581 237.188,737.272 232.368,740.055 "/>
<polygon fill="#263238" points="233.954,759.911 235.603,758.959 235.603,743.311 233.954,744.262 "/>
<polygon fill="#124B60" points="309.849,790.323 309.855,792.434 320.418,798.572 320.413,796.462 "/>
<polygon fill="#0C3443" points="320.412,796.462 320.418,798.572 367.873,771.174 367.867,769.064 "/>
<polygon fill="#14546B" points="309.849,790.323 320.413,796.462 367.867,769.064 357.305,762.925 "/>
<polygon fill="#1D272B" points="322.164,764.951 319.671,763.502 319.743,788.778 322.235,790.227 "/>
<polygon fill="#212B30" points="357.972,744.277 355.479,742.828 319.671,763.502 322.164,764.951 "/>
<polygon fill="#141B1E" points="322.164,764.951 322.235,790.227 358.043,769.553 357.972,744.277 "/>
<polygon fill="#124B60" points="282.501,719.612 279.31,717.757 279.534,797.454 282.728,799.31 "/>
<polygon fill="#14546B" points="398.188,652.821 394.995,650.966 279.309,717.757 282.502,719.612 "/>
<polygon fill="#0C3443" points="282.501,719.612 282.728,799.31 398.413,732.518 398.188,652.82 "/>
<polygon fill="#B7F9FE" points="284.034,723.625 284.225,791.144 393.691,727.943 393.501,660.424 "/>
<polygon fill="#124B60" points="299.805,821.178 299.811,823.25 341.152,847.274 341.146,845.203 "/>
<polygon fill="#0C3443" points="341.146,845.203 341.152,847.275 447.433,785.913 447.427,783.843 "/>
<polygon fill="#14546B" points="299.805,821.178 341.146,845.203 447.427,783.843 406.085,759.817 "/>
<polyline fill="none" stroke="#FFFFFF" stroke-width="3" stroke-linecap="round" stroke-linejoin="round" stroke-miterlimit="10" stroke-dasharray="11,6" points="
	342.072,643.001 329.692,649.905 268.449,613.556 170.136,669.241 212.85,696.761 186.062,711.754 167.548,702.123 "/>
<path fill="none" stroke="#FFFFFF" stroke-width="3" stroke-linecap="round" stroke-linejoin="round" stroke-dasharray="10.78,5.88" d="
	M302.218,840.914"/>
<line fill="none" stroke="#FFFFFF" stroke-width="3" stroke-linecap="round" stroke-linejoin="round" x1="458.382" y1="564.923" x2="463.144" y2="562.173"/>
<polyline fill="none" stroke="#FFFFFF" stroke-width="3" stroke-linecap="round" stroke-linejoin="round" points="469.065,558.754 
	473.829,556.004 478.583,558.77 "/>
<line fill="none" stroke="#FFFFFF" stroke-width="3" stroke-linecap="round" stroke-linejoin="round" stroke-dasharray="10.535,5.746" x1="483.55" y1="561.66" x2="565.497" y2="609.345"/>
<polyline fill="none" stroke="#FFFFFF" stroke-width="3" stroke-linecap="round" stroke-linejoin="round" points="567.981,610.79 
	572.735,613.556 577.478,610.771 "/>
<path fill="none" stroke="#FFFFFF" stroke-width="3" stroke-linecap="round" stroke-linejoin="round" stroke-dasharray="8.36,4.56" d="
	M581.411,608.464"/>
<path fill="none" stroke="#FFFFFF" stroke-width="3" stroke-linecap="round" stroke-linejoin="round" stroke-dasharray="10.838,5.912" d="
	M373.482,529.453"/>
<path fill="none" stroke="#FFFFFF" stroke-width="3" stroke-linecap="round" stroke-linejoin="round" stroke-dasharray="10.838,5.912" d="
	M399.755,545.03"/>
<line fill="none" stroke="#FFFFFF" stroke-width="3" stroke-linecap="round" stroke-linejoin="round" x1="584.485" y1="609.947" x2="589.247" y2="612.697"/>
<line fill="none" stroke="#FFFFFF" stroke-width="3" stroke-linecap="round" stroke-linejoin="round" stroke-dasharray="9.173,5.003" x1="593.581" y1="615.199" x2="615.97" y2="628.125"/>
<line fill="none" stroke="#FFFFFF" stroke-width="3" stroke-linecap="round" stroke-linejoin="round" x1="618.136" y1="629.376" x2="622.897" y2="632.126"/>
<line fill="none" stroke="#FFFFFF" stroke-width="3" stroke-linecap="round" stroke-linejoin="round" x1="456.247" y1="619.049" x2="461.011" y2="621.799"/>
<line fill="none" stroke="#FFFFFF" stroke-width="3" stroke-linecap="round" stroke-linejoin="round" stroke-dasharray="10.716,5.845" x1="466.073" y1="624.721" x2="492.228" y2="639.821"/>
<polyline fill="none" stroke="#FFFFFF" stroke-width="3" stroke-linecap="round" stroke-linejoin="round" points="494.759,641.282 
	499.521,644.032 494.8,646.854 "/>
<line fill="none" stroke="#FFFFFF" stroke-width="3" stroke-linecap="round" stroke-linejoin="round" stroke-dasharray="9.693,5.287" x1="490.263" y1="649.565" x2="453.954" y2="671.261"/>
<polyline fill="none" stroke="#FFFFFF" stroke-width="3" stroke-linecap="round" stroke-linejoin="round" points="451.685,672.617 
	446.962,675.438 451.71,678.216 "/>
<line fill="none" stroke="#FFFFFF" stroke-width="3" stroke-linecap="round" stroke-linejoin="round" stroke-dasharray="11.385,6.21" x1="457.069" y1="681.354" x2="515.126" y2="715.337"/>
<line fill="none" stroke="#FFFFFF" stroke-width="3" stroke-linecap="round" stroke-linejoin="round" x1="517.806" y1="716.905" x2="522.554" y2="719.684"/>
<path fill="none" stroke="#FFFFFF" stroke-width="3" stroke-linecap="round" stroke-linejoin="round" stroke-dasharray="10.333,5.636" d="
	M559.026,844.646"/>
<path fill="none" stroke="#FFFFFF" stroke-width="3" stroke-linecap="round" stroke-linejoin="round" stroke-dasharray="10.333,5.636" d="
	M451.479,762.717"/>
<path fill="none" stroke="#FFFFFF" stroke-width="3" stroke-linecap="round" stroke-linejoin="round" d="M658.79,677.848"/>
<path fill="none" stroke="#FFFFFF" stroke-width="3" stroke-linecap="round" stroke-linejoin="round" stroke-dasharray="9.579,5.225" d="
	M646.161,696.037"/>
<path fill="none" stroke="#FFFFFF" stroke-width="3" stroke-linecap="round" stroke-linejoin="round" d="M671.19,704.682"/>
<path fill="none" stroke="#FFFFFF" stroke-width="3" stroke-linecap="round" stroke-linejoin="round" stroke-dasharray="10.482,5.717" d="
	M700.923,685.735"/>
<path fill="none" stroke="#FFFFFF" stroke-width="3" stroke-linecap="round" stroke-linejoin="round" stroke-dasharray="10.482,5.717" d="
	M676.011,701.609"/>
<path fill="none" stroke="#FFFFFF" stroke-width="3" stroke-linecap="round" stroke-linejoin="round" stroke-dasharray="12.172,6.639" d="
	M748.134,704.566"/>
<path fill="none" stroke="#FFFFFF" stroke-width="3" stroke-linecap="round" stroke-linejoin="round" stroke-dasharray="12.172,6.639" d="
	M718.47,687.339"/>
<line fill="none" stroke="#FFFFFF" stroke-width="3" stroke-linecap="round" stroke-linejoin="round" x1="131.396" y1="702.123" x2="126.597" y2="704.809"/>
<line fill="none" stroke="#FFFFFF" stroke-width="3" stroke-linecap="round" stroke-linejoin="round" stroke-dasharray="11.195,6.106" x1="121.268" y1="707.791" x2="93.736" y2="723.198"/>
<polyline fill="none" stroke="#FFFFFF" stroke-width="3" stroke-linecap="round" stroke-linejoin="round" points="91.072,724.689 
	86.272,727.375 91.021,730.151 "/>
<line fill="none" stroke="#FFFFFF" stroke-width="3" stroke-linecap="round" stroke-linejoin="round" stroke-dasharray="12.301,6.71" x1="96.813" y1="733.537" x2="110.33" y2="741.438"/>
<line fill="none" stroke="#FFFFFF" stroke-width="3" stroke-linecap="round" stroke-linejoin="round" x1="113.225" y1="743.131" x2="117.973" y2="745.907"/>
<polygon fill="#F9DD35" points="318.94,608.631 318.977,621.654 379.896,657.057 379.858,644.033 "/>
<polygon fill="#F2D027" points="379.858,644.032 379.896,657.057 481.94,598.142 481.903,585.117 "/>
<polygon fill="#FFFA57" points="318.94,608.631 379.858,644.033 481.903,585.117 420.985,549.715 "/>
<path fill="#F2D027" d="M334.099,611.314c-1.933,0-3.5-1.711-3.5-3.822v-50.238c0-2.11,1.567-3.821,3.5-3.821s3.5,1.711,3.5,3.821
	v50.238C337.599,609.604,336.032,611.314,334.099,611.314"/>
<path fill="#FF5643" d="M381.165,585.797c-9.223,5.324-14.965,12.701-15.06,20.838c-0.005,0.924,1.29,1.677,2.884,1.677
	c0.8,0,1.523-0.188,2.048-0.491c0.52-0.3,0.845-0.714,0.854-1.171c0.077-7.235,5.165-13.753,13.355-18.481
	c8.252-4.765,19.606-7.697,32.171-7.676c0.803,0,1.531-0.188,2.061-0.492c0.52-0.301,0.846-0.715,0.854-1.176
	c0.006-0.923-1.289-1.676-2.883-1.676C403.315,577.127,390.45,580.436,381.165,585.797"/>
<path fill="#FF5643" d="M403.806,598.953c-3.42,1.975-5.568,4.715-5.597,7.732c-0.006,0.923,1.276,1.669,2.883,1.676
	c0.798,0,1.519-0.188,2.041-0.488c0.522-0.302,0.847-0.719,0.849-1.181c0.024-2.108,1.506-3.997,3.893-5.375
	c2.398-1.384,5.688-2.236,9.354-2.229c0.803,0,1.533-0.188,2.064-0.494c0.521-0.301,0.848-0.717,0.85-1.174
	c0.004-0.924-1.291-1.676-2.885-1.676C412.024,595.737,407.249,596.965,403.806,598.953"/>
<path fill="#FF5643" d="M412.899,604.924c-0.871,0.503-1.412,1.197-1.416,1.968c-0.021,1.541,2.129,2.79,4.777,2.79
	c1.336,0.004,2.549-0.308,3.428-0.815c0.871-0.503,1.412-1.197,1.416-1.968c0.01-1.533-2.129-2.79-4.777-2.79
	C414.991,604.104,413.778,604.416,412.899,604.924"/>
<path fill="#FF5643" d="M392.491,592.379c-6.354,3.668-10.271,8.719-10.328,14.285c-0.005,0.923,1.277,1.668,2.871,1.668
	c0.806,0.004,1.533-0.182,2.057-0.484c0.521-0.301,0.844-0.716,0.846-1.176c0.051-4.672,3.334-8.875,8.623-11.93
	c5.326-3.074,12.643-4.963,20.768-4.955c0.797,0.004,1.527-0.184,2.055-0.488c0.52-0.301,0.846-0.715,0.848-1.174
	c0.018-0.93-1.277-1.683-2.871-1.683C407.675,586.428,398.849,588.693,392.491,592.379"/>
<line fill="none" stroke="#FFFFFF" stroke-width="3" stroke-linecap="round" stroke-linejoin="round" x1="268.45" y1="613.556" x2="263.628" y2="610.911"/>
<line fill="none" stroke="#FFFFFF" stroke-width="3" stroke-linecap="round" stroke-linejoin="round" stroke-dasharray="13.42,7.32" x1="257.209" y1="607.392" x2="242.233" y2="599.178"/>
<polygon fill="#FFFFFF" points="398.564,769.467 398.566,770.293 404.699,773.856 404.696,773.029 "/>
<polygon fill="#FFFFFF" points="404.696,773.029 404.699,773.856 410.873,770.291 410.871,769.465 "/>
<polygon fill="#FFFFFF" points="398.564,769.467 404.696,773.029 410.871,769.465 404.74,765.9 "/>
<polygon fill="#FFFFFF" points="390.664,774.027 390.668,774.854 396.799,778.417 396.796,777.591 "/>
<polygon fill="#FFFFFF" points="396.796,777.591 396.799,778.417 402.97,774.854 402.968,774.026 "/>
<polygon fill="#FFFFFF" points="390.664,774.027 396.796,777.591 402.968,774.027 396.837,770.464 "/>
<polygon fill="#FFFFFF" points="382.761,778.591 382.765,779.416 388.896,782.98 388.894,782.153 "/>
<polygon fill="#FFFFFF" points="388.894,782.153 388.896,782.98 395.067,779.416 395.064,778.59 "/>
<polygon fill="#FFFFFF" points="382.761,778.591 388.894,782.153 395.064,778.591 388.933,775.026 "/>
<polygon fill="#FFFFFF" points="374.862,783.15 374.864,783.978 380.995,787.541 380.994,786.715 "/>
<polygon fill="#FFFFFF" points="380.994,786.715 380.995,787.541 387.168,783.978 387.166,783.15 "/>
<polygon fill="#FFFFFF" points="374.862,783.15 380.994,786.715 387.166,783.15 381.033,779.588 "/>
<polygon fill="#FFFFFF" points="366.959,787.714 366.962,788.54 373.094,792.104 373.09,791.277 "/>
<polygon fill="#FFFFFF" points="373.09,791.276 373.094,792.104 379.266,788.54 379.263,787.714 "/>
<polygon fill="#FFFFFF" points="366.959,787.714 373.09,791.277 379.263,787.714 373.131,784.15 "/>
<polygon fill="#FFFFFF" points="359.059,792.275 359.062,793.102 365.193,796.665 365.191,795.838 "/>
<polygon fill="#FFFFFF" points="365.191,795.838 365.193,796.665 371.365,793.102 371.362,792.275 "/>
<polygon fill="#FFFFFF" points="359.059,792.275 365.191,795.838 371.362,792.275 365.231,788.712 "/>
<polygon fill="#FFFFFF" points="351.157,796.838 351.159,797.664 357.291,801.228 357.288,800.4 "/>
<polygon fill="#FFFFFF" points="357.288,800.4 357.29,801.228 363.462,797.664 363.459,796.838 "/>
<polygon fill="#FFFFFF" points="351.157,796.838 357.288,800.4 363.459,796.838 357.328,793.273 "/>
<polygon fill="#FFFFFF" points="343.253,801.4 343.256,802.228 349.388,805.79 349.385,804.964 "/>
<polygon fill="#FFFFFF" points="349.385,804.964 349.388,805.79 355.562,802.225 355.56,801.398 "/>
<polygon fill="#FFFFFF" points="343.253,801.4 349.385,804.964 355.56,801.398 349.429,797.835 "/>
<polygon fill="#FFFFFF" points="335.354,805.962 335.356,806.788 341.488,810.352 341.485,809.524 "/>
<polygon fill="#FFFFFF" points="341.485,809.524 341.487,810.352 347.659,806.788 347.657,805.961 "/>
<polygon fill="#FFFFFF" points="335.354,805.962 341.485,809.524 347.657,805.962 341.525,802.398 "/>
<polygon fill="#FFFFFF" points="327.451,810.523 327.453,811.351 333.585,814.914 333.582,814.088 "/>
<polygon fill="#FFFFFF" points="333.582,814.088 333.585,814.914 339.756,811.351 339.753,810.523 "/>
<polygon fill="#FFFFFF" points="327.451,810.523 333.582,814.088 339.754,810.523 333.622,806.961 "/>
<polygon fill="#FFFFFF" points="319.551,815.085 319.553,815.912 325.685,819.475 325.683,818.648 "/>
<polygon fill="#FFFFFF" points="325.682,818.648 325.685,819.475 331.856,815.912 331.854,815.085 "/>
<polygon fill="#FFFFFF" points="319.551,815.085 325.683,818.648 331.854,815.085 325.723,811.521 "/>
<polygon fill="#FFFFFF" points="311.647,819.647 311.65,820.475 317.782,824.037 317.779,823.211 "/>
<polygon fill="#FFFFFF" points="317.779,823.211 317.782,824.037 323.954,820.475 323.951,819.647 "/>
<polygon fill="#FFFFFF" points="311.647,819.647 317.779,823.211 323.951,819.647 317.819,816.085 "/>
<polygon fill="#FFFFFF" points="406.803,774.187 406.805,775.013 412.938,778.576 412.934,777.749 "/>
<polygon fill="#FFFFFF" points="412.934,777.749 412.936,778.576 419.107,775.013 419.106,774.187 "/>
<polygon fill="#FFFFFF" points="406.803,774.187 412.934,777.749 419.106,774.187 412.975,770.622 "/>
<polygon fill="#FFFFFF" points="398.899,778.749 398.902,779.576 405.034,783.139 405.03,782.312 "/>
<polygon fill="#FFFFFF" points="405.03,782.312 405.034,783.139 411.204,779.576 411.202,778.749 "/>
<polygon fill="#FFFFFF" points="398.899,778.749 405.03,782.312 411.202,778.749 405.071,775.186 "/>
<polygon fill="#FFFFFF" points="390.999,783.311 391.002,784.137 397.134,787.7 397.132,786.873 "/>
<polygon fill="#FFFFFF" points="397.132,786.873 397.134,787.7 403.306,784.137 403.303,783.31 "/>
<polygon fill="#FFFFFF" points="390.999,783.311 397.132,786.873 403.303,783.311 397.171,779.746 "/>
<polygon fill="#FFFFFF" points="383.097,787.872 383.099,788.699 389.23,792.263 389.229,791.437 "/>
<polygon fill="#FFFFFF" points="389.229,791.437 389.23,792.262 395.402,788.699 395.398,787.872 "/>
<polygon fill="#FFFFFF" points="383.097,787.872 389.229,791.437 395.4,787.872 389.268,784.31 "/>
<polygon fill="#FFFFFF" points="375.197,792.434 375.2,793.261 381.332,796.823 381.328,795.997 "/>
<polygon fill="#FFFFFF" points="381.328,795.997 381.332,796.823 387.502,793.261 387.5,792.434 "/>
<polygon fill="#FFFFFF" points="375.197,792.434 381.328,795.997 387.5,792.434 381.369,788.87 "/>
<polygon fill="#FFFFFF" points="367.294,796.996 367.297,797.823 373.428,801.387 373.426,800.56 "/>
<polygon fill="#FFFFFF" points="373.426,800.56 373.428,801.387 379.601,797.823 379.597,796.996 "/>
<polygon fill="#FFFFFF" points="367.294,796.996 373.426,800.56 379.597,796.996 373.466,793.434 "/>
<polygon fill="#FFFFFF" points="359.392,801.56 359.393,802.386 365.524,805.949 365.523,805.122 "/>
<polygon fill="#FFFFFF" points="365.523,805.122 365.524,805.949 371.699,802.385 371.697,801.558 "/>
<polygon fill="#FFFFFF" points="359.392,801.56 365.523,805.122 371.697,801.558 365.566,797.994 "/>
<polygon fill="#FFFFFF" points="351.491,806.12 351.494,806.947 357.626,810.51 357.623,809.684 "/>
<polygon fill="#FFFFFF" points="357.623,809.684 357.625,810.51 363.796,806.946 363.795,806.12 "/>
<polygon fill="#FFFFFF" points="351.491,806.12 357.623,809.684 363.795,806.12 357.664,802.557 "/>
<polygon fill="#FFFFFF" points="343.588,810.684 343.591,811.509 349.723,815.073 349.72,814.246 "/>
<polygon fill="#FFFFFF" points="349.719,814.246 349.723,815.073 355.894,811.509 355.891,810.683 "/>
<polygon fill="#FFFFFF" points="343.588,810.684 349.72,814.246 355.891,810.684 349.76,807.119 "/>
<polygon fill="#FFFFFF" points="335.688,815.244 335.691,816.07 341.823,819.635 341.82,818.808 "/>
<polygon fill="#FFFFFF" points="341.82,818.808 341.822,819.634 347.994,816.07 347.991,815.244 "/>
<polygon fill="#FFFFFF" points="335.688,815.244 341.82,818.808 347.991,815.244 341.86,811.681 "/>
<polygon fill="#FFFFFF" points="415.037,778.908 415.039,779.734 421.174,783.3 421.172,782.474 "/>
<polygon fill="#FFFFFF" points="421.172,782.473 421.174,783.3 427.346,779.736 427.344,778.91 "/>
<polygon fill="#FFFFFF" points="415.037,778.908 421.172,782.474 427.343,778.91 421.209,775.345 "/>
<polygon fill="#FFFFFF" points="407.137,783.469 407.141,784.296 413.273,787.86 413.271,787.034 "/>
<polygon fill="#FFFFFF" points="413.271,787.034 413.275,787.86 419.445,784.298 419.444,783.471 "/>
<polygon fill="#FFFFFF" points="407.137,783.469 413.271,787.034 419.444,783.471 413.31,779.905 "/>
<polygon fill="#FFFFFF" points="399.233,788.032 399.237,788.857 405.372,792.424 405.37,791.597 "/>
<polygon fill="#FFFFFF" points="405.368,791.597 405.372,792.424 411.544,788.859 411.54,788.033 "/>
<polygon fill="#FFFFFF" points="399.233,788.032 405.37,791.597 411.54,788.033 405.405,784.468 "/>
<polygon fill="#FFFFFF" points="391.331,792.595 391.333,793.421 397.468,796.986 397.466,796.159 "/>
<polygon fill="#FFFFFF" points="397.466,796.159 397.468,796.986 403.644,793.421 403.64,792.595 "/>
<polygon fill="#FFFFFF" points="391.331,792.595 397.466,796.159 403.64,792.595 397.507,789.029 "/>
<polygon fill="#FFFFFF" points="383.432,797.155 383.435,797.981 389.567,801.548 389.566,800.721 "/>
<polygon fill="#FFFFFF" points="389.566,800.721 389.567,801.548 395.74,797.983 395.738,797.157 "/>
<polygon fill="#FFFFFF" points="383.432,797.155 389.566,800.721 395.738,797.157 389.604,793.592 "/>
<polygon fill="#FFFFFF" points="375.529,801.718 375.531,802.545 381.666,806.11 381.663,805.283 "/>
<polygon fill="#FFFFFF" points="381.663,805.283 381.666,806.109 387.838,802.547 387.835,801.72 "/>
<polygon fill="#FFFFFF" points="375.529,801.718 381.663,805.283 387.835,801.72 381.7,798.155 "/>
<polygon fill="#FFFFFF" points="367.629,806.279 367.631,807.105 373.766,810.671 373.765,809.844 "/>
<polygon fill="#FFFFFF" points="373.764,809.844 373.766,810.671 379.938,807.107 379.935,806.281 "/>
<polygon fill="#FFFFFF" points="367.629,806.279 373.765,809.844 379.937,806.281 373.8,802.716 "/>
<polygon fill="#FFFFFF" points="359.726,810.842 359.729,811.669 365.862,815.233 365.86,814.407 "/>
<polygon fill="#FFFFFF" points="365.86,814.407 365.863,815.233 372.034,811.671 372.032,810.844 "/>
<polygon fill="#FFFFFF" points="359.726,810.842 365.86,814.407 372.031,810.844 365.898,807.278 "/>
<polygon fill="#FFFFFF" points="351.826,815.403 351.829,816.229 357.963,819.795 357.961,818.968 "/>
<polygon fill="#FFFFFF" points="357.96,818.968 357.964,819.795 364.134,816.23 364.133,815.405 "/>
<polygon fill="#FFFFFF" points="351.826,815.403 357.961,818.968 364.132,815.405 357.998,811.84 "/>
<polygon fill="#FFFFFF" points="336.02,824.528 336.023,825.354 342.139,821.824 342.137,820.997 "/>
<polygon fill="#FFFFFF" points="342.195,820.964 342.197,821.79 348.332,825.354 348.33,824.528 "/>
<polygon fill="#FFFFFF" points="348.271,824.562 348.274,825.389 356.231,820.794 356.229,819.968 "/>
<polygon fill="#FFFFFF" points="342.195,820.964 348.33,824.528 342.213,828.06 348.271,824.562 356.229,819.967 350.094,816.402 
	"/>
<polygon fill="#FFFFFF" points="342.213,828.06 342.216,828.887 348.273,825.388 348.271,824.562 "/>
<polygon fill="#FFFFFF" points="342.213,828.06 342.216,828.887 348.332,825.354 348.33,824.529 "/>
<polygon fill="#FFFFFF" points="336.02,824.528 336.023,825.354 342.157,828.921 342.155,828.094 "/>
<polygon fill="#FFFFFF" points="336.02,824.528 342.155,828.094 342.213,828.06 348.329,824.528 342.195,820.964 342.137,820.997 
	"/>
<polygon fill="#FFFFFF" points="342.155,828.094 342.157,828.921 342.216,828.887 342.213,828.06 "/>
<polygon fill="#FFFFFF" points="327.785,819.807 327.788,820.633 342.103,828.952 342.1,828.125 "/>
<polygon fill="#FFFFFF" points="327.785,819.807 342.1,828.125 348.271,824.562 342.213,828.06 342.155,828.094 336.021,824.529 
	342.136,820.997 333.957,816.243 "/>
<polygon fill="#FFFFFF" points="342.1,828.125 342.103,828.952 348.274,825.389 348.271,824.562 "/>
<polygon fill="#FFFFFF" points="319.886,824.368 319.888,825.194 326.02,828.758 326.018,827.931 "/>
<polygon fill="#FFFFFF" points="326.017,827.931 326.02,828.758 332.191,825.194 332.188,824.368 "/>
<polygon fill="#FFFFFF" points="319.886,824.368 326.018,827.931 332.189,824.368 326.057,820.805 "/>
<polygon fill="#FFFFFF" points="328.12,829.09 328.123,829.916 334.257,833.48 334.255,832.655 "/>
<polygon fill="#FFFFFF" points="334.255,832.655 334.257,833.48 340.429,829.918 340.427,829.091 "/>
<polygon fill="#FFFFFF" points="328.12,829.09 334.255,832.655 340.426,829.091 334.292,825.526 "/>
<polygon fill="#FFFFFF" points="423.278,783.63 423.28,784.456 429.413,788.02 429.41,787.193 "/>
<polygon fill="#FFFFFF" points="429.41,787.192 429.411,788.02 435.584,784.456 435.582,783.63 "/>
<polygon fill="#FFFFFF" points="423.278,783.63 429.41,787.193 435.582,783.63 429.45,780.066 "/>
<polygon fill="#FFFFFF" points="415.375,788.192 415.378,789.02 421.508,792.582 421.506,791.756 "/>
<polygon fill="#FFFFFF" points="421.506,791.756 421.51,792.582 427.68,789.02 427.679,788.192 "/>
<polygon fill="#FFFFFF" points="415.375,788.192 421.506,791.756 427.679,788.192 421.547,784.629 "/>
<polygon fill="#FFFFFF" points="407.472,792.755 407.475,793.582 413.606,797.145 413.604,796.318 "/>
<polygon fill="#FFFFFF" points="413.603,796.318 413.606,797.145 419.78,793.58 419.778,792.754 "/>
<polygon fill="#FFFFFF" points="407.472,792.755 413.604,796.318 419.778,792.754 413.646,789.19 "/>
<polygon fill="#FFFFFF" points="366.236,816.563 366.237,817.39 372.37,820.953 372.367,820.127 "/>
<polygon fill="#FFFFFF" points="366.195,823.689 366.198,824.517 372.37,820.952 372.367,820.127 "/>
<polygon fill="#FFFFFF" points="366.195,823.689 366.198,824.517 411.878,798.144 411.875,797.316 "/>
<polygon fill="#FFFFFF" points="360.063,820.127 366.195,823.689 372.367,820.127 366.236,816.562 "/>
<polygon fill="#FFFFFF" points="360.063,820.127 360.067,820.953 366.197,824.517 366.195,823.689 "/>
<polygon fill="#FFFFFF" points="366.236,816.563 372.367,820.127 366.195,823.689 411.875,797.316 405.743,793.754 "/>
<polygon fill="#FFFFFF" points="352.161,824.689 352.164,825.517 358.295,829.079 358.293,828.253 "/>
<polygon fill="#FFFFFF" points="358.292,828.253 358.295,829.079 364.469,825.514 364.467,824.688 "/>
<polygon fill="#FFFFFF" points="352.161,824.689 358.293,828.253 364.467,824.688 358.335,821.124 "/>
<polygon fill="#FFFFFF" points="344.261,829.251 344.264,830.076 350.395,833.641 350.393,832.813 "/>
<polygon fill="#FFFFFF" points="350.393,832.813 350.395,833.641 356.567,830.076 356.564,829.25 "/>
<polygon fill="#FFFFFF" points="344.261,829.251 350.393,832.813 356.564,829.251 350.433,825.687 "/>
<polygon fill="#FFFFFF" points="336.358,833.812 336.361,834.64 342.492,838.203 342.49,837.377 "/>
<polygon fill="#FFFFFF" points="342.489,837.377 342.492,838.202 348.664,834.64 348.661,833.812 "/>
<polygon fill="#FFFFFF" points="336.358,833.812 342.49,837.377 348.661,833.812 342.53,830.25 "/>
</svg>
