<?xml version="1.0" encoding="utf-8"?>
<!-- Generator: Adobe Illustrator 15.0.0, SVG Export Plug-In . SVG Version: 6.00 Build 0)  -->
<!DOCTYPE svg PUBLIC "-//W3C//DTD SVG 1.1//EN" "http://www.w3.org/Graphics/SVG/1.1/DTD/svg11.dtd">
<svg version="1.1" id="Layer_1" xmlns="http://www.w3.org/2000/svg" xmlns:xlink="http://www.w3.org/1999/xlink" x="0px" y="0px"
	 width="1024px" height="1366px" viewBox="0 0 1024 1366" enable-background="new 0 0 1024 1366" xml:space="preserve">
<rect x="-26.324" y="851.047" fill="#6E90BA" width="1077.359" height="554.345"/>
<rect x="-26.324" y="-46.946" fill="#9CC4E1" width="1077.359" height="907.998"/>
<path fill="#6DA1BC" d="M966.844,708.925v-61.606h-46.549v-40.947h-48.069v72.172h-50.84v77.118h-41.893v22.874v78.823v3.742
	h178.139h93.403v-82.565v-69.61H966.844z M995.428,823.553h-23.219v-26.477h23.219V823.553z M995.428,789.006h-23.219v-26.478
	h23.219V789.006z M995.428,754.456h-23.219V727.98h23.219V754.456z M1028.965,823.553h-23.216v-26.477h23.216V823.553z
	 M1028.965,789.006h-23.216v-26.478h23.216V789.006z M1028.965,754.456h-23.216V727.98h23.216V754.456z"/>
<path fill="#6DA1BC" d="M550.371,710.901v69.61v82.565h93.401h178.141v-3.742v-78.823v-22.874h-41.893V680.52h-50.844v-72.172
	h-48.068v40.947h-46.546v61.606H550.371z M605.977,799.053h23.218v26.477h-23.218V799.053z M605.977,764.505h23.218v26.478h-23.218
	V764.505z M605.977,729.957h23.218v26.476h-23.218V729.957z M572.438,799.053h23.22v26.477h-23.22V799.053z M572.438,764.505h23.22
	v26.478h-23.22V764.505z M572.438,729.957h23.22v26.476h-23.22V729.957z"/>
<path fill="#6DA1BC" d="M58.919,611.408h-84.192v69.608v182.062h93.403h178.14V759.842v-78.825v-22.874h-41.895v-77.121h-50.838
	V508.85h-48.067v40.949H58.919V611.408z M20.014,656.937H-3.201V630.46h23.216L20.014,656.937L20.014,656.937z M20.014,691.486
	H-3.201v-26.478h23.216L20.014,691.486L20.014,691.486z M20.014,726.03H-3.201v-26.474h23.216L20.014,726.03L20.014,726.03z
	 M53.552,656.937H30.334V630.46h23.218V656.937z M53.552,691.486H30.334v-26.478h23.218V691.486z M53.552,726.03H30.334v-26.474
	h23.218V726.03z"/>
<path fill="#6DA1BC" d="M233.406,632.324v51.164v80.272h68.655h122.927v16.751v82.565h93.402h33.499V649.295h-42.709v61.607h-76.179
	v-27.415v-16.812h-30.796V609.99h-37.367v-53.048h-35.334v30.096H295.29v45.286H233.406z M380.272,636.711h-9.704v-16.245h9.704
	V636.711z M480.595,799.053h23.217v26.477h-23.217V799.053z M480.595,764.508h23.217v26.475h-23.217V764.508z M480.595,729.955
	h23.217v26.478h-23.217V729.955z M447.055,799.053h23.22v26.477h-23.22V799.053z M447.055,764.508h23.22v26.475h-23.22V764.508z
	 M447.055,729.955h23.22v26.478h-23.22V729.955z M415.545,698.26h9.701v12.644h-0.257v3.604h-9.444V698.26L415.545,698.26z
	 M415.545,675.178h9.701v16.248h-9.701V675.178z M401.214,698.26h9.701v16.247h-9.701V698.26z M401.214,675.178h9.701v16.248h-9.701
	V675.178z M384.896,643.545h9.706v16.247h-9.706V643.545z M384.896,620.466h9.706v16.245h-9.706V620.466z M380.272,659.791h-9.704
	v-16.247h9.704V659.791z M362.853,725.249h9.701v16.248h-9.701V725.249z M362.853,702.172h9.701v16.242h-9.701V702.172z
	 M348.527,725.249h9.702v16.248h-9.702V725.249L348.527,725.249z M348.527,702.172h9.702v16.242h-9.702V702.172L348.527,702.172z
	 M332.208,670.535h9.703v16.245h-9.703V670.535z M332.208,647.454h9.703v16.244h-9.703V647.454z M317.879,670.535h9.7v16.245h-9.7
	V670.535z M317.879,647.454h9.7v16.244h-9.7V647.454z M274.28,697.12h17.069v19.459H274.28V697.12z M274.28,671.723h17.069v19.462
	H274.28V671.723z M274.28,646.331h17.069v19.458H274.28V646.331z M249.628,697.12h17.068v19.459h-17.068V697.12z M249.628,671.723
	h17.068v19.462h-17.068V671.723z M249.628,646.331h17.068v19.458h-17.068V646.331z"/>
<rect x="245.795" y="756.984" fill="#6DA1BC" width="187.768" height="106.094"/>
<polygon fill="#124B60" points="925.758,872.8 925.748,876.097 871.57,907.583 871.58,904.285 "/>
<polygon fill="#0C3443" points="871.58,904.285 871.57,907.583 773.361,850.882 773.369,847.583 "/>
<polygon fill="#14546B" points="925.758,872.8 871.58,904.285 773.369,847.584 827.548,816.098 "/>
<polygon fill="#124B60" points="923.022,812.311 925.874,810.653 925.695,873.308 922.844,874.964 "/>
<polygon fill="#14546B" points="824.812,755.608 827.663,753.951 925.873,810.653 923.022,812.312 "/>
<polygon fill="#0C3443" points="923.022,812.311 922.844,874.964 824.635,818.263 824.812,755.608 "/>
<path fill="#B7F9FE" d="M917.047,814.227c0.819,0.473,1.483,1.623,1.48,2.567l-0.145,51.233c-0.003,0.943-0.671,1.325-1.492,0.852
	l-88.307-50.949c-0.819-0.475-1.484-1.626-1.481-2.567l0.146-51.236c0.003-0.942,0.673-1.322,1.491-0.851L917.047,814.227z"/>
<polygon fill="#FFFFFF" points="829.562,827.517 829.559,828.175 823.817,831.513 823.818,830.854 "/>
<polygon fill="#FFFFFF" points="823.818,830.854 823.816,831.513 818.032,828.173 818.032,827.514 "/>
<polygon fill="#FFFFFF" points="829.562,827.517 823.818,830.854 818.032,827.514 823.775,824.176 "/>
<polygon fill="#FFFFFF" points="822.484,831.629 822.482,832.288 816.733,835.629 816.736,834.968 "/>
<polygon fill="#FFFFFF" points="816.736,834.97 816.733,835.628 810.95,832.289 810.95,831.629 "/>
<polygon fill="#FFFFFF" points="822.484,831.629 816.736,834.968 810.95,831.629 816.7,828.289 "/>
<polygon fill="#FFFFFF" points="815.402,835.744 815.399,836.403 809.657,839.742 809.659,839.082 "/>
<polygon fill="#FFFFFF" points="809.659,839.082 809.657,839.742 803.872,836.401 803.874,835.742 "/>
<polygon fill="#FFFFFF" points="815.402,835.744 809.659,839.082 803.872,835.742 809.616,832.404 "/>
<polygon fill="#FFFFFF" points="808.319,839.86 808.317,840.519 802.575,843.856 802.577,843.199 "/>
<polygon fill="#FFFFFF" points="802.577,843.199 802.575,843.856 796.79,840.517 796.791,839.857 "/>
<polygon fill="#FFFFFF" points="808.319,839.86 802.577,843.199 796.791,839.857 802.534,836.52 "/>
<polygon fill="#FFFFFF" points="836.912,831.76 836.91,832.419 831.168,835.757 831.17,835.098 "/>
<polygon fill="#FFFFFF" points="831.17,835.098 831.167,835.757 825.383,832.416 825.384,831.758 "/>
<polygon fill="#FFFFFF" points="836.912,831.76 831.17,835.098 825.383,831.758 831.127,828.419 "/>
<polygon fill="#FFFFFF" points="829.836,835.872 829.833,836.531 824.085,839.873 824.087,839.213 "/>
<polygon fill="#FFFFFF" points="824.087,839.213 824.085,839.873 818.3,836.533 818.301,835.874 "/>
<polygon fill="#FFFFFF" points="829.836,835.872 824.087,839.213 818.301,835.872 824.049,832.533 "/>
<polygon fill="#FFFFFF" points="822.753,839.988 822.751,840.648 817.008,843.985 817.009,843.324 "/>
<polygon fill="#FFFFFF" points="817.011,843.324 817.008,843.985 811.223,840.645 811.225,839.986 "/>
<polygon fill="#FFFFFF" points="822.753,839.988 817.009,843.324 811.224,839.985 816.968,836.649 "/>
<polygon fill="#FFFFFF" points="815.671,844.104 815.668,844.764 809.926,848.101 809.927,847.441 "/>
<polygon fill="#FFFFFF" points="809.928,847.441 809.926,848.101 804.141,844.761 804.143,844.101 "/>
<polygon fill="#FFFFFF" points="815.671,844.104 809.927,847.441 804.141,844.101 809.885,840.765 "/>
<polygon fill="#FFFFFF" points="844.264,836.003 844.261,836.663 838.519,840 838.52,839.341 "/>
<polygon fill="#FFFFFF" points="838.521,839.341 838.519,840 832.732,836.661 832.734,836.001 "/>
<polygon fill="#FFFFFF" points="844.264,836.003 838.52,839.341 832.734,836.001 838.478,832.664 "/>
<polygon fill="#FFFFFF" points="837.186,840.117 837.184,840.775 831.436,844.117 831.438,843.456 "/>
<polygon fill="#FFFFFF" points="831.438,843.457 831.436,844.117 825.651,840.775 825.652,840.117 "/>
<polygon fill="#FFFFFF" points="837.186,840.117 831.438,843.456 825.652,840.117 831.399,836.776 "/>
<polygon fill="#FFFFFF" points="830.104,844.233 830.101,844.892 824.359,848.229 824.36,847.57 "/>
<polygon fill="#FFFFFF" points="824.36,847.57 824.357,848.229 818.573,844.889 818.575,844.229 "/>
<polygon fill="#FFFFFF" points="830.104,844.233 824.36,847.57 818.575,844.23 824.317,840.893 "/>
<polygon fill="#FFFFFF" points="823.021,848.348 823.019,849.008 817.276,852.345 817.277,851.685 "/>
<polygon fill="#FFFFFF" points="817.277,851.685 817.275,852.345 811.491,849.006 811.491,848.346 "/>
<polygon fill="#FFFFFF" points="823.021,848.348 817.277,851.685 811.491,848.346 817.235,845.009 "/>
<polygon fill="#FFFFFF" points="851.613,840.248 851.611,840.908 845.869,844.245 845.87,843.585 "/>
<polygon fill="#FFFFFF" points="845.87,843.585 845.868,844.245 840.084,840.904 840.085,840.245 "/>
<polygon fill="#FFFFFF" points="851.613,840.248 845.87,843.585 840.085,840.245 845.827,836.908 "/>
<polygon fill="#FFFFFF" points="844.536,844.36 844.534,845.021 838.785,848.36 838.789,847.701 "/>
<polygon fill="#FFFFFF" points="838.788,847.701 838.785,848.359 833.001,845.021 833.002,844.36 "/>
<polygon fill="#FFFFFF" points="844.536,844.36 838.789,847.701 833.002,844.36 838.751,841.021 "/>
<polygon fill="#FFFFFF" points="837.454,848.477 837.452,849.136 831.71,852.474 831.711,851.814 "/>
<polygon fill="#FFFFFF" points="831.711,851.813 831.709,852.472 825.925,849.133 825.926,848.473 "/>
<polygon fill="#FFFFFF" points="837.454,848.477 831.711,851.814 825.926,848.473 831.668,845.136 "/>
<polygon fill="#FFFFFF" points="830.372,852.593 830.369,853.251 824.628,856.59 824.629,855.93 "/>
<polygon fill="#FFFFFF" points="824.629,855.93 824.627,856.59 818.842,853.249 818.843,852.59 "/>
<polygon fill="#FFFFFF" points="830.372,852.593 824.629,855.93 818.843,852.59 824.586,849.252 "/>
<polygon fill="#FFFFFF" points="858.964,844.492 858.962,845.151 853.221,848.489 853.222,847.829 "/>
<polygon fill="#FFFFFF" points="853.222,847.829 853.219,848.488 847.435,845.147 847.436,844.489 "/>
<polygon fill="#FFFFFF" points="858.964,844.492 853.222,847.829 847.436,844.49 853.179,841.152 "/>
<polygon fill="#FFFFFF" points="851.888,848.605 851.885,849.264 846.137,852.604 846.139,851.944 "/>
<polygon fill="#FFFFFF" points="846.139,851.944 846.137,852.604 840.353,849.265 840.354,848.605 "/>
<polygon fill="#FFFFFF" points="851.888,848.605 846.139,851.944 840.354,848.605 846.102,845.265 "/>
<polygon fill="#FFFFFF" points="844.805,852.72 844.803,853.38 839.06,856.717 839.062,856.058 "/>
<polygon fill="#FFFFFF" points="839.062,856.057 839.06,856.717 833.275,853.378 833.276,852.718 "/>
<polygon fill="#FFFFFF" points="844.805,852.72 839.062,856.058 833.275,852.717 839.02,849.381 "/>
<polygon fill="#FFFFFF" points="837.723,856.836 837.721,857.495 831.979,860.833 831.979,860.174 "/>
<polygon fill="#FFFFFF" points="831.979,860.174 831.978,860.833 826.193,857.492 826.194,856.834 "/>
<polygon fill="#FFFFFF" points="837.723,856.836 831.979,860.174 826.193,856.834 831.938,853.496 "/>
<polygon fill="#FFFFFF" points="866.315,848.735 866.312,849.395 860.571,852.732 860.572,852.074 "/>
<polygon fill="#FFFFFF" points="860.572,852.074 860.57,852.731 854.79,849.395 854.793,848.735 "/>
<polygon fill="#FFFFFF" points="866.315,848.735 860.572,852.074 854.793,848.735 860.535,845.397 "/>
<polygon fill="#FFFFFF" points="859.237,852.849 859.235,853.507 853.487,856.849 853.491,856.188 "/>
<polygon fill="#FFFFFF" points="853.491,856.188 853.487,856.849 847.708,853.511 847.71,852.852 "/>
<polygon fill="#FFFFFF" points="859.237,852.849 853.491,856.188 847.709,852.852 853.458,849.511 "/>
<polygon fill="#FFFFFF" points="852.157,856.965 852.154,857.623 846.411,860.962 846.412,860.302 "/>
<polygon fill="#FFFFFF" points="846.413,860.302 846.41,860.962 840.63,857.623 840.634,856.965 "/>
<polygon fill="#FFFFFF" points="852.157,856.965 846.412,860.302 840.633,856.965 846.376,853.628 "/>
<polygon fill="#FFFFFF" points="845.075,861.079 845.071,861.739 839.328,865.076 839.33,864.417 "/>
<polygon fill="#FFFFFF" points="839.331,864.417 839.328,865.076 833.549,861.739 833.551,861.079 "/>
<polygon fill="#FFFFFF" points="845.075,861.079 839.33,864.417 833.55,861.079 839.294,857.742 "/>
<polygon fill="#FFFFFF" points="873.666,852.979 873.664,853.64 867.921,856.976 867.922,856.317 "/>
<polygon fill="#FFFFFF" points="867.924,856.316 867.921,856.976 862.142,853.64 862.144,852.979 "/>
<polygon fill="#FFFFFF" points="873.666,852.979 867.922,856.317 862.143,852.979 867.887,849.643 "/>
<polygon fill="#FFFFFF" points="866.589,857.092 866.586,857.752 860.839,861.094 860.841,860.433 "/>
<polygon fill="#FFFFFF" points="860.841,860.434 860.839,861.092 855.059,857.754 855.062,857.096 "/>
<polygon fill="#FFFFFF" points="866.589,857.092 860.841,860.433 855.062,857.097 860.809,853.755 "/>
<polygon fill="#FFFFFF" points="859.506,861.208 859.504,861.867 853.762,865.205 853.764,864.546 "/>
<polygon fill="#FFFFFF" points="853.764,864.546 853.761,865.205 847.981,861.867 847.983,861.208 "/>
<polygon fill="#FFFFFF" points="859.506,861.208 853.764,864.546 847.983,861.208 853.727,857.87 "/>
<polygon fill="#FFFFFF" points="852.424,865.324 852.421,865.984 846.68,869.321 846.681,868.661 "/>
<polygon fill="#FFFFFF" points="846.681,868.661 846.679,869.321 840.898,865.983 840.901,865.324 "/>
<polygon fill="#FFFFFF" points="852.424,865.324 846.681,868.661 840.901,865.324 846.644,861.987 "/>
<polygon fill="#FFFFFF" points="881.017,857.224 881.014,857.883 875.272,861.221 875.273,860.561 "/>
<polygon fill="#FFFFFF" points="875.273,860.561 875.271,861.221 869.491,857.883 869.493,857.224 "/>
<polygon fill="#FFFFFF" points="881.017,857.224 875.273,860.561 869.493,857.224 875.236,853.886 "/>
<polygon fill="#FFFFFF" points="873.939,861.337 873.938,861.995 868.188,865.337 868.191,864.676 "/>
<polygon fill="#FFFFFF" points="868.192,864.677 868.188,865.336 862.409,861.999 862.412,861.339 "/>
<polygon fill="#FFFFFF" points="873.939,861.337 868.191,864.676 862.41,861.34 868.16,858 "/>
<polygon fill="#FFFFFF" points="866.857,865.451 866.854,866.111 861.113,869.449 861.114,868.789 "/>
<polygon fill="#FFFFFF" points="861.114,868.789 861.112,869.449 855.332,866.111 855.334,865.451 "/>
<polygon fill="#FFFFFF" points="866.857,865.451 861.114,868.789 855.334,865.451 861.077,862.114 "/>
<polygon fill="#FFFFFF" points="859.774,869.568 859.772,870.227 854.03,873.564 854.032,872.905 "/>
<polygon fill="#FFFFFF" points="854.032,872.905 854.029,873.564 848.25,870.227 848.252,869.568 "/>
<polygon fill="#FFFFFF" points="859.774,869.568 854.032,872.905 848.252,869.568 853.995,866.23 "/>
<polygon fill="#FFFFFF" points="888.366,861.468 888.366,862.126 882.623,865.464 882.624,864.806 "/>
<polygon fill="#FFFFFF" points="882.624,864.806 882.622,865.464 876.842,862.126 876.845,861.468 "/>
<polygon fill="#FFFFFF" points="888.366,861.468 882.624,864.806 876.845,861.468 882.588,858.129 "/>
<polygon fill="#FFFFFF" points="881.291,865.581 881.288,866.239 875.54,869.58 875.542,868.92 "/>
<polygon fill="#FFFFFF" points="875.542,868.92 875.54,869.58 869.76,866.242 869.762,865.583 "/>
<polygon fill="#FFFFFF" points="881.291,865.581 875.542,868.92 869.761,865.583 875.511,862.242 "/>
<polygon fill="#FFFFFF" points="874.208,869.696 874.206,870.356 868.463,873.692 868.464,873.033 "/>
<polygon fill="#FFFFFF" points="868.466,873.033 868.463,873.692 862.684,870.356 862.686,869.696 "/>
<polygon fill="#FFFFFF" points="874.208,869.696 868.464,873.033 862.685,869.696 868.429,866.359 "/>
<polygon fill="#FFFFFF" points="867.126,873.812 867.123,874.471 861.382,877.809 861.383,877.15 "/>
<polygon fill="#FFFFFF" points="861.383,877.15 861.381,877.808 855.601,874.471 855.604,873.812 "/>
<polygon fill="#FFFFFF" points="867.126,873.812 861.383,877.15 855.604,873.812 861.346,870.474 "/>
<polygon fill="#FFFFFF" points="895.719,865.711 895.716,866.371 889.974,869.708 889.976,869.049 "/>
<polygon fill="#FFFFFF" points="889.976,869.049 889.974,869.708 884.193,866.371 884.195,865.711 "/>
<polygon fill="#FFFFFF" points="895.719,865.711 889.976,869.049 884.195,865.711 889.938,862.374 "/>
<polygon fill="#FFFFFF" points="888.641,869.824 888.639,870.483 882.891,873.824 882.893,873.165 "/>
<polygon fill="#FFFFFF" points="882.893,873.165 882.891,873.824 877.111,870.485 877.113,869.828 "/>
<polygon fill="#FFFFFF" points="888.641,869.824 882.893,873.165 877.113,869.828 882.86,866.486 "/>
<polygon fill="#FFFFFF" points="881.559,873.94 881.556,874.6 875.814,877.938 875.815,877.277 "/>
<polygon fill="#FFFFFF" points="875.815,877.277 875.812,877.937 870.032,874.599 870.035,873.94 "/>
<polygon fill="#FFFFFF" points="881.559,873.94 875.815,877.277 870.035,873.94 875.778,870.603 "/>
<polygon fill="#FFFFFF" points="874.477,878.056 874.475,878.716 868.731,882.053 868.732,881.394 "/>
<polygon fill="#FFFFFF" points="868.734,881.393 868.731,882.053 862.952,878.716 862.954,878.056 "/>
<polygon fill="#FFFFFF" points="874.477,878.056 868.732,881.394 862.953,878.056 868.697,874.719 "/>
<polygon fill="#FFFFFF" points="903.068,869.955 903.066,870.615 897.325,873.952 897.325,873.292 "/>
<polygon fill="#FFFFFF" points="897.325,873.292 897.323,873.952 891.543,870.615 891.547,869.955 "/>
<polygon fill="#FFFFFF" points="903.068,869.955 897.325,873.292 891.546,869.955 897.288,866.617 "/>
<polygon fill="#FFFFFF" points="895.991,874.068 895.989,874.728 890.241,878.068 890.244,877.408 "/>
<polygon fill="#FFFFFF" points="890.244,877.408 890.241,878.067 884.462,874.73 884.464,874.071 "/>
<polygon fill="#FFFFFF" points="895.991,874.068 890.244,877.408 884.463,874.072 890.212,870.731 "/>
<polygon fill="#FFFFFF" points="888.909,878.185 888.907,878.843 883.165,882.181 883.166,881.522 "/>
<polygon fill="#FFFFFF" points="883.166,881.522 883.164,882.181 877.384,878.843 877.387,878.185 "/>
<polygon fill="#FFFFFF" points="888.909,878.185 883.166,881.522 877.387,878.185 883.129,874.846 "/>
<polygon fill="#FFFFFF" points="881.827,882.3 881.825,882.959 876.083,886.297 876.084,885.637 "/>
<polygon fill="#FFFFFF" points="876.084,885.637 876.082,886.297 870.302,882.959 870.304,882.3 "/>
<polygon fill="#FFFFFF" points="881.827,882.3 876.084,885.637 870.304,882.3 876.047,878.962 "/>
<polygon fill="#FFFFFF" points="910.419,874.199 910.417,874.858 904.676,878.196 904.677,877.537 "/>
<polygon fill="#FFFFFF" points="904.677,877.537 904.674,878.196 898.895,874.858 898.896,874.199 "/>
<polygon fill="#FFFFFF" points="910.419,874.199 904.677,877.537 898.896,874.199 904.64,870.862 "/>
<polygon fill="#FFFFFF" points="903.343,878.312 903.34,878.972 897.592,882.312 897.594,881.651 "/>
<polygon fill="#FFFFFF" points="897.594,881.651 897.592,882.312 891.812,878.975 891.814,878.315 "/>
<polygon fill="#FFFFFF" points="903.343,878.312 897.594,881.651 891.812,878.316 897.562,874.975 "/>
<polygon fill="#FFFFFF" points="896.26,882.428 896.258,883.088 890.517,886.425 890.518,885.766 "/>
<polygon fill="#FFFFFF" points="890.518,885.766 890.515,886.425 884.735,883.088 884.737,882.428 "/>
<polygon fill="#FFFFFF" points="896.26,882.428 890.518,885.766 884.737,882.428 890.48,879.091 "/>
<polygon fill="#FFFFFF" points="889.178,886.544 889.176,887.202 883.434,890.54 883.435,889.882 "/>
<polygon fill="#FFFFFF" points="883.435,889.882 883.433,890.54 877.652,887.202 877.655,886.544 "/>
<polygon fill="#FFFFFF" points="889.178,886.544 883.435,889.882 877.655,886.544 883.397,883.206 "/>
<polygon fill="#13191C" points="816.751,867.881 816.749,868.562 816.749,868.423 816.75,867.742 "/>
<polygon fill="#1D272B" points="848.04,873.096 848.038,873.776 837.066,880.153 837.067,879.471 "/>
<polygon fill="#141B1E" points="836.825,879.471 836.823,880.153 816.749,868.563 816.751,867.881 "/>
<rect x="836.825" y="879.471" fill="#1B2327" width="0.24" height="0.683"/>
<polygon fill="#212B30" points="848.032,872.959 848.04,873.095 837.067,879.471 836.825,879.471 816.751,867.881 816.75,867.742 
	827.724,861.364 827.956,861.369 "/>
<polygon fill="#008279" points="325.432,946.589 325.441,949.886 379.616,981.367 379.606,978.072 "/>
<polygon fill="#005B54" points="379.606,978.071 379.616,981.367 477.82,924.672 477.811,921.372 "/>
<polygon fill="#2BA7AA" points="325.432,946.589 379.606,978.072 477.811,921.372 423.637,889.891 "/>
<polygon fill="#008279" points="328.17,886.103 325.317,884.444 325.495,947.098 328.347,948.754 "/>
<polygon fill="#009287" points="426.374,829.403 423.522,827.747 325.317,884.444 328.169,886.103 "/>
<polygon fill="#005B54" points="328.17,886.103 328.347,948.754 426.552,892.056 426.374,829.403 "/>
<path fill="#B7F9FE" d="M334.142,888.017c-0.82,0.474-1.484,1.624-1.481,2.566l0.145,51.234c0.003,0.942,0.672,1.324,1.492,0.854
	l88.307-50.952c0.82-0.474,1.484-1.625,1.482-2.566l-0.146-51.235c-0.004-0.941-0.673-1.323-1.493-0.851L334.142,888.017z"/>
<polygon fill="#FFFFFF" points="421.627,901.306 421.63,901.965 427.372,905.303 427.37,904.644 "/>
<polygon fill="#FFFFFF" points="427.37,904.644 427.372,905.303 433.156,901.962 433.155,901.304 "/>
<polygon fill="#FFFFFF" points="421.627,901.306 427.37,904.644 433.154,901.304 427.413,897.966 "/>
<polygon fill="#FFFFFF" points="428.704,905.419 428.707,906.077 434.455,909.419 434.452,908.759 "/>
<polygon fill="#FFFFFF" points="434.452,908.759 434.455,909.419 440.239,906.078 440.237,905.42 "/>
<polygon fill="#FFFFFF" points="428.704,905.419 434.452,908.759 440.237,905.419 434.489,902.078 "/>
<polygon fill="#FFFFFF" points="435.786,909.533 435.789,910.194 441.53,913.531 441.529,912.871 "/>
<polygon fill="#FFFFFF" points="441.529,912.871 441.531,913.531 447.316,910.191 447.314,909.533 "/>
<polygon fill="#FFFFFF" points="435.786,909.533 441.529,912.871 447.314,909.531 441.572,906.195 "/>
<polygon fill="#FFFFFF" points="442.868,913.649 442.871,914.31 448.612,917.646 448.611,916.987 "/>
<polygon fill="#FFFFFF" points="448.611,916.987 448.613,917.646 454.398,914.308 454.396,913.647 "/>
<polygon fill="#FFFFFF" points="442.868,913.649 448.611,916.987 454.397,913.647 448.654,910.311 "/>
<polygon fill="#FFFFFF" points="414.275,905.55 414.278,906.209 420.021,909.546 420.019,908.888 "/>
<polygon fill="#FFFFFF" points="420.019,908.888 420.021,909.546 425.806,906.207 425.805,905.547 "/>
<polygon fill="#FFFFFF" points="414.275,905.55 420.019,908.888 425.805,905.547 420.062,902.21 "/>
<polygon fill="#FFFFFF" points="421.353,909.662 421.355,910.322 427.104,913.663 427.101,913.002 "/>
<polygon fill="#FFFFFF" points="427.101,913.003 427.104,913.662 432.889,910.322 432.887,909.663 "/>
<polygon fill="#FFFFFF" points="421.353,909.662 427.101,913.002 432.887,909.662 427.139,906.324 "/>
<polygon fill="#FFFFFF" points="428.436,913.779 428.438,914.438 434.18,917.776 434.179,917.117 "/>
<polygon fill="#FFFFFF" points="434.179,917.117 434.181,917.774 439.966,914.435 439.964,913.775 "/>
<polygon fill="#FFFFFF" points="428.436,913.779 434.179,917.117 439.965,913.776 434.221,910.438 "/>
<polygon fill="#FFFFFF" points="435.518,917.895 435.521,918.554 441.262,921.891 441.261,921.231 "/>
<polygon fill="#FFFFFF" points="441.261,921.231 441.263,921.891 447.048,918.552 447.047,917.892 "/>
<polygon fill="#FFFFFF" points="435.518,917.895 441.261,921.231 447.047,917.892 441.304,914.555 "/>
<polygon fill="#FFFFFF" points="406.926,909.794 406.928,910.453 412.67,913.791 412.669,913.131 "/>
<polygon fill="#FFFFFF" points="412.668,913.131 412.671,913.791 418.455,910.449 418.454,909.792 "/>
<polygon fill="#FFFFFF" points="406.926,909.794 412.669,913.131 418.455,909.79 412.711,906.455 "/>
<polygon fill="#FFFFFF" points="414.003,913.906 414.005,914.566 419.753,917.908 419.751,917.246 "/>
<polygon fill="#FFFFFF" points="419.751,917.247 419.753,917.905 425.538,914.566 425.536,913.906 "/>
<polygon fill="#FFFFFF" points="414.003,913.906 419.751,917.246 425.536,913.906 419.788,910.567 "/>
<polygon fill="#FFFFFF" points="421.085,918.022 421.088,918.682 426.829,922.019 426.828,921.36 "/>
<polygon fill="#FFFFFF" points="426.828,921.359 426.83,922.019 432.614,918.679 432.613,918.02 "/>
<polygon fill="#FFFFFF" points="421.085,918.022 426.828,921.36 432.612,918.021 426.871,914.683 "/>
<polygon fill="#FFFFFF" points="428.167,922.139 428.17,922.798 433.912,926.136 433.91,925.476 "/>
<polygon fill="#FFFFFF" points="433.91,925.476 433.912,926.136 439.697,922.794 439.695,922.137 "/>
<polygon fill="#FFFFFF" points="428.167,922.139 433.91,925.476 439.695,922.137 433.953,918.798 "/>
<polygon fill="#FFFFFF" points="399.575,914.038 399.577,914.696 405.318,918.033 405.317,917.375 "/>
<polygon fill="#FFFFFF" points="405.317,917.375 405.319,918.033 411.104,914.694 411.104,914.035 "/>
<polygon fill="#FFFFFF" points="399.575,914.038 405.317,917.375 411.104,914.036 405.36,910.697 "/>
<polygon fill="#FFFFFF" points="406.652,918.151 406.654,918.81 412.401,922.15 412.399,921.49 "/>
<polygon fill="#FFFFFF" points="412.399,921.49 412.401,922.15 418.187,918.81 418.186,918.151 "/>
<polygon fill="#FFFFFF" points="406.652,918.151 412.399,921.49 418.186,918.151 412.438,914.811 "/>
<polygon fill="#FFFFFF" points="413.733,922.267 413.736,922.926 419.479,926.263 419.478,925.604 "/>
<polygon fill="#FFFFFF" points="419.477,925.603 419.479,926.263 425.264,922.924 425.263,922.264 "/>
<polygon fill="#FFFFFF" points="413.733,922.267 419.478,925.604 425.263,922.264 419.52,918.927 "/>
<polygon fill="#FFFFFF" points="420.816,926.382 420.818,927.041 426.561,930.379 426.559,929.72 "/>
<polygon fill="#FFFFFF" points="426.559,929.72 426.562,930.379 432.346,927.039 432.345,926.38 "/>
<polygon fill="#FFFFFF" points="420.816,926.382 426.559,929.72 432.346,926.38 426.602,923.042 "/>
<polygon fill="#FFFFFF" points="392.224,918.283 392.226,918.94 397.969,922.277 397.968,921.62 "/>
<polygon fill="#FFFFFF" points="397.967,921.619 397.969,922.277 403.754,918.938 403.753,918.278 "/>
<polygon fill="#FFFFFF" points="392.224,918.283 397.968,921.62 403.753,918.279 398.01,914.941 "/>
<polygon fill="#FFFFFF" points="399.302,922.395 399.304,923.054 405.052,926.395 405.05,925.735 "/>
<polygon fill="#FFFFFF" points="405.05,925.735 405.052,926.395 410.836,923.055 410.835,922.396 "/>
<polygon fill="#FFFFFF" points="399.302,922.395 405.05,925.735 410.835,922.395 405.087,919.055 "/>
<polygon fill="#FFFFFF" points="406.384,926.511 406.386,927.169 412.128,930.508 412.127,929.848 "/>
<polygon fill="#FFFFFF" points="412.127,929.848 412.129,930.508 417.913,927.167 417.912,926.509 "/>
<polygon fill="#FFFFFF" points="406.384,926.511 412.127,929.848 417.911,926.509 412.169,923.171 "/>
<polygon fill="#FFFFFF" points="413.466,930.626 413.468,931.285 419.21,934.622 419.209,933.964 "/>
<polygon fill="#FFFFFF" points="419.209,933.964 419.211,934.622 424.996,931.283 424.995,930.623 "/>
<polygon fill="#FFFFFF" points="413.466,930.626 419.209,933.964 424.995,930.623 419.252,927.286 "/>
<polygon fill="#FFFFFF" points="384.874,922.525 384.876,923.186 390.616,926.522 390.616,925.863 "/>
<polygon fill="#FFFFFF" points="390.616,925.862 390.619,926.522 396.398,923.186 396.396,922.525 "/>
<polygon fill="#FFFFFF" points="384.874,922.525 390.616,925.863 396.396,922.525 390.653,919.188 "/>
<polygon fill="#FFFFFF" points="391.951,926.638 391.953,927.298 397.7,930.64 397.698,929.979 "/>
<polygon fill="#FFFFFF" points="397.698,929.979 397.7,930.639 403.48,927.3 403.478,926.642 "/>
<polygon fill="#FFFFFF" points="391.951,926.638 397.698,929.979 403.478,926.643 397.73,923.301 "/>
<polygon fill="#FFFFFF" points="399.032,930.754 399.035,931.413 404.776,934.751 404.775,934.092 "/>
<polygon fill="#FFFFFF" points="404.775,934.092 404.777,934.751 410.558,931.413 410.555,930.754 "/>
<polygon fill="#FFFFFF" points="399.032,930.754 404.775,934.092 410.556,930.754 404.812,927.416 "/>
<polygon fill="#FFFFFF" points="406.114,934.87 406.116,935.53 411.859,938.867 411.858,938.207 "/>
<polygon fill="#FFFFFF" points="411.857,938.207 411.859,938.867 417.64,935.529 417.638,934.87 "/>
<polygon fill="#FFFFFF" points="406.114,934.87 411.858,938.207 417.638,934.87 411.895,931.533 "/>
<polygon fill="#FFFFFF" points="377.522,926.771 377.524,927.429 383.267,930.767 383.266,930.106 "/>
<polygon fill="#FFFFFF" points="383.265,930.106 383.268,930.767 389.048,927.429 389.045,926.771 "/>
<polygon fill="#FFFFFF" points="377.522,926.771 383.266,930.106 389.046,926.771 383.303,923.432 "/>
<polygon fill="#FFFFFF" points="384.6,930.883 384.602,931.542 390.35,934.883 390.348,934.222 "/>
<polygon fill="#FFFFFF" points="390.348,934.223 390.35,934.882 396.13,931.545 396.128,930.885 "/>
<polygon fill="#FFFFFF" points="384.6,930.883 390.348,934.222 396.129,930.886 390.38,927.545 "/>
<polygon fill="#FFFFFF" points="391.682,934.997 391.684,935.658 397.426,938.994 397.425,938.336 "/>
<polygon fill="#FFFFFF" points="397.425,938.336 397.428,938.994 403.207,935.658 403.205,934.997 "/>
<polygon fill="#FFFFFF" points="391.682,934.997 397.425,938.336 403.205,934.997 397.462,931.661 "/>
<polygon fill="#FFFFFF" points="398.764,939.113 398.767,939.773 404.509,943.11 404.508,942.452 "/>
<polygon fill="#FFFFFF" points="404.508,942.452 404.51,943.11 410.29,939.773 410.287,939.113 "/>
<polygon fill="#FFFFFF" points="398.764,939.113 404.508,942.452 410.287,939.113 404.544,935.776 "/>
<polygon fill="#FFFFFF" points="370.172,931.014 370.175,931.672 375.916,935.011 375.915,934.352 "/>
<polygon fill="#FFFFFF" points="375.915,934.352 375.917,935.011 381.696,931.672 381.694,931.014 "/>
<polygon fill="#FFFFFF" points="370.172,931.014 375.915,934.352 381.694,931.014 375.952,927.676 "/>
<polygon fill="#FFFFFF" points="377.249,935.127 377.252,935.785 382.999,939.128 382.997,938.467 "/>
<polygon fill="#FFFFFF" points="382.997,938.467 383,939.125 388.779,935.788 388.776,935.13 "/>
<polygon fill="#FFFFFF" points="377.249,935.127 382.997,938.467 388.776,935.13 383.028,931.789 "/>
<polygon fill="#FFFFFF" points="384.331,939.242 384.333,939.901 390.076,943.239 390.075,942.58 "/>
<polygon fill="#FFFFFF" points="390.073,942.58 390.076,943.239 395.855,939.901 395.854,939.242 "/>
<polygon fill="#FFFFFF" points="384.331,939.242 390.075,942.58 395.854,939.242 390.11,935.905 "/>
<polygon fill="#FFFFFF" points="391.414,943.358 391.416,944.017 397.157,947.355 397.156,946.695 "/>
<polygon fill="#FFFFFF" points="397.156,946.695 397.159,947.355 402.938,944.017 402.936,943.358 "/>
<polygon fill="#FFFFFF" points="391.414,943.358 397.156,946.695 402.937,943.358 397.193,940.021 "/>
<polygon fill="#FFFFFF" points="362.82,935.257 362.823,935.917 368.565,939.255 368.563,938.595 "/>
<polygon fill="#FFFFFF" points="368.563,938.595 368.565,939.255 374.346,935.917 374.344,935.257 "/>
<polygon fill="#FFFFFF" points="362.82,935.257 368.563,938.595 374.345,935.257 368.601,931.92 "/>
<polygon fill="#FFFFFF" points="369.897,939.371 369.9,940.029 375.648,943.37 375.646,942.71 "/>
<polygon fill="#FFFFFF" points="375.646,942.71 375.648,943.37 381.429,940.033 381.426,939.373 "/>
<polygon fill="#FFFFFF" points="369.897,939.371 375.646,942.71 381.426,939.374 375.678,936.033 "/>
<polygon fill="#FFFFFF" points="376.98,943.485 376.982,944.146 382.725,947.482 382.723,946.824 "/>
<polygon fill="#FFFFFF" points="382.723,946.824 382.726,947.482 388.506,944.146 388.503,943.485 "/>
<polygon fill="#FFFFFF" points="376.98,943.485 382.723,946.824 388.503,943.485 382.761,940.148 "/>
<polygon fill="#FFFFFF" points="384.062,947.602 384.065,948.261 389.807,951.599 389.806,950.939 "/>
<polygon fill="#FFFFFF" points="389.806,950.939 389.808,951.599 395.588,948.261 395.586,947.602 "/>
<polygon fill="#FFFFFF" points="384.062,947.602 389.806,950.939 395.586,947.602 389.843,944.264 "/>
<polygon fill="#FFFFFF" points="355.471,939.502 355.473,940.16 361.215,943.498 361.213,942.84 "/>
<polygon fill="#FFFFFF" points="361.213,942.84 361.216,943.498 366.995,940.16 366.993,939.502 "/>
<polygon fill="#FFFFFF" points="355.471,939.502 361.213,942.84 366.993,939.502 361.25,936.165 "/>
<polygon fill="#FFFFFF" points="362.548,943.614 362.55,944.272 368.298,947.614 368.295,946.954 "/>
<polygon fill="#FFFFFF" points="368.296,946.954 368.298,947.614 374.078,944.276 374.076,943.617 "/>
<polygon fill="#FFFFFF" points="362.548,943.614 368.295,946.954 374.075,943.617 368.328,940.276 "/>
<polygon fill="#FFFFFF" points="369.63,947.73 369.632,948.39 375.374,951.728 375.373,951.067 "/>
<polygon fill="#FFFFFF" points="375.372,951.067 375.375,951.728 381.154,948.389 381.152,947.73 "/>
<polygon fill="#FFFFFF" points="369.63,947.73 375.373,951.067 381.152,947.73 375.409,944.394 "/>
<polygon fill="#FFFFFF" points="376.712,951.845 376.715,952.505 382.457,955.842 382.455,955.183 "/>
<polygon fill="#FFFFFF" points="382.455,955.183 382.457,955.842 388.236,952.505 388.234,951.845 "/>
<polygon fill="#FFFFFF" points="376.712,951.845 382.455,955.183 388.235,951.845 382.491,948.509 "/>
<polygon fill="#FFFFFF" points="348.119,943.745 348.122,944.405 353.863,947.742 353.862,947.083 "/>
<polygon fill="#FFFFFF" points="353.862,947.083 353.864,947.742 359.645,944.405 359.642,943.745 "/>
<polygon fill="#FFFFFF" points="348.119,943.745 353.862,947.083 359.643,943.745 353.898,940.408 "/>
<polygon fill="#FFFFFF" points="355.196,947.857 355.198,948.518 360.946,951.859 360.944,951.199 "/>
<polygon fill="#FFFFFF" points="360.944,951.199 360.946,951.858 366.727,948.52 366.725,947.861 "/>
<polygon fill="#FFFFFF" points="355.196,947.857 360.944,951.199 366.725,947.862 360.977,944.521 "/>
<polygon fill="#FFFFFF" points="362.278,951.975 362.281,952.633 368.022,955.971 368.021,955.312 "/>
<polygon fill="#FFFFFF" points="368.021,955.312 368.023,955.971 373.804,952.633 373.802,951.975 "/>
<polygon fill="#FFFFFF" points="362.278,951.975 368.021,955.312 373.802,951.975 368.059,948.637 "/>
<polygon fill="#FFFFFF" points="369.361,956.09 369.363,956.75 375.105,960.087 375.104,959.427 "/>
<polygon fill="#FFFFFF" points="375.104,959.427 375.106,960.087 380.887,956.75 380.885,956.09 "/>
<polygon fill="#FFFFFF" points="369.361,956.09 375.104,959.427 380.885,956.09 375.141,952.753 "/>
<polygon fill="#FFFFFF" points="340.769,947.989 340.771,948.648 346.513,951.986 346.512,951.326 "/>
<polygon fill="#FFFFFF" points="346.512,951.326 346.514,951.986 352.294,948.648 352.292,947.989 "/>
<polygon fill="#FFFFFF" points="340.769,947.989 346.512,951.326 352.292,947.989 346.549,944.652 "/>
<polygon fill="#FFFFFF" points="347.846,952.103 347.848,952.762 353.596,956.103 353.595,955.441 "/>
<polygon fill="#FFFFFF" points="353.595,955.442 353.596,956.102 359.377,952.765 359.374,952.104 "/>
<polygon fill="#FFFFFF" points="347.846,952.103 353.595,955.441 359.374,952.105 353.626,948.766 "/>
<polygon fill="#FFFFFF" points="354.929,956.218 354.931,956.877 360.673,960.214 360.672,959.557 "/>
<polygon fill="#FFFFFF" points="360.671,959.556 360.674,960.214 366.454,956.877 366.451,956.217 "/>
<polygon fill="#FFFFFF" points="354.929,956.218 360.672,959.557 366.451,956.218 360.709,952.88 "/>
<polygon fill="#FFFFFF" points="362.011,960.334 362.013,960.992 367.755,964.331 367.754,963.671 "/>
<polygon fill="#FFFFFF" points="367.753,963.671 367.756,964.331 373.535,960.992 373.532,960.334 "/>
<polygon fill="#FFFFFF" points="362.011,960.334 367.754,963.671 373.534,960.334 367.79,956.996 "/>
<g>
	<g>
		<defs>
			<path id="SVGID_1_" d="M434.439,941.667l0.002,0.682c0.033-0.021,0.05-0.044,0.05-0.069l-0.002-0.683
				C434.489,941.621,434.474,941.647,434.439,941.667"/>
		</defs>
		<clipPath id="SVGID_2_">
			<use xlink:href="#SVGID_1_"  overflow="visible"/>
		</clipPath>
		<path clip-path="url(#SVGID_2_)" fill="#1B1B1B" d="M434.439,941.667l0.002,0.682c0.033-0.02,0.05-0.044,0.05-0.069l-0.001-0.681
			C434.491,941.623,434.474,941.647,434.439,941.667"/>
	</g>
</g>
<g>
	<g>
		<defs>
			<path id="SVGID_3_" d="M403.107,947.496c0,0.024,0.017,0.05,0.046,0.068l-0.002-0.683c-0.03-0.02-0.046-0.043-0.046-0.067
				L403.107,947.496z"/>
		</defs>
		<clipPath id="SVGID_4_">
			<use xlink:href="#SVGID_3_"  overflow="visible"/>
		</clipPath>
		<rect x="403.105" y="946.815" clip-path="url(#SVGID_4_)" fill="#1E1E1E" width="0.003" height="0.683"/>
	</g>
	<g>
		<defs>
			<path id="SVGID_5_" d="M403.107,947.496c0,0.024,0.017,0.05,0.046,0.068l-0.002-0.683c-0.03-0.02-0.046-0.043-0.046-0.067
				L403.107,947.496z"/>
		</defs>
		<clipPath id="SVGID_6_">
			<use xlink:href="#SVGID_5_"  overflow="visible"/>
		</clipPath>
		<polyline clip-path="url(#SVGID_6_)" fill="#1F1F1F" points="403.105,946.815 403.107,947.497 403.109,947.508 403.106,946.827 
			403.105,946.815 		"/>
	</g>
	<g>
		<defs>
			<path id="SVGID_7_" d="M403.107,947.496c0,0.024,0.017,0.05,0.046,0.068l-0.002-0.683c-0.03-0.02-0.046-0.043-0.046-0.067
				L403.107,947.496z"/>
		</defs>
		<clipPath id="SVGID_8_">
			<use xlink:href="#SVGID_7_"  overflow="visible"/>
		</clipPath>
		<polyline clip-path="url(#SVGID_8_)" fill="#202020" points="403.106,946.827 403.109,947.508 403.111,947.52 403.109,946.838 
			403.106,946.827 		"/>
	</g>
	<g>
		<defs>
			<path id="SVGID_9_" d="M403.107,947.496c0,0.024,0.017,0.05,0.046,0.068l-0.002-0.683c-0.03-0.02-0.046-0.043-0.046-0.067
				L403.107,947.496z"/>
		</defs>
		<clipPath id="SVGID_10_">
			<use xlink:href="#SVGID_9_"  overflow="visible"/>
		</clipPath>
		<polyline clip-path="url(#SVGID_10_)" fill="#212121" points="403.109,946.837 403.112,947.519 403.116,947.528 403.114,946.846 
			403.109,946.837 		"/>
	</g>
	<g>
		<defs>
			<path id="SVGID_11_" d="M403.107,947.496c0,0.024,0.017,0.05,0.046,0.068l-0.002-0.683c-0.03-0.02-0.046-0.043-0.046-0.067
				L403.107,947.496z"/>
		</defs>
		<clipPath id="SVGID_12_">
			<use xlink:href="#SVGID_11_"  overflow="visible"/>
		</clipPath>
		<polyline clip-path="url(#SVGID_12_)" fill="#222222" points="403.114,946.847 403.116,947.528 403.123,947.539 403.121,946.857 
			403.114,946.847 		"/>
	</g>
	<g>
		<defs>
			<path id="SVGID_13_" d="M403.107,947.496c0,0.024,0.017,0.05,0.046,0.068l-0.002-0.683c-0.03-0.02-0.046-0.043-0.046-0.067
				L403.107,947.496z"/>
		</defs>
		<clipPath id="SVGID_14_">
			<use xlink:href="#SVGID_13_"  overflow="visible"/>
		</clipPath>
		<polyline clip-path="url(#SVGID_14_)" fill="#232323" points="403.121,946.857 403.124,947.538 403.133,947.55 403.131,946.867 
			403.121,946.857 		"/>
	</g>
	<g>
		<defs>
			<path id="SVGID_15_" d="M403.107,947.496c0,0.024,0.017,0.05,0.046,0.068l-0.002-0.683c-0.03-0.02-0.046-0.043-0.046-0.067
				L403.107,947.496z"/>
		</defs>
		<clipPath id="SVGID_16_">
			<use xlink:href="#SVGID_15_"  overflow="visible"/>
		</clipPath>
		<path clip-path="url(#SVGID_16_)" fill="#242424" d="M403.132,946.867l0.002,0.683c0.005,0.006,0.011,0.009,0.018,0.014
			l-0.001-0.681C403.144,946.877,403.137,946.872,403.132,946.867"/>
	</g>
	<g>
		<defs>
			<path id="SVGID_17_" d="M403.107,947.496c0,0.024,0.017,0.05,0.046,0.068l-0.002-0.683c-0.03-0.02-0.046-0.043-0.046-0.067
				L403.107,947.496z"/>
		</defs>
		<clipPath id="SVGID_18_">
			<use xlink:href="#SVGID_17_"  overflow="visible"/>
		</clipPath>
		<polyline clip-path="url(#SVGID_18_)" fill="#252525" points="403.149,946.882 403.152,947.563 403.153,947.564 403.15,946.883 
			403.149,946.882 		"/>
	</g>
</g>
<polygon fill="#272727" points="403.151,946.883 403.153,947.563 414.126,953.942 414.124,953.259 "/>
<polygon fill="#1B1B1B" points="414.36,953.259 414.363,953.94 434.441,942.349 434.439,941.665 "/>
<g>
	<g>
		<defs>
			<path id="SVGID_19_" d="M414.124,953.259l0.002,0.682c0.064,0.04,0.175,0.037,0.235,0l-0.001-0.682
				C414.299,953.295,414.19,953.297,414.124,953.259"/>
		</defs>
		<clipPath id="SVGID_20_">
			<use xlink:href="#SVGID_19_"  overflow="visible"/>
		</clipPath>
		<path clip-path="url(#SVGID_20_)" fill="#252525" d="M414.124,953.259l0.002,0.682c0.01,0.009,0.021,0.013,0.035,0.018
			l-0.002-0.684C414.147,953.271,414.135,953.265,414.124,953.259"/>
	</g>
	<g>
		<defs>
			<path id="SVGID_21_" d="M414.124,953.259l0.002,0.682c0.064,0.04,0.175,0.037,0.235,0l-0.001-0.682
				C414.299,953.295,414.19,953.297,414.124,953.259"/>
		</defs>
		<clipPath id="SVGID_22_">
			<use xlink:href="#SVGID_21_"  overflow="visible"/>
		</clipPath>
		<path clip-path="url(#SVGID_22_)" fill="#242424" d="M414.16,953.275l0.002,0.683c0.009,0.002,0.02,0.005,0.029,0.008
			l-0.002-0.683C414.18,953.281,414.17,953.278,414.16,953.275"/>
	</g>
	<g>
		<defs>
			<path id="SVGID_23_" d="M414.124,953.259l0.002,0.682c0.064,0.04,0.175,0.037,0.235,0l-0.001-0.682
				C414.299,953.295,414.19,953.297,414.124,953.259"/>
		</defs>
		<clipPath id="SVGID_24_">
			<use xlink:href="#SVGID_23_"  overflow="visible"/>
		</clipPath>
		<path clip-path="url(#SVGID_24_)" fill="#232323" d="M414.191,953.283l0.002,0.681c0.008,0.002,0.015,0.002,0.021,0.005
			l-0.003-0.684C414.205,953.285,414.198,953.283,414.191,953.283"/>
	</g>
	<g>
		<defs>
			<path id="SVGID_25_" d="M414.124,953.259l0.002,0.682c0.064,0.04,0.175,0.037,0.235,0l-0.001-0.682
				C414.299,953.295,414.19,953.297,414.124,953.259"/>
		</defs>
		<clipPath id="SVGID_26_">
			<use xlink:href="#SVGID_25_"  overflow="visible"/>
		</clipPath>
		<path clip-path="url(#SVGID_26_)" fill="#222222" d="M414.213,953.285l0.002,0.683c0.006,0.001,0.012,0.001,0.02,0.001
			l-0.003-0.683C414.226,953.286,414.219,953.286,414.213,953.285"/>
	</g>
	<g>
		<defs>
			<path id="SVGID_27_" d="M414.124,953.259l0.002,0.682c0.064,0.04,0.175,0.037,0.235,0l-0.001-0.682
				C414.299,953.295,414.19,953.297,414.124,953.259"/>
		</defs>
		<clipPath id="SVGID_28_">
			<use xlink:href="#SVGID_27_"  overflow="visible"/>
		</clipPath>
		<path clip-path="url(#SVGID_28_)" fill="#212121" d="M414.231,953.286l0.003,0.683c0.005,0.001,0.012,0.001,0.017,0l-0.001-0.683
			C414.244,953.286,414.237,953.286,414.231,953.286"/>
	</g>
	<g>
		<defs>
			<path id="SVGID_29_" d="M414.124,953.259l0.002,0.682c0.064,0.04,0.175,0.037,0.235,0l-0.001-0.682
				C414.299,953.295,414.19,953.297,414.124,953.259"/>
		</defs>
		<clipPath id="SVGID_30_">
			<use xlink:href="#SVGID_29_"  overflow="visible"/>
		</clipPath>
		<path clip-path="url(#SVGID_30_)" fill="#202020" d="M414.249,953.286l0.002,0.683c0.005,0,0.01,0,0.016,0l-0.002-0.684
			C414.261,953.286,414.255,953.286,414.249,953.286"/>
	</g>
	<g>
		<defs>
			<path id="SVGID_31_" d="M414.124,953.259l0.002,0.682c0.064,0.04,0.175,0.037,0.235,0l-0.001-0.682
				C414.299,953.295,414.19,953.297,414.124,953.259"/>
		</defs>
		<clipPath id="SVGID_32_">
			<use xlink:href="#SVGID_31_"  overflow="visible"/>
		</clipPath>
		<path clip-path="url(#SVGID_32_)" fill="#1F1F1F" d="M414.266,953.285l0.002,0.683c0.005,0,0.011-0.002,0.018-0.002l-0.003-0.683
			C414.276,953.285,414.271,953.285,414.266,953.285"/>
	</g>
	<g>
		<defs>
			<path id="SVGID_33_" d="M414.124,953.259l0.002,0.682c0.064,0.04,0.175,0.037,0.235,0l-0.001-0.682
				C414.299,953.295,414.19,953.297,414.124,953.259"/>
		</defs>
		<clipPath id="SVGID_34_">
			<use xlink:href="#SVGID_33_"  overflow="visible"/>
		</clipPath>
		<path clip-path="url(#SVGID_34_)" fill="#1E1E1E" d="M414.282,953.283l0.003,0.683c0.006,0,0.011-0.002,0.017-0.002l-0.002-0.684
			C414.295,953.281,414.289,953.283,414.282,953.283"/>
	</g>
	<g>
		<defs>
			<path id="SVGID_35_" d="M414.124,953.259l0.002,0.682c0.064,0.04,0.175,0.037,0.235,0l-0.001-0.682
				C414.299,953.295,414.19,953.297,414.124,953.259"/>
		</defs>
		<clipPath id="SVGID_36_">
			<use xlink:href="#SVGID_35_"  overflow="visible"/>
		</clipPath>
		<path clip-path="url(#SVGID_36_)" fill="#1D1D1D" d="M414.301,953.281l0.002,0.683c0.005-0.001,0.011-0.003,0.018-0.004
			l-0.003-0.684C414.312,953.278,414.306,953.279,414.301,953.281"/>
	</g>
	<g>
		<defs>
			<path id="SVGID_37_" d="M414.124,953.259l0.002,0.682c0.064,0.04,0.175,0.037,0.235,0l-0.001-0.682
				C414.299,953.295,414.19,953.297,414.124,953.259"/>
		</defs>
		<clipPath id="SVGID_38_">
			<use xlink:href="#SVGID_37_"  overflow="visible"/>
		</clipPath>
		<path clip-path="url(#SVGID_38_)" fill="#1C1C1C" d="M414.318,953.276l0.002,0.683c0.008-0.001,0.014-0.003,0.021-0.006
			l-0.002-0.684C414.332,953.271,414.325,953.274,414.318,953.276"/>
	</g>
	<g>
		<defs>
			<path id="SVGID_39_" d="M414.124,953.259l0.002,0.682c0.064,0.04,0.175,0.037,0.235,0l-0.001-0.682
				C414.299,953.295,414.19,953.297,414.124,953.259"/>
		</defs>
		<clipPath id="SVGID_40_">
			<use xlink:href="#SVGID_39_"  overflow="visible"/>
		</clipPath>
		<path clip-path="url(#SVGID_40_)" fill="#1B1B1B" d="M414.338,953.27l0.002,0.684c0.008-0.002,0.016-0.008,0.021-0.013
			l-0.002-0.681C414.354,953.263,414.347,953.267,414.338,953.27"/>
	</g>
</g>
<path fill="#2C2C2C" d="M403.152,946.746c-0.062,0.033-0.062,0.102-0.001,0.137l10.974,6.376c0.066,0.039,0.174,0.036,0.236,0
	l20.079-11.594c0.068-0.037,0.068-0.098,0.001-0.136l-10.973-6.378c-0.062-0.034-0.169-0.038-0.237,0L403.152,946.746z"/>
<path fill="#1B7289" d="M378.603,780.629c-3.06-1.771-8.031-1.769-11.097,0.002l-49.029,28.303
	c-3.062,1.773-3.065,4.644-0.008,6.412l20.701,11.95c3.062,1.765,8.04,1.767,11.104-0.001l49.025-28.31
	c3.062-1.769,3.062-4.642,0.001-6.407L378.603,780.629z"/>
<polygon fill="#1B7289" points="344.335,828.308 316.178,812.023 316.178,806.362 344.335,822.645 "/>
<polygon fill="#1B7289" points="345.276,828.621 401.593,796.051 401.593,790.121 345.276,822.689 "/>
<path fill="#2C88A8" d="M378.603,774.965c-3.06-1.771-8.031-1.766-11.097,0.005l-49.029,28.303
	c-3.062,1.772-3.065,4.641-0.008,6.408l20.701,11.951c3.062,1.768,8.04,1.769,11.104,0l49.025-28.308
	c3.062-1.769,3.062-4.645,0.001-6.408L378.603,774.965z"/>
<path fill="#FFFFFF" d="M338.203,815.4l-9.014-5.203c-0.713-0.412-1.866-0.414-2.579,0c-0.711,0.409-0.711,1.077,0,1.487
	l9.015,5.204c0.712,0.411,1.868,0.41,2.578,0C338.918,816.478,338.916,815.809,338.203,815.4"/>
<path fill="#2BA7AA" d="M335.562,814.62l-5.023-2.898c-0.356-0.204-0.929-0.205-1.285-0.002c-0.356,0.208-0.356,0.537,0,0.745
	l5.019,2.898c0.355,0.202,0.935,0.202,1.29,0C335.918,815.156,335.917,814.824,335.562,814.62"/>
<path fill="#FFFFFF" d="M382.777,780.06l7.629,4.403c0.191,0.108,0.057,0.364-0.3,0.57c-0.355,0.203-0.797,0.286-0.987,0.174
	l-7.63-4.405c-0.201-0.115-0.06-0.367,0.298-0.572C382.143,780.023,382.58,779.943,382.777,780.06"/>
<path fill="#B7F9FE" d="M396.36,792.249l-46.412,26.797c-0.22,0.127-0.578,0.133-0.807,0.002l-25.73-14.855
	c-0.219-0.124-0.211-0.334,0.011-0.46l46.415-26.797c0.222-0.13,0.575-0.132,0.795-0.005l25.728,14.855
	C396.587,791.915,396.582,792.121,396.36,792.249"/>
<polygon fill="#2A383D" points="327.861,823.528 322.139,820.224 322.139,818.605 326.963,815.821 332.687,819.127 332.687,820.785 
	"/>
<polygon fill="#263238" points="327.861,821.91 322.139,818.605 326.963,815.821 332.687,819.127 "/>
<polygon fill="#334349" points="327.861,821.91 324.914,820.208 329.739,817.438 332.687,819.142 "/>
<path fill="#0F414F" d="M318.604,825.324c0.922,0,1.847-0.207,2.564-0.623l4.703-2.734l0.001-0.812l-0.814-0.188l-4.535,2.62
	c-1.035,0.597-2.787,0.601-3.823,0.007l-21.596-12.374c-0.381-0.219-0.599-0.482-0.599-0.726c-0.001-0.243,0.217-0.51,0.597-0.729
	l74.319-42.908c1.035-0.597,2.784-0.597,3.818,0l50.525,29.172c0.381,0.22,0.599,0.486,0.599,0.73s-0.218,0.511-0.599,0.729
	l-18.51,10.688l0.644,1.116l18.511-10.688c0.788-0.455,1.241-1.128,1.241-1.846s-0.453-1.393-1.241-1.846l-50.525-29.174
	c-1.431-0.825-3.674-0.825-5.108,0l-74.318,42.907c-0.791,0.457-1.242,1.13-1.241,1.848c0.001,0.717,0.457,1.387,1.247,1.841
	l21.594,12.374C316.774,825.117,317.689,825.324,318.604,825.324"/>
<path fill="#14546B" d="M318.604,824.501c0.924,0,1.847-0.206,2.564-0.623l4.705-2.725l-1.282-0.74l-4.068,2.352
	c-1.035,0.598-2.786,0.6-3.824,0.007l-21.593-12.372c-0.38-0.218-0.6-0.481-0.6-0.726c-0.001-0.243,0.217-0.508,0.596-0.728
	l74.319-42.909c1.035-0.599,2.783-0.599,3.817,0l50.525,29.171c0.38,0.219,0.599,0.483,0.599,0.729c0,0.246-0.218,0.513-0.599,0.73
	l-18.51,10.686l0.645,1.116l18.509-10.686c0.79-0.457,1.243-1.13,1.243-1.848c0-0.717-0.453-1.391-1.243-1.846l-50.524-29.17
	c-1.431-0.828-3.673-0.827-5.106,0l-74.319,42.908c-0.79,0.457-1.242,1.13-1.241,1.847c0.001,0.715,0.456,1.387,1.247,1.84
	l21.595,12.372C316.773,824.298,317.689,824.501,318.604,824.501"/>
<polygon fill="#263238" points="409.326,809.729 404.642,807.021 409.846,804.017 414.531,805.645 414.531,806.722 "/>
<polygon fill="#263238" points="409.326,808.648 404.642,805.944 409.846,802.938 414.531,805.644 "/>
<g opacity="0.5">
	<g>
		<g>
			<defs>
				<rect id="SVGID_41_" x="409.679" y="804.344" width="4.853" height="2.802"/>
			</defs>
			<clipPath id="SVGID_42_">
				<use xlink:href="#SVGID_41_"  overflow="visible"/>
			</clipPath>
			<polygon clip-path="url(#SVGID_42_)" fill="#FFFFFF" points="409.678,805.844 411.928,807.146 414.531,805.645 412.279,804.344 
							"/>
		</g>
	</g>
</g>
<polygon fill="#14546B" points="403.673,817.038 393.167,810.974 393.167,809.083 404.961,804.161 415.469,808.343 415.469,810.229 
	"/>
<polygon fill="#263238" points="397.223,819.122 389.288,814.537 389.288,813.731 394.936,811.276 402.871,815.053 402.871,815.861 
	"/>
<polygon fill="#263238" points="397.223,818.312 389.288,813.729 394.936,810.469 402.871,815.053 "/>
<polygon fill="#FFFFFF" points="393.548,814.751 391.811,813.749 392.938,813.101 394.675,814.099 "/>
<polygon fill="#FFFFFF" points="397.191,816.854 395.453,815.854 396.583,815.202 398.32,816.207 "/>
<g opacity="0.5">
	<g>
		<g>
			<defs>
				<rect id="SVGID_43_" x="393.258" y="812.761" width="9.614" height="5.551"/>
			</defs>
			<clipPath id="SVGID_44_">
				<use xlink:href="#SVGID_43_"  overflow="visible"/>
			</clipPath>
			<polygon clip-path="url(#SVGID_44_)" fill="#FFFFFF" points="398.903,812.761 402.871,815.051 397.223,818.312 393.258,816.021 
							"/>
		</g>
	</g>
</g>
<polygon fill="#14546B" points="403.673,815.148 393.167,809.084 404.961,802.274 415.469,808.343 "/>
<g opacity="0.5">
	<g>
		<g>
			<defs>
				<rect id="SVGID_45_" x="398.417" y="805.307" width="17.052" height="9.843"/>
			</defs>
			<clipPath id="SVGID_46_">
				<use xlink:href="#SVGID_45_"  overflow="visible"/>
			</clipPath>
			<polygon clip-path="url(#SVGID_46_)" fill="#FFFFFF" points="398.417,812.117 403.673,815.148 415.471,808.343 410.217,805.307 
							"/>
		</g>
	</g>
</g>
<path fill="#536A7C" d="M471.762,886.331L471.762,886.331v-0.979l1.363,0.15l13.82-7.98c0.064-0.036,0.168-0.036,0.234,0
	l9.486,5.478l1.138-0.279v0.999l-0.01,0.005c-0.007,0.015-0.02,0.028-0.039,0.041l-2.812,1.622l-0.008,0.006l-2.573,1.485
	c-0.064,0.037-0.191,0.065-0.282,0.064l-1.041-0.013c-0.092,0-0.217,0.028-0.279,0.068l-0.524,0.31v0.757v0.002
	c-0.002,0.024-0.02,0.051-0.052,0.068l-1.233,0.713c-0.065,0.037-0.19,0.065-0.282,0.062l-2.238-0.059
	c-0.089-0.002-0.215,0.025-0.279,0.062l-4.871,2.812c-0.063,0.038-0.168,0.038-0.231,0.001l-9.237-5.334
	C471.777,886.379,471.762,886.354,471.762,886.331"/>
<g opacity="0.3">
	<g>
		<g>
			<defs>
				<rect id="SVGID_47_" x="473.124" y="877.495" width="24.68" height="14.264"/>
			</defs>
			<clipPath id="SVGID_48_">
				<use xlink:href="#SVGID_47_"  overflow="visible"/>
			</clipPath>
			<path clip-path="url(#SVGID_48_)" fill="#FFFFFF" d="M476.308,888.018l-3.183-2.515l13.821-7.98c0.064-0.036,0.168-0.036,0.233,0
				l9.486,5.478l1.138-0.279v0.998l-0.009,0.004c-0.008,0.018-0.02,0.03-0.04,0.042l-2.812,1.626l-0.008,0.004l-2.573,1.484
				c-0.064,0.037-0.191,0.065-0.282,0.065l-1.041-0.013c-0.092-0.003-0.217,0.026-0.279,0.065l-0.524,0.312v0.755v0.005
				c-0.002,0.024-0.021,0.05-0.052,0.067l-1.234,0.713c-0.064,0.037-0.19,0.065-0.281,0.062l-2.237-0.059
				c-0.09-0.002-0.216,0.025-0.28,0.062l-4.871,2.813c-0.062,0.038-0.168,0.038-0.231,0l-4.739-2.734V888.018L476.308,888.018z"/>
		</g>
	</g>
</g>
<g opacity="0.6">
	<g>
		<g>
			<defs>
				<rect id="SVGID_49_" x="471.761" y="876.518" width="26.043" height="14.264"/>
			</defs>
			<clipPath id="SVGID_50_">
				<use xlink:href="#SVGID_49_"  overflow="visible"/>
			</clipPath>
			<path clip-path="url(#SVGID_50_)" fill="#6C8193" d="M497.756,882.651l-10.576-6.104c-0.065-0.037-0.169-0.037-0.234,0
				l-15.137,8.739c-0.064,0.036-0.064,0.097,0,0.134l9.237,5.333c0.063,0.038,0.169,0.038,0.231,0l4.871-2.813
				c0.063-0.037,0.189-0.064,0.281-0.062l2.236,0.06c0.091,0.002,0.217-0.024,0.282-0.062l1.234-0.714
				c0.064-0.037,0.069-0.101,0.011-0.142l-0.459-0.26c-0.059-0.039-0.006-0.126,0.058-0.163l0.967-0.575
				c0.062-0.037,0.188-0.066,0.279-0.065l1.041,0.013c0.092,0.002,0.217-0.027,0.281-0.064l5.395-3.114
				C497.82,882.749,497.82,882.689,497.756,882.651"/>
		</g>
	</g>
</g>
<path fill="#263238" d="M497.756,882.651l-10.576-6.104c-0.065-0.037-0.169-0.037-0.234,0l-15.137,8.739
	c-0.064,0.036-0.064,0.097,0,0.134l9.237,5.333c0.063,0.038,0.169,0.038,0.231,0l4.871-2.813c0.063-0.037,0.189-0.064,0.281-0.062
	l2.236,0.06c0.091,0.002,0.217-0.024,0.282-0.062l1.234-0.714c0.064-0.037,0.069-0.101,0.011-0.142l-0.459-0.26
	c-0.059-0.039-0.006-0.126,0.058-0.163l0.967-0.575c0.062-0.037,0.188-0.066,0.279-0.065l1.041,0.013
	c0.092,0.002,0.217-0.027,0.281-0.064l5.395-3.114C497.82,882.749,497.82,882.689,497.756,882.651"/>
<path fill="#FFEB3B" d="M473.575,885.792c-0.134-0.076-0.134-0.201,0.001-0.276l3.729-2.155c0.134-0.075,0.349-0.075,0.481,0
	l0.802,0.466c0.133,0.074,0.134,0.2,0.001,0.275l-3.73,2.155c-0.133,0.075-0.35,0.075-0.481,0L473.575,885.792z"/>
<path fill="#FFEB3B" d="M475.5,886.903c-0.132-0.075-0.132-0.198,0.001-0.275l3.729-2.154c0.134-0.077,0.35-0.077,0.481,0
	l0.803,0.463c0.131,0.077,0.132,0.201,0,0.277l-3.729,2.155c-0.134,0.074-0.351,0.074-0.481,0L475.5,886.903z"/>
<path fill="#FFEB3B" d="M477.425,888.016c-0.133-0.077-0.133-0.202,0-0.278l3.729-2.152c0.134-0.077,0.35-0.077,0.481,0l0.802,0.463
	c0.133,0.077,0.132,0.201,0,0.278l-3.729,2.152c-0.134,0.076-0.351,0.076-0.483,0L477.425,888.016z"/>
<path fill="#FFEB3B" d="M479.35,889.127c-0.133-0.077-0.133-0.2,0.001-0.278l3.729-2.153c0.132-0.075,0.348-0.075,0.48,0
	l0.802,0.463c0.133,0.078,0.133,0.202,0.001,0.278l-3.729,2.153c-0.134,0.076-0.35,0.076-0.483,0L479.35,889.127z"/>
<g opacity="0.6">
	<g>
		<g>
			<defs>
				<rect id="SVGID_51_" x="489.721" y="885.892" width="24.672" height="15.529"/>
			</defs>
			<clipPath id="SVGID_52_">
				<use xlink:href="#SVGID_51_"  overflow="visible"/>
			</clipPath>
			<path clip-path="url(#SVGID_52_)" fill="#6C8193" d="M489.79,893.309l-0.07,2.607c-0.001,0.062,0.041,0.123,0.118,0.167
				l9.126,5.27c0.156,0.09,0.41,0.09,0.566,0l14.743-8.514c0.158-0.091,0.158-0.236,0-0.326l-11.347-6.552
				c-0.156-0.093-0.411-0.093-0.567,0l-12.45,7.188C489.835,893.192,489.793,893.25,489.79,893.309"/>
		</g>
	</g>
</g>
<path fill="#536A7C" d="M489.79,894.286c0.002-0.059,0.045-0.117,0.119-0.16l12.45-7.188c0.156-0.092,0.411-0.092,0.567,0
	l10.723,6.189l0.739-0.432v0.935c0.012,0.067-0.025,0.136-0.115,0.187l-14.743,8.515c-0.156,0.089-0.41,0.089-0.566,0l-9.126-5.271
	c-0.077-0.043-0.119-0.104-0.118-0.167L489.79,894.286z"/>
<path fill="#263238" d="M489.79,893.309l-0.07,2.607c-0.001,0.062,0.041,0.123,0.118,0.167l9.126,5.27c0.156,0.09,0.41,0.09,0.566,0
	l14.743-8.514c0.158-0.091,0.158-0.236,0-0.326l-11.347-6.552c-0.156-0.093-0.411-0.093-0.567,0l-12.45,7.188
	C489.835,893.192,489.793,893.25,489.79,893.309"/>
<g opacity="0.3">
	<g>
		<g>
			<defs>
				<rect id="SVGID_53_" x="493.289" y="889.235" width="21.104" height="13.162"/>
			</defs>
			<clipPath id="SVGID_54_">
				<use xlink:href="#SVGID_53_"  overflow="visible"/>
			</clipPath>
			<path clip-path="url(#SVGID_54_)" fill="#FFFFFF" d="M508.601,889.235c1.518,0.875,5.641,3.186,5.744,3.332
				c0.067,0.099,0.044,0.13,0.044,0.13v0.935c0.011,0.067-0.025,0.136-0.113,0.187l-14.745,8.513c-0.156,0.091-0.411,0.092-0.567,0
				l-5.674-3.275v-0.977L508.601,889.235z"/>
		</g>
	</g>
</g>
<path fill="#FFEB3B" d="M501.403,887.802c0.192-0.109,0.504-0.109,0.696,0l9.277,5.356c0.19,0.11,0.19,0.291,0,0.399l-9.277,5.357
	c-0.192,0.11-0.504,0.109-0.696,0l-9.276-5.357c-0.192-0.108-0.192-0.289,0-0.399L501.403,887.802z"/>
<path fill="#FF5643" d="M493.94,893.787l7.069,4.082c0.458,0.265,1.2,0.263,1.658,0l7.069-4.082c0.456-0.264,0.456-0.692,0-0.956
	l-7.069-4.083c-0.458-0.264-1.201-0.264-1.658,0l-7.069,4.083C493.483,893.094,493.483,893.524,493.94,893.787"/>
<polygon fill="#FFEB3B" points="498.443,896.004 500.238,894.968 501.843,895.895 500.048,896.931 "/>
<polygon fill="#FFEB3B" points="498.331,893.867 499.92,894.783 498.124,895.82 496.536,894.904 "/>
<path fill="#FFEB3B" d="M497.806,890.98l5.634,3.253l-1.907,1.101l-3.203-1.85l-2.125,1.229l-1.934-1.116
	c-0.273-0.158-0.274-0.415-0.001-0.574L497.806,890.98z"/>
<path fill="#FFEB3B" d="M502.087,890.997l-2.154-1.244l1.408-0.813c0.274-0.156,0.72-0.156,0.994,0l1.658,0.957L502.087,890.997z"/>
<polygon fill="#FFEB3B" points="504.572,892.431 502.418,891.188 504.323,890.088 506.477,891.331 "/>
<polygon fill="#FFEB3B" points="507.059,893.867 504.902,892.622 506.808,891.523 508.964,892.767 "/>
<path fill="#FFEB3B" d="M509.405,893.596l-3.203,1.85l-2.1-1.213l-0.332-0.188l-5.634-3.254l1.464-0.845l2.319,1.339l0.167,0.097
	l2.318,1.34l0.165,0.095l2.486,1.437l2.236-1.292l0.11,0.062C509.679,893.182,509.68,893.437,509.405,893.596"/>
<polygon fill="#FFEB3B" points="505.87,895.636 503.964,896.736 501.866,895.524 503.772,894.425 "/>
<path fill="#FFEB3B" d="M503.635,896.929l-1.299,0.748c-0.273,0.159-0.72,0.159-0.993,0.002l-0.975-0.564l1.795-1.034l1.47,0.85
	L503.635,896.929L503.635,896.929z"/>
<g>
	<g>
		<g opacity="0.6">
			<defs>
				<rect id="SVGID_55_" x="494.462" y="772.096" opacity="0.6" width="39.105" height="107.09"/>
			</defs>
			<clipPath id="SVGID_56_">
				<use xlink:href="#SVGID_55_"  overflow="visible"/>
			</clipPath>
			<g clip-path="url(#SVGID_56_)">
				<g>
					<g>
						<defs>
							<rect id="SVGID_57_" x="494.462" y="772.096" width="39.105" height="107.09"/>
						</defs>
						<clipPath id="SVGID_58_">
							<use xlink:href="#SVGID_57_"  overflow="visible"/>
						</clipPath>
						<polygon clip-path="url(#SVGID_58_)" fill="#6C8193" points="494.462,856.608 533.568,879.186 533.568,794.674 
							494.462,772.096 						"/>
					</g>
				</g>
			</g>
		</g>
		<polygon fill="#7D00AD" points="493.463,785.594 498.436,788.465 502.352,786.205 497.378,783.334 		"/>
		<polygon fill="#7D00AD" points="493.463,813.988 498.436,816.859 502.352,814.6 497.378,811.728 		"/>
		<polygon fill="#FFEB3B" points="494.462,856.608 533.568,879.186 533.568,794.674 494.462,772.096 		"/>
		<path fill="#263238" d="M496.102,852.35c0,0.919,0.649,2.035,1.449,2.498l32.933,19.013c0.797,0.46,1.445,0.095,1.445-0.824
			v-74.105c0-0.912-0.648-2.038-1.445-2.496l-32.933-19.015c-0.8-0.463-1.449-0.088-1.449,0.827V852.35z"/>
		<polygon fill="#FFFFFF" points="505.216,785.269 522.816,795.431 522.816,793.658 505.216,783.496 		"/>
		<path fill="#FFFFFF" d="M512.816,857.027c0,0.773,0.545,1.702,1.205,2.084c0.662,0.383,1.195,0.076,1.195-0.697
			c0-0.764-0.533-1.688-1.195-2.07C513.359,855.961,512.816,856.266,512.816,857.027"/>
		<path fill="#FFFFFF" d="M521.916,861.98c0,0.586,0.403,1.273,0.898,1.561c0.497,0.287,0.901,0.064,0.901-0.521
			c0-0.572-0.404-1.262-0.9-1.547C522.32,861.187,521.916,861.408,521.916,861.98"/>
		<path fill="#FFFFFF" d="M503.891,851.872c0,0.586,0.405,1.273,0.902,1.562s0.901,0.066,0.901-0.52c0-0.571-0.404-1.264-0.901-1.55
			S503.891,851.301,503.891,851.872"/>
		<polygon fill="#B7F9FE" points="497.94,843.83 530.336,862.533 530.336,803.218 497.94,784.516 		"/>
		<polygon fill="#FFCE00" points="533.568,879.22 539.282,875.919 539.282,791.374 533.568,794.674 		"/>
		<polygon fill="#FFEB3B" points="494.462,772.096 533.568,794.669 539.282,791.374 499.594,769.132 		"/>
		<polygon fill="#263238" points="522.738,785.79 533.398,791.949 534.956,791.047 524.138,784.984 		"/>
		<polygon fill="#FFEB3B" points="533.568,879.22 539.282,875.919 539.282,791.374 533.568,794.674 		"/>
		<polygon fill="#263238" points="535.448,818.214 537.402,817.087 537.402,798.533 535.448,799.661 		"/>
		<polygon fill="#124B60" points="148.633,999.261 148.641,1002.139 163.05,1010.514 163.042,1007.634 		"/>
		<polygon fill="#0C3443" points="163.042,1007.634 163.051,1010.513 227.786,973.138 227.779,970.259 		"/>
		<polygon fill="#14546B" points="148.633,999.261 163.042,1007.634 227.778,970.259 213.37,961.886 		"/>
		<polygon fill="#1D272B" points="165.443,964.64 162.042,962.663 162.139,997.151 165.54,999.129 		"/>
		<polygon fill="#212B30" points="214.29,936.438 210.889,934.46 162.042,962.664 165.443,964.64 		"/>
		<polygon fill="#141B1E" points="165.443,964.64 165.54,999.129 214.388,970.926 214.29,936.438 		"/>
		<polygon fill="#124B60" points="111.326,902.8 106.971,900.269 107.279,1008.988 111.634,1011.519 		"/>
		<polygon fill="#14546B" points="269.14,811.686 264.785,809.154 106.971,900.27 111.327,902.801 		"/>
		<polygon fill="#0C3443" points="111.326,902.8 111.634,1011.519 269.448,920.404 269.14,811.686 		"/>
		<polygon fill="#B7F9FE" points="113.42,908.271 113.68,1000.377 263.012,914.161 262.75,822.055 		"/>
		<polygon fill="#124B60" points="134.935,1041.342 134.944,1044.168 191.347,1076.946 191.34,1074.12 		"/>
		<polygon fill="#0C3443" points="191.34,1074.12 191.348,1076.946 336.323,993.244 336.315,990.418 		"/>
		<polygon fill="#14546B" points="134.935,1041.342 191.34,1074.12 336.315,990.418 279.911,957.639 		"/>
		<polygon fill="#FFFFFF" points="269.789,971.831 269.792,972.781 278.06,977.586 278.058,976.637 		"/>
		<polygon fill="#FFFFFF" points="278.058,976.637 278.06,977.586 286.391,972.776 286.388,971.827 		"/>
		<polygon fill="#FFFFFF" points="269.789,971.831 278.058,976.637 286.388,971.827 278.119,967.022 		"/>
		<polygon fill="#FFFFFF" points="279.979,977.753 279.982,978.702 288.259,983.513 288.255,982.562 		"/>
		<polygon fill="#FFFFFF" points="288.256,982.562 288.258,983.512 296.588,978.702 296.586,977.753 		"/>
		<polygon fill="#FFFFFF" points="279.979,977.753 288.255,982.562 296.586,977.753 288.309,972.943 		"/>
		<polygon fill="#FFFFFF" points="290.177,983.679 290.179,984.629 298.448,989.435 298.445,988.484 		"/>
		<polygon fill="#FFFFFF" points="298.446,988.484 298.448,989.435 306.777,984.623 306.775,983.674 		"/>
		<polygon fill="#FFFFFF" points="290.177,983.679 298.445,988.484 306.774,983.674 298.507,978.869 		"/>
		<polygon fill="#FFFFFF" points="300.374,989.605 300.375,990.555 308.646,995.361 308.643,994.41 		"/>
		<polygon fill="#FFFFFF" points="308.643,994.41 308.646,995.361 316.976,990.55 316.973,989.6 		"/>
		<polygon fill="#FFFFFF" points="300.374,989.605 308.643,994.41 316.973,989.6 308.704,984.795 		"/>
		<polygon fill="#FFFFFF" points="259.206,977.942 259.208,978.892 267.476,983.697 267.474,982.747 		"/>
		<polygon fill="#FFFFFF" points="267.474,982.747 267.477,983.697 275.807,978.888 275.804,977.938 		"/>
		<polygon fill="#FFFFFF" points="259.206,977.942 267.474,982.747 275.804,977.938 267.536,973.132 		"/>
		<polygon fill="#FFFFFF" points="269.396,983.864 269.397,984.813 277.675,989.623 277.672,988.673 		"/>
		<polygon fill="#FFFFFF" points="277.672,988.673 277.674,989.623 286.004,984.813 286.002,983.864 		"/>
		<polygon fill="#FFFFFF" points="269.396,983.864 277.672,988.673 286.003,983.864 277.726,979.054 		"/>
		<polygon fill="#FFFFFF" points="279.593,989.79 279.595,990.739 287.864,995.544 287.862,994.595 		"/>
		<polygon fill="#FFFFFF" points="287.862,994.595 287.864,995.545 296.195,990.734 296.192,989.785 		"/>
		<polygon fill="#FFFFFF" points="279.593,989.79 287.862,994.595 296.192,989.785 287.923,984.979 		"/>
		<polygon fill="#FFFFFF" points="289.79,995.715 289.793,996.666 298.062,1001.471 298.059,1000.521 		"/>
		<polygon fill="#FFFFFF" points="298.059,1000.521 298.061,1001.471 306.392,996.66 306.389,995.711 		"/>
		<polygon fill="#FFFFFF" points="289.79,995.715 298.059,1000.521 306.389,995.711 298.12,990.905 		"/>
		<polygon fill="#FFFFFF" points="248.621,984.053 248.624,985.003 256.892,989.808 256.89,988.858 		"/>
		<polygon fill="#FFFFFF" points="256.89,988.858 256.893,989.808 265.223,984.997 265.221,984.048 		"/>
		<polygon fill="#FFFFFF" points="248.621,984.053 256.89,988.858 265.22,984.048 256.951,979.242 		"/>
		<polygon fill="#FFFFFF" points="258.812,989.975 258.813,990.924 267.091,995.733 267.087,994.783 		"/>
		<polygon fill="#FFFFFF" points="267.088,994.783 267.09,995.733 275.421,990.924 275.418,989.975 		"/>
		<polygon fill="#FFFFFF" points="258.812,989.975 267.087,994.783 275.419,989.975 267.141,985.165 		"/>
		<polygon fill="#FFFFFF" points="269.009,995.9 269.012,996.85 277.28,1001.655 277.278,1000.705 		"/>
		<polygon fill="#FFFFFF" points="277.278,1000.705 277.28,1001.655 285.61,996.846 285.608,995.896 		"/>
		<polygon fill="#FFFFFF" points="269.009,995.9 277.278,1000.705 285.608,995.896 277.339,991.091 		"/>
		<polygon fill="#FFFFFF" points="279.207,1001.826 279.208,1002.775 287.478,1007.581 287.475,1006.631 		"/>
		<polygon fill="#FFFFFF" points="287.475,1006.631 287.478,1007.581 295.808,1002.771 295.805,1001.821 		"/>
		<polygon fill="#FFFFFF" points="279.207,1001.826 287.475,1006.631 295.805,1001.821 287.537,997.017 		"/>
		<polygon fill="#FFFFFF" points="238.038,990.163 238.04,991.113 246.309,995.919 246.306,994.969 		"/>
		<polygon fill="#FFFFFF" points="246.306,994.969 246.309,995.918 254.639,991.108 254.637,990.158 		"/>
		<polygon fill="#FFFFFF" points="238.038,990.163 246.306,994.969 254.637,990.158 246.368,985.353 		"/>
		<polygon fill="#FFFFFF" points="248.228,996.085 248.229,997.035 256.507,1001.845 256.503,1000.896 		"/>
		<polygon fill="#FFFFFF" points="256.504,1000.895 256.506,1001.845 264.836,997.033 264.833,996.085 		"/>
		<polygon fill="#FFFFFF" points="248.228,996.085 256.503,1000.896 264.835,996.085 256.558,991.275 		"/>
		<polygon fill="#FFFFFF" points="258.426,1002.012 258.428,1002.961 266.696,1007.766 266.694,1006.816 		"/>
		<polygon fill="#FFFFFF" points="266.694,1006.816 266.697,1007.766 275.027,1002.956 275.024,1002.007 		"/>
		<polygon fill="#FFFFFF" points="258.426,1002.012 266.694,1006.816 275.024,1002.007 266.756,997.201 		"/>
		<polygon fill="#FFFFFF" points="268.622,1007.938 268.625,1008.887 276.894,1013.691 276.891,1012.742 		"/>
		<polygon fill="#FFFFFF" points="276.891,1012.742 276.894,1013.691 285.224,1008.882 285.221,1007.933 		"/>
		<polygon fill="#FFFFFF" points="268.622,1007.938 276.891,1012.742 285.221,1007.933 276.952,1003.128 		"/>
		<polygon fill="#FFFFFF" points="227.453,996.273 227.456,997.223 235.724,1002.029 235.722,1001.078 		"/>
		<polygon fill="#FFFFFF" points="235.723,1001.078 235.725,1002.029 244.055,997.218 244.053,996.269 		"/>
		<polygon fill="#FFFFFF" points="227.453,996.273 235.722,1001.078 244.052,996.269 235.784,991.464 		"/>
		<polygon fill="#FFFFFF" points="237.644,1002.195 237.646,1003.146 245.923,1007.956 245.919,1007.007 		"/>
		<polygon fill="#FFFFFF" points="245.92,1007.005 245.923,1007.955 254.253,1003.146 254.25,1002.194 		"/>
		<polygon fill="#FFFFFF" points="237.644,1002.195 245.919,1007.007 254.25,1002.195 245.974,997.385 		"/>
		<polygon fill="#FFFFFF" points="247.841,1008.121 247.844,1009.072 256.112,1013.877 256.11,1012.928 		"/>
		<polygon fill="#FFFFFF" points="256.11,1012.928 256.112,1013.877 264.443,1009.067 264.439,1008.117 		"/>
		<polygon fill="#FFFFFF" points="247.841,1008.121 256.11,1012.928 264.439,1008.117 256.171,1003.312 		"/>
		<polygon fill="#FFFFFF" points="258.039,1014.048 258.041,1014.998 266.311,1019.803 266.307,1018.854 		"/>
		<polygon fill="#FFFFFF" points="266.307,1018.854 266.31,1019.803 274.64,1014.992 274.637,1014.044 		"/>
		<polygon fill="#FFFFFF" points="258.039,1014.048 266.307,1018.854 274.637,1014.044 266.369,1009.237 		"/>
		<polygon fill="#FFFFFF" points="216.87,1002.385 216.872,1003.334 225.141,1008.139 225.138,1007.189 		"/>
		<polygon fill="#FFFFFF" points="225.138,1007.189 225.141,1008.139 233.464,1003.334 233.462,1002.385 		"/>
		<polygon fill="#FFFFFF" points="216.87,1002.385 225.138,1007.189 233.462,1002.385 225.193,997.579 		"/>
		<polygon fill="#FFFFFF" points="227.06,1008.306 227.062,1009.256 235.339,1014.065 235.335,1013.117 		"/>
		<polygon fill="#FFFFFF" points="235.336,1013.115 235.338,1014.065 243.661,1009.26 243.659,1008.311 		"/>
		<polygon fill="#FFFFFF" points="227.06,1008.306 235.335,1013.117 243.658,1008.312 235.383,1003.501 		"/>
		<polygon fill="#FFFFFF" points="237.258,1014.232 237.26,1015.182 245.529,1019.988 245.526,1019.037 		"/>
		<polygon fill="#FFFFFF" points="245.526,1019.037 245.529,1019.988 253.851,1015.182 253.849,1014.232 		"/>
		<polygon fill="#FFFFFF" points="237.258,1014.232 245.526,1019.037 253.848,1014.232 245.58,1009.427 		"/>
		<polygon fill="#FFFFFF" points="247.454,1020.158 247.457,1021.108 255.726,1025.914 255.723,1024.964 		"/>
		<polygon fill="#FFFFFF" points="255.724,1024.964 255.726,1025.914 264.049,1021.108 264.047,1020.158 		"/>
		<polygon fill="#FFFFFF" points="247.454,1020.158 255.723,1024.964 264.046,1020.158 255.778,1015.354 		"/>
		<polygon fill="#FFFFFF" points="206.286,1008.495 206.288,1009.444 214.557,1014.25 214.555,1013.301 		"/>
		<polygon fill="#FFFFFF" points="214.555,1013.301 214.557,1014.25 222.88,1009.444 222.878,1008.495 		"/>
		<polygon fill="#FFFFFF" points="206.286,1008.495 214.555,1013.301 222.878,1008.495 214.609,1003.69 		"/>
		<polygon fill="#FFFFFF" points="216.476,1014.417 216.478,1015.367 224.755,1020.177 224.752,1019.226 		"/>
		<polygon fill="#FFFFFF" points="224.752,1019.226 224.755,1020.176 233.077,1015.37 233.075,1014.421 		"/>
		<polygon fill="#FFFFFF" points="216.476,1014.417 224.752,1019.226 233.075,1014.421 224.799,1009.611 		"/>
		<polygon fill="#FFFFFF" points="226.673,1020.343 226.676,1021.293 234.944,1026.098 234.942,1025.148 		"/>
		<polygon fill="#FFFFFF" points="234.942,1025.148 234.945,1026.098 243.268,1021.293 243.265,1020.343 		"/>
		<polygon fill="#FFFFFF" points="226.673,1020.343 234.942,1025.148 243.265,1020.343 234.996,1015.537 		"/>
		<polygon fill="#FFFFFF" points="236.871,1026.27 236.873,1027.219 245.143,1032.024 245.139,1031.074 		"/>
		<polygon fill="#FFFFFF" points="245.139,1031.074 245.142,1032.024 253.465,1027.219 253.462,1026.27 		"/>
		<polygon fill="#FFFFFF" points="236.871,1026.27 245.139,1031.074 253.462,1026.27 245.194,1021.463 		"/>
		<polygon fill="#FFFFFF" points="195.702,1014.606 195.705,1015.556 203.973,1020.36 203.971,1019.411 		"/>
		<polygon fill="#FFFFFF" points="203.971,1019.411 203.973,1020.36 212.296,1015.556 212.294,1014.606 		"/>
		<polygon fill="#FFFFFF" points="195.702,1014.606 203.971,1019.411 212.292,1014.606 204.026,1009.8 		"/>
		<polygon fill="#FFFFFF" points="205.892,1020.527 205.894,1021.477 214.172,1026.285 214.167,1025.337 		"/>
		<polygon fill="#FFFFFF" points="214.167,1025.337 214.171,1026.285 222.493,1021.481 222.491,1020.533 		"/>
		<polygon fill="#FFFFFF" points="205.892,1020.527 214.167,1025.337 222.491,1020.533 214.215,1015.723 		"/>
		<polygon fill="#FFFFFF" points="216.09,1026.453 216.092,1027.402 224.361,1032.208 224.358,1031.259 		"/>
		<polygon fill="#FFFFFF" points="224.358,1031.259 224.361,1032.208 232.683,1027.402 232.681,1026.453 		"/>
		<polygon fill="#FFFFFF" points="216.09,1026.453 224.358,1031.259 232.681,1026.453 224.412,1021.648 		"/>
		<polygon fill="#FFFFFF" points="226.287,1032.379 226.289,1033.328 234.559,1038.135 234.555,1037.186 		"/>
		<polygon fill="#FFFFFF" points="234.555,1037.186 234.558,1038.135 242.881,1033.328 242.879,1032.379 		"/>
		<polygon fill="#FFFFFF" points="226.287,1032.379 234.555,1037.186 242.878,1032.379 234.61,1027.574 		"/>
		<polygon fill="#FFFFFF" points="185.118,1020.716 185.12,1021.667 193.389,1026.472 193.387,1025.522 		"/>
		<polygon fill="#FFFFFF" points="193.387,1025.521 193.389,1026.472 201.712,1021.666 201.71,1020.716 		"/>
		<polygon fill="#FFFFFF" points="185.118,1020.716 193.387,1025.522 201.71,1020.716 193.441,1015.911 		"/>
		<polygon fill="#FFFFFF" points="195.308,1026.639 195.31,1027.588 203.587,1032.397 203.583,1031.449 		"/>
		<polygon fill="#FFFFFF" points="203.583,1031.449 203.587,1032.397 211.909,1027.593 211.908,1026.644 		"/>
		<polygon fill="#FFFFFF" points="195.308,1026.639 203.583,1031.449 211.907,1026.644 203.631,1021.834 		"/>
		<polygon fill="#FFFFFF" points="205.506,1032.564 205.508,1033.514 213.777,1038.318 213.774,1037.369 		"/>
		<polygon fill="#FFFFFF" points="213.774,1037.369 213.777,1038.318 222.1,1033.514 222.097,1032.564 		"/>
		<polygon fill="#FFFFFF" points="205.506,1032.564 213.774,1037.369 222.097,1032.564 213.829,1027.759 		"/>
		<polygon fill="#FFFFFF" points="215.703,1038.49 215.705,1039.439 223.975,1044.245 223.971,1043.295 		"/>
		<polygon fill="#FFFFFF" points="223.972,1043.295 223.974,1044.245 232.297,1039.439 232.295,1038.49 		"/>
		<polygon fill="#FFFFFF" points="215.703,1038.49 223.971,1043.295 232.294,1038.49 224.026,1033.685 		"/>
		<polygon fill="#FFFFFF" points="174.534,1026.826 174.537,1027.776 182.805,1032.582 182.803,1031.632 		"/>
		<polygon fill="#FFFFFF" points="182.803,1031.632 182.805,1032.582 191.128,1027.776 191.125,1026.826 		"/>
		<polygon fill="#FFFFFF" points="174.534,1026.826 182.803,1031.632 191.125,1026.826 182.857,1022.021 		"/>
		<polygon fill="#FFFFFF" points="184.724,1032.748 184.727,1033.699 193.004,1038.509 193,1037.56 		"/>
		<polygon fill="#FFFFFF" points="193,1037.558 193.003,1038.509 201.326,1033.701 201.324,1032.753 		"/>
		<polygon fill="#FFFFFF" points="184.724,1032.748 193,1037.56 201.323,1032.754 193.048,1027.943 		"/>
		<polygon fill="#FFFFFF" points="194.922,1038.675 194.924,1039.625 203.192,1044.43 203.19,1043.48 		"/>
		<polygon fill="#FFFFFF" points="203.191,1043.48 203.193,1044.43 211.516,1039.625 211.514,1038.675 		"/>
		<polygon fill="#FFFFFF" points="194.922,1038.675 203.19,1043.48 211.513,1038.675 203.244,1033.869 		"/>
		<polygon fill="#FFFFFF" points="163.95,1032.938 163.953,1033.887 172.221,1038.692 172.219,1037.742 		"/>
		<polygon fill="#FFFFFF" points="172.22,1037.742 172.221,1038.692 180.545,1033.887 180.542,1032.938 		"/>
		<polygon fill="#FFFFFF" points="163.95,1032.938 172.219,1037.742 180.542,1032.938 172.274,1028.132 		"/>
		<polygon fill="#FFFFFF" points="174.14,1038.859 174.142,1039.809 182.419,1044.62 182.416,1043.669 		"/>
		<polygon fill="#FFFFFF" points="182.416,1043.669 182.419,1044.617 190.741,1039.813 190.74,1038.863 		"/>
		<polygon fill="#FFFFFF" points="174.14,1038.859 182.416,1043.669 190.739,1038.865 182.463,1034.054 		"/>
		<polygon fill="#FFFFFF" points="184.338,1044.785 184.34,1045.734 192.609,1050.541 192.605,1049.59 		"/>
		<polygon fill="#FFFFFF" points="192.605,1049.59 192.609,1050.541 200.932,1045.734 200.929,1044.785 		"/>
		<polygon fill="#FFFFFF" points="184.338,1044.785 192.605,1049.59 200.929,1044.785 192.661,1039.98 		"/>
		<polygon fill="#FFFFFF" points="194.535,1050.711 194.537,1051.66 202.807,1056.467 202.804,1055.517 		"/>
		<polygon fill="#FFFFFF" points="202.804,1055.517 202.806,1056.467 211.129,1051.66 211.127,1050.711 		"/>
		<polygon fill="#FFFFFF" points="194.535,1050.711 202.804,1055.517 211.125,1050.711 202.858,1045.906 		"/>
		<polygon fill="#FFFFFF" points="153.367,1039.048 153.369,1039.997 161.637,1044.804 161.635,1043.854 		"/>
		<polygon fill="#FFFFFF" points="161.635,1043.854 161.637,1044.803 169.96,1039.997 169.958,1039.048 		"/>
		<polygon fill="#FFFFFF" points="153.367,1039.048 161.635,1043.854 169.958,1039.048 161.688,1034.242 		"/>
		<polygon fill="#FFFFFF" points="163.556,1044.971 163.559,1045.92 171.836,1050.729 171.832,1049.781 		"/>
		<polygon fill="#FFFFFF" points="171.833,1049.779 171.835,1050.729 180.158,1045.923 180.156,1044.974 		"/>
		<polygon fill="#FFFFFF" points="163.556,1044.971 171.832,1049.781 180.155,1044.976 171.88,1040.164 		"/>
		<polygon fill="#FFFFFF" points="173.754,1050.896 173.756,1051.846 182.024,1056.65 182.021,1055.701 		"/>
		<polygon fill="#FFFFFF" points="182.022,1055.701 182.025,1056.65 190.348,1051.846 190.346,1050.896 		"/>
		<polygon fill="#FFFFFF" points="173.754,1050.896 182.021,1055.701 190.345,1050.896 182.077,1046.091 		"/>
		
			<polyline fill="none" stroke="#FFFFFF" stroke-width="3" stroke-linecap="round" stroke-linejoin="round" stroke-miterlimit="10" stroke-dasharray="11,6" points="
			418.432,1086.326 403.754,1094.512 331.143,1051.415 		"/>
		
			<line fill="none" stroke="#FFFFFF" stroke-width="3" stroke-linecap="round" stroke-linejoin="round" x1="556.33" y1="993.755" x2="561.977" y2="990.495"/>
		<polyline fill="none" stroke="#FFFFFF" stroke-width="3" stroke-linecap="round" stroke-linejoin="round" points="
			568.998,986.441 574.645,983.181 580.282,986.46 		"/>
		
			<line fill="none" stroke="#FFFFFF" stroke-width="3" stroke-linecap="round" stroke-linejoin="round" stroke-dasharray="10.535,5.746" x1="586.17" y1="989.887" x2="683.328" y2="1046.423"/>
		<polyline fill="none" stroke="#FFFFFF" stroke-width="3" stroke-linecap="round" stroke-linejoin="round" points="
			686.273,1048.136 691.909,1051.415 697.532,1048.115 		"/>
		
			<line fill="none" stroke="#FFFFFF" stroke-width="3" stroke-linecap="round" stroke-linejoin="round" stroke-dasharray="8.36,4.56" x1="702.195" y1="1045.378" x2="726.286" y2="1031.24"/>
		<polyline fill="none" stroke="#FFFFFF" stroke-width="3" stroke-linecap="round" stroke-linejoin="round" points="
			728.618,1029.871 734.241,1026.571 728.595,1023.311 		"/>
		
			<line fill="none" stroke="#FFFFFF" stroke-width="3" stroke-linecap="round" stroke-linejoin="round" stroke-dasharray="9.353,5.101" x1="723.357" y1="1020.287" x2="711.134" y2="1013.229"/>
		
			<line fill="none" stroke="#FFFFFF" stroke-width="3" stroke-linecap="round" stroke-linejoin="round" x1="708.516" y1="1011.719" x2="702.868" y2="1008.458"/>
		
			<line fill="none" stroke="#FFFFFF" stroke-width="3" stroke-linecap="round" stroke-linejoin="round" x1="498.46" y1="977.069" x2="492.851" y2="973.744"/>
		
			<line fill="none" stroke="#FFFFFF" stroke-width="3" stroke-linecap="round" stroke-linejoin="round" stroke-dasharray="10.838,5.912" x1="486.821" y1="970.17" x2="455.673" y2="951.701"/>
		
			<line fill="none" stroke="#FFFFFF" stroke-width="3" stroke-linecap="round" stroke-linejoin="round" x1="452.657" y1="949.914" x2="447.049" y2="946.589"/>
		
			<polyline fill="none" stroke="#FFFFFF" stroke-width="3" stroke-linecap="round" stroke-linejoin="round" stroke-miterlimit="10" stroke-dasharray="11,6" points="
			469.364,958.088 543.45,914.941 519.709,902.438 		"/>
		<path fill="none" stroke="#FFFFFF" stroke-width="3" stroke-linecap="round" stroke-linejoin="round" d="M559.447,1061.188"/>
		
			<path fill="none" stroke="#FFFFFF" stroke-width="3" stroke-linecap="round" stroke-linejoin="round" stroke-dasharray="10.716,5.845" d="
			M565.45,1064.652"/>
		
			<line fill="none" stroke="#FFFFFF" stroke-width="3" stroke-linecap="round" stroke-linejoin="round" x1="717.75" y1="1011.449" x2="723.402" y2="1008.201"/>
		
			<line fill="none" stroke="#FFFFFF" stroke-width="3" stroke-linecap="round" stroke-linejoin="round" stroke-dasharray="11.158,6.086" x1="729.659" y1="1004.605" x2="832.881" y2="945.267"/>
		<polyline fill="none" stroke="#FFFFFF" stroke-width="3" stroke-linecap="round" stroke-linejoin="round" points="836.008,943.47 
			841.662,940.22 835.983,937.013 		"/>
		
			<line fill="none" stroke="#FFFFFF" stroke-width="3" stroke-linecap="round" stroke-linejoin="round" stroke-dasharray="11.489,6.267" x1="829.514" y1="933.359" x2="796.088" y2="914.48"/>
		<polyline fill="none" stroke="#FFFFFF" stroke-width="3" stroke-linecap="round" stroke-linejoin="round" points="
			792.854,912.653 787.176,909.446 792.864,906.261 		"/>
		
			<line fill="none" stroke="#FFFFFF" stroke-width="3" stroke-linecap="round" stroke-linejoin="round" stroke-dasharray="10.344,5.642" x1="798.7" y1="902.99" x2="812.317" y2="895.362"/>
		
			<line fill="none" stroke="#FFFFFF" stroke-width="3" stroke-linecap="round" stroke-linejoin="round" x1="815.235" y1="893.728" x2="820.925" y2="890.542"/>
		
			<path fill="none" stroke="#FFFFFF" stroke-width="3" stroke-linecap="round" stroke-linejoin="round" stroke-miterlimit="10" stroke-dasharray="11,6" d="
			M841.662,940.221"/>
		
			<line fill="none" stroke="#FFFFFF" stroke-width="3" stroke-linecap="round" stroke-linejoin="round" x1="469.166" y1="872.787" x2="463.465" y2="869.624"/>
		
			<line fill="none" stroke="#FFFFFF" stroke-width="3" stroke-linecap="round" stroke-linejoin="round" stroke-dasharray="9.923,5.413" x1="457.853" y1="866.511" x2="444.759" y2="859.247"/>
		<polyline fill="none" stroke="#FFFFFF" stroke-width="3" stroke-linecap="round" stroke-linejoin="round" points="
			441.953,857.689 436.252,854.526 441.793,851.09 		"/>
		
			<line fill="none" stroke="#FFFFFF" stroke-width="3" stroke-linecap="round" stroke-linejoin="round" stroke-dasharray="9.713,5.298" x1="447.133" y1="847.78" x2="459.591" y2="840.06"/>
		<polyline fill="none" stroke="#FFFFFF" stroke-width="3" stroke-linecap="round" stroke-linejoin="round" points="
			462.261,838.404 467.804,834.968 462.063,831.872 		"/>
		
			<line fill="none" stroke="#FFFFFF" stroke-width="3" stroke-linecap="round" stroke-linejoin="round" stroke-dasharray="8.877,4.842" x1="457.012" y1="829.146" x2="430.909" y2="815.062"/>
		
			<line fill="none" stroke="#FFFFFF" stroke-width="3" stroke-linecap="round" stroke-linejoin="round" x1="428.383" y1="813.699" x2="422.645" y2="810.603"/>
		<polygon fill="#F9DD35" points="391.007,1045.576 391.05,1061.017 463.275,1102.99 463.231,1087.55 		"/>
		<polygon fill="#F2D027" points="463.231,1087.549 463.275,1102.99 584.263,1033.14 584.219,1017.699 		"/>
		<polygon fill="#FFFA57" points="391.007,1045.576 463.231,1087.55 584.217,1017.699 511.991,975.725 		"/>
		<path fill="#F2D027" d="M408.979,1048.758c-2.292,0-4.149-2.028-4.149-4.532v-59.562c0-2.503,1.857-4.531,4.149-4.531
			s4.149,2.028,4.149,4.531v59.562C413.129,1046.729,411.271,1048.758,408.979,1048.758"/>
		<path fill="#FF5643" d="M464.78,1018.504c-10.935,6.312-17.742,15.059-17.854,24.705c-0.005,1.096,1.53,1.988,3.419,1.988
			c0.949,0,1.806-0.225,2.428-0.582c0.617-0.355,1.001-0.848,1.014-1.39c0.091-8.578,6.123-16.306,15.834-21.912
			c9.783-5.647,23.245-9.126,38.142-9.101c0.952,0,1.817-0.223,2.442-0.583c0.617-0.356,1.003-0.849,1.014-1.396
			c0.006-1.094-1.529-1.985-3.419-1.985C491.042,1008.225,475.79,1012.147,464.78,1018.504"/>
		<path fill="#FF5643" d="M491.624,1034.102c-4.055,2.342-6.602,5.591-6.636,9.168c-0.007,1.095,1.515,1.979,3.418,1.987
			c0.945,0,1.801-0.224,2.421-0.579c0.618-0.358,1.003-0.854,1.007-1.4c0.027-2.499,1.785-4.737,4.613-6.371
			c2.844-1.642,6.744-2.651,11.09-2.645c0.951,0,1.818-0.224,2.447-0.586c0.618-0.356,1.005-0.85,1.009-1.393
			c0.006-1.096-1.53-1.986-3.42-1.986C501.368,1030.289,495.706,1031.745,491.624,1034.102"/>
		<path fill="#FF5643" d="M502.405,1041.181c-1.031,0.597-1.674,1.42-1.679,2.333c-0.024,1.827,2.525,3.308,5.665,3.308
			c1.583,0.005,3.023-0.363,4.064-0.967c1.031-0.596,1.675-1.419,1.68-2.332c0.011-1.817-2.524-3.309-5.664-3.309
			C504.887,1040.21,503.447,1040.579,502.405,1041.181"/>
		<path fill="#FF5643" d="M478.21,1026.308c-7.532,4.349-12.18,10.337-12.245,16.938c-0.006,1.094,1.515,1.978,3.404,1.978
			c0.954,0.005,1.816-0.215,2.438-0.574c0.618-0.355,1-0.849,1.002-1.395c0.062-5.539,3.954-10.521,10.226-14.145
			c6.312-3.645,14.986-5.884,24.622-5.875c0.945,0.006,1.811-0.218,2.437-0.578c0.616-0.356,1.003-0.849,1.005-1.393
			c0.021-1.103-1.514-1.995-3.404-1.995C496.212,1019.252,485.748,1021.938,478.21,1026.308"/>
		
			<line fill="none" stroke="#FFFFFF" stroke-width="3" stroke-linecap="round" stroke-linejoin="round" x1="331.144" y1="1051.415" x2="325.427" y2="1048.279"/>
		
			<line fill="none" stroke="#FFFFFF" stroke-width="3" stroke-linecap="round" stroke-linejoin="round" stroke-dasharray="13.42,7.32" x1="317.817" y1="1044.106" x2="300.062" y2="1034.367"/>
		
			<line fill="none" stroke="#FFFFFF" stroke-width="3" stroke-linecap="round" stroke-linejoin="round" x1="296.258" y1="1032.283" x2="290.54" y2="1029.146"/>
		<polygon fill="#124B60" points="715.602,941.219 715.595,943.809 702.63,951.343 702.637,948.754 		"/>
		<polygon fill="#0C3443" points="702.637,948.754 702.63,951.343 644.396,917.722 644.403,915.132 		"/>
		<polygon fill="#14546B" points="715.602,941.219 702.637,948.754 644.402,915.132 657.369,907.598 		"/>
		<polygon fill="#1D272B" points="700.483,910.081 703.542,908.305 703.454,939.331 700.395,941.107 		"/>
		<polygon fill="#212B30" points="656.532,884.707 659.592,882.93 703.543,908.305 700.483,910.081 		"/>
		<polygon fill="#141B1E" points="700.483,910.081 700.395,941.107 656.445,915.733 656.532,884.707 		"/>
		<polygon fill="#124B60" points="749.163,854.445 753.081,852.167 752.803,949.971 748.885,952.247 		"/>
		<polygon fill="#14546B" points="607.184,772.474 611.102,770.197 753.08,852.168 749.163,854.444 		"/>
		<polygon fill="#0C3443" points="749.163,854.445 748.885,952.247 606.907,870.276 607.184,772.474 		"/>
		<polygon fill="#B7F9FE" points="747.28,859.367 747.045,942.228 612.704,864.665 612.939,781.803 		"/>
		<polygon fill="#124B60" points="727.93,979.082 727.922,981.623 677.182,1011.111 677.188,1008.569 		"/>
		<polygon fill="#0C3443" points="677.188,1008.569 677.182,1011.111 546.746,935.806 546.754,933.263 		"/>
		<polygon fill="#14546B" points="727.93,979.082 677.188,1008.569 546.754,933.262 597.495,903.774 		"/>
		<polygon fill="#FFFFFF" points="608.609,916.984 608.607,917.971 601.289,922.222 601.292,921.235 		"/>
		<polygon fill="#FFFFFF" points="601.293,921.235 601.291,922.222 593.921,917.968 593.924,916.981 		"/>
		<polygon fill="#FFFFFF" points="608.609,916.984 601.292,921.235 593.925,916.981 601.239,912.73 		"/>
		<polygon fill="#FFFFFF" points="618.035,922.426 618.032,923.412 610.717,927.664 610.719,926.678 		"/>
		<polygon fill="#FFFFFF" points="610.719,926.678 610.717,927.664 603.352,923.412 603.355,922.426 		"/>
		<polygon fill="#FFFFFF" points="618.035,922.426 610.719,926.678 603.355,922.426 610.672,918.175 		"/>
		<polygon fill="#FFFFFF" points="627.466,927.87 627.463,928.856 620.146,933.109 620.149,932.123 		"/>
		<polygon fill="#FFFFFF" points="620.149,932.123 620.147,933.109 612.782,928.857 612.785,927.871 		"/>
		<polygon fill="#FFFFFF" points="627.466,927.87 620.149,932.123 612.784,927.87 620.102,923.617 		"/>
		<polygon fill="#FFFFFF" points="636.892,933.313 636.89,934.3 629.573,938.551 629.575,937.565 		"/>
		<polygon fill="#FFFFFF" points="629.575,937.565 629.573,938.552 622.208,934.301 622.211,933.314 		"/>
		<polygon fill="#FFFFFF" points="636.892,933.313 629.575,937.565 622.211,933.313 629.527,929.062 		"/>
		<polygon fill="#FFFFFF" points="646.322,938.758 646.319,939.742 639.002,943.995 639.006,943.009 		"/>
		<polygon fill="#FFFFFF" points="639.006,943.009 639.004,943.995 631.639,939.742 631.642,938.758 		"/>
		<polygon fill="#FFFFFF" points="646.322,938.758 639.006,943.009 631.641,938.758 638.958,934.507 		"/>
		<polygon fill="#FFFFFF" points="655.748,944.199 655.746,945.187 648.43,949.438 648.432,948.451 		"/>
		<polygon fill="#FFFFFF" points="648.432,948.451 648.43,949.438 641.064,945.187 641.067,944.199 		"/>
		<polygon fill="#FFFFFF" points="655.748,944.199 648.432,948.451 641.067,944.199 648.384,939.949 		"/>
		<polygon fill="#FFFFFF" points="665.179,949.646 665.176,950.631 657.859,954.884 657.862,953.896 		"/>
		<polygon fill="#FFFFFF" points="657.862,953.896 657.859,954.884 650.495,950.632 650.498,949.646 		"/>
		<polygon fill="#FFFFFF" points="665.179,949.646 657.862,953.896 650.498,949.646 657.814,945.393 		"/>
		<polygon fill="#FFFFFF" points="674.607,955.089 674.605,956.076 667.289,960.327 667.291,959.341 		"/>
		<polygon fill="#FFFFFF" points="667.291,959.341 667.289,960.327 659.921,956.074 659.923,955.087 		"/>
		<polygon fill="#FFFFFF" points="674.607,955.089 667.291,959.341 659.924,955.087 667.239,950.836 		"/>
		<polygon fill="#FFFFFF" points="684.035,960.531 684.032,961.518 676.716,965.77 676.719,964.783 		"/>
		<polygon fill="#FFFFFF" points="676.719,964.783 676.716,965.77 669.352,961.518 669.354,960.531 		"/>
		<polygon fill="#FFFFFF" points="684.035,960.531 676.719,964.783 669.354,960.531 676.671,956.279 		"/>
		<polygon fill="#FFFFFF" points="693.464,965.976 693.462,966.962 686.146,971.213 686.147,970.227 		"/>
		<polygon fill="#FFFFFF" points="686.147,970.227 686.146,971.213 678.78,966.962 678.784,965.976 		"/>
		<polygon fill="#FFFFFF" points="693.464,965.976 686.147,970.227 678.784,965.976 686.101,961.724 		"/>
		<polygon fill="#FFFFFF" points="702.892,971.418 702.889,972.403 695.572,976.656 695.575,975.67 		"/>
		<polygon fill="#FFFFFF" points="695.575,975.67 695.572,976.656 688.208,972.404 688.211,971.418 		"/>
		<polygon fill="#FFFFFF" points="702.892,971.418 695.575,975.67 688.211,971.418 695.527,967.165 		"/>
		<polygon fill="#FFFFFF" points="712.32,976.862 712.318,977.849 705.002,982.101 705.004,981.114 		"/>
		<polygon fill="#FFFFFF" points="705.004,981.114 705.002,982.101 697.637,977.849 697.641,976.862 		"/>
		<polygon fill="#FFFFFF" points="712.32,976.862 705.004,981.114 697.641,976.862 704.957,972.61 		"/>
		<polygon fill="#FFFFFF" points="598.779,922.617 598.777,923.603 591.461,927.854 591.463,926.867 		"/>
		<polygon fill="#FFFFFF" points="591.463,926.867 591.461,927.854 584.096,923.603 584.1,922.617 		"/>
		<polygon fill="#FFFFFF" points="598.779,922.617 591.463,926.867 584.1,922.617 591.416,918.364 		"/>
		<polygon fill="#FFFFFF" points="608.21,928.06 608.206,929.046 600.89,933.298 600.893,932.312 		"/>
		<polygon fill="#FFFFFF" points="600.894,932.312 600.892,933.298 593.525,929.046 593.528,928.06 		"/>
		<polygon fill="#FFFFFF" points="608.21,928.06 600.893,932.312 593.528,928.06 600.845,923.809 		"/>
		<polygon fill="#FFFFFF" points="617.636,933.503 617.634,934.489 610.317,938.742 610.319,937.755 		"/>
		<polygon fill="#FFFFFF" points="610.319,937.755 610.317,938.742 602.952,934.489 602.955,933.503 		"/>
		<polygon fill="#FFFFFF" points="617.636,933.503 610.319,937.755 602.955,933.503 610.271,929.251 		"/>
		<polygon fill="#FFFFFF" points="627.066,938.947 627.062,939.934 619.746,944.185 619.749,943.199 		"/>
		<polygon fill="#FFFFFF" points="619.75,943.199 619.748,944.185 612.382,939.934 612.385,938.949 		"/>
		<polygon fill="#FFFFFF" points="627.066,938.947 619.749,943.199 612.385,938.947 619.7,934.695 		"/>
		<polygon fill="#FFFFFF" points="636.491,944.389 636.491,945.375 629.174,949.627 629.176,948.641 		"/>
		<polygon fill="#FFFFFF" points="629.176,948.642 629.174,949.628 621.809,945.376 621.812,944.39 		"/>
		<polygon fill="#FFFFFF" points="636.491,944.389 629.176,948.641 621.812,944.389 629.128,940.138 		"/>
		<polygon fill="#FFFFFF" points="645.923,949.834 645.919,950.82 638.603,955.072 638.605,954.086 		"/>
		<polygon fill="#FFFFFF" points="638.606,954.086 638.604,955.072 631.238,950.82 631.241,949.834 		"/>
		<polygon fill="#FFFFFF" points="645.923,949.834 638.605,954.086 631.241,949.834 638.558,945.582 		"/>
		<polygon fill="#FFFFFF" points="655.352,955.279 655.35,956.266 648.032,960.518 648.035,959.53 		"/>
		<polygon fill="#FFFFFF" points="648.035,959.53 648.032,960.518 640.665,956.264 640.667,955.277 		"/>
		<polygon fill="#FFFFFF" points="655.352,955.279 648.035,959.53 640.668,955.277 647.983,951.024 		"/>
		<polygon fill="#FFFFFF" points="664.779,960.721 664.776,961.708 657.46,965.959 657.463,964.973 		"/>
		<polygon fill="#FFFFFF" points="657.463,964.973 657.46,965.959 650.095,961.708 650.099,960.721 		"/>
		<polygon fill="#FFFFFF" points="664.779,960.721 657.463,964.973 650.098,960.721 657.415,956.47 		"/>
		<polygon fill="#FFFFFF" points="674.208,966.165 674.206,967.151 666.89,971.403 666.892,970.417 		"/>
		<polygon fill="#FFFFFF" points="666.892,970.417 666.89,971.403 659.524,967.151 659.528,966.165 		"/>
		<polygon fill="#FFFFFF" points="674.208,966.165 666.892,970.417 659.528,966.165 666.845,961.913 		"/>
		<polygon fill="#FFFFFF" points="683.636,971.606 683.633,972.594 676.316,976.845 676.319,975.858 		"/>
		<polygon fill="#FFFFFF" points="676.319,975.858 676.316,976.845 668.95,972.594 668.955,971.606 		"/>
		<polygon fill="#FFFFFF" points="683.636,971.606 676.319,975.858 668.955,971.606 676.271,967.355 		"/>
		<polygon fill="#FFFFFF" points="693.064,977.052 693.062,978.039 685.746,982.29 685.748,981.304 		"/>
		<polygon fill="#FFFFFF" points="685.748,981.304 685.746,982.29 678.381,978.039 678.385,977.052 		"/>
		<polygon fill="#FFFFFF" points="693.064,977.052 685.748,981.304 678.385,977.052 685.7,972.8 		"/>
		<polygon fill="#FFFFFF" points="702.491,982.494 702.489,983.48 695.173,987.733 695.176,986.747 		"/>
		<polygon fill="#FFFFFF" points="695.176,986.747 695.173,987.733 687.807,983.481 687.812,982.495 		"/>
		<polygon fill="#FFFFFF" points="702.491,982.494 695.176,986.747 687.812,982.494 695.128,978.242 		"/>
		<polygon fill="#FFFFFF" points="588.953,928.25 588.95,929.236 581.631,933.49 581.633,932.504 		"/>
		<polygon fill="#FFFFFF" points="581.633,932.504 581.631,933.49 574.266,929.238 574.27,928.252 		"/>
		<polygon fill="#FFFFFF" points="588.953,928.25 581.633,932.504 574.27,928.252 581.589,923.998 		"/>
		<polygon fill="#FFFFFF" points="598.38,933.691 598.378,934.678 591.058,938.933 591.061,937.946 		"/>
		<polygon fill="#FFFFFF" points="591.059,937.946 591.057,938.933 583.691,934.681 583.695,933.694 		"/>
		<polygon fill="#FFFFFF" points="598.38,933.691 591.061,937.946 583.696,933.695 591.016,929.44 		"/>
		<polygon fill="#FFFFFF" points="607.81,939.137 607.807,940.123 600.487,944.377 600.489,943.391 		"/>
		<polygon fill="#FFFFFF" points="600.489,943.391 600.487,944.377 593.122,940.126 593.125,939.14 		"/>
		<polygon fill="#FFFFFF" points="607.81,939.137 600.489,943.391 593.125,939.14 600.445,934.886 		"/>
		<polygon fill="#FFFFFF" points="617.241,944.581 617.237,945.567 609.918,949.821 609.92,948.835 		"/>
		<polygon fill="#FFFFFF" points="609.92,948.835 609.918,949.821 602.549,945.567 602.552,944.581 		"/>
		<polygon fill="#FFFFFF" points="617.241,944.581 609.92,948.835 602.552,944.581 609.871,940.327 		"/>
		<polygon fill="#FFFFFF" points="626.666,950.024 626.663,951.009 619.344,955.265 619.346,954.277 		"/>
		<polygon fill="#FFFFFF" points="619.346,954.277 619.344,955.265 611.979,951.013 611.982,950.026 		"/>
		<polygon fill="#FFFFFF" points="626.666,950.024 619.346,954.277 611.982,950.026 619.302,945.771 		"/>
		<polygon fill="#FFFFFF" points="636.096,955.468 636.094,956.454 628.774,960.708 628.776,959.722 		"/>
		<polygon fill="#FFFFFF" points="628.776,959.722 628.774,960.708 621.409,956.457 621.412,955.471 		"/>
		<polygon fill="#FFFFFF" points="636.096,955.468 628.776,959.722 621.412,955.471 628.732,951.217 		"/>
		<polygon fill="#FFFFFF" points="645.523,960.911 645.521,961.897 638.2,966.151 638.202,965.165 		"/>
		<polygon fill="#FFFFFF" points="638.202,965.165 638.2,966.151 630.835,961.899 630.839,960.913 		"/>
		<polygon fill="#FFFFFF" points="645.523,960.911 638.202,965.165 630.839,960.913 638.157,956.658 		"/>
		<polygon fill="#FFFFFF" points="654.952,966.355 654.95,967.342 647.631,971.596 647.633,970.608 		"/>
		<polygon fill="#FFFFFF" points="647.633,970.608 647.631,971.596 640.266,967.344 640.269,966.357 		"/>
		<polygon fill="#FFFFFF" points="654.952,966.355 647.633,970.608 640.269,966.357 647.589,962.104 		"/>
		<polygon fill="#FFFFFF" points="664.38,971.797 664.377,972.783 657.057,977.037 657.059,976.051 		"/>
		<polygon fill="#FFFFFF" points="657.059,976.051 657.057,977.037 649.691,972.786 649.695,971.799 		"/>
		<polygon fill="#FFFFFF" points="664.38,971.797 657.059,976.051 649.695,971.799 657.015,967.545 		"/>
		<polygon fill="#FFFFFF" points="673.809,977.242 673.807,978.228 666.486,982.481 666.489,981.495 		"/>
		<polygon fill="#FFFFFF" points="666.489,981.495 666.486,982.481 659.122,978.229 659.125,977.242 		"/>
		<polygon fill="#FFFFFF" points="673.809,977.242 666.489,981.495 659.125,977.242 666.445,972.989 		"/>
		<polygon fill="#FFFFFF" points="683.239,982.687 683.237,983.673 675.917,987.927 675.92,986.94 		"/>
		<polygon fill="#FFFFFF" points="675.92,986.94 675.916,987.927 668.548,983.673 668.55,982.687 		"/>
		<polygon fill="#FFFFFF" points="683.239,982.687 675.92,986.94 668.551,982.687 675.872,978.433 		"/>
		<polygon fill="#FFFFFF" points="692.665,988.129 692.663,989.115 685.342,993.369 685.346,992.383 		"/>
		<polygon fill="#FFFFFF" points="685.346,992.383 685.343,993.369 677.979,989.117 677.981,988.132 		"/>
		<polygon fill="#FFFFFF" points="692.665,988.129 685.346,992.383 677.981,988.132 685.302,983.876 		"/>
		<polygon fill="#FFFFFF" points="579.119,933.884 579.116,934.87 571.801,939.123 571.803,938.136 		"/>
		<polygon fill="#FFFFFF" points="571.803,938.136 571.801,939.123 564.436,934.87 564.439,933.884 		"/>
		<polygon fill="#FFFFFF" points="579.119,933.884 571.803,938.136 564.439,933.884 571.756,929.632 		"/>
		<polygon fill="#FFFFFF" points="588.55,939.329 588.547,940.315 581.231,944.567 581.233,943.581 		"/>
		<polygon fill="#FFFFFF" points="581.233,943.581 581.231,944.567 573.866,940.315 573.869,939.329 		"/>
		<polygon fill="#FFFFFF" points="588.55,939.329 581.233,943.581 573.869,939.329 581.186,935.076 		"/>
		<polygon fill="#FFFFFF" points="597.98,944.773 597.979,945.76 590.662,950.011 590.664,949.024 		"/>
		<polygon fill="#FFFFFF" points="590.664,949.024 590.662,950.011 583.293,945.757 583.296,944.771 		"/>
		<polygon fill="#FFFFFF" points="597.98,944.773 590.664,949.024 583.297,944.771 590.611,940.52 		"/>
		<polygon fill="#FFFFFF" points="647.185,973.182 647.183,974.168 639.866,978.42 639.868,977.433 		"/>
		<polygon fill="#FFFFFF" points="647.233,981.685 647.23,982.671 639.866,978.42 639.869,977.433 		"/>
		<polygon fill="#FFFFFF" points="647.233,981.685 647.23,982.671 592.723,951.201 592.725,950.215 		"/>
		<polygon fill="#FFFFFF" points="654.55,977.433 647.233,981.685 639.869,977.433 647.186,973.182 		"/>
		<polygon fill="#FFFFFF" points="654.55,977.433 654.547,978.42 647.23,982.671 647.233,981.685 		"/>
		<polygon fill="#FFFFFF" points="647.185,973.182 639.868,977.433 647.232,981.685 592.727,950.215 600.043,945.964 		"/>
		<polygon fill="#FFFFFF" points="663.979,982.877 663.977,983.864 656.66,988.115 656.663,987.129 		"/>
		<polygon fill="#FFFFFF" points="656.664,987.13 656.66,988.117 649.292,983.861 649.294,982.875 		"/>
		<polygon fill="#FFFFFF" points="663.979,982.877 656.663,987.129 649.295,982.875 656.61,978.623 		"/>
		<polygon fill="#FFFFFF" points="673.407,988.32 673.403,989.307 666.087,993.559 666.09,992.571 		"/>
		<polygon fill="#FFFFFF" points="666.09,992.571 666.087,993.559 658.723,989.307 658.726,988.32 		"/>
		<polygon fill="#FFFFFF" points="673.407,988.32 666.09,992.571 658.726,988.32 666.042,984.068 		"/>
		<polygon fill="#FFFFFF" points="682.835,993.766 682.833,994.751 675.517,999.004 675.52,998.017 		"/>
		<polygon fill="#FFFFFF" points="675.521,998.017 675.517,999.004 668.151,994.752 668.155,993.766 		"/>
		<polygon fill="#FFFFFF" points="682.835,993.766 675.52,998.017 668.155,993.766 675.472,989.513 		"/>
	</g>
</g>
</svg>
