<?xml version="1.0" encoding="utf-8"?>
<!-- Generator: Adobe Illustrator 15.0.0, SVG Export Plug-In . SVG Version: 6.00 Build 0)  -->
<!DOCTYPE svg PUBLIC "-//W3C//DTD SVG 1.1//EN" "http://www.w3.org/Graphics/SVG/1.1/DTD/svg11.dtd">
<svg version="1.1" id="Layer_1" xmlns="http://www.w3.org/2000/svg" xmlns:xlink="http://www.w3.org/1999/xlink" x="0px" y="0px"
	 width="320px" height="640px" viewBox="0 0 320 640" enable-background="new 0 0 320 640" xml:space="preserve">
<rect x="-14.401" y="-38.892" fill="#9CC4E1" width="350.982" height="550.473"/>
<rect y="389.087" fill="#6E90BA" width="320" height="255.913"/>
<path fill="#6DA1BC" d="M47.136,265.147H0v41.004v107.243h52.293h99.735v-60.812v-46.432v-13.474h-23.455v-45.428H100.11v-42.513
	H73.199v24.121H47.136V265.147z M25.354,291.967h-13v-15.596h13V291.967z M25.354,312.318h-13v-15.597h13V312.318z M25.354,332.666
	h-13v-15.594h13V332.666z M44.131,291.967h-13v-15.596h13V291.967z M44.131,312.318h-13v-15.597h13V312.318z M44.131,332.666h-13
	v-15.594h13V332.666z"/>
<path fill="#6DA1BC" d="M151.308,277.469v30.139v47.286h38.437h68.824v9.864v48.637h52.296h18.753V287.466h-23.91v36.291h-42.65
	v-16.149v-9.903h-17.242v-33.391h-20.92v-31.249H205.11v17.728h-19.158v26.676H151.308z M233.533,280.053h-5.432v-9.569h5.432
	V280.053z M289.7,375.681h13v15.596h-13V375.681z M289.7,355.331h13v15.596h-13V355.331z M289.7,334.978h13v15.598h-13V334.978z
	 M270.923,375.681h13.001v15.596h-13.001V375.681z M270.923,355.331h13.001v15.596h-13.001V355.331z M270.923,334.978h13.001v15.598
	h-13.001V334.978z M253.281,316.309h5.434v7.448h-0.146v2.121h-5.287V316.309z M253.281,302.713h5.434v9.569h-5.434V302.713z
	 M245.258,316.309h5.432v9.57h-5.432V316.309z M245.258,302.713h5.432v9.569h-5.432V302.713z M236.123,284.078h5.434v9.57h-5.434
	V284.078z M236.123,270.483h5.434v9.569h-5.434V270.483z M233.533,293.648h-5.432v-9.57h5.432V293.648z M223.78,332.207h5.432v9.57
	h-5.432V332.207z M223.78,318.612h5.432v9.569h-5.432V318.612z M215.759,332.207h5.434v9.57h-5.434V332.207z M215.759,318.612h5.434
	v9.569h-5.434V318.612z M206.623,299.978h5.432v9.57h-5.432V299.978z M206.623,286.381h5.432v9.569h-5.432V286.381z
	 M198.601,299.978h5.432v9.57h-5.432V299.978z M198.601,286.381h5.432v9.569h-5.432V286.381z M174.19,315.637h9.557v11.462h-9.557
	V315.637z M174.19,300.677h9.557v11.464h-9.557V300.677z M174.19,285.72h9.557v11.46h-9.557V285.72z M160.389,315.637h9.557v11.462
	h-9.557V315.637z M160.389,300.677h9.557v11.464h-9.557V300.677z M160.389,285.72h9.557v11.46h-9.557V285.72z"/>
<rect x="151.308" y="350.9" fill="#6DA1BC" width="110.604" height="62.494"/>
<polygon fill="#008279" points="144.081,436.826 144.087,438.68 174.547,456.381 174.541,454.527 "/>
<polygon fill="#005B54" points="174.541,454.526 174.547,456.381 229.763,424.504 229.757,422.647 "/>
<polygon fill="#2BA7AA" points="144.081,436.826 174.541,454.527 229.757,422.647 199.297,404.946 "/>
<polygon fill="#008279" points="145.621,402.817 144.017,401.887 144.118,437.112 145.721,438.043 "/>
<polygon fill="#009287" points="200.836,370.938 199.233,370.007 144.017,401.887 145.621,402.817 "/>
<polygon fill="#005B54" points="145.621,402.817 145.721,438.043 200.937,406.164 200.836,370.938 "/>
<path fill="#B7F9FE" d="M148.979,403.894c-0.461,0.266-0.834,0.914-0.834,1.443l0.082,28.806c0.002,0.53,0.378,0.745,0.84,0.48
	l49.649-28.648c0.461-0.267,0.835-0.913,0.834-1.442l-0.081-28.808c-0.002-0.529-0.38-0.744-0.84-0.478L148.979,403.894z"/>
<polygon fill="#FFFFFF" points="198.168,411.366 198.17,411.736 201.397,413.612 201.396,413.241 "/>
<polygon fill="#FFFFFF" points="201.396,413.241 201.397,413.612 204.65,411.734 204.649,411.364 "/>
<polygon fill="#FFFFFF" points="198.168,411.366 201.396,413.241 204.649,411.364 201.42,409.488 "/>
<polygon fill="#FFFFFF" points="202.146,413.678 202.147,414.05 205.379,415.927 205.378,415.556 "/>
<polygon fill="#FFFFFF" points="205.378,415.556 205.379,415.927 208.633,414.05 208.632,413.678 "/>
<polygon fill="#FFFFFF" points="202.146,413.678 205.378,415.556 208.632,413.678 205.399,411.8 "/>
<polygon fill="#FFFFFF" points="206.128,415.992 206.13,416.363 209.358,418.239 209.357,417.869 "/>
<polygon fill="#FFFFFF" points="209.357,417.869 209.359,418.239 212.611,416.361 212.61,415.99 "/>
<polygon fill="#FFFFFF" points="206.128,415.992 209.357,417.869 212.61,415.989 209.382,414.114 "/>
<polygon fill="#FFFFFF" points="210.11,418.306 210.112,418.677 213.341,420.554 213.34,420.183 "/>
<polygon fill="#FFFFFF" points="213.339,420.183 213.341,420.554 216.593,418.676 216.592,418.304 "/>
<polygon fill="#FFFFFF" points="210.11,418.306 213.34,420.183 216.592,418.304 213.363,416.429 "/>
<polygon fill="#FFFFFF" points="194.034,413.752 194.036,414.123 197.264,415.999 197.263,415.629 "/>
<polygon fill="#FFFFFF" points="197.263,415.629 197.264,415.999 200.517,414.12 200.516,413.751 "/>
<polygon fill="#FFFFFF" points="194.034,413.752 197.263,415.629 200.516,413.749 197.287,411.873 "/>
<polygon fill="#FFFFFF" points="198.014,416.063 198.015,416.435 201.246,418.313 201.246,417.941 "/>
<polygon fill="#FFFFFF" points="201.246,417.942 201.246,418.312 204.499,416.435 204.499,416.064 "/>
<polygon fill="#FFFFFF" points="198.014,416.063 201.246,417.941 204.499,416.063 201.267,414.186 "/>
<polygon fill="#FFFFFF" points="201.995,418.379 201.997,418.749 205.226,420.626 205.225,420.254 "/>
<polygon fill="#FFFFFF" points="205.225,420.254 205.226,420.625 208.478,418.747 208.478,418.377 "/>
<polygon fill="#FFFFFF" points="201.995,418.379 205.225,420.254 208.478,418.377 205.249,416.501 "/>
<polygon fill="#FFFFFF" points="205.978,420.692 205.979,421.062 209.207,422.939 209.206,422.568 "/>
<polygon fill="#FFFFFF" points="209.206,422.568 209.207,422.939 212.46,421.062 212.459,420.691 "/>
<polygon fill="#FFFFFF" points="205.978,420.692 209.206,422.568 212.46,420.691 209.23,418.815 "/>
<polygon fill="#FFFFFF" points="189.901,416.138 189.902,416.508 193.132,418.386 193.131,418.014 "/>
<polygon fill="#FFFFFF" points="193.131,418.014 193.132,418.386 196.384,416.507 196.383,416.136 "/>
<polygon fill="#FFFFFF" points="189.901,416.138 193.131,418.014 196.383,416.136 193.154,414.26 "/>
<polygon fill="#FFFFFF" points="193.88,418.45 193.881,418.821 197.114,420.7 197.112,420.327 "/>
<polygon fill="#FFFFFF" points="197.112,420.328 197.114,420.7 200.366,418.821 200.365,418.45 "/>
<polygon fill="#FFFFFF" points="193.88,418.45 197.112,420.327 200.365,418.45 197.134,416.573 "/>
<polygon fill="#FFFFFF" points="197.862,420.765 197.864,421.135 201.093,423.011 201.092,422.642 "/>
<polygon fill="#FFFFFF" points="201.092,422.641 201.093,423.011 204.345,421.134 204.345,420.763 "/>
<polygon fill="#FFFFFF" points="197.862,420.765 201.092,422.642 204.345,420.764 201.116,418.887 "/>
<polygon fill="#FFFFFF" points="201.846,423.078 201.846,423.449 205.074,425.326 205.073,424.955 "/>
<polygon fill="#FFFFFF" points="205.073,424.955 205.074,425.326 208.327,423.448 208.326,423.078 "/>
<polygon fill="#FFFFFF" points="201.846,423.078 205.073,424.955 208.326,423.078 205.098,421.201 "/>
<polygon fill="#FFFFFF" points="185.769,418.524 185.77,418.895 188.998,420.771 188.997,420.4 "/>
<polygon fill="#FFFFFF" points="188.997,420.4 188.999,420.771 192.251,418.893 192.25,418.523 "/>
<polygon fill="#FFFFFF" points="185.769,418.524 188.997,420.4 192.25,418.523 189.021,416.646 "/>
<polygon fill="#FFFFFF" points="189.748,420.837 189.749,421.207 192.981,423.085 192.979,422.715 "/>
<polygon fill="#FFFFFF" points="192.979,422.715 192.981,423.085 196.232,421.207 196.232,420.837 "/>
<polygon fill="#FFFFFF" points="189.748,420.837 192.979,422.715 196.232,420.837 193,418.959 "/>
<polygon fill="#FFFFFF" points="193.729,423.15 193.731,423.521 196.959,425.398 196.959,425.027 "/>
<polygon fill="#FFFFFF" points="196.959,425.026 196.959,425.398 200.212,423.521 200.211,423.148 "/>
<polygon fill="#FFFFFF" points="193.729,423.15 196.959,425.027 200.211,423.148 196.982,421.272 "/>
<polygon fill="#FFFFFF" points="197.712,425.465 197.713,425.835 200.94,427.712 200.94,427.341 "/>
<polygon fill="#FFFFFF" points="200.94,427.341 200.941,427.712 204.194,425.834 204.193,425.463 "/>
<polygon fill="#FFFFFF" points="197.712,425.465 200.94,427.341 204.193,425.463 200.964,423.586 "/>
<polygon fill="#FFFFFF" points="181.636,420.911 181.637,421.281 184.865,423.156 184.864,422.787 "/>
<polygon fill="#FFFFFF" points="184.864,422.786 184.866,423.156 188.119,421.28 188.118,420.908 "/>
<polygon fill="#FFFFFF" points="181.636,420.911 184.864,422.787 188.118,420.909 184.888,419.032 "/>
<polygon fill="#FFFFFF" points="185.614,423.223 185.616,423.594 188.848,425.472 188.847,425.101 "/>
<polygon fill="#FFFFFF" points="188.847,425.101 188.848,425.472 192.1,423.594 192.1,423.224 "/>
<polygon fill="#FFFFFF" points="185.614,423.223 188.847,425.101 192.1,423.223 188.867,421.344 "/>
<polygon fill="#FFFFFF" points="189.597,425.536 189.598,425.907 192.826,427.784 192.826,427.413 "/>
<polygon fill="#FFFFFF" points="192.826,427.413 192.826,427.784 196.079,425.905 196.078,425.536 "/>
<polygon fill="#FFFFFF" points="189.597,425.536 192.826,427.413 196.078,425.536 192.85,423.659 "/>
<polygon fill="#FFFFFF" points="193.578,427.851 193.579,428.222 196.809,430.098 196.808,429.728 "/>
<polygon fill="#FFFFFF" points="196.808,429.728 196.809,430.098 200.062,428.22 200.061,427.85 "/>
<polygon fill="#FFFFFF" points="193.578,427.851 196.808,429.728 200.061,427.85 196.832,425.973 "/>
<polygon fill="#FFFFFF" points="177.503,423.296 177.504,423.667 180.731,425.544 180.731,425.173 "/>
<polygon fill="#FFFFFF" points="180.731,425.173 180.733,425.544 183.982,423.667 183.981,423.296 "/>
<polygon fill="#FFFFFF" points="177.503,423.296 180.731,425.173 183.981,423.296 180.753,421.42 "/>
<polygon fill="#FFFFFF" points="181.481,425.608 181.483,425.979 184.714,427.858 184.714,427.486 "/>
<polygon fill="#FFFFFF" points="184.714,427.487 184.714,427.857 187.964,425.981 187.963,425.61 "/>
<polygon fill="#FFFFFF" points="181.481,425.608 184.714,427.486 187.963,425.611 184.731,423.732 "/>
<polygon fill="#FFFFFF" points="185.464,427.924 185.465,428.293 188.693,430.17 188.693,429.8 "/>
<polygon fill="#FFFFFF" points="188.693,429.8 188.693,430.17 191.943,428.293 191.942,427.924 "/>
<polygon fill="#FFFFFF" points="185.464,427.924 188.693,429.8 191.943,427.924 188.713,426.046 "/>
<polygon fill="#FFFFFF" points="189.445,430.237 189.446,430.607 192.676,432.484 192.676,432.113 "/>
<polygon fill="#FFFFFF" points="192.676,432.113 192.676,432.484 195.926,430.607 195.925,430.237 "/>
<polygon fill="#FFFFFF" points="189.445,430.237 192.676,432.113 195.926,430.237 192.695,428.36 "/>
<polygon fill="#FFFFFF" points="173.369,425.683 173.371,426.053 176.6,427.93 176.599,427.559 "/>
<polygon fill="#FFFFFF" points="176.599,427.559 176.6,427.93 179.85,426.053 179.849,425.683 "/>
<polygon fill="#FFFFFF" points="173.369,425.683 176.599,427.559 179.849,425.683 176.619,423.806 "/>
<polygon fill="#FFFFFF" points="177.349,427.995 177.35,428.365 180.582,430.244 180.581,429.873 "/>
<polygon fill="#FFFFFF" points="180.581,429.873 180.582,430.243 183.831,428.367 183.83,427.997 "/>
<polygon fill="#FFFFFF" points="177.349,427.995 180.581,429.873 183.831,427.997 180.599,426.118 "/>
<polygon fill="#FFFFFF" points="181.33,430.309 181.332,430.681 184.561,432.556 184.56,432.186 "/>
<polygon fill="#FFFFFF" points="184.56,432.186 184.561,432.556 187.811,430.681 187.811,430.309 "/>
<polygon fill="#FFFFFF" points="181.33,430.309 184.56,432.186 187.811,430.309 184.58,428.433 "/>
<polygon fill="#FFFFFF" points="185.312,432.623 185.314,432.993 188.542,434.87 188.542,434.5 "/>
<polygon fill="#FFFFFF" points="188.542,434.5 188.543,434.87 191.793,432.993 191.791,432.622 "/>
<polygon fill="#FFFFFF" points="185.312,432.623 188.542,434.5 191.791,432.623 188.562,430.747 "/>
<polygon fill="#FFFFFF" points="169.236,428.068 169.238,428.438 172.467,430.315 172.466,429.945 "/>
<polygon fill="#FFFFFF" points="172.466,429.945 172.467,430.315 175.717,428.438 175.716,428.068 "/>
<polygon fill="#FFFFFF" points="169.236,428.068 172.466,429.945 175.716,428.068 172.487,426.192 "/>
<polygon fill="#FFFFFF" points="173.217,430.382 173.217,430.751 176.448,432.63 176.447,432.26 "/>
<polygon fill="#FFFFFF" points="176.448,432.26 176.449,432.63 179.699,430.754 179.697,430.383 "/>
<polygon fill="#FFFFFF" points="173.217,430.382 176.447,432.26 179.697,430.383 176.465,428.505 "/>
<polygon fill="#FFFFFF" points="177.198,432.695 177.199,433.066 180.428,434.942 180.427,434.572 "/>
<polygon fill="#FFFFFF" points="180.426,434.572 180.428,434.942 183.678,433.066 183.676,432.695 "/>
<polygon fill="#FFFFFF" points="177.198,432.695 180.427,434.572 183.677,432.695 180.447,430.818 "/>
<polygon fill="#FFFFFF" points="181.18,435.01 181.182,435.38 184.409,437.257 184.409,436.885 "/>
<polygon fill="#FFFFFF" points="184.408,436.885 184.409,437.257 187.659,435.38 187.658,435.01 "/>
<polygon fill="#FFFFFF" points="181.18,435.01 184.409,436.885 187.658,435.01 184.43,433.133 "/>
<polygon fill="#FFFFFF" points="165.104,430.455 165.104,430.826 168.333,432.702 168.333,432.331 "/>
<polygon fill="#FFFFFF" points="168.333,432.331 168.333,432.702 171.584,430.826 171.582,430.455 "/>
<polygon fill="#FFFFFF" points="165.104,430.455 168.333,432.331 171.582,430.455 168.354,428.578 "/>
<polygon fill="#FFFFFF" points="169.083,432.767 169.084,433.138 172.315,435.016 172.314,434.645 "/>
<polygon fill="#FFFFFF" points="172.314,434.645 172.315,435.016 175.566,433.139 175.564,432.769 "/>
<polygon fill="#FFFFFF" points="169.083,432.767 172.314,434.645 175.564,432.769 172.333,430.891 "/>
<polygon fill="#FFFFFF" points="173.064,435.081 173.066,435.452 176.295,437.328 176.294,436.958 "/>
<polygon fill="#FFFFFF" points="176.294,436.958 176.295,437.328 179.544,435.452 179.543,435.081 "/>
<polygon fill="#FFFFFF" points="173.064,435.081 176.294,436.958 179.543,435.081 176.315,433.206 "/>
<polygon fill="#FFFFFF" points="177.047,437.396 177.049,437.766 180.276,439.643 180.275,439.272 "/>
<polygon fill="#FFFFFF" points="180.275,439.272 180.276,439.643 183.526,437.766 183.524,437.396 "/>
<polygon fill="#FFFFFF" points="177.047,437.396 180.275,439.272 183.524,437.396 180.297,435.519 "/>
<polygon fill="#FFFFFF" points="160.971,432.841 160.973,433.212 164.2,435.089 164.199,434.718 "/>
<polygon fill="#FFFFFF" points="164.199,434.718 164.201,435.089 167.451,433.211 167.449,432.841 "/>
<polygon fill="#FFFFFF" points="160.971,432.841 164.199,434.718 167.449,432.841 164.221,430.964 "/>
<polygon fill="#FFFFFF" points="164.95,435.154 164.951,435.523 168.183,437.402 168.181,437.031 "/>
<polygon fill="#FFFFFF" points="168.182,437.031 168.184,437.402 171.433,435.525 171.432,435.155 "/>
<polygon fill="#FFFFFF" points="164.95,435.154 168.181,437.031 171.431,435.155 168.199,433.277 "/>
<polygon fill="#FFFFFF" points="168.932,437.468 168.933,437.839 172.162,439.714 172.162,439.344 "/>
<polygon fill="#FFFFFF" points="172.161,439.344 172.162,439.714 175.411,437.838 175.41,437.468 "/>
<polygon fill="#FFFFFF" points="168.932,437.468 172.162,439.344 175.41,437.468 172.182,435.592 "/>
<polygon fill="#FFFFFF" points="172.913,439.781 172.915,440.152 176.144,442.029 176.144,441.658 "/>
<polygon fill="#FFFFFF" points="176.144,441.658 176.145,442.029 179.394,440.152 179.393,439.781 "/>
<polygon fill="#FFFFFF" points="172.913,439.781 176.144,441.658 179.393,439.781 176.164,437.904 "/>
<polygon fill="#FFFFFF" points="156.838,435.228 156.839,435.598 160.067,437.474 160.066,437.104 "/>
<polygon fill="#FFFFFF" points="160.066,437.104 160.067,437.474 163.318,435.598 163.316,435.228 "/>
<polygon fill="#FFFFFF" points="156.838,435.228 160.066,437.104 163.316,435.228 160.087,433.352 "/>
<polygon fill="#FFFFFF" points="160.816,437.539 160.817,437.91 164.05,439.788 164.049,439.418 "/>
<polygon fill="#FFFFFF" points="164.049,439.419 164.05,439.788 167.3,437.912 167.299,437.541 "/>
<polygon fill="#FFFFFF" points="160.816,437.539 164.049,439.418 167.299,437.542 164.066,435.663 "/>
<polygon fill="#FFFFFF" points="164.799,439.854 164.8,440.225 168.029,442.101 168.028,441.73 "/>
<polygon fill="#FFFFFF" points="168.028,441.73 168.029,442.101 171.279,440.225 171.277,439.854 "/>
<polygon fill="#FFFFFF" points="164.799,439.854 168.028,441.73 171.277,439.854 168.049,437.978 "/>
<polygon fill="#FFFFFF" points="168.78,442.167 168.781,442.538 172.011,444.415 172.01,444.044 "/>
<polygon fill="#FFFFFF" points="172.01,444.044 172.012,444.415 175.262,442.538 175.26,442.167 "/>
<polygon fill="#FFFFFF" points="168.78,442.167 172.01,444.044 175.26,442.167 172.03,440.291 "/>
<polygon fill="#FFFFFF" points="152.705,437.613 152.706,437.983 155.934,439.861 155.934,439.489 "/>
<polygon fill="#FFFFFF" points="155.934,439.489 155.936,439.861 159.185,437.983 159.184,437.613 "/>
<polygon fill="#FFFFFF" points="152.705,437.613 155.934,439.489 159.184,437.613 155.954,435.738 "/>
<polygon fill="#FFFFFF" points="156.684,439.925 156.686,440.297 159.918,442.176 159.916,441.803 "/>
<polygon fill="#FFFFFF" points="159.916,441.804 159.918,442.175 163.167,440.298 163.166,439.927 "/>
<polygon fill="#FFFFFF" points="156.684,439.925 159.916,441.803 163.166,439.928 159.934,438.05 "/>
<polygon fill="#FFFFFF" points="160.666,442.239 160.666,442.61 163.896,444.486 163.896,444.117 "/>
<polygon fill="#FFFFFF" points="163.896,444.116 163.896,444.486 167.146,442.61 167.145,442.239 "/>
<polygon fill="#FFFFFF" points="160.666,442.239 163.896,444.117 167.145,442.239 163.915,440.363 "/>
<polygon fill="#FFFFFF" points="164.648,444.556 164.649,444.925 167.877,446.801 167.877,446.431 "/>
<polygon fill="#FFFFFF" points="167.877,446.431 167.877,446.801 171.128,444.925 171.127,444.556 "/>
<polygon fill="#FFFFFF" points="164.648,444.556 167.877,446.431 171.127,444.556 167.897,442.678 "/>
<g>
	<g>
		<defs>
			<path id="SVGID_1_" d="M205.371,434.058l0.002,0.385c0.018-0.013,0.027-0.025,0.027-0.04l-0.001-0.384
				C205.399,434.033,205.391,434.047,205.371,434.058"/>
		</defs>
		<clipPath id="SVGID_2_">
			<use xlink:href="#SVGID_1_"  overflow="visible"/>
		</clipPath>
		<path clip-path="url(#SVGID_2_)" fill="#1B1B1B" d="M205.371,434.058l0.002,0.385c0.018-0.012,0.027-0.025,0.027-0.04v-0.383
			C205.4,434.034,205.391,434.047,205.371,434.058"/>
	</g>
</g>
<g>
	<g>
		<defs>
			<path id="SVGID_3_" d="M187.755,437.336c0,0.015,0.009,0.028,0.026,0.039l-0.003-0.384c-0.016-0.01-0.025-0.024-0.025-0.038
				L187.755,437.336z"/>
		</defs>
		<clipPath id="SVGID_4_">
			<use xlink:href="#SVGID_3_"  overflow="visible"/>
		</clipPath>
		<rect x="187.754" y="436.953" clip-path="url(#SVGID_4_)" fill="#1E1E1E" width="0.001" height="0.384"/>
	</g>
	<g>
		<defs>
			<path id="SVGID_5_" d="M187.755,437.336c0,0.015,0.009,0.028,0.026,0.039l-0.003-0.384c-0.016-0.01-0.025-0.024-0.025-0.038
				L187.755,437.336z"/>
		</defs>
		<clipPath id="SVGID_6_">
			<use xlink:href="#SVGID_5_"  overflow="visible"/>
		</clipPath>
		<polyline clip-path="url(#SVGID_6_)" fill="#1F1F1F" points="187.754,436.953 187.755,437.337 187.756,437.343 187.755,436.96 
			187.754,436.953 		"/>
	</g>
	<g>
		<defs>
			<path id="SVGID_7_" d="M187.755,437.336c0,0.015,0.009,0.028,0.026,0.039l-0.003-0.384c-0.016-0.01-0.025-0.024-0.025-0.038
				L187.755,437.336z"/>
		</defs>
		<clipPath id="SVGID_8_">
			<use xlink:href="#SVGID_7_"  overflow="visible"/>
		</clipPath>
		<polyline clip-path="url(#SVGID_8_)" fill="#202020" points="187.755,436.96 187.756,437.343 187.757,437.349 187.756,436.966 
			187.755,436.96 		"/>
	</g>
	<g>
		<defs>
			<path id="SVGID_9_" d="M187.755,437.336c0,0.015,0.009,0.028,0.026,0.039l-0.003-0.384c-0.016-0.01-0.025-0.024-0.025-0.038
				L187.755,437.336z"/>
		</defs>
		<clipPath id="SVGID_10_">
			<use xlink:href="#SVGID_9_"  overflow="visible"/>
		</clipPath>
		<polyline clip-path="url(#SVGID_10_)" fill="#212121" points="187.756,436.965 187.758,437.349 187.761,437.354 187.759,436.97 
			187.756,436.965 		"/>
	</g>
	<g>
		<defs>
			<path id="SVGID_11_" d="M187.755,437.336c0,0.015,0.009,0.028,0.026,0.039l-0.003-0.384c-0.016-0.01-0.025-0.024-0.025-0.038
				L187.755,437.336z"/>
		</defs>
		<clipPath id="SVGID_12_">
			<use xlink:href="#SVGID_11_"  overflow="visible"/>
		</clipPath>
		<polyline clip-path="url(#SVGID_12_)" fill="#222222" points="187.759,436.971 187.761,437.354 187.764,437.359 187.763,436.977 
			187.759,436.971 		"/>
	</g>
	<g>
		<defs>
			<path id="SVGID_13_" d="M187.755,437.336c0,0.015,0.009,0.028,0.026,0.039l-0.003-0.384c-0.016-0.01-0.025-0.024-0.025-0.038
				L187.755,437.336z"/>
		</defs>
		<clipPath id="SVGID_14_">
			<use xlink:href="#SVGID_13_"  overflow="visible"/>
		</clipPath>
		<polyline clip-path="url(#SVGID_14_)" fill="#232323" points="187.763,436.977 187.764,437.359 187.769,437.366 187.768,436.982 
			187.763,436.977 		"/>
	</g>
	<g>
		<defs>
			<path id="SVGID_15_" d="M187.755,437.336c0,0.015,0.009,0.028,0.026,0.039l-0.003-0.384c-0.016-0.01-0.025-0.024-0.025-0.038
				L187.755,437.336z"/>
		</defs>
		<clipPath id="SVGID_16_">
			<use xlink:href="#SVGID_15_"  overflow="visible"/>
		</clipPath>
		<path clip-path="url(#SVGID_16_)" fill="#242424" d="M187.768,436.982l0.002,0.384c0.003,0.003,0.007,0.005,0.01,0.008v-0.383
			C187.775,436.987,187.771,436.984,187.768,436.982"/>
	</g>
	<g>
		<defs>
			<path id="SVGID_17_" d="M187.755,437.336c0,0.015,0.009,0.028,0.026,0.039l-0.003-0.384c-0.016-0.01-0.025-0.024-0.025-0.038
				L187.755,437.336z"/>
		</defs>
		<clipPath id="SVGID_18_">
			<use xlink:href="#SVGID_17_"  overflow="visible"/>
		</clipPath>
		<polyline clip-path="url(#SVGID_18_)" fill="#252525" points="187.778,436.99 187.779,437.374 187.781,437.374 187.779,436.991 
			187.778,436.99 		"/>
	</g>
</g>
<polygon fill="#272727" points="187.779,436.991 187.781,437.374 193.95,440.96 193.949,440.576 "/>
<polygon fill="#1B1B1B" points="194.082,440.576 194.083,440.96 205.373,434.442 205.371,434.058 "/>
<g>
	<g>
		<defs>
			<path id="SVGID_19_" d="M193.949,440.576l0.002,0.384c0.036,0.021,0.098,0.02,0.132,0v-0.384
				C194.047,440.597,193.986,440.597,193.949,440.576"/>
		</defs>
		<clipPath id="SVGID_20_">
			<use xlink:href="#SVGID_19_"  overflow="visible"/>
		</clipPath>
		<path clip-path="url(#SVGID_20_)" fill="#252525" d="M193.949,440.576l0.002,0.384c0.005,0.004,0.012,0.006,0.02,0.008
			l-0.002-0.384C193.963,440.584,193.954,440.579,193.949,440.576"/>
	</g>
	<g>
		<defs>
			<path id="SVGID_21_" d="M193.949,440.576l0.002,0.384c0.036,0.021,0.098,0.02,0.132,0v-0.384
				C194.047,440.597,193.986,440.597,193.949,440.576"/>
		</defs>
		<clipPath id="SVGID_22_">
			<use xlink:href="#SVGID_21_"  overflow="visible"/>
		</clipPath>
		<path clip-path="url(#SVGID_22_)" fill="#242424" d="M193.969,440.585l0.001,0.383c0.006,0.002,0.012,0.004,0.018,0.006
			l-0.001-0.384C193.98,440.588,193.975,440.587,193.969,440.585"/>
	</g>
	<g>
		<defs>
			<path id="SVGID_23_" d="M193.949,440.576l0.002,0.384c0.036,0.021,0.098,0.02,0.132,0v-0.384
				C194.047,440.597,193.986,440.597,193.949,440.576"/>
		</defs>
		<clipPath id="SVGID_24_">
			<use xlink:href="#SVGID_23_"  overflow="visible"/>
		</clipPath>
		<path clip-path="url(#SVGID_24_)" fill="#232323" d="M193.987,440.59l0.001,0.383c0.003,0.002,0.007,0.002,0.012,0.003
			l-0.002-0.385C193.994,440.591,193.99,440.59,193.987,440.59"/>
	</g>
	<g>
		<defs>
			<path id="SVGID_25_" d="M193.949,440.576l0.002,0.384c0.036,0.021,0.098,0.02,0.132,0v-0.384
				C194.047,440.597,193.986,440.597,193.949,440.576"/>
		</defs>
		<clipPath id="SVGID_26_">
			<use xlink:href="#SVGID_25_"  overflow="visible"/>
		</clipPath>
		<path clip-path="url(#SVGID_26_)" fill="#222222" d="M193.998,440.591l0.002,0.384c0.004,0.001,0.006,0.001,0.011,0.001
			l-0.001-0.384C194.006,440.592,194.002,440.592,193.998,440.591"/>
	</g>
	<g>
		<defs>
			<path id="SVGID_27_" d="M193.949,440.576l0.002,0.384c0.036,0.021,0.098,0.02,0.132,0v-0.384
				C194.047,440.597,193.986,440.597,193.949,440.576"/>
		</defs>
		<clipPath id="SVGID_28_">
			<use xlink:href="#SVGID_27_"  overflow="visible"/>
		</clipPath>
		<polyline clip-path="url(#SVGID_28_)" fill="#212121" points="194.01,440.592 194.011,440.976 194.02,440.976 194.019,440.592 
			194.01,440.592 		"/>
	</g>
	<g>
		<defs>
			<path id="SVGID_29_" d="M193.949,440.576l0.002,0.384c0.036,0.021,0.098,0.02,0.132,0v-0.384
				C194.047,440.597,193.986,440.597,193.949,440.576"/>
		</defs>
		<clipPath id="SVGID_30_">
			<use xlink:href="#SVGID_29_"  overflow="visible"/>
		</clipPath>
		<polyline clip-path="url(#SVGID_30_)" fill="#202020" points="194.019,440.592 194.021,440.976 194.029,440.976 194.027,440.591 
			194.019,440.592 		"/>
	</g>
	<g>
		<defs>
			<path id="SVGID_31_" d="M193.949,440.576l0.002,0.384c0.036,0.021,0.098,0.02,0.132,0v-0.384
				C194.047,440.597,193.986,440.597,193.949,440.576"/>
		</defs>
		<clipPath id="SVGID_32_">
			<use xlink:href="#SVGID_31_"  overflow="visible"/>
		</clipPath>
		<polyline clip-path="url(#SVGID_32_)" fill="#1F1F1F" points="194.028,440.591 194.029,440.975 194.039,440.975 194.039,440.59 
			194.028,440.591 		"/>
	</g>
	<g>
		<defs>
			<path id="SVGID_33_" d="M193.949,440.576l0.002,0.384c0.036,0.021,0.098,0.02,0.132,0v-0.384
				C194.047,440.597,193.986,440.597,193.949,440.576"/>
		</defs>
		<clipPath id="SVGID_34_">
			<use xlink:href="#SVGID_33_"  overflow="visible"/>
		</clipPath>
		<path clip-path="url(#SVGID_34_)" fill="#1E1E1E" d="M194.039,440.591v0.384c0.004,0,0.007-0.002,0.01-0.002l-0.001-0.385
			C194.045,440.588,194.042,440.59,194.039,440.591"/>
	</g>
	<g>
		<defs>
			<path id="SVGID_35_" d="M193.949,440.576l0.002,0.384c0.036,0.021,0.098,0.02,0.132,0v-0.384
				C194.047,440.597,193.986,440.597,193.949,440.576"/>
		</defs>
		<clipPath id="SVGID_36_">
			<use xlink:href="#SVGID_35_"  overflow="visible"/>
		</clipPath>
		<path clip-path="url(#SVGID_36_)" fill="#1D1D1D" d="M194.048,440.588l0.001,0.384c0.003,0,0.006-0.001,0.011-0.002l-0.002-0.385
			C194.054,440.587,194.051,440.587,194.048,440.588"/>
	</g>
	<g>
		<defs>
			<path id="SVGID_37_" d="M193.949,440.576l0.002,0.384c0.036,0.021,0.098,0.02,0.132,0v-0.384
				C194.047,440.597,193.986,440.597,193.949,440.576"/>
		</defs>
		<clipPath id="SVGID_38_">
			<use xlink:href="#SVGID_37_"  overflow="visible"/>
		</clipPath>
		<path clip-path="url(#SVGID_38_)" fill="#1C1C1C" d="M194.058,440.585l0.002,0.384c0.004-0.001,0.007-0.002,0.012-0.003
			l-0.002-0.384C194.065,440.584,194.062,440.584,194.058,440.585"/>
	</g>
	<g>
		<defs>
			<path id="SVGID_39_" d="M193.949,440.576l0.002,0.384c0.036,0.021,0.098,0.02,0.132,0v-0.384
				C194.047,440.597,193.986,440.597,193.949,440.576"/>
		</defs>
		<clipPath id="SVGID_40_">
			<use xlink:href="#SVGID_39_"  overflow="visible"/>
		</clipPath>
		<path clip-path="url(#SVGID_40_)" fill="#1B1B1B" d="M194.069,440.582l0.002,0.384c0.005-0.001,0.008-0.003,0.012-0.006v-0.384
			C194.077,440.578,194.074,440.581,194.069,440.582"/>
	</g>
</g>
<path fill="#2C2C2C" d="M187.779,436.914c-0.034,0.02-0.035,0.058,0,0.077l6.17,3.585c0.037,0.021,0.099,0.021,0.133,0l11.289-6.519
	c0.038-0.021,0.038-0.055,0.001-0.076l-6.17-3.585c-0.034-0.021-0.096-0.021-0.134,0L187.779,436.914z"/>
<path fill="#1B7289" d="M173.977,343.515c-1.72-0.996-4.516-0.994-6.238,0.002l-27.566,15.912c-1.723,0.997-1.724,2.609-0.004,3.604
	l11.639,6.721c1.722,0.992,4.521,0.992,6.243-0.001l27.564-15.917c1.722-0.993,1.722-2.609,0-3.603L173.977,343.515z"/>
<polygon fill="#1B7289" points="154.71,370.322 138.878,361.167 138.878,357.982 154.71,367.138 "/>
<polygon fill="#1B7289" points="155.238,370.498 186.903,352.187 186.903,348.852 155.238,367.163 "/>
<path fill="#2C88A8" d="M173.977,340.33c-1.72-0.995-4.516-0.992-6.238,0.003l-27.566,15.912c-1.723,0.997-1.724,2.608-0.004,3.604
	l11.639,6.72c1.722,0.993,4.521,0.993,6.243,0l27.564-15.917c1.722-0.993,1.722-2.611,0-3.603L173.977,340.33z"/>
<path fill="#FFFFFF" d="M151.262,363.066l-5.068-2.927c-0.4-0.231-1.048-0.232-1.449,0c-0.4,0.23-0.4,0.606,0,0.836l5.069,2.927
	c0.401,0.23,1.05,0.23,1.448,0C151.664,363.671,151.663,363.294,151.262,363.066"/>
<path fill="#2BA7AA" d="M149.777,362.626l-2.825-1.63c-0.201-0.114-0.522-0.115-0.723-0.001c-0.2,0.116-0.2,0.303,0,0.419
	l2.822,1.63c0.2,0.114,0.526,0.114,0.726,0C149.977,362.928,149.977,362.742,149.777,362.626"/>
<path fill="#FFFFFF" d="M176.325,343.194l4.289,2.477c0.107,0.062,0.031,0.204-0.168,0.32c-0.2,0.114-0.448,0.163-0.556,0.098
	l-4.29-2.477c-0.113-0.065-0.034-0.207,0.167-0.322C175.967,343.175,176.213,343.13,176.325,343.194"/>
<path fill="#B7F9FE" d="M183.962,350.049l-26.096,15.066c-0.123,0.071-0.325,0.074-0.454,0l-14.467-8.352
	c-0.122-0.069-0.119-0.188,0.005-0.259l26.098-15.066c0.124-0.073,0.322-0.073,0.446-0.003l14.466,8.353
	C184.088,349.86,184.086,349.978,183.962,350.049"/>
<polygon fill="#2A383D" points="145.448,367.636 142.23,365.776 142.23,364.868 144.942,363.302 148.161,365.161 148.161,366.092 
	"/>
<polygon fill="#263238" points="145.448,366.726 142.23,364.868 144.942,363.302 148.161,365.161 "/>
<polygon fill="#334349" points="145.448,366.726 143.791,365.769 146.503,364.212 148.161,365.169 "/>
<path fill="#0F414F" d="M140.243,368.644c0.519,0,1.039-0.116,1.442-0.35l2.645-1.538l0.001-0.456l-0.458-0.106l-2.55,1.474
	c-0.582,0.337-1.567,0.339-2.15,0.005l-12.142-6.958c-0.214-0.123-0.337-0.271-0.337-0.408c0-0.137,0.122-0.285,0.335-0.409
	l41.786-24.124c0.581-0.336,1.565-0.336,2.146,0l28.408,16.4c0.214,0.124,0.337,0.274,0.337,0.412s-0.123,0.287-0.337,0.41
	l-10.407,6.009l0.362,0.627l10.407-6.009c0.444-0.256,0.698-0.634,0.698-1.037s-0.254-0.781-0.698-1.039l-28.408-16.401
	c-0.805-0.465-2.066-0.465-2.872,0l-41.786,24.124c-0.444,0.257-0.699,0.636-0.698,1.039c0.001,0.402,0.257,0.779,0.702,1.034
	l12.141,6.958C139.214,368.529,139.729,368.644,140.243,368.644"/>
<path fill="#14546B" d="M140.243,368.183c0.52,0,1.039-0.116,1.442-0.351l2.646-1.532l-0.721-0.416l-2.287,1.321
	c-0.582,0.336-1.566,0.337-2.15,0.004l-12.141-6.957c-0.214-0.122-0.337-0.271-0.337-0.408c0-0.136,0.122-0.284,0.335-0.408
	l41.786-24.127c0.581-0.335,1.564-0.335,2.146,0l28.409,16.402c0.213,0.123,0.336,0.273,0.336,0.411c0,0.137-0.122,0.287-0.336,0.41
	l-10.407,6.008l0.361,0.628l10.408-6.009c0.443-0.257,0.697-0.634,0.697-1.037c0-0.404-0.253-0.783-0.697-1.039l-28.409-16.4
	c-0.805-0.466-2.065-0.466-2.871,0l-41.786,24.124c-0.444,0.257-0.699,0.636-0.698,1.038c0.001,0.403,0.256,0.78,0.702,1.035
	l12.142,6.956C139.214,368.067,139.729,368.183,140.243,368.183"/>
<polygon fill="#263238" points="191.25,359.877 188.617,358.354 191.543,356.666 194.178,357.579 194.178,358.186 "/>
<polygon fill="#263238" points="191.25,359.269 188.617,357.748 191.543,356.058 194.178,357.579 "/>
<g opacity="0.5">
	<g>
		<g>
			<defs>
				<rect id="SVGID_41_" x="191.449" y="356.849" width="2.729" height="1.575"/>
			</defs>
			<clipPath id="SVGID_42_">
				<use xlink:href="#SVGID_41_"  overflow="visible"/>
			</clipPath>
			<polygon clip-path="url(#SVGID_42_)" fill="#FFFFFF" points="191.449,357.691 192.715,358.424 194.178,357.579 192.912,356.848 
							"/>
		</g>
	</g>
</g>
<polygon fill="#14546B" points="188.072,363.986 182.165,360.575 182.165,359.513 188.797,356.746 194.704,359.097 194.704,360.158 
	"/>
<polygon fill="#263238" points="184.447,365.158 179.984,362.58 179.984,362.126 183.16,360.746 187.622,362.87 187.622,363.324 "/>
<polygon fill="#263238" points="184.447,364.702 179.984,362.125 183.16,360.292 187.622,362.87 "/>
<polygon fill="#FFFFFF" points="182.38,362.699 181.403,362.136 182.037,361.771 183.014,362.332 "/>
<polygon fill="#FFFFFF" points="184.429,363.883 183.451,363.32 184.087,362.954 185.063,363.52 "/>
<g opacity="0.5">
	<g>
		<g>
			<defs>
				<rect id="SVGID_43_" x="182.217" y="361.581" width="5.405" height="3.121"/>
			</defs>
			<clipPath id="SVGID_44_">
				<use xlink:href="#SVGID_43_"  overflow="visible"/>
			</clipPath>
			<polygon clip-path="url(#SVGID_44_)" fill="#FFFFFF" points="185.392,361.581 187.622,362.869 184.445,364.702 182.216,363.414 
							"/>
		</g>
	</g>
</g>
<polygon fill="#14546B" points="188.072,362.923 182.165,359.514 188.797,355.686 194.704,359.097 "/>
<g opacity="0.5">
	<g>
		<g>
			<defs>
				<rect id="SVGID_45_" x="185.117" y="357.391" width="9.587" height="5.533"/>
			</defs>
			<clipPath id="SVGID_46_">
				<use xlink:href="#SVGID_45_"  overflow="visible"/>
			</clipPath>
			<polygon clip-path="url(#SVGID_46_)" fill="#FFFFFF" points="185.117,361.219 188.072,362.923 194.705,359.097 191.751,357.391 
							"/>
		</g>
	</g>
</g>
<path fill="#536A7C" d="M226.356,402.947L226.356,402.947v-0.551l0.766,0.085l7.771-4.487c0.037-0.021,0.095-0.021,0.132,0
	l5.334,3.08l0.64-0.16v0.562l-0.006,0.003c-0.003,0.009-0.01,0.018-0.021,0.023l-1.581,0.913l-0.004,0.003l-1.446,0.835
	c-0.037,0.022-0.109,0.037-0.16,0.036l-0.585-0.007c-0.051,0-0.121,0.016-0.157,0.038l-0.295,0.176v0.426v0.001
	c-0.001,0.015-0.011,0.028-0.029,0.039l-0.694,0.399c-0.036,0.02-0.106,0.037-0.158,0.035l-1.258-0.032
	c-0.05-0.002-0.12,0.015-0.157,0.035l-2.738,1.582c-0.036,0.021-0.095,0.021-0.13,0l-5.194-2.999
	C226.365,402.973,226.356,402.959,226.356,402.947"/>
<g opacity="0.3">
	<g>
		<g>
			<defs>
				<rect id="SVGID_47_" x="227.122" y="397.978" width="13.875" height="8.02"/>
			</defs>
			<clipPath id="SVGID_48_">
				<use xlink:href="#SVGID_47_"  overflow="visible"/>
			</clipPath>
			<path clip-path="url(#SVGID_48_)" fill="#FFFFFF" d="M228.911,403.894l-1.789-1.412l7.771-4.488c0.035-0.021,0.094-0.021,0.132,0
				l5.334,3.079l0.639-0.158v0.562l-0.005,0.002c-0.003,0.01-0.01,0.017-0.021,0.023l-1.581,0.914l-0.004,0.003l-1.446,0.834
				c-0.037,0.021-0.109,0.037-0.16,0.037l-0.585-0.008c-0.051,0-0.121,0.016-0.157,0.038l-0.295,0.176v0.425v0.002
				c-0.001,0.015-0.011,0.029-0.029,0.038l-0.694,0.399c-0.037,0.021-0.106,0.037-0.159,0.036l-1.257-0.033
				c-0.051-0.001-0.122,0.016-0.158,0.036l-2.739,1.583c-0.035,0.021-0.094,0.021-0.13,0l-2.665-1.538L228.911,403.894
				L228.911,403.894z"/>
		</g>
	</g>
</g>
<g opacity="0.6">
	<g>
		<g>
			<defs>
				<rect id="SVGID_49_" x="226.355" y="397.429" width="14.642" height="8.019"/>
			</defs>
			<clipPath id="SVGID_50_">
				<use xlink:href="#SVGID_49_"  overflow="visible"/>
			</clipPath>
			<path clip-path="url(#SVGID_50_)" fill="#6C8193" d="M240.971,400.876l-5.946-3.433c-0.037-0.021-0.095-0.021-0.132,0
				l-8.511,4.913c-0.036,0.022-0.036,0.057,0,0.076l5.194,2.998c0.035,0.021,0.095,0.021,0.13,0l2.739-1.581
				c0.035-0.021,0.106-0.038,0.158-0.036l1.256,0.033c0.052,0.001,0.122-0.016,0.159-0.035l0.694-0.4
				c0.036-0.022,0.038-0.057,0.006-0.079l-0.259-0.146c-0.032-0.022-0.003-0.071,0.032-0.092l0.544-0.322
				c0.035-0.022,0.106-0.039,0.157-0.039l0.586,0.008c0.051,0,0.122-0.015,0.158-0.037l3.032-1.751
				C241.007,400.933,241.007,400.898,240.971,400.876"/>
		</g>
	</g>
</g>
<path fill="#263238" d="M240.971,400.876l-5.946-3.433c-0.037-0.021-0.095-0.021-0.132,0l-8.511,4.913
	c-0.036,0.022-0.036,0.057,0,0.076l5.194,2.998c0.035,0.021,0.095,0.021,0.13,0l2.739-1.581c0.035-0.021,0.106-0.038,0.158-0.036
	l1.256,0.033c0.052,0.001,0.122-0.016,0.159-0.035l0.694-0.4c0.036-0.022,0.038-0.057,0.006-0.079l-0.259-0.146
	c-0.032-0.022-0.003-0.071,0.032-0.092l0.544-0.322c0.035-0.022,0.106-0.039,0.157-0.039l0.586,0.008
	c0.051,0,0.122-0.015,0.158-0.037l3.032-1.751C241.007,400.933,241.007,400.898,240.971,400.876"/>
<path fill="#FFEB3B" d="M227.375,402.644c-0.074-0.044-0.074-0.113,0-0.156l2.097-1.211c0.075-0.044,0.196-0.044,0.271,0
	l0.451,0.261c0.074,0.042,0.075,0.112,0,0.156l-2.096,1.21c-0.075,0.044-0.197,0.044-0.271,0L227.375,402.644z"/>
<path fill="#FFEB3B" d="M228.457,403.269c-0.074-0.043-0.074-0.113,0-0.156l2.097-1.211c0.075-0.043,0.196-0.044,0.271,0
	l0.452,0.261c0.073,0.044,0.074,0.112,0,0.156l-2.098,1.211c-0.074,0.043-0.196,0.043-0.271,0L228.457,403.269z"/>
<path fill="#FFEB3B" d="M229.54,403.894c-0.075-0.044-0.075-0.113,0-0.158l2.098-1.21c0.073-0.044,0.194-0.044,0.271,0l0.45,0.262
	c0.075,0.042,0.074,0.112,0,0.155l-2.097,1.211c-0.075,0.044-0.196,0.044-0.271,0L229.54,403.894z"/>
<path fill="#FFEB3B" d="M230.622,404.517c-0.073-0.041-0.073-0.111,0.001-0.154l2.097-1.213c0.074-0.042,0.195-0.042,0.271,0
	l0.451,0.262c0.074,0.043,0.074,0.113,0,0.156l-2.096,1.211c-0.076,0.043-0.197,0.043-0.272,0L230.622,404.517z"/>
<g opacity="0.6">
	<g>
		<g>
			<defs>
				<rect id="SVGID_51_" x="236.453" y="402.699" width="13.872" height="8.729"/>
			</defs>
			<clipPath id="SVGID_52_">
				<use xlink:href="#SVGID_51_"  overflow="visible"/>
			</clipPath>
			<path clip-path="url(#SVGID_52_)" fill="#6C8193" d="M236.492,406.869l-0.039,1.466c-0.001,0.035,0.022,0.07,0.064,0.095
				l5.132,2.963c0.088,0.05,0.23,0.05,0.318,0l8.289-4.786c0.089-0.052,0.089-0.134,0-0.185l-6.379-3.684
				c-0.089-0.051-0.23-0.051-0.319,0l-7,4.041C236.518,406.804,236.492,406.836,236.492,406.869"/>
		</g>
	</g>
</g>
<path fill="#536A7C" d="M236.492,407.42c0.002-0.034,0.025-0.066,0.066-0.09l7.001-4.042c0.089-0.052,0.23-0.052,0.319,0
	l6.028,3.479l0.414-0.242v0.525c0.009,0.036-0.014,0.075-0.063,0.104l-8.289,4.786c-0.089,0.051-0.23,0.051-0.318,0l-5.132-2.962
	c-0.042-0.025-0.065-0.059-0.064-0.094L236.492,407.42z"/>
<path fill="#263238" d="M236.492,406.869l-0.039,1.466c-0.001,0.035,0.022,0.07,0.064,0.095l5.132,2.963
	c0.088,0.05,0.23,0.05,0.318,0l8.289-4.786c0.089-0.052,0.089-0.134,0-0.185l-6.379-3.684c-0.089-0.051-0.23-0.051-0.319,0l-7,4.041
	C236.518,406.804,236.492,406.836,236.492,406.869"/>
<g opacity="0.3">
	<g>
		<g>
			<defs>
				<rect id="SVGID_53_" x="238.459" y="404.579" width="11.866" height="7.4"/>
			</defs>
			<clipPath id="SVGID_54_">
				<use xlink:href="#SVGID_53_"  overflow="visible"/>
			</clipPath>
			<path clip-path="url(#SVGID_54_)" fill="#FFFFFF" d="M247.068,404.579c0.853,0.492,3.171,1.79,3.229,1.873
				c0.038,0.054,0.023,0.073,0.023,0.073v0.525c0.008,0.036-0.015,0.075-0.063,0.104l-8.289,4.786c-0.089,0.051-0.231,0.051-0.319,0
				l-3.19-1.842v-0.549L247.068,404.579z"/>
		</g>
	</g>
</g>
<path fill="#FFEB3B" d="M243.021,403.773c0.108-0.062,0.285-0.062,0.392,0l5.216,3.012c0.107,0.062,0.107,0.163,0,0.226
	l-5.216,3.011c-0.106,0.063-0.283,0.062-0.392,0l-5.216-3.011c-0.108-0.062-0.108-0.162,0-0.226L243.021,403.773z"/>
<path fill="#FF5643" d="M238.825,407.139l3.975,2.294c0.258,0.148,0.675,0.147,0.933,0l3.975-2.294c0.257-0.148,0.257-0.392,0-0.539
	l-3.975-2.296c-0.258-0.146-0.676-0.146-0.933,0l-3.975,2.296C238.568,406.748,238.568,406.99,238.825,407.139"/>
<polygon fill="#FFEB3B" points="241.358,408.385 242.366,407.802 243.269,408.323 242.26,408.905 "/>
<polygon fill="#FFEB3B" points="241.294,407.183 242.188,407.698 241.177,408.281 240.285,407.766 "/>
<path fill="#FFEB3B" d="M240.999,405.56l3.168,1.829l-1.072,0.619l-1.802-1.04l-1.194,0.69l-1.087-0.628
	c-0.153-0.089-0.154-0.233,0-0.323L240.999,405.56z"/>
<path fill="#FFEB3B" d="M243.405,405.569l-1.21-0.698l0.792-0.458c0.154-0.089,0.404-0.089,0.559,0l0.932,0.538L243.405,405.569z"/>
<polygon fill="#FFEB3B" points="244.803,406.377 243.592,405.678 244.663,405.058 245.875,405.757 "/>
<polygon fill="#FFEB3B" points="246.201,407.184 244.989,406.483 246.061,405.865 247.272,406.564 "/>
<path fill="#FFEB3B" d="M247.521,407.029l-1.802,1.041l-1.18-0.682l-0.187-0.106l-3.167-1.83l0.822-0.474l1.305,0.752l0.093,0.054
	l1.305,0.753l0.092,0.054l1.398,0.807l1.257-0.726l0.063,0.036C247.675,406.797,247.676,406.941,247.521,407.029"/>
<polygon fill="#FFEB3B" points="245.533,408.179 244.461,408.797 243.283,408.115 244.354,407.497 "/>
<path fill="#FFEB3B" d="M244.275,408.903l-0.729,0.423c-0.154,0.09-0.404,0.09-0.559,0.001l-0.549-0.317l1.01-0.582L244.275,408.903
	L244.275,408.903z"/>
<g opacity="0.6">
	<defs>
		<rect id="SVGID_55_" x="239.119" y="338.717" opacity="0.6" width="21.986" height="60.212"/>
	</defs>
	<clipPath id="SVGID_56_">
		<use xlink:href="#SVGID_55_"  overflow="visible"/>
	</clipPath>
	<g clip-path="url(#SVGID_56_)">
		<g>
			<g>
				<defs>
					<rect id="SVGID_57_" x="239.119" y="338.717" width="21.986" height="60.212"/>
				</defs>
				<clipPath id="SVGID_58_">
					<use xlink:href="#SVGID_57_"  overflow="visible"/>
				</clipPath>
				<polygon clip-path="url(#SVGID_58_)" fill="#6C8193" points="239.119,386.233 261.105,398.928 261.105,351.411 239.119,338.717 
									"/>
			</g>
		</g>
	</g>
</g>
<polygon fill="#7D00AD" points="238.557,346.306 241.354,347.921 243.555,346.65 240.758,345.035 "/>
<polygon fill="#7D00AD" points="238.557,362.271 241.354,363.887 243.555,362.613 240.758,361 "/>
<polygon fill="#FFEB3B" points="239.119,386.233 261.105,398.928 261.105,351.411 239.119,338.717 "/>
<path fill="#263238" d="M240.041,383.84c0,0.517,0.364,1.145,0.814,1.405l18.518,10.689c0.448,0.258,0.812,0.053,0.812-0.465
	v-41.666c0-0.513-0.363-1.146-0.812-1.403l-18.518-10.69c-0.45-0.261-0.814-0.049-0.814,0.465V383.84z"/>
<polygon fill="#FFFFFF" points="245.165,346.124 255.061,351.837 255.061,350.84 245.165,345.126 "/>
<path fill="#FFFFFF" d="M249.439,386.47c0,0.436,0.305,0.958,0.677,1.172c0.372,0.217,0.672,0.043,0.672-0.394
	c0-0.429-0.3-0.947-0.672-1.164C249.744,385.87,249.439,386.042,249.439,386.47"/>
<path fill="#FFFFFF" d="M254.555,389.256c0,0.329,0.228,0.716,0.506,0.875c0.281,0.163,0.506,0.038,0.506-0.293
	c0-0.32-0.226-0.708-0.506-0.869C254.782,388.807,254.555,388.934,254.555,389.256"/>
<path fill="#FFFFFF" d="M244.42,383.571c0,0.33,0.228,0.716,0.507,0.878c0.28,0.162,0.508,0.037,0.508-0.291
	c0-0.322-0.228-0.711-0.508-0.871C244.647,383.125,244.42,383.25,244.42,383.571"/>
<polygon fill="#B7F9FE" points="241.075,379.049 259.289,389.565 259.289,356.216 241.075,345.7 "/>
<polygon fill="#FFCE00" points="261.105,398.947 264.319,397.092 264.319,349.557 261.105,351.411 "/>
<polygon fill="#FFEB3B" points="239.119,338.717 261.105,351.409 264.318,349.557 242.004,337.051 "/>
<polygon fill="#263238" points="255.018,346.417 261.011,349.879 261.887,349.373 255.804,345.964 "/>
<polygon fill="#FFEB3B" points="261.105,398.947 264.319,397.092 264.319,349.557 261.105,351.411 "/>
<polygon fill="#263238" points="262.163,364.647 263.262,364.013 263.262,353.582 262.163,354.217 "/>
<polygon fill="#124B60" points="44.676,466.44 44.681,468.06 52.782,472.768 52.778,471.148 "/>
<polygon fill="#0C3443" points="52.778,471.148 52.782,472.768 89.18,451.753 89.176,450.135 "/>
<polygon fill="#14546B" points="44.676,466.44 52.778,471.148 89.176,450.135 81.075,445.427 "/>
<polygon fill="#1D272B" points="54.128,446.975 52.215,445.863 52.27,465.255 54.182,466.366 "/>
<polygon fill="#212B30" points="81.592,431.119 79.68,430.007 52.215,445.864 54.128,446.975 "/>
<polygon fill="#141B1E" points="54.128,446.975 54.182,466.366 81.647,450.51 81.592,431.119 "/>
<polygon fill="#124B60" points="23.7,412.205 21.252,410.782 21.425,471.91 23.874,473.332 "/>
<polygon fill="#14546B" points="112.432,360.976 109.983,359.554 21.252,410.782 23.7,412.205 "/>
<polygon fill="#0C3443" points="23.7,412.205 23.874,473.332 112.604,422.103 112.432,360.976 "/>
<polygon fill="#B7F9FE" points="24.877,415.281 25.024,467.068 108.986,418.594 108.839,366.807 "/>
<polygon fill="#124B60" points="36.975,490.101 36.979,491.69 68.693,510.12 68.689,508.53 "/>
<polygon fill="#0C3443" points="68.689,508.53 68.693,510.12 150.206,463.059 150.201,461.468 "/>
<polygon fill="#14546B" points="36.975,490.101 68.689,508.53 150.201,461.468 118.487,443.039 "/>
<polygon fill="#FFFFFF" points="112.796,451.019 112.798,451.553 117.447,454.254 117.445,453.721 "/>
<polygon fill="#FFFFFF" points="117.445,453.721 117.447,454.254 122.13,451.55 122.129,451.016 "/>
<polygon fill="#FFFFFF" points="112.796,451.019 117.445,453.721 122.129,451.016 117.48,448.314 "/>
<polygon fill="#FFFFFF" points="118.526,454.348 118.528,454.882 123.181,457.587 123.179,457.052 "/>
<polygon fill="#FFFFFF" points="123.179,457.052 123.181,457.586 127.864,454.882 127.862,454.348 "/>
<polygon fill="#FFFFFF" points="118.526,454.348 123.179,457.052 127.862,454.348 123.21,451.643 "/>
<polygon fill="#FFFFFF" points="124.259,457.68 124.261,458.214 128.909,460.916 128.909,460.382 "/>
<polygon fill="#FFFFFF" points="128.909,460.382 128.91,460.916 133.594,458.211 133.592,457.677 "/>
<polygon fill="#FFFFFF" points="124.259,457.68 128.909,460.382 133.592,457.677 128.943,454.975 "/>
<polygon fill="#FFFFFF" points="129.993,461.012 129.994,461.546 134.644,464.249 134.642,463.713 "/>
<polygon fill="#FFFFFF" points="134.642,463.713 134.644,464.249 139.327,461.543 139.326,461.009 "/>
<polygon fill="#FFFFFF" points="129.993,461.012 134.642,463.713 139.325,461.009 134.676,458.307 "/>
<polygon fill="#FFFFFF" points="106.846,454.455 106.848,454.988 111.496,457.689 111.495,457.156 "/>
<polygon fill="#FFFFFF" points="111.495,457.156 111.497,457.689 116.18,454.985 116.179,454.452 "/>
<polygon fill="#FFFFFF" points="106.846,454.455 111.495,457.156 116.179,454.452 111.529,451.749 "/>
<polygon fill="#FFFFFF" points="112.575,457.783 112.577,458.317 117.23,461.021 117.229,460.487 "/>
<polygon fill="#FFFFFF" points="117.229,460.487 117.229,461.021 121.913,458.317 121.912,457.783 "/>
<polygon fill="#FFFFFF" points="112.575,457.783 117.229,460.487 121.913,457.783 117.259,455.079 "/>
<polygon fill="#FFFFFF" points="118.308,461.115 118.31,461.649 122.959,464.351 122.958,463.817 "/>
<polygon fill="#FFFFFF" points="122.958,463.817 122.959,464.351 127.643,461.647 127.641,461.112 "/>
<polygon fill="#FFFFFF" points="118.308,461.115 122.958,463.817 127.641,461.112 122.993,458.411 "/>
<polygon fill="#FFFFFF" points="124.042,464.447 124.043,464.981 128.693,467.683 128.69,467.149 "/>
<polygon fill="#FFFFFF" points="128.69,467.149 128.692,467.683 133.376,464.979 133.375,464.445 "/>
<polygon fill="#FFFFFF" points="124.042,464.447 128.69,467.149 133.375,464.445 128.726,461.743 "/>
<polygon fill="#FFFFFF" points="100.895,457.89 100.896,458.425 105.545,461.126 105.543,460.593 "/>
<polygon fill="#FFFFFF" points="105.543,460.593 105.545,461.126 110.229,458.421 110.228,457.888 "/>
<polygon fill="#FFFFFF" points="100.895,457.89 105.543,460.593 110.228,457.888 105.579,455.186 "/>
<polygon fill="#FFFFFF" points="106.624,461.22 106.625,461.753 111.279,464.458 111.277,463.924 "/>
<polygon fill="#FFFFFF" points="111.277,463.924 111.279,464.458 115.963,461.753 115.961,461.22 "/>
<polygon fill="#FFFFFF" points="106.624,461.22 111.277,463.924 115.961,461.22 111.308,458.516 "/>
<polygon fill="#FFFFFF" points="112.357,464.552 112.359,465.085 117.008,467.787 117.007,467.253 "/>
<polygon fill="#FFFFFF" points="117.007,467.253 117.008,467.787 121.691,465.083 121.69,464.549 "/>
<polygon fill="#FFFFFF" points="112.357,464.552 117.007,467.253 121.69,464.549 117.041,461.848 "/>
<polygon fill="#FFFFFF" points="118.092,467.884 118.092,468.417 122.742,471.118 122.74,470.585 "/>
<polygon fill="#FFFFFF" points="122.74,470.585 122.742,471.118 127.425,468.414 127.424,467.881 "/>
<polygon fill="#FFFFFF" points="118.092,467.884 122.74,470.585 127.424,467.881 122.775,465.18 "/>
<polygon fill="#FFFFFF" points="94.943,461.325 94.945,461.86 99.595,464.562 99.594,464.027 "/>
<polygon fill="#FFFFFF" points="99.594,464.027 99.595,464.562 104.278,461.857 104.277,461.322 "/>
<polygon fill="#FFFFFF" points="94.943,461.325 99.594,464.027 104.277,461.322 99.628,458.621 "/>
<polygon fill="#FFFFFF" points="100.674,464.654 100.675,465.189 105.329,467.894 105.326,467.359 "/>
<polygon fill="#FFFFFF" points="105.327,467.359 105.329,467.894 110.012,465.188 110.011,464.654 "/>
<polygon fill="#FFFFFF" points="100.674,464.654 105.326,467.359 110.011,464.654 105.357,461.95 "/>
<polygon fill="#FFFFFF" points="106.407,467.987 106.408,468.521 111.057,471.224 111.056,470.688 "/>
<polygon fill="#FFFFFF" points="111.056,470.688 111.057,471.224 115.741,468.519 115.74,467.984 "/>
<polygon fill="#FFFFFF" points="106.407,467.987 111.056,470.688 115.74,467.984 111.09,465.282 "/>
<polygon fill="#FFFFFF" points="112.141,471.319 112.143,471.854 116.792,474.555 116.79,474.021 "/>
<polygon fill="#FFFFFF" points="116.79,474.021 116.791,474.555 121.475,471.85 121.474,471.316 "/>
<polygon fill="#FFFFFF" points="112.141,471.319 116.79,474.021 121.473,471.316 116.824,468.614 "/>
<polygon fill="#FFFFFF" points="88.994,464.761 88.995,465.294 93.643,467.998 93.643,467.462 "/>
<polygon fill="#FFFFFF" points="93.643,467.462 93.644,467.998 98.327,465.292 98.326,464.758 "/>
<polygon fill="#FFFFFF" points="88.994,464.761 93.643,467.462 98.326,464.758 93.677,462.057 "/>
<polygon fill="#FFFFFF" points="94.722,468.091 94.724,468.625 99.377,471.329 99.375,470.795 "/>
<polygon fill="#FFFFFF" points="99.376,470.795 99.377,471.329 104.061,468.625 104.06,468.09 "/>
<polygon fill="#FFFFFF" points="94.722,468.091 99.375,470.795 104.06,468.091 99.406,465.386 "/>
<polygon fill="#FFFFFF" points="100.456,471.422 100.457,471.957 105.106,474.658 105.105,474.125 "/>
<polygon fill="#FFFFFF" points="105.105,474.125 105.106,474.658 109.79,471.955 109.788,471.42 "/>
<polygon fill="#FFFFFF" points="100.456,471.422 105.105,474.125 109.788,471.42 105.14,468.719 "/>
<polygon fill="#FFFFFF" points="106.189,474.755 106.191,475.289 110.84,477.99 110.838,477.457 "/>
<polygon fill="#FFFFFF" points="110.838,477.457 110.84,477.99 115.523,475.286 115.522,474.753 "/>
<polygon fill="#FFFFFF" points="106.189,474.755 110.838,477.457 115.522,474.753 110.874,472.05 "/>
<polygon fill="#FFFFFF" points="83.042,468.197 83.044,468.73 87.693,471.432 87.691,470.898 "/>
<polygon fill="#FFFFFF" points="87.691,470.898 87.693,471.432 92.373,468.73 92.371,468.197 "/>
<polygon fill="#FFFFFF" points="83.042,468.197 87.691,470.898 92.371,468.197 87.722,465.495 "/>
<polygon fill="#FFFFFF" points="88.772,471.526 88.773,472.061 93.426,474.766 93.424,474.231 "/>
<polygon fill="#FFFFFF" points="93.425,474.23 93.426,474.766 98.106,472.062 98.105,471.528 "/>
<polygon fill="#FFFFFF" points="88.772,471.526 93.424,474.231 98.104,471.529 93.451,468.824 "/>
<polygon fill="#FFFFFF" points="94.506,474.858 94.507,475.392 99.156,478.095 99.155,477.56 "/>
<polygon fill="#FFFFFF" points="99.155,477.56 99.156,478.095 103.835,475.392 103.834,474.858 "/>
<polygon fill="#FFFFFF" points="94.506,474.858 99.155,477.56 103.834,474.858 99.185,472.156 "/>
<polygon fill="#FFFFFF" points="100.238,478.189 100.24,478.725 104.89,481.427 104.888,480.894 "/>
<polygon fill="#FFFFFF" points="104.888,480.894 104.89,481.427 109.569,478.725 109.567,478.189 "/>
<polygon fill="#FFFFFF" points="100.238,478.189 104.888,480.894 109.567,478.189 104.919,475.488 "/>
<polygon fill="#FFFFFF" points="77.092,471.633 77.093,472.167 81.743,474.868 81.741,474.335 "/>
<polygon fill="#FFFFFF" points="81.741,474.335 81.743,474.868 86.421,472.167 86.42,471.633 "/>
<polygon fill="#FFFFFF" points="77.092,471.633 81.741,474.335 86.42,471.633 81.771,468.932 "/>
<polygon fill="#FFFFFF" points="82.821,474.962 82.822,475.496 87.476,478.201 87.474,477.666 "/>
<polygon fill="#FFFFFF" points="87.474,477.666 87.476,478.199 92.155,475.499 92.154,474.964 "/>
<polygon fill="#FFFFFF" points="82.821,474.962 87.474,477.666 92.153,474.964 87.501,472.261 "/>
<polygon fill="#FFFFFF" points="88.555,478.294 88.556,478.828 93.205,481.53 93.203,480.996 "/>
<polygon fill="#FFFFFF" points="93.203,480.996 93.205,481.53 97.885,478.828 97.884,478.294 "/>
<polygon fill="#FFFFFF" points="88.555,478.294 93.203,480.996 97.883,478.294 93.234,475.592 "/>
<polygon fill="#FFFFFF" points="94.288,481.626 94.289,482.16 98.938,484.863 98.937,484.327 "/>
<polygon fill="#FFFFFF" points="98.937,484.327 98.938,484.863 103.618,482.16 103.616,481.626 "/>
<polygon fill="#FFFFFF" points="94.288,481.626 98.937,484.327 103.616,481.626 98.968,478.924 "/>
<polygon fill="#FFFFFF" points="71.142,475.069 71.143,475.603 75.791,478.304 75.789,477.771 "/>
<polygon fill="#FFFFFF" points="75.79,477.771 75.792,478.304 80.471,475.603 80.47,475.069 "/>
<polygon fill="#FFFFFF" points="71.142,475.069 75.789,477.771 80.469,475.069 75.82,472.366 "/>
<polygon fill="#FFFFFF" points="76.87,478.397 76.871,478.932 81.525,481.636 81.523,481.102 "/>
<polygon fill="#FFFFFF" points="81.523,481.102 81.524,481.636 86.205,478.934 86.204,478.4 "/>
<polygon fill="#FFFFFF" points="76.87,478.397 81.523,481.102 86.202,478.4 81.55,475.697 "/>
<polygon fill="#FFFFFF" points="82.604,481.729 82.605,482.264 87.254,484.965 87.252,484.432 "/>
<polygon fill="#FFFFFF" points="87.252,484.432 87.254,484.965 91.934,482.264 91.933,481.729 "/>
<polygon fill="#FFFFFF" points="82.604,481.729 87.252,484.432 91.933,481.729 87.284,479.028 "/>
<polygon fill="#FFFFFF" points="88.337,485.062 88.338,485.595 92.988,488.297 92.987,487.764 "/>
<polygon fill="#FFFFFF" points="92.987,487.764 92.988,488.297 97.668,485.595 97.666,485.062 "/>
<polygon fill="#FFFFFF" points="88.337,485.062 92.987,487.764 97.666,485.062 93.017,482.36 "/>
<polygon fill="#FFFFFF" points="65.189,478.504 65.191,479.039 69.841,481.739 69.839,481.207 "/>
<polygon fill="#FFFFFF" points="69.839,481.206 69.841,481.739 74.521,479.038 74.519,478.504 "/>
<polygon fill="#FFFFFF" points="65.189,478.504 69.839,481.207 74.519,478.504 69.87,475.802 "/>
<polygon fill="#FFFFFF" points="70.92,481.834 70.921,482.367 75.574,485.072 75.572,484.538 "/>
<polygon fill="#FFFFFF" points="75.573,484.538 75.574,485.072 80.254,482.37 80.252,481.837 "/>
<polygon fill="#FFFFFF" points="70.92,481.834 75.572,484.538 80.252,481.837 75.599,479.133 "/>
<polygon fill="#FFFFFF" points="76.653,485.166 76.654,485.699 81.303,488.401 81.302,487.867 "/>
<polygon fill="#FFFFFF" points="81.302,487.867 81.303,488.401 85.983,485.699 85.981,485.166 "/>
<polygon fill="#FFFFFF" points="76.653,485.166 81.302,487.867 85.981,485.166 81.333,482.463 "/>
<polygon fill="#FFFFFF" points="82.387,488.497 82.388,489.031 87.037,491.732 87.036,491.199 "/>
<polygon fill="#FFFFFF" points="87.036,491.199 87.037,491.732 91.717,489.031 91.715,488.497 "/>
<polygon fill="#FFFFFF" points="82.387,488.497 87.036,491.199 91.714,488.497 87.066,485.796 "/>
<polygon fill="#FFFFFF" points="59.239,481.939 59.241,482.475 63.89,485.176 63.889,484.642 "/>
<polygon fill="#FFFFFF" points="63.889,484.642 63.89,485.176 68.569,482.475 68.568,481.938 "/>
<polygon fill="#FFFFFF" points="59.239,481.939 63.889,484.642 68.568,481.939 63.919,479.238 "/>
<polygon fill="#FFFFFF" points="64.969,485.269 64.97,485.804 69.624,488.508 69.622,487.974 "/>
<polygon fill="#FFFFFF" points="69.622,487.974 69.623,488.508 74.303,485.807 74.302,485.271 "/>
<polygon fill="#FFFFFF" points="64.969,485.269 69.622,487.974 74.301,485.272 69.647,482.567 "/>
<polygon fill="#FFFFFF" points="70.702,488.602 70.703,489.136 75.352,491.838 75.351,491.303 "/>
<polygon fill="#FFFFFF" points="75.352,491.303 75.353,491.838 80.033,489.136 80.031,488.602 "/>
<polygon fill="#FFFFFF" points="70.702,488.602 75.351,491.303 80.031,488.602 75.382,485.899 "/>
<polygon fill="#FFFFFF" points="53.289,485.376 53.29,485.908 57.938,488.611 57.937,488.076 "/>
<polygon fill="#FFFFFF" points="57.938,488.076 57.939,488.611 62.619,485.908 62.617,485.376 "/>
<polygon fill="#FFFFFF" points="53.289,485.376 57.937,488.076 62.617,485.376 57.968,482.674 "/>
<polygon fill="#FFFFFF" points="59.018,488.705 59.02,489.239 63.672,491.943 63.67,491.409 "/>
<polygon fill="#FFFFFF" points="63.671,491.409 63.672,491.943 68.353,489.241 68.351,488.707 "/>
<polygon fill="#FFFFFF" points="59.018,488.705 63.67,491.409 68.35,488.708 63.698,486.003 "/>
<polygon fill="#FFFFFF" points="64.751,492.036 64.752,492.57 69.401,495.272 69.401,494.738 "/>
<polygon fill="#FFFFFF" points="69.401,494.738 69.401,495.272 74.081,492.57 74.08,492.036 "/>
<polygon fill="#FFFFFF" points="64.751,492.036 69.401,494.738 74.08,492.036 69.431,489.336 "/>
<polygon fill="#FFFFFF" points="70.484,495.368 70.486,495.903 75.136,498.604 75.133,498.071 "/>
<polygon fill="#FFFFFF" points="75.134,498.071 75.136,498.604 79.814,495.903 79.813,495.368 "/>
<polygon fill="#FFFFFF" points="70.484,495.368 75.133,498.071 79.813,495.368 75.165,492.667 "/>
<polygon fill="#FFFFFF" points="47.337,488.811 47.339,489.346 51.988,492.047 51.987,491.513 "/>
<polygon fill="#FFFFFF" points="51.987,491.513 51.988,492.046 56.668,489.346 56.667,488.811 "/>
<polygon fill="#FFFFFF" points="47.337,488.811 51.987,491.513 56.667,488.811 52.017,486.109 "/>
<polygon fill="#FFFFFF" points="53.067,492.142 53.068,492.675 57.722,495.38 57.72,494.846 "/>
<polygon fill="#FFFFFF" points="57.72,494.845 57.722,495.38 62.401,492.677 62.4,492.143 "/>
<polygon fill="#FFFFFF" points="53.067,492.142 57.72,494.846 62.4,492.144 57.747,489.438 "/>
<polygon fill="#FFFFFF" points="58.801,495.473 58.802,496.006 63.451,498.708 63.449,498.174 "/>
<polygon fill="#FFFFFF" points="63.449,498.174 63.451,498.708 68.131,496.006 68.129,495.473 "/>
<polygon fill="#FFFFFF" points="58.801,495.473 63.449,498.174 68.129,495.473 63.48,492.771 "/>
<polyline fill="none" stroke="#FFFFFF" stroke-width="3" stroke-linecap="round" stroke-linejoin="round" stroke-miterlimit="10" stroke-dasharray="11,6" points="
	196.37,515.394 188.119,519.995 147.293,495.765 "/>
<path fill="none" stroke="#FFFFFF" stroke-width="3" stroke-linecap="round" stroke-linejoin="round" d="M273.903,463.345"/>
<path fill="none" stroke="#FFFFFF" stroke-width="3" stroke-linecap="round" stroke-linejoin="round" d="M287.37,459.243"/>
<path fill="none" stroke="#FFFFFF" stroke-width="3" stroke-linecap="round" stroke-linejoin="round" d="M281.027,459.233"/>
<path fill="none" stroke="#FFFFFF" stroke-width="3" stroke-linecap="round" stroke-linejoin="round" stroke-dasharray="10.535,5.746" d="
	M345.31,492.957"/>
<path fill="none" stroke="#FFFFFF" stroke-width="3" stroke-linecap="round" stroke-linejoin="round" stroke-dasharray="10.535,5.746" d="
	M290.681,461.17"/>
<line fill="none" stroke="#FFFFFF" stroke-width="3" stroke-linecap="round" stroke-linejoin="round" x1="241.366" y1="453.964" x2="238.213" y2="452.094"/>
<line fill="none" stroke="#FFFFFF" stroke-width="3" stroke-linecap="round" stroke-linejoin="round" stroke-dasharray="10.838,5.912" x1="234.823" y1="450.084" x2="217.31" y2="439.7"/>
<line fill="none" stroke="#FFFFFF" stroke-width="3" stroke-linecap="round" stroke-linejoin="round" x1="215.614" y1="438.695" x2="212.46" y2="436.826"/>
<polyline fill="none" stroke="#FFFFFF" stroke-width="3" stroke-linecap="round" stroke-linejoin="round" stroke-miterlimit="10" stroke-dasharray="11,6" points="
	225.008,443.292 266.662,419.032 253.313,412.003 "/>
<path fill="none" stroke="#FFFFFF" stroke-width="3" stroke-linecap="round" stroke-linejoin="round" d="M272.482,499.426"/>
<line fill="none" stroke="#FFFFFF" stroke-width="3" stroke-linecap="round" stroke-linejoin="round" x1="224.896" y1="395.331" x2="221.69" y2="393.553"/>
<line fill="none" stroke="#FFFFFF" stroke-width="3" stroke-linecap="round" stroke-linejoin="round" stroke-dasharray="9.923,5.413" x1="218.535" y1="391.802" x2="211.173" y2="387.718"/>
<polyline fill="none" stroke="#FFFFFF" stroke-width="3" stroke-linecap="round" stroke-linejoin="round" points="209.596,386.842 
	206.391,385.063 209.506,383.132 "/>
<line fill="none" stroke="#FFFFFF" stroke-width="3" stroke-linecap="round" stroke-linejoin="round" stroke-dasharray="9.713,5.298" x1="212.508" y1="381.271" x2="219.513" y2="376.929"/>
<polyline fill="none" stroke="#FFFFFF" stroke-width="3" stroke-linecap="round" stroke-linejoin="round" points="221.014,375.998 
	224.129,374.067 220.903,372.326 "/>
<line fill="none" stroke="#FFFFFF" stroke-width="3" stroke-linecap="round" stroke-linejoin="round" stroke-dasharray="8.877,4.842" x1="218.062" y1="370.794" x2="203.387" y2="362.875"/>
<line fill="none" stroke="#FFFFFF" stroke-width="3" stroke-linecap="round" stroke-linejoin="round" x1="201.966" y1="362.109" x2="198.739" y2="360.368"/>
<polygon fill="#F9DD35" points="180.95,492.481 180.976,501.163 221.584,524.763 221.56,516.081 "/>
<polygon fill="#F2D027" points="221.56,516.08 221.584,524.763 289.609,485.489 289.584,476.807 "/>
<polygon fill="#FFFA57" points="180.95,492.481 221.56,516.081 289.584,476.807 248.976,453.208 "/>
<path fill="#F2D027" d="M191.057,494.271c-1.289,0-2.335-1.142-2.335-2.549v-33.489c0-1.407,1.046-2.548,2.335-2.548
	c1.288,0,2.332,1.141,2.332,2.548v33.489C193.389,493.129,192.345,494.271,191.057,494.271"/>
<path fill="#FF5643" d="M222.431,477.26c-6.148,3.549-9.976,8.467-10.039,13.892c-0.003,0.615,0.859,1.116,1.922,1.116
	c0.534,0,1.017-0.125,1.366-0.327c0.346-0.2,0.563-0.476,0.569-0.78c0.051-4.824,3.442-9.168,8.903-12.32
	c5.5-3.176,13.069-5.131,21.445-5.116c0.534,0,1.021-0.125,1.373-0.328c0.348-0.2,0.563-0.477,0.57-0.784
	c0.002-0.615-0.86-1.117-1.924-1.117C237.195,471.481,228.62,473.687,222.431,477.26"/>
<path fill="#FF5643" d="M237.522,486.029c-2.279,1.317-3.711,3.144-3.729,5.155c-0.004,0.615,0.851,1.113,1.921,1.117
	c0.532,0,1.013-0.125,1.36-0.326c0.35-0.2,0.564-0.479,0.566-0.787c0.017-1.404,1.004-2.664,2.595-3.581
	c1.6-0.924,3.792-1.491,6.234-1.488c0.536,0,1.024-0.125,1.377-0.328c0.348-0.201,0.564-0.479,0.566-0.782
	c0.003-0.617-0.859-1.117-1.922-1.117C243.001,483.887,239.817,484.705,237.522,486.029"/>
<path fill="#FF5643" d="M243.585,490.011c-0.581,0.335-0.94,0.798-0.944,1.312c-0.014,1.026,1.42,1.859,3.185,1.859
	c0.891,0.003,1.7-0.205,2.286-0.545c0.579-0.334,0.941-0.799,0.943-1.312c0.007-1.021-1.42-1.859-3.186-1.859
	C244.98,489.463,244.171,489.672,243.585,490.011"/>
<path fill="#FF5643" d="M229.981,481.647c-4.235,2.444-6.848,5.813-6.886,9.522c-0.003,0.616,0.853,1.112,1.914,1.112
	c0.537,0.003,1.021-0.121,1.372-0.322c0.346-0.201,0.562-0.479,0.563-0.784c0.033-3.114,2.223-5.916,5.748-7.952
	c3.55-2.049,8.427-3.309,13.844-3.303c0.532,0.003,1.019-0.123,1.37-0.326c0.347-0.2,0.563-0.477,0.565-0.782
	c0.012-0.62-0.852-1.121-1.914-1.121C240.103,477.681,234.219,479.19,229.981,481.647"/>
<line fill="none" stroke="#FFFFFF" stroke-width="3" stroke-linecap="round" stroke-linejoin="round" x1="147.293" y1="495.765" x2="144.078" y2="494.002"/>
<line fill="none" stroke="#FFFFFF" stroke-width="3" stroke-linecap="round" stroke-linejoin="round" stroke-dasharray="13.42,7.32" x1="139.8" y1="491.654" x2="129.817" y2="486.18"/>
<line fill="none" stroke="#FFFFFF" stroke-width="3" stroke-linecap="round" stroke-linejoin="round" x1="127.678" y1="485.007" x2="124.463" y2="483.244"/>
</svg>
