<?xml version="1.0" encoding="utf-8"?>
<!-- Generator: Adobe Illustrator 15.0.0, SVG Export Plug-In . SVG Version: 6.00 Build 0)  -->
<!DOCTYPE svg PUBLIC "-//W3C//DTD SVG 1.1//EN" "http://www.w3.org/Graphics/SVG/1.1/DTD/svg11.dtd">
<svg version="1.1" id="Layer_1" xmlns="http://www.w3.org/2000/svg" xmlns:xlink="http://www.w3.org/1999/xlink" x="0px" y="0px"
	 width="1024px" height="1366px" viewBox="0 0 1024 1366" enable-background="new 0 0 1024 1366" xml:space="preserve">
<rect y="849.326" fill="#6E90BA" width="1024" height="515.674"/>
<rect y="-48.667" fill="#9CC4E1" width="1024" height="907.998"/>
<path fill="#6DA1BC" d="M943.979,707.204v-61.606h-44.243V604.65h-45.688v72.172h-48.322v77.118h-39.817v22.874v78.823v3.742
	h169.315H1024v-82.565v-69.61H943.979z M971.146,821.832h-22.068v-26.477h22.068V821.832z M971.146,787.285h-22.068v-26.478h22.068
	V787.285z M971.146,752.735h-22.068V726.26h22.068V752.735z M1003.023,821.832h-22.066v-26.477h22.066V821.832z M1003.023,787.285
	h-22.066v-26.478h22.066V787.285z M1003.023,752.735h-22.066V726.26h22.066V752.735z"/>
<path fill="#6DA1BC" d="M548.133,709.181v69.61v82.565h88.775h169.317v-3.742v-78.823v-22.874h-39.817v-77.118h-48.326v-72.172
	h-45.688v40.947h-44.24v61.606H548.133z M600.984,797.332h22.067v26.477h-22.067V797.332z M600.984,762.784h22.067v26.478h-22.067
	V762.784z M600.984,728.236h22.067v26.476h-22.067V728.236z M569.107,797.332h22.069v26.477h-22.069V797.332z M569.107,762.784
	h22.069v26.478h-22.069V762.784z M569.107,728.236h22.069v26.476h-22.069V728.236z"/>
<path fill="#6DA1BC" d="M81.022,609.688H1v69.608v182.062h88.777h169.317V758.121v-78.825v-22.874h-39.82v-77.121h-48.32v-72.172
	h-45.686v40.949H81.022V609.688z M44.043,655.216H21.978v-26.477h22.066L44.043,655.216L44.043,655.216z M44.043,689.766H21.978
	v-26.478h22.066L44.043,689.766L44.043,689.766z M44.043,724.31H21.978v-26.474h22.066L44.043,724.31L44.043,724.31z M75.92,655.216
	H53.852v-26.477H75.92V655.216z M75.92,689.766H53.852v-26.478H75.92V689.766z M75.92,724.31H53.852v-26.474H75.92V724.31z"/>
<path fill="#6DA1BC" d="M246.866,630.604v51.164v80.272h65.255H428.96v16.751v82.565h88.776h31.84V647.574h-40.594v61.607h-72.405
	v-27.415v-16.812h-29.271V608.27H371.79v-53.048h-33.584v30.096h-32.521v45.286H246.866z M386.458,634.99h-9.223v-16.245h9.223
	V634.99z M481.812,797.332h22.066v26.477h-22.066V797.332z M481.812,762.787h22.066v26.475h-22.066V762.787z M481.812,728.234
	h22.066v26.478h-22.066V728.234z M449.934,797.332h22.069v26.477h-22.069V797.332z M449.934,762.787h22.069v26.475h-22.069V762.787z
	 M449.934,728.234h22.069v26.478h-22.069V728.234z M419.984,696.539h9.221v12.644h-0.244v3.604h-8.977V696.539L419.984,696.539z
	 M419.984,673.457h9.221v16.248h-9.221V673.457z M406.362,696.539h9.222v16.247h-9.222V696.539z M406.362,673.457h9.222v16.248
	h-9.222V673.457z M390.854,641.824h9.226v16.247h-9.226V641.824z M390.854,618.745h9.226v16.245h-9.226V618.745z M386.458,658.07
	h-9.223v-16.247h9.223V658.07z M369.902,723.528h9.22v16.248h-9.22V723.528z M369.902,700.451h9.22v16.242h-9.22V700.451z
	 M356.285,723.528h9.222v16.248h-9.222V723.528L356.285,723.528z M356.285,700.451h9.222v16.242h-9.222V700.451L356.285,700.451z
	 M340.775,668.814h9.223v16.245h-9.223V668.814z M340.775,645.733h9.223v16.244h-9.223V645.733z M327.156,668.814h9.219v16.245
	h-9.219V668.814z M327.156,645.733h9.219v16.244h-9.219V645.733z M285.716,695.399h16.224v19.459h-16.224V695.399z M285.716,670.002
	h16.224v19.462h-16.224V670.002z M285.716,644.61h16.224v19.458h-16.224V644.61z M262.285,695.399h16.223v19.459h-16.223V695.399z
	 M262.285,670.002h16.223v19.462h-16.223V670.002z M262.285,644.61h16.223v19.458h-16.223V644.61z"/>
<rect x="246.866" y="755.264" fill="#6DA1BC" width="187.768" height="106.094"/>
<polygon fill="#124B60" points="926.829,871.079 926.819,874.376 872.642,905.862 872.651,902.564 "/>
<polygon fill="#0C3443" points="872.651,902.564 872.642,905.862 774.433,849.161 774.44,845.862 "/>
<polygon fill="#14546B" points="926.829,871.079 872.651,902.564 774.44,845.863 828.619,814.377 "/>
<polygon fill="#124B60" points="924.094,810.59 926.945,808.933 926.767,871.587 923.915,873.243 "/>
<polygon fill="#14546B" points="825.883,753.888 828.734,752.23 926.944,808.933 924.094,810.591 "/>
<polygon fill="#0C3443" points="924.094,810.59 923.915,873.243 825.706,816.542 825.883,753.888 "/>
<path fill="#B7F9FE" d="M918.118,812.506c0.819,0.473,1.483,1.623,1.48,2.567l-0.145,51.233c-0.003,0.943-0.671,1.325-1.492,0.852
	l-88.307-50.949c-0.819-0.475-1.484-1.626-1.481-2.567l0.146-51.236c0.003-0.942,0.673-1.322,1.491-0.851L918.118,812.506z"/>
<polygon fill="#FFFFFF" points="830.633,825.796 830.63,826.454 824.889,829.792 824.89,829.133 "/>
<polygon fill="#FFFFFF" points="824.89,829.133 824.888,829.792 819.104,826.452 819.104,825.793 "/>
<polygon fill="#FFFFFF" points="830.633,825.796 824.89,829.133 819.104,825.793 824.847,822.455 "/>
<polygon fill="#FFFFFF" points="823.556,829.908 823.554,830.567 817.805,833.908 817.808,833.247 "/>
<polygon fill="#FFFFFF" points="817.808,833.249 817.805,833.907 812.021,830.568 812.021,829.908 "/>
<polygon fill="#FFFFFF" points="823.556,829.908 817.808,833.247 812.021,829.908 817.771,826.568 "/>
<polygon fill="#FFFFFF" points="816.474,834.023 816.471,834.683 810.729,838.021 810.73,837.361 "/>
<polygon fill="#FFFFFF" points="810.73,837.361 810.729,838.021 804.943,834.681 804.945,834.021 "/>
<polygon fill="#FFFFFF" points="816.474,834.023 810.73,837.361 804.943,834.021 810.688,830.684 "/>
<polygon fill="#FFFFFF" points="809.391,838.14 809.389,838.798 803.646,842.136 803.648,841.479 "/>
<polygon fill="#FFFFFF" points="803.648,841.479 803.646,842.136 797.861,838.796 797.862,838.137 "/>
<polygon fill="#FFFFFF" points="809.391,838.14 803.648,841.479 797.862,838.137 803.605,834.799 "/>
<polygon fill="#FFFFFF" points="837.983,830.039 837.981,830.698 832.239,834.036 832.241,833.377 "/>
<polygon fill="#FFFFFF" points="832.241,833.377 832.238,834.036 826.454,830.695 826.455,830.037 "/>
<polygon fill="#FFFFFF" points="837.983,830.039 832.241,833.377 826.454,830.037 832.198,826.698 "/>
<polygon fill="#FFFFFF" points="830.907,834.151 830.904,834.811 825.156,838.152 825.158,837.492 "/>
<polygon fill="#FFFFFF" points="825.158,837.492 825.156,838.152 819.371,834.812 819.372,834.153 "/>
<polygon fill="#FFFFFF" points="830.907,834.151 825.158,837.492 819.372,834.151 825.12,830.812 "/>
<polygon fill="#FFFFFF" points="823.824,838.268 823.822,838.928 818.079,842.265 818.08,841.604 "/>
<polygon fill="#FFFFFF" points="818.082,841.604 818.079,842.265 812.294,838.924 812.296,838.266 "/>
<polygon fill="#FFFFFF" points="823.824,838.268 818.08,841.604 812.295,838.265 818.039,834.929 "/>
<polygon fill="#FFFFFF" points="816.742,842.383 816.739,843.043 810.997,846.38 810.998,845.721 "/>
<polygon fill="#FFFFFF" points="810.999,845.721 810.997,846.38 805.212,843.04 805.214,842.38 "/>
<polygon fill="#FFFFFF" points="816.742,842.383 810.998,845.721 805.212,842.38 810.956,839.044 "/>
<polygon fill="#FFFFFF" points="845.335,834.282 845.332,834.942 839.59,838.279 839.591,837.62 "/>
<polygon fill="#FFFFFF" points="839.592,837.62 839.59,838.279 833.804,834.94 833.806,834.28 "/>
<polygon fill="#FFFFFF" points="845.335,834.282 839.591,837.62 833.806,834.28 839.549,830.943 "/>
<polygon fill="#FFFFFF" points="838.257,838.396 838.255,839.055 832.507,842.396 832.51,841.735 "/>
<polygon fill="#FFFFFF" points="832.51,841.736 832.507,842.396 826.723,839.055 826.724,838.396 "/>
<polygon fill="#FFFFFF" points="838.257,838.396 832.51,841.735 826.724,838.396 832.471,835.056 "/>
<polygon fill="#FFFFFF" points="831.175,842.513 831.172,843.171 825.431,846.509 825.432,845.85 "/>
<polygon fill="#FFFFFF" points="825.432,845.85 825.429,846.508 819.645,843.168 819.646,842.509 "/>
<polygon fill="#FFFFFF" points="831.175,842.513 825.432,845.85 819.646,842.51 825.389,839.172 "/>
<polygon fill="#FFFFFF" points="824.092,846.627 824.09,847.287 818.348,850.624 818.349,849.964 "/>
<polygon fill="#FFFFFF" points="818.349,849.964 818.347,850.624 812.562,847.285 812.562,846.625 "/>
<polygon fill="#FFFFFF" points="824.092,846.627 818.349,849.964 812.562,846.625 818.307,843.288 "/>
<polygon fill="#FFFFFF" points="852.685,838.527 852.683,839.188 846.94,842.524 846.941,841.864 "/>
<polygon fill="#FFFFFF" points="846.941,841.864 846.939,842.524 841.155,839.184 841.156,838.524 "/>
<polygon fill="#FFFFFF" points="852.685,838.527 846.941,841.864 841.156,838.524 846.898,835.188 "/>
<polygon fill="#FFFFFF" points="845.607,842.64 845.605,843.3 839.856,846.64 839.86,845.98 "/>
<polygon fill="#FFFFFF" points="839.859,845.98 839.856,846.639 834.072,843.3 834.073,842.64 "/>
<polygon fill="#FFFFFF" points="845.607,842.64 839.86,845.98 834.073,842.64 839.822,839.301 "/>
<polygon fill="#FFFFFF" points="838.525,846.756 838.523,847.415 832.781,850.753 832.782,850.094 "/>
<polygon fill="#FFFFFF" points="832.782,850.093 832.78,850.751 826.996,847.412 826.997,846.752 "/>
<polygon fill="#FFFFFF" points="838.525,846.756 832.782,850.094 826.997,846.752 832.739,843.415 "/>
<polygon fill="#FFFFFF" points="831.443,850.872 831.44,851.53 825.699,854.869 825.7,854.209 "/>
<polygon fill="#FFFFFF" points="825.7,854.209 825.698,854.869 819.913,851.528 819.914,850.869 "/>
<polygon fill="#FFFFFF" points="831.443,850.872 825.7,854.209 819.914,850.869 825.657,847.531 "/>
<polygon fill="#FFFFFF" points="860.035,842.771 860.033,843.431 854.292,846.769 854.293,846.108 "/>
<polygon fill="#FFFFFF" points="854.293,846.108 854.29,846.768 848.506,843.427 848.507,842.769 "/>
<polygon fill="#FFFFFF" points="860.035,842.771 854.293,846.108 848.507,842.77 854.25,839.432 "/>
<polygon fill="#FFFFFF" points="852.959,846.885 852.956,847.543 847.208,850.884 847.21,850.224 "/>
<polygon fill="#FFFFFF" points="847.21,850.224 847.208,850.884 841.424,847.544 841.425,846.885 "/>
<polygon fill="#FFFFFF" points="852.959,846.885 847.21,850.224 841.425,846.885 847.173,843.544 "/>
<polygon fill="#FFFFFF" points="845.876,850.999 845.874,851.659 840.131,854.996 840.133,854.337 "/>
<polygon fill="#FFFFFF" points="840.134,854.336 840.131,854.996 834.347,851.657 834.348,850.997 "/>
<polygon fill="#FFFFFF" points="845.876,850.999 840.133,854.337 834.347,850.996 840.091,847.66 "/>
<polygon fill="#FFFFFF" points="838.794,855.115 838.792,855.774 833.05,859.112 833.051,858.453 "/>
<polygon fill="#FFFFFF" points="833.051,858.453 833.049,859.112 827.265,855.771 827.266,855.113 "/>
<polygon fill="#FFFFFF" points="838.794,855.115 833.051,858.453 827.265,855.113 833.009,851.775 "/>
<polygon fill="#FFFFFF" points="867.387,847.015 867.384,847.674 861.643,851.012 861.644,850.354 "/>
<polygon fill="#FFFFFF" points="861.644,850.354 861.642,851.011 855.861,847.674 855.864,847.015 "/>
<polygon fill="#FFFFFF" points="867.387,847.015 861.644,850.354 855.864,847.015 861.606,843.677 "/>
<polygon fill="#FFFFFF" points="860.309,851.128 860.307,851.786 854.559,855.128 854.562,854.468 "/>
<polygon fill="#FFFFFF" points="854.562,854.468 854.559,855.128 848.779,851.79 848.781,851.131 "/>
<polygon fill="#FFFFFF" points="860.309,851.128 854.562,854.468 848.78,851.131 854.529,847.79 "/>
<polygon fill="#FFFFFF" points="853.229,855.244 853.226,855.902 847.482,859.241 847.483,858.581 "/>
<polygon fill="#FFFFFF" points="847.484,858.581 847.481,859.241 841.701,855.902 841.705,855.244 "/>
<polygon fill="#FFFFFF" points="853.229,855.244 847.483,858.581 841.704,855.244 847.447,851.907 "/>
<polygon fill="#FFFFFF" points="846.146,859.358 846.143,860.019 840.399,863.355 840.401,862.696 "/>
<polygon fill="#FFFFFF" points="840.402,862.696 840.399,863.355 834.62,860.019 834.622,859.358 "/>
<polygon fill="#FFFFFF" points="846.146,859.358 840.401,862.696 834.621,859.358 840.365,856.021 "/>
<polygon fill="#FFFFFF" points="874.737,851.259 874.735,851.919 868.992,855.255 868.993,854.597 "/>
<polygon fill="#FFFFFF" points="868.995,854.596 868.992,855.255 863.213,851.919 863.215,851.259 "/>
<polygon fill="#FFFFFF" points="874.737,851.259 868.993,854.597 863.214,851.259 868.958,847.922 "/>
<polygon fill="#FFFFFF" points="867.66,855.371 867.657,856.031 861.91,859.373 861.912,858.712 "/>
<polygon fill="#FFFFFF" points="861.912,858.713 861.91,859.371 856.13,856.033 856.133,855.375 "/>
<polygon fill="#FFFFFF" points="867.66,855.371 861.912,858.712 856.133,855.376 861.88,852.034 "/>
<polygon fill="#FFFFFF" points="860.577,859.487 860.575,860.146 854.833,863.484 854.835,862.825 "/>
<polygon fill="#FFFFFF" points="854.835,862.825 854.832,863.484 849.053,860.146 849.055,859.487 "/>
<polygon fill="#FFFFFF" points="860.577,859.487 854.835,862.825 849.055,859.487 854.798,856.149 "/>
<polygon fill="#FFFFFF" points="853.495,863.604 853.492,864.264 847.751,867.601 847.752,866.94 "/>
<polygon fill="#FFFFFF" points="847.752,866.94 847.75,867.601 841.97,864.263 841.973,863.604 "/>
<polygon fill="#FFFFFF" points="853.495,863.604 847.752,866.94 841.973,863.604 847.715,860.267 "/>
<polygon fill="#FFFFFF" points="882.088,855.503 882.085,856.162 876.344,859.5 876.345,858.84 "/>
<polygon fill="#FFFFFF" points="876.345,858.84 876.343,859.5 870.562,856.162 870.564,855.503 "/>
<polygon fill="#FFFFFF" points="882.088,855.503 876.345,858.84 870.564,855.503 876.308,852.165 "/>
<polygon fill="#FFFFFF" points="875.011,859.616 875.009,860.274 869.26,863.616 869.263,862.955 "/>
<polygon fill="#FFFFFF" points="869.264,862.956 869.26,863.615 863.48,860.278 863.483,859.618 "/>
<polygon fill="#FFFFFF" points="875.011,859.616 869.263,862.955 863.481,859.619 869.231,856.279 "/>
<polygon fill="#FFFFFF" points="867.929,863.73 867.926,864.391 862.185,867.729 862.186,867.068 "/>
<polygon fill="#FFFFFF" points="862.186,867.068 862.184,867.729 856.403,864.391 856.405,863.73 "/>
<polygon fill="#FFFFFF" points="867.929,863.73 862.186,867.068 856.405,863.73 862.148,860.394 "/>
<polygon fill="#FFFFFF" points="860.846,867.848 860.844,868.506 855.102,871.844 855.104,871.185 "/>
<polygon fill="#FFFFFF" points="855.104,871.185 855.101,871.844 849.321,868.506 849.323,867.848 "/>
<polygon fill="#FFFFFF" points="860.846,867.848 855.104,871.185 849.323,867.848 855.066,864.51 "/>
<polygon fill="#FFFFFF" points="889.438,859.747 889.438,860.405 883.694,863.743 883.695,863.085 "/>
<polygon fill="#FFFFFF" points="883.695,863.085 883.693,863.743 877.913,860.405 877.916,859.747 "/>
<polygon fill="#FFFFFF" points="889.438,859.747 883.695,863.085 877.916,859.747 883.659,856.408 "/>
<polygon fill="#FFFFFF" points="882.362,863.86 882.359,864.519 876.611,867.859 876.613,867.199 "/>
<polygon fill="#FFFFFF" points="876.613,867.199 876.611,867.859 870.831,864.521 870.833,863.862 "/>
<polygon fill="#FFFFFF" points="882.362,863.86 876.613,867.199 870.832,863.862 876.582,860.521 "/>
<polygon fill="#FFFFFF" points="875.279,867.976 875.277,868.636 869.534,871.972 869.535,871.312 "/>
<polygon fill="#FFFFFF" points="869.537,871.312 869.534,871.972 863.755,868.636 863.757,867.976 "/>
<polygon fill="#FFFFFF" points="875.279,867.976 869.535,871.312 863.756,867.976 869.5,864.639 "/>
<polygon fill="#FFFFFF" points="868.197,872.092 868.194,872.75 862.453,876.088 862.454,875.43 "/>
<polygon fill="#FFFFFF" points="862.454,875.43 862.452,876.087 856.672,872.75 856.675,872.092 "/>
<polygon fill="#FFFFFF" points="868.197,872.092 862.454,875.43 856.675,872.092 862.417,868.753 "/>
<polygon fill="#FFFFFF" points="896.79,863.99 896.787,864.65 891.045,867.987 891.047,867.328 "/>
<polygon fill="#FFFFFF" points="891.047,867.328 891.045,867.987 885.265,864.65 885.267,863.99 "/>
<polygon fill="#FFFFFF" points="896.79,863.99 891.047,867.328 885.267,863.99 891.01,860.653 "/>
<polygon fill="#FFFFFF" points="889.712,868.104 889.71,868.763 883.962,872.104 883.964,871.444 "/>
<polygon fill="#FFFFFF" points="883.964,871.444 883.962,872.104 878.183,868.765 878.185,868.107 "/>
<polygon fill="#FFFFFF" points="889.712,868.104 883.964,871.444 878.185,868.107 883.932,864.766 "/>
<polygon fill="#FFFFFF" points="882.63,872.22 882.627,872.879 876.886,876.217 876.887,875.557 "/>
<polygon fill="#FFFFFF" points="876.887,875.557 876.884,876.216 871.104,872.878 871.106,872.22 "/>
<polygon fill="#FFFFFF" points="882.63,872.22 876.887,875.557 871.106,872.22 876.85,868.882 "/>
<polygon fill="#FFFFFF" points="875.548,876.335 875.546,876.995 869.803,880.332 869.804,879.673 "/>
<polygon fill="#FFFFFF" points="869.806,879.672 869.803,880.332 864.023,876.995 864.025,876.335 "/>
<polygon fill="#FFFFFF" points="875.548,876.335 869.804,879.673 864.024,876.335 869.769,872.998 "/>
<polygon fill="#FFFFFF" points="904.14,868.234 904.138,868.895 898.396,872.231 898.396,871.571 "/>
<polygon fill="#FFFFFF" points="898.396,871.571 898.395,872.231 892.614,868.895 892.618,868.234 "/>
<polygon fill="#FFFFFF" points="904.14,868.234 898.396,871.571 892.617,868.234 898.359,864.896 "/>
<polygon fill="#FFFFFF" points="897.062,872.348 897.061,873.007 891.312,876.348 891.315,875.688 "/>
<polygon fill="#FFFFFF" points="891.315,875.688 891.312,876.347 885.533,873.01 885.535,872.351 "/>
<polygon fill="#FFFFFF" points="897.062,872.348 891.315,875.688 885.534,872.352 891.283,869.011 "/>
<polygon fill="#FFFFFF" points="889.98,876.464 889.979,877.122 884.236,880.46 884.237,879.802 "/>
<polygon fill="#FFFFFF" points="884.237,879.802 884.235,880.46 878.455,877.122 878.458,876.464 "/>
<polygon fill="#FFFFFF" points="889.98,876.464 884.237,879.802 878.458,876.464 884.2,873.125 "/>
<polygon fill="#FFFFFF" points="882.898,880.579 882.896,881.238 877.154,884.576 877.155,883.916 "/>
<polygon fill="#FFFFFF" points="877.155,883.916 877.153,884.576 871.373,881.238 871.375,880.579 "/>
<polygon fill="#FFFFFF" points="882.898,880.579 877.155,883.916 871.375,880.579 877.118,877.241 "/>
<polygon fill="#FFFFFF" points="911.49,872.479 911.488,873.138 905.747,876.476 905.748,875.816 "/>
<polygon fill="#FFFFFF" points="905.748,875.816 905.745,876.476 899.966,873.138 899.968,872.479 "/>
<polygon fill="#FFFFFF" points="911.49,872.479 905.748,875.816 899.968,872.479 905.711,869.142 "/>
<polygon fill="#FFFFFF" points="904.414,876.592 904.411,877.251 898.663,880.591 898.665,879.931 "/>
<polygon fill="#FFFFFF" points="898.665,879.931 898.663,880.591 892.883,877.254 892.886,876.595 "/>
<polygon fill="#FFFFFF" points="904.414,876.592 898.665,879.931 892.884,876.596 898.634,873.254 "/>
<polygon fill="#FFFFFF" points="897.331,880.707 897.329,881.367 891.588,884.704 891.589,884.045 "/>
<polygon fill="#FFFFFF" points="891.589,884.045 891.586,884.704 885.807,881.367 885.809,880.707 "/>
<polygon fill="#FFFFFF" points="897.331,880.707 891.589,884.045 885.809,880.707 891.552,877.37 "/>
<polygon fill="#FFFFFF" points="890.249,884.823 890.247,885.481 884.505,888.819 884.506,888.161 "/>
<polygon fill="#FFFFFF" points="884.506,888.161 884.504,888.819 878.724,885.481 878.727,884.823 "/>
<polygon fill="#FFFFFF" points="890.249,884.823 884.506,888.161 878.727,884.823 884.469,881.485 "/>
<polygon fill="#13191C" points="817.822,866.16 817.82,866.842 817.82,866.702 817.821,866.021 "/>
<polygon fill="#1D272B" points="849.111,871.375 849.109,872.056 838.138,878.433 838.139,877.75 "/>
<polygon fill="#141B1E" points="837.896,877.75 837.895,878.433 817.82,866.843 817.822,866.16 "/>
<rect x="837.896" y="877.75" fill="#1B2327" width="0.24" height="0.683"/>
<polygon fill="#212B30" points="849.104,871.238 849.111,871.374 838.139,877.75 837.896,877.75 817.822,866.16 817.821,866.021 
	828.795,859.644 829.027,859.648 "/>
<polygon fill="#008279" points="326.503,944.868 326.513,948.165 380.688,979.646 380.678,976.352 "/>
<polygon fill="#005B54" points="380.678,976.351 380.688,979.646 478.892,922.951 478.882,919.651 "/>
<polygon fill="#2BA7AA" points="326.503,944.868 380.678,976.352 478.882,919.651 424.708,888.17 "/>
<polygon fill="#008279" points="329.241,884.382 326.389,882.724 326.566,945.377 329.418,947.033 "/>
<polygon fill="#009287" points="427.445,827.683 424.594,826.026 326.389,882.724 329.24,884.382 "/>
<polygon fill="#005B54" points="329.241,884.382 329.418,947.033 427.623,890.335 427.445,827.683 "/>
<path fill="#B7F9FE" d="M335.213,886.296c-0.82,0.474-1.484,1.624-1.481,2.566l0.145,51.234c0.003,0.942,0.672,1.324,1.492,0.854
	l88.307-50.952c0.82-0.474,1.484-1.625,1.482-2.566l-0.146-51.235c-0.004-0.941-0.673-1.323-1.493-0.851L335.213,886.296z"/>
<polygon fill="#FFFFFF" points="422.698,899.585 422.701,900.244 428.443,903.582 428.441,902.923 "/>
<polygon fill="#FFFFFF" points="428.441,902.923 428.443,903.582 434.228,900.241 434.227,899.583 "/>
<polygon fill="#FFFFFF" points="422.698,899.585 428.441,902.923 434.226,899.583 428.484,896.245 "/>
<polygon fill="#FFFFFF" points="429.775,903.698 429.778,904.356 435.526,907.698 435.523,907.038 "/>
<polygon fill="#FFFFFF" points="435.523,907.038 435.526,907.698 441.311,904.357 441.309,903.699 "/>
<polygon fill="#FFFFFF" points="429.775,903.698 435.523,907.038 441.309,903.698 435.561,900.357 "/>
<polygon fill="#FFFFFF" points="436.857,907.812 436.86,908.474 442.602,911.811 442.601,911.15 "/>
<polygon fill="#FFFFFF" points="442.601,911.15 442.603,911.811 448.388,908.471 448.386,907.812 "/>
<polygon fill="#FFFFFF" points="436.857,907.812 442.601,911.15 448.386,907.811 442.644,904.475 "/>
<polygon fill="#FFFFFF" points="443.939,911.929 443.942,912.589 449.684,915.926 449.683,915.267 "/>
<polygon fill="#FFFFFF" points="449.683,915.267 449.685,915.926 455.47,912.587 455.468,911.927 "/>
<polygon fill="#FFFFFF" points="443.939,911.929 449.683,915.267 455.469,911.927 449.726,908.59 "/>
<polygon fill="#FFFFFF" points="415.347,903.829 415.35,904.488 421.092,907.825 421.09,907.167 "/>
<polygon fill="#FFFFFF" points="421.09,907.167 421.092,907.825 426.877,904.486 426.876,903.826 "/>
<polygon fill="#FFFFFF" points="415.347,903.829 421.09,907.167 426.876,903.826 421.133,900.489 "/>
<polygon fill="#FFFFFF" points="422.424,907.941 422.427,908.602 428.175,911.942 428.172,911.281 "/>
<polygon fill="#FFFFFF" points="428.172,911.282 428.175,911.941 433.96,908.602 433.958,907.942 "/>
<polygon fill="#FFFFFF" points="422.424,907.941 428.172,911.281 433.958,907.941 428.21,904.604 "/>
<polygon fill="#FFFFFF" points="429.507,912.059 429.509,912.718 435.251,916.056 435.25,915.396 "/>
<polygon fill="#FFFFFF" points="435.25,915.396 435.252,916.054 441.037,912.714 441.035,912.055 "/>
<polygon fill="#FFFFFF" points="429.507,912.059 435.25,915.396 441.036,912.056 435.292,908.718 "/>
<polygon fill="#FFFFFF" points="436.589,916.174 436.592,916.833 442.333,920.17 442.332,919.511 "/>
<polygon fill="#FFFFFF" points="442.332,919.511 442.334,920.17 448.119,916.831 448.118,916.171 "/>
<polygon fill="#FFFFFF" points="436.589,916.174 442.332,919.511 448.118,916.171 442.375,912.834 "/>
<polygon fill="#FFFFFF" points="407.997,908.073 407.999,908.732 413.741,912.07 413.74,911.41 "/>
<polygon fill="#FFFFFF" points="413.739,911.41 413.742,912.07 419.526,908.729 419.525,908.071 "/>
<polygon fill="#FFFFFF" points="407.997,908.073 413.74,911.41 419.526,908.069 413.782,904.734 "/>
<polygon fill="#FFFFFF" points="415.074,912.186 415.076,912.846 420.824,916.188 420.822,915.525 "/>
<polygon fill="#FFFFFF" points="420.822,915.526 420.824,916.185 426.609,912.846 426.607,912.186 "/>
<polygon fill="#FFFFFF" points="415.074,912.186 420.822,915.525 426.607,912.186 420.859,908.847 "/>
<polygon fill="#FFFFFF" points="422.156,916.302 422.159,916.961 427.9,920.298 427.899,919.64 "/>
<polygon fill="#FFFFFF" points="427.899,919.639 427.901,920.298 433.686,916.958 433.685,916.299 "/>
<polygon fill="#FFFFFF" points="422.156,916.302 427.899,919.64 433.684,916.3 427.942,912.962 "/>
<polygon fill="#FFFFFF" points="429.238,920.418 429.241,921.077 434.983,924.415 434.981,923.755 "/>
<polygon fill="#FFFFFF" points="434.981,923.755 434.983,924.415 440.769,921.073 440.767,920.416 "/>
<polygon fill="#FFFFFF" points="429.238,920.418 434.981,923.755 440.767,920.416 435.024,917.077 "/>
<polygon fill="#FFFFFF" points="400.646,912.317 400.648,912.976 406.39,916.312 406.389,915.654 "/>
<polygon fill="#FFFFFF" points="406.389,915.654 406.391,916.312 412.176,912.974 412.175,912.314 "/>
<polygon fill="#FFFFFF" points="400.646,912.317 406.389,915.654 412.175,912.315 406.432,908.977 "/>
<polygon fill="#FFFFFF" points="407.724,916.431 407.726,917.089 413.473,920.43 413.471,919.77 "/>
<polygon fill="#FFFFFF" points="413.471,919.77 413.473,920.43 419.258,917.089 419.257,916.431 "/>
<polygon fill="#FFFFFF" points="407.724,916.431 413.471,919.77 419.257,916.431 413.509,913.09 "/>
<polygon fill="#FFFFFF" points="414.805,920.546 414.808,921.205 420.55,924.542 420.549,923.884 "/>
<polygon fill="#FFFFFF" points="420.548,923.882 420.55,924.542 426.335,921.203 426.334,920.543 "/>
<polygon fill="#FFFFFF" points="414.805,920.546 420.549,923.884 426.334,920.543 420.591,917.206 "/>
<polygon fill="#FFFFFF" points="421.888,924.661 421.89,925.32 427.632,928.658 427.63,927.999 "/>
<polygon fill="#FFFFFF" points="427.63,927.999 427.633,928.658 433.417,925.318 433.416,924.659 "/>
<polygon fill="#FFFFFF" points="421.888,924.661 427.63,927.999 433.417,924.659 427.673,921.321 "/>
<polygon fill="#FFFFFF" points="393.295,916.562 393.297,917.22 399.04,920.557 399.039,919.899 "/>
<polygon fill="#FFFFFF" points="399.038,919.898 399.04,920.557 404.825,917.218 404.824,916.558 "/>
<polygon fill="#FFFFFF" points="393.295,916.562 399.039,919.899 404.824,916.559 399.081,913.221 "/>
<polygon fill="#FFFFFF" points="400.373,920.674 400.375,921.333 406.123,924.674 406.121,924.015 "/>
<polygon fill="#FFFFFF" points="406.121,924.015 406.123,924.674 411.907,921.334 411.906,920.675 "/>
<polygon fill="#FFFFFF" points="400.373,920.674 406.121,924.015 411.906,920.674 406.158,917.334 "/>
<polygon fill="#FFFFFF" points="407.455,924.79 407.457,925.448 413.199,928.787 413.198,928.127 "/>
<polygon fill="#FFFFFF" points="413.198,928.127 413.2,928.787 418.984,925.446 418.983,924.788 "/>
<polygon fill="#FFFFFF" points="407.455,924.79 413.198,928.127 418.982,924.788 413.24,921.45 "/>
<polygon fill="#FFFFFF" points="414.537,928.905 414.539,929.564 420.281,932.901 420.28,932.243 "/>
<polygon fill="#FFFFFF" points="420.28,932.243 420.282,932.901 426.067,929.562 426.066,928.902 "/>
<polygon fill="#FFFFFF" points="414.537,928.905 420.28,932.243 426.066,928.902 420.323,925.565 "/>
<polygon fill="#FFFFFF" points="385.945,920.805 385.947,921.465 391.688,924.802 391.688,924.143 "/>
<polygon fill="#FFFFFF" points="391.688,924.142 391.69,924.802 397.47,921.465 397.467,920.805 "/>
<polygon fill="#FFFFFF" points="385.945,920.805 391.688,924.143 397.467,920.805 391.725,917.468 "/>
<polygon fill="#FFFFFF" points="393.022,924.917 393.024,925.577 398.771,928.919 398.77,928.258 "/>
<polygon fill="#FFFFFF" points="398.77,928.259 398.771,928.918 404.552,925.579 404.549,924.921 "/>
<polygon fill="#FFFFFF" points="393.022,924.917 398.77,928.258 404.549,924.922 398.802,921.58 "/>
<polygon fill="#FFFFFF" points="400.104,929.033 400.106,929.692 405.848,933.03 405.847,932.371 "/>
<polygon fill="#FFFFFF" points="405.847,932.371 405.849,933.03 411.629,929.692 411.626,929.033 "/>
<polygon fill="#FFFFFF" points="400.104,929.033 405.847,932.371 411.627,929.033 405.884,925.695 "/>
<polygon fill="#FFFFFF" points="407.186,933.149 407.188,933.81 412.931,937.146 412.93,936.486 "/>
<polygon fill="#FFFFFF" points="412.929,936.486 412.931,937.146 418.711,933.809 418.709,933.149 "/>
<polygon fill="#FFFFFF" points="407.186,933.149 412.93,936.486 418.709,933.149 412.966,929.812 "/>
<polygon fill="#FFFFFF" points="378.594,925.05 378.596,925.708 384.338,929.046 384.337,928.386 "/>
<polygon fill="#FFFFFF" points="384.336,928.386 384.339,929.046 390.119,925.708 390.116,925.05 "/>
<polygon fill="#FFFFFF" points="378.594,925.05 384.337,928.386 390.117,925.05 384.374,921.711 "/>
<polygon fill="#FFFFFF" points="385.671,929.162 385.673,929.821 391.421,933.162 391.419,932.501 "/>
<polygon fill="#FFFFFF" points="391.419,932.502 391.421,933.161 397.201,929.824 397.199,929.164 "/>
<polygon fill="#FFFFFF" points="385.671,929.162 391.419,932.501 397.2,929.165 391.451,925.824 "/>
<polygon fill="#FFFFFF" points="392.753,933.276 392.755,933.938 398.497,937.273 398.496,936.615 "/>
<polygon fill="#FFFFFF" points="398.496,936.615 398.499,937.273 404.278,933.938 404.276,933.276 "/>
<polygon fill="#FFFFFF" points="392.753,933.276 398.496,936.615 404.276,933.276 398.533,929.94 "/>
<polygon fill="#FFFFFF" points="399.835,937.393 399.838,938.053 405.58,941.39 405.579,940.731 "/>
<polygon fill="#FFFFFF" points="405.579,940.731 405.581,941.39 411.361,938.053 411.358,937.393 "/>
<polygon fill="#FFFFFF" points="399.835,937.393 405.579,940.731 411.358,937.393 405.615,934.056 "/>
<polygon fill="#FFFFFF" points="371.243,929.293 371.246,929.951 376.987,933.29 376.986,932.631 "/>
<polygon fill="#FFFFFF" points="376.986,932.631 376.988,933.29 382.768,929.951 382.766,929.293 "/>
<polygon fill="#FFFFFF" points="371.243,929.293 376.986,932.631 382.766,929.293 377.023,925.955 "/>
<polygon fill="#FFFFFF" points="378.32,933.406 378.323,934.064 384.07,937.407 384.068,936.746 "/>
<polygon fill="#FFFFFF" points="384.068,936.746 384.071,937.404 389.851,934.067 389.848,933.409 "/>
<polygon fill="#FFFFFF" points="378.32,933.406 384.068,936.746 389.848,933.409 384.1,930.068 "/>
<polygon fill="#FFFFFF" points="385.402,937.521 385.404,938.181 391.147,941.519 391.146,940.859 "/>
<polygon fill="#FFFFFF" points="391.145,940.859 391.147,941.519 396.927,938.181 396.925,937.521 "/>
<polygon fill="#FFFFFF" points="385.402,937.521 391.146,940.859 396.925,937.521 391.182,934.185 "/>
<polygon fill="#FFFFFF" points="392.485,941.638 392.487,942.296 398.229,945.635 398.228,944.975 "/>
<polygon fill="#FFFFFF" points="398.228,944.975 398.23,945.635 404.01,942.296 404.007,941.638 "/>
<polygon fill="#FFFFFF" points="392.485,941.638 398.228,944.975 404.008,941.638 398.265,938.3 "/>
<polygon fill="#FFFFFF" points="363.892,933.536 363.895,934.196 369.637,937.534 369.635,936.874 "/>
<polygon fill="#FFFFFF" points="369.635,936.874 369.637,937.534 375.417,934.196 375.415,933.536 "/>
<polygon fill="#FFFFFF" points="363.892,933.536 369.635,936.874 375.416,933.536 369.672,930.199 "/>
<polygon fill="#FFFFFF" points="370.969,937.65 370.972,938.309 376.72,941.649 376.717,940.989 "/>
<polygon fill="#FFFFFF" points="376.717,940.989 376.72,941.649 382.5,938.312 382.497,937.652 "/>
<polygon fill="#FFFFFF" points="370.969,937.65 376.717,940.989 382.497,937.653 376.749,934.312 "/>
<polygon fill="#FFFFFF" points="378.052,941.765 378.054,942.425 383.796,945.762 383.794,945.104 "/>
<polygon fill="#FFFFFF" points="383.794,945.104 383.797,945.762 389.577,942.425 389.574,941.765 "/>
<polygon fill="#FFFFFF" points="378.052,941.765 383.794,945.104 389.574,941.765 383.832,938.428 "/>
<polygon fill="#FFFFFF" points="385.134,945.881 385.137,946.54 390.878,949.878 390.877,949.219 "/>
<polygon fill="#FFFFFF" points="390.877,949.219 390.879,949.878 396.659,946.54 396.657,945.881 "/>
<polygon fill="#FFFFFF" points="385.134,945.881 390.877,949.219 396.657,945.881 390.914,942.543 "/>
<polygon fill="#FFFFFF" points="356.542,937.781 356.544,938.439 362.286,941.777 362.284,941.119 "/>
<polygon fill="#FFFFFF" points="362.284,941.119 362.287,941.777 368.066,938.439 368.064,937.781 "/>
<polygon fill="#FFFFFF" points="356.542,937.781 362.284,941.119 368.064,937.781 362.321,934.444 "/>
<polygon fill="#FFFFFF" points="363.619,941.894 363.621,942.552 369.369,945.894 369.366,945.233 "/>
<polygon fill="#FFFFFF" points="369.367,945.233 369.369,945.894 375.149,942.556 375.147,941.896 "/>
<polygon fill="#FFFFFF" points="363.619,941.894 369.366,945.233 375.146,941.896 369.399,938.556 "/>
<polygon fill="#FFFFFF" points="370.701,946.01 370.703,946.669 376.445,950.007 376.444,949.347 "/>
<polygon fill="#FFFFFF" points="376.443,949.347 376.446,950.007 382.226,946.668 382.224,946.01 "/>
<polygon fill="#FFFFFF" points="370.701,946.01 376.444,949.347 382.224,946.01 376.48,942.673 "/>
<polygon fill="#FFFFFF" points="377.783,950.124 377.786,950.784 383.528,954.121 383.526,953.462 "/>
<polygon fill="#FFFFFF" points="383.526,953.462 383.528,954.121 389.308,950.784 389.306,950.124 "/>
<polygon fill="#FFFFFF" points="377.783,950.124 383.526,953.462 389.307,950.124 383.562,946.788 "/>
<polygon fill="#FFFFFF" points="349.19,942.024 349.193,942.685 354.935,946.021 354.934,945.362 "/>
<polygon fill="#FFFFFF" points="354.934,945.362 354.936,946.021 360.716,942.685 360.713,942.024 "/>
<polygon fill="#FFFFFF" points="349.19,942.024 354.934,945.362 360.714,942.024 354.97,938.688 "/>
<polygon fill="#FFFFFF" points="356.268,946.137 356.27,946.797 362.018,950.139 362.016,949.479 "/>
<polygon fill="#FFFFFF" points="362.016,949.479 362.018,950.138 367.798,946.799 367.796,946.141 "/>
<polygon fill="#FFFFFF" points="356.268,946.137 362.016,949.479 367.796,946.142 362.048,942.8 "/>
<polygon fill="#FFFFFF" points="363.35,950.254 363.353,950.912 369.094,954.25 369.093,953.591 "/>
<polygon fill="#FFFFFF" points="369.093,953.591 369.095,954.25 374.875,950.912 374.873,950.254 "/>
<polygon fill="#FFFFFF" points="363.35,950.254 369.093,953.591 374.873,950.254 369.13,946.916 "/>
<polygon fill="#FFFFFF" points="370.433,954.369 370.435,955.029 376.177,958.366 376.175,957.706 "/>
<polygon fill="#FFFFFF" points="376.175,957.706 376.178,958.366 381.958,955.029 381.956,954.369 "/>
<polygon fill="#FFFFFF" points="370.433,954.369 376.175,957.706 381.956,954.369 376.212,951.032 "/>
<polygon fill="#FFFFFF" points="341.84,946.269 341.842,946.928 347.584,950.266 347.583,949.605 "/>
<polygon fill="#FFFFFF" points="347.583,949.605 347.585,950.266 353.365,946.928 353.363,946.269 "/>
<polygon fill="#FFFFFF" points="341.84,946.269 347.583,949.605 353.363,946.269 347.62,942.932 "/>
<polygon fill="#FFFFFF" points="348.917,950.382 348.919,951.041 354.667,954.382 354.666,953.721 "/>
<polygon fill="#FFFFFF" points="354.666,953.722 354.667,954.381 360.448,951.044 360.445,950.384 "/>
<polygon fill="#FFFFFF" points="348.917,950.382 354.666,953.721 360.445,950.385 354.697,947.045 "/>
<polygon fill="#FFFFFF" points="356,954.497 356.002,955.156 361.744,958.493 361.743,957.836 "/>
<polygon fill="#FFFFFF" points="361.742,957.835 361.745,958.493 367.525,955.156 367.522,954.496 "/>
<polygon fill="#FFFFFF" points="356,954.497 361.743,957.836 367.522,954.497 361.78,951.159 "/>
<polygon fill="#FFFFFF" points="363.082,958.613 363.084,959.271 368.826,962.61 368.825,961.95 "/>
<polygon fill="#FFFFFF" points="368.824,961.95 368.827,962.61 374.606,959.271 374.604,958.613 "/>
<polygon fill="#FFFFFF" points="363.082,958.613 368.825,961.95 374.605,958.613 368.861,955.275 "/>
<g>
	<g>
		<defs>
			<path id="SVGID_1_" d="M435.511,939.946l0.002,0.682c0.033-0.021,0.05-0.044,0.05-0.069l-0.002-0.683
				C435.561,939.9,435.545,939.927,435.511,939.946"/>
		</defs>
		<clipPath id="SVGID_2_">
			<use xlink:href="#SVGID_1_"  overflow="visible"/>
		</clipPath>
		<path clip-path="url(#SVGID_2_)" fill="#1B1B1B" d="M435.511,939.946l0.002,0.682c0.033-0.02,0.05-0.044,0.05-0.069l-0.001-0.681
			C435.562,939.902,435.545,939.927,435.511,939.946"/>
	</g>
</g>
<g>
	<g>
		<defs>
			<path id="SVGID_3_" d="M404.179,945.775c0,0.024,0.017,0.05,0.046,0.068l-0.002-0.683c-0.03-0.02-0.046-0.043-0.046-0.067
				L404.179,945.775z"/>
		</defs>
		<clipPath id="SVGID_4_">
			<use xlink:href="#SVGID_3_"  overflow="visible"/>
		</clipPath>
		<rect x="404.177" y="945.095" clip-path="url(#SVGID_4_)" fill="#1E1E1E" width="0.003" height="0.683"/>
	</g>
	<g>
		<defs>
			<path id="SVGID_5_" d="M404.179,945.775c0,0.024,0.017,0.05,0.046,0.068l-0.002-0.683c-0.03-0.02-0.046-0.043-0.046-0.067
				L404.179,945.775z"/>
		</defs>
		<clipPath id="SVGID_6_">
			<use xlink:href="#SVGID_5_"  overflow="visible"/>
		</clipPath>
		<polyline clip-path="url(#SVGID_6_)" fill="#1F1F1F" points="404.177,945.095 404.179,945.776 404.181,945.787 404.178,945.106 
			404.177,945.095 		"/>
	</g>
	<g>
		<defs>
			<path id="SVGID_7_" d="M404.179,945.775c0,0.024,0.017,0.05,0.046,0.068l-0.002-0.683c-0.03-0.02-0.046-0.043-0.046-0.067
				L404.179,945.775z"/>
		</defs>
		<clipPath id="SVGID_8_">
			<use xlink:href="#SVGID_7_"  overflow="visible"/>
		</clipPath>
		<polyline clip-path="url(#SVGID_8_)" fill="#202020" points="404.178,945.106 404.181,945.787 404.183,945.799 404.181,945.117 
			404.178,945.106 		"/>
	</g>
	<g>
		<defs>
			<path id="SVGID_9_" d="M404.179,945.775c0,0.024,0.017,0.05,0.046,0.068l-0.002-0.683c-0.03-0.02-0.046-0.043-0.046-0.067
				L404.179,945.775z"/>
		</defs>
		<clipPath id="SVGID_10_">
			<use xlink:href="#SVGID_9_"  overflow="visible"/>
		</clipPath>
		<polyline clip-path="url(#SVGID_10_)" fill="#212121" points="404.181,945.116 404.184,945.798 404.188,945.808 404.186,945.125 
			404.181,945.116 		"/>
	</g>
	<g>
		<defs>
			<path id="SVGID_11_" d="M404.179,945.775c0,0.024,0.017,0.05,0.046,0.068l-0.002-0.683c-0.03-0.02-0.046-0.043-0.046-0.067
				L404.179,945.775z"/>
		</defs>
		<clipPath id="SVGID_12_">
			<use xlink:href="#SVGID_11_"  overflow="visible"/>
		</clipPath>
		<polyline clip-path="url(#SVGID_12_)" fill="#222222" points="404.186,945.126 404.188,945.808 404.194,945.818 404.192,945.137 
			404.186,945.126 		"/>
	</g>
	<g>
		<defs>
			<path id="SVGID_13_" d="M404.179,945.775c0,0.024,0.017,0.05,0.046,0.068l-0.002-0.683c-0.03-0.02-0.046-0.043-0.046-0.067
				L404.179,945.775z"/>
		</defs>
		<clipPath id="SVGID_14_">
			<use xlink:href="#SVGID_13_"  overflow="visible"/>
		</clipPath>
		<polyline clip-path="url(#SVGID_14_)" fill="#232323" points="404.192,945.137 404.195,945.817 404.204,945.829 404.202,945.146 
			404.192,945.137 		"/>
	</g>
	<g>
		<defs>
			<path id="SVGID_15_" d="M404.179,945.775c0,0.024,0.017,0.05,0.046,0.068l-0.002-0.683c-0.03-0.02-0.046-0.043-0.046-0.067
				L404.179,945.775z"/>
		</defs>
		<clipPath id="SVGID_16_">
			<use xlink:href="#SVGID_15_"  overflow="visible"/>
		</clipPath>
		<path clip-path="url(#SVGID_16_)" fill="#242424" d="M404.203,945.146l0.002,0.683c0.005,0.006,0.011,0.009,0.018,0.014
			l-0.001-0.681C404.215,945.156,404.208,945.151,404.203,945.146"/>
	</g>
	<g>
		<defs>
			<path id="SVGID_17_" d="M404.179,945.775c0,0.024,0.017,0.05,0.046,0.068l-0.002-0.683c-0.03-0.02-0.046-0.043-0.046-0.067
				L404.179,945.775z"/>
		</defs>
		<clipPath id="SVGID_18_">
			<use xlink:href="#SVGID_17_"  overflow="visible"/>
		</clipPath>
		<polyline clip-path="url(#SVGID_18_)" fill="#252525" points="404.221,945.161 404.224,945.843 404.225,945.844 404.222,945.162 
			404.221,945.161 		"/>
	</g>
</g>
<polygon fill="#272727" points="404.223,945.162 404.225,945.843 415.197,952.222 415.195,951.538 "/>
<polygon fill="#1B1B1B" points="415.432,951.538 415.435,952.22 435.513,940.628 435.511,939.944 "/>
<g>
	<g>
		<defs>
			<path id="SVGID_19_" d="M415.195,951.538l0.002,0.682c0.064,0.04,0.175,0.037,0.235,0l-0.001-0.682
				C415.37,951.574,415.262,951.576,415.195,951.538"/>
		</defs>
		<clipPath id="SVGID_20_">
			<use xlink:href="#SVGID_19_"  overflow="visible"/>
		</clipPath>
		<path clip-path="url(#SVGID_20_)" fill="#252525" d="M415.195,951.538l0.002,0.682c0.01,0.009,0.021,0.013,0.035,0.018
			l-0.002-0.684C415.219,951.551,415.206,951.544,415.195,951.538"/>
	</g>
	<g>
		<defs>
			<path id="SVGID_21_" d="M415.195,951.538l0.002,0.682c0.064,0.04,0.175,0.037,0.235,0l-0.001-0.682
				C415.37,951.574,415.262,951.576,415.195,951.538"/>
		</defs>
		<clipPath id="SVGID_22_">
			<use xlink:href="#SVGID_21_"  overflow="visible"/>
		</clipPath>
		<path clip-path="url(#SVGID_22_)" fill="#242424" d="M415.231,951.555l0.002,0.683c0.009,0.002,0.02,0.005,0.029,0.008
			l-0.002-0.683C415.251,951.561,415.241,951.558,415.231,951.555"/>
	</g>
	<g>
		<defs>
			<path id="SVGID_23_" d="M415.195,951.538l0.002,0.682c0.064,0.04,0.175,0.037,0.235,0l-0.001-0.682
				C415.37,951.574,415.262,951.576,415.195,951.538"/>
		</defs>
		<clipPath id="SVGID_24_">
			<use xlink:href="#SVGID_23_"  overflow="visible"/>
		</clipPath>
		<path clip-path="url(#SVGID_24_)" fill="#232323" d="M415.263,951.562l0.002,0.681c0.008,0.002,0.015,0.002,0.021,0.005
			l-0.003-0.684C415.276,951.564,415.27,951.562,415.263,951.562"/>
	</g>
	<g>
		<defs>
			<path id="SVGID_25_" d="M415.195,951.538l0.002,0.682c0.064,0.04,0.175,0.037,0.235,0l-0.001-0.682
				C415.37,951.574,415.262,951.576,415.195,951.538"/>
		</defs>
		<clipPath id="SVGID_26_">
			<use xlink:href="#SVGID_25_"  overflow="visible"/>
		</clipPath>
		<path clip-path="url(#SVGID_26_)" fill="#222222" d="M415.284,951.564l0.002,0.683c0.006,0.001,0.012,0.001,0.02,0.001
			l-0.003-0.683C415.297,951.565,415.29,951.565,415.284,951.564"/>
	</g>
	<g>
		<defs>
			<path id="SVGID_27_" d="M415.195,951.538l0.002,0.682c0.064,0.04,0.175,0.037,0.235,0l-0.001-0.682
				C415.37,951.574,415.262,951.576,415.195,951.538"/>
		</defs>
		<clipPath id="SVGID_28_">
			<use xlink:href="#SVGID_27_"  overflow="visible"/>
		</clipPath>
		<path clip-path="url(#SVGID_28_)" fill="#212121" d="M415.303,951.565l0.003,0.683c0.005,0.001,0.012,0.001,0.017,0l-0.001-0.683
			C415.315,951.565,415.309,951.565,415.303,951.565"/>
	</g>
	<g>
		<defs>
			<path id="SVGID_29_" d="M415.195,951.538l0.002,0.682c0.064,0.04,0.175,0.037,0.235,0l-0.001-0.682
				C415.37,951.574,415.262,951.576,415.195,951.538"/>
		</defs>
		<clipPath id="SVGID_30_">
			<use xlink:href="#SVGID_29_"  overflow="visible"/>
		</clipPath>
		<path clip-path="url(#SVGID_30_)" fill="#202020" d="M415.32,951.565l0.002,0.683c0.005,0,0.01,0,0.016,0l-0.002-0.684
			C415.332,951.565,415.326,951.565,415.32,951.565"/>
	</g>
	<g>
		<defs>
			<path id="SVGID_31_" d="M415.195,951.538l0.002,0.682c0.064,0.04,0.175,0.037,0.235,0l-0.001-0.682
				C415.37,951.574,415.262,951.576,415.195,951.538"/>
		</defs>
		<clipPath id="SVGID_32_">
			<use xlink:href="#SVGID_31_"  overflow="visible"/>
		</clipPath>
		<path clip-path="url(#SVGID_32_)" fill="#1F1F1F" d="M415.337,951.564l0.002,0.683c0.005,0,0.011-0.002,0.018-0.002l-0.003-0.683
			C415.348,951.564,415.343,951.564,415.337,951.564"/>
	</g>
	<g>
		<defs>
			<path id="SVGID_33_" d="M415.195,951.538l0.002,0.682c0.064,0.04,0.175,0.037,0.235,0l-0.001-0.682
				C415.37,951.574,415.262,951.576,415.195,951.538"/>
		</defs>
		<clipPath id="SVGID_34_">
			<use xlink:href="#SVGID_33_"  overflow="visible"/>
		</clipPath>
		<path clip-path="url(#SVGID_34_)" fill="#1E1E1E" d="M415.354,951.562l0.003,0.683c0.006,0,0.011-0.002,0.017-0.002l-0.002-0.684
			C415.366,951.561,415.36,951.562,415.354,951.562"/>
	</g>
	<g>
		<defs>
			<path id="SVGID_35_" d="M415.195,951.538l0.002,0.682c0.064,0.04,0.175,0.037,0.235,0l-0.001-0.682
				C415.37,951.574,415.262,951.576,415.195,951.538"/>
		</defs>
		<clipPath id="SVGID_36_">
			<use xlink:href="#SVGID_35_"  overflow="visible"/>
		</clipPath>
		<path clip-path="url(#SVGID_36_)" fill="#1D1D1D" d="M415.372,951.561l0.002,0.683c0.005-0.001,0.011-0.003,0.018-0.004
			l-0.003-0.684C415.383,951.558,415.377,951.559,415.372,951.561"/>
	</g>
	<g>
		<defs>
			<path id="SVGID_37_" d="M415.195,951.538l0.002,0.682c0.064,0.04,0.175,0.037,0.235,0l-0.001-0.682
				C415.37,951.574,415.262,951.576,415.195,951.538"/>
		</defs>
		<clipPath id="SVGID_38_">
			<use xlink:href="#SVGID_37_"  overflow="visible"/>
		</clipPath>
		<path clip-path="url(#SVGID_38_)" fill="#1C1C1C" d="M415.39,951.556l0.002,0.683c0.008-0.001,0.014-0.003,0.021-0.006
			l-0.002-0.684C415.403,951.551,415.396,951.554,415.39,951.556"/>
	</g>
	<g>
		<defs>
			<path id="SVGID_39_" d="M415.195,951.538l0.002,0.682c0.064,0.04,0.175,0.037,0.235,0l-0.001-0.682
				C415.37,951.574,415.262,951.576,415.195,951.538"/>
		</defs>
		<clipPath id="SVGID_40_">
			<use xlink:href="#SVGID_39_"  overflow="visible"/>
		</clipPath>
		<path clip-path="url(#SVGID_40_)" fill="#1B1B1B" d="M415.409,951.549l0.002,0.684c0.008-0.002,0.016-0.008,0.021-0.013
			l-0.002-0.681C415.425,951.542,415.418,951.546,415.409,951.549"/>
	</g>
</g>
<path fill="#2C2C2C" d="M404.224,945.025c-0.062,0.033-0.062,0.102-0.001,0.137l10.974,6.376c0.066,0.039,0.174,0.036,0.236,0
	l20.079-11.594c0.068-0.037,0.068-0.098,0.001-0.136l-10.973-6.378c-0.062-0.034-0.169-0.038-0.237,0L404.224,945.025z"/>
<path fill="#1B7289" d="M379.674,778.908c-3.06-1.771-8.031-1.769-11.097,0.002l-49.029,28.303
	c-3.062,1.773-3.065,4.644-0.008,6.412l20.701,11.95c3.062,1.765,8.04,1.767,11.104-0.001l49.025-28.31
	c3.062-1.769,3.062-4.642,0.001-6.407L379.674,778.908z"/>
<polygon fill="#1B7289" points="345.406,826.587 317.249,810.303 317.249,804.642 345.406,820.924 "/>
<polygon fill="#1B7289" points="346.348,826.9 402.664,794.33 402.664,788.4 346.348,820.969 "/>
<path fill="#2C88A8" d="M379.674,773.244c-3.06-1.771-8.031-1.766-11.097,0.005l-49.029,28.303
	c-3.062,1.772-3.065,4.641-0.008,6.408l20.701,11.951c3.062,1.768,8.04,1.769,11.104,0l49.025-28.308
	c3.062-1.769,3.062-4.645,0.001-6.408L379.674,773.244z"/>
<path fill="#FFFFFF" d="M339.274,813.68l-9.014-5.203c-0.713-0.412-1.866-0.414-2.579,0c-0.711,0.409-0.711,1.077,0,1.487
	l9.015,5.204c0.712,0.411,1.868,0.41,2.578,0C339.989,814.757,339.987,814.088,339.274,813.68"/>
<path fill="#2BA7AA" d="M336.633,812.899l-5.023-2.898c-0.356-0.204-0.929-0.205-1.285-0.002c-0.356,0.208-0.356,0.537,0,0.745
	l5.019,2.898c0.355,0.202,0.935,0.202,1.29,0C336.989,813.436,336.988,813.104,336.633,812.899"/>
<path fill="#FFFFFF" d="M383.849,778.339l7.629,4.403c0.191,0.108,0.057,0.364-0.3,0.57c-0.355,0.203-0.797,0.286-0.987,0.174
	l-7.63-4.405c-0.201-0.115-0.06-0.367,0.298-0.572C383.214,778.303,383.651,778.223,383.849,778.339"/>
<path fill="#B7F9FE" d="M397.432,790.528l-46.412,26.797c-0.22,0.127-0.578,0.133-0.807,0.002l-25.73-14.855
	c-0.219-0.124-0.211-0.334,0.011-0.46l46.415-26.797c0.222-0.13,0.575-0.132,0.795-0.005l25.728,14.855
	C397.658,790.194,397.653,790.4,397.432,790.528"/>
<polygon fill="#2A383D" points="328.933,821.808 323.21,818.503 323.21,816.885 328.034,814.101 333.758,817.406 333.758,819.064 
	"/>
<polygon fill="#263238" points="328.933,820.189 323.21,816.885 328.034,814.101 333.758,817.406 "/>
<polygon fill="#334349" points="328.933,820.189 325.985,818.487 330.811,815.718 333.758,817.421 "/>
<path fill="#0F414F" d="M319.676,823.604c0.922,0,1.847-0.207,2.564-0.623l4.703-2.734l0.001-0.812l-0.814-0.188l-4.535,2.62
	c-1.035,0.597-2.787,0.601-3.823,0.007l-21.596-12.374c-0.381-0.219-0.599-0.482-0.599-0.726c-0.001-0.243,0.217-0.51,0.597-0.729
	l74.319-42.908c1.035-0.597,2.784-0.597,3.818,0l50.525,29.172c0.381,0.22,0.599,0.486,0.599,0.73s-0.218,0.511-0.599,0.729
	l-18.51,10.688l0.644,1.116l18.511-10.688c0.788-0.455,1.241-1.128,1.241-1.846s-0.453-1.393-1.241-1.846l-50.525-29.174
	c-1.431-0.825-3.674-0.825-5.108,0l-74.318,42.907c-0.791,0.457-1.242,1.13-1.241,1.848c0.001,0.717,0.457,1.387,1.247,1.841
	l21.594,12.374C317.846,823.396,318.761,823.604,319.676,823.604"/>
<path fill="#14546B" d="M319.676,822.78c0.924,0,1.847-0.206,2.564-0.623l4.705-2.725l-1.282-0.74l-4.068,2.352
	c-1.035,0.598-2.786,0.6-3.824,0.007l-21.593-12.372c-0.38-0.218-0.6-0.481-0.6-0.726c-0.001-0.243,0.217-0.508,0.596-0.728
	l74.319-42.909c1.035-0.599,2.783-0.599,3.817,0l50.525,29.171c0.38,0.219,0.599,0.483,0.599,0.729c0,0.246-0.218,0.513-0.599,0.73
	l-18.51,10.686l0.645,1.116l18.509-10.686c0.79-0.457,1.243-1.13,1.243-1.848c0-0.717-0.453-1.391-1.243-1.846l-50.524-29.17
	c-1.431-0.828-3.673-0.827-5.106,0l-74.319,42.908c-0.79,0.457-1.242,1.13-1.241,1.847c0.001,0.715,0.456,1.387,1.247,1.84
	l21.595,12.372C317.845,822.577,318.761,822.78,319.676,822.78"/>
<polygon fill="#263238" points="410.397,808.008 405.713,805.301 410.917,802.296 415.603,803.924 415.603,805.001 "/>
<polygon fill="#263238" points="410.397,806.928 405.713,804.224 410.917,801.218 415.603,803.923 "/>
<g opacity="0.5">
	<g>
		<g>
			<defs>
				<rect id="SVGID_41_" x="410.75" y="802.623" width="4.853" height="2.802"/>
			</defs>
			<clipPath id="SVGID_42_">
				<use xlink:href="#SVGID_41_"  overflow="visible"/>
			</clipPath>
			<polygon clip-path="url(#SVGID_42_)" fill="#FFFFFF" points="410.749,804.123 412.999,805.426 415.603,803.924 413.351,802.623 
							"/>
		</g>
	</g>
</g>
<polygon fill="#14546B" points="404.744,815.317 394.238,809.253 394.238,807.362 406.032,802.44 416.54,806.622 416.54,808.509 "/>
<polygon fill="#263238" points="398.294,817.401 390.359,812.816 390.359,812.011 396.007,809.556 403.942,813.332 403.942,814.141 
	"/>
<polygon fill="#263238" points="398.294,816.591 390.359,812.008 396.007,808.748 403.942,813.332 "/>
<polygon fill="#FFFFFF" points="394.619,813.03 392.882,812.028 394.01,811.38 395.746,812.378 "/>
<polygon fill="#FFFFFF" points="398.263,815.133 396.524,814.134 397.654,813.481 399.392,814.486 "/>
<g opacity="0.5">
	<g>
		<g>
			<defs>
				<rect id="SVGID_43_" x="394.329" y="811.04" width="9.614" height="5.551"/>
			</defs>
			<clipPath id="SVGID_44_">
				<use xlink:href="#SVGID_43_"  overflow="visible"/>
			</clipPath>
			<polygon clip-path="url(#SVGID_44_)" fill="#FFFFFF" points="399.975,811.04 403.942,813.33 398.294,816.591 394.329,814.3 			
				"/>
		</g>
	</g>
</g>
<polygon fill="#14546B" points="404.744,813.428 394.238,807.363 406.032,800.554 416.54,806.622 "/>
<g opacity="0.5">
	<g>
		<g>
			<defs>
				<rect id="SVGID_45_" x="399.488" y="803.586" width="17.052" height="9.843"/>
			</defs>
			<clipPath id="SVGID_46_">
				<use xlink:href="#SVGID_45_"  overflow="visible"/>
			</clipPath>
			<polygon clip-path="url(#SVGID_46_)" fill="#FFFFFF" points="399.488,810.396 404.744,813.428 416.542,806.622 411.288,803.586 
							"/>
		</g>
	</g>
</g>
<path fill="#536A7C" d="M472.833,884.61L472.833,884.61v-0.979l1.363,0.15l13.82-7.98c0.064-0.036,0.168-0.036,0.234,0l9.486,5.478
	l1.138-0.279v0.999l-0.01,0.005c-0.007,0.015-0.02,0.028-0.039,0.041l-2.812,1.622l-0.008,0.006l-2.573,1.485
	c-0.064,0.037-0.191,0.065-0.282,0.064l-1.041-0.013c-0.092,0-0.217,0.028-0.279,0.068l-0.524,0.31v0.757v0.002
	c-0.002,0.024-0.02,0.051-0.052,0.068l-1.233,0.713c-0.065,0.037-0.19,0.065-0.282,0.062l-2.238-0.059
	c-0.089-0.002-0.215,0.025-0.279,0.062l-4.871,2.812c-0.063,0.038-0.168,0.038-0.231,0.001l-9.237-5.334
	C472.849,884.658,472.833,884.634,472.833,884.61"/>
<g opacity="0.3">
	<g>
		<g>
			<defs>
				<rect id="SVGID_47_" x="474.195" y="875.774" width="24.68" height="14.264"/>
			</defs>
			<clipPath id="SVGID_48_">
				<use xlink:href="#SVGID_47_"  overflow="visible"/>
			</clipPath>
			<path clip-path="url(#SVGID_48_)" fill="#FFFFFF" d="M477.379,886.297l-3.183-2.515l13.821-7.98c0.064-0.036,0.168-0.036,0.233,0
				l9.486,5.478l1.138-0.279v0.998l-0.009,0.004c-0.008,0.018-0.02,0.03-0.04,0.042l-2.812,1.626l-0.008,0.004l-2.573,1.484
				c-0.064,0.037-0.191,0.065-0.282,0.065l-1.041-0.013c-0.092-0.003-0.217,0.026-0.279,0.065l-0.524,0.312v0.755v0.005
				c-0.002,0.024-0.021,0.05-0.052,0.067l-1.234,0.713c-0.064,0.037-0.19,0.065-0.281,0.062l-2.237-0.059
				c-0.09-0.002-0.216,0.025-0.28,0.062l-4.871,2.813c-0.062,0.038-0.168,0.038-0.231,0l-4.739-2.734V886.297L477.379,886.297z"/>
		</g>
	</g>
</g>
<g opacity="0.6">
	<g>
		<g>
			<defs>
				<rect id="SVGID_49_" x="472.832" y="874.797" width="26.043" height="14.264"/>
			</defs>
			<clipPath id="SVGID_50_">
				<use xlink:href="#SVGID_49_"  overflow="visible"/>
			</clipPath>
			<path clip-path="url(#SVGID_50_)" fill="#6C8193" d="M498.827,880.931l-10.576-6.104c-0.065-0.037-0.169-0.037-0.234,0
				l-15.137,8.739c-0.064,0.036-0.064,0.097,0,0.134l9.237,5.333c0.063,0.038,0.169,0.038,0.231,0l4.871-2.813
				c0.063-0.037,0.189-0.064,0.281-0.062l2.236,0.06c0.091,0.002,0.217-0.024,0.282-0.062l1.234-0.714
				c0.064-0.037,0.069-0.101,0.011-0.142l-0.459-0.26c-0.059-0.039-0.006-0.126,0.058-0.163l0.967-0.575
				c0.062-0.037,0.188-0.066,0.279-0.065l1.041,0.013c0.092,0.002,0.217-0.027,0.281-0.064l5.395-3.114
				C498.892,881.028,498.892,880.969,498.827,880.931"/>
		</g>
	</g>
</g>
<path fill="#263238" d="M498.827,880.931l-10.576-6.104c-0.065-0.037-0.169-0.037-0.234,0l-15.137,8.739
	c-0.064,0.036-0.064,0.097,0,0.134l9.237,5.333c0.063,0.038,0.169,0.038,0.231,0l4.871-2.813c0.063-0.037,0.189-0.064,0.281-0.062
	l2.236,0.06c0.091,0.002,0.217-0.024,0.282-0.062l1.234-0.714c0.064-0.037,0.069-0.101,0.011-0.142l-0.459-0.26
	c-0.059-0.039-0.006-0.126,0.058-0.163l0.967-0.575c0.062-0.037,0.188-0.066,0.279-0.065l1.041,0.013
	c0.092,0.002,0.217-0.027,0.281-0.064l5.395-3.114C498.892,881.028,498.892,880.969,498.827,880.931"/>
<path fill="#FFEB3B" d="M474.646,884.071c-0.134-0.076-0.134-0.201,0.001-0.276l3.729-2.155c0.134-0.075,0.349-0.075,0.481,0
	l0.802,0.466c0.133,0.074,0.134,0.2,0.001,0.275l-3.73,2.155c-0.133,0.075-0.35,0.075-0.481,0L474.646,884.071z"/>
<path fill="#FFEB3B" d="M476.571,885.183c-0.132-0.075-0.132-0.198,0.001-0.275l3.729-2.154c0.134-0.077,0.35-0.077,0.481,0
	l0.803,0.463c0.131,0.077,0.132,0.201,0,0.277l-3.729,2.155c-0.134,0.074-0.351,0.074-0.481,0L476.571,885.183z"/>
<path fill="#FFEB3B" d="M478.496,886.295c-0.133-0.077-0.133-0.202,0-0.278l3.729-2.152c0.134-0.077,0.35-0.077,0.481,0l0.802,0.463
	c0.133,0.077,0.132,0.201,0,0.278l-3.729,2.152c-0.134,0.076-0.351,0.076-0.483,0L478.496,886.295z"/>
<path fill="#FFEB3B" d="M480.421,887.406c-0.133-0.077-0.133-0.2,0.001-0.278l3.729-2.153c0.132-0.075,0.348-0.075,0.48,0
	l0.802,0.463c0.133,0.078,0.133,0.202,0.001,0.278l-3.729,2.153c-0.134,0.076-0.35,0.076-0.483,0L480.421,887.406z"/>
<g opacity="0.6">
	<g>
		<g>
			<defs>
				<rect id="SVGID_51_" x="490.792" y="884.171" width="24.672" height="15.529"/>
			</defs>
			<clipPath id="SVGID_52_">
				<use xlink:href="#SVGID_51_"  overflow="visible"/>
			</clipPath>
			<path clip-path="url(#SVGID_52_)" fill="#6C8193" d="M490.861,891.588l-0.07,2.607c-0.001,0.062,0.041,0.123,0.118,0.167
				l9.126,5.27c0.156,0.09,0.41,0.09,0.566,0l14.743-8.514c0.158-0.091,0.158-0.236,0-0.326l-11.347-6.552
				c-0.156-0.093-0.411-0.093-0.567,0l-12.45,7.188C490.906,891.472,490.864,891.529,490.861,891.588"/>
		</g>
	</g>
</g>
<path fill="#536A7C" d="M490.861,892.565c0.002-0.059,0.045-0.117,0.119-0.16l12.45-7.188c0.156-0.092,0.411-0.092,0.567,0
	l10.723,6.189l0.739-0.432v0.935c0.012,0.067-0.025,0.136-0.115,0.187l-14.743,8.515c-0.156,0.089-0.41,0.089-0.566,0l-9.126-5.271
	c-0.077-0.043-0.119-0.104-0.118-0.167L490.861,892.565z"/>
<path fill="#263238" d="M490.861,891.588l-0.07,2.607c-0.001,0.062,0.041,0.123,0.118,0.167l9.126,5.27
	c0.156,0.09,0.41,0.09,0.566,0l14.743-8.514c0.158-0.091,0.158-0.236,0-0.326l-11.347-6.552c-0.156-0.093-0.411-0.093-0.567,0
	l-12.45,7.188C490.906,891.472,490.864,891.529,490.861,891.588"/>
<g opacity="0.3">
	<g>
		<g>
			<defs>
				<rect id="SVGID_53_" x="494.36" y="887.515" width="21.104" height="13.162"/>
			</defs>
			<clipPath id="SVGID_54_">
				<use xlink:href="#SVGID_53_"  overflow="visible"/>
			</clipPath>
			<path clip-path="url(#SVGID_54_)" fill="#FFFFFF" d="M509.672,887.515c1.518,0.875,5.641,3.186,5.744,3.332
				c0.067,0.099,0.044,0.13,0.044,0.13v0.935c0.011,0.067-0.025,0.136-0.113,0.187l-14.745,8.513c-0.156,0.091-0.411,0.092-0.567,0
				l-5.674-3.275v-0.977L509.672,887.515z"/>
		</g>
	</g>
</g>
<path fill="#FFEB3B" d="M502.475,886.081c0.192-0.109,0.504-0.109,0.696,0l9.277,5.356c0.19,0.11,0.19,0.291,0,0.399l-9.277,5.357
	c-0.192,0.11-0.504,0.109-0.696,0l-9.276-5.357c-0.192-0.108-0.192-0.289,0-0.399L502.475,886.081z"/>
<path fill="#FF5643" d="M495.012,892.066l7.069,4.082c0.458,0.265,1.2,0.263,1.658,0l7.069-4.082c0.456-0.264,0.456-0.692,0-0.956
	l-7.069-4.083c-0.458-0.264-1.201-0.264-1.658,0l-7.069,4.083C494.555,891.373,494.555,891.804,495.012,892.066"/>
<polygon fill="#FFEB3B" points="499.515,894.283 501.31,893.247 502.914,894.174 501.119,895.21 "/>
<polygon fill="#FFEB3B" points="499.402,892.146 500.991,893.062 499.195,894.1 497.607,893.184 "/>
<path fill="#FFEB3B" d="M498.877,889.26l5.634,3.253l-1.907,1.101l-3.203-1.85l-2.125,1.229l-1.934-1.116
	c-0.273-0.158-0.274-0.415-0.001-0.574L498.877,889.26z"/>
<path fill="#FFEB3B" d="M503.158,889.276l-2.154-1.244l1.408-0.813c0.274-0.156,0.72-0.156,0.994,0l1.658,0.957L503.158,889.276z"/>
<polygon fill="#FFEB3B" points="505.644,890.71 503.489,889.467 505.395,888.367 507.548,889.61 "/>
<polygon fill="#FFEB3B" points="508.13,892.146 505.974,890.901 507.879,889.803 510.035,891.046 "/>
<path fill="#FFEB3B" d="M510.477,891.875l-3.203,1.85l-2.1-1.213l-0.332-0.188l-5.634-3.254l1.464-0.845l2.319,1.339l0.167,0.097
	l2.318,1.34l0.165,0.095l2.486,1.437l2.236-1.292l0.11,0.062C510.75,891.461,510.751,891.716,510.477,891.875"/>
<polygon fill="#FFEB3B" points="506.941,893.915 505.035,895.016 502.938,893.804 504.844,892.704 "/>
<path fill="#FFEB3B" d="M504.706,895.208l-1.299,0.748c-0.273,0.159-0.72,0.159-0.993,0.002l-0.975-0.564l1.795-1.034l1.47,0.85
	L504.706,895.208L504.706,895.208z"/>
<g>
	<g>
		<g opacity="0.6">
			<defs>
				<rect id="SVGID_55_" x="495.533" y="770.375" opacity="0.6" width="39.105" height="107.09"/>
			</defs>
			<clipPath id="SVGID_56_">
				<use xlink:href="#SVGID_55_"  overflow="visible"/>
			</clipPath>
			<g clip-path="url(#SVGID_56_)">
				<g>
					<g>
						<defs>
							<rect id="SVGID_57_" x="495.533" y="770.375" width="39.105" height="107.09"/>
						</defs>
						<clipPath id="SVGID_58_">
							<use xlink:href="#SVGID_57_"  overflow="visible"/>
						</clipPath>
						<polygon clip-path="url(#SVGID_58_)" fill="#6C8193" points="495.533,854.888 534.64,877.465 534.64,792.953 495.533,770.375 
													"/>
					</g>
				</g>
			</g>
		</g>
		<polygon fill="#7D00AD" points="494.534,783.873 499.507,786.744 503.423,784.484 498.449,781.613 		"/>
		<polygon fill="#7D00AD" points="494.534,812.268 499.507,815.139 503.423,812.879 498.449,810.007 		"/>
		<polygon fill="#FFEB3B" points="495.533,854.888 534.64,877.465 534.64,792.953 495.533,770.375 		"/>
		<path fill="#263238" d="M497.173,850.629c0,0.919,0.649,2.035,1.449,2.498l32.933,19.013c0.797,0.46,1.445,0.095,1.445-0.824
			V797.21c0-0.912-0.648-2.038-1.445-2.496l-32.933-19.015c-0.8-0.463-1.449-0.088-1.449,0.827V850.629z"/>
		<polygon fill="#FFFFFF" points="506.287,783.548 523.888,793.71 523.888,791.938 506.287,781.775 		"/>
		<path fill="#FFFFFF" d="M513.888,855.307c0,0.773,0.545,1.702,1.205,2.084c0.662,0.383,1.195,0.076,1.195-0.697
			c0-0.764-0.533-1.688-1.195-2.07C514.431,854.24,513.888,854.545,513.888,855.307"/>
		<path fill="#FFFFFF" d="M522.987,860.26c0,0.586,0.403,1.273,0.898,1.561c0.497,0.287,0.901,0.064,0.901-0.521
			c0-0.572-0.404-1.262-0.9-1.547C523.392,859.466,522.987,859.688,522.987,860.26"/>
		<path fill="#FFFFFF" d="M504.962,850.151c0,0.586,0.405,1.273,0.902,1.562s0.901,0.066,0.901-0.52c0-0.571-0.404-1.264-0.901-1.55
			S504.962,849.58,504.962,850.151"/>
		<polygon fill="#B7F9FE" points="499.012,842.109 531.407,860.812 531.407,801.497 499.012,782.795 		"/>
		<polygon fill="#FFCE00" points="534.64,877.499 540.354,874.198 540.354,789.653 534.64,792.953 		"/>
		<polygon fill="#FFEB3B" points="495.533,770.375 534.64,792.948 540.354,789.653 500.665,767.411 		"/>
		<polygon fill="#263238" points="523.81,784.069 534.47,790.229 536.027,789.326 525.209,783.264 		"/>
		<polygon fill="#FFEB3B" points="534.64,877.499 540.354,874.198 540.354,789.653 534.64,792.953 		"/>
		<polygon fill="#263238" points="536.52,816.493 538.474,815.366 538.474,796.812 536.52,797.94 		"/>
		<polygon fill="#124B60" points="149.704,997.54 149.712,1000.418 164.121,1008.793 164.114,1005.913 		"/>
		<polygon fill="#0C3443" points="164.113,1005.913 164.122,1008.792 228.857,971.417 228.85,968.538 		"/>
		<polygon fill="#14546B" points="149.704,997.54 164.114,1005.913 228.849,968.538 214.441,960.165 		"/>
		<polygon fill="#1D272B" points="166.514,962.919 163.113,960.942 163.21,995.431 166.611,997.408 		"/>
		<polygon fill="#212B30" points="215.361,934.717 211.96,932.739 163.114,960.943 166.514,962.919 		"/>
		<polygon fill="#141B1E" points="166.514,962.919 166.611,997.408 215.459,969.205 215.361,934.717 		"/>
		<polygon fill="#124B60" points="112.397,901.079 108.042,898.548 108.35,1007.268 112.705,1009.798 		"/>
		<polygon fill="#14546B" points="270.211,809.965 265.856,807.434 108.042,898.549 112.398,901.08 		"/>
		<polygon fill="#0C3443" points="112.397,901.079 112.705,1009.798 270.519,918.684 270.211,809.965 		"/>
		<polygon fill="#B7F9FE" points="114.491,906.55 114.751,998.656 264.083,912.44 263.821,820.334 		"/>
		<polygon fill="#124B60" points="136.006,1039.621 136.015,1042.447 192.418,1075.226 192.411,1072.399 		"/>
		<polygon fill="#0C3443" points="192.411,1072.399 192.419,1075.226 337.395,991.523 337.387,988.697 		"/>
		<polygon fill="#14546B" points="136.006,1039.621 192.411,1072.399 337.387,988.697 280.982,955.918 		"/>
		<polygon fill="#FFFFFF" points="270.86,970.11 270.863,971.061 279.131,975.865 279.129,974.916 		"/>
		<polygon fill="#FFFFFF" points="279.129,974.916 279.131,975.865 287.462,971.056 287.459,970.106 		"/>
		<polygon fill="#FFFFFF" points="270.86,970.11 279.129,974.916 287.459,970.106 279.19,965.302 		"/>
		<polygon fill="#FFFFFF" points="281.051,976.032 281.053,976.981 289.33,981.792 289.326,980.842 		"/>
		<polygon fill="#FFFFFF" points="289.327,980.842 289.329,981.791 297.659,976.981 297.657,976.032 		"/>
		<polygon fill="#FFFFFF" points="281.051,976.032 289.326,980.842 297.657,976.032 289.38,971.223 		"/>
		<polygon fill="#FFFFFF" points="291.248,981.958 291.25,982.908 299.519,987.714 299.516,986.764 		"/>
		<polygon fill="#FFFFFF" points="299.517,986.764 299.519,987.714 307.849,982.902 307.847,981.953 		"/>
		<polygon fill="#FFFFFF" points="291.248,981.958 299.516,986.764 307.846,981.953 299.578,977.148 		"/>
		<polygon fill="#FFFFFF" points="301.445,987.885 301.447,988.834 309.717,993.641 309.714,992.689 		"/>
		<polygon fill="#FFFFFF" points="309.714,992.689 309.717,993.641 318.047,988.829 318.044,987.879 		"/>
		<polygon fill="#FFFFFF" points="301.445,987.885 309.714,992.689 318.044,987.879 309.775,983.074 		"/>
		<polygon fill="#FFFFFF" points="260.277,976.222 260.279,977.171 268.547,981.977 268.545,981.026 		"/>
		<polygon fill="#FFFFFF" points="268.545,981.026 268.548,981.977 276.878,977.167 276.875,976.218 		"/>
		<polygon fill="#FFFFFF" points="260.277,976.222 268.545,981.026 276.875,976.218 268.607,971.411 		"/>
		<polygon fill="#FFFFFF" points="270.467,982.144 270.469,983.093 278.746,987.902 278.743,986.952 		"/>
		<polygon fill="#FFFFFF" points="278.743,986.952 278.745,987.902 287.075,983.093 287.073,982.144 		"/>
		<polygon fill="#FFFFFF" points="270.467,982.144 278.743,986.952 287.074,982.144 278.797,977.333 		"/>
		<polygon fill="#FFFFFF" points="280.664,988.069 280.666,989.019 288.935,993.823 288.933,992.874 		"/>
		<polygon fill="#FFFFFF" points="288.933,992.874 288.935,993.824 297.266,989.014 297.263,988.064 		"/>
		<polygon fill="#FFFFFF" points="280.664,988.069 288.933,992.874 297.263,988.064 288.994,983.259 		"/>
		<polygon fill="#FFFFFF" points="290.861,993.994 290.864,994.945 299.134,999.75 299.13,998.801 		"/>
		<polygon fill="#FFFFFF" points="299.13,998.801 299.132,999.75 307.463,994.939 307.46,993.99 		"/>
		<polygon fill="#FFFFFF" points="290.861,993.994 299.13,998.801 307.46,993.99 299.191,989.185 		"/>
		<polygon fill="#FFFFFF" points="249.692,982.332 249.695,983.282 257.963,988.087 257.961,987.138 		"/>
		<polygon fill="#FFFFFF" points="257.961,987.138 257.964,988.087 266.294,983.276 266.292,982.327 		"/>
		<polygon fill="#FFFFFF" points="249.692,982.332 257.961,987.138 266.291,982.327 258.022,977.521 		"/>
		<polygon fill="#FFFFFF" points="259.883,988.254 259.885,989.203 268.162,994.013 268.158,993.062 		"/>
		<polygon fill="#FFFFFF" points="268.159,993.062 268.161,994.013 276.492,989.203 276.489,988.254 		"/>
		<polygon fill="#FFFFFF" points="259.883,988.254 268.158,993.062 276.49,988.254 268.212,983.444 		"/>
		<polygon fill="#FFFFFF" points="270.08,994.18 270.083,995.129 278.351,999.935 278.349,998.984 		"/>
		<polygon fill="#FFFFFF" points="278.349,998.984 278.351,999.935 286.681,995.125 286.679,994.175 		"/>
		<polygon fill="#FFFFFF" points="270.08,994.18 278.349,998.984 286.679,994.175 278.41,989.37 		"/>
		<polygon fill="#FFFFFF" points="280.278,1000.105 280.28,1001.055 288.549,1005.86 288.546,1004.91 		"/>
		<polygon fill="#FFFFFF" points="288.546,1004.91 288.549,1005.86 296.879,1001.051 296.876,1000.101 		"/>
		<polygon fill="#FFFFFF" points="280.278,1000.105 288.546,1004.91 296.876,1000.101 288.608,995.296 		"/>
		<polygon fill="#FFFFFF" points="239.109,988.442 239.111,989.393 247.38,994.198 247.377,993.248 		"/>
		<polygon fill="#FFFFFF" points="247.377,993.248 247.38,994.197 255.71,989.388 255.708,988.438 		"/>
		<polygon fill="#FFFFFF" points="239.109,988.442 247.377,993.248 255.708,988.438 247.439,983.632 		"/>
		<polygon fill="#FFFFFF" points="249.299,994.364 249.301,995.314 257.578,1000.124 257.574,999.175 		"/>
		<polygon fill="#FFFFFF" points="257.575,999.174 257.577,1000.124 265.907,995.312 265.905,994.364 		"/>
		<polygon fill="#FFFFFF" points="249.299,994.364 257.574,999.175 265.906,994.364 257.629,989.555 		"/>
		<polygon fill="#FFFFFF" points="259.497,1000.291 259.499,1001.24 267.767,1006.045 267.765,1005.096 		"/>
		<polygon fill="#FFFFFF" points="267.765,1005.096 267.768,1006.045 276.098,1001.235 276.095,1000.286 		"/>
		<polygon fill="#FFFFFF" points="259.497,1000.291 267.765,1005.096 276.095,1000.286 267.827,995.48 		"/>
		<polygon fill="#FFFFFF" points="269.693,1006.217 269.696,1007.166 277.965,1011.971 277.962,1011.021 		"/>
		<polygon fill="#FFFFFF" points="277.962,1011.021 277.965,1011.971 286.295,1007.161 286.292,1006.212 		"/>
		<polygon fill="#FFFFFF" points="269.693,1006.217 277.962,1011.021 286.292,1006.212 278.023,1001.407 		"/>
		<polygon fill="#FFFFFF" points="228.524,994.553 228.527,995.502 236.795,1000.309 236.793,999.357 		"/>
		<polygon fill="#FFFFFF" points="236.794,999.357 236.796,1000.309 245.126,995.497 245.124,994.548 		"/>
		<polygon fill="#FFFFFF" points="228.524,994.553 236.793,999.357 245.123,994.548 236.855,989.743 		"/>
		<polygon fill="#FFFFFF" points="238.715,1000.475 238.717,1001.425 246.994,1006.235 246.99,1005.286 		"/>
		<polygon fill="#FFFFFF" points="246.991,1005.284 246.994,1006.234 255.324,1001.425 255.321,1000.474 		"/>
		<polygon fill="#FFFFFF" points="238.715,1000.475 246.99,1005.286 255.322,1000.475 247.045,995.664 		"/>
		<polygon fill="#FFFFFF" points="248.912,1006.4 248.915,1007.352 257.183,1012.156 257.181,1011.207 		"/>
		<polygon fill="#FFFFFF" points="257.181,1011.207 257.183,1012.156 265.514,1007.347 265.511,1006.396 		"/>
		<polygon fill="#FFFFFF" points="248.912,1006.4 257.181,1011.207 265.511,1006.396 257.242,1001.591 		"/>
		<polygon fill="#FFFFFF" points="259.11,1012.327 259.112,1013.277 267.382,1018.082 267.378,1017.133 		"/>
		<polygon fill="#FFFFFF" points="267.378,1017.133 267.381,1018.082 275.711,1013.271 275.708,1012.323 		"/>
		<polygon fill="#FFFFFF" points="259.11,1012.327 267.378,1017.133 275.708,1012.323 267.44,1007.517 		"/>
		<polygon fill="#FFFFFF" points="217.941,1000.664 217.943,1001.613 226.212,1006.418 226.209,1005.469 		"/>
		<polygon fill="#FFFFFF" points="226.209,1005.469 226.212,1006.418 234.535,1001.613 234.533,1000.664 		"/>
		<polygon fill="#FFFFFF" points="217.941,1000.664 226.209,1005.469 234.533,1000.664 226.264,995.858 		"/>
		<polygon fill="#FFFFFF" points="228.131,1006.585 228.133,1007.535 236.41,1012.345 236.406,1011.396 		"/>
		<polygon fill="#FFFFFF" points="236.407,1011.395 236.409,1012.345 244.732,1007.539 244.73,1006.59 		"/>
		<polygon fill="#FFFFFF" points="228.131,1006.585 236.406,1011.396 244.729,1006.591 236.454,1001.78 		"/>
		<polygon fill="#FFFFFF" points="238.329,1012.512 238.331,1013.461 246.6,1018.268 246.597,1017.316 		"/>
		<polygon fill="#FFFFFF" points="246.597,1017.316 246.6,1018.268 254.922,1013.461 254.92,1012.512 		"/>
		<polygon fill="#FFFFFF" points="238.329,1012.512 246.597,1017.316 254.919,1012.512 246.651,1007.706 		"/>
		<polygon fill="#FFFFFF" points="248.525,1018.438 248.528,1019.388 256.797,1024.193 256.794,1023.243 		"/>
		<polygon fill="#FFFFFF" points="256.795,1023.243 256.797,1024.193 265.12,1019.388 265.118,1018.438 		"/>
		<polygon fill="#FFFFFF" points="248.525,1018.438 256.794,1023.243 265.117,1018.438 256.849,1013.633 		"/>
		<polygon fill="#FFFFFF" points="207.357,1006.774 207.359,1007.724 215.628,1012.529 215.626,1011.58 		"/>
		<polygon fill="#FFFFFF" points="215.626,1011.58 215.628,1012.529 223.951,1007.724 223.949,1006.774 		"/>
		<polygon fill="#FFFFFF" points="207.357,1006.774 215.626,1011.58 223.949,1006.774 215.68,1001.97 		"/>
		<polygon fill="#FFFFFF" points="217.547,1012.696 217.549,1013.646 225.826,1018.456 225.823,1017.505 		"/>
		<polygon fill="#FFFFFF" points="225.823,1017.505 225.826,1018.455 234.148,1013.649 234.146,1012.7 		"/>
		<polygon fill="#FFFFFF" points="217.547,1012.696 225.823,1017.505 234.146,1012.7 225.87,1007.891 		"/>
		<polygon fill="#FFFFFF" points="227.744,1018.622 227.747,1019.572 236.015,1024.377 236.013,1023.428 		"/>
		<polygon fill="#FFFFFF" points="236.013,1023.428 236.016,1024.377 244.339,1019.572 244.336,1018.622 		"/>
		<polygon fill="#FFFFFF" points="227.744,1018.622 236.013,1023.428 244.336,1018.622 236.067,1013.816 		"/>
		<polygon fill="#FFFFFF" points="237.942,1024.549 237.944,1025.498 246.214,1030.304 246.21,1029.354 		"/>
		<polygon fill="#FFFFFF" points="246.21,1029.354 246.213,1030.304 254.536,1025.498 254.533,1024.549 		"/>
		<polygon fill="#FFFFFF" points="237.942,1024.549 246.21,1029.354 254.533,1024.549 246.265,1019.742 		"/>
		<polygon fill="#FFFFFF" points="196.773,1012.886 196.776,1013.835 205.044,1018.64 205.042,1017.69 		"/>
		<polygon fill="#FFFFFF" points="205.042,1017.69 205.044,1018.64 213.367,1013.835 213.365,1012.886 		"/>
		<polygon fill="#FFFFFF" points="196.773,1012.886 205.042,1017.69 213.364,1012.886 205.097,1008.079 		"/>
		<polygon fill="#FFFFFF" points="206.963,1018.807 206.965,1019.756 215.243,1024.564 215.238,1023.616 		"/>
		<polygon fill="#FFFFFF" points="215.239,1023.616 215.242,1024.564 223.564,1019.761 223.562,1018.812 		"/>
		<polygon fill="#FFFFFF" points="206.963,1018.807 215.238,1023.616 223.562,1018.812 215.286,1014.002 		"/>
		<polygon fill="#FFFFFF" points="217.161,1024.732 217.163,1025.682 225.432,1030.487 225.429,1029.538 		"/>
		<polygon fill="#FFFFFF" points="225.429,1029.538 225.432,1030.487 233.754,1025.682 233.752,1024.732 		"/>
		<polygon fill="#FFFFFF" points="217.161,1024.732 225.429,1029.538 233.752,1024.732 225.483,1019.928 		"/>
		<polygon fill="#FFFFFF" points="227.358,1030.658 227.36,1031.607 235.63,1036.414 235.626,1035.465 		"/>
		<polygon fill="#FFFFFF" points="235.626,1035.465 235.629,1036.414 243.952,1031.607 243.95,1030.658 		"/>
		<polygon fill="#FFFFFF" points="227.358,1030.658 235.626,1035.465 243.949,1030.658 235.681,1025.854 		"/>
		<polygon fill="#FFFFFF" points="186.189,1018.995 186.191,1019.946 194.46,1024.751 194.458,1023.802 		"/>
		<polygon fill="#FFFFFF" points="194.458,1023.801 194.46,1024.751 202.783,1019.945 202.781,1018.995 		"/>
		<polygon fill="#FFFFFF" points="186.189,1018.995 194.458,1023.802 202.781,1018.995 194.512,1014.19 		"/>
		<polygon fill="#FFFFFF" points="196.379,1024.918 196.381,1025.867 204.658,1030.677 204.655,1029.729 		"/>
		<polygon fill="#FFFFFF" points="204.655,1029.729 204.658,1030.677 212.98,1025.872 212.979,1024.923 		"/>
		<polygon fill="#FFFFFF" points="196.379,1024.918 204.655,1029.729 212.978,1024.923 204.702,1020.113 		"/>
		<polygon fill="#FFFFFF" points="206.577,1030.844 206.579,1031.793 214.848,1036.598 214.845,1035.648 		"/>
		<polygon fill="#FFFFFF" points="214.845,1035.648 214.848,1036.598 223.171,1031.793 223.168,1030.844 		"/>
		<polygon fill="#FFFFFF" points="206.577,1030.844 214.845,1035.648 223.168,1030.844 214.9,1026.038 		"/>
		<polygon fill="#FFFFFF" points="216.774,1036.77 216.776,1037.719 225.046,1042.524 225.042,1041.574 		"/>
		<polygon fill="#FFFFFF" points="225.043,1041.574 225.045,1042.524 233.368,1037.719 233.366,1036.77 		"/>
		<polygon fill="#FFFFFF" points="216.774,1036.77 225.042,1041.574 233.365,1036.77 225.097,1031.964 		"/>
		<polygon fill="#FFFFFF" points="175.605,1025.105 175.608,1026.056 183.876,1030.861 183.874,1029.911 		"/>
		<polygon fill="#FFFFFF" points="183.874,1029.911 183.876,1030.861 192.199,1026.056 192.197,1025.105 		"/>
		<polygon fill="#FFFFFF" points="175.605,1025.105 183.874,1029.911 192.197,1025.105 183.928,1020.301 		"/>
		<polygon fill="#FFFFFF" points="185.795,1031.027 185.798,1031.979 194.075,1036.788 194.071,1035.839 		"/>
		<polygon fill="#FFFFFF" points="194.072,1035.837 194.074,1036.788 202.397,1031.98 202.395,1031.032 		"/>
		<polygon fill="#FFFFFF" points="185.795,1031.027 194.071,1035.839 202.394,1031.033 194.119,1026.223 		"/>
		<polygon fill="#FFFFFF" points="195.993,1036.954 195.995,1037.904 204.263,1042.709 204.261,1041.76 		"/>
		<polygon fill="#FFFFFF" points="204.262,1041.76 204.264,1042.709 212.587,1037.904 212.585,1036.954 		"/>
		<polygon fill="#FFFFFF" points="195.993,1036.954 204.261,1041.76 212.584,1036.954 204.315,1032.148 		"/>
		<polygon fill="#FFFFFF" points="165.021,1031.217 165.024,1032.166 173.292,1036.972 173.29,1036.021 		"/>
		<polygon fill="#FFFFFF" points="173.291,1036.021 173.292,1036.972 181.616,1032.166 181.613,1031.217 		"/>
		<polygon fill="#FFFFFF" points="165.021,1031.217 173.29,1036.021 181.613,1031.217 173.345,1026.411 		"/>
		<polygon fill="#FFFFFF" points="175.211,1037.139 175.213,1038.088 183.49,1042.899 183.487,1041.948 		"/>
		<polygon fill="#FFFFFF" points="183.487,1041.948 183.49,1042.896 191.812,1038.093 191.811,1037.143 		"/>
		<polygon fill="#FFFFFF" points="175.211,1037.139 183.487,1041.948 191.81,1037.145 183.534,1032.333 		"/>
		<polygon fill="#FFFFFF" points="185.409,1043.064 185.411,1044.014 193.68,1048.82 193.677,1047.869 		"/>
		<polygon fill="#FFFFFF" points="193.677,1047.869 193.68,1048.82 202.003,1044.014 202,1043.064 		"/>
		<polygon fill="#FFFFFF" points="185.409,1043.064 193.677,1047.869 202,1043.064 193.732,1038.26 		"/>
		<polygon fill="#FFFFFF" points="195.606,1048.99 195.608,1049.939 203.878,1054.746 203.875,1053.796 		"/>
		<polygon fill="#FFFFFF" points="203.875,1053.796 203.877,1054.746 212.2,1049.939 212.198,1048.99 		"/>
		<polygon fill="#FFFFFF" points="195.606,1048.99 203.875,1053.796 212.197,1048.99 203.929,1044.186 		"/>
		<polygon fill="#FFFFFF" points="154.438,1037.327 154.44,1038.276 162.708,1043.083 162.706,1042.133 		"/>
		<polygon fill="#FFFFFF" points="162.706,1042.133 162.708,1043.082 171.031,1038.276 171.029,1037.327 		"/>
		<polygon fill="#FFFFFF" points="154.438,1037.327 162.706,1042.133 171.029,1037.327 162.76,1032.521 		"/>
		<polygon fill="#FFFFFF" points="164.627,1043.25 164.63,1044.199 172.907,1049.009 172.903,1048.061 		"/>
		<polygon fill="#FFFFFF" points="172.904,1048.059 172.906,1049.009 181.229,1044.202 181.227,1043.253 		"/>
		<polygon fill="#FFFFFF" points="164.627,1043.25 172.903,1048.061 181.226,1043.255 172.951,1038.443 		"/>
		<polygon fill="#FFFFFF" points="174.825,1049.176 174.827,1050.125 183.095,1054.93 183.093,1053.98 		"/>
		<polygon fill="#FFFFFF" points="183.094,1053.98 183.096,1054.93 191.419,1050.125 191.417,1049.176 		"/>
		<polygon fill="#FFFFFF" points="174.825,1049.176 183.093,1053.98 191.416,1049.176 183.148,1044.37 		"/>
		
			<polyline fill="none" stroke="#FFFFFF" stroke-width="3" stroke-linecap="round" stroke-linejoin="round" stroke-miterlimit="10" stroke-dasharray="11,6" points="
			419.503,1084.605 404.825,1092.791 332.214,1049.694 		"/>
		
			<line fill="none" stroke="#FFFFFF" stroke-width="3" stroke-linecap="round" stroke-linejoin="round" x1="557.401" y1="992.034" x2="563.048" y2="988.774"/>
		<polyline fill="none" stroke="#FFFFFF" stroke-width="3" stroke-linecap="round" stroke-linejoin="round" points="
			570.069,984.721 575.716,981.46 581.354,984.739 		"/>
		
			<line fill="none" stroke="#FFFFFF" stroke-width="3" stroke-linecap="round" stroke-linejoin="round" stroke-dasharray="10.535,5.746" x1="587.241" y1="988.166" x2="684.399" y2="1044.702"/>
		<polyline fill="none" stroke="#FFFFFF" stroke-width="3" stroke-linecap="round" stroke-linejoin="round" points="
			687.345,1046.415 692.98,1049.694 698.604,1046.395 		"/>
		
			<line fill="none" stroke="#FFFFFF" stroke-width="3" stroke-linecap="round" stroke-linejoin="round" stroke-dasharray="8.36,4.56" x1="703.267" y1="1043.657" x2="727.357" y2="1029.52"/>
		<polyline fill="none" stroke="#FFFFFF" stroke-width="3" stroke-linecap="round" stroke-linejoin="round" points="
			729.689,1028.15 735.312,1024.851 729.666,1021.59 		"/>
		
			<line fill="none" stroke="#FFFFFF" stroke-width="3" stroke-linecap="round" stroke-linejoin="round" stroke-dasharray="9.353,5.101" x1="724.429" y1="1018.566" x2="712.205" y2="1011.509"/>
		
			<line fill="none" stroke="#FFFFFF" stroke-width="3" stroke-linecap="round" stroke-linejoin="round" x1="709.587" y1="1009.998" x2="703.939" y2="1006.737"/>
		
			<line fill="none" stroke="#FFFFFF" stroke-width="3" stroke-linecap="round" stroke-linejoin="round" x1="499.531" y1="975.349" x2="493.922" y2="972.023"/>
		
			<line fill="none" stroke="#FFFFFF" stroke-width="3" stroke-linecap="round" stroke-linejoin="round" stroke-dasharray="10.838,5.912" x1="487.893" y1="968.449" x2="456.744" y2="949.98"/>
		
			<line fill="none" stroke="#FFFFFF" stroke-width="3" stroke-linecap="round" stroke-linejoin="round" x1="453.729" y1="948.193" x2="448.12" y2="944.868"/>
		
			<polyline fill="none" stroke="#FFFFFF" stroke-width="3" stroke-linecap="round" stroke-linejoin="round" stroke-miterlimit="10" stroke-dasharray="11,6" points="
			470.436,956.367 544.521,913.221 520.78,900.717 		"/>
		<path fill="none" stroke="#FFFFFF" stroke-width="3" stroke-linecap="round" stroke-linejoin="round" d="M560.519,1059.468"/>
		
			<path fill="none" stroke="#FFFFFF" stroke-width="3" stroke-linecap="round" stroke-linejoin="round" stroke-dasharray="10.716,5.845" d="
			M566.521,1062.932"/>
		
			<line fill="none" stroke="#FFFFFF" stroke-width="3" stroke-linecap="round" stroke-linejoin="round" x1="718.821" y1="1009.729" x2="724.474" y2="1006.48"/>
		
			<line fill="none" stroke="#FFFFFF" stroke-width="3" stroke-linecap="round" stroke-linejoin="round" stroke-dasharray="11.158,6.086" x1="730.73" y1="1002.885" x2="833.952" y2="943.546"/>
		<polyline fill="none" stroke="#FFFFFF" stroke-width="3" stroke-linecap="round" stroke-linejoin="round" points="
			837.079,941.749 842.733,938.499 837.055,935.292 		"/>
		
			<line fill="none" stroke="#FFFFFF" stroke-width="3" stroke-linecap="round" stroke-linejoin="round" stroke-dasharray="11.489,6.267" x1="830.585" y1="931.639" x2="797.159" y2="912.76"/>
		<polyline fill="none" stroke="#FFFFFF" stroke-width="3" stroke-linecap="round" stroke-linejoin="round" points="
			793.925,910.933 788.247,907.726 793.936,904.54 		"/>
		
			<line fill="none" stroke="#FFFFFF" stroke-width="3" stroke-linecap="round" stroke-linejoin="round" stroke-dasharray="10.344,5.642" x1="799.771" y1="901.27" x2="813.389" y2="893.642"/>
		
			<line fill="none" stroke="#FFFFFF" stroke-width="3" stroke-linecap="round" stroke-linejoin="round" x1="816.307" y1="892.007" x2="821.996" y2="888.821"/>
		
			<path fill="none" stroke="#FFFFFF" stroke-width="3" stroke-linecap="round" stroke-linejoin="round" stroke-miterlimit="10" stroke-dasharray="11,6" d="
			M842.733,938.5"/>
		
			<line fill="none" stroke="#FFFFFF" stroke-width="3" stroke-linecap="round" stroke-linejoin="round" x1="470.237" y1="871.066" x2="464.536" y2="867.903"/>
		
			<line fill="none" stroke="#FFFFFF" stroke-width="3" stroke-linecap="round" stroke-linejoin="round" stroke-dasharray="9.923,5.413" x1="458.924" y1="864.79" x2="445.83" y2="857.526"/>
		<polyline fill="none" stroke="#FFFFFF" stroke-width="3" stroke-linecap="round" stroke-linejoin="round" points="
			443.024,855.969 437.323,852.806 442.864,849.369 		"/>
		
			<line fill="none" stroke="#FFFFFF" stroke-width="3" stroke-linecap="round" stroke-linejoin="round" stroke-dasharray="9.713,5.298" x1="448.204" y1="846.06" x2="460.662" y2="838.339"/>
		<polyline fill="none" stroke="#FFFFFF" stroke-width="3" stroke-linecap="round" stroke-linejoin="round" points="
			463.332,836.684 468.875,833.247 463.135,830.151 		"/>
		
			<line fill="none" stroke="#FFFFFF" stroke-width="3" stroke-linecap="round" stroke-linejoin="round" stroke-dasharray="8.877,4.842" x1="458.083" y1="827.426" x2="431.98" y2="813.342"/>
		
			<line fill="none" stroke="#FFFFFF" stroke-width="3" stroke-linecap="round" stroke-linejoin="round" x1="429.454" y1="811.979" x2="423.716" y2="808.882"/>
		<polygon fill="#F9DD35" points="392.078,1043.855 392.121,1059.296 464.347,1101.27 464.303,1085.829 		"/>
		<polygon fill="#F2D027" points="464.303,1085.828 464.347,1101.27 585.334,1031.419 585.29,1015.979 		"/>
		<polygon fill="#FFFA57" points="392.078,1043.855 464.303,1085.829 585.288,1015.979 513.062,974.004 		"/>
		<path fill="#F2D027" d="M410.05,1047.037c-2.292,0-4.149-2.028-4.149-4.532v-59.562c0-2.503,1.857-4.531,4.149-4.531
			s4.149,2.028,4.149,4.531v59.562C414.2,1045.009,412.342,1047.037,410.05,1047.037"/>
		<path fill="#FF5643" d="M465.852,1016.783c-10.935,6.312-17.742,15.059-17.854,24.705c-0.005,1.096,1.53,1.988,3.419,1.988
			c0.949,0,1.806-0.225,2.428-0.582c0.617-0.355,1.001-0.848,1.014-1.39c0.091-8.578,6.123-16.306,15.834-21.912
			c9.783-5.647,23.245-9.126,38.142-9.101c0.952,0,1.817-0.223,2.442-0.583c0.617-0.356,1.003-0.849,1.014-1.396
			c0.006-1.094-1.529-1.985-3.419-1.985C492.113,1006.504,476.861,1010.427,465.852,1016.783"/>
		<path fill="#FF5643" d="M492.695,1032.381c-4.055,2.342-6.602,5.591-6.636,9.168c-0.007,1.095,1.515,1.979,3.418,1.987
			c0.945,0,1.801-0.224,2.421-0.579c0.618-0.358,1.003-0.854,1.007-1.4c0.027-2.499,1.785-4.737,4.613-6.371
			c2.844-1.642,6.744-2.651,11.09-2.645c0.951,0,1.818-0.224,2.447-0.586c0.618-0.356,1.005-0.85,1.009-1.393
			c0.006-1.096-1.53-1.986-3.42-1.986C502.439,1028.568,496.777,1030.024,492.695,1032.381"/>
		<path fill="#FF5643" d="M503.477,1039.46c-1.031,0.597-1.674,1.42-1.679,2.333c-0.024,1.827,2.525,3.308,5.665,3.308
			c1.583,0.005,3.023-0.363,4.064-0.967c1.031-0.596,1.675-1.419,1.68-2.332c0.011-1.817-2.524-3.309-5.664-3.309
			C505.958,1038.489,504.519,1038.858,503.477,1039.46"/>
		<path fill="#FF5643" d="M479.281,1024.587c-7.532,4.349-12.18,10.337-12.245,16.938c-0.006,1.094,1.515,1.978,3.404,1.978
			c0.954,0.005,1.816-0.215,2.438-0.574c0.618-0.355,1-0.849,1.002-1.395c0.062-5.539,3.954-10.521,10.226-14.145
			c6.312-3.645,14.986-5.884,24.622-5.875c0.945,0.006,1.811-0.218,2.437-0.578c0.616-0.356,1.003-0.849,1.005-1.393
			c0.021-1.103-1.514-1.995-3.404-1.995C497.283,1017.531,486.819,1020.217,479.281,1024.587"/>
		
			<line fill="none" stroke="#FFFFFF" stroke-width="3" stroke-linecap="round" stroke-linejoin="round" x1="332.215" y1="1049.694" x2="326.498" y2="1046.559"/>
		
			<line fill="none" stroke="#FFFFFF" stroke-width="3" stroke-linecap="round" stroke-linejoin="round" stroke-dasharray="13.42,7.32" x1="318.889" y1="1042.386" x2="301.133" y2="1032.646"/>
		
			<line fill="none" stroke="#FFFFFF" stroke-width="3" stroke-linecap="round" stroke-linejoin="round" x1="297.329" y1="1030.562" x2="291.611" y2="1027.426"/>
		<polygon fill="#124B60" points="716.673,939.498 716.666,942.088 703.701,949.622 703.708,947.033 		"/>
		<polygon fill="#0C3443" points="703.708,947.033 703.701,949.622 645.467,916.001 645.475,913.411 		"/>
		<polygon fill="#14546B" points="716.673,939.498 703.708,947.033 645.474,913.411 658.44,905.877 		"/>
		<polygon fill="#1D272B" points="701.555,908.36 704.613,906.584 704.525,937.61 701.466,939.387 		"/>
		<polygon fill="#212B30" points="657.604,882.986 660.663,881.209 704.614,906.584 701.555,908.36 		"/>
		<polygon fill="#141B1E" points="701.555,908.36 701.466,939.387 657.517,914.013 657.604,882.986 		"/>
		<polygon fill="#124B60" points="750.234,852.725 754.152,850.446 753.874,948.25 749.956,950.526 		"/>
		<polygon fill="#14546B" points="608.255,770.753 612.173,768.477 754.151,850.447 750.234,852.724 		"/>
		<polygon fill="#0C3443" points="750.234,852.725 749.956,950.526 607.979,868.556 608.255,770.753 		"/>
		<polygon fill="#B7F9FE" points="748.352,857.646 748.116,940.507 613.775,862.944 614.011,780.082 		"/>
		<polygon fill="#124B60" points="729.001,977.361 728.993,979.902 678.253,1009.391 678.26,1006.849 		"/>
		<polygon fill="#0C3443" points="678.26,1006.849 678.253,1009.391 547.817,934.085 547.825,931.542 		"/>
		<polygon fill="#14546B" points="729.001,977.361 678.26,1006.849 547.825,931.541 598.566,902.054 		"/>
		<polygon fill="#FFFFFF" points="609.681,915.264 609.679,916.25 602.36,920.501 602.363,919.515 		"/>
		<polygon fill="#FFFFFF" points="602.364,919.515 602.362,920.501 594.992,916.247 594.995,915.261 		"/>
		<polygon fill="#FFFFFF" points="609.681,915.264 602.363,919.515 594.996,915.261 602.311,911.01 		"/>
		<polygon fill="#FFFFFF" points="619.106,920.705 619.104,921.691 611.788,925.943 611.79,924.957 		"/>
		<polygon fill="#FFFFFF" points="611.79,924.957 611.788,925.943 604.423,921.691 604.427,920.705 		"/>
		<polygon fill="#FFFFFF" points="619.106,920.705 611.79,924.957 604.427,920.705 611.743,916.454 		"/>
		<polygon fill="#FFFFFF" points="628.537,926.149 628.534,927.136 621.217,931.389 621.221,930.402 		"/>
		<polygon fill="#FFFFFF" points="621.221,930.402 621.219,931.389 613.854,927.137 613.856,926.15 		"/>
		<polygon fill="#FFFFFF" points="628.537,926.149 621.221,930.402 613.855,926.149 621.173,921.896 		"/>
		<polygon fill="#FFFFFF" points="637.963,931.593 637.961,932.579 630.645,936.83 630.646,935.845 		"/>
		<polygon fill="#FFFFFF" points="630.646,935.845 630.645,936.831 623.279,932.58 623.282,931.594 		"/>
		<polygon fill="#FFFFFF" points="637.963,931.593 630.646,935.845 623.282,931.593 630.599,927.341 		"/>
		<polygon fill="#FFFFFF" points="647.394,937.037 647.391,938.021 640.073,942.274 640.077,941.288 		"/>
		<polygon fill="#FFFFFF" points="640.077,941.288 640.075,942.274 632.71,938.021 632.713,937.037 		"/>
		<polygon fill="#FFFFFF" points="647.394,937.037 640.077,941.288 632.712,937.037 640.029,932.786 		"/>
		<polygon fill="#FFFFFF" points="656.819,942.479 656.817,943.466 649.501,947.718 649.503,946.73 		"/>
		<polygon fill="#FFFFFF" points="649.503,946.73 649.501,947.718 642.136,943.466 642.139,942.479 		"/>
		<polygon fill="#FFFFFF" points="656.819,942.479 649.503,946.73 642.139,942.479 649.455,938.229 		"/>
		<polygon fill="#FFFFFF" points="666.25,947.925 666.247,948.91 658.931,953.163 658.934,952.176 		"/>
		<polygon fill="#FFFFFF" points="658.934,952.176 658.931,953.163 651.566,948.911 651.569,947.925 		"/>
		<polygon fill="#FFFFFF" points="666.25,947.925 658.934,952.176 651.569,947.925 658.886,943.672 		"/>
		<polygon fill="#FFFFFF" points="675.679,953.368 675.677,954.355 668.36,958.606 668.362,957.62 		"/>
		<polygon fill="#FFFFFF" points="668.362,957.62 668.36,958.606 660.992,954.354 660.994,953.366 		"/>
		<polygon fill="#FFFFFF" points="675.679,953.368 668.362,957.62 660.995,953.366 668.311,949.115 		"/>
		<polygon fill="#FFFFFF" points="685.106,958.811 685.104,959.797 677.787,964.049 677.79,963.062 		"/>
		<polygon fill="#FFFFFF" points="677.79,963.062 677.787,964.049 670.423,959.797 670.426,958.811 		"/>
		<polygon fill="#FFFFFF" points="685.106,958.811 677.79,963.062 670.426,958.811 677.742,954.559 		"/>
		<polygon fill="#FFFFFF" points="694.535,964.255 694.533,965.241 687.217,969.492 687.219,968.506 		"/>
		<polygon fill="#FFFFFF" points="687.219,968.506 687.217,969.492 679.852,965.241 679.855,964.255 		"/>
		<polygon fill="#FFFFFF" points="694.535,964.255 687.219,968.506 679.855,964.255 687.172,960.003 		"/>
		<polygon fill="#FFFFFF" points="703.963,969.697 703.96,970.683 696.644,974.936 696.646,973.949 		"/>
		<polygon fill="#FFFFFF" points="696.646,973.949 696.644,974.936 689.279,970.684 689.282,969.697 		"/>
		<polygon fill="#FFFFFF" points="703.963,969.697 696.646,973.949 689.282,969.697 696.599,965.444 		"/>
		<polygon fill="#FFFFFF" points="713.392,975.142 713.39,976.128 706.073,980.38 706.075,979.394 		"/>
		<polygon fill="#FFFFFF" points="706.075,979.394 706.073,980.38 698.708,976.128 698.712,975.142 		"/>
		<polygon fill="#FFFFFF" points="713.392,975.142 706.075,979.394 698.712,975.142 706.028,970.89 		"/>
		<polygon fill="#FFFFFF" points="599.851,920.896 599.849,921.882 592.532,926.133 592.534,925.146 		"/>
		<polygon fill="#FFFFFF" points="592.534,925.146 592.532,926.133 585.167,921.882 585.171,920.896 		"/>
		<polygon fill="#FFFFFF" points="599.851,920.896 592.534,925.146 585.171,920.896 592.487,916.644 		"/>
		<polygon fill="#FFFFFF" points="609.281,926.339 609.277,927.325 601.961,931.577 601.964,930.591 		"/>
		<polygon fill="#FFFFFF" points="601.965,930.592 601.963,931.577 594.597,927.325 594.6,926.339 		"/>
		<polygon fill="#FFFFFF" points="609.281,926.339 601.964,930.591 594.6,926.339 601.916,922.088 		"/>
		<polygon fill="#FFFFFF" points="618.707,931.782 618.705,932.769 611.389,937.021 611.391,936.034 		"/>
		<polygon fill="#FFFFFF" points="611.391,936.034 611.389,937.021 604.023,932.769 604.026,931.782 		"/>
		<polygon fill="#FFFFFF" points="618.707,931.782 611.391,936.034 604.026,931.782 611.343,927.53 		"/>
		<polygon fill="#FFFFFF" points="628.138,937.227 628.134,938.213 620.817,942.464 620.82,941.479 		"/>
		<polygon fill="#FFFFFF" points="620.821,941.479 620.819,942.464 613.453,938.213 613.456,937.229 		"/>
		<polygon fill="#FFFFFF" points="628.138,937.227 620.82,941.479 613.456,937.227 620.771,932.975 		"/>
		<polygon fill="#FFFFFF" points="637.562,942.668 637.562,943.654 630.245,947.906 630.247,946.92 		"/>
		<polygon fill="#FFFFFF" points="630.247,946.921 630.245,947.907 622.88,943.655 622.884,942.669 		"/>
		<polygon fill="#FFFFFF" points="637.562,942.668 630.247,946.92 622.884,942.668 630.199,938.417 		"/>
		<polygon fill="#FFFFFF" points="646.994,948.113 646.99,949.1 639.674,953.352 639.677,952.365 		"/>
		<polygon fill="#FFFFFF" points="639.678,952.365 639.675,953.352 632.31,949.1 632.312,948.113 		"/>
		<polygon fill="#FFFFFF" points="646.994,948.113 639.677,952.365 632.312,948.113 639.629,943.861 		"/>
		<polygon fill="#FFFFFF" points="656.423,953.559 656.421,954.545 649.104,958.797 649.106,957.81 		"/>
		<polygon fill="#FFFFFF" points="649.106,957.81 649.104,958.797 641.736,954.543 641.738,953.557 		"/>
		<polygon fill="#FFFFFF" points="656.423,953.559 649.106,957.81 641.739,953.557 649.055,949.304 		"/>
		<polygon fill="#FFFFFF" points="665.851,959 665.848,959.987 658.531,964.238 658.534,963.252 		"/>
		<polygon fill="#FFFFFF" points="658.534,963.252 658.531,964.238 651.166,959.987 651.17,959 		"/>
		<polygon fill="#FFFFFF" points="665.851,959 658.534,963.252 651.169,959 658.486,954.749 		"/>
		<polygon fill="#FFFFFF" points="675.279,964.444 675.277,965.431 667.961,969.683 667.963,968.696 		"/>
		<polygon fill="#FFFFFF" points="667.963,968.696 667.961,969.683 660.596,965.431 660.6,964.444 		"/>
		<polygon fill="#FFFFFF" points="675.279,964.444 667.963,968.696 660.6,964.444 667.916,960.192 		"/>
		<polygon fill="#FFFFFF" points="684.707,969.886 684.704,970.873 677.388,975.124 677.391,974.138 		"/>
		<polygon fill="#FFFFFF" points="677.391,974.138 677.388,975.124 670.021,970.873 670.026,969.886 		"/>
		<polygon fill="#FFFFFF" points="684.707,969.886 677.391,974.138 670.026,969.886 677.343,965.635 		"/>
		<polygon fill="#FFFFFF" points="694.136,975.331 694.134,976.318 686.817,980.569 686.819,979.583 		"/>
		<polygon fill="#FFFFFF" points="686.819,979.583 686.817,980.569 679.452,976.318 679.456,975.331 		"/>
		<polygon fill="#FFFFFF" points="694.136,975.331 686.819,979.583 679.456,975.331 686.771,971.079 		"/>
		<polygon fill="#FFFFFF" points="703.562,980.773 703.561,981.76 696.244,986.013 696.247,985.026 		"/>
		<polygon fill="#FFFFFF" points="696.247,985.026 696.244,986.013 688.878,981.761 688.883,980.774 		"/>
		<polygon fill="#FFFFFF" points="703.562,980.773 696.247,985.026 688.883,980.773 696.199,976.521 		"/>
		<polygon fill="#FFFFFF" points="590.024,926.529 590.021,927.516 582.702,931.77 582.704,930.783 		"/>
		<polygon fill="#FFFFFF" points="582.704,930.783 582.702,931.77 575.337,927.518 575.341,926.531 		"/>
		<polygon fill="#FFFFFF" points="590.024,926.529 582.704,930.783 575.341,926.531 582.66,922.277 		"/>
		<polygon fill="#FFFFFF" points="599.451,931.971 599.449,932.957 592.129,937.212 592.132,936.226 		"/>
		<polygon fill="#FFFFFF" points="592.13,936.226 592.128,937.212 584.763,932.96 584.767,931.974 		"/>
		<polygon fill="#FFFFFF" points="599.451,931.971 592.132,936.226 584.768,931.975 592.087,927.72 		"/>
		<polygon fill="#FFFFFF" points="608.881,937.416 608.878,938.402 601.559,942.656 601.561,941.67 		"/>
		<polygon fill="#FFFFFF" points="601.561,941.67 601.559,942.656 594.193,938.405 594.196,937.419 		"/>
		<polygon fill="#FFFFFF" points="608.881,937.416 601.561,941.67 594.196,937.419 601.517,933.165 		"/>
		<polygon fill="#FFFFFF" points="618.312,942.86 618.309,943.847 610.989,948.101 610.991,947.114 		"/>
		<polygon fill="#FFFFFF" points="610.991,947.114 610.989,948.101 603.62,943.847 603.623,942.86 		"/>
		<polygon fill="#FFFFFF" points="618.312,942.86 610.991,947.114 603.623,942.86 610.942,938.606 		"/>
		<polygon fill="#FFFFFF" points="627.737,948.304 627.734,949.288 620.415,953.544 620.417,952.557 		"/>
		<polygon fill="#FFFFFF" points="620.417,952.557 620.415,953.544 613.05,949.292 613.054,948.306 		"/>
		<polygon fill="#FFFFFF" points="627.737,948.304 620.417,952.557 613.054,948.306 620.373,944.051 		"/>
		<polygon fill="#FFFFFF" points="637.167,953.747 637.165,954.733 629.846,958.987 629.848,958.001 		"/>
		<polygon fill="#FFFFFF" points="629.848,958.001 629.846,958.987 622.48,954.736 622.483,953.75 		"/>
		<polygon fill="#FFFFFF" points="637.167,953.747 629.848,958.001 622.483,953.75 629.804,949.496 		"/>
		<polygon fill="#FFFFFF" points="646.595,959.19 646.592,960.177 639.271,964.431 639.273,963.444 		"/>
		<polygon fill="#FFFFFF" points="639.273,963.444 639.271,964.431 631.906,960.179 631.91,959.192 		"/>
		<polygon fill="#FFFFFF" points="646.595,959.19 639.273,963.444 631.91,959.192 639.229,954.938 		"/>
		<polygon fill="#FFFFFF" points="656.023,964.635 656.021,965.621 648.702,969.875 648.704,968.888 		"/>
		<polygon fill="#FFFFFF" points="648.704,968.888 648.702,969.875 641.337,965.623 641.34,964.637 		"/>
		<polygon fill="#FFFFFF" points="656.023,964.635 648.704,968.888 641.34,964.637 648.66,960.383 		"/>
		<polygon fill="#FFFFFF" points="665.451,970.076 665.448,971.062 658.128,975.316 658.13,974.33 		"/>
		<polygon fill="#FFFFFF" points="658.13,974.33 658.128,975.316 650.763,971.065 650.767,970.078 		"/>
		<polygon fill="#FFFFFF" points="665.451,970.076 658.13,974.33 650.767,970.078 658.086,965.824 		"/>
		<polygon fill="#FFFFFF" points="674.88,975.521 674.878,976.507 667.558,980.761 667.561,979.774 		"/>
		<polygon fill="#FFFFFF" points="667.561,979.774 667.558,980.761 660.193,976.509 660.196,975.521 		"/>
		<polygon fill="#FFFFFF" points="674.88,975.521 667.561,979.774 660.196,975.521 667.517,971.269 		"/>
		<polygon fill="#FFFFFF" points="684.311,980.966 684.309,981.952 676.988,986.206 676.991,985.22 		"/>
		<polygon fill="#FFFFFF" points="676.991,985.22 676.987,986.206 669.619,981.952 669.621,980.966 		"/>
		<polygon fill="#FFFFFF" points="684.311,980.966 676.991,985.22 669.622,980.966 676.943,976.712 		"/>
		<polygon fill="#FFFFFF" points="693.736,986.408 693.734,987.395 686.413,991.648 686.417,990.662 		"/>
		<polygon fill="#FFFFFF" points="686.417,990.662 686.414,991.648 679.05,987.396 679.053,986.411 		"/>
		<polygon fill="#FFFFFF" points="693.736,986.408 686.417,990.662 679.053,986.411 686.373,982.155 		"/>
		<polygon fill="#FFFFFF" points="580.19,932.163 580.188,933.149 572.872,937.402 572.874,936.415 		"/>
		<polygon fill="#FFFFFF" points="572.874,936.415 572.872,937.402 565.507,933.149 565.511,932.163 		"/>
		<polygon fill="#FFFFFF" points="580.19,932.163 572.874,936.415 565.511,932.163 572.827,927.911 		"/>
		<polygon fill="#FFFFFF" points="589.621,937.608 589.618,938.595 582.303,942.847 582.305,941.86 		"/>
		<polygon fill="#FFFFFF" points="582.305,941.86 582.303,942.847 574.938,938.595 574.94,937.608 		"/>
		<polygon fill="#FFFFFF" points="589.621,937.608 582.305,941.86 574.94,937.608 582.257,933.355 		"/>
		<polygon fill="#FFFFFF" points="599.052,943.053 599.05,944.039 591.733,948.29 591.735,947.304 		"/>
		<polygon fill="#FFFFFF" points="591.735,947.304 591.733,948.29 584.364,944.036 584.367,943.05 		"/>
		<polygon fill="#FFFFFF" points="599.052,943.053 591.735,947.304 584.368,943.05 591.683,938.799 		"/>
		<polygon fill="#FFFFFF" points="648.256,971.461 648.254,972.447 640.938,976.699 640.939,975.712 		"/>
		<polygon fill="#FFFFFF" points="648.305,979.964 648.302,980.95 640.938,976.699 640.94,975.712 		"/>
		<polygon fill="#FFFFFF" points="648.305,979.964 648.302,980.95 593.794,949.48 593.796,948.494 		"/>
		<polygon fill="#FFFFFF" points="655.621,975.712 648.305,979.964 640.94,975.712 648.257,971.461 		"/>
		<polygon fill="#FFFFFF" points="655.621,975.712 655.618,976.699 648.302,980.95 648.305,979.964 		"/>
		<polygon fill="#FFFFFF" points="648.256,971.461 640.939,975.712 648.304,979.964 593.798,948.494 601.114,944.243 		"/>
		<polygon fill="#FFFFFF" points="665.05,981.156 665.048,982.144 657.731,986.395 657.734,985.408 		"/>
		<polygon fill="#FFFFFF" points="657.735,985.409 657.731,986.396 650.363,982.141 650.365,981.154 		"/>
		<polygon fill="#FFFFFF" points="665.05,981.156 657.734,985.408 650.366,981.154 657.682,976.902 		"/>
		<polygon fill="#FFFFFF" points="674.479,986.6 674.475,987.586 667.158,991.838 667.161,990.851 		"/>
		<polygon fill="#FFFFFF" points="667.161,990.851 667.158,991.838 659.794,987.586 659.797,986.6 		"/>
		<polygon fill="#FFFFFF" points="674.479,986.6 667.161,990.851 659.797,986.6 667.113,982.348 		"/>
		<polygon fill="#FFFFFF" points="683.906,992.045 683.904,993.03 676.588,997.283 676.591,996.296 		"/>
		<polygon fill="#FFFFFF" points="676.592,996.296 676.588,997.283 669.223,993.031 669.227,992.045 		"/>
		<polygon fill="#FFFFFF" points="683.906,992.045 676.591,996.296 669.227,992.045 676.543,987.792 		"/>
	</g>
</g>
</svg>
