<?xml version="1.0" encoding="utf-8"?>
<!-- Generator: Adobe Illustrator 15.0.0, SVG Export Plug-In . SVG Version: 6.00 Build 0)  -->
<!DOCTYPE svg PUBLIC "-//W3C//DTD SVG 1.1//EN" "http://www.w3.org/Graphics/SVG/1.1/DTD/svg11.dtd">
<svg version="1.1" id="Layer_1" xmlns="http://www.w3.org/2000/svg" xmlns:xlink="http://www.w3.org/1999/xlink" x="0px" y="0px"
	 width="1366px" height="563px" viewBox="0 0 1366 563" enable-background="new 0 0 1366 563" xml:space="preserve">
<g>
	<g>
		<g>
			<path fill="#F6F6F6" d="M715.965,299.472c0,6.558-5.149,11.875-11.5,11.875h-60.563c-6.351,0-11.5-5.317-11.5-11.875l5.75-24.145
				c0-6.558,4.441-11.874,9.917-11.874h52.231c5.477,0,9.916,5.316,9.916,11.874L715.965,299.472z"/>
			<g>
				<path fill="#E3E3E3" d="M682.963,273.255h156.679c2.742,0,6.908-2.067,7.942-4.963l44.08-118.385
					c0-2.742-4.201-12.088-6.943-12.088l-408.065,0c-2.741,0-6.943,9.347-6.943,12.089l44.081,118.385
					c1.034,2.896,5.2,4.963,7.942,4.963h160.112H682.963z"/>
			</g>
			<g>
				<path fill="#1A171B" d="M682.904,270.929H840.93c2.671,0,6.729-1.988,7.735-4.773l42.55-114.113
					c0-2.636-2.163-4.772-4.834-4.772H684.153h-2.338l-206.819,0c-2.672,0-4.836,2.137-4.836,4.773l42.55,114.113
					c1.007,2.785,5.066,4.773,7.737,4.773h161.371H682.904z"/>
			</g>
			<polygon fill="#3E3D40" points="839.124,248.462 521.258,248.462 492.547,162.287 867.835,162.287 			"/>
			<g>
				<path fill="#C6C7C8" d="M508.826,256.296l4.774,11.996c1.035,2.896,5.208,4.963,7.953,4.963h160.313h1.117h156.876
					c2.745,0,6.917-2.067,7.952-4.963l4.774-11.996H508.826z"/>
			</g>
			<polygon opacity="0.2" fill="#FFFFFF" points="577.406,249.649 521.258,249.649 492.547,163.475 656.365,163.475 			"/>
		</g>
		<g>
			<polygon fill="#FAEB74" points="561.53,278.042 537.22,278.042 532.756,261.912 563.361,261.912 			"/>
		</g>
	</g>
</g>
<g>
	<g>
		<g>
			<g>
				<path fill="#3D3938" d="M781.39,382.823l-5.208,4.737c-1,1.523-3.046,1.949-4.569,0.951l-54.267-35.571
					c-1.524-0.999-1.95-3.045-0.951-4.568l2.268-6.667l8.191-5.677l56.106,36.777L781.39,382.823z"/>
			</g>
			<g>
				<polygon fill="#554E4D" points="718.662,341.705 726.854,336.028 782.96,372.806 781.39,382.823 				"/>
			</g>
		</g>
		<g>
			<g>
				<g>
					<path fill="#FFFFFF" d="M731.021,390.727c15.562,10.202,36.448,5.855,46.649-9.709c10.202-15.561,5.855-36.445-9.708-46.648
						c-15.562-10.2-36.448-5.854-46.649,9.709C711.112,359.641,715.457,380.525,731.021,390.727z M751.593,359.297
						c1.786,1.17,2.286,3.576,1.116,5.36c-1.171,1.785-3.575,2.284-5.36,1.115c-1.785-1.171-2.287-3.574-1.117-5.359
						C747.402,358.627,749.807,358.126,751.593,359.297z"/>
				</g>
			</g>
			<g>
				<g>
					<g>
						<path fill="#F0A808" d="M731.609,389.826c15.066,9.877,35.285,5.668,45.16-9.398c9.875-15.063,5.667-35.282-9.397-45.157
							c-15.065-9.876-35.284-5.668-45.158,9.397C712.338,359.732,716.545,379.951,731.609,389.826z M752.064,358.623
							c2.163,1.42,2.77,4.334,1.353,6.497c-1.42,2.165-4.335,2.772-6.499,1.352c-2.162-1.417-2.77-4.331-1.352-6.496
							C746.985,357.812,749.9,357.206,752.064,358.623z"/>
					</g>
				</g>
			</g>
		</g>
		<g>
			<polygon fill="#FFFFFF" points="718.662,341.705 725.925,340.154 779.8,375.469 781.39,382.823 824.195,317.519 761.468,276.401 
							"/>
		</g>
	</g>
</g>
<rect x="685.08" y="350.771" transform="matrix(-0.9842 -0.1769 0.1769 -0.9842 1305.1946 825.463)" fill="#ECEDED" width="8.638" height="7.542"/>
<polygon fill="#1A171B" points="658.243,341.486 685.457,346.38 686.594,349.354 684.988,358.276 682.859,360.819 655.646,355.925 
	"/>
<rect x="687.722" y="355.268" transform="matrix(-0.9842 -0.1772 0.1772 -0.9842 1303.21 828.4896)" fill="#1A171B" width="1.736" height="1.599"/>
<rect x="688.313" y="351.984" transform="matrix(-0.9842 -0.1773 0.1773 -0.9842 1304.9172 822.1403)" fill="#1A171B" width="1.735" height="1.6"/>
<path fill="#ECEDED" d="M658.745,354.061c-2.006-2.886-1.293-6.853,1.592-8.858s6.852-1.293,8.858,1.593l19.239,27.71l-10.38,7.216
	L658.745,354.061z"/>
<circle fill="#1A171B" cx="663.951" cy="350.53" r="3.885"/>
<text transform="matrix(0.9698 0.2437 -0.2438 0.9698 463.3008 137.8364)" fill="#58585A" font-family="'Arimo'" font-size="0.0453">8 GB</text>
<g>
	<g>
		
			<rect x="619.756" y="337.667" transform="matrix(0.8856 -0.4644 0.4644 0.8856 -87.4688 329.4043)" fill="#F6F6F6" width="10.588" height="9.243"/>
		
			<rect x="623.621" y="339.224" transform="matrix(0.8856 -0.4644 0.4644 0.8856 -86.5426 329.0017)" fill="#1A171B" width="2.128" height="1.961"/>
		
			<rect x="625.52" y="342.843" transform="matrix(0.8854 -0.4648 0.4648 0.8854 -88.0133 330.6643)" fill="#1A171B" width="2.128" height="1.962"/>
		<g>
			<path fill="#F7B93C" d="M604.359,362.576c-4.048,2.123-9.048,0.563-11.171-3.483c-2.123-4.048-0.565-9.05,3.484-11.173
				l20.785-10.946l7.807,14.691L604.359,362.576z"/>
		</g>
		<g>
			<path fill="#F7B93C" d="M639.618,325.549c4.048-2.122,9.05-0.561,11.172,3.485c2.124,4.05,0.564,9.051-3.484,11.174l-4.178,2.176
				l-7.709-14.612L639.618,325.549z"/>
		</g>
	</g>
</g>
<g>
	<path fill="#C6C7C8" d="M664.123,512.271c-1.492,2.899-5.053,4.039-7.952,2.547l-189.662-97.642
		c-2.899-1.492-4.039-5.051-2.546-7.949l40.777-79.207c1.492-2.898,5.051-4.039,7.95-2.547l189.661,97.642
		c2.899,1.493,4.039,5.052,2.547,7.95L664.123,512.271z"/>
</g>
<g>
	<path fill="#FFFFFF" d="M517.29,351.128c-0.179,0.349-0.607,0.487-0.957,0.308l-10.587-5.45c-0.35-0.18-0.487-0.609-0.307-0.958
		l3.091-6.005c0.179-0.348,0.608-0.486,0.958-0.306l10.587,5.45c0.35,0.18,0.486,0.608,0.306,0.957L517.29,351.128z"/>
</g>
<g>
	<path fill="#FFFFFF" d="M510.918,363.506c-0.18,0.35-0.608,0.488-0.957,0.308l-10.587-5.45c-0.349-0.181-0.486-0.608-0.307-0.96
		l4.895-9.506c0.18-0.35,0.608-0.486,0.958-0.305l10.586,5.449c0.35,0.179,0.486,0.608,0.307,0.958L510.918,363.506z"/>
</g>
<g>
	<path fill="#FFFFFF" d="M482.913,416.353c-0.18,0.35-0.608,0.485-0.958,0.306L472,411.534c-0.35-0.181-0.487-0.609-0.307-0.959
		l5.87-11.4c0.18-0.351,0.609-0.488,0.958-0.308l9.954,5.125c0.35,0.18,0.488,0.607,0.308,0.957L482.913,416.353z"/>
</g>
<g>
	<path fill="#FFFFFF" d="M496.081,423.131c-0.18,0.35-0.609,0.487-0.959,0.308l-9.955-5.126c-0.348-0.18-0.486-0.607-0.306-0.957
		l5.87-11.402c0.181-0.351,0.609-0.487,0.958-0.308l9.955,5.126c0.35,0.181,0.488,0.606,0.307,0.958L496.081,423.131z"/>
</g>
<g>
	<path fill="#FFFFFF" d="M509.248,429.909c-0.18,0.35-0.608,0.488-0.957,0.308l-9.955-5.125c-0.349-0.18-0.487-0.607-0.307-0.957
		l5.87-11.401c0.18-0.352,0.608-0.488,0.958-0.308l9.954,5.124c0.349,0.181,0.486,0.607,0.307,0.958L509.248,429.909z"/>
</g>
<g>
	<path fill="#FFFFFF" d="M619.7,486.772c-0.181,0.351-0.608,0.487-0.958,0.308l-9.956-5.125c-0.349-0.18-0.487-0.607-0.307-0.958
		l5.87-11.402c0.18-0.35,0.608-0.486,0.958-0.307l9.955,5.125c0.35,0.18,0.487,0.607,0.307,0.958L619.7,486.772z"/>
</g>
<g>
	<path fill="#FFFFFF" d="M632.815,493.525c-0.18,0.35-0.609,0.486-0.958,0.307l-9.955-5.125c-0.35-0.18-0.486-0.608-0.306-0.958
		l2.426-4.712c0.18-0.35,0.609-0.488,0.958-0.309l9.955,5.125c0.349,0.18,0.487,0.608,0.308,0.958L632.815,493.525z"/>
</g>
<g>
	<path fill="#FFFFFF" d="M659.045,507.029c-0.18,0.35-0.608,0.487-0.958,0.307l-9.954-5.123c-0.349-0.181-0.487-0.61-0.307-0.959
		l2.427-4.715c0.179-0.348,0.609-0.487,0.958-0.307l9.954,5.124c0.351,0.181,0.487,0.61,0.307,0.959L659.045,507.029z"/>
</g>
<g>
	<path fill="#FFFFFF" d="M645.93,500.276c-0.18,0.352-0.608,0.487-0.958,0.309l-9.953-5.126c-0.35-0.18-0.487-0.607-0.307-0.957
		l5.87-11.402c0.181-0.351,0.608-0.486,0.958-0.307l9.954,5.124c0.349,0.181,0.486,0.608,0.306,0.958L645.93,500.276z"/>
</g>
<g>
	<path fill="#FFFFFF" d="M525.681,438.37c-0.18,0.35-0.608,0.487-0.957,0.308l-13.115-6.752c-0.349-0.18-0.486-0.608-0.307-0.958
		l5.87-11.401c0.18-0.352,0.608-0.488,0.958-0.308l13.116,6.752c0.348,0.181,0.486,0.607,0.306,0.958L525.681,438.37z"/>
</g>
<g>
	<path fill="#FFFFFF" d="M605.952,479.696c-0.18,0.35-0.608,0.486-0.958,0.307l-13.115-6.753c-0.349-0.181-0.486-0.607-0.306-0.958
		l5.869-11.401c0.181-0.35,0.609-0.487,0.958-0.307l13.115,6.752c0.35,0.18,0.487,0.607,0.307,0.958L605.952,479.696z"/>
</g>
<g>
	<path fill="#FFFFFF" d="M590.204,471.587c-0.18,0.351-0.609,0.487-0.958,0.309l-61.204-31.508c-0.349-0.181-0.486-0.61-0.306-0.96
		l5.87-11.402c0.181-0.35,0.608-0.485,0.958-0.306l61.204,31.509c0.35,0.179,0.488,0.607,0.307,0.958L590.204,471.587z"/>
</g>
<g>
	<path fill="#FFFFFF" d="M524.191,370.339c-0.179,0.35-0.608,0.487-0.958,0.308l-10.586-5.449c-0.349-0.181-0.486-0.61-0.306-0.96
		l4.894-9.506c0.179-0.348,0.608-0.486,0.958-0.308l10.586,5.451c0.35,0.179,0.486,0.609,0.307,0.957L524.191,370.339z"/>
</g>
<g>
	<path fill="#FFFFFF" d="M523.359,386.127c-0.179,0.35-0.608,0.488-0.958,0.307l-10.586-5.449c-0.349-0.181-0.486-0.609-0.306-0.959
		l4.893-9.505c0.181-0.351,0.609-0.486,0.958-0.307l10.586,5.45c0.35,0.18,0.488,0.606,0.307,0.958L523.359,386.127z"/>
</g>
<g>
	<path fill="#FFFFFF" d="M536.632,392.961c-0.179,0.349-0.608,0.487-0.957,0.307l-10.587-5.449c-0.35-0.182-0.486-0.609-0.306-0.959
		l4.894-9.506c0.181-0.35,0.607-0.486,0.957-0.307l10.588,5.449c0.349,0.182,0.486,0.609,0.306,0.958L536.632,392.961z"/>
</g>
<g>
	<path fill="#FFFFFF" d="M549.748,399.714c-0.181,0.349-0.609,0.485-0.958,0.306l-10.586-5.451c-0.35-0.179-0.488-0.607-0.308-0.958
		l4.894-9.505c0.181-0.35,0.609-0.487,0.958-0.307l10.588,5.45c0.348,0.181,0.487,0.606,0.306,0.958L549.748,399.714z"/>
</g>
<g>
	<path fill="#FFFFFF" d="M562.862,406.465c-0.18,0.35-0.607,0.486-0.958,0.308l-10.586-5.451c-0.351-0.181-0.486-0.607-0.306-0.958
		l4.894-9.506c0.18-0.35,0.606-0.486,0.957-0.307L567.45,396c0.35,0.181,0.487,0.607,0.307,0.959L562.862,406.465z"/>
</g>
<g>
	<path fill="#FFFFFF" d="M575.82,413.135c-0.181,0.352-0.608,0.487-0.958,0.307l-10.586-5.449c-0.349-0.18-0.486-0.608-0.307-0.958
		l4.894-9.507c0.181-0.35,0.609-0.485,0.958-0.307l10.586,5.45c0.35,0.181,0.488,0.608,0.308,0.957L575.82,413.135z"/>
</g>
<g>
	<path fill="#FFFFFF" d="M588.618,419.725c-0.18,0.35-0.607,0.487-0.957,0.308l-10.588-5.45c-0.348-0.181-0.485-0.607-0.306-0.957
		l4.894-9.507c0.181-0.352,0.608-0.486,0.957-0.308l10.588,5.45c0.349,0.181,0.486,0.607,0.306,0.957L588.618,419.725z"/>
</g>
<g>
	<path fill="#FFFFFF" d="M601.972,426.598c-0.18,0.351-0.61,0.488-0.958,0.307l-10.588-5.45c-0.348-0.18-0.485-0.607-0.306-0.957
		l4.895-9.506c0.181-0.351,0.608-0.486,0.957-0.308l10.587,5.45c0.349,0.181,0.486,0.608,0.306,0.959L601.972,426.598z"/>
</g>
<g>
	<path fill="#FFFFFF" d="M614.771,433.188c-0.18,0.351-0.608,0.487-0.958,0.307l-10.586-5.449c-0.35-0.181-0.486-0.608-0.306-0.959
		l4.894-9.504c0.18-0.352,0.607-0.488,0.958-0.31l10.585,5.451c0.35,0.18,0.487,0.609,0.307,0.958L614.771,433.188z"/>
</g>
<g>
	<path fill="#FFFFFF" d="M627.884,439.939c-0.179,0.35-0.606,0.486-0.955,0.307l-10.588-5.451c-0.351-0.179-0.487-0.606-0.307-0.957
		l4.894-9.507c0.18-0.349,0.607-0.485,0.958-0.307l10.587,5.451c0.349,0.18,0.485,0.607,0.305,0.958L627.884,439.939z"/>
</g>
<g>
	<path fill="#FFFFFF" d="M640.527,446.447c-0.18,0.351-0.608,0.487-0.958,0.307l-10.588-5.45c-0.348-0.18-0.486-0.606-0.306-0.957
		l4.894-9.507c0.181-0.351,0.608-0.485,0.957-0.308l10.588,5.45c0.349,0.181,0.487,0.608,0.306,0.96L640.527,446.447z"/>
</g>
<g>
	<path fill="#FFFFFF" d="M653.8,453.28c-0.181,0.351-0.608,0.485-0.958,0.308l-10.586-5.45c-0.351-0.182-0.487-0.608-0.308-0.958
		l4.894-9.507c0.18-0.349,0.609-0.486,0.959-0.307l10.587,5.45c0.35,0.18,0.486,0.607,0.306,0.957L653.8,453.28z"/>
</g>
<g>
	<path fill="#FFFFFF" d="M666.994,460.072c-0.181,0.351-0.608,0.486-0.958,0.307l-10.587-5.449c-0.35-0.181-0.488-0.609-0.308-0.958
		l4.894-9.507c0.181-0.349,0.609-0.486,0.958-0.307l10.586,5.452c0.35,0.178,0.487,0.606,0.307,0.957L666.994,460.072z"/>
</g>
<g>
	<path fill="#FFFFFF" d="M519.972,400.475c-0.18,0.35-0.609,0.487-0.958,0.307l-10.587-5.451c-0.349-0.18-0.486-0.607-0.307-0.957
		l4.895-9.507c0.179-0.348,0.606-0.485,0.957-0.306l10.586,5.449c0.349,0.182,0.486,0.609,0.307,0.957L519.972,400.475z"/>
</g>
<g>
	<path fill="#FFFFFF" d="M533.244,407.308c-0.18,0.35-0.607,0.486-0.957,0.307l-10.588-5.45c-0.349-0.18-0.486-0.607-0.306-0.957
		l4.895-9.508c0.179-0.348,0.608-0.486,0.957-0.306l10.587,5.45c0.349,0.18,0.486,0.608,0.306,0.957L533.244,407.308z"/>
</g>
<g>
	<path fill="#FFFFFF" d="M546.359,414.06c-0.179,0.35-0.608,0.486-0.957,0.307l-10.587-5.451c-0.35-0.181-0.487-0.606-0.308-0.956
		l4.895-9.508c0.18-0.349,0.607-0.485,0.957-0.307l10.587,5.451c0.349,0.181,0.486,0.607,0.307,0.956L546.359,414.06z"/>
</g>
<g>
	<path fill="#FFFFFF" d="M559.474,420.812c-0.18,0.35-0.607,0.483-0.957,0.306l-10.587-5.45c-0.349-0.181-0.486-0.608-0.307-0.958
		l4.894-9.507c0.18-0.35,0.609-0.485,0.958-0.305l10.587,5.449c0.349,0.18,0.486,0.607,0.307,0.956L559.474,420.812z"/>
</g>
<g>
	<path fill="#FFFFFF" d="M572.431,427.483c-0.179,0.349-0.607,0.484-0.957,0.306l-10.587-5.452
		c-0.349-0.179-0.487-0.605-0.307-0.956l4.895-9.506c0.179-0.35,0.607-0.486,0.957-0.308l10.588,5.45
		c0.348,0.181,0.485,0.609,0.306,0.959L572.431,427.483z"/>
</g>
<g>
	<path fill="#FFFFFF" d="M585.231,434.071c-0.18,0.351-0.608,0.485-0.958,0.308l-10.586-5.452c-0.35-0.18-0.488-0.606-0.308-0.956
		l4.894-9.507c0.18-0.35,0.609-0.486,0.958-0.307l10.587,5.45c0.349,0.181,0.486,0.607,0.306,0.957L585.231,434.071z"/>
</g>
<g>
	<path fill="#FFFFFF" d="M598.583,440.946c-0.18,0.35-0.607,0.486-0.958,0.307l-10.586-5.451c-0.35-0.18-0.486-0.608-0.307-0.957
		l4.894-9.507c0.18-0.349,0.607-0.486,0.957-0.308l10.587,5.452c0.351,0.179,0.487,0.606,0.307,0.956L598.583,440.946z"/>
</g>
<g>
	<path fill="#FFFFFF" d="M611.382,447.534c-0.18,0.349-0.608,0.487-0.957,0.308l-10.588-5.451c-0.349-0.18-0.486-0.608-0.306-0.957
		l4.894-9.506c0.18-0.351,0.607-0.487,0.958-0.308l10.587,5.45c0.349,0.18,0.486,0.607,0.306,0.957L611.382,447.534z"/>
</g>
<g>
	<path fill="#FFFFFF" d="M624.498,454.287c-0.18,0.35-0.609,0.487-0.959,0.307l-10.586-5.45c-0.349-0.18-0.487-0.608-0.307-0.959
		l4.894-9.507c0.18-0.35,0.608-0.485,0.957-0.306l10.586,5.45c0.35,0.181,0.488,0.609,0.308,0.959L624.498,454.287z"/>
</g>
<g>
	<path fill="#FFFFFF" d="M637.139,460.795c-0.18,0.349-0.609,0.486-0.958,0.307l-10.586-5.451c-0.35-0.179-0.486-0.607-0.306-0.957
		l4.895-9.506c0.18-0.35,0.607-0.486,0.957-0.306l10.587,5.449c0.35,0.18,0.487,0.606,0.307,0.956L637.139,460.795z"/>
</g>
<g>
	<path fill="#FFFFFF" d="M650.411,467.628c-0.18,0.35-0.607,0.487-0.958,0.308l-10.586-5.451c-0.349-0.179-0.486-0.608-0.306-0.958
		l4.893-9.507c0.181-0.349,0.609-0.485,0.958-0.307l10.586,5.451c0.351,0.18,0.487,0.609,0.308,0.959L650.411,467.628z"/>
</g>
<g>
	<path fill="#FFFFFF" d="M663.606,474.421c-0.18,0.35-0.61,0.487-0.959,0.307l-10.586-5.449c-0.349-0.181-0.486-0.608-0.307-0.958
		l4.895-9.508c0.18-0.349,0.608-0.486,0.958-0.306l10.586,5.45c0.35,0.179,0.488,0.608,0.308,0.957L663.606,474.421z"/>
</g>
<g>
	<path fill="#FFFFFF" d="M507.441,410.315c-0.18,0.35-0.607,0.485-0.957,0.307l-10.587-5.45c-0.349-0.18-0.486-0.608-0.308-0.956
		l4.895-9.509c0.18-0.35,0.609-0.486,0.958-0.307l10.588,5.45c0.348,0.18,0.486,0.608,0.306,0.958L507.441,410.315z"/>
</g>
<g>
	<path fill="#FFFFFF" d="M520.714,417.149c-0.179,0.348-0.607,0.485-0.957,0.306l-10.587-5.451
		c-0.349-0.179-0.487-0.607-0.308-0.955l4.896-9.508c0.18-0.349,0.608-0.486,0.957-0.307l10.588,5.45
		c0.349,0.181,0.486,0.608,0.306,0.957L520.714,417.149z"/>
</g>
<g>
	<path fill="#FFFFFF" d="M533.83,423.902c-0.179,0.348-0.609,0.484-0.958,0.305l-10.586-5.451c-0.35-0.179-0.487-0.609-0.308-0.957
		l4.895-9.508c0.18-0.349,0.609-0.485,0.959-0.305l10.586,5.449c0.35,0.18,0.487,0.609,0.308,0.959L533.83,423.902z"/>
</g>
<g>
	<path fill="#FFFFFF" d="M546.944,430.652c-0.179,0.35-0.607,0.486-0.957,0.306l-10.587-5.449c-0.351-0.18-0.487-0.607-0.307-0.956
		l4.895-9.508c0.18-0.35,0.606-0.487,0.957-0.308l10.586,5.451c0.35,0.179,0.486,0.608,0.307,0.958L546.944,430.652z"/>
</g>
<g>
	<path fill="#FFFFFF" d="M559.903,437.324c-0.179,0.348-0.608,0.486-0.959,0.306l-10.586-5.45c-0.35-0.179-0.487-0.608-0.307-0.956
		l4.894-9.508c0.18-0.35,0.608-0.487,0.958-0.308l10.586,5.449c0.35,0.182,0.488,0.609,0.308,0.959L559.903,437.324z"/>
</g>
<g>
	<path fill="#FFFFFF" d="M572.701,443.913c-0.179,0.348-0.608,0.486-0.957,0.306l-10.587-5.45c-0.35-0.18-0.488-0.608-0.308-0.958
		l4.895-9.506c0.18-0.351,0.609-0.487,0.958-0.307l10.587,5.449c0.349,0.181,0.487,0.609,0.307,0.959L572.701,443.913z"/>
</g>
<g>
	<path fill="#FFFFFF" d="M586.053,450.787c-0.18,0.349-0.607,0.485-0.958,0.307l-10.587-5.451c-0.348-0.18-0.486-0.608-0.306-0.958
		l4.894-9.507c0.18-0.349,0.608-0.485,0.957-0.307l10.587,5.45c0.35,0.181,0.487,0.609,0.306,0.958L586.053,450.787z"/>
</g>
<g>
	<path fill="#FFFFFF" d="M598.853,457.377c-0.18,0.35-0.608,0.485-0.958,0.307l-10.587-5.451c-0.349-0.18-0.485-0.607-0.305-0.957
		l4.895-9.508c0.179-0.349,0.607-0.487,0.956-0.307l10.587,5.45c0.349,0.181,0.486,0.608,0.306,0.958L598.853,457.377z"/>
</g>
<g>
	<path fill="#FFFFFF" d="M611.968,464.128c-0.18,0.349-0.609,0.486-0.958,0.307l-10.587-5.45c-0.349-0.181-0.485-0.609-0.306-0.957
		l4.894-9.508c0.18-0.349,0.607-0.487,0.957-0.307l10.587,5.451c0.349,0.18,0.487,0.607,0.307,0.957L611.968,464.128z"/>
</g>
<g>
	<path fill="#FFFFFF" d="M624.608,470.635c-0.18,0.35-0.608,0.486-0.958,0.308l-10.585-5.449c-0.35-0.182-0.486-0.609-0.307-0.958
		l4.895-9.508c0.18-0.349,0.608-0.486,0.958-0.307l10.585,5.451c0.35,0.179,0.486,0.607,0.308,0.957L624.608,470.635z"/>
</g>
<g>
	<path fill="#FFFFFF" d="M637.882,477.47c-0.179,0.348-0.608,0.485-0.958,0.307l-10.586-5.451c-0.349-0.18-0.487-0.608-0.307-0.956
		l4.895-9.508c0.18-0.35,0.607-0.486,0.957-0.308l10.587,5.45c0.348,0.18,0.486,0.609,0.306,0.958L637.882,477.47z"/>
</g>
<g>
	<path fill="#FFFFFF" d="M666.456,492.18c-0.179,0.35-0.607,0.486-0.958,0.306l-25.809-13.286c-0.349-0.18-0.486-0.608-0.307-0.958
		l4.895-9.507c0.179-0.348,0.609-0.485,0.958-0.306l25.808,13.286c0.349,0.181,0.486,0.608,0.307,0.957L666.456,492.18z"/>
</g>
<g>
	<path fill="#FFFFFF" d="M673.155,479.545c-0.179,0.348-0.609,0.486-0.958,0.307l-7.013-3.609c-0.35-0.181-0.485-0.609-0.307-0.958
		l8.104-15.74c0.18-0.35,0.607-0.487,0.958-0.307l7.013,3.609c0.348,0.18,0.485,0.608,0.307,0.958L673.155,479.545z"/>
</g>
<g>
	<path fill="#FFFFFF" d="M679.794,466.663c-0.181,0.351-0.608,0.486-0.958,0.307l-10.587-5.452
		c-0.348-0.178-0.487-0.606-0.307-0.956l4.894-9.506c0.181-0.352,0.61-0.487,0.958-0.308l10.587,5.451
		c0.35,0.178,0.487,0.608,0.307,0.957L679.794,466.663z"/>
</g>
<g>
	<path fill="#FFFFFF" d="M537.148,377.01c-0.18,0.35-0.607,0.487-0.957,0.308l-10.586-5.451c-0.351-0.179-0.487-0.609-0.307-0.958
		l4.894-9.506c0.18-0.35,0.608-0.487,0.958-0.308l10.587,5.451c0.349,0.179,0.486,0.607,0.306,0.956L537.148,377.01z"/>
</g>
<g>
	<path fill="#FFFFFF" d="M550,383.627c-0.18,0.349-0.609,0.485-0.958,0.307l-10.587-5.451c-0.35-0.18-0.486-0.607-0.307-0.957
		l4.895-9.507c0.18-0.35,0.608-0.487,0.958-0.308l10.586,5.452c0.349,0.179,0.486,0.607,0.307,0.957L550,383.627z"/>
</g>
<g>
	<path fill="#FFFFFF" d="M562.853,390.244c-0.18,0.348-0.608,0.485-0.958,0.307l-10.587-5.451c-0.349-0.18-0.487-0.609-0.307-0.959
		l4.894-9.506c0.18-0.35,0.609-0.486,0.958-0.307l10.588,5.451c0.349,0.18,0.486,0.608,0.306,0.958L562.853,390.244z"/>
</g>
<g>
	<path fill="#FFFFFF" d="M576.126,397.075c-0.18,0.35-0.609,0.487-0.957,0.308l-10.589-5.449c-0.349-0.181-0.485-0.609-0.306-0.959
		l4.894-9.506c0.18-0.35,0.608-0.486,0.958-0.309l10.587,5.452c0.348,0.179,0.486,0.608,0.307,0.956L576.126,397.075z"/>
</g>
<g>
	<path fill="#FFFFFF" d="M588.977,403.69c-0.18,0.35-0.608,0.488-0.958,0.31l-10.586-5.452c-0.349-0.179-0.486-0.607-0.306-0.957
		l4.894-9.507c0.18-0.35,0.607-0.486,0.958-0.307l10.585,5.45c0.351,0.181,0.486,0.608,0.308,0.957L588.977,403.69z"/>
</g>
<g>
	<path fill="#FFFFFF" d="M601.83,410.309c-0.18,0.349-0.609,0.486-0.958,0.307l-10.588-5.451c-0.349-0.179-0.485-0.607-0.306-0.957
		l4.895-9.506c0.179-0.35,0.608-0.486,0.957-0.309l10.588,5.451c0.349,0.181,0.485,0.609,0.307,0.958L601.83,410.309z"/>
</g>
<g>
	<path fill="#FFFFFF" d="M614.89,417.034c-0.178,0.349-0.607,0.486-0.956,0.306l-10.588-5.45c-0.348-0.18-0.486-0.609-0.307-0.958
		l4.894-9.507c0.18-0.348,0.608-0.486,0.958-0.308l10.587,5.452c0.35,0.179,0.487,0.608,0.307,0.957L614.89,417.034z"/>
</g>
<g>
	<path fill="#FFFFFF" d="M627.848,423.703c-0.179,0.35-0.607,0.487-0.957,0.309l-10.586-5.452c-0.35-0.179-0.487-0.608-0.308-0.956
		l4.895-9.508c0.179-0.348,0.608-0.486,0.958-0.307l10.587,5.45c0.349,0.18,0.486,0.608,0.307,0.957L627.848,423.703z"/>
</g>
<g>
	<path fill="#FFFFFF" d="M640.91,430.43c-0.179,0.348-0.608,0.486-0.956,0.307l-10.587-5.45c-0.35-0.181-0.487-0.608-0.307-0.958
		l4.895-9.507c0.179-0.35,0.608-0.488,0.958-0.307l10.587,5.45c0.349,0.18,0.485,0.607,0.306,0.957L640.91,430.43z"/>
</g>
<g>
	<path fill="#FFFFFF" d="M654.079,437.209c-0.179,0.348-0.608,0.486-0.957,0.306l-10.587-5.45c-0.349-0.179-0.486-0.608-0.306-0.957
		l4.894-9.507c0.18-0.349,0.609-0.486,0.958-0.306l10.586,5.449c0.349,0.181,0.486,0.608,0.306,0.957L654.079,437.209z"/>
</g>
<g>
	<path fill="#FFFFFF" d="M667.037,443.878c-0.181,0.35-0.609,0.486-0.958,0.307l-10.587-5.449c-0.349-0.18-0.487-0.609-0.308-0.957
		l4.895-9.508c0.179-0.348,0.608-0.486,0.958-0.306l10.586,5.451c0.35,0.179,0.487,0.607,0.308,0.956L667.037,443.878z"/>
</g>
<g>
	<path fill="#FFFFFF" d="M686.525,453.913c-0.18,0.349-0.607,0.486-0.958,0.307l-16.274-8.38c-0.35-0.179-0.488-0.608-0.307-0.957
		l4.893-9.507c0.179-0.35,0.609-0.486,0.958-0.306l16.276,8.378c0.35,0.18,0.485,0.608,0.307,0.956L686.525,453.913z"/>
</g>
<g>
	<path fill="#FFFFFF" d="M510.011,379.248c-0.18,0.349-0.608,0.485-0.957,0.306l-16.276-8.378c-0.35-0.18-0.487-0.608-0.307-0.958
		l4.895-9.508c0.179-0.349,0.608-0.485,0.957-0.307l16.275,8.38c0.35,0.18,0.486,0.608,0.307,0.956L510.011,379.248z"/>
</g>
<g>
	<path fill="#FFFFFF" d="M493.672,403.218c-0.18,0.352-0.609,0.487-0.958,0.308l-13.115-6.751c-0.35-0.181-0.486-0.61-0.306-0.959
		l4.894-9.507c0.18-0.35,0.608-0.486,0.958-0.307l13.115,6.752c0.35,0.18,0.487,0.608,0.307,0.958L493.672,403.218z"/>
</g>
<g>
	<path fill="#FFFFFF" d="M507.24,393.947c-0.18,0.348-0.608,0.485-0.958,0.305l-20.067-10.33c-0.35-0.18-0.487-0.607-0.307-0.957
		l4.895-9.508c0.181-0.352,0.608-0.487,0.957-0.306l20.067,10.331c0.349,0.18,0.488,0.605,0.308,0.955L507.24,393.947z"/>
</g>
<g>
	<path fill="#FFFFFF" d="M530.564,357.963c-0.18,0.348-0.609,0.485-0.959,0.307l-10.586-5.452c-0.35-0.179-0.487-0.607-0.307-0.957
		l3.091-6.005c0.18-0.349,0.608-0.485,0.957-0.305L533.347,351c0.35,0.18,0.487,0.608,0.308,0.958L530.564,357.963z"/>
</g>
<g>
	<path fill="#FFFFFF" d="M544.469,365.121c-0.179,0.348-0.608,0.485-0.958,0.305l-10.587-5.449c-0.349-0.18-0.485-0.609-0.307-0.957
		l3.091-6.005c0.18-0.349,0.608-0.485,0.958-0.308l10.586,5.452c0.35,0.179,0.487,0.607,0.307,0.957L544.469,365.121z"/>
</g>
<g>
	<path fill="#FFFFFF" d="M557.742,371.954c-0.179,0.349-0.609,0.485-0.958,0.307l-10.587-5.45c-0.35-0.181-0.487-0.608-0.308-0.957
		l3.092-6.005c0.18-0.35,0.608-0.486,0.958-0.307l10.586,5.45c0.349,0.18,0.487,0.608,0.307,0.957L557.742,371.954z"/>
</g>
<g>
	<path fill="#FFFFFF" d="M571.331,378.951c-0.18,0.348-0.608,0.485-0.958,0.305l-10.586-5.449c-0.349-0.182-0.487-0.61-0.308-0.958
		l3.092-6.006c0.179-0.348,0.608-0.484,0.958-0.305l10.587,5.449c0.349,0.181,0.486,0.609,0.306,0.958L571.331,378.951z"/>
</g>
<g>
	<path fill="#FFFFFF" d="M584.919,385.945c-0.179,0.348-0.607,0.487-0.957,0.307l-10.586-5.449
		c-0.349-0.182-0.486-0.609-0.307-0.958l3.091-6.004c0.179-0.349,0.609-0.487,0.958-0.308l10.585,5.45
		c0.35,0.181,0.485,0.609,0.307,0.958L584.919,385.945z"/>
</g>
<g>
	<path fill="#FFFFFF" d="M598.35,392.859c-0.179,0.348-0.607,0.486-0.955,0.309l-10.588-5.451c-0.349-0.181-0.485-0.609-0.306-0.957
		l3.091-6.004c0.18-0.35,0.609-0.488,0.958-0.309l10.588,5.451c0.349,0.181,0.484,0.609,0.305,0.957L598.35,392.859z"/>
</g>
<g>
	<path fill="#FFFFFF" d="M611.941,399.856c-0.18,0.348-0.608,0.487-0.958,0.307l-10.586-5.451c-0.35-0.18-0.486-0.608-0.308-0.956
		l3.092-6.004c0.18-0.35,0.608-0.488,0.958-0.307l10.587,5.449c0.351,0.18,0.487,0.607,0.308,0.957L611.941,399.856z"/>
</g>
<g>
	<path fill="#FFFFFF" d="M625.373,406.771c-0.18,0.348-0.609,0.487-0.959,0.307l-10.587-5.45c-0.349-0.179-0.485-0.609-0.307-0.958
		l3.092-6.004c0.18-0.35,0.608-0.487,0.958-0.307l10.587,5.449c0.349,0.18,0.486,0.608,0.307,0.957L625.373,406.771z"/>
</g>
<g>
	<path fill="#FFFFFF" d="M638.802,413.686c-0.178,0.349-0.607,0.488-0.957,0.308l-10.587-5.45c-0.349-0.181-0.486-0.609-0.307-0.958
		l3.092-6.005c0.18-0.35,0.608-0.486,0.959-0.307l10.585,5.451c0.35,0.179,0.486,0.607,0.308,0.956L638.802,413.686z"/>
</g>
<g>
	<path fill="#FFFFFF" d="M652.234,420.601c-0.179,0.349-0.608,0.486-0.958,0.308l-10.587-5.451c-0.349-0.18-0.485-0.61-0.306-0.958
		l3.091-6.004c0.18-0.35,0.607-0.487,0.957-0.308l10.587,5.451c0.349,0.179,0.486,0.608,0.307,0.957L652.234,420.601z"/>
</g>
<g>
	<path fill="#FFFFFF" d="M665.981,427.679c-0.179,0.348-0.608,0.486-0.958,0.307l-10.587-5.45c-0.349-0.18-0.486-0.611-0.307-0.959
		l3.091-6.004c0.18-0.35,0.609-0.488,0.958-0.307l10.587,5.45c0.349,0.18,0.486,0.608,0.307,0.957L665.981,427.679z"/>
</g>
<g>
	<path fill="#FFFFFF" d="M679.412,434.594c-0.18,0.348-0.608,0.485-0.958,0.306l-10.587-5.45c-0.349-0.18-0.484-0.609-0.306-0.958
		l3.092-6.004c0.179-0.35,0.608-0.488,0.957-0.307l10.587,5.449c0.35,0.181,0.485,0.609,0.307,0.958L679.412,434.594z"/>
</g>
<g>
	<path fill="#FFFFFF" d="M692.843,441.507c-0.179,0.349-0.607,0.486-0.957,0.309l-10.587-5.452c-0.35-0.18-0.486-0.609-0.307-0.957
		l3.092-6.005c0.18-0.349,0.609-0.487,0.957-0.306l10.588,5.449c0.35,0.181,0.485,0.608,0.307,0.957L692.843,441.507z"/>
</g>
<path fill="#0F0B0C" d="M791.373,471.152c-1.927,3.103-0.972,7.18,2.131,9.105l31.177,19.354c3.104,1.925,7.18,0.972,9.106-2.131
	l43.068-69.377c1.926-3.104,0.972-7.18-2.13-9.105l-31.18-19.354c-3.102-1.926-7.179-0.973-9.104,2.13L791.373,471.152z"/>
<path fill="#1E1D1D" d="M793.183,471.013c-1.813,2.921-0.915,6.758,2.006,8.57l29.35,18.221c2.92,1.812,6.757,0.915,8.57-2.006
	l42.022-67.694c1.814-2.922,0.917-6.759-2.003-8.573l-29.35-18.218c-2.921-1.813-6.759-0.916-8.572,2.006L793.183,471.013z"/>
<circle fill="#212021" cx="813.175" cy="482.934" r="4.543"/>
<path fill="#C6C7C8" d="M812.172,480.7l-1.407,2.268c-0.191,0.308-0.096,0.715,0.213,0.907l2.267,1.407
	c0.31,0.192,0.718,0.099,0.909-0.212l1.407-2.267c0.19-0.31,0.097-0.717-0.212-0.908l-2.269-1.408
	C812.771,480.295,812.364,480.391,812.172,480.7z M811.149,483.205l1.407-2.266c0.062-0.097,0.188-0.127,0.286-0.067l2.267,1.408
	c0.097,0.06,0.126,0.187,0.065,0.284l-1.407,2.268c-0.06,0.095-0.188,0.127-0.284,0.066l-2.268-1.407
	C811.12,483.432,811.091,483.302,811.149,483.205z"/>
<rect x="812.46" y="417.395" transform="matrix(-0.8496 -0.5274 0.5274 -0.8496 1305.6512 1271.5554)" fill="#3E3D40" width="43.308" height="64.467"/>
<path opacity="0.1" fill="#FFFFFF" d="M809.314,480.538c-1.325,2.133-0.669,4.934,1.464,6.258c2.131,1.323,4.933,0.667,6.257-1.466
	C812.287,486.819,809.402,483.226,809.314,480.538z"/>
<path opacity="0.2" fill="#FFFFFF" d="M873.128,419.53l-29.35-18.218c-2.921-1.813-6.759-0.916-8.572,2.006l-26.083,42.016
	L873.128,419.53z"/>
<path fill="#3E3D40" d="M847.972,413.361c-0.428,0.687-0.217,1.592,0.473,2.019l10.531,6.538c0.689,0.428,1.594,0.215,2.021-0.473
	l0,0c0.427-0.688,0.215-1.593-0.473-2.021l-10.533-6.538C849.303,412.46,848.398,412.672,847.972,413.361L847.972,413.361z"/>
<path fill="#58585A" d="M848.481,413.678c-0.263,0.421-0.133,0.978,0.29,1.241l10.401,6.457c0.425,0.264,0.981,0.132,1.243-0.291
	l0,0c0.263-0.423,0.134-0.979-0.291-1.242l-10.401-6.457C849.3,413.122,848.744,413.253,848.481,413.678L848.481,413.678z"/>
<g>
	<g>
		
			<image overflow="visible" opacity="0.3" width="310" height="382" xlink:href="DB1A4A77.png"  transform="matrix(0.1728 0 0 0.1728 715.7949 445.3867)">
		</image>
		<g>
			<g>
				<path fill="#D9DADB" d="M725.039,481.146c0,0-5.862-11.009-7.563-15.819c-2.862-8.085,0.735-11.309,9.909-16.087
					c4.68-2.437,12.737-7.003,19.044,3.338c3.472,5.693,7.523,13.5,12.707,23.453c4.501,8.641,13.035,19.845-2.316,27.841
					c-15.35,7.995-18.925,2.31-24.481-8.36C730.477,491.94,725.104,481.975,725.039,481.146z"/>
				<path fill="#ECEDED" d="M716.662,458.959c0.757-3.892,4.426-6.438,10.723-9.719c4.68-2.437,12.737-7.003,19.044,3.338
					c3.472,5.693,7.523,13.5,12.707,23.453c2.239,4.299,5.477,9.231,6.275,14.088c0,0-9.605-18.123-29.789-28.598
					C726.094,456.577,716.662,458.959,716.662,458.959z"/>
			</g>
		</g>
	</g>
</g>
<g>
	<g>
		
			<image overflow="visible" opacity="0.3" width="265" height="258" xlink:href="DB1A4A75.png"  transform="matrix(0.1067 0 0 0.1067 553.624 287.2324)">
		</image>
		<g>
			<rect x="553.624" y="287.232" fill="#EFDB65" width="25.529" height="24.808"/>
		</g>
	</g>
</g>
<g>
	<g>
		
			<image overflow="visible" opacity="0.3" width="325" height="320" xlink:href="DB1A4A7B.png"  transform="matrix(0.1067 0 0 0.1067 560.4385 291.9189)">
		</image>
		<g>
			
				<rect x="563.623" y="295.232" transform="matrix(0.952 -0.3062 0.3062 0.952 -66.5179 191.2963)" fill="#FAEB74" width="25.53" height="24.807"/>
		</g>
	</g>
</g>
<text transform="matrix(0.8096 0.587 -0.587 0.8096 735.3389 367.9111)" fill="#FFFFFF" font-family="'ArialMT'" font-size="2.8798">SALESBOOK</text>
<g>
	<g>
		
			<image overflow="visible" opacity="0.3" width="482" height="482" xlink:href="DB1A4A7D.png"  transform="matrix(0.1272 -0.0654 0.0654 0.1272 871.834 348.8262)">
		</image>
		<g>
			<g>
				<g>
					<g>
						<path fill="#FFFFFF" d="M932.062,334.436c-15.877-8.539-35.671-2.594-44.21,13.282c-8.541,15.876-2.596,35.669,13.28,44.211
							c15.876,8.539,35.67,2.594,44.21-13.282C953.884,362.771,947.938,342.979,932.062,334.436z M914.843,366.497
							c-1.82-0.979-2.506-3.259-1.525-5.08c0.979-1.82,3.258-2.506,5.078-1.525c1.823,0.979,2.507,3.258,1.528,5.08
							C918.942,366.793,916.664,367.478,914.843,366.497z"/>
					</g>
				</g>
				<g>
					<g>
						<g>
							<path fill="#322B2C" d="M931.567,335.355c-15.368-8.269-34.528-2.512-42.796,12.857
								c-8.268,15.367-2.512,34.527,12.856,42.795c15.368,8.269,34.529,2.513,42.796-12.856
								C952.691,362.784,946.936,343.624,931.567,335.355z M914.443,367.186c-2.207-1.188-3.036-3.951-1.849-6.156
								c1.188-2.208,3.949-3.038,6.157-1.851c2.207,1.188,3.036,3.95,1.849,6.157C919.414,367.542,916.651,368.373,914.443,367.186z
								"/>
						</g>
					</g>
				</g>
			</g>
		</g>
	</g>
</g>
<g>
	<g>
		
			<image overflow="visible" opacity="0.3" width="482" height="482" xlink:href="DB1A4A7F.png"  transform="matrix(0.1272 -0.0654 0.0654 0.1272 830.6191 326.6533)">
		</image>
		<g>
			<g>
				<g>
					<g>
						<path fill="#FFFFFF" d="M890.848,312.265c-15.877-8.541-35.67-2.595-44.211,13.281c-8.541,15.875-2.595,35.668,13.281,44.21
							c15.877,8.54,35.67,2.594,44.211-13.281C912.669,340.599,906.723,320.806,890.848,312.265z M873.627,344.323
							c-1.82-0.979-2.506-3.258-1.525-5.079c0.979-1.821,3.259-2.506,5.08-1.525s2.506,3.259,1.525,5.079
							C877.728,344.62,875.449,345.304,873.627,344.323z"/>
					</g>
				</g>
				<g>
					<g>
						<g>
							<g>
								<path fill="#57917B" d="M890.353,313.184c-15.369-8.269-34.529-2.512-42.797,12.855
									c-8.268,15.368-2.512,34.529,12.857,42.796c15.368,8.269,34.527,2.513,42.797-12.855
									C911.477,340.611,905.721,321.45,890.353,313.184z M873.229,345.013c-2.208-1.187-3.037-3.949-1.85-6.157
									c1.188-2.207,3.95-3.037,6.157-1.849c2.207,1.187,3.037,3.948,1.851,6.156C878.199,345.37,875.437,346.2,873.229,345.013z"
									/>
							</g>
						</g>
					</g>
				</g>
			</g>
		</g>
	</g>
</g>
<text transform="matrix(1 0 0 1 866.249 356.0742)" fill="#FFFFFF" font-family="'ArialMT'" font-size="4">MEDICO</text>
<text transform="matrix(1 0 0 1 911.999 378.5029)" fill="#FFFFFF" font-family="'ArialMT'" font-size="4">CRM</text>
<g>
	<g>
		<g>
			<path fill="#2F2F2F" d="M407.844,441.8c-1.017,1.592-3.132,2.059-4.724,1.043l-39.213-25.029
				c-1.592-1.016-2.059-3.13-1.042-4.723l39.382-61.702c1.016-1.592,3.131-2.059,4.723-1.041l39.212,25.027
				c1.593,1.016,2.06,3.131,1.043,4.723L407.844,441.8z"/>
		</g>
		<g>
			
				<rect x="381.126" y="409.566" transform="matrix(0.8429 0.538 -0.538 0.8429 285.877 -145.4544)" fill="#141414" width="21.891" height="14.709"/>
		</g>
		<g>
			<path fill="#141414" d="M397.83,358.31l4.417-6.921c1.016-1.592,3.131-2.059,4.723-1.041l39.212,25.027
				c1.593,1.016,2.06,3.131,1.043,4.723l-4.417,6.921L397.83,358.31z"/>
		</g>
		<polyline fill="none" points="381.337,415.413 385.322,409.166 401.757,419.655 397.77,425.903 		"/>
		<g>
			<path fill="#141414" d="M467.504,286.491l-50.707-32.362c-6.302-4.023-14.703-2.17-18.726,4.133
				c-4.022,6.303-2.168,14.705,4.134,18.728l44.699,28.526c7.274,4.642,9.413,14.333,4.771,21.606l-28.621,44.843l-1.758-1.121
				L449.92,326c3.992-6.255,2.197-14.574-3.991-18.632l-0.001,0.001l-44.844-28.621c-7.272-4.644-9.413-14.336-4.77-21.609
				c4.641-7.272,14.334-9.413,21.607-4.771l50.707,32.364L467.504,286.491z"/>
		</g>
		<g>
			<g>
				
					<rect x="479.155" y="291.775" transform="matrix(-0.8429 -0.538 0.538 -0.8429 731.6962 804.334)" fill="#ECEDED" width="8.209" height="7.166"/>
				
					<rect x="481.207" y="295.596" transform="matrix(-0.8428 -0.5382 0.5382 -0.8428 728.7988 805.558)" fill="#1A171B" width="1.649" height="1.52"/>
				
					<rect x="482.911" y="292.923" transform="matrix(-0.8429 -0.5381 0.5381 -0.8429 733.4596 801.5111)" fill="#1A171B" width="1.65" height="1.521"/>
			</g>
			<g>
				
					<rect x="466.347" y="284.81" transform="matrix(0.8429 0.538 -0.538 0.8429 228.0267 -207.6727)" fill="#141414" width="6.67" height="3.763"/>
			</g>
			<g>
				
					<rect x="470.925" y="286.308" transform="matrix(0.8429 0.5381 -0.5381 0.8429 231.4042 -210.6038)" fill="#141414" width="10.776" height="9.235"/>
			</g>
		</g>
	</g>
</g>
</svg>
