<?xml version="1.0" encoding="utf-8"?>
<!-- Generator: Adobe Illustrator 15.0.0, SVG Export Plug-In . SVG Version: 6.00 Build 0)  -->
<!DOCTYPE svg PUBLIC "-//W3C//DTD SVG 1.1//EN" "http://www.w3.org/Graphics/SVG/1.1/DTD/svg11.dtd">
<svg version="1.1" id="Layer_1" xmlns="http://www.w3.org/2000/svg" xmlns:xlink="http://www.w3.org/1999/xlink" x="0px" y="0px"
	 width="768px" height="1024px" viewBox="0 0 768 1024" enable-background="new 0 0 768 1024" xml:space="preserve">
<g>
	<g>
		<g>
			<path fill="#F6F6F6" d="M439.218,548.412c0,7.582-5.954,13.73-13.297,13.73h-70.026c-7.343,0-13.297-6.148-13.297-13.73
				l6.648-27.918c0-7.582,5.135-13.729,11.466-13.729h60.392c6.332,0,11.466,6.147,11.466,13.729L439.218,548.412z"/>
			<g>
				<path fill="#E3E3E3" d="M401.06,518.1h181.158c3.171,0,7.987-2.391,9.184-5.739l50.967-136.882
					c0-3.17-4.857-13.977-8.027-13.977l-471.824,0c-3.169,0-8.027,10.808-8.027,13.978l50.968,136.882
					c1.195,3.349,6.013,5.739,9.183,5.739H399.77H401.06z"/>
			</g>
			<g>
				<path fill="#1A171B" d="M400.991,515.409h182.716c3.089,0,7.78-2.3,8.944-5.519l49.198-131.943c0-3.047-2.501-5.518-5.59-5.518
					H402.436h-2.703l-239.133,0c-3.09,0-5.592,2.471-5.592,5.519l49.199,131.942c1.164,3.22,5.857,5.52,8.946,5.52h186.583H400.991z
					"/>
			</g>
			<polygon fill="#3E3D40" points="581.619,489.432 214.089,489.432 180.893,389.793 614.816,389.793 			"/>
			<g>
				<path fill="#C6C7C8" d="M199.714,498.49l5.52,13.87c1.197,3.349,6.022,5.739,9.196,5.739h185.361h1.292H582.47
					c3.174,0,7.998-2.391,9.194-5.739l5.521-13.87H199.714z"/>
			</g>
			<polygon opacity="0.2" fill="#FFFFFF" points="279.009,490.804 214.089,490.804 180.893,391.166 370.306,391.166 			"/>
		</g>
		<g>
			<polygon fill="#FAEB74" points="260.653,523.634 232.544,523.634 227.383,504.983 262.77,504.983 			"/>
		</g>
	</g>
</g>
<g>
	<g>
		<g>
			<g>
				<path fill="#3D3938" d="M514.864,644.786l-6.021,5.478c-1.156,1.762-3.521,2.254-5.283,1.1l-62.745-41.129
					c-1.763-1.155-2.255-3.521-1.101-5.282l2.622-7.708l9.472-6.564l64.873,42.523L514.864,644.786z"/>
			</g>
			<g>
				<polygon fill="#554E4D" points="442.336,597.244 451.808,590.68 516.681,633.203 514.864,644.786 				"/>
			</g>
		</g>
		<g>
			<g>
				<g>
					<path fill="#FFFFFF" d="M456.626,653.925c17.993,11.796,42.143,6.771,53.938-11.227c11.796-17.991,6.771-42.14-11.225-53.937
						c-17.994-11.794-42.144-6.769-53.938,11.226C433.606,617.981,438.63,642.13,456.626,653.925z M480.412,617.584
						c2.065,1.353,2.644,4.135,1.291,6.198c-1.354,2.063-4.134,2.641-6.198,1.289c-2.064-1.354-2.645-4.133-1.292-6.196
						C475.567,616.81,478.347,616.23,480.412,617.584z"/>
				</g>
			</g>
			<g>
				<g>
					<g>
						<path fill="#F0A808" d="M457.307,652.884c17.42,11.42,40.798,6.553,52.216-10.867c11.418-17.417,6.553-40.795-10.865-52.213
							c-17.42-11.419-40.798-6.554-52.215,10.866C435.023,618.088,439.889,641.466,457.307,652.884z M480.957,616.805
							c2.501,1.643,3.203,5.012,1.564,7.513c-1.642,2.503-5.013,3.205-7.515,1.562c-2.5-1.639-3.202-5.008-1.562-7.511
							C475.085,615.868,478.455,615.167,480.957,616.805z"/>
					</g>
				</g>
			</g>
		</g>
		<g>
			<polygon fill="#FFFFFF" points="442.336,597.244 450.733,595.45 513.026,636.283 514.864,644.786 564.358,569.278 
				491.83,521.736 			"/>
		</g>
	</g>
</g>
<rect x="403.507" y="607.726" transform="matrix(-0.9842 -0.177 0.177 -0.9842 702.2301 1286.8047)" fill="#ECEDED" width="9.988" height="8.72"/>
<polygon fill="#1A171B" points="372.478,596.991 403.943,602.648 405.258,606.087 403.401,616.404 400.939,619.345 369.475,613.686 
	"/>
<rect x="406.562" y="612.926" transform="matrix(-0.9842 -0.1771 0.1771 -0.9842 699.9844 1290.174)" fill="#1A171B" width="2.007" height="1.849"/>
<rect x="407.244" y="609.128" transform="matrix(-0.9841 -0.1776 0.1776 -0.9841 701.6891 1282.9016)" fill="#1A171B" width="2.007" height="1.85"/>
<path fill="#ECEDED" d="M373.057,611.529c-2.319-3.336-1.495-7.923,1.842-10.242c3.336-2.319,7.922-1.495,10.241,1.842
	l22.245,32.039l-12.002,8.344L373.057,611.529z"/>
<circle fill="#1A171B" cx="379.077" cy="607.447" r="4.492"/>
<text transform="matrix(0.9698 0.2437 -0.2437 0.9698 8899.1562 364.6631)" fill="#58585A" font-family="'Arimo'" font-size="3.9815">8 GB</text>
<g>
	<g>
		
			<rect x="327.977" y="592.574" transform="matrix(0.8856 -0.4644 0.4644 0.8856 -239.4641 223.5468)" fill="#F6F6F6" width="12.243" height="10.688"/>
		
			<rect x="332.445" y="594.375" transform="matrix(0.8856 -0.4644 0.4644 0.8856 -238.3713 223.0412)" fill="#1A171B" width="2.461" height="2.266"/>
		
			<rect x="334.642" y="598.56" transform="matrix(0.8853 -0.4651 0.4651 0.8853 -240.3618 224.9977)" fill="#1A171B" width="2.461" height="2.268"/>
		<g>
			<path fill="#F7B93C" d="M310.174,621.376c-4.681,2.454-10.462,0.651-12.917-4.028s-0.653-10.463,4.028-12.918l24.033-12.656
				l9.027,16.986L310.174,621.376z"/>
		</g>
		<g>
			<path fill="#F7B93C" d="M350.942,578.563c4.681-2.454,10.464-0.648,12.917,4.029c2.456,4.683,0.653,10.465-4.029,12.92
				l-4.83,2.516l-8.914-16.896L350.942,578.563z"/>
		</g>
	</g>
</g>
<g>
	<path fill="#C6C7C8" d="M379.275,794.459c-1.726,3.353-5.843,4.67-9.194,2.944L150.786,684.506c-3.353-1.725-4.669-5.84-2.944-9.19
		l47.148-91.583c1.726-3.352,5.84-4.67,9.192-2.945l219.295,112.897c3.353,1.727,4.67,5.842,2.944,9.192L379.275,794.459z"/>
</g>
<g>
	<path fill="#FFFFFF" d="M209.501,608.139c-0.207,0.403-0.702,0.563-1.106,0.355l-12.241-6.302
		c-0.404-0.207-0.563-0.704-0.355-1.107l3.574-6.943c0.207-0.401,0.704-0.562,1.107-0.354l12.241,6.302
		c0.404,0.208,0.562,0.704,0.354,1.107L209.501,608.139z"/>
</g>
<g>
	<path fill="#FFFFFF" d="M202.133,622.451c-0.208,0.403-0.703,0.564-1.106,0.355l-12.242-6.302c-0.404-0.209-0.562-0.704-0.354-1.11
		l5.659-10.991c0.208-0.404,0.704-0.562,1.108-0.353l12.24,6.301c0.405,0.207,0.562,0.704,0.354,1.108L202.133,622.451z"/>
</g>
<g>
	<path fill="#FFFFFF" d="M169.752,683.555c-0.208,0.404-0.704,0.561-1.108,0.354l-11.509-5.925
		c-0.405-0.209-0.563-0.705-0.355-1.109l6.787-13.182c0.208-0.405,0.704-0.564,1.108-0.355l11.509,5.926
		c0.405,0.208,0.564,0.702,0.356,1.106L169.752,683.555z"/>
</g>
<g>
	<path fill="#FFFFFF" d="M184.978,691.392c-0.208,0.404-0.705,0.563-1.109,0.355l-11.51-5.927c-0.402-0.207-0.562-0.702-0.354-1.106
		l6.787-13.184c0.209-0.405,0.704-0.563,1.107-0.355l11.51,5.927c0.405,0.209,0.564,0.701,0.355,1.107L184.978,691.392z"/>
</g>
<g>
	<path fill="#FFFFFF" d="M200.203,699.229c-0.208,0.404-0.703,0.564-1.107,0.355l-11.51-5.926c-0.403-0.208-0.563-0.702-0.354-1.106
		l6.787-13.183c0.208-0.407,0.704-0.565,1.108-0.356l11.509,5.925c0.404,0.209,0.562,0.702,0.354,1.108L200.203,699.229z"/>
</g>
<g>
	<path fill="#FFFFFF" d="M327.912,764.977c-0.209,0.405-0.704,0.563-1.107,0.356l-11.511-5.926
		c-0.403-0.208-0.563-0.703-0.354-1.108l6.787-13.184c0.208-0.404,0.704-0.562,1.107-0.354l11.51,5.926
		c0.405,0.208,0.563,0.702,0.354,1.107L327.912,764.977z"/>
</g>
<g>
	<path fill="#FFFFFF" d="M343.077,772.785c-0.208,0.404-0.705,0.562-1.108,0.354l-11.51-5.926c-0.404-0.208-0.562-0.703-0.354-1.107
		l2.805-5.448c0.208-0.404,0.704-0.564,1.107-0.357l11.511,5.926c0.404,0.208,0.563,0.704,0.355,1.108L343.077,772.785z"/>
</g>
<g>
	<path fill="#FFFFFF" d="M373.404,788.398c-0.207,0.404-0.703,0.563-1.107,0.354l-11.51-5.923c-0.404-0.209-0.563-0.706-0.354-1.109
		l2.806-5.451c0.208-0.402,0.704-0.563,1.108-0.354l11.509,5.925c0.405,0.209,0.562,0.705,0.354,1.108L373.404,788.398z"/>
</g>
<g>
	<path fill="#FFFFFF" d="M358.24,780.591c-0.208,0.406-0.704,0.563-1.108,0.356l-11.508-5.927c-0.404-0.208-0.562-0.702-0.355-1.106
		l6.788-13.184c0.208-0.405,0.703-0.562,1.108-0.354l11.509,5.925c0.403,0.208,0.562,0.703,0.354,1.107L358.24,780.591z"/>
</g>
<g>
	<path fill="#FFFFFF" d="M219.203,709.012c-0.208,0.404-0.703,0.563-1.106,0.356l-15.165-7.808
		c-0.404-0.207-0.562-0.703-0.354-1.107l6.787-13.183c0.208-0.406,0.704-0.564,1.107-0.355l15.165,7.807
		c0.402,0.209,0.562,0.702,0.354,1.107L219.203,709.012z"/>
</g>
<g>
	<path fill="#FFFFFF" d="M312.016,756.795c-0.208,0.404-0.703,0.562-1.107,0.354l-15.164-7.808
		c-0.404-0.209-0.562-0.702-0.354-1.107l6.786-13.184c0.209-0.404,0.705-0.562,1.108-0.354l15.164,7.808
		c0.404,0.207,0.563,0.702,0.354,1.107L312.016,756.795z"/>
</g>
<g>
	<path fill="#FFFFFF" d="M293.808,747.419c-0.208,0.405-0.704,0.563-1.108,0.356l-70.767-36.431
		c-0.403-0.209-0.562-0.706-0.354-1.11l6.787-13.184c0.209-0.404,0.703-0.561,1.107-0.354l70.767,36.432
		c0.404,0.207,0.564,0.703,0.354,1.108L293.808,747.419z"/>
</g>
<g>
	<path fill="#FFFFFF" d="M217.48,630.352c-0.207,0.404-0.703,0.563-1.107,0.355l-12.241-6.301c-0.403-0.209-0.562-0.705-0.354-1.109
		l5.659-10.991c0.208-0.402,0.703-0.562,1.107-0.356l12.24,6.304c0.404,0.206,0.562,0.704,0.355,1.106L217.48,630.352z"/>
</g>
<g>
	<path fill="#FFFFFF" d="M216.518,648.606c-0.207,0.404-0.704,0.564-1.107,0.354l-12.241-6.301
		c-0.404-0.209-0.562-0.705-0.354-1.108l5.658-10.99c0.209-0.405,0.704-0.562,1.107-0.354l12.24,6.302
		c0.405,0.208,0.564,0.701,0.355,1.107L216.518,648.606z"/>
</g>
<g>
	<path fill="#FFFFFF" d="M231.865,656.508c-0.207,0.403-0.703,0.563-1.106,0.354l-12.242-6.301c-0.404-0.21-0.562-0.704-0.354-1.108
		l5.659-10.991c0.209-0.404,0.702-0.562,1.106-0.354l12.242,6.301c0.403,0.21,0.562,0.704,0.354,1.107L231.865,656.508z"/>
</g>
<g>
	<path fill="#FFFFFF" d="M247.03,664.316c-0.209,0.402-0.704,0.561-1.107,0.354l-12.241-6.304c-0.405-0.206-0.564-0.702-0.356-1.107
		l5.659-10.99c0.208-0.404,0.704-0.563,1.107-0.354l12.242,6.302c0.403,0.209,0.563,0.701,0.354,1.108L247.03,664.316z"/>
</g>
<g>
	<path fill="#FFFFFF" d="M262.194,672.122c-0.208,0.404-0.703,0.562-1.107,0.355l-12.24-6.303c-0.406-0.209-0.562-0.702-0.354-1.108
		l5.659-10.99c0.208-0.404,0.701-0.562,1.106-0.355l12.241,6.301c0.404,0.209,0.563,0.703,0.354,1.109L262.194,672.122z"/>
</g>
<g>
	<path fill="#FFFFFF" d="M277.176,679.834c-0.209,0.406-0.704,0.563-1.108,0.354l-12.24-6.301c-0.404-0.208-0.562-0.703-0.354-1.107
		l5.659-10.992c0.209-0.404,0.704-0.562,1.107-0.354l12.241,6.302c0.404,0.209,0.564,0.703,0.356,1.106L277.176,679.834z"/>
</g>
<g>
	<path fill="#FFFFFF" d="M291.974,687.453c-0.208,0.404-0.702,0.563-1.106,0.355l-12.242-6.302
		c-0.402-0.208-0.561-0.702-0.354-1.106l5.659-10.992c0.209-0.406,0.703-0.562,1.106-0.355l12.242,6.302
		c0.404,0.209,0.562,0.702,0.354,1.106L291.974,687.453z"/>
</g>
<g>
	<path fill="#FFFFFF" d="M307.414,695.4c-0.208,0.405-0.705,0.564-1.107,0.354l-12.242-6.302c-0.402-0.208-0.562-0.702-0.354-1.106
		l5.659-10.991c0.209-0.405,0.704-0.562,1.106-0.355l12.242,6.302c0.403,0.209,0.562,0.703,0.354,1.108L307.414,695.4z"/>
</g>
<g>
	<path fill="#FFFFFF" d="M322.213,703.02c-0.208,0.405-0.704,0.563-1.108,0.354l-12.24-6.301c-0.404-0.209-0.562-0.703-0.354-1.108
		l5.658-10.989c0.208-0.406,0.702-0.564,1.107-0.357l12.239,6.303c0.405,0.208,0.563,0.704,0.355,1.107L322.213,703.02z"/>
</g>
<g>
	<path fill="#FFFFFF" d="M337.375,710.826c-0.208,0.404-0.701,0.562-1.104,0.354l-12.242-6.303
		c-0.406-0.206-0.563-0.701-0.354-1.106l5.658-10.992c0.208-0.403,0.702-0.561,1.108-0.354l12.241,6.303
		c0.404,0.208,0.562,0.702,0.353,1.108L337.375,710.826z"/>
</g>
<g>
	<path fill="#FFFFFF" d="M351.993,718.352c-0.208,0.405-0.703,0.563-1.107,0.354l-12.242-6.302
		c-0.402-0.208-0.562-0.701-0.354-1.106l5.659-10.993c0.209-0.405,0.704-0.561,1.106-0.355l12.242,6.302
		c0.403,0.209,0.563,0.704,0.354,1.11L351.993,718.352z"/>
</g>
<g>
	<path fill="#FFFFFF" d="M367.34,726.252c-0.209,0.405-0.704,0.561-1.108,0.355l-12.24-6.302c-0.406-0.21-0.563-0.703-0.356-1.107
		l5.658-10.992c0.208-0.403,0.705-0.562,1.109-0.354l12.241,6.302c0.404,0.207,0.562,0.702,0.354,1.106L367.34,726.252z"/>
</g>
<g>
	<path fill="#FFFFFF" d="M382.596,734.105c-0.209,0.405-0.703,0.562-1.107,0.354l-12.241-6.301
		c-0.404-0.209-0.563-0.705-0.355-1.108l5.658-10.992c0.209-0.402,0.704-0.562,1.108-0.354l12.241,6.305
		c0.404,0.205,0.563,0.701,0.354,1.106L382.596,734.105z"/>
</g>
<g>
	<path fill="#FFFFFF" d="M212.602,665.195c-0.208,0.404-0.704,0.563-1.107,0.354l-12.241-6.303
		c-0.404-0.208-0.562-0.702-0.354-1.106l5.66-10.992c0.208-0.402,0.701-0.562,1.106-0.354l12.241,6.301
		c0.404,0.21,0.562,0.704,0.355,1.106L212.602,665.195z"/>
</g>
<g>
	<path fill="#FFFFFF" d="M227.948,673.096c-0.208,0.404-0.702,0.562-1.106,0.355l-12.242-6.302
		c-0.404-0.208-0.562-0.703-0.354-1.107l5.66-10.993c0.207-0.401,0.703-0.562,1.106-0.354l12.242,6.302
		c0.404,0.208,0.562,0.704,0.354,1.106L227.948,673.096z"/>
</g>
<g>
	<path fill="#FFFFFF" d="M243.112,680.903c-0.207,0.404-0.703,0.562-1.106,0.354l-12.242-6.303
		c-0.404-0.209-0.563-0.701-0.355-1.105l5.66-10.993c0.208-0.403,0.702-0.562,1.106-0.354l12.242,6.303
		c0.404,0.209,0.562,0.702,0.355,1.105L243.112,680.903z"/>
</g>
<g>
	<path fill="#FFFFFF" d="M258.276,688.711c-0.208,0.404-0.702,0.56-1.106,0.354l-12.241-6.302c-0.404-0.209-0.562-0.703-0.355-1.107
		l5.658-10.992c0.208-0.404,0.704-0.562,1.108-0.353l12.241,6.301c0.403,0.208,0.562,0.702,0.355,1.105L258.276,688.711z"/>
</g>
<g>
	<path fill="#FFFFFF" d="M273.258,696.424c-0.208,0.403-0.703,0.561-1.106,0.354l-12.241-6.304c-0.404-0.206-0.563-0.7-0.355-1.105
		l5.66-10.991c0.207-0.404,0.702-0.562,1.106-0.355l12.242,6.302c0.402,0.209,0.561,0.705,0.354,1.108L273.258,696.424z"/>
</g>
<g>
	<path fill="#FFFFFF" d="M288.057,704.041c-0.208,0.406-0.703,0.562-1.107,0.356l-12.24-6.305c-0.404-0.207-0.564-0.701-0.355-1.104
		l5.658-10.993c0.208-0.403,0.704-0.562,1.107-0.354l12.242,6.302c0.404,0.209,0.562,0.703,0.354,1.106L288.057,704.041z"/>
</g>
<g>
	<path fill="#FFFFFF" d="M303.496,711.99c-0.208,0.404-0.703,0.562-1.107,0.355l-12.24-6.304c-0.404-0.207-0.562-0.703-0.354-1.106
		l5.659-10.992c0.208-0.403,0.702-0.562,1.106-0.355l12.241,6.304c0.406,0.207,0.563,0.701,0.355,1.105L303.496,711.99z"/>
</g>
<g>
	<path fill="#FFFFFF" d="M318.294,719.607c-0.208,0.403-0.703,0.564-1.106,0.356l-12.243-6.303
		c-0.403-0.208-0.562-0.704-0.354-1.107l5.659-10.99c0.208-0.405,0.702-0.563,1.107-0.356l12.242,6.302
		c0.403,0.208,0.562,0.703,0.354,1.106L318.294,719.607z"/>
</g>
<g>
	<path fill="#FFFFFF" d="M333.459,727.416c-0.208,0.404-0.705,0.563-1.109,0.354l-12.24-6.302c-0.404-0.208-0.563-0.703-0.354-1.108
		l5.659-10.992c0.208-0.404,0.703-0.562,1.106-0.354l12.241,6.302c0.404,0.209,0.564,0.704,0.356,1.108L333.459,727.416z"/>
</g>
<g>
	<path fill="#FFFFFF" d="M348.075,734.94c-0.208,0.403-0.705,0.562-1.108,0.354l-12.24-6.303c-0.405-0.207-0.562-0.702-0.354-1.106
		l5.659-10.991c0.208-0.404,0.702-0.562,1.106-0.354l12.241,6.301c0.404,0.208,0.563,0.701,0.355,1.105L348.075,734.94z"/>
</g>
<g>
	<path fill="#FFFFFF" d="M363.421,742.841c-0.208,0.404-0.702,0.563-1.107,0.356l-12.241-6.304
		c-0.404-0.206-0.562-0.703-0.354-1.107l5.657-10.992c0.209-0.403,0.705-0.562,1.108-0.354l12.24,6.303
		c0.406,0.208,0.563,0.705,0.356,1.109L363.421,742.841z"/>
</g>
<g>
	<path fill="#FFFFFF" d="M378.678,750.695c-0.208,0.404-0.706,0.563-1.108,0.354l-12.24-6.301c-0.404-0.208-0.562-0.703-0.354-1.107
		l5.659-10.993c0.208-0.403,0.703-0.562,1.107-0.354l12.239,6.302c0.405,0.207,0.564,0.703,0.356,1.106L378.678,750.695z"/>
</g>
<g>
	<path fill="#FFFFFF" d="M198.114,676.574c-0.208,0.404-0.703,0.561-1.106,0.354l-12.242-6.302
		c-0.403-0.208-0.562-0.703-0.356-1.105l5.66-10.994c0.208-0.404,0.704-0.562,1.107-0.355l12.242,6.302
		c0.402,0.208,0.562,0.704,0.354,1.108L198.114,676.574z"/>
</g>
<g>
	<path fill="#FFFFFF" d="M213.46,684.476c-0.208,0.402-0.702,0.562-1.106,0.354l-12.241-6.303c-0.404-0.207-0.563-0.702-0.356-1.104
		l5.661-10.993c0.208-0.403,0.703-0.562,1.106-0.354l12.242,6.302c0.404,0.209,0.562,0.703,0.354,1.106L213.46,684.476z"/>
</g>
<g>
	<path fill="#FFFFFF" d="M228.625,692.284c-0.208,0.401-0.704,0.56-1.108,0.352l-12.24-6.303c-0.405-0.206-0.563-0.704-0.356-1.106
		l5.659-10.993c0.208-0.403,0.704-0.562,1.109-0.353l12.24,6.301c0.404,0.208,0.563,0.704,0.356,1.108L228.625,692.284z"/>
</g>
<g>
	<path fill="#FFFFFF" d="M243.789,700.088c-0.207,0.404-0.702,0.562-1.106,0.354l-12.241-6.3c-0.405-0.208-0.562-0.703-0.355-1.105
		l5.66-10.994c0.208-0.403,0.701-0.563,1.107-0.355l12.24,6.303c0.405,0.207,0.562,0.704,0.354,1.108L243.789,700.088z"/>
</g>
<g>
	<path fill="#FFFFFF" d="M258.772,707.803c-0.208,0.402-0.704,0.562-1.109,0.354l-12.24-6.302c-0.404-0.207-0.562-0.703-0.355-1.105
		l5.659-10.993c0.208-0.404,0.704-0.563,1.108-0.355l12.24,6.3c0.405,0.21,0.564,0.705,0.356,1.109L258.772,707.803z"/>
</g>
<g>
	<path fill="#FFFFFF" d="M273.57,715.421c-0.207,0.402-0.704,0.562-1.106,0.354l-12.241-6.302c-0.404-0.208-0.564-0.703-0.355-1.107
		l5.659-10.991c0.208-0.405,0.704-0.563,1.107-0.354l12.241,6.301c0.404,0.209,0.563,0.704,0.355,1.108L273.57,715.421z"/>
</g>
<g>
	<path fill="#FFFFFF" d="M289.007,723.369c-0.208,0.403-0.702,0.562-1.107,0.354l-12.241-6.303
		c-0.402-0.208-0.562-0.704-0.354-1.107l5.659-10.992c0.208-0.403,0.704-0.562,1.106-0.354l12.242,6.301
		c0.405,0.209,0.563,0.705,0.354,1.108L289.007,723.369z"/>
</g>
<g>
	<path fill="#FFFFFF" d="M303.807,730.988c-0.208,0.404-0.704,0.562-1.108,0.354l-12.241-6.303
		c-0.403-0.208-0.561-0.702-0.353-1.106l5.659-10.993c0.208-0.403,0.702-0.563,1.105-0.354l12.242,6.302
		c0.404,0.209,0.562,0.703,0.354,1.107L303.807,730.988z"/>
</g>
<g>
	<path fill="#FFFFFF" d="M318.972,738.794c-0.208,0.403-0.705,0.562-1.108,0.354l-12.241-6.302
		c-0.404-0.208-0.562-0.704-0.354-1.106l5.659-10.993c0.208-0.403,0.702-0.563,1.106-0.354l12.242,6.303
		c0.403,0.208,0.562,0.702,0.355,1.106L318.972,738.794z"/>
</g>
<g>
	<path fill="#FFFFFF" d="M333.587,746.317c-0.208,0.404-0.704,0.562-1.108,0.356l-12.239-6.301c-0.405-0.21-0.562-0.705-0.355-1.107
		l5.66-10.994c0.208-0.402,0.703-0.562,1.108-0.354l12.239,6.303c0.405,0.207,0.562,0.703,0.356,1.107L333.587,746.317z"/>
</g>
<g>
	<path fill="#FFFFFF" d="M348.935,754.221c-0.207,0.402-0.704,0.562-1.107,0.354l-12.24-6.303c-0.404-0.208-0.563-0.703-0.355-1.105
		l5.66-10.993c0.208-0.404,0.702-0.562,1.106-0.355l12.242,6.302c0.402,0.207,0.562,0.704,0.354,1.107L348.935,754.221z"/>
</g>
<g>
	<path fill="#FFFFFF" d="M381.973,771.229c-0.207,0.404-0.702,0.562-1.107,0.354l-29.841-15.361
		c-0.403-0.208-0.562-0.704-0.354-1.108l5.66-10.992c0.207-0.401,0.704-0.561,1.107-0.353l29.841,15.361
		c0.403,0.209,0.562,0.703,0.354,1.106L381.973,771.229z"/>
</g>
<g>
	<path fill="#FFFFFF" d="M389.719,756.62c-0.207,0.402-0.704,0.562-1.106,0.354l-8.108-4.173c-0.404-0.209-0.562-0.705-0.355-1.108
		l9.371-18.199c0.208-0.404,0.702-0.563,1.107-0.354l8.108,4.173c0.402,0.208,0.562,0.704,0.354,1.108L389.719,756.62z"/>
</g>
<g>
	<path fill="#FFFFFF" d="M397.396,741.726c-0.209,0.405-0.704,0.562-1.108,0.354l-12.241-6.304
		c-0.402-0.206-0.562-0.701-0.355-1.105l5.658-10.991c0.21-0.406,0.705-0.563,1.108-0.355l12.241,6.303
		c0.404,0.205,0.563,0.703,0.355,1.106L397.396,741.726z"/>
</g>
<g>
	<path fill="#FFFFFF" d="M232.461,638.064c-0.208,0.404-0.702,0.563-1.106,0.355l-12.24-6.303c-0.406-0.207-0.563-0.704-0.355-1.107
		l5.658-10.991c0.208-0.404,0.704-0.563,1.108-0.355l12.241,6.303c0.403,0.206,0.562,0.702,0.354,1.105L232.461,638.064z"/>
</g>
<g>
	<path fill="#FFFFFF" d="M247.322,645.716c-0.208,0.403-0.704,0.561-1.107,0.354l-12.241-6.303
		c-0.404-0.208-0.562-0.703-0.354-1.106l5.659-10.993c0.208-0.403,0.703-0.562,1.107-0.355l12.241,6.305
		c0.403,0.206,0.562,0.702,0.354,1.106L247.322,645.716z"/>
</g>
<g>
	<path fill="#FFFFFF" d="M262.182,653.367c-0.208,0.401-0.703,0.561-1.107,0.354l-12.241-6.303
		c-0.403-0.207-0.563-0.704-0.354-1.108l5.658-10.991c0.208-0.404,0.705-0.562,1.108-0.354l12.242,6.303
		c0.403,0.208,0.562,0.704,0.354,1.107L262.182,653.367z"/>
</g>
<g>
	<path fill="#FFFFFF" d="M277.53,661.265c-0.208,0.404-0.705,0.563-1.106,0.356l-12.244-6.301c-0.403-0.209-0.561-0.705-0.354-1.109
		l5.659-10.991c0.208-0.403,0.703-0.562,1.107-0.356l12.242,6.304c0.402,0.207,0.562,0.704,0.355,1.105L277.53,661.265z"/>
</g>
<g>
	<path fill="#FFFFFF" d="M292.389,668.914c-0.208,0.404-0.703,0.564-1.108,0.357l-12.24-6.304c-0.404-0.207-0.562-0.702-0.354-1.106
		l5.658-10.992c0.208-0.404,0.702-0.562,1.108-0.354l12.239,6.302c0.405,0.209,0.562,0.703,0.355,1.106L292.389,668.914z"/>
</g>
<g>
	<path fill="#FFFFFF" d="M307.25,676.566c-0.208,0.402-0.704,0.562-1.108,0.354l-12.242-6.303c-0.404-0.207-0.561-0.703-0.354-1.107
		l5.659-10.99c0.208-0.404,0.703-0.562,1.107-0.357l12.242,6.303c0.403,0.209,0.561,0.705,0.354,1.108L307.25,676.566z"/>
</g>
<g>
	<path fill="#FFFFFF" d="M322.351,684.343c-0.206,0.403-0.703,0.562-1.105,0.354l-12.242-6.302
		c-0.402-0.208-0.562-0.705-0.354-1.108l5.659-10.992c0.208-0.401,0.704-0.562,1.107-0.355l12.241,6.304
		c0.404,0.207,0.563,0.704,0.354,1.107L322.351,684.343z"/>
</g>
<g>
	<path fill="#FFFFFF" d="M337.333,692.054c-0.207,0.404-0.702,0.563-1.106,0.356l-12.241-6.304
		c-0.405-0.207-0.563-0.704-0.356-1.105l5.659-10.993c0.207-0.402,0.704-0.562,1.108-0.354l12.241,6.302
		c0.404,0.207,0.562,0.703,0.354,1.106L337.333,692.054z"/>
</g>
<g>
	<path fill="#FFFFFF" d="M352.436,699.831c-0.207,0.401-0.703,0.562-1.105,0.354l-12.241-6.302
		c-0.405-0.209-0.563-0.703-0.355-1.107l5.659-10.992c0.207-0.404,0.704-0.564,1.107-0.354l12.242,6.302
		c0.403,0.207,0.562,0.702,0.354,1.106L352.436,699.831z"/>
</g>
<g>
	<path fill="#FFFFFF" d="M367.662,707.67c-0.206,0.401-0.703,0.562-1.106,0.353l-12.242-6.302c-0.404-0.206-0.562-0.703-0.354-1.106
		l5.659-10.992c0.208-0.403,0.704-0.562,1.108-0.354l12.24,6.301c0.403,0.209,0.562,0.704,0.354,1.106L367.662,707.67z"/>
</g>
<g>
	<path fill="#FFFFFF" d="M382.646,715.381c-0.209,0.403-0.705,0.562-1.108,0.354l-12.241-6.301
		c-0.403-0.208-0.562-0.705-0.355-1.106l5.66-10.994c0.207-0.401,0.703-0.562,1.107-0.353l12.239,6.303
		c0.404,0.206,0.563,0.702,0.356,1.105L382.646,715.381z"/>
</g>
<g>
	<path fill="#FFFFFF" d="M405.179,726.983c-0.208,0.403-0.703,0.562-1.108,0.354l-18.817-9.689
		c-0.403-0.206-0.563-0.703-0.354-1.106l5.658-10.992c0.207-0.404,0.704-0.562,1.106-0.354l18.82,9.688
		c0.404,0.208,0.561,0.703,0.354,1.105L405.179,726.983z"/>
</g>
<g>
	<path fill="#FFFFFF" d="M201.084,640.652c-0.208,0.403-0.703,0.562-1.107,0.354l-18.819-9.687
		c-0.405-0.208-0.562-0.704-0.355-1.108l5.66-10.993c0.207-0.403,0.703-0.561,1.106-0.354l18.817,9.689
		c0.404,0.208,0.562,0.703,0.355,1.105L201.084,640.652z"/>
</g>
<g>
	<path fill="#FFFFFF" d="M182.193,668.367c-0.208,0.406-0.704,0.563-1.108,0.355l-15.165-7.806
		c-0.404-0.209-0.562-0.705-0.354-1.108l5.658-10.992c0.208-0.404,0.703-0.562,1.107-0.354l15.164,7.807
		c0.404,0.208,0.563,0.703,0.355,1.107L182.193,668.367z"/>
</g>
<g>
	<path fill="#FFFFFF" d="M197.881,657.648c-0.208,0.402-0.703,0.562-1.107,0.353l-23.203-11.944
		c-0.404-0.208-0.563-0.702-0.355-1.106l5.66-10.993c0.208-0.407,0.703-0.563,1.106-0.354l23.203,11.945
		c0.404,0.207,0.564,0.699,0.356,1.104L197.881,657.648z"/>
</g>
<g>
	<path fill="#FFFFFF" d="M224.85,616.042c-0.208,0.401-0.705,0.561-1.109,0.354l-12.24-6.305c-0.404-0.206-0.562-0.702-0.354-1.106
		l3.575-6.942c0.208-0.403,0.703-0.562,1.106-0.353l12.24,6.301c0.405,0.207,0.563,0.703,0.356,1.107L224.85,616.042z"/>
</g>
<g>
	<path fill="#FFFFFF" d="M240.926,624.318c-0.207,0.402-0.704,0.562-1.107,0.353l-12.241-6.301
		c-0.404-0.208-0.562-0.705-0.354-1.106l3.574-6.943c0.208-0.403,0.704-0.562,1.107-0.355l12.241,6.304
		c0.404,0.207,0.563,0.702,0.355,1.106L240.926,624.318z"/>
</g>
<g>
	<path fill="#FFFFFF" d="M256.273,632.219c-0.207,0.403-0.705,0.562-1.107,0.354l-12.241-6.302
		c-0.404-0.209-0.563-0.703-0.355-1.106l3.575-6.943c0.208-0.404,0.703-0.562,1.108-0.354l12.24,6.302
		c0.403,0.208,0.563,0.704,0.355,1.106L256.273,632.219z"/>
</g>
<g>
	<path fill="#FFFFFF" d="M271.985,640.31c-0.208,0.401-0.703,0.561-1.107,0.352l-12.24-6.3c-0.404-0.211-0.563-0.706-0.356-1.108
		l3.575-6.944c0.207-0.401,0.703-0.56,1.107-0.352l12.241,6.301c0.403,0.208,0.562,0.704,0.354,1.107L271.985,640.31z"/>
</g>
<g>
	<path fill="#FFFFFF" d="M287.696,648.396c-0.207,0.401-0.702,0.563-1.106,0.354l-12.24-6.301c-0.404-0.21-0.562-0.705-0.355-1.107
		l3.574-6.942c0.207-0.403,0.704-0.563,1.108-0.355l12.24,6.302c0.405,0.209,0.561,0.704,0.355,1.107L287.696,648.396z"/>
</g>
<g>
	<path fill="#FFFFFF" d="M303.226,656.391c-0.207,0.402-0.702,0.562-1.104,0.356l-12.243-6.303
		c-0.403-0.209-0.561-0.704-0.354-1.106l3.573-6.942c0.208-0.403,0.704-0.564,1.107-0.356l12.242,6.303
		c0.403,0.209,0.56,0.705,0.352,1.106L303.226,656.391z"/>
</g>
<g>
	<path fill="#FFFFFF" d="M318.941,664.48c-0.208,0.402-0.703,0.563-1.107,0.354l-12.241-6.303c-0.405-0.207-0.562-0.703-0.356-1.105
		l3.575-6.941c0.208-0.404,0.704-0.564,1.107-0.354l12.241,6.301c0.405,0.207,0.563,0.702,0.355,1.106L318.941,664.48z"/>
</g>
<g>
	<path fill="#FFFFFF" d="M334.471,672.477c-0.208,0.401-0.704,0.563-1.109,0.354l-12.241-6.302
		c-0.404-0.207-0.562-0.705-0.355-1.107l3.575-6.942c0.208-0.404,0.703-0.563,1.107-0.354l12.242,6.301
		c0.404,0.207,0.562,0.703,0.355,1.106L334.471,672.477z"/>
</g>
<g>
	<path fill="#FFFFFF" d="M349.999,680.471c-0.206,0.403-0.702,0.564-1.106,0.355l-12.241-6.302
		c-0.404-0.209-0.562-0.704-0.355-1.107l3.575-6.943c0.208-0.404,0.703-0.562,1.108-0.354l12.24,6.303
		c0.404,0.207,0.562,0.702,0.355,1.105L349.999,680.471z"/>
</g>
<g>
	<path fill="#FFFFFF" d="M365.529,688.466c-0.207,0.403-0.703,0.562-1.108,0.356l-12.241-6.304
		c-0.404-0.207-0.561-0.705-0.354-1.107l3.575-6.942c0.208-0.403,0.702-0.562,1.106-0.355l12.241,6.303
		c0.404,0.207,0.562,0.704,0.355,1.107L365.529,688.466z"/>
</g>
<g>
	<path fill="#FFFFFF" d="M381.425,696.65c-0.207,0.401-0.703,0.562-1.107,0.354l-12.241-6.302c-0.403-0.208-0.562-0.707-0.354-1.109
		l3.574-6.941c0.207-0.404,0.704-0.564,1.107-0.354l12.241,6.302c0.404,0.207,0.562,0.703,0.354,1.106L381.425,696.65z"/>
</g>
<g>
	<path fill="#FFFFFF" d="M396.954,704.646c-0.208,0.402-0.704,0.562-1.108,0.354l-12.241-6.302c-0.402-0.208-0.56-0.704-0.354-1.107
		l3.575-6.942c0.207-0.404,0.704-0.564,1.106-0.354l12.241,6.301c0.404,0.209,0.562,0.704,0.354,1.107L396.954,704.646z"/>
</g>
<g>
	<path fill="#FFFFFF" d="M412.482,712.639c-0.206,0.403-0.702,0.562-1.106,0.357l-12.241-6.305
		c-0.404-0.207-0.562-0.704-0.354-1.106l3.575-6.943c0.208-0.402,0.704-0.563,1.106-0.353l12.242,6.3
		c0.404,0.209,0.562,0.704,0.354,1.106L412.482,712.639z"/>
</g>
<path fill="#0F0B0C" d="M526.408,746.916c-2.229,3.588-1.124,8.302,2.463,10.528l36.049,22.379
	c3.588,2.226,8.301,1.123,10.528-2.464l49.798-80.217c2.227-3.589,1.124-8.302-2.463-10.528l-36.051-22.378
	c-3.586-2.228-8.301-1.125-10.527,2.462L526.408,746.916z"/>
<path fill="#1E1D1D" d="M528.5,746.755c-2.097,3.377-1.058,7.813,2.319,9.909l33.936,21.067c3.376,2.095,7.812,1.059,9.909-2.319
	l48.588-78.271c2.099-3.379,1.061-7.815-2.315-9.913l-33.936-21.064c-3.377-2.097-7.814-1.059-9.911,2.319L528.5,746.755z"/>
<circle fill="#212021" cx="551.616" cy="760.539" r="5.253"/>
<path fill="#C6C7C8" d="M550.456,757.956l-1.627,2.622c-0.222,0.355-0.11,0.826,0.246,1.049l2.621,1.627
	c0.357,0.223,0.83,0.114,1.051-0.245l1.627-2.621c0.221-0.357,0.112-0.828-0.244-1.05l-2.623-1.628
	C551.148,757.487,550.679,757.598,550.456,757.956z M549.274,760.853l1.627-2.62c0.071-0.111,0.218-0.146,0.331-0.078l2.62,1.629
	c0.112,0.068,0.146,0.215,0.076,0.328l-1.627,2.622c-0.069,0.109-0.217,0.146-0.329,0.077l-2.622-1.628
	C549.24,761.114,549.206,760.964,549.274,760.853z"/>
<rect x="550.789" y="684.76" transform="matrix(-0.8496 -0.5274 0.5274 -0.8496 684.2595 1639.1685)" fill="#3E3D40" width="50.074" height="74.539"/>
<path opacity="0.1" fill="#FFFFFF" d="M547.152,757.769c-1.532,2.466-0.773,5.704,1.692,7.235c2.464,1.53,5.703,0.771,7.234-1.694
	C550.59,765.031,547.254,760.876,547.152,757.769z"/>
<path opacity="0.2" fill="#FFFFFF" d="M620.937,687.229l-33.936-21.064c-3.377-2.097-7.814-1.059-9.911,2.319l-30.159,48.581
	L620.937,687.229z"/>
<path fill="#3E3D40" d="M591.85,680.096c-0.495,0.794-0.251,1.841,0.547,2.334l12.177,7.56c0.797,0.495,1.842,0.248,2.337-0.547l0,0
	c0.493-0.796,0.248-1.841-0.547-2.336l-12.179-7.56C593.389,679.054,592.343,679.299,591.85,680.096L591.85,680.096z"/>
<path fill="#58585A" d="M592.438,680.462c-0.303,0.486-0.153,1.13,0.336,1.435l12.026,7.466c0.491,0.306,1.135,0.152,1.438-0.336
	l0,0c0.304-0.489,0.154-1.132-0.337-1.437l-12.026-7.466C593.385,679.819,592.743,679.971,592.438,680.462L592.438,680.462z"/>
<g>
	<g>
		
			<image overflow="visible" opacity="0.3" width="310" height="382" xlink:href="8534BAF8.png"  transform="matrix(0.1998 0 0 0.1998 439.0215 717.125)">
		</image>
		<g>
			<g>
				<path fill="#D9DADB" d="M449.71,758.472c0,0-6.778-12.729-8.746-18.291c-3.31-9.348,0.851-13.075,11.458-18.601
					c5.411-2.816,14.728-8.097,22.02,3.859c4.014,6.583,8.698,15.609,14.692,27.118c5.204,9.99,15.071,22.945-2.679,32.19
					c-17.748,9.244-21.882,2.671-28.307-9.666C455.997,770.952,449.784,759.43,449.71,758.472z"/>
				<path fill="#ECEDED" d="M440.023,732.817c0.875-4.499,5.117-7.444,12.398-11.237c5.411-2.816,14.728-8.097,22.02,3.859
					c4.014,6.583,8.698,15.609,14.692,27.118c2.589,4.971,6.332,10.674,7.256,16.289c0,0-11.106-20.955-34.443-33.066
					C450.929,730.063,440.023,732.817,440.023,732.817z"/>
			</g>
		</g>
	</g>
</g>
<g>
	<g>
		
			<image overflow="visible" opacity="0.3" width="265" height="258" xlink:href="8534BAF9.png"  transform="matrix(0.1233 0 0 0.1233 251.5117 534.2598)">
		</image>
		<g>
			<rect x="251.512" y="534.26" fill="#EFDB65" width="29.519" height="28.684"/>
		</g>
	</g>
</g>
<g>
	<g>
		
			<image overflow="visible" opacity="0.3" width="325" height="320" xlink:href="8534BAFF.png"  transform="matrix(0.1233 0 0 0.1233 259.3911 539.6787)">
		</image>
		<g>
			
				<rect x="263.074" y="543.51" transform="matrix(0.952 -0.3062 0.3062 0.952 -157.4765 111.875)" fill="#FAEB74" width="29.519" height="28.683"/>
		</g>
	</g>
</g>
<text transform="matrix(0.8096 0.587 -0.587 0.8096 461.6182 627.5449)" fill="#FFFFFF" font-family="'ArialMT'" font-size="3.3298">SALESBOOK</text>
<g>
	<g>
		
			<image overflow="visible" opacity="0.3" width="482" height="482" xlink:href="8534BAFA.png"  transform="matrix(0.1471 -0.0757 0.0757 0.1471 619.4404 605.4775)">
		</image>
		<g>
			<g>
				<g>
					<g>
						<path fill="#FFFFFF" d="M689.079,588.838c-18.357-9.873-41.244-2.998-51.117,15.357c-9.876,18.357-3.002,41.242,15.354,51.119
							c18.356,9.873,41.243,2.999,51.118-15.357S707.435,598.716,689.079,588.838z M669.169,625.909
							c-2.104-1.133-2.897-3.768-1.764-5.874c1.131-2.104,3.767-2.897,5.871-1.764c2.108,1.133,2.898,3.768,1.768,5.874
							C673.909,626.251,671.274,627.043,669.169,625.909z"/>
					</g>
				</g>
				<g>
					<g>
						<g>
							<path fill="#322B2C" d="M688.507,589.902c-17.77-9.561-39.924-2.904-49.482,14.866c-9.56,17.768-2.904,39.922,14.865,49.481
								c17.769,9.561,39.924,2.905,49.482-14.865C712.931,621.616,706.276,599.463,688.507,589.902z M668.707,626.705
								c-2.552-1.373-3.511-4.568-2.138-7.118c1.373-2.553,4.566-3.513,7.119-2.14c2.552,1.373,3.511,4.567,2.138,7.119
								C674.454,627.117,671.26,628.078,668.707,626.705z"/>
						</g>
					</g>
				</g>
			</g>
		</g>
	</g>
</g>
<g>
	<g>
		
			<image overflow="visible" opacity="0.3" width="482" height="482" xlink:href="8534BAFB.png"  transform="matrix(0.1471 -0.0757 0.0757 0.1471 571.7861 579.8398)">
		</image>
		<g>
			<g>
				<g>
					<g>
						<path fill="#FFFFFF" d="M641.425,563.203c-18.357-9.875-41.243-3-51.119,15.356c-9.875,18.355-3,41.241,15.356,51.118
							c18.358,9.874,41.243,2.998,51.119-15.356C666.655,595.965,659.78,573.079,641.425,563.203z M621.514,600.271
							c-2.105-1.131-2.897-3.767-1.764-5.872c1.131-2.106,3.768-2.897,5.873-1.764c2.106,1.134,2.897,3.768,1.764,5.872
							C626.255,600.614,623.62,601.404,621.514,600.271z"/>
					</g>
				</g>
				<g>
					<g>
						<g>
							<g>
								<path fill="#57917B" d="M640.853,564.266c-17.771-9.561-39.925-2.904-49.484,14.864
									c-9.559,17.77-2.903,39.925,14.867,49.482c17.769,9.561,39.922,2.905,49.483-14.864
									C665.276,595.979,658.621,573.824,640.853,564.266z M621.053,601.068c-2.553-1.372-3.512-4.566-2.139-7.119
									s4.567-3.512,7.119-2.138c2.552,1.372,3.512,4.565,2.14,7.118C626.8,601.481,623.605,602.441,621.053,601.068z"/>
							</g>
						</g>
					</g>
				</g>
			</g>
		</g>
	</g>
</g>
<text transform="matrix(1 0 0 1 612.9814 613.8584)" fill="#FFFFFF" font-family="'ArialMT'" font-size="4.625">MEDICO</text>
<text transform="matrix(1 0 0 1 665.8799 639.792)" fill="#FFFFFF" font-family="'ArialMT'" font-size="4.625">CRM</text>
<g>
	<path fill="#2F2F2F" d="M82.955,712.978c-1.176,1.841-3.622,2.38-5.462,1.206l-45.339-28.94c-1.841-1.174-2.381-3.618-1.206-5.46
		l45.536-71.343c1.175-1.841,3.62-2.38,5.461-1.204l45.339,28.938c1.841,1.175,2.381,3.62,1.206,5.461L82.955,712.978z"/>
</g>
<g>
	
		<rect x="52.062" y="675.709" transform="matrix(0.8429 0.538 -0.538 0.8429 378.2791 72.6451)" fill="#141414" width="25.312" height="17.007"/>
</g>
<g>
	<path fill="#141414" d="M71.376,616.442l5.108-8.002c1.175-1.841,3.62-2.38,5.461-1.204l45.339,28.938
		c1.841,1.175,2.381,3.62,1.206,5.461l-5.107,8.002L71.376,616.442z"/>
</g>
<polyline fill="none" points="52.307,682.468 56.914,675.245 75.917,687.373 71.307,694.598 "/>
<g>
	<path fill="#141414" d="M151.937,533.402l-58.629-37.418c-7.287-4.652-17-2.509-21.651,4.778
		c-4.651,7.288-2.507,17.003,4.78,21.653L128.12,555.4c8.411,5.366,10.884,16.572,5.516,24.981l-33.093,51.85l-2.033-1.296
		l33.094-51.851c4.616-7.232,2.54-16.852-4.614-21.543l-0.001,0.001L75.139,524.45c-8.409-5.369-10.883-16.577-5.516-24.985
		c5.366-8.409,16.574-10.883,24.983-5.516l58.63,37.42L151.937,533.402z"/>
</g>
<g>
	<g>
		
			<rect x="165.408" y="539.513" transform="matrix(-0.8429 -0.538 0.538 -0.8429 21.1021 1093.4717)" fill="#ECEDED" width="9.492" height="8.286"/>
		
			<rect x="167.779" y="543.93" transform="matrix(-0.8426 -0.5385 0.5385 -0.8426 17.5126 1094.7356)" fill="#1A171B" width="1.908" height="1.756"/>
		
			<rect x="169.751" y="540.84" transform="matrix(-0.8429 -0.5381 0.5381 -0.8429 23.1211 1090.1888)" fill="#1A171B" width="1.908" height="1.758"/>
	</g>
	<g>
		
			<rect x="150.598" y="531.46" transform="matrix(0.8429 0.5381 -0.5381 0.8429 311.4061 0.729)" fill="#141414" width="7.713" height="4.35"/>
	</g>
	<g>
		
			<rect x="155.892" y="533.192" transform="matrix(0.8428 0.5382 -0.5382 0.8428 315.2879 -2.6153)" fill="#141414" width="12.459" height="10.677"/>
	</g>
</g>
</svg>
