<?xml version="1.0" encoding="utf-8"?>
<!-- Generator: Adobe Illustrator 15.0.0, SVG Export Plug-In . SVG Version: 6.00 Build 0)  -->
<!DOCTYPE svg PUBLIC "-//W3C//DTD SVG 1.1//EN" "http://www.w3.org/Graphics/SVG/1.1/DTD/svg11.dtd">
<svg version="1.1" id="Layer_1" xmlns="http://www.w3.org/2000/svg" xmlns:xlink="http://www.w3.org/1999/xlink" x="0px" y="0px"
	 width="320px" height="640px" viewBox="0 0 320 640" enable-background="new 0 0 320 640" xml:space="preserve">
<g>
	<g>
		<g>
			<path fill="#F6F6F6" d="M182.435,361.518c0,4.637-3.643,8.396-8.134,8.396h-42.829c-4.491,0-8.132-3.76-8.132-8.396l4.066-17.074
				c0-4.639,3.141-8.398,7.013-8.398h36.936c3.873,0,7.014,3.76,7.014,8.398L182.435,361.518z"/>
			<g>
				<path fill="#E3E3E3" d="M159.096,342.979h110.8c1.939,0,4.886-1.463,5.616-3.512l31.173-83.719c0-1.939-2.972-8.549-4.911-8.549
					l-288.574,0c-1.938,0-4.91,6.61-4.91,8.549l31.173,83.719c0.731,2.049,3.677,3.512,5.617,3.512h113.228H159.096z"/>
			</g>
			<g>
				<path fill="#1A171B" d="M159.054,341.332h111.753c1.889,0,4.758-1.406,5.471-3.375l30.09-80.699c0-1.864-1.53-3.375-3.419-3.375
					H159.938h-1.653H12.026c-1.89,0-3.42,1.511-3.42,3.375l30.091,80.699c0.712,1.969,3.583,3.375,5.471,3.375h114.118H159.054z"/>
			</g>
			<polygon fill="#3E3D40" points="269.53,325.443 44.742,325.443 24.438,264.503 289.834,264.503 			"/>
			<g>
				<path fill="#C6C7C8" d="M35.95,330.984l3.376,8.482c0.732,2.049,3.683,3.512,5.624,3.512h113.37h0.79h110.938
					c1.941,0,4.892-1.463,5.624-3.512l3.377-8.482H35.95z"/>
			</g>
			<polygon opacity="0.2" fill="#FFFFFF" points="84.448,326.283 44.742,326.283 24.438,265.343 140.286,265.343 			"/>
		</g>
		<g>
			<polygon fill="#FAEB74" points="73.221,346.363 56.029,346.363 52.873,334.955 74.516,334.955 			"/>
		</g>
	</g>
</g>
<g>
	<g>
		<g>
			<g>
				<path fill="#3D3938" d="M228.7,420.461l-3.683,3.35c-0.707,1.078-2.153,1.379-3.23,0.674l-38.377-25.156
					c-1.078-0.705-1.379-2.152-0.673-3.23l1.604-4.715l5.793-4.014l39.677,26.008L228.7,420.461z"/>
			</g>
			<g>
				<polygon fill="#554E4D" points="184.341,391.383 190.134,387.369 229.811,413.377 228.7,420.461 				"/>
			</g>
		</g>
		<g>
			<g>
				<g>
					<path fill="#FFFFFF" d="M193.081,426.051c11.005,7.215,25.776,4.141,32.989-6.867c7.214-11.004,4.141-25.771-6.864-32.988
						c-11.007-7.213-25.776-4.139-32.991,6.865C179.002,404.066,182.074,418.836,193.081,426.051z M207.63,403.824
						c1.263,0.826,1.616,2.529,0.789,3.791c-0.828,1.262-2.528,1.615-3.79,0.787c-1.264-0.828-1.619-2.525-0.791-3.789
						S206.365,402.996,207.63,403.824z"/>
				</g>
			</g>
			<g>
				<g>
					<g>
						<path fill="#F0A808" d="M193.498,425.412c10.653,6.986,24.951,4.01,31.937-6.645c6.982-10.652,4.007-24.951-6.647-31.936
							c-10.653-6.984-24.951-4.008-31.935,6.646S182.844,418.43,193.498,425.412z M207.963,403.348
							c1.529,1.004,1.959,3.064,0.956,4.594c-1.005,1.531-3.064,1.961-4.596,0.955c-1.528-1-1.959-3.061-0.956-4.594
							C204.371,402.775,206.432,402.346,207.963,403.348z"/>
					</g>
				</g>
			</g>
		</g>
		<g>
			<polygon fill="#FFFFFF" points="184.341,391.383 189.478,390.287 227.577,415.262 228.7,420.461 258.973,374.279 
				214.612,345.203 			"/>
		</g>
	</g>
</g>
<rect x="160.593" y="397.795" transform="matrix(-0.9842 -0.1768 0.1768 -0.9842 253.9022 823.5491)" fill="#ECEDED" width="6.108" height="5.332"/>
<polygon fill="#1A171B" points="141.615,391.229 160.859,394.689 161.663,396.793 160.528,403.102 159.022,404.9 139.777,401.439 
	"/>
<rect x="162.461" y="400.974" transform="matrix(-0.9843 -0.1765 0.1765 -0.9843 252.7148 825.5594)" fill="#1A171B" width="1.228" height="1.131"/>
<rect x="162.879" y="398.652" transform="matrix(-0.9843 -0.1766 0.1766 -0.9843 253.8949 821.0378)" fill="#1A171B" width="1.227" height="1.131"/>
<path fill="#ECEDED" d="M141.969,400.121c-1.418-2.041-0.915-4.846,1.126-6.266c2.041-1.416,4.846-0.912,6.265,1.127l13.604,19.596
	l-7.341,5.104L141.969,400.121z"/>
<circle fill="#1A171B" cx="145.651" cy="397.624" r="2.747"/>
<text transform="matrix(0.9698 0.2437 -0.2437 0.9698 76.4585 337.502)" fill="#58585A" font-family="'Arimo'" font-size="0.0281">8 GB</text>
<g>
	<g>
		
			<rect x="114.397" y="388.527" transform="matrix(0.8856 -0.4645 0.4645 0.8856 -168.4704 99.7082)" fill="#F6F6F6" width="7.489" height="6.537"/>
		
			<rect x="117.13" y="389.628" transform="matrix(0.8855 -0.4646 0.4646 0.8855 -167.8644 99.468)" fill="#1A171B" width="1.505" height="1.387"/>
		
			<rect x="118.473" y="392.187" transform="matrix(0.885 -0.4657 0.4657 0.885 -169.2361 100.7165)" fill="#1A171B" width="1.506" height="1.389"/>
		<g>
			<path fill="#F7B93C" d="M103.509,406.143c-2.863,1.502-6.399,0.398-7.9-2.463c-1.501-2.863-0.4-6.4,2.464-7.902l14.699-7.74
				l5.521,10.391L103.509,406.143z"/>
		</g>
		<g>
			<path fill="#F7B93C" d="M128.443,379.957c2.863-1.5,6.4-0.395,7.901,2.465c1.502,2.865,0.399,6.402-2.464,7.904l-2.955,1.537
				l-5.452-10.332L128.443,379.957z"/>
		</g>
	</g>
</g>
<g>
	<path fill="#C6C7C8" d="M213.571,511.104c-0.187,2.297-2.201,4.008-4.499,3.824l-150.364-12.17
		c-2.298-0.188-4.01-2.201-3.823-4.498l5.083-62.797c0.185-2.297,2.199-4.008,4.498-3.822l150.364,12.17
		c2.298,0.186,4.01,2.199,3.822,4.496L213.571,511.104z"/>
</g>
<g>
	<path fill="#FFFFFF" d="M73.899,445.83c-0.022,0.277-0.264,0.484-0.541,0.463l-8.394-0.68c-0.277-0.021-0.483-0.266-0.461-0.541
		l0.385-4.762c0.022-0.275,0.265-0.482,0.542-0.461l8.394,0.682c0.277,0.021,0.483,0.264,0.46,0.541L73.899,445.83z"/>
</g>
<g>
	<path fill="#FFFFFF" d="M73.105,455.645c-0.022,0.277-0.264,0.484-0.542,0.461l-8.393-0.68c-0.277-0.023-0.484-0.264-0.462-0.543
		l0.611-7.535c0.022-0.279,0.265-0.484,0.543-0.461l8.393,0.68c0.277,0.02,0.482,0.266,0.46,0.541L73.105,455.645z"/>
</g>
<g>
	<path fill="#FFFFFF" d="M69.192,497.758c-0.021,0.277-0.265,0.482-0.542,0.461l-7.891-0.639c-0.277-0.023-0.483-0.266-0.46-0.543
		L61.03,488c0.022-0.279,0.265-0.484,0.542-0.463l7.891,0.641c0.278,0.021,0.484,0.262,0.462,0.541L69.192,497.758z"/>
</g>
<g>
	<path fill="#FFFFFF" d="M79.632,498.602c-0.022,0.279-0.264,0.486-0.542,0.463l-7.893-0.639c-0.276-0.023-0.482-0.266-0.46-0.543
		l0.732-9.039c0.023-0.277,0.265-0.482,0.542-0.461l7.893,0.639c0.278,0.021,0.484,0.264,0.461,0.543L79.632,498.602z"/>
</g>
<g>
	<path fill="#FFFFFF" d="M90.072,499.447c-0.023,0.277-0.265,0.484-0.542,0.461l-7.892-0.639c-0.276-0.021-0.483-0.266-0.46-0.541
		l0.731-9.037c0.021-0.281,0.265-0.486,0.542-0.463l7.892,0.637c0.276,0.023,0.483,0.266,0.46,0.543L90.072,499.447z"/>
</g>
<g>
	<path fill="#FFFFFF" d="M177.638,506.535c-0.023,0.277-0.266,0.482-0.542,0.461l-7.893-0.639c-0.274-0.021-0.484-0.264-0.461-0.543
		l0.733-9.037c0.02-0.279,0.264-0.484,0.54-0.463l7.894,0.639c0.276,0.023,0.481,0.266,0.46,0.543L177.638,506.535z"/>
</g>
<g>
	<path fill="#FFFFFF" d="M188.035,507.379c-0.023,0.275-0.266,0.48-0.541,0.459l-7.895-0.639c-0.276-0.021-0.481-0.266-0.458-0.541
		l0.302-3.736c0.023-0.277,0.264-0.484,0.54-0.461l7.893,0.637c0.276,0.025,0.484,0.266,0.463,0.543L188.035,507.379z"/>
</g>
<g>
	<path fill="#FFFFFF" d="M208.831,509.061c-0.021,0.277-0.267,0.482-0.543,0.461l-7.891-0.637c-0.278-0.023-0.485-0.268-0.462-0.545
		l0.302-3.736c0.023-0.275,0.266-0.484,0.542-0.461l7.893,0.639c0.276,0.023,0.482,0.266,0.459,0.541L208.831,509.061z"/>
</g>
<g>
	<path fill="#FFFFFF" d="M198.434,508.219c-0.021,0.277-0.266,0.482-0.542,0.461l-7.893-0.639c-0.278-0.021-0.482-0.266-0.459-0.541
		l0.729-9.041c0.023-0.277,0.266-0.482,0.542-0.461l7.891,0.641c0.278,0.021,0.484,0.264,0.463,0.541L198.434,508.219z"/>
</g>
<g>
	<path fill="#FFFFFF" d="M103.1,500.502c-0.022,0.279-0.264,0.484-0.541,0.461l-10.398-0.84c-0.276-0.023-0.482-0.266-0.46-0.543
		l0.732-9.039c0.022-0.279,0.265-0.484,0.542-0.461l10.398,0.842c0.276,0.021,0.482,0.264,0.46,0.541L103.1,500.502z"/>
</g>
<g>
	<path fill="#FFFFFF" d="M166.738,505.654c-0.023,0.277-0.266,0.482-0.542,0.461l-10.397-0.844
		c-0.277-0.023-0.482-0.264-0.459-0.541l0.731-9.037c0.022-0.281,0.265-0.486,0.542-0.463l10.398,0.842
		c0.278,0.023,0.483,0.264,0.46,0.541L166.738,505.654z"/>
</g>
<g>
	<path fill="#FFFFFF" d="M154.253,504.643c-0.021,0.277-0.265,0.484-0.542,0.463l-48.522-3.926
		c-0.276-0.025-0.483-0.268-0.461-0.545l0.731-9.041c0.023-0.275,0.266-0.482,0.543-0.459l48.522,3.928
		c0.277,0.02,0.483,0.264,0.46,0.541L154.253,504.643z"/>
</g>
<g>
	<path fill="#FFFFFF" d="M83.628,456.496c-0.022,0.277-0.264,0.482-0.542,0.463l-8.393-0.682c-0.277-0.021-0.483-0.266-0.461-0.543
		l0.611-7.535c0.022-0.275,0.265-0.482,0.541-0.461l8.393,0.68c0.278,0.021,0.484,0.266,0.461,0.541L83.628,456.496z"/>
</g>
<g>
	<path fill="#FFFFFF" d="M87.378,467.029c-0.021,0.277-0.265,0.482-0.542,0.459l-8.393-0.678c-0.277-0.023-0.483-0.268-0.46-0.543
		l0.61-7.535c0.023-0.277,0.265-0.482,0.542-0.461l8.393,0.68c0.277,0.023,0.483,0.262,0.461,0.541L87.378,467.029z"/>
</g>
<g>
	<path fill="#FFFFFF" d="M97.901,467.881c-0.022,0.277-0.264,0.484-0.542,0.461l-8.393-0.678c-0.278-0.023-0.484-0.268-0.46-0.543
		l0.61-7.537c0.023-0.277,0.264-0.482,0.541-0.459l8.394,0.676c0.277,0.025,0.483,0.268,0.461,0.543L97.901,467.881z"/>
</g>
<g>
	<path fill="#FFFFFF" d="M108.3,468.725c-0.023,0.275-0.266,0.482-0.543,0.459l-8.393-0.68c-0.278-0.021-0.484-0.266-0.462-0.541
		l0.61-7.537c0.023-0.277,0.266-0.482,0.542-0.459l8.394,0.678c0.276,0.023,0.482,0.264,0.46,0.543L108.3,468.725z"/>
</g>
<g>
	<path fill="#FFFFFF" d="M118.697,469.564c-0.023,0.277-0.265,0.482-0.542,0.463l-8.394-0.682c-0.278-0.023-0.482-0.266-0.46-0.543
		l0.61-7.535c0.022-0.279,0.264-0.484,0.542-0.461l8.392,0.678c0.278,0.025,0.483,0.266,0.461,0.543L118.697,469.564z"/>
</g>
<g>
	<path fill="#FFFFFF" d="M128.969,470.395c-0.022,0.279-0.264,0.484-0.542,0.463l-8.392-0.68c-0.277-0.023-0.484-0.266-0.461-0.543
		l0.61-7.537c0.023-0.275,0.265-0.48,0.542-0.461l8.393,0.682c0.278,0.021,0.484,0.264,0.461,0.539L128.969,470.395z"/>
</g>
<g>
	<path fill="#FFFFFF" d="M139.115,471.217c-0.021,0.279-0.264,0.484-0.541,0.461l-8.395-0.68c-0.276-0.023-0.481-0.264-0.458-0.541
		l0.61-7.537c0.022-0.277,0.265-0.48,0.541-0.461l8.394,0.68c0.277,0.021,0.482,0.264,0.46,0.541L139.115,471.217z"/>
</g>
<g>
	<path fill="#FFFFFF" d="M149.702,472.072c-0.023,0.277-0.266,0.486-0.542,0.461l-8.395-0.678c-0.276-0.025-0.481-0.266-0.459-0.543
		l0.61-7.535c0.022-0.279,0.265-0.482,0.542-0.463l8.393,0.68c0.277,0.023,0.483,0.268,0.461,0.543L149.702,472.072z"/>
</g>
<g>
	<path fill="#FFFFFF" d="M159.85,472.895c-0.022,0.279-0.266,0.482-0.542,0.463l-8.392-0.682c-0.277-0.021-0.483-0.264-0.46-0.543
		l0.61-7.533c0.022-0.279,0.264-0.484,0.542-0.463l8.392,0.678c0.278,0.025,0.483,0.266,0.461,0.543L159.85,472.895z"/>
</g>
<g>
	<path fill="#FFFFFF" d="M170.245,473.736c-0.021,0.277-0.264,0.482-0.541,0.461l-8.393-0.68c-0.276-0.021-0.482-0.266-0.46-0.541
		l0.609-7.537c0.023-0.277,0.266-0.482,0.542-0.461l8.393,0.68c0.277,0.021,0.482,0.266,0.461,0.543L170.245,473.736z"/>
</g>
<g>
	<path fill="#FFFFFF" d="M180.27,474.549c-0.025,0.275-0.268,0.482-0.544,0.459l-8.394-0.68c-0.274-0.02-0.481-0.264-0.458-0.541
		l0.609-7.537c0.021-0.277,0.266-0.48,0.54-0.461l8.396,0.68c0.274,0.023,0.482,0.264,0.458,0.545L180.27,474.549z"/>
</g>
<g>
	<path fill="#FFFFFF" d="M190.789,475.4c-0.021,0.277-0.264,0.48-0.54,0.459l-8.392-0.678c-0.278-0.023-0.483-0.264-0.462-0.543
		l0.609-7.537c0.021-0.275,0.266-0.482,0.542-0.459l8.394,0.678c0.276,0.021,0.484,0.264,0.459,0.541L190.789,475.4z"/>
</g>
<g>
	<path fill="#FFFFFF" d="M201.253,476.246c-0.023,0.279-0.267,0.482-0.543,0.459l-8.393-0.678c-0.278-0.023-0.484-0.264-0.463-0.541
		l0.609-7.537c0.025-0.277,0.269-0.482,0.543-0.461l8.395,0.68c0.276,0.021,0.482,0.264,0.461,0.541L201.253,476.246z"/>
</g>
<g>
	<path fill="#FFFFFF" d="M89.068,477.314c-0.022,0.279-0.266,0.486-0.542,0.463l-8.394-0.682c-0.276-0.021-0.482-0.264-0.46-0.539
		l0.61-7.537c0.023-0.277,0.264-0.482,0.542-0.461l8.394,0.68c0.277,0.023,0.483,0.266,0.46,0.541L89.068,477.314z"/>
</g>
<g>
	<path fill="#FFFFFF" d="M99.59,478.168c-0.022,0.277-0.264,0.482-0.541,0.461l-8.395-0.68c-0.276-0.021-0.482-0.266-0.459-0.541
		l0.61-7.537c0.021-0.277,0.264-0.484,0.541-0.461l8.395,0.682c0.276,0.02,0.482,0.262,0.459,0.539L99.59,478.168z"/>
</g>
<g>
	<path fill="#FFFFFF" d="M109.989,479.01c-0.022,0.275-0.265,0.48-0.542,0.461l-8.394-0.682c-0.277-0.021-0.483-0.264-0.46-0.541
		l0.61-7.535c0.022-0.277,0.264-0.482,0.541-0.461l8.395,0.68c0.277,0.023,0.483,0.264,0.46,0.541L109.989,479.01z"/>
</g>
<g>
	<path fill="#FFFFFF" d="M120.386,479.854c-0.022,0.275-0.266,0.479-0.542,0.457l-8.393-0.678c-0.277-0.023-0.483-0.266-0.461-0.541
		l0.609-7.539c0.023-0.275,0.265-0.482,0.542-0.459l8.394,0.68c0.276,0.021,0.482,0.264,0.46,0.541L120.386,479.854z"/>
</g>
<g>
	<path fill="#FFFFFF" d="M130.658,480.684c-0.022,0.275-0.265,0.48-0.542,0.459l-8.393-0.68c-0.277-0.021-0.483-0.264-0.461-0.539
		l0.611-7.539c0.023-0.275,0.265-0.48,0.541-0.459l8.394,0.678c0.277,0.023,0.482,0.266,0.46,0.543L130.658,480.684z"/>
</g>
<g>
	<path fill="#FFFFFF" d="M140.806,481.504c-0.022,0.277-0.265,0.482-0.541,0.461l-8.394-0.682c-0.277-0.021-0.483-0.262-0.46-0.539
		l0.609-7.537c0.023-0.275,0.266-0.482,0.543-0.459l8.394,0.678c0.277,0.023,0.482,0.266,0.459,0.539L140.806,481.504z"/>
</g>
<g>
	<path fill="#FFFFFF" d="M151.392,482.361c-0.023,0.277-0.264,0.482-0.542,0.463l-8.395-0.682c-0.276-0.023-0.482-0.266-0.46-0.543
		l0.611-7.535c0.022-0.277,0.264-0.484,0.541-0.461l8.393,0.68c0.278,0.023,0.483,0.264,0.461,0.541L151.392,482.361z"/>
</g>
<g>
	<path fill="#FFFFFF" d="M161.537,483.182c-0.021,0.275-0.264,0.484-0.54,0.461l-8.396-0.68c-0.277-0.021-0.482-0.266-0.459-0.541
		l0.61-7.537c0.021-0.277,0.264-0.482,0.542-0.461l8.393,0.68c0.277,0.023,0.482,0.264,0.461,0.543L161.537,483.182z"/>
</g>
<g>
	<path fill="#FFFFFF" d="M171.938,484.023c-0.023,0.277-0.266,0.484-0.542,0.461l-8.395-0.678c-0.277-0.023-0.483-0.266-0.461-0.545
		l0.609-7.537c0.022-0.277,0.266-0.48,0.542-0.459l8.394,0.68c0.278,0.021,0.483,0.264,0.462,0.543L171.938,484.023z"/>
</g>
<g>
	<path fill="#FFFFFF" d="M181.959,484.836c-0.021,0.275-0.267,0.482-0.543,0.459l-8.393-0.68c-0.276-0.02-0.484-0.264-0.461-0.541
		l0.611-7.535c0.021-0.277,0.265-0.482,0.541-0.459l8.393,0.678c0.276,0.021,0.482,0.262,0.461,0.539L181.959,484.836z"/>
</g>
<g>
	<path fill="#FFFFFF" d="M192.48,485.688c-0.023,0.277-0.262,0.482-0.541,0.459l-8.395-0.678c-0.276-0.021-0.482-0.268-0.459-0.543
		l0.608-7.537c0.022-0.275,0.268-0.48,0.542-0.459l8.393,0.68c0.277,0.021,0.484,0.264,0.463,0.541L192.48,485.688z"/>
</g>
<g>
	<path fill="#FFFFFF" d="M202.941,486.533c-0.021,0.277-0.266,0.484-0.542,0.461l-8.394-0.68c-0.278-0.021-0.482-0.264-0.46-0.541
		l0.609-7.537c0.023-0.277,0.264-0.482,0.542-0.461l8.394,0.68c0.278,0.021,0.483,0.266,0.46,0.541L202.941,486.533z"/>
</g>
<g>
	<path fill="#FFFFFF" d="M83.564,487.148c-0.022,0.277-0.265,0.48-0.542,0.459l-8.393-0.678c-0.277-0.023-0.483-0.266-0.46-0.539
		l0.609-7.541c0.023-0.277,0.266-0.482,0.542-0.459l8.394,0.678c0.276,0.021,0.481,0.266,0.46,0.543L83.564,487.148z"/>
</g>
<g>
	<path fill="#FFFFFF" d="M94.086,488c-0.022,0.275-0.264,0.482-0.541,0.461l-8.394-0.682c-0.276-0.021-0.483-0.264-0.46-0.539
		l0.61-7.537c0.022-0.277,0.265-0.484,0.542-0.463l8.395,0.682c0.277,0.023,0.482,0.264,0.459,0.541L94.086,488z"/>
</g>
<g>
	<path fill="#FFFFFF" d="M104.485,488.842c-0.022,0.273-0.266,0.482-0.542,0.459l-8.394-0.68c-0.277-0.021-0.484-0.266-0.46-0.539
		l0.609-7.539c0.023-0.275,0.266-0.482,0.543-0.461l8.392,0.68c0.277,0.023,0.484,0.266,0.462,0.543L104.485,488.842z"/>
</g>
<g>
	<path fill="#FFFFFF" d="M114.882,489.684c-0.021,0.275-0.264,0.482-0.541,0.459l-8.393-0.678c-0.279-0.023-0.483-0.266-0.461-0.541
		l0.61-7.537c0.022-0.277,0.263-0.484,0.541-0.463l8.394,0.682c0.277,0.02,0.483,0.264,0.461,0.541L114.882,489.684z"/>
</g>
<g>
	<path fill="#FFFFFF" d="M125.155,490.514c-0.022,0.275-0.264,0.484-0.542,0.461l-8.393-0.678c-0.277-0.023-0.483-0.266-0.461-0.543
		l0.61-7.537c0.023-0.277,0.265-0.482,0.542-0.461l8.393,0.68c0.278,0.021,0.484,0.266,0.462,0.541L125.155,490.514z"/>
</g>
<g>
	<path fill="#FFFFFF" d="M135.302,491.334c-0.022,0.277-0.265,0.484-0.542,0.463l-8.393-0.68c-0.278-0.023-0.484-0.266-0.461-0.543
		l0.61-7.537c0.023-0.275,0.265-0.482,0.543-0.459l8.392,0.678c0.277,0.021,0.484,0.266,0.461,0.543L135.302,491.334z"/>
</g>
<g>
	<path fill="#FFFFFF" d="M145.887,492.193c-0.023,0.275-0.264,0.482-0.542,0.461l-8.394-0.682c-0.275-0.021-0.481-0.264-0.46-0.543
		l0.61-7.535c0.022-0.277,0.265-0.482,0.542-0.459l8.393,0.678c0.278,0.023,0.484,0.266,0.461,0.541L145.887,492.193z"/>
</g>
<g>
	<path fill="#FFFFFF" d="M156.035,493.014c-0.022,0.279-0.265,0.482-0.542,0.461l-8.395-0.68c-0.276-0.023-0.481-0.266-0.458-0.541
		l0.61-7.537c0.021-0.277,0.263-0.484,0.541-0.463l8.394,0.682c0.276,0.021,0.483,0.264,0.46,0.541L156.035,493.014z"/>
</g>
<g>
	<path fill="#FFFFFF" d="M166.432,493.855c-0.021,0.277-0.266,0.482-0.54,0.461l-8.395-0.68c-0.277-0.023-0.482-0.266-0.459-0.541
		l0.61-7.537c0.022-0.277,0.264-0.486,0.541-0.463l8.395,0.682c0.276,0.021,0.481,0.264,0.46,0.541L166.432,493.855z"/>
</g>
<g>
	<path fill="#FFFFFF" d="M176.455,494.666c-0.021,0.277-0.266,0.482-0.545,0.461l-8.391-0.678c-0.278-0.025-0.484-0.268-0.461-0.543
		l0.609-7.537c0.023-0.275,0.267-0.482,0.543-0.461l8.393,0.68c0.276,0.021,0.482,0.266,0.461,0.543L176.455,494.666z"/>
</g>
<g>
	<path fill="#FFFFFF" d="M186.979,495.52c-0.023,0.273-0.266,0.48-0.545,0.459l-8.391-0.68c-0.276-0.023-0.484-0.266-0.461-0.539
		l0.609-7.537c0.021-0.279,0.265-0.484,0.543-0.463l8.393,0.68c0.275,0.021,0.482,0.266,0.461,0.543L186.979,495.52z"/>
</g>
<g>
	<path fill="#FFFFFF" d="M209.63,497.352c-0.021,0.277-0.264,0.482-0.542,0.461l-20.461-1.656c-0.277-0.021-0.482-0.264-0.461-0.543
		l0.611-7.537c0.023-0.275,0.264-0.48,0.541-0.459l20.46,1.656c0.277,0.021,0.484,0.266,0.461,0.541L209.63,497.352z"/>
</g>
<g>
	<path fill="#FFFFFF" d="M210.567,487.281c-0.021,0.277-0.266,0.482-0.54,0.461l-5.56-0.451c-0.278-0.021-0.484-0.264-0.461-0.539
		l1.009-12.48c0.023-0.277,0.266-0.482,0.544-0.459l5.559,0.449c0.276,0.023,0.483,0.266,0.46,0.543L210.567,487.281z"/>
</g>
<g>
	<path fill="#FFFFFF" d="M211.4,477.068c-0.023,0.277-0.266,0.482-0.545,0.461l-8.393-0.684c-0.274-0.02-0.482-0.262-0.461-0.539
		l0.611-7.535c0.021-0.279,0.267-0.486,0.541-0.461l8.393,0.678c0.279,0.021,0.486,0.266,0.463,0.543L211.4,477.068z"/>
</g>
<g>
	<path fill="#FFFFFF" d="M93.9,457.328c-0.022,0.277-0.264,0.482-0.541,0.461l-8.394-0.68c-0.277-0.021-0.483-0.266-0.46-0.541
		l0.609-7.537c0.022-0.279,0.264-0.484,0.542-0.463l8.394,0.68c0.276,0.021,0.482,0.266,0.459,0.543L93.9,457.328z"/>
</g>
<g>
	<path fill="#FFFFFF" d="M104.09,458.152c-0.022,0.277-0.266,0.482-0.542,0.461l-8.394-0.68c-0.277-0.023-0.483-0.264-0.46-0.541
		l0.61-7.537c0.022-0.277,0.265-0.484,0.542-0.461l8.394,0.68c0.276,0.021,0.482,0.266,0.46,0.541L104.09,458.152z"/>
</g>
<g>
	<path fill="#FFFFFF" d="M114.28,458.977c-0.022,0.277-0.265,0.484-0.542,0.463l-8.394-0.682c-0.276-0.021-0.483-0.264-0.461-0.543
		l0.61-7.535c0.022-0.277,0.265-0.482,0.542-0.461l8.395,0.682c0.276,0.02,0.483,0.264,0.46,0.541L114.28,458.977z"/>
</g>
<g>
	<path fill="#FFFFFF" d="M124.801,459.828c-0.021,0.275-0.264,0.484-0.54,0.461l-8.395-0.68c-0.276-0.023-0.483-0.266-0.46-0.541
		l0.61-7.537c0.022-0.277,0.265-0.482,0.541-0.461l8.394,0.68c0.275,0.021,0.483,0.266,0.46,0.539L124.801,459.828z"/>
</g>
<g>
	<path fill="#FFFFFF" d="M134.99,460.652c-0.022,0.277-0.264,0.484-0.541,0.463l-8.394-0.682c-0.276-0.021-0.482-0.264-0.459-0.541
		l0.609-7.537c0.022-0.277,0.265-0.482,0.542-0.461l8.392,0.68c0.278,0.023,0.483,0.266,0.461,0.541L134.99,460.652z"/>
</g>
<g>
	<path fill="#FFFFFF" d="M145.18,461.479c-0.023,0.277-0.266,0.482-0.543,0.459l-8.394-0.678c-0.276-0.023-0.481-0.264-0.46-0.543
		l0.611-7.535c0.022-0.277,0.266-0.482,0.541-0.463l8.394,0.68c0.277,0.023,0.483,0.268,0.461,0.543L145.18,461.479z"/>
</g>
<g>
	<path fill="#FFFFFF" d="M155.535,462.316c-0.021,0.277-0.264,0.484-0.541,0.461l-8.395-0.68c-0.276-0.023-0.483-0.266-0.46-0.541
		l0.609-7.539c0.023-0.273,0.266-0.48,0.542-0.461l8.394,0.682c0.277,0.021,0.483,0.266,0.46,0.543L155.535,462.316z"/>
</g>
<g>
	<path fill="#FFFFFF" d="M165.807,463.148c-0.021,0.275-0.264,0.48-0.54,0.459l-8.394-0.68c-0.277-0.021-0.483-0.264-0.461-0.539
		l0.609-7.539c0.022-0.275,0.266-0.482,0.542-0.461l8.392,0.68c0.276,0.023,0.483,0.266,0.462,0.543L165.807,463.148z"/>
</g>
<g>
	<path fill="#FFFFFF" d="M176.163,463.988c-0.021,0.273-0.266,0.48-0.541,0.459l-8.392-0.678c-0.278-0.025-0.485-0.266-0.464-0.543
		l0.612-7.537c0.023-0.277,0.264-0.484,0.54-0.461l8.396,0.678c0.276,0.023,0.481,0.268,0.458,0.543L176.163,463.988z"/>
</g>
<g>
	<path fill="#FFFFFF" d="M186.604,464.832c-0.023,0.273-0.266,0.482-0.542,0.459l-8.394-0.678c-0.278-0.021-0.485-0.266-0.46-0.543
		l0.609-7.537c0.023-0.277,0.264-0.482,0.542-0.461l8.394,0.68c0.276,0.023,0.483,0.266,0.46,0.543L186.604,464.832z"/>
</g>
<g>
	<path fill="#FFFFFF" d="M196.877,465.662c-0.023,0.277-0.266,0.482-0.543,0.461l-8.393-0.678c-0.276-0.023-0.483-0.268-0.463-0.543
		l0.61-7.539c0.023-0.273,0.266-0.48,0.544-0.457l8.394,0.678c0.274,0.021,0.481,0.264,0.46,0.541L196.877,465.662z"/>
</g>
<g>
	<path fill="#FFFFFF" d="M212.327,466.912c-0.021,0.277-0.264,0.484-0.54,0.463l-12.905-1.047c-0.276-0.021-0.484-0.262-0.461-0.539
		l0.609-7.537c0.023-0.277,0.267-0.482,0.543-0.461l12.905,1.045c0.274,0.02,0.481,0.264,0.458,0.541L212.327,466.912z"/>
</g>
<g>
	<path fill="#FFFFFF" d="M76.794,466.168c-0.023,0.275-0.265,0.482-0.542,0.459l-12.903-1.043c-0.277-0.023-0.483-0.264-0.461-0.541
		l0.61-7.539c0.022-0.275,0.266-0.482,0.542-0.459l12.902,1.043c0.278,0.023,0.484,0.266,0.461,0.543L76.794,466.168z"/>
</g>
<g>
	<path fill="#FFFFFF" d="M72.645,486.258c-0.022,0.277-0.265,0.484-0.542,0.461l-10.397-0.84c-0.277-0.023-0.484-0.268-0.461-0.543
		l0.61-7.537c0.022-0.277,0.265-0.482,0.542-0.461l10.398,0.842c0.277,0.023,0.483,0.266,0.46,0.543L72.645,486.258z"/>
</g>
<g>
	<path fill="#FFFFFF" d="M78.982,476.518c-0.023,0.275-0.265,0.482-0.542,0.459l-15.91-1.287c-0.277-0.023-0.483-0.264-0.46-0.541
		l0.61-7.537c0.022-0.279,0.264-0.484,0.541-0.461l15.909,1.287c0.277,0.023,0.483,0.264,0.461,0.539L78.982,476.518z"/>
</g>
<g>
	<path fill="#FFFFFF" d="M84.424,446.684c-0.023,0.275-0.266,0.482-0.542,0.463l-8.394-0.682c-0.276-0.021-0.483-0.266-0.46-0.543
		l0.385-4.76c0.023-0.277,0.265-0.484,0.542-0.461l8.393,0.682c0.278,0.021,0.483,0.264,0.461,0.541L84.424,446.684z"/>
</g>
<g>
	<path fill="#FFFFFF" d="M95.447,447.574c-0.021,0.277-0.265,0.484-0.542,0.461l-8.393-0.68c-0.276-0.021-0.483-0.266-0.46-0.541
		l0.385-4.76c0.022-0.277,0.265-0.482,0.542-0.461l8.393,0.68c0.277,0.023,0.484,0.264,0.461,0.541L95.447,447.574z"/>
</g>
<g>
	<path fill="#FFFFFF" d="M105.971,448.428c-0.022,0.275-0.266,0.482-0.542,0.461l-8.394-0.68c-0.278-0.023-0.483-0.266-0.46-0.541
		l0.385-4.762c0.022-0.275,0.265-0.48,0.542-0.461l8.395,0.68c0.275,0.021,0.482,0.266,0.46,0.543L105.971,448.428z"/>
</g>
<g>
	<path fill="#FFFFFF" d="M116.744,449.301c-0.023,0.273-0.265,0.482-0.542,0.459l-8.393-0.68c-0.278-0.023-0.484-0.264-0.462-0.541
		l0.386-4.762c0.022-0.275,0.265-0.48,0.542-0.459l8.393,0.68c0.277,0.021,0.483,0.266,0.46,0.541L116.744,449.301z"/>
</g>
<g>
	<path fill="#FFFFFF" d="M127.516,450.172c-0.022,0.275-0.264,0.482-0.542,0.461l-8.392-0.68c-0.277-0.023-0.484-0.266-0.461-0.543
		l0.385-4.76c0.022-0.275,0.266-0.482,0.542-0.461l8.392,0.68c0.278,0.023,0.483,0.266,0.461,0.541L127.516,450.172z"/>
</g>
<g>
	<path fill="#FFFFFF" d="M138.164,451.033c-0.023,0.273-0.264,0.482-0.54,0.461l-8.394-0.68c-0.277-0.023-0.482-0.266-0.461-0.541
		l0.386-4.76c0.022-0.279,0.265-0.484,0.541-0.463l8.394,0.68c0.277,0.023,0.482,0.268,0.458,0.543L138.164,451.033z"/>
</g>
<g>
	<path fill="#FFFFFF" d="M148.939,451.904c-0.022,0.277-0.265,0.484-0.542,0.463l-8.393-0.682c-0.277-0.02-0.483-0.264-0.461-0.539
		l0.385-4.762c0.022-0.277,0.264-0.484,0.542-0.459l8.393,0.676c0.277,0.023,0.483,0.266,0.461,0.543L148.939,451.904z"/>
</g>
<g>
	<path fill="#FFFFFF" d="M159.587,452.766c-0.022,0.277-0.265,0.486-0.543,0.463l-8.393-0.68c-0.276-0.021-0.483-0.266-0.461-0.541
		l0.386-4.762c0.022-0.277,0.265-0.482,0.542-0.459l8.393,0.676c0.278,0.023,0.482,0.268,0.462,0.543L159.587,452.766z"/>
</g>
<g>
	<path fill="#FFFFFF" d="M170.233,453.629c-0.02,0.275-0.265,0.484-0.541,0.461l-8.393-0.68c-0.276-0.021-0.483-0.266-0.461-0.541
		l0.386-4.762c0.023-0.277,0.266-0.482,0.543-0.459l8.394,0.68c0.274,0.021,0.482,0.264,0.459,0.539L170.233,453.629z"/>
</g>
<g>
	<path fill="#FFFFFF" d="M180.885,454.492c-0.023,0.275-0.268,0.482-0.544,0.461l-8.394-0.682c-0.276-0.023-0.481-0.266-0.46-0.541
		l0.387-4.76c0.021-0.279,0.264-0.484,0.54-0.461l8.396,0.68c0.274,0.021,0.481,0.266,0.458,0.543L180.885,454.492z"/>
</g>
<g>
	<path fill="#FFFFFF" d="M191.782,455.373c-0.023,0.277-0.264,0.484-0.542,0.463l-8.394-0.68c-0.276-0.023-0.483-0.268-0.46-0.545
		l0.385-4.758c0.021-0.279,0.266-0.484,0.542-0.461l8.392,0.678c0.278,0.023,0.483,0.268,0.462,0.543L191.782,455.373z"/>
</g>
<g>
	<path fill="#FFFFFF" d="M202.431,456.236c-0.023,0.275-0.266,0.48-0.543,0.459l-8.393-0.68c-0.278-0.02-0.482-0.264-0.461-0.541
		l0.388-4.76c0.019-0.275,0.264-0.484,0.54-0.461l8.391,0.68c0.279,0.021,0.484,0.266,0.463,0.541L202.431,456.236z"/>
</g>
<g>
	<path fill="#FFFFFF" d="M213.078,457.098c-0.023,0.275-0.266,0.482-0.542,0.461l-8.393-0.682c-0.277-0.021-0.484-0.266-0.461-0.539
		l0.387-4.762c0.021-0.277,0.265-0.484,0.54-0.459l8.394,0.676c0.276,0.023,0.482,0.27,0.461,0.543L213.078,457.098z"/>
</g>
<path fill="#0F0B0C" d="M15.2,421.342c-1.363,2.193-0.688,5.076,1.507,6.438l22.046,13.688c2.195,1.361,5.077,0.688,6.44-1.506
	l30.457-49.062c1.362-2.195,0.687-5.078-1.505-6.439l-22.05-13.688c-2.193-1.361-5.078-0.688-6.438,1.508L15.2,421.342z"/>
<path fill="#1E1D1D" d="M16.478,421.242c-1.282,2.066-0.646,4.779,1.419,6.061l20.755,12.885c2.065,1.281,4.778,0.648,6.061-1.418
	l29.717-47.873c1.284-2.066,0.648-4.777-1.415-6.062l-20.755-12.883c-2.065-1.281-4.78-0.648-6.062,1.418L16.478,421.242z"/>
<circle fill="#212021" cx="30.616" cy="429.673" r="3.213"/>
<path fill="#C6C7C8" d="M29.907,428.092l-0.994,1.604c-0.137,0.217-0.067,0.506,0.15,0.643l1.604,0.994
	c0.217,0.137,0.506,0.07,0.643-0.15l0.994-1.602c0.135-0.219,0.069-0.508-0.15-0.643l-1.604-0.996
	C30.331,427.807,30.043,427.875,29.907,428.092z M29.185,429.863l0.993-1.602c0.044-0.068,0.134-0.09,0.203-0.047l1.604,0.994
	c0.067,0.043,0.09,0.133,0.046,0.201l-0.995,1.604c-0.042,0.068-0.132,0.09-0.201,0.049l-1.604-0.996
	C29.164,430.023,29.143,429.934,29.185,429.863z"/>
<rect x="30.111" y="383.326" transform="matrix(-0.8496 -0.5274 0.5274 -0.8496 -130.1713 775.123)" fill="#3E3D40" width="30.626" height="45.589"/>
<path opacity="0.1" fill="#FFFFFF" d="M27.886,427.979c-0.937,1.508-0.473,3.488,1.036,4.426c1.507,0.936,3.488,0.471,4.424-1.037
	C29.989,432.42,27.949,429.879,27.886,427.979z"/>
<path opacity="0.2" fill="#FFFFFF" d="M73.014,384.834l-20.755-12.883c-2.065-1.281-4.78-0.648-6.062,1.418l-18.445,29.715
	L73.014,384.834z"/>
<path fill="#3E3D40" d="M55.224,380.473c-0.302,0.484-0.153,1.125,0.334,1.426l7.448,4.625c0.486,0.303,1.127,0.152,1.429-0.334l0,0
	c0.302-0.488,0.151-1.127-0.334-1.43l-7.449-4.623C56.165,379.836,55.525,379.984,55.224,380.473L55.224,380.473z"/>
<path fill="#58585A" d="M55.583,380.695c-0.185,0.299-0.093,0.693,0.207,0.879l7.354,4.566c0.3,0.186,0.694,0.094,0.879-0.207l0,0
	c0.187-0.299,0.095-0.691-0.204-0.879l-7.357-4.566C56.163,380.303,55.77,380.396,55.583,380.695L55.583,380.695z"/>
<g>
	<g>
		
			<image overflow="visible" opacity="0.3" width="310" height="382" xlink:href="6E3D69FB.png"  transform="matrix(0.1128 -0.047 0.047 0.1128 221.6562 472.7344)">
		</image>
		<g>
			<g>
				<path fill="#D9DADB" d="M237.415,493.564c0,0-6.818-5.592-9.238-8.271c-4.066-4.5-2.594-7.582,2.096-13.195
					c2.393-2.863,6.412-8.033,13.34-3c3.813,2.773,8.581,6.768,14.672,11.857c5.288,4.416,13.906,9.408,6.058,18.803
					c-7.847,9.395-11.726,6.654-18.255,1.201C243.899,499.131,237.685,494.088,237.415,493.564z"/>
				<path fill="#ECEDED" d="M225.916,481.357c-0.563-2.746,1.137-5.406,4.356-9.26c2.393-2.863,6.412-8.033,13.34-3
					c3.813,2.773,8.581,6.768,14.672,11.857c2.631,2.197,6.085,4.535,7.928,7.49c0,0-11.199-9.221-27.225-10.57
					C231.423,477.238,225.916,481.357,225.916,481.357z"/>
			</g>
		</g>
	</g>
</g>
<g>
	<g>
		
			<image overflow="visible" opacity="0.3" width="265" height="258" xlink:href="6E3D69F9.png"  transform="matrix(0.0754 0 0 0.0754 67.6299 352.8613)">
		</image>
		<g>
			<rect x="67.63" y="352.861" fill="#EFDB65" width="18.054" height="17.543"/>
		</g>
	</g>
</g>
<g>
	<g>
		
			<image overflow="visible" opacity="0.3" width="325" height="320" xlink:href="6E3D69FF.png"  transform="matrix(0.0754 0 0 0.0754 72.4487 356.1758)">
		</image>
		<g>
			
				<rect x="74.701" y="358.519" transform="matrix(0.9519 -0.3063 0.3063 0.9519 -108.4643 43.2924)" fill="#FAEB74" width="18.054" height="17.544"/>
		</g>
	</g>
</g>
<text transform="matrix(0.8096 0.587 -0.587 0.8096 196.1338 409.917)" fill="#FFFFFF" font-family="'ArialMT'" font-size="2.0365">SALESBOOK</text>
<g>
	<g>
		
			<image overflow="visible" opacity="0.3" width="482" height="482" xlink:href="6E3D69F8.png"  transform="matrix(0.0976 0.0267 -0.0267 0.0976 269.3906 419.2324)">
		</image>
		<g>
			<g>
				<g>
					<g>
						<path fill="#FFFFFF" d="M307.661,440.521c-4.193-12.039-17.354-18.402-29.391-14.211
							c-12.04,4.193-18.401,17.352-14.211,29.393c4.191,12.037,17.353,18.4,29.392,14.207S311.852,452.561,307.661,440.521z
							 M283.361,449c-0.481-1.381,0.252-2.896,1.633-3.377c1.38-0.48,2.896,0.252,3.375,1.633c0.482,1.381-0.249,2.896-1.631,3.379
							C285.355,451.113,283.842,450.383,283.361,449z"/>
					</g>
				</g>
				<g>
					<g>
						<g>
							<path fill="#322B2C" d="M306.963,440.764c-4.057-11.656-16.795-17.812-28.449-13.754
								c-11.655,4.057-17.814,16.795-13.757,28.449c4.059,11.654,16.796,17.812,28.452,13.754
								C304.863,465.154,311.021,452.418,306.963,440.764z M282.823,449.168c-0.582-1.674,0.307-3.51,1.979-4.094
								c1.675-0.582,3.51,0.307,4.094,1.98c0.583,1.674-0.306,3.51-1.979,4.092C285.244,451.73,283.407,450.842,282.823,449.168z"/>
						</g>
					</g>
				</g>
			</g>
		</g>
	</g>
</g>
<g>
	<g>
		
			<image overflow="visible" opacity="0.3" width="482" height="482" xlink:href="6E3D69F6.png"  transform="matrix(0.0976 0.0267 -0.0267 0.0976 258.5078 387.9785)">
		</image>
		<g>
			<g>
				<g>
					<g>
						<path fill="#FFFFFF" d="M296.777,409.266c-4.193-12.041-17.352-18.4-29.392-14.209c-12.038,4.191-18.399,17.35-14.209,29.389
							c4.194,12.041,17.352,18.402,29.391,14.211C294.606,434.463,300.969,421.305,296.777,409.266z M272.479,417.742
							c-0.481-1.381,0.251-2.895,1.633-3.375c1.38-0.482,2.896,0.25,3.376,1.633c0.481,1.383-0.251,2.898-1.632,3.377
							C274.474,419.857,272.959,419.127,272.479,417.742z"/>
					</g>
				</g>
				<g>
					<g>
						<g>
							<g>
								<path fill="#57917B" d="M296.079,409.508c-4.058-11.656-16.796-17.812-28.449-13.754
									c-11.654,4.057-17.812,16.797-13.754,28.449c4.057,11.656,16.793,17.812,28.45,13.756
									C293.979,433.898,300.138,421.162,296.079,409.508z M271.941,417.912c-0.584-1.674,0.304-3.51,1.979-4.094
									c1.674-0.582,3.51,0.305,4.094,1.98c0.581,1.674-0.306,3.51-1.979,4.092S272.524,419.588,271.941,417.912z"/>
							</g>
						</g>
					</g>
				</g>
			</g>
		</g>
	</g>
</g>
<text transform="matrix(0.737 0.6759 -0.6759 0.737 263.0156 420.3418)" fill="#FFFFFF" font-family="'ArialMT'" font-size="2.8287">MEDICO</text>
<text transform="matrix(0.737 0.6759 -0.6759 0.737 276.1387 453.8984)" fill="#FFFFFF" font-family="'ArialMT'" font-size="2.8287">CRM</text>
</svg>
