<?xml version="1.0" encoding="utf-8"?>
<!-- Generator: Adobe Illustrator 15.0.0, SVG Export Plug-In . SVG Version: 6.00 Build 0)  -->
<!DOCTYPE svg PUBLIC "-//W3C//DTD SVG 1.1//EN" "http://www.w3.org/Graphics/SVG/1.1/DTD/svg11.dtd">
<svg version="1.1" id="Layer_1" xmlns="http://www.w3.org/2000/svg" xmlns:xlink="http://www.w3.org/1999/xlink" x="0px" y="0px"
	 width="1024px" height="1366px" viewBox="0 0 1024 1366" enable-background="new 0 0 1024 1366" xml:space="preserve">
<g>
	<g>
		<g>
			<path fill="#F6F6F6" d="M567.762,757.229c0,9.465-7.432,17.139-16.598,17.139h-87.41c-9.166,0-16.598-7.674-16.598-17.139
				l8.298-34.848c0-9.465,6.41-17.137,14.313-17.137h75.384c7.904,0,14.312,7.672,14.312,17.137L567.762,757.229z"/>
			<g>
				<path fill="#E3E3E3" d="M520.131,719.391h226.132c3.958,0,9.971-2.982,11.463-7.163l63.621-170.864
					c0-3.957-6.064-17.447-10.021-17.447l-588.955,0c-3.957,0-10.021,13.491-10.021,17.448l63.621,170.864
					c1.492,4.181,7.505,7.163,11.463,7.163h231.088H520.131z"/>
			</g>
			<g>
				<path fill="#1A171B" d="M520.047,716.033h228.075c3.854,0,9.711-2.87,11.164-6.889l61.412-164.699
					c0-3.804-3.122-6.888-6.978-6.888H521.849h-3.374l-298.499-0.001c-3.857,0-6.98,3.085-6.98,6.889l61.413,164.698
					c1.453,4.02,7.312,6.89,11.167,6.89h232.903H520.047z"/>
			</g>
			<polygon fill="#3E3D40" points="745.516,683.607 286.745,683.607 245.307,559.232 786.954,559.232 			"/>
			<g>
				<path fill="#C6C7C8" d="M268.801,694.914l6.891,17.313c1.494,4.181,7.517,7.163,11.479,7.163h231.377h1.612h226.417
					c3.962,0,9.983-2.982,11.478-7.163l6.891-17.313H268.801z"/>
			</g>
			<polygon opacity="0.2" fill="#FFFFFF" points="367.782,685.32 286.745,685.32 245.307,560.946 481.742,560.946 			"/>
		</g>
		<g>
			<polygon fill="#FAEB74" points="344.869,726.299 309.782,726.299 303.339,703.02 347.511,703.02 			"/>
		</g>
	</g>
</g>
<g>
	<g>
		<g>
			<g>
				<path fill="#3D3938" d="M662.188,877.529l-7.517,6.836c-1.443,2.199-4.396,2.814-6.595,1.373l-78.322-51.34
					c-2.2-1.441-2.814-4.395-1.372-6.593l3.271-9.622l11.823-8.193l80.978,53.08L662.188,877.529z"/>
			</g>
			<g>
				<polygon fill="#554E4D" points="571.654,818.184 583.478,809.99 664.455,863.07 662.188,877.529 				"/>
			</g>
		</g>
		<g>
			<g>
				<g>
					<path fill="#FFFFFF" d="M589.492,888.936c22.461,14.725,52.604,8.451,67.328-14.014c14.725-22.457,8.451-52.6-14.012-67.326
						c-22.461-14.723-52.605-8.449-67.328,14.013C560.758,844.069,567.029,874.213,589.492,888.936z M619.184,843.573
						c2.578,1.688,3.299,5.161,1.611,7.737c-1.69,2.576-5.16,3.296-7.737,1.609c-2.576-1.69-3.301-5.159-1.612-7.735
						C613.135,842.606,616.605,841.883,619.184,843.573z"/>
				</g>
			</g>
			<g>
				<g>
					<g>
						<path fill="#F0A808" d="M590.342,887.636c21.745,14.255,50.926,8.181,65.179-13.564c14.253-21.741,8.179-50.923-13.563-65.175
							c-21.743-14.254-50.925-8.181-65.176,13.562C562.527,844.202,568.6,873.383,590.342,887.636z M619.864,842.602
							c3.122,2.049,3.997,6.254,1.952,9.377c-2.05,3.124-6.257,4.001-9.381,1.95c-3.12-2.046-3.996-6.251-1.95-9.376
							C612.533,841.432,616.74,840.556,619.864,842.602z"/>
					</g>
				</g>
			</g>
		</g>
		<g>
			<polygon fill="#FFFFFF" points="571.654,818.184 582.137,815.945 659.895,866.914 662.188,877.529 723.97,783.275 
				633.436,723.932 			"/>
		</g>
	</g>
</g>
<rect x="523.186" y="831.268" transform="matrix(-0.9842 -0.1769 0.1769 -0.9842 902.4314 1753.8976)" fill="#ECEDED" width="12.467" height="10.885"/>
<polygon fill="#1A171B" points="484.453,817.867 523.73,824.93 525.371,829.223 523.054,842.101 519.981,845.771 480.705,838.707 
	"/>
<rect x="526.999" y="837.759" transform="matrix(-0.9842 -0.1773 0.1773 -0.9842 899.4199 1758.1843)" fill="#1A171B" width="2.506" height="2.309"/>
<rect x="527.853" y="833.019" transform="matrix(-0.9841 -0.1774 0.1774 -0.9841 901.8262 1748.9827)" fill="#1A171B" width="2.505" height="2.31"/>
<path fill="#ECEDED" d="M485.177,836.016c-2.896-4.164-1.867-9.891,2.298-12.785s9.889-1.865,12.785,2.299l27.767,39.994
	l-14.981,10.414L485.177,836.016z"/>
<circle fill="#1A171B" cx="492.691" cy="830.92" r="5.607"/>
<text transform="matrix(0.9698 0.2437 -0.2437 0.9698 387.0454 690.9033)" fill="#58585A" font-family="'Arimo'" font-size="11.3447">8 GB</text>
<g>
	<g>
		
			<rect x="428.905" y="812.356" transform="matrix(0.8857 -0.4643 0.4643 0.8857 -330.387 296.3506)" fill="#F6F6F6" width="15.281" height="13.34"/>
		
			<rect x="434.483" y="814.601" transform="matrix(0.8856 -0.4645 0.4645 0.8856 -329.1404 295.8947)" fill="#1A171B" width="3.072" height="2.831"/>
		
			<rect x="437.225" y="819.826" transform="matrix(0.8854 -0.4648 0.4648 0.8854 -331.4397 298.0398)" fill="#1A171B" width="3.072" height="2.831"/>
		<g>
			<path fill="#F7B93C" d="M406.683,848.307c-5.843,3.064-13.059,0.812-16.123-5.027c-3.064-5.843-0.815-13.062,5.028-16.126
				l29.999-15.799l11.268,21.204L406.683,848.307z"/>
		</g>
		<g>
			<path fill="#F7B93C" d="M457.572,794.865c5.843-3.062,13.062-0.809,16.125,5.03c3.064,5.845,0.814,13.063-5.029,16.127
				l-6.029,3.141l-11.126-21.09L457.572,794.865z"/>
		</g>
	</g>
</g>
<g>
	<path fill="#C6C7C8" d="M492.939,1064.357c-2.154,4.186-7.292,5.83-11.477,3.676L207.727,927.109
		c-4.185-2.154-5.829-7.29-3.675-11.473l58.853-114.318c2.154-4.184,7.29-5.83,11.475-3.676l273.735,140.924
		c4.185,2.155,5.829,7.291,3.676,11.475L492.939,1064.357z"/>
</g>
<g>
	<path fill="#FFFFFF" d="M281.018,831.783c-0.259,0.504-0.877,0.703-1.381,0.443l-15.28-7.865c-0.505-0.26-0.703-0.88-0.443-1.383
		l4.461-8.667c0.259-0.501,0.878-0.702,1.382-0.44l15.28,7.865c0.504,0.26,0.702,0.879,0.442,1.381L281.018,831.783z"/>
</g>
<g>
	<path fill="#FFFFFF" d="M271.821,849.648c-0.259,0.504-0.877,0.705-1.381,0.443l-15.281-7.865
		c-0.504-0.262-0.702-0.879-0.442-1.387l7.064-13.719c0.26-0.505,0.878-0.702,1.383-0.439l15.279,7.864
		c0.505,0.258,0.702,0.878,0.442,1.382L271.821,849.648z"/>
</g>
<g>
	<path fill="#FFFFFF" d="M231.401,925.921c-0.26,0.505-0.878,0.7-1.382,0.441l-14.367-7.396c-0.505-0.261-0.703-0.879-0.443-1.385
		l8.472-16.453c0.26-0.506,0.878-0.705,1.383-0.444l14.366,7.397c0.505,0.259,0.705,0.876,0.445,1.381L231.401,925.921z"/>
</g>
<g>
	<path fill="#FFFFFF" d="M250.406,935.704c-0.26,0.505-0.879,0.703-1.384,0.444l-14.368-7.398c-0.503-0.26-0.702-0.877-0.442-1.381
		l8.473-16.457c0.261-0.506,0.879-0.703,1.382-0.444l14.368,7.397c0.505,0.262,0.704,0.876,0.443,1.383L250.406,935.704z"/>
</g>
<g>
	<path fill="#FFFFFF" d="M269.411,945.487c-0.259,0.505-0.877,0.704-1.381,0.444l-14.368-7.397
		c-0.503-0.259-0.703-0.876-0.442-1.382l8.472-16.455c0.26-0.508,0.878-0.705,1.383-0.443l14.367,7.395
		c0.504,0.262,0.702,0.877,0.442,1.383L269.411,945.487z"/>
</g>
<g>
	<path fill="#FFFFFF" d="M428.825,1027.557c-0.261,0.506-0.878,0.703-1.382,0.445l-14.369-7.398
		c-0.503-0.258-0.703-0.877-0.442-1.383l8.472-16.455c0.259-0.506,0.878-0.703,1.382-0.443l14.368,7.396
		c0.505,0.26,0.703,0.877,0.442,1.383L428.825,1027.557z"/>
</g>
<g>
	<path fill="#FFFFFF" d="M447.754,1037.303c-0.26,0.506-0.88,0.703-1.383,0.443l-14.368-7.396c-0.504-0.26-0.701-0.879-0.442-1.383
		l3.501-6.801c0.26-0.504,0.879-0.705,1.382-0.445l14.368,7.396c0.504,0.26,0.703,0.879,0.444,1.383L447.754,1037.303z"/>
</g>
<g>
	<path fill="#FFFFFF" d="M485.611,1056.793c-0.259,0.506-0.878,0.703-1.383,0.443l-14.367-7.395
		c-0.504-0.26-0.703-0.881-0.442-1.385l3.502-6.805c0.259-0.502,0.879-0.703,1.383-0.441l14.366,7.395
		c0.506,0.262,0.703,0.881,0.443,1.385L485.611,1056.793z"/>
</g>
<g>
	<path fill="#FFFFFF" d="M466.681,1047.047c-0.259,0.508-0.878,0.703-1.383,0.445l-14.365-7.398
		c-0.505-0.26-0.703-0.877-0.443-1.381l8.473-16.457c0.261-0.506,0.878-0.701,1.383-0.441l14.367,7.395
		c0.503,0.26,0.702,0.879,0.441,1.383L466.681,1047.047z"/>
</g>
<g>
	<path fill="#FFFFFF" d="M293.128,957.699c-0.259,0.504-0.877,0.703-1.381,0.443l-18.929-9.745
		c-0.504-0.259-0.702-0.878-0.442-1.382l8.472-16.456c0.26-0.507,0.878-0.704,1.382-0.444l18.93,9.745
		c0.502,0.261,0.702,0.877,0.442,1.383L293.128,957.699z"/>
</g>
<g>
	<path fill="#FFFFFF" d="M408.982,1017.344c-0.26,0.506-0.877,0.703-1.382,0.443l-18.929-9.746
		c-0.504-0.262-0.701-0.877-0.441-1.383l8.47-16.455c0.262-0.506,0.879-0.705,1.383-0.443l18.928,9.744
		c0.505,0.26,0.703,0.877,0.443,1.383L408.982,1017.344z"/>
</g>
<g>
	<path fill="#FFFFFF" d="M386.253,1005.641c-0.259,0.506-0.879,0.703-1.383,0.445l-88.334-45.475
		c-0.504-0.262-0.701-0.881-0.442-1.387l8.472-16.457c0.261-0.504,0.878-0.699,1.383-0.44l88.334,45.476
		c0.505,0.258,0.704,0.877,0.442,1.383L386.253,1005.641z"/>
</g>
<g>
	<path fill="#FFFFFF" d="M290.978,859.51c-0.258,0.505-0.878,0.703-1.382,0.444l-15.279-7.864c-0.504-0.262-0.702-0.881-0.442-1.387
		l7.063-13.719c0.258-0.502,0.877-0.702,1.382-0.444l15.279,7.868c0.504,0.258,0.702,0.879,0.443,1.381L290.978,859.51z"/>
</g>
<g>
	<path fill="#FFFFFF" d="M289.776,882.297c-0.258,0.504-0.878,0.705-1.382,0.442l-15.279-7.864c-0.504-0.262-0.701-0.88-0.442-1.385
		l7.062-13.718c0.262-0.507,0.879-0.702,1.383-0.442l15.279,7.865c0.505,0.26,0.705,0.876,0.443,1.383L289.776,882.297z"/>
</g>
<g>
	<path fill="#FFFFFF" d="M308.933,892.16c-0.258,0.504-0.877,0.703-1.381,0.443l-15.28-7.865c-0.505-0.262-0.702-0.88-0.442-1.385
		l7.063-13.719c0.261-0.506,0.876-0.703,1.381-0.443l15.281,7.865c0.503,0.262,0.702,0.879,0.441,1.383L308.933,892.16z"/>
</g>
<g>
	<path fill="#FFFFFF" d="M327.864,901.906c-0.261,0.504-0.879,0.701-1.383,0.441l-15.279-7.867
		c-0.505-0.258-0.704-0.877-0.445-1.383l7.063-13.719c0.261-0.504,0.879-0.703,1.383-0.442l15.281,7.866
		c0.503,0.261,0.703,0.875,0.442,1.383L327.864,901.906z"/>
</g>
<g>
	<path fill="#FFFFFF" d="M346.791,911.65c-0.26,0.504-0.876,0.701-1.382,0.443l-15.279-7.867c-0.506-0.261-0.702-0.877-0.441-1.383
		l7.063-13.719c0.26-0.506,0.875-0.703,1.381-0.443l15.279,7.865c0.505,0.26,0.704,0.877,0.443,1.384L346.791,911.65z"/>
</g>
<g>
	<path fill="#FFFFFF" d="M365.493,921.277c-0.261,0.507-0.878,0.703-1.383,0.441l-15.279-7.864
		c-0.503-0.259-0.702-0.878-0.442-1.382l7.063-13.722c0.261-0.505,0.879-0.7,1.382-0.442l15.279,7.865
		c0.505,0.262,0.704,0.879,0.445,1.382L365.493,921.277z"/>
</g>
<g>
	<path fill="#FFFFFF" d="M383.964,930.787c-0.259,0.506-0.876,0.704-1.38,0.445l-15.282-7.867c-0.502-0.26-0.7-0.877-0.441-1.381
		l7.063-13.721c0.261-0.508,0.877-0.702,1.38-0.444l15.282,7.866c0.504,0.261,0.701,0.877,0.441,1.381L383.964,930.787z"/>
</g>
<g>
	<path fill="#FFFFFF" d="M403.237,940.707c-0.26,0.506-0.88,0.705-1.383,0.443l-15.281-7.866c-0.502-0.259-0.701-0.877-0.441-1.382
		l7.064-13.719c0.261-0.506,0.878-0.703,1.38-0.444l15.281,7.866c0.503,0.261,0.702,0.878,0.442,1.384L403.237,940.707z"/>
</g>
<g>
	<path fill="#FFFFFF" d="M421.71,950.219c-0.26,0.506-0.878,0.703-1.383,0.442l-15.279-7.864c-0.504-0.262-0.702-0.879-0.441-1.385
		l7.062-13.717c0.26-0.508,0.877-0.705,1.383-0.447l15.278,7.868c0.505,0.259,0.704,0.88,0.443,1.383L421.71,950.219z"/>
</g>
<g>
	<path fill="#FFFFFF" d="M440.637,959.963c-0.259,0.506-0.875,0.703-1.378,0.443l-15.281-7.867
		c-0.507-0.258-0.703-0.875-0.442-1.382l7.062-13.722c0.26-0.502,0.877-0.699,1.383-0.441l15.28,7.867
		c0.504,0.26,0.701,0.877,0.44,1.383L440.637,959.963z"/>
</g>
<g>
	<path fill="#FFFFFF" d="M458.884,969.355c-0.26,0.506-0.878,0.705-1.382,0.443l-15.281-7.865c-0.502-0.26-0.702-0.877-0.442-1.383
		l7.063-13.721c0.262-0.506,0.878-0.7,1.381-0.443l15.281,7.865c0.503,0.262,0.703,0.879,0.442,1.387L458.884,969.355z"/>
</g>
<g>
	<path fill="#FFFFFF" d="M478.04,979.219c-0.261,0.506-0.878,0.699-1.383,0.443l-15.278-7.865c-0.506-0.264-0.703-0.879-0.444-1.383
		l7.062-13.723c0.259-0.502,0.879-0.701,1.384-0.441l15.28,7.865c0.505,0.26,0.702,0.877,0.441,1.383L478.04,979.219z"/>
</g>
<g>
	<path fill="#FFFFFF" d="M497.083,989.021c-0.261,0.506-0.877,0.701-1.382,0.441l-15.28-7.863c-0.504-0.262-0.704-0.881-0.444-1.383
		l7.063-13.723c0.261-0.502,0.879-0.701,1.383-0.441l15.279,7.869c0.504,0.256,0.703,0.875,0.442,1.381L497.083,989.021z"/>
</g>
<g>
	<path fill="#FFFFFF" d="M284.888,903.004c-0.26,0.506-0.878,0.704-1.382,0.443l-15.28-7.867c-0.504-0.26-0.702-0.877-0.442-1.382
		l7.065-13.722c0.259-0.501,0.875-0.699,1.381-0.44l15.279,7.864c0.503,0.263,0.702,0.88,0.443,1.382L284.888,903.004z"/>
</g>
<g>
	<path fill="#FFFFFF" d="M304.044,912.867c-0.26,0.504-0.877,0.701-1.381,0.441l-15.281-7.865c-0.504-0.26-0.701-0.877-0.442-1.382
		l7.065-13.722c0.258-0.502,0.877-0.703,1.38-0.441l15.281,7.865c0.504,0.26,0.702,0.879,0.442,1.382L304.044,912.867z"/>
</g>
<g>
	<path fill="#FFFFFF" d="M322.973,922.611c-0.258,0.505-0.877,0.702-1.38,0.443l-15.281-7.868c-0.504-0.261-0.703-0.876-0.444-1.38
		l7.065-13.723c0.259-0.503,0.876-0.7,1.381-0.442l15.281,7.868c0.504,0.26,0.702,0.876,0.443,1.379L322.973,922.611z"/>
</g>
<g>
	<path fill="#FFFFFF" d="M341.901,932.357c-0.26,0.506-0.877,0.698-1.381,0.441l-15.281-7.865c-0.503-0.262-0.702-0.879-0.442-1.383
		l7.063-13.722c0.26-0.505,0.878-0.7,1.382-0.439l15.28,7.864c0.504,0.26,0.702,0.877,0.443,1.381L341.901,932.357z"/>
</g>
<g>
	<path fill="#FFFFFF" d="M360.602,941.986c-0.259,0.503-0.877,0.699-1.381,0.441l-15.28-7.869c-0.504-0.258-0.703-0.875-0.443-1.381
		l7.065-13.719c0.259-0.505,0.876-0.702,1.38-0.444l15.282,7.866c0.502,0.261,0.7,0.879,0.441,1.385L360.602,941.986z"/>
</g>
<g>
	<path fill="#FFFFFF" d="M379.076,951.494c-0.26,0.506-0.877,0.701-1.382,0.443l-15.279-7.868c-0.505-0.259-0.705-0.876-0.444-1.38
		l7.063-13.721c0.26-0.506,0.878-0.703,1.382-0.443l15.281,7.867c0.504,0.26,0.701,0.876,0.442,1.381L379.076,951.494z"/>
</g>
<g>
	<path fill="#FFFFFF" d="M398.347,961.416c-0.26,0.506-0.877,0.703-1.382,0.443l-15.279-7.867c-0.504-0.26-0.702-0.879-0.442-1.381
		l7.063-13.722c0.259-0.503,0.876-0.702,1.38-0.444l15.28,7.869c0.506,0.258,0.703,0.875,0.442,1.38L398.347,961.416z"/>
</g>
<g>
	<path fill="#FFFFFF" d="M416.819,970.926c-0.259,0.502-0.877,0.703-1.38,0.443l-15.282-7.867c-0.503-0.26-0.701-0.879-0.442-1.381
		l7.063-13.721c0.259-0.506,0.876-0.703,1.382-0.443l15.281,7.865c0.503,0.26,0.701,0.877,0.442,1.381L416.819,970.926z"/>
</g>
<g>
	<path fill="#FFFFFF" d="M435.749,980.672c-0.259,0.504-0.879,0.703-1.384,0.441l-15.279-7.865c-0.504-0.26-0.703-0.879-0.442-1.385
		l7.063-13.721c0.259-0.504,0.878-0.701,1.381-0.441l15.279,7.867c0.505,0.26,0.705,0.879,0.445,1.383L435.749,980.672z"/>
</g>
<g>
	<path fill="#FFFFFF" d="M453.993,990.064c-0.259,0.502-0.879,0.701-1.383,0.441l-15.279-7.867
		c-0.505-0.258-0.701-0.877-0.442-1.381l7.064-13.721c0.26-0.504,0.876-0.701,1.38-0.439l15.28,7.863
		c0.505,0.26,0.703,0.877,0.443,1.381L453.993,990.064z"/>
</g>
<g>
	<path fill="#FFFFFF" d="M473.149,999.926c-0.259,0.504-0.877,0.703-1.383,0.443l-15.279-7.867
		c-0.504-0.258-0.701-0.877-0.442-1.383l7.062-13.721c0.261-0.504,0.879-0.701,1.383-0.441l15.279,7.867
		c0.507,0.26,0.703,0.879,0.444,1.383L473.149,999.926z"/>
</g>
<g>
	<path fill="#FFFFFF" d="M492.193,1009.73c-0.26,0.504-0.881,0.703-1.384,0.441l-15.278-7.863c-0.504-0.262-0.702-0.879-0.443-1.383
		l7.064-13.723c0.26-0.504,0.877-0.703,1.382-0.441l15.278,7.865c0.505,0.26,0.704,0.879,0.445,1.383L492.193,1009.73z"/>
</g>
<g>
	<path fill="#FFFFFF" d="M266.803,917.207c-0.259,0.506-0.877,0.701-1.381,0.443l-15.28-7.866c-0.503-0.259-0.702-0.878-0.444-1.38
		l7.065-13.725c0.259-0.504,0.879-0.701,1.382-0.441l15.282,7.865c0.502,0.26,0.701,0.879,0.441,1.383L266.803,917.207z"/>
</g>
<g>
	<path fill="#FFFFFF" d="M285.959,927.071c-0.259,0.501-0.876,0.7-1.38,0.44l-15.28-7.867c-0.504-0.258-0.703-0.877-0.444-1.379
		l7.065-13.723c0.259-0.502,0.877-0.701,1.381-0.441l15.281,7.865c0.504,0.262,0.702,0.879,0.442,1.382L285.959,927.071z"/>
</g>
<g>
	<path fill="#FFFFFF" d="M304.89,936.817c-0.259,0.502-0.879,0.699-1.383,0.44l-15.279-7.868c-0.505-0.258-0.703-0.88-0.445-1.382
		l7.064-13.723c0.259-0.502,0.879-0.699,1.384-0.439l15.279,7.865c0.504,0.26,0.703,0.879,0.444,1.385L304.89,936.817z"/>
</g>
<g>
	<path fill="#FFFFFF" d="M323.817,946.56c-0.258,0.505-0.876,0.702-1.38,0.441l-15.28-7.864c-0.506-0.26-0.703-0.877-0.443-1.381
		l7.065-13.723c0.259-0.504,0.875-0.703,1.381-0.443l15.279,7.867c0.505,0.258,0.702,0.879,0.443,1.383L323.817,946.56z"/>
</g>
<g>
	<path fill="#FFFFFF" d="M342.52,956.189c-0.259,0.502-0.878,0.701-1.384,0.441l-15.278-7.867c-0.505-0.258-0.703-0.877-0.443-1.379
		l7.063-13.723c0.26-0.505,0.878-0.703,1.383-0.444l15.279,7.864c0.505,0.263,0.704,0.88,0.444,1.385L342.52,956.189z"/>
</g>
<g>
	<path fill="#FFFFFF" d="M360.992,965.699c-0.259,0.502-0.878,0.701-1.381,0.441l-15.28-7.867c-0.505-0.26-0.704-0.877-0.444-1.383
		l7.064-13.719c0.26-0.506,0.879-0.703,1.382-0.443l15.28,7.865c0.504,0.261,0.703,0.879,0.443,1.385L360.992,965.699z"/>
</g>
<g>
	<path fill="#FFFFFF" d="M380.262,975.619c-0.26,0.504-0.876,0.701-1.382,0.443l-15.28-7.867c-0.502-0.26-0.701-0.879-0.442-1.383
		l7.064-13.721c0.259-0.504,0.878-0.701,1.381-0.443l15.281,7.867c0.505,0.26,0.703,0.879,0.441,1.381L380.262,975.619z"/>
</g>
<g>
	<path fill="#FFFFFF" d="M398.735,985.131c-0.26,0.504-0.878,0.701-1.383,0.443l-15.28-7.869c-0.503-0.258-0.7-0.875-0.44-1.381
		l7.064-13.723c0.258-0.502,0.876-0.703,1.38-0.441l15.28,7.865c0.504,0.262,0.702,0.879,0.442,1.383L398.735,985.131z"/>
</g>
<g>
	<path fill="#FFFFFF" d="M417.665,994.875c-0.26,0.502-0.879,0.701-1.382,0.441l-15.281-7.865c-0.504-0.262-0.701-0.879-0.441-1.381
		l7.063-13.723c0.26-0.504,0.877-0.703,1.381-0.443l15.281,7.867c0.503,0.26,0.703,0.877,0.443,1.383L417.665,994.875z"/>
</g>
<g>
	<path fill="#FFFFFF" d="M435.909,1004.266c-0.259,0.504-0.878,0.701-1.383,0.443l-15.278-7.863
		c-0.505-0.264-0.702-0.881-0.443-1.383l7.064-13.723c0.26-0.504,0.878-0.703,1.383-0.443l15.278,7.867
		c0.505,0.258,0.702,0.877,0.444,1.383L435.909,1004.266z"/>
</g>
<g>
	<path fill="#FFFFFF" d="M455.066,1014.131c-0.258,0.502-0.878,0.701-1.382,0.441l-15.279-7.867
		c-0.504-0.26-0.704-0.877-0.443-1.379l7.065-13.723c0.259-0.506,0.876-0.703,1.38-0.443l15.281,7.865
		c0.502,0.26,0.702,0.879,0.442,1.383L455.066,1014.131z"/>
</g>
<g>
	<path fill="#FFFFFF" d="M496.306,1035.361c-0.259,0.504-0.877,0.701-1.382,0.441l-37.249-19.176
		c-0.503-0.26-0.702-0.879-0.442-1.383l7.065-13.721c0.258-0.502,0.878-0.701,1.382-0.441l37.249,19.176
		c0.504,0.26,0.702,0.877,0.443,1.381L496.306,1035.361z"/>
</g>
<g>
	<path fill="#FFFFFF" d="M505.976,1017.125c-0.259,0.502-0.879,0.703-1.382,0.443l-10.122-5.209c-0.504-0.262-0.7-0.881-0.443-1.383
		l11.697-22.719c0.26-0.504,0.876-0.703,1.383-0.441l10.122,5.209c0.502,0.26,0.7,0.879,0.442,1.383L505.976,1017.125z"/>
</g>
<g>
	<path fill="#FFFFFF" d="M515.557,998.533c-0.26,0.506-0.878,0.703-1.383,0.443l-15.28-7.869c-0.502-0.258-0.703-0.875-0.443-1.381
		l7.063-13.719c0.262-0.508,0.88-0.703,1.383-0.443l15.281,7.867c0.504,0.256,0.703,0.877,0.442,1.381L515.557,998.533z"/>
</g>
<g>
	<path fill="#FFFFFF" d="M309.678,869.139c-0.26,0.504-0.877,0.703-1.381,0.443l-15.279-7.867c-0.506-0.258-0.703-0.88-0.443-1.383
		l7.063-13.72c0.26-0.505,0.878-0.704,1.383-0.444l15.28,7.867c0.504,0.258,0.702,0.877,0.442,1.381L309.678,869.139z"/>
</g>
<g>
	<path fill="#FFFFFF" d="M328.228,878.688c-0.26,0.503-0.879,0.7-1.382,0.442l-15.28-7.867c-0.505-0.26-0.702-0.877-0.442-1.381
		l7.064-13.722c0.259-0.505,0.878-0.703,1.382-0.444l15.279,7.869c0.504,0.258,0.702,0.877,0.443,1.381L328.228,878.688z"/>
</g>
<g>
	<path fill="#FFFFFF" d="M346.777,888.239c-0.26,0.501-0.877,0.7-1.383,0.442l-15.28-7.867c-0.503-0.26-0.703-0.88-0.443-1.385
		l7.063-13.719c0.26-0.506,0.879-0.703,1.383-0.443l15.281,7.867c0.504,0.26,0.701,0.879,0.442,1.383L346.777,888.239z"/>
</g>
<g>
	<path fill="#FFFFFF" d="M365.935,898.098c-0.259,0.506-0.879,0.704-1.381,0.445l-15.283-7.865c-0.503-0.262-0.701-0.88-0.441-1.385
		l7.064-13.719c0.26-0.505,0.877-0.703,1.382-0.445l15.281,7.869c0.502,0.258,0.701,0.877,0.443,1.379L365.935,898.098z"/>
</g>
<g>
	<path fill="#FFFFFF" d="M384.482,907.646c-0.26,0.504-0.877,0.704-1.383,0.446l-15.279-7.869c-0.504-0.258-0.701-0.876-0.441-1.382
		l7.062-13.721c0.259-0.504,0.877-0.701,1.383-0.442l15.278,7.866c0.506,0.261,0.702,0.879,0.444,1.381L384.482,907.646z"/>
</g>
<g>
	<path fill="#FFFFFF" d="M403.032,917.197c-0.26,0.504-0.879,0.703-1.383,0.443l-15.281-7.867c-0.504-0.258-0.701-0.877-0.441-1.382
		l7.064-13.72c0.258-0.504,0.877-0.701,1.381-0.445l15.281,7.867c0.504,0.262,0.7,0.88,0.442,1.383L403.032,917.197z"/>
</g>
<g>
	<path fill="#FFFFFF" d="M421.882,926.904c-0.257,0.504-0.876,0.703-1.38,0.441l-15.281-7.865c-0.502-0.26-0.702-0.881-0.443-1.383
		l7.063-13.722c0.26-0.502,0.878-0.702,1.383-0.444l15.28,7.869c0.504,0.258,0.702,0.879,0.442,1.381L421.882,926.904z"/>
</g>
<g>
	<path fill="#FFFFFF" d="M440.584,936.529c-0.259,0.506-0.876,0.704-1.381,0.446l-15.279-7.869c-0.505-0.258-0.703-0.878-0.444-1.38
		l7.064-13.723c0.259-0.502,0.878-0.701,1.383-0.442l15.28,7.866c0.504,0.26,0.701,0.878,0.442,1.381L440.584,936.529z"/>
</g>
<g>
	<path fill="#FFFFFF" d="M459.436,946.238c-0.258,0.502-0.877,0.702-1.38,0.442l-15.28-7.866c-0.505-0.26-0.703-0.878-0.443-1.383
		l7.064-13.721c0.259-0.504,0.878-0.705,1.382-0.442l15.28,7.866c0.503,0.26,0.701,0.877,0.441,1.381L459.436,946.238z"/>
</g>
<g>
	<path fill="#FFFFFF" d="M478.443,956.023c-0.258,0.502-0.877,0.701-1.381,0.441l-15.281-7.867
		c-0.504-0.258-0.702-0.878-0.442-1.381l7.063-13.721c0.259-0.504,0.879-0.703,1.383-0.441l15.279,7.864
		c0.503,0.261,0.702,0.878,0.442,1.382L478.443,956.023z"/>
</g>
<g>
	<path fill="#FFFFFF" d="M497.146,965.648c-0.261,0.504-0.88,0.701-1.383,0.441l-15.28-7.863c-0.503-0.26-0.703-0.881-0.444-1.383
		l7.065-13.722c0.259-0.502,0.877-0.702,1.382-0.441l15.279,7.868c0.504,0.258,0.703,0.877,0.444,1.379L497.146,965.648z"/>
</g>
<g>
	<path fill="#FFFFFF" d="M525.272,980.131c-0.259,0.504-0.877,0.703-1.383,0.443l-23.488-12.094
		c-0.505-0.26-0.704-0.879-0.443-1.383l7.062-13.721c0.259-0.504,0.879-0.701,1.382-0.441l23.492,12.092
		c0.504,0.26,0.7,0.879,0.442,1.381L525.272,980.131z"/>
</g>
<g>
	<path fill="#FFFFFF" d="M270.511,872.369c-0.26,0.502-0.877,0.699-1.381,0.44l-23.491-12.091c-0.505-0.26-0.703-0.879-0.443-1.383
		l7.064-13.723c0.258-0.504,0.877-0.701,1.381-0.443l23.49,12.095c0.504,0.259,0.702,0.878,0.442,1.38L270.511,872.369z"/>
</g>
<g>
	<path fill="#FFFFFF" d="M246.931,906.964c-0.26,0.507-0.879,0.703-1.383,0.444l-18.929-9.744c-0.504-0.261-0.702-0.881-0.442-1.384
		l7.063-13.722c0.259-0.504,0.877-0.701,1.382-0.442l18.929,9.745c0.504,0.26,0.703,0.879,0.442,1.383L246.931,906.964z"/>
</g>
<g>
	<path fill="#FFFFFF" d="M266.513,893.584c-0.259,0.502-0.878,0.7-1.382,0.439l-28.963-14.909c-0.505-0.259-0.703-0.876-0.443-1.382
		l7.065-13.723c0.261-0.507,0.877-0.703,1.381-0.44l28.963,14.911c0.504,0.259,0.704,0.873,0.444,1.378L266.513,893.584z"/>
</g>
<g>
	<path fill="#FFFFFF" d="M300.176,841.648c-0.259,0.502-0.879,0.7-1.384,0.441l-15.278-7.868c-0.505-0.258-0.703-0.877-0.442-1.382
		l4.461-8.666c0.26-0.504,0.877-0.701,1.381-0.439l15.278,7.864c0.505,0.259,0.704,0.878,0.445,1.383L300.176,841.648z"/>
</g>
<g>
	<path fill="#FFFFFF" d="M320.244,851.979c-0.259,0.501-0.878,0.7-1.382,0.439l-15.28-7.864c-0.504-0.26-0.7-0.88-0.442-1.381
		l4.461-8.668c0.26-0.503,0.878-0.7,1.382-0.443l15.279,7.869c0.504,0.258,0.703,0.877,0.443,1.381L320.244,851.979z"/>
</g>
<g>
	<path fill="#FFFFFF" d="M339.401,861.842c-0.258,0.503-0.879,0.7-1.382,0.441l-15.28-7.865c-0.505-0.262-0.703-0.879-0.444-1.381
		l4.462-8.668c0.259-0.504,0.877-0.701,1.383-0.441l15.279,7.865c0.503,0.26,0.703,0.879,0.443,1.381L339.401,861.842z"/>
</g>
<g>
	<path fill="#FFFFFF" d="M359.014,871.939c-0.259,0.502-0.877,0.701-1.382,0.44l-15.279-7.864c-0.504-0.263-0.703-0.881-0.444-1.383
		l4.462-8.668c0.259-0.502,0.877-0.699,1.382-0.44l15.28,7.864c0.504,0.262,0.701,0.881,0.442,1.383L359.014,871.939z"/>
</g>
<g>
	<path fill="#FFFFFF" d="M378.625,882.035c-0.258,0.502-0.876,0.703-1.381,0.441l-15.279-7.864c-0.504-0.263-0.701-0.88-0.443-1.382
		l4.461-8.666c0.259-0.504,0.879-0.703,1.383-0.443l15.278,7.865c0.505,0.262,0.701,0.88,0.443,1.383L378.625,882.035z"/>
</g>
<g>
	<path fill="#FFFFFF" d="M398.01,892.014c-0.258,0.502-0.876,0.701-1.378,0.445l-15.282-7.867c-0.503-0.262-0.7-0.88-0.441-1.382
		l4.461-8.665c0.26-0.505,0.878-0.705,1.382-0.445l15.281,7.867c0.503,0.262,0.698,0.88,0.44,1.381L398.01,892.014z"/>
</g>
<g>
	<path fill="#FFFFFF" d="M417.626,902.112c-0.259,0.502-0.878,0.704-1.383,0.442l-15.279-7.867c-0.505-0.26-0.702-0.879-0.444-1.38
		l4.462-8.665c0.259-0.505,0.878-0.705,1.382-0.443l15.28,7.865c0.506,0.26,0.704,0.877,0.444,1.381L417.626,902.112z"/>
</g>
<g>
	<path fill="#FFFFFF" d="M437.012,912.093c-0.26,0.502-0.879,0.703-1.384,0.442l-15.28-7.865c-0.504-0.259-0.701-0.881-0.443-1.383
		l4.462-8.666c0.259-0.504,0.878-0.703,1.382-0.442l15.281,7.864c0.504,0.26,0.701,0.879,0.443,1.382L437.012,912.093z"/>
</g>
<g>
	<path fill="#FFFFFF" d="M456.395,922.072c-0.257,0.502-0.877,0.704-1.381,0.443l-15.281-7.866c-0.503-0.261-0.702-0.88-0.443-1.382
		l4.462-8.668c0.26-0.504,0.878-0.701,1.384-0.441l15.278,7.867c0.505,0.258,0.702,0.877,0.444,1.379L456.395,922.072z"/>
</g>
<g>
	<path fill="#FFFFFF" d="M475.781,932.053c-0.258,0.502-0.878,0.701-1.383,0.443l-15.28-7.867c-0.504-0.26-0.7-0.881-0.441-1.383
		l4.461-8.666c0.26-0.504,0.877-0.703,1.381-0.443l15.281,7.867c0.504,0.258,0.701,0.879,0.443,1.381L475.781,932.053z"/>
</g>
<g>
	<path fill="#FFFFFF" d="M495.622,942.268c-0.258,0.502-0.877,0.702-1.382,0.443l-15.28-7.867c-0.504-0.259-0.701-0.882-0.443-1.383
		l4.461-8.666c0.259-0.505,0.879-0.705,1.383-0.443l15.28,7.867c0.504,0.26,0.701,0.878,0.442,1.381L495.622,942.268z"/>
</g>
<g>
	<path fill="#FFFFFF" d="M515.006,952.248c-0.26,0.502-0.878,0.701-1.383,0.441l-15.28-7.866c-0.503-0.259-0.699-0.88-0.441-1.383
		l4.462-8.665c0.259-0.505,0.878-0.705,1.381-0.443l15.28,7.865c0.505,0.261,0.701,0.88,0.443,1.383L515.006,952.248z"/>
</g>
<g>
	<path fill="#FFFFFF" d="M534.391,962.227c-0.258,0.502-0.877,0.701-1.382,0.445l-15.28-7.869c-0.504-0.26-0.701-0.881-0.441-1.381
		l4.462-8.668c0.259-0.503,0.88-0.703,1.381-0.441l15.282,7.865c0.504,0.262,0.699,0.879,0.441,1.381L534.391,962.227z"/>
</g>
<path fill="#0F0B0C" d="M676.598,1005.014c-2.781,4.477-1.402,10.361,3.075,13.141l44.997,27.934
	c4.479,2.779,10.362,1.402,13.144-3.074l62.16-100.131c2.779-4.479,1.402-10.363-3.074-13.143l-45.002-27.934
	c-4.476-2.779-10.36-1.404-13.14,3.074L676.598,1005.014z"/>
<path fill="#1E1D1D" d="M679.209,1004.811c-2.617,4.217-1.32,9.754,2.896,12.369l42.359,26.299c4.215,2.615,9.752,1.32,12.37-2.895
	l60.65-97.703c2.618-4.217,1.323-9.755-2.892-12.373l-42.359-26.294c-4.216-2.617-9.755-1.321-12.372,2.896L679.209,1004.811z"/>
<path fill="#212021" d="M702.492,1018.559c-1.913,3.078-0.966,7.121,2.112,9.033c3.076,1.908,7.119,0.961,9.031-2.117
	c1.911-3.074,0.965-7.119-2.113-9.027C708.444,1014.533,704.402,1015.48,702.492,1018.559z"/>
<path fill="#C6C7C8" d="M706.616,1018.793l-2.031,3.273c-0.276,0.443-0.138,1.031,0.308,1.309l3.271,2.031
	c0.446,0.277,1.036,0.143,1.312-0.307l2.031-3.271c0.275-0.445,0.14-1.033-0.306-1.311l-3.274-2.031
	C707.48,1018.209,706.894,1018.346,706.616,1018.793z M705.141,1022.408l2.031-3.27c0.089-0.141,0.271-0.184,0.413-0.098
	l3.271,2.033c0.14,0.086,0.183,0.268,0.095,0.41l-2.031,3.271c-0.086,0.137-0.271,0.184-0.41,0.096l-3.272-2.031
	C705.099,1022.734,705.056,1022.547,705.141,1022.408z"/>
<rect x="707.032" y="927.426" transform="matrix(-0.8496 -0.5274 0.5274 -0.8496 851.8904 2190.8013)" fill="#3E3D40" width="62.505" height="93.043"/>
<path opacity="0.1" fill="#FFFFFF" d="M702.492,1018.559c-1.913,3.078-0.966,7.121,2.112,9.033c3.076,1.908,7.119,0.961,9.031-2.117
	C706.782,1027.625,702.619,1022.438,702.492,1018.559z"/>
<path opacity="0.2" fill="#FFFFFF" d="M794.593,930.508l-42.359-26.294c-4.216-2.617-9.755-1.321-12.372,2.896l-37.646,60.641
	L794.593,930.508z"/>
<path fill="#3E3D40" d="M758.285,921.604c-0.617,0.991-0.312,2.298,0.683,2.914l15.199,9.436c0.995,0.617,2.301,0.311,2.918-0.682
	l0,0c0.616-0.994,0.311-2.299-0.683-2.916l-15.202-9.437C760.207,920.303,758.901,920.609,758.285,921.604L758.285,921.604z"/>
<path fill="#58585A" d="M759.021,922.061c-0.379,0.607-0.191,1.41,0.419,1.791l15.012,9.32c0.613,0.38,1.416,0.189,1.794-0.42l0,0
	c0.38-0.611,0.193-1.413-0.42-1.793l-15.012-9.32C760.202,921.258,759.4,921.447,759.021,922.061L759.021,922.061z"/>
<g>
	<g>
		
			<image overflow="visible" opacity="0.3" width="310" height="382" xlink:href="E37C3817.png"  transform="matrix(0.2494 0 0 0.2494 567.5166 967.8262)">
		</image>
		<g>
			<g>
				<path fill="#D9DADB" d="M580.859,1019.438c0,0-8.462-15.889-10.917-22.832c-4.131-11.67,1.062-16.322,14.302-23.219
					c6.754-3.516,18.384-10.107,27.486,4.818c5.01,8.217,10.857,19.484,18.34,33.85c6.496,12.471,18.812,28.641-3.344,40.182
					c-22.154,11.539-27.313,3.334-35.334-12.066C588.707,1035.016,580.951,1020.633,580.859,1019.438z"/>
				<path fill="#ECEDED" d="M568.769,987.414c1.093-5.617,6.388-9.293,15.476-14.027c6.754-3.516,18.384-10.107,27.486,4.818
					c5.01,8.217,10.857,19.484,18.34,33.85c3.231,6.205,7.904,13.324,9.057,20.332c0,0-13.863-26.156-42.994-41.273
					C582.381,983.977,568.769,987.414,568.769,987.414z"/>
			</g>
		</g>
	</g>
</g>
<g>
	<g>
		
			<image overflow="visible" opacity="0.3" width="265" height="258" xlink:href="E37C3815.png"  transform="matrix(0.1539 0 0 0.1539 333.458 739.5645)">
		</image>
		<g>
			<rect x="333.458" y="739.564" fill="#EFDB65" width="36.846" height="35.804"/>
		</g>
	</g>
</g>
<g>
	<g>
		
			<image overflow="visible" opacity="0.3" width="325" height="320" xlink:href="E37C381B.png"  transform="matrix(0.1539 0 0 0.1539 343.293 746.3281)">
		</image>
		<g>
			
				<rect x="347.89" y="751.109" transform="matrix(0.952 -0.3062 0.3062 0.952 -217.9072 149.1321)" fill="#FAEB74" width="36.847" height="35.804"/>
		</g>
	</g>
</g>
<text transform="matrix(0.8096 0.587 -0.587 0.8096 595.7236 856.0078)" fill="#FFFFFF" font-family="'ArialMT'" font-size="4.1564">SALESBOOK</text>
<g>
	<g>
		
			<image overflow="visible" opacity="0.3" width="482" height="482" xlink:href="E37C381D.png"  transform="matrix(0.1836 -0.0945 0.0945 0.1836 792.7256 828.4609)">
		</image>
		<g>
			<g>
				<g>
					<g>
						<path fill="#FFFFFF" d="M879.652,807.691c-22.915-12.324-51.483-3.744-63.808,19.17c-12.327,22.914-3.746,51.48,19.168,63.809
							c22.913,12.324,51.481,3.744,63.808-19.17C911.147,848.587,902.564,820.021,879.652,807.691z M854.8,853.965
							c-2.627-1.413-3.617-4.703-2.201-7.332c1.412-2.627,4.701-3.616,7.329-2.201c2.631,1.414,3.618,4.702,2.205,7.332
							C860.717,854.393,857.429,855.381,854.8,853.965z"/>
					</g>
				</g>
				<g>
					<g>
						<g>
							<path fill="#322B2C" d="M878.938,809.02c-22.181-11.934-49.835-3.625-61.768,18.557
								c-11.932,22.18-3.625,49.832,18.556,61.766s49.836,3.626,61.767-18.557C909.426,848.606,901.119,820.953,878.938,809.02z
								 M854.224,854.959c-3.186-1.714-4.383-5.703-2.668-8.885c1.713-3.188,5.699-4.385,8.886-2.672
								c3.186,1.715,4.382,5.701,2.669,8.887C861.397,855.473,857.41,856.673,854.224,854.959z"/>
						</g>
					</g>
				</g>
			</g>
		</g>
	</g>
</g>
<g>
	<g>
		
			<image overflow="visible" opacity="0.3" width="482" height="482" xlink:href="E37C381F.png"  transform="matrix(0.1836 -0.0945 0.0945 0.1836 733.2412 796.459)">
		</image>
		<g>
			<g>
				<g>
					<g>
						<path fill="#FFFFFF" d="M820.168,775.692c-22.915-12.327-51.482-3.745-63.81,19.169
							c-12.326,22.912-3.744,51.479,19.169,63.807c22.915,12.326,51.482,3.744,63.81-19.168
							C851.662,816.586,843.08,788.02,820.168,775.692z M795.313,821.962c-2.627-1.412-3.616-4.702-2.201-7.331
							c1.412-2.628,4.703-3.616,7.332-2.201c2.628,1.416,3.616,4.703,2.201,7.331C801.231,822.391,797.943,823.377,795.313,821.962z
							"/>
					</g>
				</g>
				<g>
					<g>
						<g>
							<g>
								<path fill="#57917B" d="M819.453,777.019c-22.182-11.934-49.835-3.625-61.768,18.554
									c-11.933,22.182-3.626,49.836,18.557,61.768c22.181,11.934,49.833,3.627,61.769-18.555
									C849.941,816.605,841.634,788.949,819.453,777.019z M794.738,822.957c-3.187-1.713-4.383-5.699-2.669-8.887
									c1.714-3.186,5.701-4.383,8.887-2.668c3.185,1.713,4.383,5.699,2.67,8.885S797.925,824.671,794.738,822.957z"/>
							</g>
						</g>
					</g>
				</g>
			</g>
		</g>
	</g>
</g>
<text transform="matrix(1 0 0 1 784.6641 838.9229)" fill="#FFFFFF" font-family="'ArialMT'" font-size="5.7731">MEDICO</text>
<text transform="matrix(1 0 0 1 850.6943 871.2949)" fill="#FFFFFF" font-family="'ArialMT'" font-size="5.7731">CRM</text>
<g>
	<path fill="#2F2F2F" d="M123.056,962.648c-1.467,2.297-4.521,2.971-6.817,1.506l-56.595-36.125
		c-2.298-1.465-2.972-4.518-1.505-6.816l56.84-89.053c1.466-2.298,4.519-2.972,6.816-1.503l56.595,36.122
		c2.299,1.465,2.973,4.518,1.505,6.815L123.056,962.648z"/>
</g>
<g>
	
		<rect x="84.494" y="916.127" transform="matrix(0.8429 0.538 -0.538 0.8429 514.3371 91.592)" fill="#141414" width="31.595" height="21.229"/>
</g>
<g>
	<path fill="#141414" d="M108.603,842.148l6.376-9.988c1.466-2.298,4.519-2.972,6.816-1.503l56.595,36.122
		c2.299,1.465,2.973,4.518,1.505,6.815l-6.375,9.989L108.603,842.148z"/>
</g>
<polyline fill="none" points="84.799,924.564 90.55,915.549 114.271,930.688 108.516,939.705 "/>
<g>
	<path fill="#141414" d="M209.163,738.494l-73.184-46.708c-9.096-5.807-21.22-3.132-27.026,5.965
		c-5.806,9.097-3.129,21.224,5.967,27.028l64.514,41.172c10.5,6.699,13.586,20.688,6.885,31.185l-41.308,64.722l-2.538-1.619
		l41.311-64.722c5.761-9.028,3.17-21.034-5.76-26.892l-0.001,0.002l-64.723-41.309c-10.496-6.702-13.585-20.691-6.884-31.188
		c6.698-10.496,20.688-13.585,31.185-6.885l73.185,46.709L209.163,738.494z"/>
</g>
<g>
	<g>
		
			<rect x="225.978" y="746.121" transform="matrix(-0.8429 -0.538 0.538 -0.8429 23.1494 1509.3425)" fill="#ECEDED" width="11.848" height="10.342"/>
		
			<rect x="228.939" y="751.635" transform="matrix(-0.8428 -0.5382 0.5382 -0.8428 18.9517 1510.998)" fill="#1A171B" width="2.381" height="2.194"/>
		
			<rect x="231.399" y="747.777" transform="matrix(-0.8429 -0.5381 0.5381 -0.8429 25.6457 1505.2375)" fill="#1A171B" width="2.381" height="2.195"/>
	</g>
	<g>
		
			<rect x="207.492" y="736.067" transform="matrix(0.8429 0.538 -0.538 0.8429 430.8237 1.8137)" fill="#141414" width="9.627" height="5.431"/>
	</g>
	<g>
		
			<rect x="214.1" y="738.229" transform="matrix(0.8429 0.5381 -0.5381 0.8429 435.7151 -2.3469)" fill="#141414" width="15.552" height="13.328"/>
	</g>
</g>
</svg>
