<?xml version="1.0" encoding="utf-8"?>
<!-- Generator: Adobe Illustrator 15.0.0, SVG Export Plug-In . SVG Version: 6.00 Build 0)  -->
<!DOCTYPE svg PUBLIC "-//W3C//DTD SVG 1.1//EN" "http://www.w3.org/Graphics/SVG/1.1/DTD/svg11.dtd">
<svg version="1.1" id="Layer_1" xmlns="http://www.w3.org/2000/svg" xmlns:xlink="http://www.w3.org/1999/xlink" x="0px" y="0px"
	 width="1366px" height="563px" viewBox="0 0 1366 563" enable-background="new 0 0 1366 563" xml:space="preserve">
<rect x="-50.373" y="-11.395" fill="#D2849A" width="1465.487" height="574.393"/>
<path fill="#EA97AC" d="M492.567,298.159v-41.158H463.01v-27.355h-30.521v48.215h-32.283v51.521h-26.602v15.279v52.66v2.5h113.114
	h59.31v-55.16v-46.502L492.567,298.159L492.567,298.159z M510.717,374.735h-14.742v-17.688h14.742V374.735z M510.717,351.657
	h-14.742v-17.688h14.742V351.657z M510.717,328.577h-14.742v-17.688h14.742V328.577z M532.014,374.735h-14.742v-17.688h14.742
	V374.735z M532.014,351.657h-14.742v-17.688h14.742V351.657z M532.014,328.577h-14.742v-17.688h14.742V328.577z"/>
<path fill="#EA97AC" d="M321.373,190.53h-29.559v-27.355h-30.521v48.217h-32.282v51.521H202.41v15.279v52.66v68.969h113.115h59.308
	V278.192v-46.504h-53.459L321.373,190.53L321.373,190.53z M346.076,244.419h14.744v17.688h-14.744V244.419z M346.076,267.499h14.744
	v17.688h-14.744V267.499z M346.076,290.579h14.744v17.687h-14.744V290.579z M324.781,244.419h14.744v17.688h-14.744V244.419z
	 M324.781,267.499h14.744v17.688h-14.744V267.499z M324.781,290.579h14.744v17.687h-14.744V290.579z"/>
<path fill="#EA97AC" d="M163.934,245.663v-30.254h-21.726v-20.105h-22.436v35.439H96.044v37.869H76.489v11.231v18.314H28.118V257H1
	v142.82h21.27h59.308v-55.158v-11.188h78.057h43.594v-53.629v-34.182H163.934L163.934,245.663z M109.973,237.741h6.16v10.854h-6.16
	V237.741z M46.271,374.735H31.527v-17.687h14.744V374.735z M46.271,351.657H31.527v-17.688h14.744V351.657z M46.271,328.575H31.527
	v-17.688h14.744V328.575z M67.566,374.735H52.823v-17.687h14.744L67.566,374.735L67.566,374.735z M67.566,351.657H52.823v-17.688
	h14.744L67.566,351.657L67.566,351.657z M67.566,328.575H52.823v-17.688h14.744L67.566,328.575L67.566,328.575z M87.576,300.565
	h-5.998v-2.406h-0.163v-8.445h6.161V300.565z M87.576,285.147h-6.161v-10.854h6.161V285.147z M96.675,300.565h-6.161v-10.853h6.161
	V300.565z M96.675,285.147h-6.161v-10.854h6.161V285.147z M107.036,264.013h-6.163v-10.854h6.163V264.013z M107.036,248.595h-6.163
	v-10.854h6.163V248.595z M109.973,253.159h6.16v10.854h-6.16V253.159z M121.033,318.597h-6.16v-10.854h6.16V318.597L121.033,318.597
	z M121.033,303.177h-6.16v-10.852h6.16V303.177L121.033,303.177z M130.131,318.597h-6.161v-10.854h6.161V318.597z M130.131,303.177
	h-6.161v-10.852h6.161V303.177z M140.492,282.044h-6.161V271.19h6.161V282.044z M140.492,266.624h-6.161v-10.854h6.161V266.624z
	 M149.591,282.044h-6.161V271.19h6.161V282.044z M149.591,266.624h-6.161v-10.854h6.161V266.624z M177.276,301.95h-10.837v-13
	h10.837V301.95z M177.276,284.985h-10.837v-13h10.837V284.985z M177.276,268.019h-10.837v-12.998h10.837V268.019z M192.929,301.95
	H182.09v-13h10.838v13H192.929z M192.929,284.985H182.09v-13h10.838v13H192.929z M192.929,268.019H182.09v-12.998h10.838v12.998
	H192.929z"/>
<rect x="77.787" y="328.946" fill="#EA97AC" width="125.442" height="70.875"/>
<path fill="#EA97AC" d="M664.171,298.159v-41.158h-29.557v-27.355h-30.521v48.215h-32.284v51.521h-26.602v15.279v52.66v2.5h113.114
	h59.308v-55.16v-46.502L664.171,298.159L664.171,298.159z M682.321,374.735h-14.742v-17.688h14.742V374.735z M682.321,351.657
	h-14.742v-17.688h14.742V351.657z M682.321,328.577h-14.742v-17.688h14.742V328.577z M703.618,374.735h-14.744v-17.688h14.744
	V374.735z M703.618,351.657h-14.744v-17.688h14.744V351.657z M703.618,328.577h-14.744v-17.688h14.744V328.577z"/>
<path fill="#EA97AC" d="M1037.04,190.53h-29.56v-27.355H976.96v48.217h-32.281v51.521h-26.603v15.279v52.66v68.969h113.115h59.309
	V278.192v-46.504h-53.46V190.53z M1061.744,244.419h14.742v17.688h-14.742V244.419z M1061.744,267.499h14.742v17.688h-14.742
	V267.499z M1061.744,290.579h14.742v17.687h-14.742V290.579z M1040.448,244.419h14.743v17.688h-14.743V244.419z M1040.448,267.499
	h14.743v17.688h-14.743V267.499z M1040.448,290.579h14.743v17.687h-14.743V290.579z"/>
<path fill="#EA97AC" d="M879.602,245.663v-30.254h-21.727v-20.105h-22.438v35.439H811.71v37.869h-19.555v11.231v18.314h-48.371V257
	h-27.119v142.82h21.271h59.309v-55.158v-11.188h78.057h43.594v-53.629v-34.182H879.602L879.602,245.663z M825.64,237.741h6.161
	v10.854h-6.161V237.741z M761.938,374.735h-14.742v-17.687h14.742V374.735z M761.938,351.657h-14.742v-17.688h14.742V351.657z
	 M761.938,328.575h-14.742v-17.688h14.742V328.575z M783.232,374.735H768.49v-17.687h14.742V374.735z M783.232,351.657H768.49
	v-17.688h14.742V351.657z M783.232,328.575H768.49v-17.688h14.742V328.575z M803.242,300.565h-5.997v-2.406h-0.163v-8.445h6.16
	V300.565z M803.242,285.147h-6.16v-10.854h6.16V285.147z M812.343,300.565h-6.161v-10.853h6.161V300.565z M812.343,285.147h-6.161
	v-10.854h6.161V285.147z M822.703,264.013h-6.163v-10.854h6.163V264.013z M822.703,248.595h-6.163v-10.854h6.163V248.595z
	 M825.64,253.159h6.161v10.854h-6.161V253.159z M836.7,318.597h-6.16v-10.854h6.16V318.597z M836.7,303.177h-6.16v-10.852h6.16
	V303.177z M845.798,318.597h-6.161v-10.854h6.161V318.597z M845.798,303.177h-6.161v-10.852h6.161V303.177z M856.159,282.044h-6.161
	V271.19h6.161V282.044z M856.159,266.624h-6.161v-10.854h6.161V266.624z M865.258,282.044h-6.159V271.19h6.159V282.044z
	 M865.258,266.624h-6.159v-10.854h6.159V266.624z M892.942,301.95h-10.839v-13h10.839V301.95z M892.942,284.985h-10.839v-13h10.839
	V284.985z M892.942,268.019h-10.839v-12.998h10.839V268.019z M908.596,301.95h-10.838v-13h10.838V301.95z M908.596,284.985h-10.838
	v-13h10.838V284.985z M908.596,268.019h-10.838v-12.998h10.838V268.019z"/>
<rect x="782.126" y="344.166" fill="#EA97AC" width="109.081" height="61.632"/>
<path fill="#EA97AC" d="M1089.536,298.161v46.504v55.16h59.31h113.114v-2.5v-52.66v-15.281h-26.602v-51.521h-32.284v-48.215h-30.521
	v27.354h-29.558v41.158H1089.536z M1124.846,357.052h14.742v17.688h-14.742V357.052z M1124.846,333.972h14.742v17.688h-14.742
	V333.972z M1124.846,310.892h14.742v17.688h-14.742V310.892z M1103.549,357.052h14.743v17.688h-14.743V357.052z M1103.549,333.972
	h14.743v17.688h-14.743V333.972z M1103.549,310.892h14.743v17.688h-14.743V310.892z"/>
<path fill="#EA97AC" d="M1309.111,250.011h-47.636v41.437v108.378h52.849h100.79V338.37v-46.924v-13.613h-23.703v-45.91h-28.765
	v-42.962h-27.196v24.374h-26.339V250.011z M1287.101,277.114h-13.139v-15.762h13.139V277.114z M1287.101,297.681h-13.139v-15.763
	h13.139V297.681z M1287.101,318.243h-13.139v-15.758h13.139V318.243z M1306.076,277.114h-13.139v-15.762h13.139V277.114z
	 M1306.076,297.681h-13.139v-15.763h13.139V297.681z M1306.076,318.243h-13.139v-15.758h13.139V318.243z"/>
<rect x="-10.375" y="399.825" fill="#8F646F" width="1376.375" height="163.173"/>
<path opacity="0.27" fill="#5E5E5E" d="M716.954,450.86c0,1.975-28.438,3.579-63.519,3.579c-35.08,0-63.519-1.604-63.519-3.579
	c0-1.978,28.439-3.581,63.519-3.581C688.517,447.279,716.954,448.883,716.954,450.86"/>
<path fill-rule="evenodd" clip-rule="evenodd" fill="#DBDBDB" d="M617.696,449.878c0-1.492,1.113-2.749,2.595-2.93l5.717-0.7
	l5.73-21.873h42.494l5.73,21.873l5.717,0.7c1.481,0.181,2.595,1.438,2.595,2.93H617.696z"/>
<polygon fill-rule="evenodd" clip-rule="evenodd" fill="#BBBDBF" points="630.783,428.022 631.738,424.376 674.23,424.376 
	675.187,428.022 "/>
<path fill-rule="evenodd" clip-rule="evenodd" fill="#191919" d="M545.932,406.089V283.322c0-2.619,2.124-4.746,4.746-4.746H751.73
	c2.624,0,4.744,2.127,4.744,4.746v122.767H545.932z"/>
<path fill-rule="evenodd" clip-rule="evenodd" fill="#DBDBDB" d="M751.73,425.069H550.678c-2.622,0-4.746-2.125-4.746-4.744v-14.236
	h210.542v14.236C756.475,422.944,754.354,425.069,751.73,425.069"/>
<rect x="552.455" y="286.88" fill-rule="evenodd" clip-rule="evenodd" fill="#DB5858" width="197.495" height="110.906"/>
<path fill="#CE8766" d="M619.089,316.211h-8.057v-1.76c0-1.996-1.62-3.615-3.615-3.615h-5.935c0.494-0.893,0.773-1.998,0.773-3.123
	c0-3.696-3.006-6.708-6.699-6.708c-3.693,0-6.696,3.012-6.696,6.708c0,1.125,0.28,2.23,0.774,3.123h-4.867
	c-1.998,0-3.616,1.619-3.616,3.615v1.76h-8.064c-3.027,0-5.482,2.456-5.482,5.485v54.061c0,3.029,2.455,5.485,5.482,5.485h46.002
	c3.029,0,5.485-2.456,5.485-5.485v-54.061C624.574,318.667,622.118,316.211,619.089,316.211 M598.04,310.839h-4.97
	c-0.916-0.785-1.503-1.864-1.503-3.124c0-2.203,1.79-4,3.988-4c2.203,0,3.992,1.797,3.992,4
	C599.546,308.975,598.958,310.056,598.04,310.839"/>
<path fill="#F5F5F5" d="M619.092,372.495c0,1.862-1.51,3.373-3.373,3.373h-39.26c-1.862,0-3.373-1.511-3.373-3.373v-47.428
	c0-1.863,1.51-3.371,3.373-3.371h4.688c0,1.482,1.202,2.687,2.684,2.687h24.512c1.485,0,2.687-1.202,2.687-2.687h4.687
	c1.862,0,3.373,1.51,3.373,3.371v47.428H619.092z"/>
<path fill="#E04316" d="M583.199,329.105c2.632,0,4.765,2.133,4.765,4.764c0,2.632-2.133,4.766-4.765,4.766
	c-2.631,0-4.765-2.134-4.765-4.766C578.434,331.238,580.567,329.105,583.199,329.105"/>
<path fill="#337B80" d="M610.31,331.21h-16.251c-1.496,0-2.709,1.192-2.709,2.688c0,1.496,1.212,2.687,2.709,2.687h16.254
	c1.496,0,2.708-1.19,2.708-2.687C613.017,332.402,611.805,331.21,610.31,331.21"/>
<path fill="#E04316" d="M583.199,342.621c2.632,0,4.765,2.134,4.765,4.766s-2.133,4.765-4.765,4.765
	c-2.631,0-4.765-2.133-4.765-4.765S580.567,342.621,583.199,342.621"/>
<path fill="#337B80" d="M610.31,344.642h-16.251c-1.496,0-2.709,1.247-2.709,2.741c0,1.496,1.212,2.741,2.709,2.741h16.254
	c1.496,0,2.708-1.245,2.708-2.741C613.017,345.889,611.805,344.642,610.31,344.642"/>
<path fill="#E04316" d="M583.199,357.067c2.632,0,4.765,2.133,4.765,4.764c0,2.632-2.133,4.766-4.765,4.766
	c-2.631,0-4.765-2.134-4.765-4.766C578.434,359.2,580.567,357.067,583.199,357.067"/>
<path fill="#337B80" d="M610.31,359.079h-16.251c-1.496,0-2.709,1.247-2.709,2.741c0,1.495,1.212,2.74,2.709,2.74h16.254
	c1.496,0,2.708-1.246,2.708-2.74C613.017,360.326,611.805,359.079,610.31,359.079"/>
<path fill="#868686" d="M611.443,320.949c0,2.057-1.669,3.722-3.728,3.722h-23.313c-2.058,0-3.727-1.665-3.727-3.722v-6.42
	c0-2.057,1.668-3.723,3.727-3.723h23.313c2.059,0,3.728,1.666,3.728,3.723V320.949z"/>
<path fill="#19EAFA" d="M741.363,293.445h-41.377c-1.107,0-2.008,0.881-2.008,1.963v40.445c0,1.083,0.9,1.964,2.008,1.964h41.377
	c1.108,0,2.009-0.881,2.009-1.964v-40.445C743.372,294.326,742.472,293.445,741.363,293.445"/>
<path fill="#575756" d="M722.684,314.624c0.796,0.729,1.902,1.382,3.233,1.849c0.788,0.275,1.586,0.457,2.346,0.539
	c0.662,0.831,0.922,1.622,0.65,2.059c-0.216,0.345-0.819,0.517-1.621,0.457c-0.983-0.073-2.169-0.484-3.257-1.131
	c-0.768-0.457-1.45-1.012-1.97-1.587C722.554,316.031,722.758,315.283,722.684,314.624"/>
<path fill="#575756" d="M723.879,302.928c0.514,0.355,1.122,0.662,1.782,0.894c0.615,0.216,1.237,0.353,1.831,0.407
	c0.057,0.097,0.103,0.179,0.139,0.24c0.095,0.161,0.27,0.262,0.463,0.268c0.003,0,0.007,0,0.012,0c0.187,0,0.36-0.094,0.462-0.247
	l0.189-0.289c0.162-0.026,0.317-0.057,0.466-0.099c1.593,0.924,2.237,2.011,2.032,2.567c-0.141,0.382-0.697,0.667-1.492,0.768
	c-0.979,0.12-2.226-0.05-3.423-0.471c-2.438-0.854-3.912-2.438-3.604-3.282C722.854,303.363,723.311,303.065,723.879,302.928"/>
<path fill="#575756" d="M723.376,300.433c0.132-0.358,0.752-0.591,1.58-0.591c0.223,0,0.457,0.021,0.696,0.053
	c0.24,1.076,0.765,2.27,1.226,3.186c-0.284-0.061-0.571-0.136-0.858-0.236c-0.878-0.309-1.667-0.78-2.163-1.295
	C723.454,301.13,723.273,300.713,723.376,300.433"/>
<path fill="#575756" d="M731.321,310.73c-0.141,0.382-0.698,0.668-1.493,0.767c-0.979,0.121-2.226-0.05-3.423-0.47
	c-2.437-0.854-3.911-2.438-3.603-3.283c0.108-0.295,0.389-0.48,0.7-0.598c0.665,0.446,1.456,0.84,2.347,1.152
	c1.109,0.389,2.234,0.592,3.253,0.592c0.288,0,0.57-0.017,0.84-0.051c0.094-0.011,0.179-0.03,0.267-0.045
	C731.058,309.488,731.499,310.244,731.321,310.73"/>
<path fill="#575756" d="M731.321,314.843c-0.139,0.382-0.698,0.668-1.493,0.768c-0.979,0.121-2.226-0.051-3.423-0.469
	c-2.437-0.855-3.911-2.439-3.603-3.286c0.095-0.258,0.386-0.475,0.815-0.615c0.656,0.432,1.429,0.814,2.299,1.118
	c1.107,0.39,2.233,0.593,3.25,0.593c0.29,0,0.572-0.017,0.842-0.051c0.056-0.008,0.106-0.018,0.158-0.027
	C731.038,313.573,731.505,314.344,731.321,314.843"/>
<path fill="#575756" d="M723.767,336.259c0.392-0.348,0.669-0.938,1.196-1.011c0.527-0.074,0.507,0.262,1.107,0.597
	c-0.726,0.435-1.141,0.76-1.616,0.924C724.307,336.82,724.001,336.44,723.767,336.259"/>
<path fill="#575756" d="M724.8,333.798c-1.858,2.188-6.478,1.149-7.485-0.252c-0.773-0.93-0.694-2.034,0.149-2.644
	c0.608-0.44,1.14-0.541,1.642,0.248c0.429,0.672,1.001,1.278,1.602,1.815c0.193,0.174,0.81,0.178,1.009,0.008
	c0.583-0.494,1.022-1.146,1.577-1.679c0.299-0.289,0.831-0.729,1.053-0.638c0.468,0.197,1.116,0.697,1.122,1.08
	C725.478,332.44,725.291,333.409,724.8,333.798"/>
<path fill="#575756" d="M717.369,335.254c0.425-0.004,0.928,0.502,1.6,0.899c-0.451,0.339-0.751,0.673-0.854,0.623
	c-0.479-0.229-0.899-0.569-1.339-0.868C716.978,335.678,716.944,335.256,717.369,335.254"/>
<path fill="#575756" d="M719.469,337.425c1.186-0.743,2.266-0.756,3.453-0.018c0.388,0.239,0.753,0.405,1.097,0.503h-5.602
	C718.751,337.814,719.104,337.654,719.469,337.425"/>
<path fill="#1E1E1E" d="M743.473,337.911h-18.125v-0.001c0.703-0.246,1.244-0.928,1.587-2.016c0.2-0.634,0.269-2.299,1.288-2.689
	c1.513-1.276,3.77-3.079,3.27-4.879c-0.232-0.564-0.443-1.475-0.932-2.208c-1.437-2.153-3.89-2.479-5.825-0.84
	c-0.702,0.597-1.368,1.247-1.992,1.923c-1.113,1.21-1.938,1.216-3.05,0.019c-0.627-0.677-1.285-1.329-1.99-1.924
	c-2.016-1.695-4.581-1.253-5.999,1c-1.136,1.803-0.947,3.2,0.535,4.79c0.462,0.495,0.743,1.148,1.106,1.73
	c1.587,1.06,1.896,2.127,2.139,3.04c0.294,1.109,0.849,1.804,1.576,2.054h-19.179v-44.559h21.825
	c-0.186,0.115-0.317,0.309-0.317,0.541c0,0.259,0.155,0.481,0.382,0.585c0.121,0.145,2.198,0.042,2.198,0.042
	c0.041,0,0.075,0.033,0.075,0.074v0.402c0,0.041-0.034,0.074-0.075,0.074h-1.689c-0.366,0-0.664,0.291-0.664,0.649
	s0.298,0.649,0.664,0.649h1.243c0,0.005-0.001,0.009-0.001,0.013v0.429h-0.964c-0.287,0-0.532,0.182-0.624,0.434
	c-0.568,0.207-0.977,0.741-0.977,1.369v0.485c-0.427-0.191-0.958-0.296-1.583-0.296c-0.422,0-0.867,0.053-1.318,0.145
	c0.011-0.384-0.034-0.73-0.169-1.013c-0.821-1.736-4.277-2.562-4.668-2.649c-0.023-0.005-0.048-0.009-0.071-0.011
	c0,0-0.119-0.013-0.309-0.013c-0.598,0-1.686,0.118-2.248,0.909c-0.406,0.568-0.434,1.331-0.081,2.263
	c0.014,0.038,0.034,0.074,0.059,0.107c-0.086-0.052-0.174-0.094-0.256-0.121c-0.26-0.084-0.62,0.128-0.934,0.209
	c-0.359,0.091-0.725,0.273-1.077,0.255c-0.981-0.047-1.211,0.301-0.939,1.241c0.229,0.789,0.4,1.635,0.369,2.446
	c-0.073,2.053-0.187,4.11-0.45,6.146c-0.262,2.022-0.146,3.979-1.792,5.841c-0.249,0.21,0.014,0.667,0.174,0.935
	c0.093,0.157,0.562,0.29,0.704,0.198c0.593-0.383,1.148-0.626,1.809-0.169c0.052,0.037,0.151,0.01,0.263,0.013
	c0.66-0.092,0.562-0.547,0.494-1.026c-0.14-0.947-0.386-1.907-0.335-2.85c0.174-3.29,0.464-6.577,0.692-9.865
	c0.06-0.861,0.219-1.589,1.231-1.884c0.261-0.076,0.608-0.562,0.56-0.782c-0.002-0.008-0.008-0.015-0.01-0.022l1.465,1.608
	l1.078,1.648c-0.01,0.209,0.014,0.414,0.086,0.613c0.033,0.09,0.075,0.174,0.123,0.255c-1.743,1.183-2.566,2.676-2.109,3.916
	c0.162,0.445,0.472,0.812,0.899,1.096c-0.945,0.98-1.305,2.043-0.966,2.966c0.172,0.469,0.505,0.854,0.972,1.142
	c-0.941,0.979-1.31,2.05-0.972,2.971c0.337,0.92,1.286,1.521,2.676,1.693c0.005,0,0.01,0,0.016,0.001
	c-0.561,1.036-0.63,2.03-0.157,2.79c0.465,0.749,1.361,1.149,2.547,1.149c0.137,0,0.276-0.006,0.421-0.017
	c1.22-0.09,2.604-0.562,3.899-1.333c0.31-0.183,0.601-0.383,0.88-0.589c0.009,0.001,0.017,0.003,0.026,0.003h2.422
	c0.013,0,0.022,0.002,0.035,0.003c0.109,0.081,0.219,0.162,0.335,0.24c0.019,0.046,0.028,0.094,0.028,0.146v0.296
	c0,0.214-0.177,0.39-0.398,0.39h-2.422c-0.368,0-0.664,0.29-0.664,0.648c0,0.185,0.079,0.351,0.206,0.469
	c0.106,0.221,0.334,0.374,0.598,0.374h2.141c0.152,0,0.274,0.12,0.274,0.269v0.262c0,0.147-0.122,0.268-0.274,0.268h-2.141
	c-0.365,0-0.663,0.291-0.663,0.65c0,0.259,0.156,0.481,0.382,0.584c0.121,0.145,0.303,0.238,0.509,0.238h1.688
	c0.042,0,0.077,0.033,0.077,0.073v0.207c0,0.042-0.035,0.074-0.077,0.074h-1.69c-0.367,0-0.664,0.291-0.664,0.65
	c0,0.358,0.297,0.648,0.664,0.648h1.242c0,0.005-0.001,0.01-0.001,0.014v0.428H720.6c-0.365,0-0.664,0.292-0.664,0.649
	c0,0.358,0.299,0.649,0.664,0.649h1.131c0.64,0,1.162-0.51,1.162-1.135v-0.593c0-0.098-0.024-0.191-0.064-0.274
	c0.354-0.249,0.588-0.654,0.588-1.112v-0.206c0-0.221-0.06-0.427-0.154-0.611c0.354-0.288,0.578-0.72,0.578-1.203v-0.262
	c0-0.338-0.111-0.649-0.298-0.905c0.268-0.239,0.459-0.56,0.532-0.92c1.054,0.517,2.134,0.838,3.108,0.909
	c0.145,0.012,0.284,0.018,0.422,0.018c1.186,0,2.081-0.401,2.547-1.15c0.472-0.759,0.402-1.753-0.159-2.79
	c0.006,0,0.012,0,0.018-0.001c1.389-0.172,2.338-0.773,2.676-1.693c0.337-0.92-0.031-1.991-0.971-2.971
	c0.466-0.288,0.798-0.672,0.971-1.141c0.338-0.924-0.021-1.985-0.967-2.968c0.429-0.282,0.738-0.649,0.899-1.094
	c0.455-1.24-0.369-2.733-2.109-3.916c0.049-0.081,0.09-0.166,0.122-0.255c0.165-0.451,0.102-0.938-0.145-1.415l0.555-0.847
	l1.261-1.385c0.087,0.233,0.332,0.522,0.528,0.58c1.011,0.295,1.172,1.023,1.232,1.884c0.229,3.289,0.517,6.575,0.692,9.866
	c0.05,0.941-0.197,1.901-0.335,2.85c-0.07,0.479-0.166,0.934,0.493,1.026c0.11-0.003,0.209,0.023,0.263-0.013
	c0.66-0.458,1.216-0.215,1.809,0.169c0.143,0.091,0.612-0.041,0.705-0.198c0.16-0.269,0.422-0.726,0.174-0.935
	c-1.647-1.861-1.533-3.819-1.793-5.842c-0.264-2.036-0.376-4.093-0.45-6.146c-0.03-0.812,0.141-1.658,0.368-2.446
	c0.272-0.941,0.045-1.289-0.939-1.241c-0.354,0.018-0.717-0.164-1.076-0.256c-0.301-0.077-0.644-0.271-0.899-0.215
	c0.344-0.923,0.316-1.679-0.087-2.243c-0.562-0.79-1.649-0.909-2.247-0.909c-0.189,0-0.309,0.013-0.309,0.013
	c-0.024,0.002-0.05,0.006-0.07,0.011c-0.393,0.088-3.85,0.913-4.669,2.649c-0.121,0.253-0.17,0.56-0.17,0.896
	c-0.191-0.018-0.381-0.027-0.563-0.027c-0.662,0-1.224,0.114-1.66,0.327v-0.517c0-0.463-0.223-0.875-0.566-1.144
	c0.075-0.15,0.121-0.316,0.121-0.495v-0.593c0-0.098-0.022-0.19-0.063-0.273c0.354-0.25,0.587-0.654,0.587-1.112v-0.207
	c0-0.188,0.06-1.112-0.711-1.437h20.806L743.473,337.911"/>
<path fill="#575756" d="M716.67,303.821c0.659-0.23,1.269-0.538,1.783-0.893c0.568,0.137,1.024,0.436,1.142,0.756
	c0.311,0.845-1.164,2.428-3.604,3.283c-1.196,0.419-2.443,0.591-3.422,0.469c-0.795-0.1-1.353-0.385-1.493-0.767
	c-0.192-0.526,0.373-1.525,1.78-2.413l0.153,0.234c0.101,0.153,0.274,0.247,0.46,0.247c0.005,0,0.009,0,0.014-0.001
	c0.191-0.005,0.366-0.106,0.463-0.269c0.032-0.056,0.075-0.132,0.125-0.219c0.07,0.002,0.138,0.007,0.209,0.007
	C715.033,304.256,715.86,304.105,716.67,303.821"/>
<path fill="#575756" d="M714.639,303.199c0.452-0.89,0.983-2.068,1.249-3.15c0.515-0.135,1.022-0.207,1.487-0.207
	c0.829,0,1.449,0.232,1.58,0.591c0.104,0.28-0.077,0.697-0.479,1.116c-0.497,0.515-1.285,0.986-2.164,1.295
	C715.744,303.043,715.173,303.16,714.639,303.199"/>
<path fill="#575756" d="M712.122,308.795c0.089,0.015,0.173,0.034,0.266,0.045c0.269,0.034,0.552,0.051,0.841,0.051
	c1.019,0,2.142-0.203,3.252-0.592c0.891-0.312,1.683-0.706,2.347-1.152c0.312,0.117,0.592,0.303,0.7,0.598
	c0.31,0.846-1.164,2.429-3.603,3.283c-1.196,0.42-2.444,0.591-3.423,0.47c-0.795-0.099-1.352-0.385-1.493-0.767
	C710.831,310.244,711.274,309.488,712.122,308.795"/>
<path fill="#575756" d="M712.162,312.873c0.055,0.01,0.105,0.021,0.159,0.027c0.27,0.034,0.552,0.051,0.841,0.051
	c1.019,0,2.145-0.203,3.253-0.593c0.868-0.304,1.643-0.687,2.298-1.118c0.429,0.141,0.719,0.357,0.814,0.615
	c0.311,0.847-1.164,2.431-3.603,3.286c-1.196,0.417-2.444,0.589-3.423,0.469c-0.795-0.1-1.354-0.386-1.493-0.767
	C710.826,314.344,711.292,313.573,712.162,312.873"/>
<path fill="#575756" d="M714.07,317.012c0.759-0.082,1.557-0.264,2.345-0.539c1.332-0.467,2.437-1.119,3.233-1.849
	c-0.075,0.659,0.129,1.407,0.616,2.186c-0.52,0.575-1.201,1.13-1.97,1.587c-1.086,0.646-2.272,1.058-3.255,1.131
	c-0.802,0.06-1.406-0.112-1.622-0.457C713.147,318.634,713.406,317.843,714.07,317.012"/>
<g>
	<path fill="#CE0E0B" d="M739.075,361.679c-0.706,3.391-2.974,6.925-7.14,11.122c-3.731,3.759-8.66,7.749-14.358,12.295
		c-0.955-0.796-1.888-1.569-2.798-2.326c-10.104-8.394-17.405-14.457-18.79-21.078c-0.813-3.888-0.141-7.782,1.798-10.416
		c1.573-2.137,3.84-3.359,6.736-3.637c0.296-0.029,0.594-0.043,0.886-0.043l0,0c1.611-0.003,3.188,0.428,4.692,1.282
		c3.124,1.771,5.185,2.851,7.437,2.845c2.244-0.003,4.298-1.079,7.413-2.851c1.516-0.861,3.04-1.279,4.665-1.283
		c0.301,0,0.607,0.014,0.912,0.043c2.897,0.274,5.166,1.496,6.739,3.633C739.209,353.897,739.885,357.79,739.075,361.679z"/>
	
		<polyline fill="none" stroke="#FFFFFF" stroke-width="0.8604" stroke-linecap="round" stroke-linejoin="round" stroke-miterlimit="10" points="
		700.382,365.195 708.134,365.195 709.869,356.091 714.033,371.467 716.971,361.453 719.499,369.747 721.422,363.323 
		723.041,367.421 724.892,364.386 726.906,364.386 728.705,354.573 729.717,367.825 731.133,363.98 736.799,363.98 	"/>
</g>
<path opacity="0.08" d="M717.531,351.723v33.335"/>
<path fill="#F5F5F5" d="M685.189,326.505c-0.644-0.644-1.501-0.997-2.41-0.997h-9.315v-4.733c0-1.441-1.172-2.613-2.612-2.613
	h-22.553c-1.44,0-2.612,1.172-2.612,2.613v4.733h-9.315c-1.879,0-3.409,1.529-3.409,3.407v38.796c0,1.881,1.53,3.41,3.409,3.41
	h46.405c1.881,0,3.409-1.529,3.409-3.41v-38.795C686.187,328.007,685.834,327.149,685.189,326.505 M670.282,327.365h-21.413v-6.021
	h21.413V327.365z"/>
<polygon fill="#E04316" points="671.077,350.795 662.055,350.795 662.055,359.818 657.093,359.818 657.093,350.795 648.073,350.795 
	648.073,345.836 657.093,345.836 657.093,336.813 662.055,336.813 662.055,345.836 671.077,345.836 "/>
<path fill="#B0B0B0" d="M759.834,420.742c0,0-1.382,2.571,8.429,4.714h205.358c0,0,6.869-0.439,8.68-3.679l0.012-1.774
	L759.834,420.742z"/>
<path fill="#FFFFFF" d="M759.882,415.551h222.503v5.712c0,0,0.333,0.767-2.285,0.574H761.978c0,0-2.051,0.575-2.241-0.765
	L759.882,415.551z"/>
<path fill="#B0B0B0" d="M856.021,415.596c0,0-0.86,2.86,1.999,3.145h25.814c0,0,2.743,0.354,2.378-3.046L856.021,415.596z"/>
<path fill="#161D21" d="M960.507,415.524V314.109c0-4.604-3.765-8.369-8.366-8.369H789.997c-4.602,0-8.367,3.766-8.367,8.369
	v101.415H960.507z"/>
<rect x="787.383" y="312.02" fill="#FFF2CA" width="167.369" height="97.279"/>
<g opacity="0.2">
	<path fill="#FFFFFF" d="M982.385,421.263v-5.712H871.707v9.905h101.914c0,0,6.869-0.439,8.68-3.679l0.002-0.221
		C982.446,421.41,982.385,421.263,982.385,421.263z"/>
</g>
<path fill="#27AAE1" d="M904.603,352.358c0,0.686-0.607,1.238-1.354,1.238h-64.351c-0.747,0-1.354-0.553-1.354-1.238V331.37
	c0-0.684,0.607-1.238,1.354-1.238h64.351c0.747,0,1.354,0.555,1.354,1.238V352.358z"/>
<g opacity="0.2">
	<g>
		<defs>
			<rect id="SVGID_1_" x="838.897" y="331.37" width="65.705" height="22.227"/>
		</defs>
		<clipPath id="SVGID_2_">
			<use xlink:href="#SVGID_1_"  overflow="visible"/>
		</clipPath>
		<path clip-path="url(#SVGID_2_)" fill="#1C75BC" d="M903.248,353.597c0.747,0,1.354-0.553,1.354-1.238V331.37l-65.705,22.227
			H903.248z"/>
	</g>
</g>
<path fill="#FFFFFF" d="M852.859,338.176l-0.597,2.757h0.088c1.03,0,1.763-1.106,1.763-2.051c0-0.694-0.396-1.302-1.366-1.302
	c-2.012,0-3.354,1.129-3.354,3.017c0,0.633,0.162,0.732,0.175,0.845c-0.856,0-1.33-0.312-1.33-1.205c0-1.652,2.287-3.229,4.36-3.229
	c1.949,0,2.819,0.97,2.819,1.987c0,0.733-0.447,1.503-1.244,1.962c1.021,0.199,1.43,1.056,1.43,2.024
	c0,1.602-1.105,3.553-2.471,3.553c-0.746,0-1.467-0.074-1.467-0.858c0-0.21,0.05-0.472,0.162-0.781
	c0.235,0.385,0.657,0.447,0.832,0.447c0.684,0,1.229-1.229,1.229-2.285c0-0.807-0.311-1.527-1.13-1.527
	c-0.161,0-0.398,0.013-0.622,0.036l-1.017,4.758h-1.789l1.688-7.899L852.859,338.176z M861.951,340.112l-0.895,4.223
	c-0.025,0.137-0.05,0.272-0.05,0.385c0,0.272,0.124,0.471,0.621,0.471c0.496,0,1.143-0.694,1.64-1.092h0.422
	c-0.571,0.572-1.975,2.224-2.943,2.224c-0.845,0-1.415-0.323-1.527-1.044c-0.584,0.547-1.255,1.044-1.789,1.044
	c-0.956,0-1.552-0.424-1.552-1.354c0-0.186,0.024-0.397,0.074-0.633l0.895-4.223h1.788l-0.894,4.223
	c-0.025,0.137-0.05,0.272-0.05,0.385c0,0.272,0.124,0.471,0.621,0.471c0.26,0,0.57-0.198,0.881-0.445
	c0.014-0.125,0.037-0.261,0.075-0.41l0.894-4.223H861.951z M865.118,340.112l-0.906,4.223c-0.037,0.137-0.062,0.272-0.062,0.396
	c0,0.273,0.137,0.459,0.622,0.459c0.285,0,0.62-0.223,0.943-0.496l0.969-4.582h1.802l-1.517,7.203
	c-0.372,1.775-1.44,2.111-2.26,2.111c-0.759,0-1.466-0.534-1.466-1.342c0-1.154,0.969-1.516,2.148-1.862l0.187-0.856
	c-0.559,0.51-1.191,0.956-1.689,0.956c-0.969,0-1.54-0.424-1.54-1.354c0-0.199,0.026-0.397,0.075-0.633l0.869-4.223H865.118z
	 M864.422,348.32c0.25,0,0.584-0.235,0.733-0.967l0.149-0.733c-0.782,0.26-1.378,0.621-1.378,1.291
	C863.927,348.085,864.149,348.32,864.422,348.32z M880.296,337.032l-1.976,9.29h-1.788c-0.583,0-0.719-1.094-0.719-2.534
	c0-1.218,0.086-2.671,0.086-3.962c0-0.385,0-0.757-0.025-1.105l-1.614,7.602h-1.788l1.801-8.446
	c-1.094,0.46-1.738,1.403-1.738,2.721c0,0.633,0.161,0.732,0.174,0.845c-0.857,0-1.329-0.312-1.329-1.205
	c0-1.652,2.285-3.229,4.358-3.229c1.044,0,1.131,0.534,1.131,2.31c0,1.305-0.137,2.933-0.137,4.137c0,0.57,0.037,1.057,0.124,1.354
	l1.652-7.774H880.296z M884.705,341.813c0.075,0.074,0.188,0.112,0.36,0.112c0.584,0,0.845-0.424,1.305-0.608l0.049,0.26
	c-0.384,0.485-1.029,0.896-1.75,1.093c-0.237,2.497-1.59,3.727-2.831,3.727c-1.331,0-1.9-0.56-1.9-2.037
	c0-3.056,1.552-4.371,3.266-4.371C884.383,339.988,884.682,340.907,884.705,341.813z M883.749,342.795
	c-0.36,0-0.521-0.261-0.521-0.56c0-0.359,0.212-0.745,0.546-0.869c-0.036-0.41-0.173-0.646-0.521-0.646
	c-1.167,0-1.664,2.533-1.664,3.527c0,0.744,0.347,0.942,0.831,0.942C883.178,345.19,883.601,343.999,883.749,342.795z
	 M893.573,340.981c0,1.938-0.98,5.341-3.489,5.341c-0.846,0-1.391-0.323-1.516-1.031c-0.583,0.534-1.255,1.031-1.776,1.031
	c-0.956,0-1.552-0.424-1.552-1.354c0-0.186,0.025-0.397,0.075-0.633l0.894-4.223h1.789l-0.895,4.223
	c-0.024,0.137-0.051,0.272-0.051,0.385c0,0.272,0.126,0.471,0.622,0.471c0.261,0,0.57-0.186,0.869-0.434
	c0-0.124,0.024-0.272,0.062-0.422l0.895-4.223h1.788l-0.894,4.223c-0.037,0.175-0.062,0.322-0.062,0.459
	c0,0.235,0.111,0.396,0.473,0.396c1.217,0,2.049-2.718,2.049-4.073c-0.075,0.025-0.186,0.051-0.261,0.051
	c-0.36,0-0.521-0.348-0.521-0.695c0-0.261,0.298-0.609,0.707-0.609C893.312,339.863,893.573,340.336,893.573,340.981z"/>
<g opacity="0.5">
	<g>
		<defs>
			<rect id="SVGID_3_" x="865.383" y="352.013" width="9.496" height="9.494"/>
		</defs>
		<clipPath id="SVGID_4_">
			<use xlink:href="#SVGID_3_"  overflow="visible"/>
		</clipPath>
		<path clip-path="url(#SVGID_4_)" fill="#FFFFFF" d="M874.879,356.76c0,2.622-2.126,4.747-4.748,4.747s-4.747-2.125-4.747-4.747
			c0-2.621,2.125-4.747,4.747-4.747S874.879,354.139,874.879,356.76"/>
	</g>
</g>
<g opacity="0.3">
	<g>
		<defs>
			<rect id="SVGID_5_" x="858.719" y="345.348" width="22.825" height="22.824"/>
		</defs>
		<clipPath id="SVGID_6_">
			<use xlink:href="#SVGID_5_"  overflow="visible"/>
		</clipPath>
		<path clip-path="url(#SVGID_6_)" fill="#FFFFFF" d="M870.131,345.348c-6.303,0-11.412,5.11-11.412,11.412
			c0,6.304,5.109,11.412,11.412,11.412s11.413-5.108,11.413-11.412C881.544,350.458,876.434,345.348,870.131,345.348
			 M870.131,364.688c-4.378,0-7.929-3.55-7.929-7.929c0-4.378,3.551-7.927,7.929-7.927s7.928,3.549,7.928,7.927
			C878.059,361.139,874.509,364.688,870.131,364.688"/>
	</g>
</g>
<path fill="#FBC088" d="M878.769,367.598c0,0-2.558-1.574-6.642-2.082v-9.125c0-0.744-0.602-1.347-1.345-1.347h-1.326
	c-0.743,0-1.346,0.603-1.346,1.347v10.468v1.272l-2.176-2.273c-0.513-0.538-1.363-0.557-1.901-0.043l-0.957,0.916
	c-0.538,0.513-0.556,1.365-0.042,1.902l3.072,3.212l0.001,0.001l0.104,0.108c0.41,0.443,2.885,1.832,3.032,6.618v4.392
	c0,0.827,0.673,1.498,1.501,1.498h6.399c0.828,0,1.501-0.671,1.501-1.498v-4.784c0,0,0.969-1.02,1.672-2.433v-5.541
	C880.316,368.226,878.769,367.598,878.769,367.598"/>
<path fill="#FBE0B5" d="M870.636,355.588h-1.01c-0.565,0-1.024,0.459-1.024,1.024v1.32h3.059v-1.32
	C871.66,356.047,871.201,355.588,870.636,355.588"/>
<path fill="#FBE0B5" d="M862.699,367.705l-0.034,0.033c0.01,0.321,0.128,0.643,0.368,0.895l1.326,1.385l1.184-1.146l-1.103-1.14
	C863.967,367.244,863.188,367.232,862.699,367.705"/>
<rect x="867.603" y="383.01" fill="#FFFFFF" width="13.318" height="2.96"/>
<rect x="866.997" y="384.726" fill="#F15A29" width="14.397" height="14.267"/>
<path fill="#FFFFFF" d="M880.584,387.349c0,0.743-0.602,1.346-1.345,1.346s-1.346-0.603-1.346-1.346s0.603-1.346,1.346-1.346
	S880.584,386.605,880.584,387.349"/>
<line fill="none" x1="840.565" y1="457.261" x2="840.565" y2="732.283"/>
<rect x="807.159" y="371.486" fill="#FFFFFF" width="16.365" height="11.84"/>
<path fill="#891021" d="M808.69,396.717c-1.929,0.009-3.505-1.554-3.513-3.483c-0.009-1.929,1.555-3.506,3.483-3.513
	c1.929-0.01,3.505,1.554,3.514,3.483C812.182,395.132,810.619,396.71,808.69,396.717 M808.667,391.22
	c-1.102,0.005-1.995,0.905-1.99,2.008c0.005,1.102,0.905,1.994,2.008,1.99c1.103-0.005,1.995-0.905,1.99-2.007
	C810.67,392.107,809.77,391.215,808.667,391.22"/>
<path fill="#891021" d="M820.04,396.669c-1.928,0.009-3.505-1.554-3.513-3.483s1.554-3.506,3.482-3.514
	c1.93-0.009,3.506,1.554,3.515,3.483S821.97,396.66,820.04,396.669 M820.018,391.171c-1.103,0.006-1.997,0.905-1.992,2.008
	c0.007,1.102,0.907,1.995,2.009,1.99s1.995-0.904,1.991-2.007C822.021,392.059,821.119,391.166,820.018,391.171"/>
<path fill="#891021" d="M827.77,369.663c-0.176-0.038-0.35-0.034-0.515,0.003l-22.147,0.094c-0.031-0.18-0.051-0.292-0.056-0.322
	c-0.017-0.097-0.046-0.191-0.087-0.282c-0.062-0.138-1.574-3.403-5.408-3.388l-3.798,0.017c-0.663,0.002-1.197,0.542-1.195,1.205
	c0.004,0.661,0.543,1.196,1.205,1.193l3.799-0.017c1.964-0.008,2.917,1.445,3.151,1.863c0.132,0.773,0.693,3.912,0.923,7.02
	l0.928,8.834c0.007,0.065,0.021,0.13,0.039,0.193c0.255,0.9,1.395,2.421,4.037,2.408l15.388-0.065
	c0.632-0.003,1.142-0.518,1.14-1.149c-0.004-0.632-0.517-1.142-1.15-1.14l-15.388,0.065c-1.281,0.006-1.695-0.518-1.807-0.718
	l-0.083-0.802c0.451,0.13,0.831,0.151,1.031,0.148c0.032,0,0.06-0.001,0.082-0.002c0.461-0.001,7.299-0.031,12.319-0.052h0.004
	c4.987-0.021,6.306-3.674,6.36-3.829c0.014-0.045,0.028-0.092,0.038-0.137l2.106-9.714
	C828.827,370.442,828.416,369.805,827.77,369.663 M818.972,380.047l-3.738,2.613c0,0.002,0,0.002,0,0.003
	c-0.035,0.023-0.072,0.045-0.111,0.065c0,0.001-0.003,0.002-0.004,0.002c-0.008,0.005-0.019,0.006-0.026,0.011
	c-0.029,0.013-0.059,0.025-0.087,0.034c-0.017,0.005-0.029,0.011-0.044,0.014c-0.026,0.008-0.052,0.014-0.078,0.019
	c-0.015,0.001-0.028,0.006-0.043,0.007c-0.034,0.005-0.069,0.009-0.106,0.009c-0.003,0-0.007,0.001-0.011,0.001
	c-0.043,0-0.087-0.005-0.13-0.011c-0.012-0.001-0.023-0.005-0.035-0.005c-0.032-0.006-0.065-0.016-0.098-0.024
	c-0.011-0.004-0.022-0.006-0.032-0.01c-0.042-0.015-0.083-0.031-0.122-0.05c-0.003-0.002-0.005-0.006-0.008-0.006
	c-0.037-0.02-0.072-0.043-0.106-0.066c-0.004-0.004-0.009-0.005-0.013-0.008l-3.71-2.784c-0.397-0.298-0.479-0.861-0.18-1.258
	c0.297-0.398,0.861-0.479,1.26-0.181l2.262,1.698l-0.03-7.087c-0.002-0.498,0.399-0.902,0.896-0.904
	c0.497-0.002,0.903,0.398,0.904,0.896l0.031,7.178l2.328-1.629c0.407-0.285,0.969-0.188,1.253,0.22
	C819.479,379.2,819.378,379.762,818.972,380.047"/>
<path fill="#DB2A28" d="M939.188,374.736c0.459,0.664,0.291,1.573-0.373,2.031l-22.975,15.84c-0.664,0.459-1.574,0.291-2.032-0.374
	l-9.205-13.351c-0.458-0.665-0.291-1.574,0.373-2.032l22.975-15.839c0.664-0.458,1.575-0.29,2.033,0.373L939.188,374.736z"/>
<path fill="#93B3B5" d="M920.771,386.022c0.106,0.154,0.067,0.363-0.086,0.469l-5.298,3.653c-0.152,0.106-0.363,0.066-0.468-0.087
	l-2.123-3.078c-0.106-0.153-0.067-0.364,0.085-0.469l5.298-3.652c0.153-0.106,0.364-0.067,0.47,0.085L920.771,386.022z"/>
<rect x="904.044" y="370.849" transform="matrix(-0.8233 0.5676 -0.5676 -0.8233 1888.3099 158.6585)" fill="#414042" width="30.828" height="4.844"/>
<rect x="905.626" y="375.201" transform="matrix(0.8233 -0.5676 0.5676 0.8233 -50.4238 589.1618)" fill="#FFFFFF" width="30.827" height="0.73"/>
<path fill="#FBB040" d="M933.119,375.254c0.686,0.995,0.189,2.53-1.109,3.427c-1.299,0.895-2.909,0.813-3.597-0.184
	c-0.686-0.997-0.189-2.53,1.109-3.427C930.821,374.175,932.431,374.257,933.119,375.254"/>
<path fill="#27AAE1" d="M935.471,373.632c0.687,0.998,0.19,2.53-1.109,3.427c-1.299,0.895-2.908,0.812-3.595-0.183
	c-0.688-0.997-0.191-2.531,1.107-3.427C933.174,372.554,934.783,372.637,935.471,373.632"/>
<path fill="#657E59" d="M930.866,374.504c-0.488,0.795-0.562,1.704-0.1,2.372c0.46,0.667,1.334,0.922,2.251,0.75
	c0.488-0.797,0.562-1.705,0.102-2.372C932.658,374.586,931.784,374.331,930.866,374.504"/>
<path fill="#275693" d="M944.527,396.366c0.089,0.801-0.487,1.524-1.289,1.614l-27.73,3.112c-0.802,0.091-1.525-0.486-1.616-1.289
	l-1.809-16.114c-0.09-0.803,0.486-1.525,1.289-1.615l27.73-3.113c0.802-0.089,1.525,0.486,1.615,1.289L944.527,396.366z"/>
<path fill="#93B3B5" d="M922.962,397.617c0.021,0.186-0.113,0.352-0.298,0.371l-6.395,0.72c-0.185,0.021-0.352-0.112-0.372-0.298
	l-0.418-3.717c-0.02-0.185,0.112-0.351,0.298-0.371l6.395-0.719c0.186-0.021,0.352,0.113,0.373,0.297L922.962,397.617z"/>
<rect x="912.413" y="383.333" transform="matrix(-0.9938 0.1115 -0.1115 -0.9938 1892.8823 665.6378)" fill="#414042" width="30.825" height="4.847"/>
<rect x="912.723" y="388.161" transform="matrix(0.9938 -0.1115 0.1115 0.9938 -37.5448 105.9493)" fill="#FFFFFF" width="30.827" height="0.731"/>
<path fill="#FBB040" d="M938.931,393.956c0.136,1.203-1.026,2.319-2.595,2.496c-1.568,0.175-2.948-0.656-3.084-1.859
	c-0.135-1.202,1.027-2.32,2.596-2.495C937.415,391.92,938.797,392.753,938.931,393.956"/>
<path fill="#BE1E2D" d="M941.77,393.638c0.135,1.202-1.026,2.319-2.595,2.496c-1.567,0.176-2.948-0.656-3.084-1.86
	c-0.135-1.202,1.028-2.32,2.595-2.495C940.254,391.602,941.636,392.435,941.77,393.638"/>
<path fill="#F15A29" d="M937.3,392.231c-0.805,0.472-1.298,1.237-1.209,2.042c0.092,0.807,0.741,1.444,1.631,1.725
	c0.807-0.471,1.3-1.236,1.209-2.043C938.841,393.149,938.189,392.513,937.3,392.231"/>
<path fill="#B0B0B0" d="M324.364,436.033c0,0-1.46,2.717,8.906,4.98H550.26c0,0,7.259-0.463,9.17-3.885l0.012-1.876L324.364,436.033
	z"/>
<path fill="#FFFFFF" d="M324.415,430.548H559.52v6.035c0,0,0.353,0.81-2.415,0.607H326.626c0,0-2.164,0.607-2.365-0.807
	L324.415,430.548z"/>
<path fill="#B0B0B0" d="M425.999,430.595c0,0-0.908,3.023,2.113,3.324h27.275c0,0,2.9,0.375,2.514-3.22L425.999,430.595z"/>
<path fill="#161D21" d="M536.403,430.521V323.362c0-4.865-3.978-8.845-8.841-8.845H356.236c-4.863,0-8.842,3.979-8.842,8.845
	v107.158H536.403z"/>
<rect x="353.473" y="321.152" fill="#F4AC56" width="176.851" height="102.79"/>
<g opacity="0.2">
	<path fill="#FFFFFF" d="M559.52,436.583v-6.035H442.574v10.466H550.26c0,0,7.259-0.463,9.17-3.885l0.003-0.233
		C559.586,436.738,559.52,436.583,559.52,436.583z"/>
</g>
<rect x="402.967" y="351.713" fill-rule="evenodd" clip-rule="evenodd" fill="#FFFFFF" width="79.212" height="54.35"/>
<g opacity="0.9">
	<rect x="410.668" y="345.775" fill-rule="evenodd" clip-rule="evenodd" fill="#00628D" width="63.809" height="11.654"/>
</g>
<g>
	<g>
		<path opacity="0.7" fill-rule="evenodd" clip-rule="evenodd" fill="#CCCCCC" d="M477.834,373.176c0,0.299-0.243,0.539-0.541,0.539
			h-67.337c-0.298,0-0.541-0.24-0.541-0.539v-8.822c0-0.299,0.242-0.541,0.541-0.541h67.337c0.298,0,0.541,0.242,0.541,0.541
			V373.176z"/>
		<g opacity="0.7">
			<path fill="#707487" d="M422.498,369.614c0.127,0,0.233-0.026,0.317-0.074c0.084-0.049,0.152-0.114,0.202-0.193
				c0.05-0.078,0.086-0.168,0.106-0.271c0.02-0.102,0.03-0.205,0.03-0.311v-1.104h0.277v1.104c0,0.148-0.017,0.289-0.051,0.421
				c-0.034,0.132-0.088,0.249-0.162,0.35s-0.17,0.181-0.288,0.238c-0.119,0.059-0.262,0.088-0.43,0.088
				c-0.175,0-0.321-0.03-0.44-0.092c-0.12-0.062-0.215-0.144-0.289-0.245c-0.072-0.101-0.125-0.218-0.157-0.351
				c-0.031-0.133-0.047-0.269-0.047-0.409v-1.104h0.277v1.104c0,0.109,0.011,0.215,0.033,0.316c0.021,0.102,0.058,0.191,0.107,0.27
				c0.05,0.078,0.117,0.142,0.201,0.189C422.268,369.589,422.372,369.614,422.498,369.614z"/>
			<path fill="#707487" d="M424.398,369.879c-0.129,0-0.256-0.021-0.382-0.061s-0.233-0.098-0.324-0.174l0.117-0.182
				c0.095,0.072,0.189,0.125,0.284,0.162c0.094,0.034,0.194,0.054,0.299,0.054c0.117,0,0.21-0.024,0.278-0.069
				c0.069-0.046,0.104-0.112,0.104-0.196c0-0.038-0.01-0.072-0.028-0.101c-0.019-0.027-0.046-0.052-0.083-0.072
				c-0.037-0.02-0.084-0.039-0.143-0.055c-0.057-0.017-0.124-0.034-0.2-0.053c-0.096-0.024-0.179-0.049-0.25-0.07
				c-0.069-0.023-0.127-0.05-0.172-0.08c-0.045-0.031-0.078-0.068-0.099-0.111c-0.02-0.043-0.03-0.097-0.03-0.16
				c0-0.079,0.016-0.151,0.048-0.214s0.075-0.116,0.131-0.158s0.121-0.073,0.196-0.095c0.075-0.021,0.155-0.032,0.242-0.032
				c0.122,0,0.234,0.019,0.339,0.059c0.104,0.039,0.193,0.091,0.265,0.153l-0.124,0.164c-0.067-0.061-0.144-0.104-0.228-0.135
				c-0.083-0.029-0.17-0.044-0.258-0.044c-0.099,0-0.182,0.021-0.251,0.062c-0.068,0.043-0.103,0.11-0.103,0.203
				c0,0.036,0.007,0.067,0.021,0.091c0.013,0.025,0.035,0.046,0.066,0.066c0.031,0.018,0.07,0.035,0.119,0.048
				c0.047,0.016,0.106,0.031,0.174,0.047c0.106,0.024,0.2,0.05,0.278,0.075c0.08,0.026,0.145,0.056,0.198,0.091
				c0.052,0.035,0.091,0.076,0.117,0.124c0.025,0.046,0.038,0.105,0.038,0.171c0,0.15-0.058,0.27-0.172,0.357
				C424.748,369.835,424.593,369.879,424.398,369.879z"/>
			<path fill="#707487" d="M426.064,369.879c-0.121,0-0.232-0.022-0.333-0.067c-0.101-0.043-0.187-0.104-0.259-0.181
				c-0.071-0.074-0.127-0.163-0.167-0.266c-0.04-0.103-0.06-0.209-0.06-0.321c0-0.113,0.02-0.221,0.06-0.321
				c0.04-0.1,0.097-0.188,0.169-0.264c0.073-0.077,0.16-0.136,0.26-0.181c0.101-0.044,0.211-0.066,0.333-0.066
				c0.122,0,0.231,0.023,0.331,0.068c0.1,0.045,0.185,0.104,0.254,0.179c0.07,0.075,0.124,0.164,0.161,0.263
				c0.039,0.1,0.058,0.203,0.058,0.31c0,0.023,0,0.043-0.001,0.062s-0.003,0.034-0.004,0.043h-1.334
				c0.007,0.081,0.025,0.154,0.056,0.219c0.031,0.065,0.071,0.121,0.12,0.17c0.049,0.047,0.105,0.084,0.168,0.111
				c0.062,0.025,0.129,0.04,0.199,0.04c0.049,0,0.097-0.008,0.145-0.021c0.047-0.012,0.091-0.03,0.132-0.053
				c0.042-0.023,0.078-0.051,0.109-0.083c0.032-0.032,0.056-0.07,0.073-0.111l0.234,0.063c-0.026,0.061-0.062,0.115-0.109,0.165
				c-0.046,0.049-0.1,0.091-0.16,0.128c-0.06,0.035-0.127,0.064-0.201,0.084C426.222,369.868,426.145,369.879,426.064,369.879z
				 M426.616,368.937c-0.006-0.076-0.025-0.147-0.057-0.212c-0.032-0.063-0.072-0.12-0.12-0.165
				c-0.048-0.044-0.104-0.079-0.167-0.106c-0.064-0.024-0.132-0.038-0.204-0.038s-0.139,0.014-0.203,0.038
				c-0.063,0.027-0.12,0.062-0.168,0.108s-0.087,0.102-0.117,0.165c-0.03,0.063-0.048,0.134-0.054,0.21H426.616z"/>
			<path fill="#707487" d="M428.017,368.477c-0.135,0.005-0.255,0.039-0.358,0.105c-0.104,0.065-0.178,0.156-0.221,0.274v0.991
				h-0.271v-1.607h0.252v0.371c0.056-0.11,0.129-0.202,0.22-0.274c0.089-0.073,0.186-0.11,0.289-0.11c0.021,0,0.038,0,0.053,0
				c0.014,0,0.026,0.002,0.037,0.004V368.477z"/>
			<path fill="#707487" d="M429.678,369.848h-0.271v-0.899c0-0.173-0.026-0.299-0.079-0.376c-0.052-0.078-0.132-0.117-0.239-0.117
				c-0.055,0-0.111,0.012-0.166,0.032c-0.056,0.022-0.108,0.051-0.157,0.088c-0.05,0.036-0.093,0.081-0.13,0.133
				s-0.064,0.108-0.083,0.169v0.971h-0.272v-1.607h0.247v0.345c0.064-0.113,0.155-0.204,0.275-0.271
				c0.121-0.068,0.251-0.103,0.393-0.103c0.092,0,0.169,0.017,0.231,0.051c0.062,0.034,0.11,0.081,0.147,0.142
				c0.037,0.062,0.063,0.132,0.079,0.214c0.016,0.083,0.023,0.172,0.023,0.268V369.848z"/>
			<path fill="#707487" d="M430.522,369.879c-0.08,0-0.155-0.014-0.223-0.039c-0.067-0.025-0.126-0.061-0.175-0.104
				s-0.087-0.097-0.115-0.157c-0.028-0.06-0.042-0.125-0.042-0.192c0-0.076,0.017-0.146,0.049-0.207
				c0.033-0.064,0.08-0.116,0.141-0.161c0.06-0.045,0.132-0.078,0.215-0.102s0.174-0.036,0.272-0.036
				c0.078,0,0.157,0.008,0.237,0.021c0.08,0.016,0.151,0.035,0.213,0.059v-0.128c0-0.132-0.038-0.235-0.111-0.311
				c-0.074-0.074-0.179-0.112-0.314-0.112c-0.162,0-0.333,0.062-0.511,0.188l-0.09-0.177c0.105-0.068,0.208-0.122,0.311-0.157
				c0.103-0.034,0.21-0.052,0.321-0.052c0.205,0,0.368,0.057,0.487,0.169c0.119,0.113,0.179,0.272,0.179,0.479v0.655
				c0,0.063,0.028,0.098,0.086,0.1v0.233c-0.021,0.004-0.04,0.007-0.059,0.009c-0.019,0.003-0.036,0.003-0.052,0.003
				c-0.045,0-0.089-0.012-0.132-0.037c-0.043-0.023-0.066-0.066-0.071-0.125l-0.006-0.115c-0.037,0.049-0.079,0.094-0.126,0.131
				c-0.047,0.035-0.098,0.066-0.15,0.091c-0.054,0.026-0.109,0.044-0.165,0.056C430.633,369.872,430.577,369.879,430.522,369.879z
				 M430.59,369.676c0.086,0,0.17-0.02,0.252-0.057c0.083-0.037,0.147-0.082,0.194-0.135c0.039-0.045,0.059-0.088,0.059-0.127
				v-0.236c-0.064-0.025-0.131-0.044-0.202-0.058c-0.071-0.013-0.139-0.02-0.205-0.02c-0.14,0-0.251,0.028-0.336,0.085
				c-0.084,0.056-0.126,0.134-0.126,0.232c0,0.041,0.008,0.08,0.024,0.118c0.016,0.039,0.041,0.071,0.071,0.101
				c0.031,0.028,0.069,0.051,0.114,0.068C430.481,369.666,430.532,369.676,430.59,369.676z"/>
			<path fill="#707487" d="M434.228,369.848h-0.271v-0.899c0-0.168-0.027-0.293-0.082-0.373c-0.054-0.08-0.135-0.12-0.242-0.12
				c-0.111,0-0.21,0.039-0.298,0.118c-0.086,0.08-0.149,0.182-0.186,0.307v0.968h-0.271v-0.899c0-0.173-0.027-0.299-0.08-0.376
				c-0.054-0.078-0.134-0.117-0.241-0.117c-0.108,0-0.208,0.038-0.296,0.115s-0.151,0.18-0.188,0.307v0.971h-0.271v-1.607h0.247
				v0.345c0.065-0.119,0.151-0.212,0.256-0.275c0.104-0.065,0.223-0.098,0.354-0.098c0.135,0,0.243,0.036,0.321,0.109
				c0.08,0.073,0.128,0.166,0.146,0.281c0.144-0.261,0.348-0.391,0.613-0.391c0.092,0,0.169,0.017,0.232,0.051
				c0.062,0.034,0.113,0.081,0.149,0.142c0.037,0.062,0.063,0.132,0.081,0.214c0.016,0.083,0.024,0.172,0.024,0.268V369.848z"/>
			<path fill="#707487" d="M435.355,369.879c-0.122,0-0.232-0.022-0.333-0.067c-0.101-0.043-0.188-0.104-0.259-0.181
				c-0.072-0.074-0.128-0.163-0.167-0.266c-0.041-0.103-0.061-0.209-0.061-0.321c0-0.113,0.02-0.221,0.061-0.321
				c0.04-0.1,0.096-0.188,0.169-0.264c0.072-0.077,0.16-0.136,0.26-0.181c0.101-0.044,0.211-0.066,0.333-0.066
				s0.231,0.023,0.331,0.068c0.099,0.045,0.185,0.104,0.254,0.179c0.07,0.075,0.123,0.164,0.162,0.263
				c0.038,0.1,0.057,0.203,0.057,0.31c0,0.023-0.001,0.043-0.001,0.062c-0.001,0.019-0.002,0.034-0.004,0.043h-1.334
				c0.006,0.081,0.025,0.154,0.056,0.219c0.031,0.065,0.07,0.121,0.12,0.17c0.049,0.047,0.105,0.084,0.168,0.111
				c0.062,0.025,0.129,0.04,0.199,0.04c0.049,0,0.097-0.008,0.145-0.021c0.047-0.012,0.092-0.03,0.133-0.053
				c0.041-0.023,0.077-0.051,0.109-0.083s0.056-0.07,0.073-0.111l0.234,0.063c-0.026,0.061-0.063,0.115-0.109,0.165
				c-0.046,0.049-0.1,0.091-0.16,0.128c-0.061,0.035-0.128,0.064-0.202,0.084C435.512,369.868,435.436,369.879,435.355,369.879z
				 M435.907,368.937c-0.006-0.076-0.025-0.147-0.058-0.212c-0.031-0.063-0.071-0.12-0.12-0.165
				c-0.047-0.044-0.104-0.079-0.167-0.106c-0.063-0.024-0.131-0.038-0.203-0.038s-0.14,0.014-0.204,0.038
				c-0.063,0.027-0.119,0.062-0.167,0.108c-0.048,0.046-0.087,0.102-0.117,0.165c-0.029,0.063-0.047,0.134-0.053,0.21H435.907z"/>
		</g>
	</g>
	<g opacity="0.7">
		<path fill="#707487" d="M414.453,368.251c0.254-0.136,0.43-0.402,0.43-0.71c0-0.446-0.362-0.807-0.808-0.807
			c-0.446,0-0.807,0.36-0.807,0.807c0,0.308,0.175,0.574,0.429,0.71c-0.51,0.16-0.881,0.639-0.881,1.2v0.635h2.519v-0.635
			C415.335,368.89,414.963,368.411,414.453,368.251z"/>
	</g>
</g>
<g>
	<g>
		<path opacity="0.7" fill-rule="evenodd" clip-rule="evenodd" fill="#CCCCCC" d="M477.834,386.053c0,0.299-0.243,0.54-0.541,0.54
			h-67.337c-0.298,0-0.541-0.241-0.541-0.54v-8.822c0-0.298,0.242-0.54,0.541-0.54h67.337c0.298,0,0.541,0.242,0.541,0.54V386.053z"
			/>
		<g opacity="0.7">
			<path fill="#707487" d="M421.844,382.438l0.265-0.392l-0.415-0.132l0.078-0.254l0.421,0.163l-0.018-0.445h0.307l-0.018,0.445
				l0.421-0.163l0.078,0.254l-0.415,0.132l0.271,0.392l-0.229,0.149l-0.259-0.402l-0.265,0.402L421.844,382.438z"/>
			<path fill="#707487" d="M423.829,382.438l0.265-0.392l-0.416-0.132l0.078-0.254l0.421,0.163l-0.018-0.445h0.306l-0.018,0.445
				l0.421-0.163l0.078,0.254l-0.415,0.132l0.271,0.392l-0.229,0.149l-0.258-0.402l-0.265,0.402L423.829,382.438z"/>
			<path fill="#707487" d="M425.814,382.438l0.264-0.392l-0.415-0.132l0.078-0.254l0.422,0.163l-0.019-0.445h0.307l-0.018,0.445
				l0.42-0.163l0.078,0.254l-0.415,0.132l0.271,0.392l-0.229,0.149l-0.259-0.402l-0.265,0.402L425.814,382.438z"/>
			<path fill="#707487" d="M427.799,382.438l0.264-0.392l-0.415-0.132l0.078-0.254l0.421,0.163l-0.018-0.445h0.306l-0.018,0.445
				l0.421-0.163l0.078,0.254l-0.415,0.132l0.271,0.392l-0.229,0.149l-0.258-0.402l-0.265,0.402L427.799,382.438z"/>
			<path fill="#707487" d="M429.783,382.438l0.264-0.392l-0.415-0.132l0.078-0.254l0.421,0.163l-0.019-0.445h0.307l-0.018,0.445
				l0.421-0.163l0.078,0.254l-0.415,0.132l0.271,0.392l-0.229,0.149l-0.259-0.402l-0.265,0.402L429.783,382.438z"/>
			<path fill="#707487" d="M431.768,382.438l0.265-0.392l-0.416-0.132l0.078-0.254l0.422,0.163l-0.019-0.445h0.307l-0.018,0.445
				l0.421-0.163l0.078,0.254l-0.415,0.132l0.271,0.392l-0.229,0.149l-0.258-0.402l-0.265,0.402L431.768,382.438z"/>
			<path fill="#707487" d="M433.752,382.438l0.265-0.392l-0.415-0.132l0.078-0.254l0.421,0.163l-0.018-0.445h0.307l-0.018,0.445
				l0.421-0.163l0.079,0.254l-0.415,0.132l0.271,0.392l-0.228,0.149l-0.259-0.402l-0.265,0.402L433.752,382.438z"/>
			<path fill="#707487" d="M435.737,382.438l0.265-0.392l-0.415-0.132l0.078-0.254l0.421,0.163l-0.019-0.445h0.307l-0.018,0.445
				l0.421-0.163l0.079,0.254l-0.416,0.132l0.271,0.392l-0.229,0.149l-0.258-0.402l-0.265,0.402L435.737,382.438z"/>
			<path fill="#707487" d="M437.722,382.438l0.265-0.392l-0.415-0.132l0.078-0.254l0.421,0.163l-0.018-0.445h0.307l-0.018,0.445
				l0.421-0.163l0.078,0.254l-0.415,0.132l0.271,0.392l-0.229,0.149l-0.259-0.402l-0.265,0.402L437.722,382.438z"/>
		</g>
	</g>
	<g opacity="0.7">
		<path fill="#707487" d="M415.269,380.76h-0.23v-0.287c0-0.532-0.433-0.964-0.964-0.964c-0.531,0-0.963,0.432-0.963,0.964v0.287
			h-0.231c-0.181,0-0.329,0.148-0.329,0.329v1.875c0,0.183,0.148,0.33,0.329,0.33h2.388c0.184,0,0.331-0.147,0.331-0.33v-1.875
			C415.6,380.908,415.452,380.76,415.269,380.76z M413.547,380.473c0-0.292,0.236-0.529,0.527-0.529s0.528,0.237,0.528,0.529v0.287
			h-1.055V380.473z M414.253,382.428v0.478c0,0.021-0.018,0.036-0.038,0.036h-0.229c-0.017,0-0.034-0.016-0.034-0.036v-0.478
			c-0.157-0.062-0.27-0.214-0.27-0.394c0-0.23,0.188-0.42,0.421-0.42c0.232,0,0.42,0.189,0.42,0.42
			C414.522,382.214,414.409,382.366,414.253,382.428z"/>
	</g>
</g>
<g>
	<rect x="409.058" y="389.393" fill-rule="evenodd" clip-rule="evenodd" fill="#00628D" width="68.279" height="8.986"/>
	<g>
		<path fill="#FFFFFF" d="M438.667,394.907v-1.86h0.293v1.602h0.999v0.259H438.667z"/>
		<path fill="#FFFFFF" d="M441.151,394.921c-0.13,0-0.25-0.027-0.357-0.079c-0.108-0.055-0.2-0.125-0.277-0.214
			c-0.078-0.088-0.138-0.188-0.18-0.302c-0.042-0.114-0.063-0.231-0.063-0.349c0-0.125,0.022-0.243,0.067-0.357
			c0.045-0.114,0.106-0.214,0.185-0.301c0.079-0.088,0.172-0.156,0.281-0.209c0.108-0.052,0.226-0.077,0.354-0.077
			c0.131,0,0.25,0.028,0.358,0.082c0.107,0.056,0.199,0.128,0.276,0.218c0.077,0.088,0.137,0.189,0.178,0.302
			c0.042,0.113,0.063,0.229,0.063,0.346c0,0.123-0.022,0.243-0.067,0.356c-0.044,0.113-0.105,0.213-0.185,0.299
			c-0.079,0.088-0.171,0.156-0.279,0.208C441.396,394.895,441.279,394.921,441.151,394.921z M440.572,393.978
			c0,0.088,0.014,0.172,0.041,0.254c0.026,0.082,0.065,0.154,0.116,0.218c0.051,0.062,0.111,0.113,0.183,0.15
			c0.072,0.037,0.152,0.057,0.241,0.057c0.091,0,0.173-0.021,0.246-0.06s0.134-0.091,0.183-0.156
			c0.05-0.063,0.088-0.137,0.114-0.217c0.027-0.08,0.04-0.162,0.04-0.246c0-0.09-0.014-0.175-0.042-0.256
			c-0.027-0.082-0.067-0.152-0.118-0.216c-0.05-0.061-0.112-0.112-0.184-0.148c-0.071-0.038-0.151-0.057-0.239-0.057
			c-0.09,0-0.172,0.02-0.245,0.06c-0.072,0.04-0.134,0.09-0.184,0.153c-0.049,0.062-0.087,0.134-0.113,0.216
			C440.585,393.81,440.572,393.893,440.572,393.978z"/>
		<path fill="#FFFFFF" d="M443.888,394.677c-0.152,0.163-0.33,0.244-0.532,0.244c-0.12,0-0.234-0.027-0.34-0.079
			c-0.105-0.055-0.197-0.125-0.274-0.214c-0.078-0.088-0.139-0.189-0.184-0.305c-0.044-0.114-0.067-0.232-0.067-0.354
			c0-0.126,0.022-0.246,0.067-0.36c0.044-0.113,0.105-0.212,0.184-0.298c0.077-0.086,0.17-0.154,0.276-0.204
			c0.106-0.049,0.223-0.074,0.349-0.074c0.175,0,0.321,0.037,0.441,0.111c0.118,0.074,0.208,0.174,0.27,0.296l-0.225,0.162
			c-0.051-0.102-0.12-0.178-0.207-0.228c-0.086-0.051-0.182-0.077-0.287-0.077c-0.086,0-0.164,0.019-0.233,0.056
			c-0.07,0.038-0.129,0.089-0.18,0.149c-0.049,0.063-0.088,0.136-0.114,0.218c-0.028,0.082-0.042,0.167-0.042,0.257
			c0,0.094,0.015,0.182,0.045,0.264s0.071,0.154,0.124,0.216c0.054,0.062,0.116,0.11,0.188,0.146
			c0.071,0.034,0.149,0.053,0.233,0.053c0.188,0,0.358-0.094,0.508-0.275v-0.196h-0.39v-0.218h0.636v0.94h-0.246V394.677z"/>
		<path fill="#FFFFFF" d="M444.737,394.907v-1.857h0.293v1.857H444.737z"/>
		<path fill="#FFFFFF" d="M446.006,393.598v1.31h-0.294v-1.86h0.23l1.064,1.342v-1.339h0.296v1.857h-0.243L446.006,393.598z"/>
	</g>
</g>
<g>
	<path fill="#FFFFFF" d="M430.465,352.617v-1.692l-0.698,1.281h-0.206l-0.702-1.281v1.692h-0.371v-2.352h0.398l0.778,1.438
		l0.778-1.438h0.396v2.352H430.465z"/>
	<path fill="#FFFFFF" d="M433.313,352.289v0.328h-1.612v-2.352h1.583v0.328h-1.212v0.668h1.049v0.309h-1.049v0.719H433.313z"/>
	<path fill="#FFFFFF" d="M436.019,352.617v-1.692l-0.699,1.281h-0.205l-0.702-1.281v1.692h-0.371v-2.352h0.398l0.778,1.438
		l0.778-1.438h0.397v2.352H436.019z"/>
	<path fill="#FFFFFF" d="M439.102,352.011c0,0.096-0.02,0.181-0.058,0.255c-0.039,0.075-0.09,0.138-0.156,0.19
		c-0.065,0.052-0.141,0.092-0.23,0.12c-0.088,0.027-0.182,0.041-0.281,0.041h-1.123v-2.352h1.211c0.082,0,0.157,0.018,0.223,0.053
		c0.066,0.036,0.122,0.082,0.169,0.138c0.046,0.057,0.082,0.12,0.107,0.192c0.025,0.071,0.039,0.144,0.039,0.217
		c0,0.115-0.029,0.222-0.088,0.322c-0.058,0.101-0.142,0.175-0.25,0.225c0.135,0.039,0.241,0.111,0.319,0.216
		C439.062,351.733,439.102,351.86,439.102,352.011z M437.625,350.587v0.691h0.682c0.047,0,0.089-0.009,0.128-0.024
		c0.039-0.02,0.073-0.043,0.103-0.072c0.03-0.03,0.053-0.066,0.07-0.107c0.016-0.043,0.024-0.088,0.024-0.139
		c0-0.103-0.029-0.186-0.085-0.251c-0.058-0.066-0.13-0.098-0.219-0.098H437.625z M438.721,351.94c0-0.048-0.009-0.094-0.025-0.139
		c-0.017-0.043-0.039-0.082-0.066-0.115s-0.061-0.061-0.101-0.079c-0.04-0.021-0.083-0.03-0.129-0.03h-0.775v0.718h0.752
		c0.048,0,0.094-0.009,0.136-0.027c0.042-0.019,0.078-0.044,0.109-0.076c0.03-0.032,0.054-0.069,0.072-0.112
		C438.712,352.036,438.721,351.99,438.721,351.94z"/>
	<path fill="#FFFFFF" d="M441.436,352.289v0.328h-1.613v-2.352h1.583v0.328h-1.211v0.668h1.049v0.309h-1.049v0.719H441.436z"/>
	<path fill="#FFFFFF" d="M442.164,352.617v-2.352h1.024c0.105,0,0.203,0.022,0.293,0.066c0.089,0.044,0.166,0.103,0.23,0.174
		c0.064,0.071,0.114,0.152,0.15,0.245c0.036,0.092,0.055,0.186,0.055,0.279c0,0.079-0.011,0.156-0.033,0.229
		c-0.022,0.072-0.053,0.139-0.092,0.201c-0.04,0.062-0.089,0.116-0.146,0.16c-0.058,0.046-0.12,0.079-0.188,0.102l0.56,0.895h-0.42
		l-0.517-0.817h-0.543v0.817H442.164z M442.535,351.471h0.649c0.054,0,0.101-0.011,0.144-0.034c0.042-0.023,0.08-0.055,0.111-0.096
		c0.031-0.042,0.056-0.087,0.073-0.142c0.017-0.052,0.026-0.109,0.026-0.169c0-0.061-0.011-0.116-0.031-0.168
		c-0.021-0.055-0.048-0.1-0.083-0.14c-0.035-0.039-0.075-0.071-0.119-0.094c-0.045-0.023-0.092-0.035-0.14-0.035h-0.63V351.471z"/>
	<path fill="#FFFFFF" d="M445.853,352.617v-2.352h0.371v2.023h1.262v0.328H445.853z"/>
	<path fill="#FFFFFF" d="M448.993,352.633c-0.167,0-0.316-0.034-0.452-0.102c-0.136-0.066-0.253-0.156-0.351-0.267
		c-0.098-0.112-0.174-0.24-0.227-0.383c-0.053-0.144-0.08-0.291-0.08-0.441c0-0.156,0.028-0.307,0.084-0.449
		c0.057-0.145,0.134-0.271,0.233-0.382c0.1-0.11,0.218-0.198,0.354-0.263c0.137-0.065,0.287-0.098,0.447-0.098
		c0.167,0,0.317,0.034,0.453,0.104c0.136,0.069,0.252,0.16,0.35,0.273c0.097,0.112,0.171,0.24,0.225,0.381
		c0.053,0.144,0.08,0.289,0.08,0.437c0,0.157-0.028,0.307-0.084,0.451c-0.057,0.144-0.134,0.269-0.234,0.378
		c-0.1,0.11-0.217,0.197-0.353,0.263C449.302,352.601,449.153,352.633,448.993,352.633z M448.26,351.44
		c0,0.11,0.018,0.218,0.052,0.321c0.035,0.104,0.083,0.195,0.148,0.275c0.063,0.079,0.141,0.143,0.231,0.19
		c0.091,0.047,0.192,0.071,0.305,0.071c0.115,0,0.218-0.025,0.31-0.074c0.091-0.051,0.168-0.116,0.231-0.197
		c0.063-0.082,0.111-0.173,0.144-0.275c0.033-0.102,0.05-0.205,0.05-0.312c0-0.112-0.018-0.22-0.053-0.322s-0.085-0.193-0.148-0.271
		c-0.065-0.078-0.142-0.141-0.232-0.189c-0.09-0.046-0.19-0.07-0.301-0.07c-0.114,0-0.217,0.024-0.31,0.074
		c-0.091,0.051-0.168,0.114-0.231,0.193c-0.063,0.081-0.111,0.171-0.145,0.273C448.277,351.231,448.26,351.336,448.26,351.44z"/>
	<path fill="#FFFFFF" d="M452.449,352.325c-0.192,0.205-0.416,0.308-0.671,0.308c-0.153,0-0.296-0.034-0.429-0.102
		c-0.134-0.066-0.25-0.156-0.348-0.267c-0.098-0.112-0.175-0.241-0.231-0.385c-0.057-0.145-0.084-0.294-0.084-0.448
		c0-0.16,0.028-0.312,0.084-0.453c0.057-0.144,0.134-0.271,0.231-0.378c0.098-0.109,0.215-0.194,0.35-0.258
		c0.134-0.062,0.281-0.094,0.44-0.094c0.22,0,0.406,0.047,0.556,0.14c0.15,0.095,0.264,0.22,0.341,0.374l-0.285,0.205
		c-0.064-0.128-0.151-0.224-0.26-0.288c-0.109-0.063-0.229-0.096-0.362-0.096c-0.107,0-0.207,0.022-0.294,0.07
		c-0.089,0.048-0.165,0.111-0.228,0.188c-0.063,0.079-0.111,0.171-0.146,0.274c-0.034,0.104-0.051,0.211-0.051,0.323
		c0,0.12,0.019,0.231,0.057,0.335c0.038,0.104,0.089,0.194,0.157,0.271c0.067,0.077,0.146,0.14,0.236,0.184
		c0.091,0.046,0.189,0.068,0.294,0.068c0.239,0,0.453-0.115,0.643-0.347v-0.249h-0.493v-0.275h0.805v1.189h-0.312V352.325z"/>
	<path fill="#FFFFFF" d="M453.522,352.617v-2.349h0.371v2.349H453.522z"/>
	<path fill="#FFFFFF" d="M455.125,350.961v1.656h-0.371v-2.352h0.292l1.345,1.695v-1.692h0.374v2.349h-0.309L455.125,350.961z"/>
</g>
<ellipse opacity="0.56" fill="#6D4D56" cx="447.115" cy="444.024" rx="120.489" ry="6.835"/>
<ellipse opacity="0.27" fill="#6D4D56" cx="869.419" cy="428.859" rx="101.157" ry="3.403"/>
</svg>
