<?xml version="1.0" encoding="utf-8"?>
<!-- Generator: Adobe Illustrator 15.0.0, SVG Export Plug-In . SVG Version: 6.00 Build 0)  -->
<!DOCTYPE svg PUBLIC "-//W3C//DTD SVG 1.1//EN" "http://www.w3.org/Graphics/SVG/1.1/DTD/svg11.dtd">
<svg version="1.1" id="Layer_1" xmlns="http://www.w3.org/2000/svg" xmlns:xlink="http://www.w3.org/1999/xlink" x="0px" y="0px"
	 width="768px" height="1024px" viewBox="0 0 768 1024" enable-background="new 0 0 768 1024" xml:space="preserve">
<rect x="-13.364" y="-8.814" fill="#D2849A" width="788.901" height="845.484"/>
<path fill="#EA97AC" d="M83.658,524.134v-51.822H46.442V437.87H8.013v60.708h-40.649v64.871h-33.493v19.237v66.307v3.146H76.293
	h74.679v-69.453v-58.553H83.658L83.658,524.134z M106.51,620.554H87.949v-22.271h18.562V620.554z M106.51,591.496H87.949v-22.272
	h18.562V591.496z M106.51,562.435H87.949v-22.27h18.562V562.435z M133.327,620.554h-18.563v-22.271h18.563V620.554z
	 M133.327,591.496h-18.563v-22.272h18.563V591.496z M133.327,562.435h-18.563v-22.27h18.563V562.435z"/>
<path fill="#EA97AC" d="M299.728,524.134v-51.822h-37.217V437.87h-38.43v60.708h-40.649v64.871h-33.495v19.237v66.307v3.146h142.424
	h74.677v-69.453v-58.553H299.728L299.728,524.134z M322.579,620.554h-18.56v-22.271h18.56V620.554z M322.579,591.496h-18.56v-22.272
	h18.56V591.496z M322.579,562.435h-18.56v-22.27h18.56V562.435z M349.395,620.554h-18.565v-22.271h18.565V620.554z M349.395,591.496
	h-18.565v-22.272h18.565V591.496z M349.395,562.435h-18.565v-22.27h18.565V562.435z"/>
<path fill="#EA97AC" d="M448.266,388.618h-37.221v-34.444h-38.428v60.712H331.97v64.869h-33.495v19.238v66.305v86.842H440.9h74.678
	V498.993V440.44h-67.312V388.618z M479.369,456.469h18.562v22.273h-18.562V456.469z M479.369,485.53h18.562v22.272h-18.562V485.53z
	 M479.369,514.59h18.562v22.27h-18.562V514.59z M452.557,456.469h18.562v22.273h-18.562V456.469z M452.557,485.53h18.562v22.272
	h-18.562V485.53z M452.557,514.59h18.562v22.27h-18.562V514.59z"/>
<rect x="526.771" y="591.632" fill="#EA97AC" width="122.143" height="69.014"/>
<path fill="#EA97AC" d="M516.413,515.706v63.238v75.011h80.653h153.82v-3.399v-71.611v-20.779H714.71v-70.062h-43.9v-65.566h-41.505
	v37.197h-40.195v55.971h-72.696V515.706z M564.429,595.79h20.049v24.054h-20.049V595.79z M564.429,564.405h20.049v24.052h-20.049
	V564.405z M564.429,533.019h20.049v24.053h-20.049V533.019z M535.468,595.79h20.049v24.054h-20.049V595.79z M535.468,564.405h20.049
	v24.052h-20.049V564.405z M535.468,533.019h20.049v24.053h-20.049V533.019z"/>
<path fill="#EA97AC" d="M815.007,450.226h-64.781v56.35v147.381h71.87h137.063v-83.572v-63.813v-18.511h-32.234v-62.432h-39.117
	v-58.423h-36.983v33.146h-35.817V450.226z M785.077,487.085h-17.868v-21.437h17.868V487.085z M785.077,515.053h-17.868v-21.436
	h17.868V515.053z M785.077,543.014h-17.868v-21.429h17.868V543.014z M810.88,487.085h-17.867v-21.437h17.867V487.085z
	 M810.88,515.053h-17.867v-21.436h17.867V515.053z M810.88,543.014h-17.867v-21.429h17.867V543.014z"/>
<rect y="653.955" fill="#8F646F" width="768" height="370.045"/>
<path opacity="0.27" fill="#5E5E5E" enable-background="new    " d="M453.795,711.104c0,2.21-31.844,4.008-71.126,4.008
	c-39.28,0-71.125-1.798-71.125-4.008c0-2.216,31.845-4.01,71.125-4.01C421.951,707.094,453.795,708.889,453.795,711.104"/>
<path fill="#DBDBDB" d="M342.651,710.003c0-1.671,1.245-3.078,2.905-3.281l6.401-0.783l6.417-24.493h47.582l6.417,24.493
	l6.399,0.783c1.659,0.203,2.905,1.61,2.905,3.281H342.651z"/>
<polygon fill="#BBBDBF" points="357.306,685.53 358.375,681.446 405.955,681.446 407.026,685.53 "/>
<path fill="#191919" d="M262.292,660.97V523.503c0-2.934,2.379-5.315,5.314-5.315h225.128c2.937,0,5.311,2.382,5.311,5.315V660.97
	H262.292z"/>
<path fill="#DBDBDB" d="M492.735,682.223H267.607c-2.936,0-5.314-2.379-5.314-5.312v-15.94h235.753v15.94
	C498.048,679.844,495.672,682.223,492.735,682.223"/>
<rect x="269.597" y="527.486" fill="#DB5858" width="221.145" height="124.187"/>
<path fill="#CE8766" d="M344.21,560.329h-9.022v-1.971c0-2.234-1.813-4.048-4.047-4.048h-6.646c0.553-0.999,0.865-2.237,0.865-3.497
	c0-4.138-3.367-7.512-7.501-7.512c-4.135,0-7.498,3.374-7.498,7.512c0,1.26,0.313,2.498,0.866,3.497h-5.45
	c-2.236,0-4.048,1.813-4.048,4.048v1.971H292.7c-3.389,0-6.138,2.751-6.138,6.142v60.535c0,3.393,2.749,6.142,6.138,6.142h51.511
	c3.392,0,6.142-2.749,6.142-6.142v-60.535C350.353,563.08,347.603,560.329,344.21,560.329 M320.641,554.314h-5.564
	c-1.026-0.88-1.683-2.087-1.683-3.499c0-2.467,2.004-4.479,4.464-4.479c2.467,0,4.47,2.012,4.47,4.479
	C322.327,552.228,321.669,553.438,320.641,554.314"/>
<path fill="#F5F5F5" d="M344.214,623.353c0,2.086-1.691,3.778-3.777,3.778h-43.962c-2.085,0-3.777-1.692-3.777-3.778v-53.106
	c0-2.086,1.69-3.775,3.777-3.775h5.249c0,1.66,1.346,3.009,3.006,3.009h27.447c1.663,0,3.009-1.345,3.009-3.009h5.248
	c2.085,0,3.777,1.692,3.777,3.775v53.106H344.214z"/>
<path fill="#E04316" d="M304.023,574.769c2.947,0,5.335,2.387,5.335,5.334c0,2.946-2.388,5.336-5.335,5.336
	c-2.946,0-5.336-2.39-5.336-5.336C298.687,577.155,301.077,574.769,304.023,574.769"/>
<path fill="#337B80" d="M334.38,577.125h-18.198c-1.674,0-3.033,1.335-3.033,3.011c0,1.675,1.358,3.007,3.033,3.007h18.201
	c1.675,0,3.033-1.332,3.033-3.007C337.411,578.46,336.055,577.125,334.38,577.125"/>
<path fill="#E04316" d="M304.023,589.901c2.947,0,5.335,2.391,5.335,5.338c0,2.946-2.388,5.335-5.335,5.335
	c-2.946,0-5.336-2.389-5.336-5.335C298.687,592.292,301.077,589.901,304.023,589.901"/>
<path fill="#337B80" d="M334.38,592.167h-18.198c-1.674,0-3.033,1.394-3.033,3.066c0,1.676,1.358,3.069,3.033,3.069h18.201
	c1.675,0,3.033-1.394,3.033-3.069C337.411,593.561,336.055,592.167,334.38,592.167"/>
<path fill="#E04316" d="M304.023,606.077c2.947,0,5.335,2.39,5.335,5.336c0,2.945-2.388,5.337-5.335,5.337
	c-2.946,0-5.336-2.392-5.336-5.337C298.687,608.467,301.077,606.077,304.023,606.077"/>
<path fill="#337B80" d="M334.38,608.33h-18.198c-1.674,0-3.033,1.397-3.033,3.071c0,1.673,1.358,3.067,3.033,3.067h18.201
	c1.675,0,3.033-1.395,3.033-3.067C337.411,609.728,336.055,608.33,334.38,608.33"/>
<path fill="#868686" d="M335.65,565.636c0,2.302-1.87,4.167-4.176,4.167H305.37c-2.305,0-4.174-1.865-4.174-4.167v-7.19
	c0-2.302,1.869-4.166,4.174-4.166h26.104c2.307,0,4.176,1.864,4.176,4.166V565.636z"/>
<path fill="#19EAFA" d="M481.127,534.838h-46.333c-1.239,0-2.248,0.986-2.248,2.198v45.288c0,1.211,1.009,2.198,2.248,2.198h46.333
	c1.24,0,2.248-0.987,2.248-2.198v-45.288C483.375,535.824,482.369,534.838,481.127,534.838"/>
<path fill="#575756" d="M460.21,558.554c0.893,0.816,2.13,1.547,3.623,2.069c0.881,0.308,1.773,0.511,2.625,0.603
	c0.742,0.93,1.031,1.817,0.727,2.306c-0.239,0.386-0.916,0.579-1.812,0.512c-1.103-0.081-2.43-0.542-3.647-1.266
	c-0.861-0.513-1.625-1.133-2.206-1.776C460.065,560.129,460.292,559.292,460.21,558.554"/>
<path fill="#575756" d="M461.551,545.456c0.573,0.398,1.255,0.74,1.994,1.002c0.688,0.241,1.386,0.395,2.051,0.453
	c0.063,0.111,0.113,0.201,0.154,0.271c0.105,0.179,0.303,0.294,0.519,0.3c0.003,0,0.006,0,0.014,0c0.21,0,0.401-0.105,0.519-0.276
	l0.21-0.323c0.182-0.029,0.355-0.063,0.521-0.111c1.785,1.033,2.506,2.251,2.275,2.873c-0.158,0.43-0.779,0.748-1.67,0.862
	c-1.097,0.133-2.493-0.058-3.833-0.528c-2.73-0.958-4.381-2.73-4.035-3.676C460.4,545.942,460.912,545.609,461.551,545.456"/>
<path fill="#575756" d="M460.985,542.662c0.148-0.4,0.842-0.663,1.77-0.663c0.251,0,0.513,0.025,0.779,0.06
	c0.269,1.205,0.857,2.543,1.374,3.568c-0.319-0.067-0.641-0.152-0.962-0.263c-0.984-0.347-1.867-0.875-2.421-1.452
	C461.075,543.441,460.871,542.976,460.985,542.662"/>
<path fill="#575756" d="M469.882,554.194c-0.157,0.425-0.779,0.747-1.67,0.856c-1.098,0.136-2.495-0.056-3.834-0.526
	c-2.729-0.957-4.381-2.729-4.033-3.677c0.119-0.329,0.435-0.536,0.782-0.669c0.745,0.499,1.63,0.941,2.628,1.289
	c1.243,0.437,2.502,0.665,3.641,0.665c0.323,0,0.641-0.021,0.943-0.059c0.104-0.012,0.2-0.033,0.297-0.05
	C469.586,552.803,470.081,553.647,469.882,554.194"/>
<path fill="#575756" d="M469.882,558.798c-0.156,0.428-0.779,0.747-1.67,0.859c-1.098,0.136-2.495-0.055-3.834-0.524
	c-2.729-0.958-4.381-2.731-4.033-3.682c0.104-0.287,0.431-0.53,0.913-0.686c0.733,0.482,1.599,0.909,2.573,1.251
	c1.237,0.436,2.5,0.663,3.638,0.663c0.324,0,0.642-0.02,0.943-0.058c0.062-0.009,0.119-0.019,0.178-0.028
	C469.565,557.376,470.087,558.238,469.882,558.798"/>
<path fill="#575756" d="M461.424,582.778c0.438-0.39,0.749-1.05,1.339-1.132c0.59-0.083,0.567,0.293,1.239,0.669
	c-0.813,0.486-1.276,0.852-1.809,1.035C462.028,583.406,461.686,582.98,461.424,582.778"/>
<path fill="#575756" d="M462.58,580.022c-2.08,2.449-7.254,1.287-8.38-0.282c-0.866-1.041-0.778-2.277,0.167-2.959
	c0.679-0.494,1.274-0.605,1.838,0.276c0.479,0.752,1.121,1.431,1.793,2.032c0.218,0.194,0.906,0.199,1.129,0.009
	c0.653-0.554,1.146-1.283,1.769-1.88c0.332-0.324,0.928-0.816,1.176-0.714c0.527,0.221,1.251,0.78,1.257,1.21
	C463.34,578.501,463.131,579.587,462.58,580.022"/>
<path fill="#575756" d="M454.26,581.653c0.475-0.005,1.039,0.562,1.791,1.006c-0.506,0.38-0.84,0.753-0.956,0.697
	c-0.536-0.257-1.006-0.637-1.499-0.971C453.821,582.127,453.784,581.656,454.26,581.653"/>
<path fill="#575756" d="M456.611,584.084c1.328-0.832,2.538-0.847,3.867-0.02c0.432,0.268,0.843,0.454,1.226,0.562h-6.271
	C455.806,584.521,456.203,584.341,456.611,584.084"/>
<path fill="#1E1E1E" d="M483.488,584.628h-20.295v-0.001c0.787-0.275,1.394-1.039,1.777-2.257c0.224-0.711,0.3-2.576,1.442-3.012
	c1.693-1.429,4.221-3.448,3.662-5.462c-0.26-0.634-0.496-1.653-1.045-2.473c-1.608-2.412-4.355-2.777-6.521-0.942
	c-0.786,0.669-1.531,1.397-2.231,2.154c-1.246,1.354-2.17,1.362-3.414,0.021c-0.701-0.758-1.439-1.489-2.229-2.155
	c-2.256-1.896-5.13-1.402-6.717,1.12c-1.271,2.021-1.059,3.583,0.599,5.365c0.518,0.554,0.833,1.285,1.238,1.937
	c1.776,1.186,2.123,2.381,2.396,3.403c0.329,1.241,0.951,2.019,1.766,2.3h-21.476v-49.894h24.439
	c-0.21,0.127-0.355,0.346-0.355,0.604c0,0.289,0.172,0.539,0.426,0.653c0.137,0.165,2.462,0.049,2.462,0.049
	c0.046,0,0.084,0.036,0.084,0.083v0.45c0,0.046-0.038,0.082-0.084,0.082h-1.891c-0.411,0-0.743,0.325-0.743,0.726
	c0,0.402,0.332,0.729,0.743,0.729h1.392c0,0.005,0,0.011,0,0.016v0.479h-1.081c-0.322,0-0.595,0.203-0.698,0.486
	c-0.636,0.23-1.095,0.831-1.095,1.53v0.545c-0.479-0.214-1.072-0.331-1.772-0.331c-0.473,0-0.971,0.06-1.475,0.162
	c0.013-0.43-0.037-0.816-0.191-1.134c-0.916-1.944-4.788-2.869-5.227-2.967c-0.025-0.006-0.053-0.011-0.078-0.013
	c0,0-0.133-0.014-0.346-0.014c-0.671,0-1.89,0.132-2.517,1.018c-0.456,0.635-0.485,1.49-0.092,2.533
	c0.015,0.043,0.037,0.084,0.066,0.121c-0.097-0.06-0.195-0.104-0.287-0.136c-0.292-0.095-0.695,0.143-1.046,0.234
	c-0.403,0.1-0.812,0.305-1.206,0.284c-1.098-0.052-1.356,0.338-1.051,1.39c0.255,0.884,0.448,1.831,0.411,2.738
	c-0.08,2.301-0.208,4.604-0.501,6.884c-0.296,2.263-0.165,4.454-2.007,6.541c-0.279,0.234,0.014,0.745,0.193,1.046
	c0.104,0.176,0.629,0.325,0.788,0.222c0.665-0.429,1.284-0.702,2.025-0.189c0.059,0.041,0.17,0.013,0.296,0.016
	c0.737-0.103,0.629-0.613,0.552-1.15c-0.156-1.059-0.431-2.136-0.374-3.191c0.193-3.684,0.519-7.364,0.773-11.046
	c0.068-0.963,0.247-1.778,1.379-2.108c0.293-0.087,0.682-0.631,0.627-0.877c-0.001-0.009-0.009-0.017-0.011-0.024l1.642,1.8
	l1.206,1.846c-0.012,0.233,0.016,0.464,0.098,0.687c0.037,0.101,0.084,0.193,0.136,0.286c-1.951,1.325-2.874,2.996-2.359,4.385
	c0.181,0.498,0.526,0.91,1.006,1.228c-1.059,1.097-1.462,2.287-1.084,3.321c0.195,0.524,0.567,0.956,1.09,1.277
	c-1.053,1.098-1.466,2.297-1.09,3.327c0.38,1.032,1.44,1.704,2.998,1.896c0.006,0,0.011,0,0.017,0.003
	c-0.627,1.158-0.703,2.271-0.175,3.122c0.522,0.84,1.525,1.288,2.851,1.288c0.155,0,0.311-0.008,0.474-0.019
	c1.366-0.103,2.914-0.631,4.365-1.494c0.348-0.204,0.675-0.429,0.986-0.658c0.01,0,0.018,0.002,0.027,0.002h2.714
	c0.013,0,0.024,0.003,0.039,0.005c0.121,0.089,0.244,0.181,0.375,0.268c0.021,0.052,0.03,0.106,0.03,0.164v0.331
	c0,0.241-0.198,0.438-0.444,0.438h-2.714c-0.411,0-0.743,0.324-0.743,0.726c0,0.207,0.09,0.392,0.23,0.524
	c0.119,0.248,0.375,0.42,0.67,0.42h2.397c0.17,0,0.307,0.132,0.307,0.301v0.294c0,0.164-0.137,0.299-0.307,0.299h-2.397
	c-0.407,0-0.741,0.326-0.741,0.729c0,0.288,0.173,0.537,0.428,0.653c0.135,0.161,0.338,0.266,0.569,0.266h1.89
	c0.047,0,0.086,0.036,0.086,0.08v0.233c0,0.047-0.039,0.083-0.086,0.083h-1.892c-0.411,0-0.743,0.326-0.743,0.729
	c0,0.4,0.332,0.726,0.743,0.726h1.39c0,0.005,0,0.011,0,0.015v0.48h-1.08c-0.409,0-0.742,0.325-0.742,0.724
	c0,0.403,0.333,0.73,0.742,0.73h1.267c0.717,0,1.302-0.572,1.302-1.273v-0.663c0-0.11-0.026-0.214-0.073-0.306
	c0.396-0.279,0.66-0.733,0.66-1.246v-0.232c0-0.246-0.066-0.477-0.173-0.682c0.398-0.324,0.646-0.807,0.646-1.347v-0.295
	c0-0.378-0.123-0.728-0.333-1.015c0.3-0.266,0.515-0.626,0.597-1.028c1.178,0.578,2.389,0.938,3.479,1.019
	c0.163,0.013,0.317,0.02,0.473,0.02c1.327,0,2.331-0.45,2.854-1.289c0.528-0.85,0.45-1.963-0.178-3.123c0.006,0,0.012,0,0.02-0.003
	c1.557-0.19,2.617-0.864,2.995-1.894c0.377-1.031-0.034-2.229-1.087-3.327c0.522-0.322,0.895-0.753,1.087-1.278
	c0.379-1.034-0.022-2.222-1.081-3.322c0.479-0.315,0.824-0.728,1.004-1.227c0.512-1.388-0.412-3.059-2.36-4.385
	c0.055-0.091,0.102-0.185,0.137-0.284c0.185-0.504,0.115-1.052-0.16-1.586l0.619-0.948l1.412-1.55
	c0.097,0.261,0.371,0.584,0.592,0.649c1.132,0.33,1.313,1.145,1.378,2.108c0.258,3.684,0.579,7.363,0.775,11.049
	c0.057,1.053-0.221,2.129-0.376,3.19c-0.078,0.537-0.185,1.048,0.554,1.15c0.123-0.005,0.235,0.025,0.294-0.016
	c0.74-0.513,1.362-0.241,2.026,0.189c0.159,0.103,0.686-0.047,0.788-0.222c0.18-0.302,0.475-0.812,0.196-1.046
	c-1.845-2.085-1.717-4.278-2.009-6.542c-0.296-2.28-0.421-4.583-0.503-6.883c-0.033-0.91,0.157-1.856,0.413-2.739
	c0.304-1.053,0.051-1.443-1.054-1.39c-0.396,0.021-0.801-0.185-1.205-0.285c-0.335-0.088-0.719-0.306-1.006-0.241
	c0.387-1.036,0.354-1.882-0.097-2.512c-0.63-0.885-1.848-1.02-2.516-1.02c-0.211,0-0.348,0.017-0.348,0.017
	c-0.025,0.002-0.056,0.005-0.078,0.012c-0.438,0.099-4.311,1.022-5.227,2.965c-0.137,0.284-0.192,0.628-0.192,1.004
	c-0.211-0.021-0.427-0.031-0.628-0.031c-0.743,0-1.37,0.129-1.859,0.368v-0.581c0-0.517-0.251-0.979-0.634-1.279
	c0.082-0.168,0.135-0.353,0.135-0.555v-0.663c0-0.111-0.024-0.214-0.071-0.305c0.396-0.281,0.658-0.734,0.658-1.246v-0.232
	c0-0.211,0.066-1.245-0.797-1.608h23.298L483.488,584.628"/>
<path fill="#575756" d="M453.477,546.456c0.739-0.259,1.421-0.602,1.996-1c0.639,0.153,1.146,0.487,1.278,0.846
	c0.35,0.947-1.302,2.719-4.034,3.677c-1.34,0.469-2.736,0.662-3.831,0.525c-0.891-0.112-1.517-0.431-1.673-0.86
	c-0.216-0.589,0.418-1.706,1.994-2.7l0.17,0.262c0.114,0.171,0.308,0.276,0.516,0.276c0.006,0,0.011,0,0.017-0.001
	c0.213-0.005,0.409-0.12,0.518-0.301c0.037-0.062,0.084-0.149,0.14-0.245c0.079,0.003,0.155,0.008,0.235,0.008
	C451.645,546.943,452.57,546.773,453.477,546.456"/>
<path fill="#575756" d="M451.201,545.76c0.508-0.998,1.103-2.315,1.398-3.528c0.577-0.15,1.146-0.232,1.666-0.232
	c0.93,0,1.623,0.262,1.771,0.663c0.116,0.313-0.088,0.779-0.538,1.249c-0.556,0.578-1.438,1.105-2.422,1.451
	C452.439,545.584,451.801,545.716,451.201,545.76"/>
<path fill="#575756" d="M448.383,552.024c0.102,0.019,0.194,0.038,0.3,0.052c0.3,0.037,0.618,0.057,0.941,0.057
	c1.141,0,2.399-0.229,3.641-0.664c0.997-0.349,1.885-0.79,2.628-1.29c0.35,0.133,0.663,0.341,0.784,0.67
	c0.347,0.948-1.304,2.719-4.034,3.676c-1.341,0.472-2.737,0.663-3.833,0.527c-0.891-0.11-1.513-0.432-1.672-0.857
	C446.94,553.647,447.436,552.803,448.383,552.024"/>
<path fill="#575756" d="M448.43,556.592c0.061,0.012,0.116,0.023,0.178,0.03c0.303,0.036,0.618,0.057,0.941,0.057
	c1.141,0,2.401-0.228,3.642-0.664c0.973-0.34,1.841-0.769,2.572-1.251c0.483,0.157,0.808,0.4,0.914,0.688
	c0.347,0.949-1.304,2.724-4.036,3.679c-1.339,0.469-2.735,0.661-3.831,0.526c-0.891-0.112-1.519-0.431-1.674-0.858
	C446.935,558.238,447.455,557.376,448.43,556.592"/>
<path fill="#575756" d="M450.566,561.226c0.849-0.092,1.743-0.295,2.624-0.603c1.492-0.522,2.729-1.253,3.621-2.069
	c-0.084,0.738,0.146,1.575,0.689,2.447c-0.581,0.644-1.345,1.264-2.206,1.776c-1.216,0.723-2.543,1.185-3.646,1.266
	c-0.896,0.067-1.573-0.126-1.814-0.51C449.532,563.043,449.823,562.155,450.566,561.226"/>
<g>
	<path fill="#CE0E0B" d="M478.565,611.242c-0.793,3.797-3.332,7.754-7.997,12.453c-4.177,4.21-9.695,8.677-16.074,13.769
		c-1.07-0.892-2.114-1.758-3.134-2.605c-11.314-9.4-19.49-16.188-21.041-23.602c-0.91-4.353-0.158-8.714,2.014-11.664
		c1.761-2.392,4.299-3.76,7.543-4.071c0.33-0.034,0.664-0.05,0.99-0.05l0,0c1.805-0.003,3.569,0.48,5.256,1.438
		c3.496,1.981,5.806,3.19,8.327,3.185c2.514-0.004,4.812-1.207,8.3-3.191c1.698-0.965,3.405-1.434,5.224-1.438
		c0.336,0,0.68,0.017,1.022,0.047c3.243,0.309,5.784,1.676,7.546,4.07C478.714,602.526,479.47,606.887,478.565,611.242z"/>
	
		<polyline fill="none" stroke="#FFFFFF" stroke-width="0.8604" stroke-linecap="round" stroke-linejoin="round" stroke-miterlimit="10" points="
		435.238,615.18 443.918,615.18 445.862,604.985 450.525,622.202 453.813,610.989 456.644,620.276 458.799,613.083 460.609,617.672 
		462.683,614.272 464.938,614.272 466.953,603.286 468.085,618.124 469.67,613.818 476.017,613.818 	"/>
</g>
<path opacity="0.08" enable-background="new    " d="M454.441,600.094v37.329"/>
<path fill="#F5F5F5" d="M418.227,571.857c-0.722-0.722-1.681-1.118-2.698-1.118h-10.432v-5.3c0-1.612-1.312-2.925-2.924-2.925
	h-25.255c-1.612,0-2.924,1.312-2.924,2.925v5.3h-10.431c-2.104,0-3.818,1.712-3.818,3.815v43.442c0,2.104,1.714,3.818,3.818,3.818
	h51.963c2.105,0,3.817-1.714,3.817-3.818v-43.441C419.344,573.539,418.947,572.576,418.227,571.857 M401.533,572.818h-23.977v-6.742
	h23.977V572.818z"/>
<polygon fill="#E04316" points="402.424,599.055 392.321,599.055 392.321,609.159 386.766,609.159 386.766,599.055 376.666,599.055 
	376.666,593.502 386.766,593.502 386.766,583.399 392.321,583.399 392.321,593.502 402.424,593.502 "/>
<path fill="#B0B0B0" d="M501.811,677.379c0,0-1.549,2.879,9.437,5.277h229.951c0,0,7.69-0.493,9.718-4.118l0.013-1.987
	L501.811,677.379z"/>
<path fill="#FFFFFF" d="M501.863,671.565h249.146v6.395c0,0,0.374,0.86-2.558,0.644H504.21c0,0-2.296,0.645-2.51-0.855
	L501.863,671.565z"/>
<path fill="#B0B0B0" d="M609.515,671.614c0,0-0.962,3.205,2.239,3.523h28.904c0,0,3.071,0.396,2.662-3.409L609.515,671.614z"/>
<path fill="#161D21" d="M726.513,671.534V557.978c0-5.158-4.215-9.373-9.366-9.373H535.585c-5.154,0-9.371,4.216-9.371,9.373
	v113.557H726.513L726.513,671.534z"/>
<rect x="532.656" y="555.635" fill="#FFF2CA" width="187.412" height="108.929"/>
<g opacity="0.2">
	<path fill="#FFFFFF" d="M751.009,677.96v-6.395H627.077v11.091h114.121c0,0,7.69-0.493,9.718-4.118l0.002-0.249
		C751.081,678.127,751.009,677.96,751.009,677.96z"/>
</g>
<path fill="#27AAE1" d="M663.915,600.804c0,0.769-0.68,1.387-1.517,1.387h-72.057c-0.837,0-1.517-0.619-1.517-1.387v-23.499
	c0-0.768,0.68-1.387,1.517-1.387h72.057c0.837,0,1.517,0.622,1.517,1.387V600.804z"/>
<g opacity="0.2">
	<g>
		<g>
			<defs>
				<rect id="SVGID_1_" x="590.34" y="577.305" width="73.573" height="24.889"/>
			</defs>
			<clipPath id="SVGID_2_">
				<use xlink:href="#SVGID_1_"  overflow="visible"/>
			</clipPath>
			<path clip-path="url(#SVGID_2_)" fill="#1C75BC" d="M662.396,602.193c0.837,0,1.517-0.621,1.517-1.387v-23.502l-73.573,24.889
				H662.396z"/>
		</g>
	</g>
</g>
<path fill="#FFFFFF" d="M605.974,584.924l-0.668,3.089h0.099c1.154,0,1.975-1.239,1.975-2.297c0-0.777-0.442-1.459-1.53-1.459
	c-2.252,0-3.755,1.264-3.755,3.38c0,0.709,0.181,0.818,0.195,0.944c-0.959,0-1.489-0.35-1.489-1.35c0-1.85,2.562-3.615,4.881-3.615
	c2.186,0,3.158,1.087,3.158,2.226c0,0.821-0.501,1.682-1.394,2.196c1.144,0.225,1.601,1.183,1.601,2.266
	c0,1.795-1.236,3.979-2.766,3.979c-0.835,0-1.644-0.082-1.644-0.96c0-0.236,0.057-0.529,0.182-0.875
	c0.261,0.433,0.735,0.5,0.932,0.5c0.768,0,1.376-1.374,1.376-2.559c0-0.903-0.348-1.711-1.264-1.711
	c-0.182,0-0.448,0.016-0.699,0.043l-1.137,5.327h-2.005l1.891-8.846L605.974,584.924z M616.154,587.093l-1.002,4.728
	c-0.027,0.155-0.057,0.307-0.057,0.432c0,0.305,0.141,0.529,0.695,0.529c0.557,0,1.279-0.779,1.838-1.223h0.472
	c-0.639,0.64-2.211,2.489-3.295,2.489c-0.945,0-1.584-0.362-1.709-1.168c-0.655,0.61-1.407,1.168-2.004,1.168
	c-1.071,0-1.739-0.477-1.739-1.517c0-0.207,0.028-0.444,0.085-0.709l1.002-4.728h2.001l-1,4.728
	c-0.029,0.153-0.056,0.305-0.056,0.432c0,0.304,0.138,0.527,0.696,0.527c0.29,0,0.635-0.222,0.984-0.498
	c0.015-0.141,0.041-0.292,0.084-0.46l1.001-4.728h2.003V587.093z M619.701,587.093l-1.014,4.728
	c-0.043,0.155-0.069,0.307-0.069,0.444c0,0.307,0.153,0.514,0.695,0.514c0.321,0,0.693-0.249,1.057-0.557l1.085-5.129h2.019
	l-1.699,8.064c-0.417,1.988-1.613,2.365-2.531,2.365c-0.85,0-1.641-0.599-1.641-1.503c0-1.293,1.085-1.698,2.403-2.085l0.211-0.959
	c-0.627,0.572-1.336,1.07-1.892,1.07c-1.085,0-1.726-0.475-1.726-1.516c0-0.223,0.03-0.445,0.084-0.71l0.973-4.728H619.701z
	 M618.921,596.284c0.281,0,0.655-0.264,0.821-1.083l0.168-0.821c-0.877,0.292-1.544,0.695-1.544,1.446
	C618.368,596.021,618.616,596.284,618.921,596.284z M636.696,583.646l-2.212,10.4h-2.003c-0.653,0-0.807-1.224-0.807-2.838
	c0-1.363,0.098-2.99,0.098-4.437c0-0.429,0-0.848-0.028-1.236l-1.806,8.513h-2.002l2.017-9.459
	c-1.225,0.516-1.947,1.573-1.947,3.048c0,0.709,0.181,0.819,0.194,0.948c-0.958,0-1.487-0.352-1.487-1.35
	c0-1.853,2.559-3.618,4.88-3.618c1.169,0,1.267,0.599,1.267,2.587c0,1.462-0.153,3.284-0.153,4.633c0,0.639,0.04,1.184,0.138,1.517
	l1.852-8.705h2.001V583.646z M641.635,588.996c0.084,0.084,0.209,0.127,0.403,0.127c0.653,0,0.946-0.476,1.46-0.682l0.056,0.291
	c-0.431,0.545-1.153,1.004-1.96,1.225c-0.266,2.795-1.779,4.173-3.169,4.173c-1.491,0-2.13-0.626-2.13-2.28
	c0-3.422,1.738-4.895,3.658-4.895C641.274,586.954,641.605,587.984,641.635,588.996z M640.564,590.097
	c-0.405,0-0.585-0.293-0.585-0.627c0-0.401,0.237-0.833,0.61-0.972c-0.039-0.461-0.192-0.723-0.582-0.723
	c-1.308,0-1.863,2.834-1.863,3.947c0,0.833,0.388,1.056,0.932,1.056C639.924,592.778,640.396,591.444,640.564,590.097z
	 M651.563,588.066c0,2.169-1.099,5.979-3.907,5.979c-0.946,0-1.557-0.361-1.697-1.154c-0.651,0.598-1.406,1.154-1.988,1.154
	c-1.07,0-1.739-0.475-1.739-1.516c0-0.208,0.028-0.445,0.085-0.71l1.002-4.728h2.002l-1.002,4.728
	c-0.027,0.155-0.057,0.307-0.057,0.432c0,0.305,0.141,0.529,0.696,0.529c0.292,0,0.639-0.21,0.974-0.487
	c0-0.139,0.027-0.305,0.068-0.474l1.003-4.727h2.002l-1.001,4.727c-0.041,0.196-0.068,0.361-0.068,0.515
	c0,0.264,0.122,0.443,0.527,0.443c1.364,0,2.296-3.042,2.296-4.561c-0.084,0.028-0.208,0.059-0.294,0.059
	c-0.401,0-0.582-0.391-0.582-0.779c0-0.293,0.334-0.683,0.792-0.683C651.271,586.813,651.563,587.343,651.563,588.066z"/>
<g opacity="0.5">
	<g>
		<g>
			<defs>
				<rect id="SVGID_3_" x="619.998" y="600.419" width="10.634" height="10.63"/>
			</defs>
			<clipPath id="SVGID_4_">
				<use xlink:href="#SVGID_3_"  overflow="visible"/>
			</clipPath>
			<path clip-path="url(#SVGID_4_)" fill="#FFFFFF" d="M630.632,605.733c0,2.937-2.382,5.315-5.318,5.315s-5.315-2.379-5.315-5.315
				c0-2.935,2.379-5.314,5.315-5.314S630.632,602.799,630.632,605.733"/>
		</g>
	</g>
</g>
<g opacity="0.3">
	<g>
		<g>
			<defs>
				<rect id="SVGID_5_" x="612.536" y="592.954" width="25.558" height="25.559"/>
			</defs>
			<clipPath id="SVGID_6_">
				<use xlink:href="#SVGID_5_"  overflow="visible"/>
			</clipPath>
			<path clip-path="url(#SVGID_6_)" fill="#FFFFFF" d="M625.313,592.954c-7.058,0-12.777,5.724-12.777,12.779
				c0,7.06,5.72,12.779,12.777,12.779c7.059,0,12.78-5.72,12.78-12.779C638.094,598.678,632.372,592.954,625.313,592.954
				 M625.313,614.612c-4.9,0-8.877-3.974-8.877-8.88c0-4.901,3.977-8.876,8.877-8.876c4.903,0,8.877,3.975,8.877,8.876
				C634.19,610.639,630.217,614.612,625.313,614.612"/>
		</g>
	</g>
</g>
<path fill="#FBC088" d="M634.985,617.869c0,0-2.864-1.762-7.435-2.331V605.32c0-0.833-0.675-1.508-1.508-1.508h-1.484
	c-0.833,0-1.508,0.675-1.508,1.508v11.723v1.425l-2.437-2.548c-0.574-0.6-1.525-0.622-2.129-0.046l-1.07,1.024
	c-0.603,0.575-0.623,1.528-0.049,2.13l3.442,3.597v0.001l0.116,0.122c0.46,0.496,3.23,2.051,3.395,7.41v4.919
	c0,0.924,0.755,1.676,1.681,1.676h7.165c0.926,0,1.682-0.752,1.682-1.676v-5.358c0,0,1.086-1.142,1.873-2.724v-6.204
	C636.72,618.573,634.985,617.869,634.985,617.869"/>
<path fill="#FBE0B5" d="M625.881,604.423h-1.132c-0.634,0-1.146,0.513-1.146,1.146v1.478h3.425v-1.478
	C627.027,604.936,626.514,604.423,625.881,604.423"/>
<path fill="#FBE0B5" d="M616.992,617.988l-0.035,0.038c0.008,0.358,0.141,0.721,0.408,1.002l1.486,1.551l1.326-1.283l-1.236-1.275
	C618.413,617.474,617.539,617.461,616.992,617.988"/>
<rect x="622.485" y="635.127" fill="#FFFFFF" width="14.91" height="3.314"/>
<rect x="621.804" y="637.05" fill="#F15A29" width="16.122" height="15.974"/>
<path fill="#FFFFFF" d="M637.02,639.986c0,0.831-0.674,1.507-1.506,1.507s-1.508-0.676-1.508-1.507c0-0.833,0.676-1.507,1.508-1.507
	S637.02,639.153,637.02,639.986"/>
<line fill="none" x1="592.209" y1="718.27" x2="592.209" y2="1026.226"/>
<rect x="554.803" y="622.224" fill="#FFFFFF" width="18.324" height="13.258"/>
<path fill="#891021" d="M556.516,650.477c-2.161,0.009-3.926-1.74-3.934-3.9c-0.011-2.161,1.743-3.925,3.899-3.936
	c2.16-0.01,3.926,1.741,3.935,3.901C560.425,648.701,558.676,650.467,556.516,650.477 M556.49,644.321
	c-1.232,0.004-2.233,1.013-2.229,2.248c0.006,1.234,1.015,2.232,2.249,2.229c1.235-0.006,2.235-1.014,2.229-2.246
	C558.733,645.313,557.726,644.315,556.49,644.321"/>
<path fill="#891021" d="M569.225,650.423c-2.158,0.009-3.924-1.741-3.933-3.901c-0.009-2.159,1.74-3.926,3.898-3.935
	c2.161-0.01,3.927,1.74,3.937,3.9C573.137,648.646,571.385,650.411,569.225,650.423 M569.2,644.266
	c-1.234,0.008-2.235,1.013-2.229,2.249c0.008,1.233,1.014,2.232,2.249,2.229c1.233-0.006,2.235-1.013,2.229-2.247
	C571.443,645.259,570.434,644.26,569.2,644.266"/>
<path fill="#891021" d="M577.88,620.183c-0.197-0.042-0.392-0.039-0.577,0.002l-24.797,0.106c-0.036-0.201-0.058-0.328-0.063-0.361
	c-0.02-0.108-0.051-0.212-0.098-0.315c-0.068-0.155-1.763-3.811-6.056-3.793l-4.252,0.019c-0.744,0.002-1.342,0.608-1.34,1.35
	c0.006,0.739,0.609,1.338,1.351,1.336l4.254-0.019c2.2-0.01,3.267,1.617,3.527,2.086c0.148,0.864,0.777,4.38,1.033,7.859l1.04,9.893
	c0.01,0.072,0.022,0.146,0.045,0.216c0.284,1.009,1.56,2.711,4.521,2.695l17.229-0.071c0.708-0.003,1.277-0.58,1.275-1.287
	c-0.004-0.708-0.577-1.279-1.286-1.277l-17.231,0.073c-1.435,0.008-1.896-0.579-2.022-0.804l-0.093-0.898
	c0.506,0.146,0.93,0.17,1.154,0.166c0.035,0,0.066,0,0.093-0.002c0.514,0,8.172-0.035,13.793-0.057h0.004
	c5.583-0.025,7.062-4.115,7.122-4.29c0.016-0.049,0.031-0.103,0.043-0.153l2.356-10.877
	C579.064,621.054,578.604,620.342,577.88,620.183 M568.029,631.81l-4.187,2.926c0,0.003,0,0.003,0,0.004
	c-0.037,0.025-0.078,0.051-0.123,0.072c0,0-0.004,0.003-0.006,0.003c-0.008,0.005-0.021,0.007-0.028,0.013
	c-0.033,0.013-0.065,0.026-0.097,0.038c-0.019,0.006-0.034,0.013-0.051,0.015c-0.03,0.009-0.058,0.016-0.085,0.022
	c-0.018,0-0.035,0.007-0.049,0.007c-0.039,0.006-0.078,0.011-0.118,0.011c-0.005,0-0.009,0.001-0.015,0.001
	c-0.047,0-0.097-0.006-0.144-0.012c-0.016-0.003-0.026-0.007-0.039-0.007c-0.036-0.007-0.073-0.019-0.111-0.026
	c-0.01-0.004-0.023-0.006-0.037-0.011c-0.047-0.019-0.091-0.035-0.136-0.058c-0.004-0.002-0.006-0.007-0.008-0.007
	c-0.043-0.021-0.082-0.048-0.119-0.073c-0.004-0.005-0.01-0.005-0.016-0.01l-4.153-3.116c-0.444-0.336-0.535-0.964-0.201-1.409
	c0.332-0.445,0.964-0.536,1.412-0.202l2.53,1.901l-0.032-7.936c-0.002-0.559,0.446-1.011,1.001-1.014
	c0.557-0.002,1.012,0.447,1.014,1.005l0.037,8.038l2.605-1.824c0.454-0.32,1.086-0.21,1.403,0.247
	C568.596,630.861,568.483,631.49,568.029,631.81"/>
<path fill="#DB2A28" d="M702.642,625.863c0.513,0.744,0.325,1.762-0.417,2.273l-25.728,17.738c-0.743,0.513-1.763,0.325-2.276-0.421
	l-10.306-14.95c-0.515-0.744-0.327-1.76,0.416-2.274l25.728-17.736c0.744-0.512,1.765-0.323,2.276,0.418L702.642,625.863z"/>
<path fill="#93B3B5" d="M682.018,638.5c0.119,0.173,0.076,0.406-0.096,0.525l-5.933,4.09c-0.168,0.12-0.405,0.075-0.523-0.098
	l-2.376-3.446c-0.12-0.17-0.077-0.406,0.095-0.524l5.931-4.089c0.172-0.119,0.407-0.076,0.526,0.094L682.018,638.5z"/>
<rect x="663.281" y="621.464" transform="matrix(0.8233 -0.5676 0.5676 0.8233 -234.036 496.5833)" fill="#414042" width="34.521" height="5.423"/>
<rect x="665.06" y="626.402" transform="matrix(-0.8233 0.5676 -0.5676 -0.8233 1599.8506 755.5977)" fill="#FFFFFF" width="34.518" height="0.817"/>
<path fill="#FBB040" d="M695.846,626.442c0.768,1.114,0.211,2.833-1.242,3.839c-1.454,1.001-3.259,0.909-4.027-0.207
	c-0.77-1.116-0.214-2.834,1.241-3.837C693.272,625.233,695.074,625.327,695.846,626.442"/>
<path fill="#27AAE1" d="M698.479,624.626c0.77,1.118,0.213,2.834-1.241,3.837c-1.455,1.004-3.256,0.911-4.026-0.204
	c-0.77-1.116-0.214-2.834,1.24-3.838C695.907,623.419,697.707,623.512,698.479,624.626"/>
<path fill="#657E59" d="M693.322,625.604c-0.547,0.89-0.629,1.907-0.111,2.655c0.516,0.747,1.491,1.033,2.519,0.841
	c0.548-0.893,0.63-1.909,0.116-2.657C695.33,625.695,694.35,625.409,693.322,625.604"/>
<path fill="#275693" d="M708.619,650.084c0.101,0.896-0.546,1.706-1.442,1.807l-31.053,3.484c-0.896,0.102-1.705-0.544-1.808-1.443
	l-2.026-18.042c-0.101-0.901,0.545-1.71,1.443-1.811l31.05-3.486c0.9-0.099,1.709,0.546,1.809,1.443L708.619,650.084z"/>
<path fill="#93B3B5" d="M684.471,651.482c0.025,0.209-0.126,0.396-0.332,0.416l-7.161,0.807c-0.208,0.022-0.395-0.125-0.417-0.333
	l-0.469-4.162c-0.022-0.208,0.128-0.395,0.335-0.416l7.159-0.804c0.209-0.024,0.395,0.125,0.418,0.331L684.471,651.482z"/>
<rect x="672.629" y="635.453" transform="matrix(0.9938 -0.1115 0.1115 0.9938 -66.8555 80.9039)" fill="#414042" width="34.516" height="5.429"/>
<rect x="673.028" y="640.955" transform="matrix(-0.9938 0.1115 -0.1115 -0.9938 1447.7759 1201.7743)" fill="#FFFFFF" width="34.522" height="0.818"/>
<path fill="#FBB040" d="M702.352,647.385c0.155,1.348-1.146,2.597-2.904,2.796c-1.756,0.194-3.301-0.735-3.454-2.083
	c-0.151-1.347,1.15-2.597,2.907-2.794C700.656,645.105,702.203,646.038,702.352,647.385"/>
<path fill="#BE1E2D" d="M705.532,647.029c0.151,1.345-1.148,2.597-2.906,2.794c-1.754,0.197-3.301-0.733-3.453-2.082
	c-0.15-1.346,1.151-2.598,2.904-2.795C703.834,644.748,705.381,645.682,705.532,647.029"/>
<path fill="#F15A29" d="M700.525,645.452c-0.9,0.529-1.452,1.385-1.353,2.289c0.104,0.901,0.83,1.615,1.827,1.93
	c0.903-0.527,1.454-1.385,1.352-2.287C702.252,646.48,701.522,645.77,700.525,645.452"/>
<path fill="#B0B0B0" d="M14.193,694.501c0,0-1.635,3.041,9.972,5.574h242.974c0,0,8.129-0.518,10.269-4.349l0.014-2.101
	L14.193,694.501z"/>
<path fill="#FFFFFF" d="M14.25,688.358h263.258v6.758c0,0,0.396,0.906-2.703,0.68H16.726c0,0-2.423,0.679-2.649-0.903L14.25,688.358
	z"/>
<path fill="#B0B0B0" d="M127.999,688.411c0,0-1.017,3.384,2.367,3.722h30.54c0,0,3.248,0.421,2.816-3.604L127.999,688.411z"/>
<path fill="#161D21" d="M251.624,688.328V568.336c0-5.447-4.455-9.901-9.899-9.901H49.882c-5.446,0-9.902,4.454-9.902,9.901v119.99
	h211.643V688.328z"/>
<rect x="46.787" y="565.863" fill="#F4AC56" width="198.029" height="115.099"/>
<g opacity="0.2">
	<path fill="#FFFFFF" d="M277.508,695.116v-6.758H146.559v11.719h120.58c0,0,8.129-0.52,10.269-4.351l0.003-0.26
		C277.582,695.29,277.508,695.116,277.508,695.116z"/>
</g>
<rect x="102.208" y="600.084" fill="#FFFFFF" width="88.698" height="60.857"/>
<g opacity="0.9">
	<rect x="110.832" y="593.434" fill="#00628D" width="71.45" height="13.049"/>
</g>
<g>
	<g>
		<path opacity="0.7" fill="#CCCCCC" enable-background="new    " d="M186.041,624.117c0,0.333-0.273,0.604-0.606,0.604h-75.401
			c-0.333,0-0.605-0.271-0.605-0.604v-9.88c0-0.335,0.271-0.605,0.605-0.605h75.401c0.333,0,0.606,0.271,0.606,0.605V624.117z"/>
		<g opacity="0.7">
			<path fill="#707487" d="M124.078,620.127c0.143,0,0.262-0.028,0.356-0.083c0.094-0.055,0.169-0.127,0.225-0.215
				c0.058-0.088,0.097-0.188,0.12-0.304c0.022-0.115,0.033-0.23,0.033-0.348v-1.237h0.31v1.237c0,0.165-0.019,0.323-0.057,0.47
				c-0.038,0.149-0.098,0.28-0.182,0.393c-0.083,0.113-0.19,0.202-0.322,0.265c-0.134,0.068-0.293,0.101-0.482,0.101
				c-0.194,0-0.359-0.033-0.492-0.104c-0.134-0.069-0.241-0.161-0.323-0.273c-0.081-0.113-0.141-0.245-0.175-0.394
				c-0.035-0.147-0.053-0.302-0.053-0.457v-1.237h0.309v1.237c0,0.122,0.013,0.24,0.038,0.354c0.022,0.114,0.064,0.213,0.12,0.303
				c0.056,0.087,0.13,0.158,0.224,0.21C123.82,620.099,123.938,620.127,124.078,620.127z"/>
			<path fill="#707487" d="M126.206,620.424c-0.145,0-0.287-0.024-0.428-0.068c-0.141-0.046-0.261-0.109-0.363-0.193l0.131-0.205
				c0.107,0.081,0.212,0.141,0.317,0.182c0.107,0.039,0.218,0.061,0.335,0.061c0.131,0,0.235-0.026,0.312-0.077
				c0.077-0.053,0.116-0.126,0.116-0.22c0-0.043-0.012-0.081-0.032-0.113c-0.021-0.029-0.051-0.059-0.092-0.08
				c-0.042-0.023-0.095-0.044-0.161-0.062c-0.064-0.02-0.138-0.039-0.224-0.061c-0.108-0.026-0.201-0.054-0.279-0.077
				c-0.078-0.025-0.143-0.058-0.193-0.09c-0.051-0.034-0.087-0.076-0.111-0.125c-0.022-0.047-0.034-0.109-0.034-0.179
				c0-0.089,0.018-0.167,0.054-0.24c0.035-0.07,0.083-0.129,0.146-0.177c0.062-0.048,0.136-0.082,0.22-0.105
				c0.083-0.024,0.173-0.036,0.27-0.036c0.137,0,0.262,0.021,0.38,0.066c0.117,0.044,0.217,0.102,0.297,0.171l-0.139,0.183
				c-0.076-0.066-0.163-0.114-0.257-0.149c-0.092-0.033-0.189-0.05-0.288-0.05c-0.11,0-0.204,0.022-0.282,0.069
				c-0.075,0.047-0.114,0.123-0.114,0.228c0,0.04,0.008,0.074,0.023,0.103c0.015,0.027,0.039,0.05,0.074,0.072
				c0.035,0.021,0.078,0.04,0.133,0.055c0.052,0.018,0.118,0.034,0.194,0.053c0.118,0.027,0.224,0.055,0.311,0.084
				c0.09,0.029,0.164,0.062,0.223,0.101c0.057,0.04,0.101,0.086,0.13,0.14c0.029,0.051,0.042,0.118,0.042,0.191
				c0,0.168-0.064,0.304-0.191,0.399C126.598,620.375,126.424,620.424,126.206,620.424z"/>
			<path fill="#707487" d="M128.072,620.424c-0.136,0-0.261-0.024-0.373-0.074c-0.114-0.048-0.21-0.117-0.291-0.204
				c-0.079-0.083-0.142-0.183-0.187-0.296c-0.044-0.117-0.066-0.235-0.066-0.359c0-0.126,0.022-0.247,0.066-0.361
				c0.045-0.111,0.11-0.21,0.189-0.295c0.083-0.086,0.18-0.152,0.293-0.203c0.112-0.049,0.236-0.073,0.373-0.073
				s0.258,0.024,0.371,0.075c0.112,0.052,0.207,0.117,0.285,0.201c0.077,0.084,0.139,0.184,0.18,0.294
				c0.042,0.113,0.064,0.228,0.064,0.348c0,0.025,0,0.049-0.001,0.068c-0.001,0.022-0.003,0.039-0.004,0.049h-1.494
				c0.008,0.091,0.028,0.174,0.063,0.245c0.035,0.072,0.079,0.137,0.134,0.19c0.054,0.053,0.118,0.094,0.188,0.125
				c0.07,0.027,0.145,0.045,0.223,0.045c0.055,0,0.108-0.011,0.162-0.022c0.053-0.014,0.102-0.035,0.148-0.06
				c0.046-0.026,0.087-0.058,0.123-0.095c0.036-0.034,0.062-0.077,0.082-0.123l0.262,0.07c-0.029,0.068-0.069,0.129-0.122,0.185
				c-0.052,0.054-0.112,0.104-0.179,0.146c-0.066,0.037-0.143,0.07-0.225,0.093C128.248,620.412,128.162,620.424,128.072,620.424z
				 M128.689,619.37c-0.007-0.085-0.028-0.165-0.064-0.239c-0.035-0.069-0.08-0.133-0.133-0.182
				c-0.055-0.052-0.118-0.092-0.188-0.12c-0.072-0.028-0.149-0.043-0.228-0.043c-0.082,0-0.157,0.015-0.227,0.043
				c-0.072,0.028-0.135,0.068-0.188,0.122c-0.054,0.051-0.098,0.112-0.132,0.182c-0.034,0.072-0.054,0.152-0.06,0.237H128.689z"/>
			<path fill="#707487" d="M130.258,618.854c-0.151,0.006-0.286,0.044-0.4,0.118c-0.117,0.072-0.199,0.175-0.249,0.308v1.11h-0.302
				v-1.8h0.282v0.415c0.062-0.124,0.145-0.227,0.246-0.309c0.1-0.082,0.209-0.123,0.324-0.123c0.024,0,0.043,0,0.061,0
				c0.015,0,0.028,0.003,0.04,0.005L130.258,618.854L130.258,618.854z"/>
			<path fill="#707487" d="M132.118,620.39h-0.303v-1.006c0-0.196-0.029-0.336-0.089-0.422c-0.058-0.088-0.147-0.131-0.268-0.131
				c-0.061,0-0.125,0.014-0.186,0.037c-0.062,0.022-0.121,0.055-0.177,0.097c-0.056,0.04-0.104,0.091-0.145,0.148
				c-0.042,0.059-0.072,0.12-0.094,0.19v1.088h-0.304v-1.8h0.277v0.385c0.071-0.125,0.173-0.228,0.307-0.302
				c0.136-0.076,0.281-0.117,0.44-0.117c0.103,0,0.189,0.021,0.258,0.057c0.07,0.039,0.124,0.094,0.166,0.161
				c0.042,0.069,0.07,0.147,0.088,0.238c0.017,0.094,0.025,0.194,0.025,0.302v1.074H132.118z"/>
			<path fill="#707487" d="M133.063,620.424c-0.089,0-0.174-0.015-0.25-0.044c-0.075-0.028-0.141-0.068-0.196-0.116
				c-0.055-0.047-0.097-0.108-0.129-0.177c-0.03-0.065-0.047-0.14-0.047-0.214c0-0.086,0.02-0.163,0.056-0.231
				c0.037-0.072,0.089-0.13,0.159-0.181c0.065-0.051,0.147-0.088,0.24-0.113c0.092-0.028,0.194-0.041,0.305-0.041
				c0.087,0,0.175,0.009,0.265,0.023c0.09,0.019,0.169,0.04,0.238,0.067v-0.146c0-0.146-0.042-0.262-0.124-0.348
				c-0.083-0.082-0.201-0.125-0.352-0.125c-0.181,0-0.373,0.07-0.571,0.211l-0.101-0.199c0.117-0.075,0.233-0.137,0.348-0.177
				c0.116-0.036,0.234-0.057,0.359-0.057c0.23,0,0.413,0.064,0.545,0.189c0.132,0.126,0.2,0.304,0.2,0.536v0.734
				c0,0.068,0.032,0.108,0.097,0.11v0.262c-0.024,0.003-0.045,0.007-0.066,0.01c-0.022,0.003-0.041,0.003-0.059,0.003
				c-0.051,0-0.1-0.013-0.148-0.041c-0.048-0.025-0.073-0.074-0.079-0.141l-0.007-0.127c-0.042,0.053-0.088,0.104-0.142,0.146
				c-0.052,0.04-0.109,0.074-0.167,0.103c-0.062,0.029-0.123,0.05-0.185,0.062C133.187,620.416,133.125,620.424,133.063,620.424z
				 M133.14,620.197c0.096,0,0.19-0.021,0.282-0.063c0.092-0.041,0.166-0.093,0.218-0.152c0.043-0.05,0.065-0.097,0.065-0.142
				v-0.265c-0.071-0.029-0.147-0.049-0.227-0.065c-0.079-0.015-0.155-0.021-0.229-0.021c-0.158,0-0.281,0.03-0.377,0.094
				c-0.094,0.062-0.142,0.149-0.142,0.26c0,0.046,0.01,0.089,0.028,0.134c0.018,0.044,0.045,0.079,0.08,0.11
				c0.034,0.033,0.076,0.058,0.126,0.077C133.018,620.185,133.074,620.197,133.14,620.197z"/>
			<path fill="#707487" d="M137.213,620.39h-0.304v-1.006c0-0.189-0.03-0.329-0.092-0.419c-0.06-0.09-0.152-0.134-0.271-0.134
				c-0.124,0-0.235,0.043-0.333,0.132c-0.097,0.09-0.167,0.203-0.208,0.344v1.085h-0.304v-1.007c0-0.194-0.03-0.337-0.089-0.422
				c-0.061-0.088-0.15-0.131-0.27-0.131c-0.121,0-0.233,0.042-0.332,0.13c-0.098,0.084-0.168,0.201-0.209,0.343v1.087h-0.305v-1.799
				h0.277v0.385c0.074-0.132,0.169-0.236,0.287-0.308c0.118-0.071,0.251-0.11,0.397-0.11c0.15,0,0.271,0.041,0.36,0.124
				c0.089,0.081,0.143,0.187,0.162,0.314c0.162-0.293,0.39-0.439,0.687-0.439c0.104,0,0.19,0.02,0.26,0.059
				c0.07,0.037,0.127,0.091,0.167,0.159c0.042,0.069,0.07,0.146,0.092,0.238c0.018,0.094,0.026,0.193,0.026,0.301v1.074H137.213z"/>
			<path fill="#707487" d="M138.476,620.424c-0.137,0-0.26-0.024-0.375-0.074c-0.112-0.048-0.209-0.117-0.29-0.204
				c-0.08-0.083-0.143-0.183-0.187-0.296c-0.046-0.117-0.068-0.235-0.068-0.359c0-0.126,0.022-0.247,0.068-0.361
				c0.045-0.111,0.108-0.21,0.189-0.295c0.081-0.086,0.179-0.152,0.292-0.203c0.113-0.049,0.236-0.073,0.373-0.073
				c0.137,0,0.258,0.024,0.372,0.075c0.109,0.052,0.207,0.117,0.283,0.201c0.078,0.084,0.138,0.184,0.183,0.294
				c0.041,0.113,0.063,0.228,0.063,0.348c0,0.025-0.001,0.049-0.001,0.068c-0.001,0.022-0.003,0.039-0.005,0.049h-1.494
				c0.007,0.091,0.028,0.174,0.062,0.245c0.036,0.072,0.079,0.137,0.135,0.19c0.055,0.053,0.118,0.094,0.188,0.125
				c0.069,0.027,0.145,0.045,0.223,0.045c0.055,0,0.108-0.011,0.162-0.022c0.053-0.014,0.104-0.035,0.149-0.06
				c0.045-0.026,0.086-0.058,0.123-0.095c0.036-0.034,0.062-0.077,0.082-0.123l0.262,0.07c-0.028,0.068-0.071,0.129-0.122,0.185
				c-0.051,0.054-0.112,0.104-0.179,0.146c-0.068,0.037-0.144,0.07-0.227,0.093C138.651,620.412,138.565,620.424,138.476,620.424z
				 M139.093,619.37c-0.006-0.085-0.028-0.165-0.065-0.239c-0.034-0.069-0.079-0.133-0.135-0.182
				c-0.052-0.052-0.116-0.092-0.186-0.12c-0.071-0.028-0.147-0.043-0.228-0.043c-0.081,0-0.157,0.015-0.229,0.043
				c-0.071,0.028-0.133,0.068-0.187,0.122c-0.053,0.051-0.097,0.112-0.13,0.182c-0.034,0.072-0.054,0.152-0.06,0.237H139.093z"/>
		</g>
	</g>
	<g opacity="0.7">
		<path fill="#707487" d="M115.07,618.601c0.285-0.15,0.481-0.449,0.481-0.795c0-0.499-0.404-0.902-0.904-0.902
			s-0.905,0.4-0.905,0.902c0,0.346,0.197,0.645,0.482,0.795c-0.572,0.18-0.987,0.717-0.987,1.344v0.712h2.82v-0.712
			C116.057,619.317,115.641,618.78,115.07,618.601z"/>
	</g>
</g>
<g>
	<g>
		<path opacity="0.7" fill="#CCCCCC" enable-background="new    " d="M186.041,638.534c0,0.334-0.273,0.605-0.606,0.605h-75.401
			c-0.333,0-0.605-0.271-0.605-0.605v-9.878c0-0.333,0.271-0.604,0.605-0.604h75.401c0.333,0,0.606,0.271,0.606,0.604V638.534z"/>
		<g opacity="0.7">
			<path fill="#707487" d="M123.345,634.486l0.298-0.438l-0.464-0.147l0.087-0.284l0.472,0.183l-0.021-0.499h0.344l-0.021,0.499
				l0.471-0.183l0.088,0.284l-0.464,0.147l0.304,0.438l-0.257,0.167l-0.29-0.448l-0.297,0.448L123.345,634.486z"/>
			<path fill="#707487" d="M125.569,634.486l0.296-0.438l-0.466-0.147l0.087-0.284l0.472,0.183l-0.02-0.499h0.342l-0.02,0.499
				l0.471-0.183l0.087,0.284l-0.465,0.147l0.303,0.438l-0.256,0.167l-0.288-0.448l-0.297,0.448L125.569,634.486z"/>
			<path fill="#707487" d="M127.792,634.486l0.296-0.438l-0.465-0.147l0.087-0.284l0.473,0.183l-0.021-0.499h0.344l-0.021,0.499
				l0.47-0.183l0.088,0.284l-0.465,0.147l0.304,0.438l-0.258,0.167l-0.289-0.448l-0.297,0.448L127.792,634.486z"/>
			<path fill="#707487" d="M130.014,634.486l0.296-0.438l-0.465-0.147l0.087-0.284l0.472,0.183l-0.021-0.499h0.342l-0.02,0.499
				l0.472-0.183l0.086,0.284l-0.465,0.147l0.303,0.438l-0.255,0.167l-0.289-0.448l-0.297,0.448L130.014,634.486z"/>
			<path fill="#707487" d="M132.235,634.486l0.295-0.438l-0.464-0.147l0.087-0.284l0.471,0.183l-0.021-0.499h0.343l-0.02,0.499
				l0.472-0.183l0.088,0.284l-0.465,0.147l0.303,0.438l-0.256,0.167l-0.291-0.448l-0.296,0.448L132.235,634.486z"/>
			<path fill="#707487" d="M134.458,634.486l0.297-0.438l-0.466-0.147l0.087-0.284l0.473,0.183l-0.022-0.499h0.344l-0.021,0.499
				l0.471-0.183l0.087,0.284l-0.465,0.147l0.305,0.438l-0.257,0.167l-0.289-0.448l-0.296,0.448L134.458,634.486z"/>
			<path fill="#707487" d="M136.68,634.486l0.296-0.438l-0.465-0.147l0.087-0.284l0.471,0.183l-0.02-0.499h0.344l-0.02,0.499
				l0.471-0.183l0.089,0.284l-0.465,0.147l0.304,0.438l-0.257,0.167l-0.289-0.448l-0.297,0.448L136.68,634.486z"/>
			<path fill="#707487" d="M138.903,634.486l0.296-0.438l-0.465-0.147l0.087-0.284l0.472,0.183l-0.021-0.499h0.343l-0.021,0.499
				l0.473-0.183l0.087,0.284l-0.464,0.147l0.303,0.438l-0.256,0.167l-0.29-0.448l-0.296,0.448L138.903,634.486z"/>
			<path fill="#707487" d="M141.125,634.486l0.297-0.438l-0.464-0.147l0.087-0.284l0.472,0.183l-0.021-0.499h0.345l-0.021,0.499
				l0.472-0.183l0.088,0.284l-0.465,0.147l0.304,0.438l-0.256,0.167l-0.29-0.448l-0.297,0.448L141.125,634.486z"/>
		</g>
	</g>
	<g opacity="0.7">
		<path fill="#707487" d="M115.982,632.607h-0.256v-0.321c0-0.594-0.485-1.079-1.08-1.079c-0.595,0-1.078,0.485-1.078,1.079v0.321
			h-0.259c-0.202,0-0.369,0.167-0.369,0.368v2.102c0,0.204,0.167,0.368,0.369,0.368h2.673c0.207,0,0.372-0.164,0.372-0.368v-2.102
			C116.354,632.774,116.188,632.607,115.982,632.607z M114.055,632.286c0-0.327,0.265-0.592,0.59-0.592
			c0.326,0,0.591,0.265,0.591,0.592v0.321h-1.181V632.286L114.055,632.286z M114.846,634.476v0.535c0,0.024-0.02,0.039-0.043,0.039
			h-0.256c-0.02,0-0.038-0.017-0.038-0.039v-0.535c-0.177-0.069-0.303-0.24-0.303-0.44c0-0.258,0.21-0.471,0.471-0.471
			c0.26,0,0.471,0.211,0.471,0.471C115.148,634.235,115.021,634.406,114.846,634.476z"/>
	</g>
</g>
<g>
	<rect x="109.028" y="642.273" fill="#00628D" width="76.457" height="10.063"/>
	<g>
		<path fill="#FFFFFF" d="M142.183,648.449v-2.083h0.328v1.794h1.119v0.29L142.183,648.449L142.183,648.449z"/>
		<path fill="#FFFFFF" d="M144.965,648.465c-0.145,0-0.279-0.03-0.4-0.089c-0.121-0.061-0.224-0.14-0.311-0.238
			c-0.086-0.1-0.154-0.212-0.201-0.339c-0.047-0.127-0.069-0.259-0.069-0.392c0-0.14,0.023-0.27,0.074-0.398
			s0.119-0.239,0.208-0.338c0.088-0.099,0.192-0.174,0.314-0.234c0.121-0.057,0.253-0.085,0.397-0.085
			c0.146,0,0.279,0.029,0.401,0.091c0.119,0.062,0.222,0.144,0.309,0.245c0.086,0.097,0.152,0.21,0.199,0.336
			c0.046,0.129,0.071,0.258,0.071,0.389c0,0.137-0.025,0.272-0.076,0.398c-0.048,0.128-0.116,0.238-0.207,0.335
			c-0.088,0.1-0.191,0.175-0.312,0.233C145.24,648.435,145.108,648.465,144.965,648.465z M144.316,647.409
			c0,0.099,0.016,0.193,0.046,0.285c0.029,0.091,0.072,0.171,0.129,0.244c0.058,0.068,0.125,0.125,0.205,0.167
			c0.082,0.041,0.171,0.063,0.271,0.063c0.102,0,0.194-0.023,0.276-0.065c0.081-0.044,0.149-0.104,0.204-0.176
			c0.056-0.072,0.098-0.154,0.127-0.243c0.03-0.09,0.045-0.182,0.045-0.275c0-0.101-0.016-0.196-0.047-0.287
			c-0.03-0.09-0.075-0.169-0.132-0.242c-0.055-0.067-0.125-0.124-0.207-0.166c-0.079-0.041-0.168-0.063-0.267-0.063
			c-0.101,0-0.192,0.022-0.274,0.068c-0.082,0.044-0.15,0.1-0.207,0.171c-0.055,0.068-0.097,0.15-0.126,0.243
			C144.332,647.221,144.316,647.313,144.316,647.409z"/>
		<path fill="#FFFFFF" d="M148.029,648.192c-0.169,0.182-0.369,0.272-0.595,0.272c-0.134,0-0.261-0.03-0.381-0.089
			c-0.117-0.061-0.22-0.14-0.306-0.238c-0.088-0.1-0.155-0.212-0.207-0.343c-0.05-0.128-0.075-0.259-0.075-0.396
			c0-0.141,0.024-0.275,0.075-0.402c0.049-0.126,0.118-0.237,0.207-0.335c0.085-0.096,0.19-0.171,0.308-0.227
			c0.119-0.055,0.25-0.083,0.391-0.083c0.196,0,0.358,0.042,0.494,0.124c0.132,0.082,0.233,0.195,0.303,0.33l-0.252,0.183
			c-0.058-0.115-0.134-0.2-0.232-0.256s-0.204-0.087-0.322-0.087c-0.096,0-0.183,0.023-0.261,0.064s-0.144,0.1-0.201,0.166
			c-0.056,0.071-0.098,0.151-0.127,0.244c-0.032,0.092-0.047,0.187-0.047,0.287c0,0.104,0.017,0.205,0.05,0.296
			c0.034,0.091,0.08,0.171,0.139,0.242c0.06,0.069,0.13,0.123,0.209,0.165c0.08,0.036,0.168,0.057,0.262,0.057
			c0.211,0,0.401-0.104,0.568-0.307v-0.219h-0.436v-0.245h0.712v1.053h-0.276V648.192L148.029,648.192z"/>
		<path fill="#FFFFFF" d="M148.98,648.449v-2.08h0.328v2.08H148.98z"/>
		<path fill="#FFFFFF" d="M150.4,646.982v1.468h-0.329v-2.083h0.258l1.191,1.503v-1.5h0.332v2.08h-0.272L150.4,646.982z"/>
	</g>
</g>
<g>
	<path fill="#FFFFFF" d="M132.999,601.095V599.2l-0.782,1.435h-0.23l-0.785-1.435v1.895h-0.416v-2.633h0.445l0.872,1.609
		l0.872-1.609h0.442v2.633H132.999z"/>
	<path fill="#FFFFFF" d="M136.188,600.729v0.366h-1.804v-2.633h1.772v0.367h-1.357v0.747h1.175v0.348h-1.175v0.805H136.188z"/>
	<path fill="#FFFFFF" d="M139.218,601.095V599.2l-0.782,1.435h-0.229l-0.786-1.435v1.895h-0.416v-2.633h0.446l0.87,1.609
		l0.872-1.609h0.445v2.633H139.218z"/>
	<path fill="#FFFFFF" d="M142.67,600.416c0,0.108-0.022,0.202-0.064,0.285c-0.043,0.085-0.101,0.156-0.175,0.214
		c-0.072,0.058-0.157,0.104-0.257,0.135c-0.098,0.03-0.204,0.045-0.315,0.045h-1.258v-2.633h1.356c0.093,0,0.177,0.019,0.25,0.059
		c0.075,0.04,0.137,0.093,0.191,0.155c0.051,0.064,0.092,0.134,0.119,0.215c0.029,0.078,0.043,0.161,0.043,0.243
		c0,0.129-0.033,0.248-0.098,0.36c-0.064,0.112-0.159,0.194-0.28,0.251c0.151,0.044,0.27,0.125,0.358,0.242
		C142.626,600.104,142.67,600.246,142.67,600.416z M141.017,598.822v0.772h0.763c0.053,0,0.101-0.008,0.143-0.026
		c0.043-0.021,0.083-0.048,0.116-0.081c0.034-0.032,0.06-0.074,0.08-0.119c0.017-0.047,0.025-0.098,0.025-0.155
		c0-0.115-0.031-0.207-0.094-0.281c-0.065-0.073-0.146-0.109-0.245-0.109H141.017z M142.243,600.337c0-0.053-0.01-0.106-0.027-0.156
		c-0.019-0.048-0.043-0.093-0.074-0.129c-0.03-0.037-0.067-0.067-0.112-0.088c-0.045-0.022-0.093-0.034-0.145-0.034h-0.868v0.806
		h0.842c0.054,0,0.105-0.011,0.152-0.031c0.047-0.021,0.088-0.048,0.123-0.086c0.033-0.035,0.06-0.077,0.081-0.125
		C142.233,600.444,142.243,600.395,142.243,600.337z"/>
	<path fill="#FFFFFF" d="M145.284,600.729v0.366h-1.805v-2.633h1.772v0.367h-1.356v0.747h1.174v0.348h-1.174v0.805H145.284z"/>
	<path fill="#FFFFFF" d="M146.099,601.095v-2.633h1.146c0.118,0,0.228,0.024,0.328,0.073c0.101,0.049,0.186,0.116,0.258,0.195
		c0.072,0.079,0.128,0.171,0.169,0.275c0.039,0.103,0.061,0.207,0.061,0.312c0,0.088-0.013,0.175-0.037,0.255
		c-0.024,0.081-0.06,0.155-0.104,0.227c-0.044,0.069-0.099,0.129-0.164,0.18c-0.064,0.051-0.134,0.088-0.21,0.111l0.627,1.004
		h-0.471l-0.578-0.915h-0.608v0.915L146.099,601.095L146.099,601.095z M146.515,599.812h0.726c0.062,0,0.114-0.011,0.162-0.038
		c0.048-0.025,0.09-0.062,0.125-0.107c0.034-0.047,0.062-0.098,0.081-0.158c0.02-0.06,0.03-0.122,0.03-0.189
		c0-0.069-0.014-0.13-0.036-0.188c-0.023-0.062-0.053-0.113-0.092-0.156c-0.04-0.044-0.085-0.081-0.134-0.104
		c-0.05-0.027-0.103-0.04-0.157-0.04h-0.705V599.812L146.515,599.812z"/>
	<path fill="#FFFFFF" d="M150.231,601.095v-2.633h0.414v2.265h1.415v0.367L150.231,601.095L150.231,601.095z"/>
	<path fill="#FFFFFF" d="M153.747,601.112c-0.188,0-0.354-0.038-0.506-0.113c-0.152-0.073-0.284-0.176-0.393-0.3
		c-0.111-0.125-0.196-0.269-0.255-0.429c-0.059-0.162-0.089-0.325-0.089-0.494c0-0.175,0.031-0.344,0.094-0.502
		c0.064-0.163,0.15-0.304,0.261-0.428c0.112-0.124,0.244-0.223,0.396-0.295c0.154-0.073,0.321-0.109,0.5-0.109
		c0.187,0,0.355,0.037,0.507,0.116c0.152,0.077,0.282,0.18,0.392,0.307c0.109,0.126,0.191,0.269,0.252,0.425
		c0.06,0.162,0.09,0.324,0.09,0.49c0,0.177-0.031,0.345-0.094,0.506c-0.065,0.16-0.151,0.3-0.263,0.423s-0.242,0.221-0.396,0.295
		C154.092,601.077,153.926,601.112,153.747,601.112z M152.925,599.776c0,0.124,0.021,0.245,0.059,0.359
		c0.039,0.118,0.092,0.22,0.165,0.309c0.072,0.09,0.158,0.161,0.259,0.213c0.102,0.053,0.214,0.079,0.342,0.079
		c0.128,0,0.243-0.027,0.346-0.082c0.102-0.058,0.188-0.13,0.259-0.222c0.07-0.092,0.125-0.192,0.162-0.307
		c0.037-0.116,0.055-0.229,0.055-0.35c0-0.126-0.02-0.247-0.06-0.361c-0.039-0.112-0.094-0.217-0.165-0.304
		c-0.073-0.086-0.159-0.157-0.261-0.21c-0.101-0.052-0.212-0.079-0.337-0.079c-0.128,0-0.243,0.027-0.346,0.084
		c-0.103,0.057-0.189,0.127-0.259,0.213c-0.07,0.094-0.125,0.193-0.163,0.308C152.945,599.544,152.925,599.661,152.925,599.776z"/>
	<path fill="#FFFFFF" d="M157.616,600.77c-0.215,0.229-0.466,0.343-0.751,0.343c-0.172,0-0.332-0.038-0.481-0.113
		c-0.15-0.073-0.28-0.176-0.389-0.3c-0.11-0.125-0.196-0.269-0.259-0.431c-0.064-0.162-0.095-0.328-0.095-0.501
		c0-0.179,0.032-0.349,0.095-0.507c0.064-0.162,0.15-0.305,0.259-0.425c0.109-0.121,0.24-0.217,0.393-0.288
		c0.15-0.07,0.313-0.105,0.492-0.105c0.247,0,0.455,0.053,0.623,0.157c0.168,0.105,0.296,0.245,0.382,0.417l-0.319,0.23
		c-0.072-0.144-0.169-0.251-0.292-0.321c-0.121-0.071-0.256-0.107-0.405-0.107c-0.12,0-0.232,0.023-0.329,0.077
		c-0.1,0.054-0.185,0.123-0.256,0.21c-0.07,0.09-0.124,0.192-0.163,0.308c-0.038,0.116-0.057,0.236-0.057,0.36
		c0,0.136,0.021,0.261,0.063,0.377c0.042,0.115,0.1,0.216,0.176,0.303c0.074,0.086,0.163,0.157,0.264,0.206
		c0.103,0.051,0.211,0.077,0.329,0.077c0.268,0,0.507-0.128,0.72-0.39v-0.278h-0.552v-0.308h0.901v1.331h-0.35V600.77
		L157.616,600.77z"/>
	<path fill="#FFFFFF" d="M158.817,601.095v-2.631h0.415v2.631H158.817z"/>
	<path fill="#FFFFFF" d="M160.612,599.24v1.854h-0.416v-2.633h0.327l1.506,1.897v-1.896h0.419v2.631h-0.346L160.612,599.24z"/>
</g>
<ellipse opacity="0.56" fill="#6D4D56" enable-background="new    " cx="151.644" cy="703.448" rx="134.917" ry="7.653"/>
<ellipse opacity="0.27" fill="#6D4D56" enable-background="new    " cx="624.518" cy="686.467" rx="113.269" ry="3.811"/>
</svg>
