<?xml version="1.0" encoding="utf-8"?>
<!-- Generator: Adobe Illustrator 15.0.0, SVG Export Plug-In . SVG Version: 6.00 Build 0)  -->
<!DOCTYPE svg PUBLIC "-//W3C//DTD SVG 1.1//EN" "http://www.w3.org/Graphics/SVG/1.1/DTD/svg11.dtd">
<svg version="1.1" id="Layer_1" xmlns="http://www.w3.org/2000/svg" xmlns:xlink="http://www.w3.org/1999/xlink" x="0px" y="0px"
	 width="1024px" height="1366px" viewBox="0 0 1024 1366" enable-background="new 0 0 1024 1366" xml:space="preserve">
<rect x="-23.21" y="-23.947" fill="#D2849A" width="1076.316" height="985.268"/>
<path fill="#EA97AC" d="M856.877,734.351v-72.915h-52.365v-48.462h-54.072v85.418h-57.193v91.274h-47.131v27.07v93.294v4.431
	h200.398H951.59v-97.725v-82.386H856.877L856.877,734.351z M889.031,870.017h-26.119v-31.336h26.119V870.017z M889.031,829.131
	h-26.119v-31.337h26.119V829.131z M889.031,788.242h-26.119v-31.338h26.119V788.242z M926.762,870.017h-26.119v-31.336h26.119
	V870.017z M926.762,829.131h-26.119v-31.337h26.119V829.131z M926.762,788.242h-26.119v-31.338h26.119V788.242z"/>
<path fill="#EA97AC" d="M553.583,543.674h-52.367V495.21h-54.073v85.424h-57.192v91.276h-47.125v27.068v93.294v122.189h200.399
	h105.07V698.978V616.59h-94.711L553.583,543.674L553.583,543.674z M597.349,639.146h26.12v31.336h-26.12V639.146z M597.349,680.035
	h26.12v31.337h-26.12V680.035z M597.349,720.923h26.12v31.333h-26.12V720.923z M559.621,639.146h26.121v31.336h-26.121V639.146z
	 M559.621,680.035h26.121v31.337h-26.121V680.035z M559.621,720.923h26.121v31.333h-26.121V720.923z"/>
<path fill="#EA97AC" d="M274.659,641.35v-53.6h-38.49v-35.618H196.42v62.785h-42.038v67.089H119.74v19.897v32.446H34.044v-72.915
	H-14v253.023h37.683h105.072V816.74v-19.821h138.288h77.232v-95.012V641.35H274.659L274.659,641.35z M179.061,627.314h10.914v19.228
	h-10.914V627.314z M66.204,870.017H40.083v-31.335h26.121V870.017z M66.204,829.131H40.083v-31.337h26.121V829.131z M66.204,788.237
	H40.083v-31.336h26.121V788.237z M103.931,870.017h-26.12v-31.335h26.122L103.931,870.017L103.931,870.017z M103.931,829.131h-26.12
	v-31.337h26.122L103.931,829.131L103.931,829.131z M103.931,788.237h-26.12v-31.336h26.122L103.931,788.237L103.931,788.237z
	 M139.382,738.613h-10.626v-4.263h-0.289v-14.959h10.916V738.613z M139.382,711.297h-10.916v-19.225h10.916V711.297z M155.5,738.613
	h-10.914v-19.227H155.5V738.613z M155.5,711.297h-10.914v-19.225H155.5V711.297z M173.857,673.858h-10.919v-19.229h10.919V673.858z
	 M173.857,646.542h-10.919v-19.228h10.919V646.542z M179.061,654.628h10.914v19.229h-10.914V654.628z M198.655,770.562h-10.913
	v-19.23h10.913V770.562L198.655,770.562z M198.655,743.242h-10.913v-19.226h10.913V743.242L198.655,743.242z M214.773,770.562
	h-10.916v-19.23h10.916V770.562z M214.773,743.242h-10.916v-19.226h10.916V743.242z M233.129,705.803h-10.915v-19.23h10.915V705.803
	z M233.129,678.484h-10.915v-19.229h10.915V678.484z M249.249,705.803h-10.915v-19.23h10.915V705.803z M249.249,678.484h-10.915
	v-19.229h10.915V678.484z M298.296,741.068h-19.198v-23.029h19.198V741.068z M298.296,711.013h-19.198V687.98h19.198V711.013z
	 M298.296,680.956h-19.198v-23.029h19.198V680.956z M326.028,741.068h-19.203v-23.029h19.201v23.029H326.028z M326.028,711.013
	h-19.203V687.98h19.201v23.032H326.028z M326.028,680.956h-19.203v-23.029h19.201v23.029H326.028z"/>
<rect x="122.039" y="788.895" fill="#EA97AC" width="222.236" height="125.566"/>
<path fill="#EA97AC" d="M1160.895,734.351v-72.915h-52.363v-48.462h-54.072v85.418h-57.197v91.274h-47.129v27.07v93.294v4.431
	h200.398h105.07v-97.725v-82.386H1160.895L1160.895,734.351z M1193.049,870.017h-26.117v-31.336h26.117V870.017z M1193.049,829.131
	h-26.117v-31.337h26.117V829.131z M1193.049,788.242h-26.117v-31.338h26.117V788.242z M1230.781,870.017h-26.121v-31.336h26.121
	V870.017z M1230.781,829.131h-26.121v-31.337h26.121V829.131z M1230.781,788.242h-26.121v-31.338h26.121V788.242z"/>
<rect x="692.577" y="834.375" fill="#EA97AC" width="155.64" height="87.937"/>
<rect y="917.818" fill="#8F646F" width="1024" height="448.182"/>
<path opacity="0.27" fill="#5E5E5E" enable-background="new    " d="M599.589,986.607c0,2.819-40.576,5.106-90.63,5.106
	c-50.051,0-90.63-2.287-90.63-5.106c0-2.822,40.579-5.109,90.63-5.109C559.015,981.498,599.589,983.787,599.589,986.607"/>
<path fill="#DBDBDB" d="M457.967,985.207c0-2.129,1.587-3.922,3.702-4.181l8.157-0.998l8.176-31.211h60.632l8.174,31.211
	l8.158,0.998c2.112,0.259,3.701,2.052,3.701,4.181H457.967z"/>
<polygon fill="#BBBDBF" points="476.639,954.021 478.001,948.82 538.631,948.82 539.996,954.021 "/>
<path fill="#191919" d="M355.571,922.728V747.562c0-3.737,3.03-6.771,6.772-6.771h286.866c3.743,0,6.768,3.034,6.768,6.771v175.166
	H355.571z"/>
<path fill="#DBDBDB" d="M649.209,949.81H362.343c-3.742,0-6.772-3.032-6.772-6.771v-20.312h300.405v20.312
	C655.979,946.777,652.952,949.81,649.209,949.81"/>
<rect x="364.88" y="752.638" fill="#DB5858" width="281.788" height="158.244"/>
<path fill="#CE8766" d="M459.954,794.488h-11.495v-2.511c0-2.849-2.312-5.158-5.159-5.158h-8.468
	c0.705-1.274,1.103-2.851,1.103-4.456c0-5.272-4.289-9.571-9.558-9.571c-5.269,0-9.554,4.299-9.554,9.571
	c0,1.605,0.399,3.182,1.104,4.456h-6.944c-2.849,0-5.158,2.31-5.158,5.158v2.511h-11.507c-4.319,0-7.821,3.504-7.821,7.826v77.134
	c0,4.323,3.502,7.827,7.821,7.827h65.637c4.322,0,7.826-3.504,7.826-7.827v-77.134C467.78,797.992,464.276,794.488,459.954,794.488
	 M429.921,786.822h-7.092c-1.306-1.119-2.144-2.658-2.144-4.456c0-3.144,2.554-5.708,5.689-5.708c3.143,0,5.696,2.564,5.696,5.708
	C432.07,784.164,431.23,785.706,429.921,786.822"/>
<path fill="#F5F5F5" d="M459.958,874.795c0,2.658-2.154,4.812-4.813,4.812h-56.017c-2.657,0-4.812-2.154-4.812-4.812v-67.672
	c0-2.657,2.155-4.809,4.812-4.809h6.689c0,2.114,1.714,3.834,3.83,3.834h34.974c2.119,0,3.835-1.716,3.835-3.834h6.686
	c2.657,0,4.813,2.154,4.813,4.809v67.672H459.958z"/>
<path fill="#E04316" d="M408.745,812.885c3.756,0,6.798,3.044,6.798,6.797c0,3.756-3.042,6.801-6.798,6.801
	c-3.754,0-6.8-3.045-6.8-6.801C401.945,815.929,404.99,812.885,408.745,812.885"/>
<path fill="#337B80" d="M447.427,815.89H424.24c-2.133,0-3.865,1.7-3.865,3.836c0,2.135,1.73,3.832,3.865,3.832h23.193
	c2.133,0,3.864-1.697,3.864-3.832C451.289,817.59,449.56,815.89,447.427,815.89"/>
<path fill="#E04316" d="M408.745,832.171c3.756,0,6.798,3.045,6.798,6.799c0,3.758-3.042,6.8-6.798,6.8c-3.754,0-6.8-3.042-6.8-6.8
	C401.945,835.216,404.99,832.171,408.745,832.171"/>
<path fill="#337B80" d="M447.427,835.055H424.24c-2.133,0-3.865,1.777-3.865,3.91c0,2.135,1.73,3.911,3.865,3.911h23.193
	c2.133,0,3.864-1.776,3.864-3.911C451.289,836.832,449.56,835.055,447.427,835.055"/>
<path fill="#E04316" d="M408.745,852.783c3.756,0,6.798,3.043,6.798,6.797c0,3.756-3.042,6.801-6.798,6.801
	c-3.754,0-6.8-3.045-6.8-6.801C401.945,855.826,404.99,852.783,408.745,852.783"/>
<path fill="#337B80" d="M447.427,855.654H424.24c-2.133,0-3.865,1.777-3.865,3.91c0,2.132,1.73,3.909,3.865,3.909h23.193
	c2.133,0,3.864-1.777,3.864-3.909C451.289,857.432,449.56,855.654,447.427,855.654"/>
<path fill="#868686" d="M449.045,801.249c0,2.934-2.382,5.311-5.321,5.311h-33.263c-2.937,0-5.318-2.377-5.318-5.311v-9.16
	c0-2.934,2.379-5.312,5.318-5.312h33.263c2.938,0,5.321,2.378,5.321,5.312V801.249z"/>
<path fill="#19EAFA" d="M634.416,762.005H575.38c-1.581,0-2.866,1.259-2.866,2.802v57.707c0,1.546,1.284,2.802,2.866,2.802h59.036
	c1.58,0,2.866-1.256,2.866-2.802v-57.707C637.282,763.264,635.998,762.005,634.416,762.005"/>
<path fill="#575756" d="M607.765,792.225c1.136,1.04,2.713,1.971,4.612,2.638c1.125,0.393,2.264,0.651,3.348,0.77
	c0.944,1.185,1.315,2.313,0.929,2.936c-0.309,0.494-1.17,0.739-2.314,0.653c-1.402-0.104-3.094-0.69-4.646-1.615
	c-1.098-0.65-2.069-1.442-2.812-2.264C607.578,794.231,607.87,793.164,607.765,792.225"/>
<path fill="#575756" d="M609.47,775.536c0.732,0.506,1.601,0.944,2.543,1.275c0.878,0.309,1.767,0.504,2.612,0.579
	c0.082,0.14,0.146,0.257,0.198,0.343c0.135,0.23,0.386,0.373,0.66,0.385c0.004,0,0.01,0,0.02,0c0.266,0,0.512-0.136,0.658-0.354
	l0.269-0.412c0.232-0.037,0.453-0.082,0.665-0.143c2.274,1.319,3.191,2.871,2.9,3.664c-0.202,0.545-0.996,0.952-2.131,1.096
	c-1.396,0.17-3.175-0.071-4.883-0.673c-3.478-1.219-5.582-3.479-5.143-4.684C608.006,776.156,608.659,775.731,609.47,775.536"/>
<path fill="#575756" d="M608.752,771.977c0.189-0.512,1.073-0.845,2.256-0.845c0.316,0,0.651,0.031,0.992,0.075
	c0.341,1.536,1.091,3.241,1.748,4.547c-0.404-0.088-0.813-0.193-1.223-0.335c-1.255-0.442-2.379-1.114-3.087-1.851
	C608.863,772.97,608.606,772.376,608.752,771.977"/>
<path fill="#575756" d="M620.09,786.668c-0.202,0.545-0.997,0.954-2.132,1.094c-1.396,0.173-3.177-0.071-4.883-0.669
	c-3.478-1.221-5.581-3.479-5.142-4.686c0.154-0.42,0.555-0.686,0.998-0.853c0.949,0.636,2.078,1.199,3.349,1.643
	c1.584,0.557,3.188,0.846,4.641,0.846c0.412,0,0.815-0.023,1.201-0.073c0.133-0.016,0.255-0.044,0.379-0.064
	C619.712,784.896,620.342,785.975,620.09,786.668"/>
<path fill="#575756" d="M620.09,792.536c-0.199,0.546-0.997,0.953-2.132,1.097c-1.396,0.173-3.177-0.074-4.883-0.67
	c-3.478-1.22-5.581-3.479-5.142-4.689c0.135-0.369,0.55-0.678,1.162-0.877c0.938,0.617,2.04,1.161,3.281,1.595
	c1.58,0.558,3.187,0.847,4.636,0.847c0.415,0,0.817-0.022,1.202-0.073c0.08-0.012,0.151-0.025,0.226-0.037
	C619.685,790.725,620.352,791.824,620.09,792.536"/>
<path fill="#575756" d="M609.31,823.093c0.56-0.495,0.954-1.337,1.707-1.442c0.751-0.105,0.723,0.374,1.58,0.852
	c-1.036,0.621-1.63,1.086-2.307,1.32C610.081,823.895,609.644,823.35,609.31,823.093"/>
<path fill="#575756" d="M610.784,819.582c-2.649,3.123-9.242,1.64-10.679-0.36c-1.104-1.327-0.991-2.902,0.211-3.771
	c0.868-0.629,1.626-0.771,2.344,0.354c0.611,0.958,1.429,1.822,2.286,2.588c0.275,0.248,1.154,0.254,1.438,0.013
	c0.832-0.706,1.459-1.636,2.251-2.397c0.427-0.411,1.185-1.039,1.501-0.908c0.669,0.28,1.593,0.994,1.602,1.541
	C611.752,817.643,611.485,819.026,610.784,819.582"/>
<path fill="#575756" d="M600.181,821.658c0.608-0.006,1.325,0.717,2.284,1.282c-0.646,0.485-1.072,0.962-1.22,0.89
	c-0.683-0.326-1.282-0.81-1.909-1.237C599.624,822.263,599.576,821.662,600.181,821.658"/>
<path fill="#575756" d="M603.178,824.756c1.692-1.059,3.234-1.077,4.928-0.024c0.553,0.342,1.073,0.577,1.564,0.717h-7.993
	C602.152,825.312,602.656,825.084,603.178,824.756"/>
<path fill="#1E1E1E" d="M637.426,825.45h-25.861v-0.002c1.004-0.351,1.775-1.322,2.266-2.875c0.285-0.906,0.384-3.281,1.837-3.839
	c2.161-1.818,5.381-4.392,4.667-6.961c-0.331-0.805-0.633-2.104-1.331-3.149c-2.05-3.073-5.55-3.538-8.31-1.2
	c-1.002,0.854-1.951,1.781-2.842,2.746c-1.591,1.726-2.768,1.733-4.352,0.027c-0.896-0.967-1.834-1.898-2.84-2.746
	c-2.876-2.419-6.537-1.789-8.56,1.426c-1.622,2.574-1.353,4.567,0.763,6.836c0.659,0.704,1.061,1.639,1.578,2.469
	c2.265,1.512,2.706,3.035,3.054,4.337c0.417,1.581,1.21,2.574,2.246,2.93h-27.364v-63.577h31.142
	c-0.267,0.164-0.454,0.441-0.454,0.772c0,0.368,0.223,0.686,0.546,0.833c0.171,0.208,3.136,0.062,3.136,0.062
	c0.058,0,0.107,0.047,0.107,0.104v0.574c0,0.058-0.05,0.105-0.107,0.105h-2.41c-0.522,0-0.947,0.414-0.947,0.926
	s0.425,0.926,0.947,0.926h1.773c0,0.007,0,0.014,0,0.02v0.61h-1.377c-0.409,0-0.758,0.262-0.891,0.621
	c-0.809,0.294-1.394,1.058-1.394,1.951v0.692c-0.609-0.271-1.366-0.422-2.258-0.422c-0.602,0-1.239,0.075-1.882,0.207
	c0.017-0.547-0.047-1.041-0.24-1.444c-1.171-2.477-6.102-3.656-6.662-3.78c-0.03-0.007-0.066-0.013-0.1-0.016
	c0,0-0.17-0.02-0.44-0.02c-0.853,0-2.405,0.17-3.208,1.297c-0.58,0.811-0.62,1.899-0.115,3.229c0.021,0.055,0.048,0.106,0.086,0.153
	c-0.125-0.075-0.252-0.134-0.366-0.174c-0.372-0.119-0.886,0.185-1.334,0.3c-0.514,0.129-1.034,0.391-1.536,0.362
	c-1.399-0.066-1.729,0.431-1.339,1.771c0.326,1.127,0.569,2.332,0.523,3.489c-0.102,2.93-0.266,5.864-0.64,8.771
	c-0.375,2.884-0.209,5.677-2.557,8.334c-0.356,0.299,0.02,0.951,0.247,1.334c0.132,0.226,0.802,0.413,1.004,0.283
	c0.848-0.547,1.639-0.894,2.581-0.243c0.074,0.054,0.217,0.016,0.378,0.02c0.94-0.131,0.8-0.779,0.703-1.464
	c-0.2-1.35-0.551-2.721-0.478-4.066c0.248-4.694,0.661-9.384,0.986-14.076c0.085-1.228,0.312-2.266,1.757-2.688
	c0.373-0.107,0.868-0.801,0.799-1.113c-0.003-0.013-0.01-0.022-0.013-0.033l2.089,2.294l1.538,2.351
	c-0.015,0.299,0.02,0.592,0.122,0.875c0.049,0.128,0.108,0.249,0.177,0.366c-2.487,1.688-3.661,3.818-3.01,5.587
	c0.231,0.635,0.673,1.158,1.283,1.564c-1.35,1.396-1.862,2.914-1.38,4.23c0.247,0.67,0.722,1.22,1.39,1.63
	c-1.345,1.396-1.871,2.926-1.39,4.237c0.482,1.314,1.836,2.172,3.819,2.418c0.008,0,0.015,0,0.022,0.002
	c-0.801,1.477-0.898,2.895-0.224,3.979c0.664,1.069,1.941,1.64,3.633,1.64c0.197,0,0.395-0.008,0.603-0.022
	c1.741-0.131,3.715-0.802,5.562-1.904c0.443-0.261,0.857-0.547,1.257-0.838c0.011,0,0.024,0.002,0.036,0.002h3.455
	c0.019,0,0.032,0.003,0.051,0.006c0.156,0.114,0.312,0.23,0.479,0.341c0.025,0.067,0.04,0.136,0.04,0.209v0.423
	c0,0.306-0.254,0.557-0.569,0.557h-3.455c-0.525,0-0.948,0.413-0.948,0.925c0,0.264,0.114,0.5,0.295,0.668
	c0.151,0.314,0.478,0.534,0.853,0.534h3.056c0.216,0,0.391,0.172,0.391,0.385v0.373c0,0.211-0.175,0.382-0.391,0.382h-3.056
	c-0.519,0-0.945,0.416-0.945,0.928c0,0.37,0.223,0.687,0.545,0.834c0.172,0.206,0.433,0.34,0.726,0.34h2.409
	c0.06,0,0.109,0.046,0.109,0.104v0.295c0,0.06-0.05,0.105-0.109,0.105h-2.411c-0.523,0-0.947,0.416-0.947,0.93
	c0,0.51,0.424,0.923,0.947,0.923h1.771c0,0.007,0,0.016,0,0.021v0.61h-1.376c-0.52,0-0.947,0.417-0.947,0.926
	c0,0.511,0.428,0.927,0.947,0.927h1.612c0.915,0,1.658-0.729,1.658-1.621v-0.845c0-0.141-0.031-0.272-0.09-0.392
	c0.505-0.354,0.838-0.933,0.838-1.587v-0.294c0-0.315-0.083-0.608-0.219-0.87c0.505-0.413,0.824-1.029,0.824-1.717v-0.374
	c0-0.483-0.159-0.926-0.426-1.294c0.383-0.339,0.656-0.798,0.761-1.312c1.504,0.738,3.045,1.197,4.435,1.3
	c0.207,0.017,0.405,0.024,0.603,0.024c1.691,0,2.968-0.572,3.635-1.642c0.672-1.082,0.571-2.501-0.229-3.981
	c0.009,0,0.018,0,0.024-0.002c1.983-0.244,3.338-1.103,3.818-2.415c0.481-1.313-0.043-2.84-1.386-4.239
	c0.665-0.41,1.14-0.958,1.386-1.627c0.483-1.318-0.028-2.832-1.379-4.233c0.613-0.403,1.054-0.927,1.284-1.563
	c0.648-1.768-0.527-3.899-3.011-5.587c0.07-0.114,0.128-0.237,0.175-0.363c0.236-0.643,0.146-1.339-0.206-2.019l0.792-1.21
	l1.797-1.976c0.125,0.334,0.475,0.745,0.756,0.828c1.441,0.422,1.672,1.459,1.756,2.688c0.327,4.693,0.739,9.381,0.987,14.077
	c0.071,1.342-0.28,2.713-0.477,4.066c-0.102,0.684-0.236,1.333,0.703,1.464c0.156-0.004,0.299,0.033,0.374-0.02
	c0.942-0.652,1.736-0.307,2.582,0.243c0.203,0.128,0.873-0.059,1.005-0.283c0.229-0.385,0.604-1.035,0.249-1.334
	c-2.35-2.655-2.187-5.451-2.557-8.337c-0.378-2.905-0.537-5.84-0.643-8.768c-0.043-1.16,0.2-2.367,0.524-3.491
	c0.388-1.343,0.064-1.84-1.34-1.771c-0.505,0.025-1.023-0.233-1.536-0.364c-0.429-0.109-0.917-0.387-1.282-0.307
	c0.491-1.318,0.449-2.396-0.123-3.2c-0.804-1.128-2.354-1.298-3.206-1.298c-0.271,0-0.441,0.02-0.441,0.02
	c-0.034,0.003-0.071,0.008-0.101,0.016c-0.561,0.125-5.494,1.304-6.66,3.779c-0.173,0.36-0.244,0.8-0.244,1.278
	c-0.271-0.026-0.545-0.04-0.804-0.04c-0.944,0-1.745,0.163-2.367,0.467v-0.737c0-0.66-0.319-1.249-0.808-1.631
	c0.106-0.214,0.171-0.451,0.171-0.707v-0.846c0-0.141-0.03-0.273-0.09-0.389c0.507-0.357,0.838-0.935,0.838-1.587v-0.296
	c0-0.27,0.086-1.588-1.014-2.051h29.686L637.426,825.45"/>
<path fill="#575756" d="M599.185,776.81c0.939-0.327,1.811-0.768,2.543-1.273c0.812,0.195,1.46,0.622,1.63,1.077
	c0.443,1.207-1.662,3.466-5.143,4.686c-1.707,0.598-3.485,0.844-4.882,0.668c-1.134-0.141-1.931-0.548-2.13-1.093
	c-0.273-0.752,0.532-2.176,2.54-3.444l0.217,0.335c0.146,0.218,0.393,0.354,0.655,0.354c0.01,0,0.016,0,0.022-0.003
	c0.272-0.009,0.522-0.151,0.66-0.384c0.046-0.079,0.107-0.188,0.179-0.313c0.099,0.004,0.196,0.012,0.298,0.012
	C596.85,777.43,598.028,777.215,599.185,776.81"/>
<path fill="#575756" d="M596.286,775.922c0.645-1.271,1.403-2.951,1.782-4.495c0.735-0.191,1.458-0.295,2.122-0.295
	c1.182,0,2.067,0.332,2.253,0.845c0.148,0.399-0.109,0.993-0.684,1.591c-0.709,0.737-1.833,1.407-3.086,1.848
	C597.862,775.699,597.048,775.866,596.286,775.922"/>
<path fill="#575756" d="M592.695,783.907c0.127,0.021,0.246,0.048,0.38,0.064c0.383,0.049,0.787,0.071,1.197,0.071
	c1.456,0,3.059-0.289,4.642-0.844c1.271-0.445,2.402-1.008,3.35-1.645c0.444,0.167,0.844,0.435,0.999,0.854
	c0.441,1.208-1.661,3.467-5.142,4.685c-1.707,0.601-3.486,0.844-4.884,0.671c-1.134-0.142-1.929-0.549-2.13-1.096
	C590.853,785.975,591.485,784.896,592.695,783.907"/>
<path fill="#575756" d="M592.752,789.724c0.078,0.016,0.149,0.033,0.228,0.041c0.385,0.048,0.788,0.072,1.199,0.072
	c1.453,0,3.06-0.29,4.642-0.848c1.238-0.432,2.345-0.979,3.278-1.594c0.612,0.2,1.026,0.509,1.162,0.878
	c0.443,1.208-1.661,3.469-5.142,4.688c-1.707,0.596-3.486,0.842-4.884,0.67c-1.134-0.143-1.932-0.549-2.131-1.095
	C590.846,791.824,591.511,790.725,592.752,789.724"/>
<path fill="#575756" d="M595.476,795.632c1.082-0.118,2.221-0.377,3.345-0.77c1.9-0.667,3.476-1.598,4.614-2.638
	c-0.107,0.939,0.184,2.007,0.876,3.117c-0.74,0.821-1.712,1.613-2.811,2.264c-1.548,0.923-3.24,1.512-4.644,1.615
	c-1.143,0.086-2.007-0.159-2.313-0.652C594.157,797.945,594.526,796.816,595.476,795.632"/>
<g>
	<path fill="#CE0E0B" d="M631.151,859.362c-1.007,4.84-4.244,9.881-10.188,15.869c-5.323,5.364-12.355,11.057-20.485,17.544
		c-1.362-1.136-2.693-2.238-3.992-3.321c-14.416-11.975-24.834-20.628-26.81-30.073c-1.16-5.546-0.203-11.104,2.565-14.863
		c2.244-3.048,5.479-4.791,9.611-5.188c0.422-0.04,0.847-0.061,1.264-0.061l0,0c2.298-0.004,4.548,0.61,6.695,1.829
		c4.456,2.525,7.397,4.067,10.61,4.06c3.203-0.003,6.133-1.539,10.576-4.067c2.163-1.229,4.338-1.825,6.657-1.831
		c0.43,0,0.865,0.021,1.301,0.061c4.133,0.393,7.371,2.137,9.617,5.186C631.343,848.258,632.308,853.813,631.151,859.362z"/>
	
		<polyline fill="none" stroke="#FFFFFF" stroke-width="0.8604" stroke-linecap="round" stroke-linejoin="round" stroke-miterlimit="10" points="
		575.943,864.38 587.004,864.38 589.479,851.39 595.422,873.328 599.614,859.04 603.221,870.873 605.964,861.709 608.274,867.556 
		610.915,863.225 613.79,863.225 616.355,849.224 617.801,868.133 619.819,862.646 627.904,862.646 	"/>
</g>
<path opacity="0.08" enable-background="new    " d="M600.412,845.157v47.563"/>
<path fill="#F5F5F5" d="M554.267,809.175c-0.919-0.917-2.142-1.421-3.438-1.421h-13.292v-6.753c0-2.058-1.672-3.729-3.727-3.729
	h-32.179c-2.054,0-3.726,1.671-3.726,3.729v6.753h-13.292c-2.681,0-4.864,2.181-4.864,4.86v55.354c0,2.685,2.184,4.866,4.864,4.866
	h66.212c2.685,0,4.864-2.182,4.864-4.866v-55.354C555.691,811.318,555.186,810.095,554.267,809.175 M532.998,810.403h-30.553v-8.592
	h30.553V810.403z"/>
<polygon fill="#E04316" points="534.131,843.833 521.259,843.833 521.259,856.708 514.179,856.708 514.179,843.833 501.308,843.833 
	501.308,836.758 514.179,836.758 514.179,823.883 521.259,823.883 521.259,836.758 534.131,836.758 "/>
<path fill="#B0B0B0" d="M660.771,943.636c0,0-1.971,3.667,12.027,6.726h293.01c0,0,9.801-0.628,12.384-5.249l0.017-2.531
	L660.771,943.636z"/>
<path fill="#FFFFFF" d="M660.84,936.227h317.472v8.151c0,0,0.475,1.096-3.261,0.818h-311.22c0,0-2.927,0.821-3.198-1.091
	L660.84,936.227z"/>
<path fill="#B0B0B0" d="M798.014,936.292c0,0-1.228,4.081,2.852,4.488h36.832c0,0,3.914,0.505,3.393-4.346L798.014,936.292z"/>
<path fill="#161D21" d="M947.095,936.19V791.488c0-6.568-5.371-11.939-11.936-11.939H703.809c-6.566,0-11.938,5.372-11.938,11.939
	V936.19H947.095L947.095,936.19z"/>
<rect x="700.079" y="788.507" fill="#FFF2CA" width="238.806" height="138.8"/>
<g opacity="0.2">
	<path fill="#FFFFFF" d="M978.312,944.378v-8.151H820.395v14.135h145.413c0,0,9.801-0.628,12.384-5.249l0.003-0.316
		C978.399,944.589,978.312,944.378,978.312,944.378z"/>
</g>
<path fill="#27AAE1" d="M867.332,846.062c0,0.979-0.868,1.767-1.934,1.767h-91.816c-1.066,0-1.934-0.789-1.934-1.767v-29.944
	c0-0.978,0.867-1.767,1.934-1.767h91.816c1.065,0,1.934,0.791,1.934,1.767V846.062z"/>
<g opacity="0.2">
	<g>
		<g>
			<defs>
				<rect id="SVGID_1_" x="773.58" y="816.118" width="93.749" height="31.715"/>
			</defs>
			<clipPath id="SVGID_2_">
				<use xlink:href="#SVGID_1_"  overflow="visible"/>
			</clipPath>
			<path clip-path="url(#SVGID_2_)" fill="#1C75BC" d="M865.397,847.833c1.065,0,1.932-0.791,1.932-1.769v-29.946l-93.749,31.715
				H865.397z"/>
		</g>
	</g>
</g>
<path fill="#FFFFFF" d="M793.502,825.828l-0.853,3.935h0.126c1.469,0,2.515-1.578,2.515-2.927c0-0.991-0.565-1.859-1.948-1.859
	c-2.87,0-4.785,1.612-4.785,4.308c0,0.902,0.23,1.042,0.25,1.202c-1.224,0-1.897-0.442-1.897-1.719c0-2.356,3.262-4.606,6.22-4.606
	c2.781,0,4.021,1.386,4.021,2.835c0,1.047-0.637,2.146-1.774,2.802c1.456,0.283,2.039,1.506,2.039,2.886
	c0,2.285-1.575,5.069-3.525,5.069c-1.063,0-2.092-0.105-2.092-1.225c0-0.3,0.07-0.672,0.231-1.113
	c0.333,0.551,0.938,0.638,1.188,0.638c0.975,0,1.752-1.753,1.752-3.261c0-1.151-0.442-2.179-1.611-2.179
	c-0.23,0-0.568,0.019-0.889,0.052l-1.45,6.789h-2.554l2.408-11.271L793.502,825.828z M806.474,828.589l-1.276,6.027
	c-0.036,0.197-0.072,0.39-0.072,0.549c0,0.389,0.177,0.674,0.886,0.674c0.708,0,1.632-0.991,2.341-1.559h0.603
	c-0.815,0.816-2.818,3.173-4.199,3.173c-1.206,0-2.02-0.461-2.18-1.49c-0.833,0.78-1.79,1.49-2.554,1.49
	c-1.362,0-2.213-0.605-2.213-1.934c0-0.264,0.034-0.564,0.106-0.902l1.276-6.024h2.551l-1.273,6.024
	c-0.038,0.196-0.072,0.389-0.072,0.549c0,0.39,0.177,0.673,0.885,0.673c0.372,0,0.814-0.281,1.258-0.636
	c0.02-0.178,0.053-0.37,0.106-0.585l1.275-6.024h2.553V828.589z M810.993,828.589l-1.294,6.027c-0.053,0.197-0.087,0.39-0.087,0.564
	c0,0.391,0.195,0.654,0.886,0.654c0.407,0,0.885-0.317,1.346-0.708l1.383-6.538h2.571l-2.164,10.278
	c-0.532,2.532-2.054,3.012-3.225,3.012c-1.082,0-2.091-0.759-2.091-1.915c0-1.646,1.381-2.161,3.064-2.654l0.267-1.224
	c-0.799,0.729-1.701,1.365-2.411,1.365c-1.383,0-2.197-0.604-2.197-1.932c0-0.283,0.037-0.567,0.107-0.903l1.24-6.027H810.993z
	 M809.999,840.303c0.357,0,0.833-0.336,1.048-1.381l0.211-1.045c-1.117,0.37-1.967,0.887-1.967,1.842
	C809.292,839.967,809.609,840.303,809.999,840.303z M832.648,824.197l-2.818,13.254h-2.551c-0.832,0-1.028-1.562-1.028-3.615
	c0-1.738,0.123-3.811,0.123-5.653c0-0.549,0-1.081-0.035-1.576l-2.303,10.847h-2.551l2.569-12.052
	c-1.561,0.656-2.479,2.001-2.479,3.883c0,0.902,0.229,1.044,0.247,1.206c-1.223,0-1.896-0.445-1.896-1.72
	c0-2.357,3.261-4.607,6.22-4.607c1.488,0,1.613,0.761,1.613,3.295c0,1.862-0.195,4.185-0.195,5.904c0,0.812,0.052,1.508,0.176,1.933
	l2.356-11.092h2.552V824.197z M838.94,831.017c0.106,0.105,0.267,0.16,0.513,0.16c0.832,0,1.205-0.605,1.862-0.868l0.069,0.372
	c-0.547,0.692-1.469,1.277-2.496,1.561c-0.339,3.562-2.269,5.317-4.039,5.317c-1.901,0-2.712-0.8-2.712-2.908
	c0-4.36,2.216-6.235,4.66-6.235C838.479,828.415,838.905,829.726,838.94,831.017z M837.576,832.419
	c-0.515,0-0.742-0.373-0.742-0.801c0-0.511,0.301-1.062,0.778-1.238c-0.052-0.585-0.248-0.921-0.744-0.921
	c-1.666,0-2.375,3.612-2.375,5.032c0,1.062,0.495,1.344,1.186,1.344C836.761,835.835,837.364,834.137,837.576,832.419z
	 M851.594,829.83c0,2.767-1.4,7.621-4.979,7.621c-1.206,0-1.984-0.461-2.162-1.47c-0.831,0.761-1.792,1.47-2.535,1.47
	c-1.362,0-2.213-0.604-2.213-1.932c0-0.265,0.034-0.567,0.105-0.903l1.276-6.027h2.551l-1.274,6.027
	c-0.035,0.197-0.074,0.39-0.074,0.549c0,0.389,0.18,0.674,0.888,0.674c0.373,0,0.814-0.267,1.24-0.621
	c0-0.177,0.034-0.389,0.089-0.602l1.276-6.025h2.552l-1.276,6.025c-0.052,0.25-0.089,0.46-0.089,0.655
	c0,0.336,0.16,0.563,0.676,0.563c1.735,0,2.923-3.877,2.923-5.81c-0.106,0.036-0.265,0.072-0.373,0.072
	c-0.513,0-0.742-0.496-0.742-0.992c0-0.372,0.425-0.868,1.009-0.868C851.221,828.235,851.594,828.91,851.594,829.83z"/>
<g opacity="0.5">
	<g>
		<g>
			<defs>
				<rect id="SVGID_3_" x="811.37" y="845.571" width="13.551" height="13.545"/>
			</defs>
			<clipPath id="SVGID_4_">
				<use xlink:href="#SVGID_3_"  overflow="visible"/>
			</clipPath>
			<path clip-path="url(#SVGID_4_)" fill="#FFFFFF" d="M824.921,852.344c0,3.741-3.033,6.772-6.776,6.772
				c-3.74,0-6.773-3.031-6.773-6.772c0-3.74,3.033-6.772,6.773-6.772C821.888,845.571,824.921,848.604,824.921,852.344"/>
		</g>
	</g>
</g>
<g opacity="0.3">
	<g>
		<g>
			<defs>
				<rect id="SVGID_5_" x="801.861" y="836.061" width="32.567" height="32.566"/>
			</defs>
			<clipPath id="SVGID_6_">
				<use xlink:href="#SVGID_5_"  overflow="visible"/>
			</clipPath>
			<path clip-path="url(#SVGID_6_)" fill="#FFFFFF" d="M818.145,836.061c-8.991,0-16.283,7.292-16.283,16.283
				c0,8.996,7.292,16.283,16.283,16.283c8.994,0,16.284-7.287,16.284-16.283C834.429,843.353,827.139,836.061,818.145,836.061
				 M818.145,863.656c-6.245,0-11.312-5.064-11.312-11.313c0-6.247,5.067-11.31,11.312-11.31c6.246,0,11.312,5.062,11.312,11.31
				C829.457,858.592,824.391,863.656,818.145,863.656"/>
		</g>
	</g>
</g>
<path fill="#FBC088" d="M830.471,867.807c0,0-3.651-2.246-9.477-2.97v-13.02c0-1.062-0.859-1.922-1.92-1.922h-1.892
	c-1.061,0-1.921,0.86-1.921,1.922v14.937v1.814l-3.106-3.244c-0.73-0.766-1.942-0.793-2.711-0.061l-1.365,1.306
	c-0.768,0.734-0.794,1.948-0.06,2.715l4.383,4.583l0.002,0.001l0.147,0.155c0.586,0.631,4.116,2.614,4.327,9.441v6.268
	c0,1.181,0.961,2.138,2.142,2.138h9.129c1.182,0,2.143-0.957,2.143-2.138v-6.826c0,0,1.383-1.455,2.386-3.472v-7.905
	C832.678,868.706,830.471,867.807,830.471,867.807"/>
<path fill="#FBE0B5" d="M818.866,850.672h-1.442c-0.807,0-1.461,0.655-1.461,1.46v1.885h4.366v-1.885
	C820.327,851.327,819.672,850.672,818.866,850.672"/>
<path fill="#FBE0B5" d="M807.541,867.961l-0.049,0.047c0.014,0.456,0.184,0.917,0.526,1.276l1.892,1.977l1.689-1.635L810.025,868
	C809.351,867.304,808.238,867.286,807.541,867.961"/>
<rect x="814.538" y="889.798" fill="#FFFFFF" width="19.002" height="4.224"/>
<rect x="813.673" y="892.248" fill="#F15A29" width="20.544" height="20.356"/>
<path fill="#FFFFFF" d="M833.059,895.99c0,1.059-0.856,1.92-1.916,1.92c-1.062,0-1.922-0.861-1.922-1.92
	c0-1.062,0.859-1.922,1.922-1.922C832.202,894.068,833.059,894.928,833.059,895.99"/>
<rect x="728.296" y="873.355" fill="#FFFFFF" width="23.349" height="16.894"/>
<path fill="#891021" d="M730.48,909.355c-2.754,0.013-5.002-2.217-5.014-4.969c-0.012-2.753,2.22-5.002,4.971-5.014
	c2.752-0.014,5.001,2.219,5.014,4.971C735.462,907.094,733.232,909.346,730.48,909.355 M730.447,901.512
	c-1.571,0.007-2.847,1.292-2.84,2.866c0.007,1.572,1.292,2.846,2.865,2.839c1.573-0.008,2.847-1.291,2.839-2.863
	C733.306,902.779,732.021,901.505,730.447,901.512"/>
<path fill="#891021" d="M746.675,909.287c-2.751,0.012-5.001-2.216-5.013-4.97c-0.012-2.753,2.217-5.003,4.967-5.013
	c2.757-0.014,5.003,2.218,5.016,4.969C751.658,907.026,749.428,909.273,746.675,909.287 M746.643,901.443
	c-1.573,0.008-2.849,1.292-2.841,2.863c0.009,1.574,1.293,2.848,2.866,2.839c1.57-0.006,2.846-1.288,2.842-2.862
	C749.501,902.71,748.215,901.435,746.643,901.443"/>
<path fill="#891021" d="M757.704,870.755c-0.252-0.055-0.5-0.048-0.735,0.004l-31.6,0.133c-0.043-0.256-0.072-0.415-0.08-0.459
	c-0.024-0.138-0.065-0.271-0.125-0.401c-0.086-0.198-2.245-4.854-7.716-4.835l-5.418,0.025c-0.946,0.003-1.708,0.773-1.705,1.72
	c0.007,0.942,0.774,1.705,1.72,1.702l5.42-0.024c2.803-0.012,4.162,2.062,4.495,2.659c0.189,1.102,0.989,5.581,1.317,10.015
	l1.324,12.604c0.009,0.093,0.03,0.187,0.056,0.276c0.363,1.285,1.991,3.454,5.761,3.437l21.956-0.095
	c0.901-0.004,1.628-0.738,1.626-1.64c-0.007-0.9-0.737-1.629-1.643-1.625l-21.955,0.094c-1.826,0.008-2.417-0.741-2.577-1.026
	l-0.119-1.144c0.645,0.185,1.187,0.216,1.473,0.21c0.043,0,0.084,0,0.116-0.003c0.658,0,10.414-0.043,17.576-0.072h0.006
	c7.115-0.03,8.999-5.244,9.073-5.465c0.021-0.064,0.042-0.13,0.056-0.194l3.005-13.86
	C759.212,871.865,758.626,870.957,757.704,870.755 M745.149,885.571l-5.332,3.729c0,0.002,0,0.002,0,0.003
	c-0.05,0.032-0.103,0.064-0.159,0.093c0,0-0.004,0.004-0.005,0.004c-0.011,0.007-0.028,0.009-0.038,0.016
	c-0.04,0.019-0.083,0.034-0.123,0.05c-0.023,0.006-0.042,0.015-0.064,0.019c-0.037,0.012-0.072,0.019-0.111,0.028
	c-0.02,0-0.039,0.008-0.061,0.008c-0.048,0.008-0.099,0.014-0.15,0.014c-0.004,0-0.011,0.001-0.018,0.001
	c-0.061,0-0.123-0.007-0.185-0.015c-0.017-0.002-0.031-0.008-0.05-0.008c-0.044-0.01-0.092-0.023-0.14-0.034
	c-0.015-0.006-0.03-0.009-0.045-0.013c-0.062-0.023-0.118-0.046-0.175-0.073c-0.003-0.003-0.006-0.01-0.013-0.01
	c-0.053-0.026-0.101-0.06-0.148-0.094c-0.008-0.006-0.015-0.006-0.02-0.012l-5.294-3.97c-0.566-0.427-0.683-1.229-0.256-1.796
	c0.423-0.568,1.229-0.684,1.796-0.259l3.228,2.423l-0.041-10.111c-0.004-0.71,0.568-1.288,1.278-1.29
	c0.708-0.003,1.287,0.568,1.289,1.279l0.045,10.241l3.322-2.324c0.579-0.408,1.382-0.269,1.785,0.312
	C745.873,884.363,745.729,885.164,745.149,885.571"/>
<path fill="#DB2A28" d="M916.676,877.994c0.655,0.947,0.416,2.242-0.531,2.897l-32.78,22.602c-0.948,0.653-2.247,0.414-2.898-0.535
	l-13.134-19.05c-0.654-0.949-0.416-2.244,0.531-2.899l32.78-22.6c0.948-0.653,2.249-0.414,2.901,0.531L916.676,877.994z"/>
<path fill="#93B3B5" d="M890.4,894.094c0.15,0.222,0.094,0.52-0.123,0.672l-7.56,5.213c-0.216,0.15-0.518,0.094-0.668-0.125
	l-3.029-4.393c-0.152-0.218-0.097-0.519,0.12-0.668l7.56-5.213c0.22-0.149,0.521-0.095,0.671,0.123L890.4,894.094z"/>
<rect x="866.524" y="872.389" transform="matrix(0.8233 -0.5676 0.5676 0.8233 -340.1265 659.0503)" fill="#414042" width="43.986" height="6.909"/>
<rect x="868.791" y="878.681" transform="matrix(-0.8233 0.5676 -0.5676 -0.8233 2123.1973 1097.4708)" fill="#FFFFFF" width="43.983" height="1.04"/>
<path fill="#FBB040" d="M908.018,878.731c0.979,1.421,0.271,3.61-1.583,4.891c-1.853,1.277-4.147,1.159-5.132-0.263
	c-0.979-1.423-0.27-3.61,1.582-4.891C904.739,877.192,907.035,877.309,908.018,878.731"/>
<path fill="#27AAE1" d="M911.372,876.418c0.982,1.423,0.272,3.61-1.581,4.888c-1.854,1.278-4.148,1.16-5.128-0.259
	c-0.983-1.423-0.274-3.613,1.578-4.89C908.096,874.879,910.392,874.998,911.372,876.418"/>
<path fill="#657E59" d="M904.804,877.662c-0.696,1.135-0.803,2.431-0.144,3.385c0.656,0.95,1.902,1.315,3.212,1.068
	c0.697-1.136,0.802-2.432,0.146-3.384C907.361,877.777,906.113,877.415,904.804,877.662"/>
<path fill="#275693" d="M924.295,908.855c0.128,1.142-0.694,2.174-1.838,2.303l-39.566,4.439c-1.145,0.131-2.178-0.691-2.308-1.839
	l-2.58-22.991c-0.128-1.146,0.695-2.177,1.84-2.304l39.565-4.442c1.145-0.129,2.176,0.693,2.304,1.839L924.295,908.855z"/>
<path fill="#93B3B5" d="M893.525,910.64c0.029,0.265-0.162,0.503-0.426,0.53l-9.123,1.026c-0.264,0.029-0.504-0.159-0.532-0.424
	l-0.597-5.305c-0.027-0.264,0.16-0.501,0.427-0.528l9.124-1.026c0.266-0.03,0.502,0.16,0.531,0.424L893.525,910.64z"/>
<rect x="878.433" y="890.214" transform="matrix(0.9938 -0.1115 0.1115 0.9938 -94.0154 105.9517)" fill="#414042" width="43.983" height="6.917"/>
<rect x="878.945" y="897.225" transform="matrix(-0.9938 0.1115 -0.1115 -0.9938 1896.3539 1689.4456)" fill="#FFFFFF" width="43.987" height="1.042"/>
<path fill="#FBB040" d="M916.311,905.416c0.194,1.718-1.463,3.31-3.703,3.562c-2.237,0.249-4.206-0.936-4.399-2.653
	c-0.192-1.714,1.466-3.309,3.703-3.56C914.148,902.512,916.119,903.699,916.311,905.416"/>
<path fill="#BE1E2D" d="M920.361,904.963c0.193,1.715-1.464,3.31-3.703,3.561c-2.234,0.251-4.206-0.936-4.399-2.654
	c-0.194-1.713,1.467-3.311,3.701-3.559C918.197,902.058,920.17,903.247,920.361,904.963"/>
<path fill="#F15A29" d="M913.982,902.953c-1.148,0.676-1.851,1.766-1.724,2.916c0.131,1.15,1.057,2.06,2.325,2.461
	c1.153-0.672,1.855-1.764,1.727-2.915C916.183,904.264,915.254,903.358,913.982,902.953"/>
<path fill="#B0B0B0" d="M39.435,965.452c0,0-2.083,3.877,12.707,7.105h309.605c0,0,10.357-0.66,13.084-5.543l0.019-2.676
	L39.435,965.452z"/>
<path fill="#FFFFFF" d="M39.507,957.626h335.452v8.611c0,0,0.505,1.154-3.444,0.866H42.661c0,0-3.087,0.865-3.375-1.152
	L39.507,957.626z"/>
<path fill="#B0B0B0" d="M184.448,957.693c0,0-1.295,4.313,3.016,4.742h38.916c0,0,4.139,0.535,3.588-4.594L184.448,957.693z"/>
<path fill="#161D21" d="M341.976,957.589V804.69c0-6.94-5.677-12.619-12.614-12.619H84.91c-6.939,0-12.617,5.676-12.617,12.619
	v152.895h269.683V957.589z"/>
<rect x="80.967" y="801.539" fill="#F4AC56" width="252.335" height="146.662"/>
<g opacity="0.2">
	<path fill="#FFFFFF" d="M374.958,966.237v-8.611h-166.86v14.933h153.648c0,0,10.357-0.66,13.084-5.542l0.004-0.331
		C375.053,966.459,374.958,966.237,374.958,966.237z"/>
</g>
<rect x="151.586" y="845.143" fill="#FFFFFF" width="113.021" height="77.548"/>
<g opacity="0.9">
	<rect x="162.574" y="836.671" fill="#00628D" width="91.043" height="16.627"/>
</g>
<g>
	<g>
		<path opacity="0.7" fill="#CCCCCC" enable-background="new    " d="M258.408,875.768c0,0.426-0.347,0.768-0.772,0.768h-96.077
			c-0.425,0-0.772-0.342-0.772-0.768v-12.589c0-0.427,0.346-0.772,0.772-0.772h96.077c0.425,0,0.772,0.346,0.772,0.772V875.768z"/>
		<g opacity="0.7">
			<path fill="#707487" d="M179.454,870.686c0.182,0,0.332-0.037,0.452-0.107c0.121-0.068,0.217-0.162,0.288-0.273
				c0.073-0.111,0.123-0.24,0.152-0.387c0.028-0.146,0.043-0.294,0.043-0.443v-1.577h0.395v1.577c0,0.211-0.023,0.412-0.072,0.599
				c-0.049,0.188-0.125,0.356-0.231,0.501c-0.106,0.143-0.243,0.258-0.411,0.338c-0.17,0.085-0.374,0.127-0.613,0.127
				c-0.25,0-0.458-0.043-0.628-0.133c-0.17-0.087-0.306-0.205-0.412-0.349c-0.103-0.146-0.179-0.312-0.223-0.501
				c-0.044-0.19-0.067-0.383-0.067-0.582v-1.577h0.395v1.577c0,0.154,0.016,0.306,0.048,0.449c0.029,0.146,0.082,0.271,0.153,0.387
				c0.071,0.112,0.165,0.201,0.286,0.268C179.125,870.649,179.274,870.686,179.454,870.686z"/>
			<path fill="#707487" d="M182.165,871.062c-0.184,0-0.366-0.031-0.546-0.086c-0.179-0.059-0.332-0.142-0.461-0.249l0.166-0.259
				c0.137,0.102,0.271,0.178,0.406,0.23c0.135,0.048,0.278,0.076,0.426,0.076c0.168,0,0.3-0.033,0.398-0.098
				c0.099-0.066,0.149-0.16,0.149-0.279c0-0.054-0.015-0.104-0.041-0.144c-0.028-0.041-0.066-0.076-0.118-0.104
				c-0.053-0.028-0.121-0.055-0.205-0.077c-0.081-0.024-0.176-0.05-0.285-0.076c-0.138-0.035-0.256-0.071-0.356-0.1
				c-0.099-0.033-0.182-0.071-0.246-0.114c-0.063-0.044-0.111-0.097-0.142-0.159c-0.027-0.061-0.042-0.14-0.042-0.228
				c0-0.113,0.022-0.216,0.067-0.307c0.045-0.09,0.106-0.165,0.187-0.225c0.08-0.061,0.173-0.104,0.281-0.135
				c0.105-0.031,0.22-0.047,0.344-0.047c0.175,0,0.334,0.027,0.484,0.085c0.148,0.056,0.275,0.13,0.378,0.22l-0.177,0.232
				c-0.096-0.086-0.207-0.147-0.326-0.192c-0.119-0.04-0.243-0.063-0.369-0.063c-0.14,0-0.259,0.03-0.358,0.089
				c-0.097,0.062-0.146,0.157-0.146,0.29c0,0.051,0.01,0.095,0.029,0.131c0.02,0.035,0.05,0.063,0.095,0.093
				c0.044,0.027,0.1,0.051,0.17,0.068c0.066,0.022,0.15,0.045,0.248,0.067c0.15,0.035,0.286,0.071,0.396,0.107
				c0.115,0.037,0.208,0.079,0.283,0.129c0.074,0.051,0.129,0.109,0.167,0.177c0.036,0.065,0.055,0.149,0.055,0.245
				c0,0.214-0.083,0.385-0.245,0.509C182.664,870.999,182.442,871.062,182.165,871.062z"/>
			<path fill="#707487" d="M184.542,871.062c-0.172,0-0.331-0.031-0.476-0.094c-0.144-0.062-0.267-0.149-0.37-0.26
				c-0.1-0.106-0.181-0.232-0.238-0.379c-0.057-0.148-0.085-0.299-0.085-0.459c0-0.159,0.028-0.315,0.085-0.459
				c0.057-0.141,0.139-0.267,0.241-0.376c0.105-0.109,0.229-0.193,0.372-0.259c0.144-0.062,0.302-0.094,0.476-0.094
				c0.174,0,0.329,0.031,0.472,0.096c0.142,0.067,0.264,0.15,0.362,0.257c0.099,0.107,0.177,0.235,0.229,0.375
				c0.056,0.144,0.083,0.291,0.083,0.443c0,0.032,0,0.062-0.001,0.088c-0.001,0.028-0.004,0.049-0.006,0.062h-1.903
				c0.01,0.115,0.034,0.221,0.08,0.312c0.044,0.093,0.102,0.173,0.171,0.241c0.069,0.069,0.149,0.12,0.239,0.159
				c0.087,0.037,0.184,0.058,0.284,0.058c0.069,0,0.138-0.013,0.206-0.029c0.067-0.018,0.129-0.044,0.188-0.076
				c0.06-0.033,0.111-0.072,0.155-0.119c0.047-0.044,0.08-0.099,0.105-0.157l0.333,0.089c-0.037,0.088-0.087,0.165-0.155,0.235
				c-0.065,0.069-0.143,0.132-0.229,0.184c-0.085,0.05-0.181,0.091-0.287,0.122C184.767,871.047,184.657,871.062,184.542,871.062z
				 M185.33,869.72c-0.009-0.11-0.036-0.21-0.082-0.303c-0.045-0.091-0.102-0.171-0.17-0.236c-0.07-0.063-0.149-0.113-0.239-0.151
				c-0.091-0.034-0.188-0.054-0.29-0.054c-0.103,0-0.199,0.02-0.29,0.054c-0.09,0.038-0.171,0.088-0.24,0.156
				c-0.067,0.062-0.124,0.145-0.167,0.233c-0.043,0.091-0.068,0.19-0.077,0.301H185.33z"/>
			<path fill="#707487" d="M187.328,869.062c-0.192,0.008-0.363,0.056-0.51,0.15c-0.149,0.093-0.255,0.224-0.316,0.391v1.414h-0.387
				v-2.292h0.36v0.528c0.079-0.156,0.184-0.288,0.313-0.39c0.128-0.104,0.266-0.157,0.412-0.157c0.032,0,0.055,0,0.077,0
				c0.02,0,0.037,0.002,0.051,0.005L187.328,869.062L187.328,869.062z"/>
			<path fill="#707487" d="M189.698,871.017h-0.386v-1.28c0-0.248-0.038-0.426-0.113-0.537c-0.073-0.111-0.188-0.167-0.341-0.167
				c-0.079,0-0.158,0.018-0.237,0.047c-0.079,0.029-0.153,0.071-0.225,0.125c-0.071,0.052-0.132,0.115-0.185,0.188
				c-0.053,0.074-0.09,0.154-0.118,0.242v1.388h-0.387v-2.296h0.352v0.493c0.09-0.16,0.22-0.291,0.392-0.387
				c0.173-0.098,0.357-0.147,0.561-0.147c0.131,0,0.241,0.025,0.329,0.073c0.089,0.047,0.158,0.117,0.21,0.203
				c0.053,0.088,0.089,0.188,0.112,0.304c0.023,0.12,0.032,0.246,0.032,0.385v1.366H189.698z"/>
			<path fill="#707487" d="M190.902,871.062c-0.113,0-0.22-0.02-0.318-0.056c-0.095-0.036-0.18-0.087-0.25-0.147
				c-0.07-0.062-0.124-0.14-0.165-0.225c-0.039-0.085-0.06-0.178-0.06-0.273c0-0.109,0.025-0.208,0.07-0.297
				c0.048-0.09,0.114-0.164,0.202-0.229c0.085-0.063,0.188-0.111,0.307-0.146c0.119-0.034,0.248-0.051,0.389-0.051
				c0.11,0,0.223,0.012,0.337,0.03c0.114,0.022,0.216,0.051,0.304,0.083v-0.182c0-0.188-0.054-0.337-0.158-0.445
				c-0.106-0.104-0.256-0.158-0.448-0.158c-0.232,0-0.475,0.089-0.729,0.267l-0.128-0.252c0.149-0.096,0.297-0.175,0.443-0.223
				c0.148-0.048,0.3-0.075,0.458-0.075c0.293,0,0.526,0.083,0.696,0.241c0.169,0.162,0.255,0.388,0.255,0.683v0.937
				c0,0.09,0.04,0.14,0.123,0.143v0.33c-0.03,0.008-0.057,0.013-0.085,0.015c-0.027,0.003-0.05,0.003-0.074,0.003
				c-0.063,0-0.127-0.018-0.188-0.052c-0.062-0.032-0.095-0.094-0.102-0.178l-0.009-0.165c-0.053,0.07-0.113,0.135-0.179,0.188
				c-0.068,0.052-0.14,0.095-0.213,0.13c-0.079,0.038-0.156,0.065-0.236,0.08C191.061,871.053,190.981,871.062,190.902,871.062z
				 M190.999,870.773c0.124,0,0.243-0.028,0.36-0.081c0.119-0.054,0.211-0.117,0.278-0.194c0.056-0.062,0.083-0.124,0.083-0.18
				v-0.337c-0.091-0.037-0.187-0.062-0.289-0.084c-0.101-0.018-0.198-0.027-0.292-0.027c-0.2,0-0.357,0.039-0.479,0.121
				c-0.12,0.078-0.18,0.19-0.18,0.329c0,0.06,0.012,0.116,0.035,0.171c0.022,0.057,0.059,0.099,0.102,0.144
				c0.043,0.04,0.097,0.073,0.163,0.096C190.843,870.759,190.917,870.773,190.999,870.773z"/>
			<path fill="#707487" d="M196.19,871.017h-0.387v-1.28c0-0.24-0.039-0.418-0.117-0.532c-0.077-0.115-0.192-0.172-0.346-0.172
				c-0.159,0-0.3,0.056-0.424,0.169c-0.124,0.114-0.214,0.26-0.266,0.438v1.384h-0.388v-1.284c0-0.247-0.039-0.428-0.114-0.537
				c-0.076-0.112-0.19-0.167-0.344-0.167s-0.297,0.054-0.422,0.164c-0.126,0.108-0.214,0.257-0.269,0.438v1.387h-0.387v-2.294h0.353
				v0.492c0.093-0.17,0.216-0.303,0.365-0.395c0.148-0.091,0.318-0.138,0.505-0.138c0.193,0,0.347,0.052,0.458,0.155
				c0.115,0.104,0.182,0.238,0.208,0.402c0.206-0.374,0.496-0.559,0.875-0.559c0.131,0,0.241,0.023,0.33,0.073
				c0.089,0.046,0.161,0.115,0.213,0.202c0.052,0.088,0.089,0.188,0.115,0.304c0.022,0.119,0.034,0.247,0.034,0.384v1.366H196.19z"
				/>
			<path fill="#707487" d="M197.799,871.062c-0.175,0-0.332-0.031-0.477-0.094c-0.144-0.062-0.268-0.149-0.369-0.26
				c-0.102-0.106-0.183-0.232-0.238-0.379c-0.059-0.148-0.086-0.299-0.086-0.459c0-0.159,0.027-0.315,0.086-0.459
				c0.057-0.141,0.138-0.267,0.241-0.376c0.104-0.109,0.229-0.193,0.372-0.259c0.144-0.062,0.302-0.094,0.476-0.094
				c0.174,0,0.329,0.031,0.472,0.096c0.141,0.067,0.263,0.15,0.362,0.257c0.099,0.107,0.176,0.235,0.231,0.375
				c0.053,0.144,0.081,0.291,0.081,0.443c0,0.032-0.001,0.062-0.001,0.088c-0.001,0.028-0.003,0.049-0.006,0.062h-1.902
				c0.008,0.115,0.034,0.221,0.079,0.312c0.044,0.093,0.1,0.173,0.171,0.241c0.07,0.069,0.148,0.12,0.24,0.159
				c0.087,0.037,0.184,0.058,0.284,0.058c0.069,0,0.138-0.013,0.206-0.029c0.067-0.018,0.132-0.044,0.189-0.076
				c0.059-0.033,0.11-0.072,0.156-0.119c0.046-0.044,0.08-0.099,0.105-0.157l0.333,0.089c-0.037,0.088-0.09,0.165-0.155,0.235
				c-0.065,0.069-0.144,0.132-0.229,0.184c-0.086,0.05-0.182,0.091-0.288,0.122C198.022,871.047,197.914,871.062,197.799,871.062z
				 M198.586,869.72c-0.008-0.11-0.036-0.21-0.083-0.303c-0.043-0.091-0.101-0.171-0.172-0.236
				c-0.067-0.063-0.148-0.113-0.237-0.151c-0.09-0.034-0.188-0.054-0.29-0.054c-0.103,0-0.2,0.02-0.291,0.054
				c-0.091,0.038-0.17,0.088-0.239,0.156c-0.068,0.062-0.124,0.145-0.167,0.233c-0.042,0.091-0.067,0.19-0.075,0.301H198.586z"/>
		</g>
	</g>
	<g opacity="0.7">
		<path fill="#707487" d="M167.975,868.74c0.362-0.193,0.614-0.572,0.614-1.013c0-0.639-0.516-1.152-1.152-1.152
			c-0.637,0-1.152,0.513-1.152,1.152c0,0.44,0.25,0.819,0.613,1.013c-0.729,0.228-1.256,0.913-1.256,1.712v0.905h3.593v-0.905
			C169.233,869.653,168.702,868.968,167.975,868.74z"/>
	</g>
</g>
<g>
	<g>
		<path opacity="0.7" fill="#CCCCCC" enable-background="new    " d="M258.408,894.14c0,0.427-0.347,0.771-0.772,0.771h-96.077
			c-0.425,0-0.772-0.344-0.772-0.771v-12.587c0-0.425,0.346-0.77,0.772-0.77h96.077c0.425,0,0.772,0.345,0.772,0.77V894.14z"/>
		<g opacity="0.7">
			<path fill="#707487" d="M178.521,888.981l0.378-0.56l-0.592-0.187l0.11-0.362l0.602,0.231l-0.026-0.635h0.439l-0.027,0.635
				l0.601-0.231l0.111,0.362l-0.592,0.187l0.387,0.56l-0.328,0.214l-0.37-0.573l-0.377,0.573L178.521,888.981z"/>
			<path fill="#707487" d="M181.353,888.981l0.377-0.56l-0.594-0.187l0.111-0.362l0.601,0.231l-0.026-0.635h0.437l-0.026,0.635
				l0.602-0.231l0.111,0.362l-0.592,0.187l0.386,0.56l-0.326,0.214l-0.368-0.573l-0.378,0.573L181.353,888.981z"/>
			<path fill="#707487" d="M184.186,888.981l0.376-0.56l-0.592-0.187l0.111-0.362l0.602,0.231l-0.027-0.635h0.438l-0.026,0.635
				l0.601-0.231l0.11,0.362l-0.592,0.187l0.388,0.56l-0.328,0.214l-0.37-0.573l-0.377,0.573L184.186,888.981z"/>
			<path fill="#707487" d="M187.017,888.981l0.377-0.56l-0.591-0.187l0.11-0.362l0.6,0.231l-0.025-0.635h0.437l-0.025,0.635
				l0.601-0.231l0.112,0.362l-0.593,0.187l0.386,0.56l-0.325,0.214l-0.369-0.573l-0.378,0.573L187.017,888.981z"/>
			<path fill="#707487" d="M189.849,888.981l0.375-0.56l-0.592-0.187l0.111-0.362l0.601,0.231l-0.026-0.635h0.438l-0.025,0.635
				l0.6-0.231l0.112,0.362l-0.592,0.187l0.386,0.56l-0.327,0.214l-0.37-0.573l-0.378,0.573L189.849,888.981z"/>
			<path fill="#707487" d="M192.68,888.981l0.378-0.56l-0.593-0.187l0.111-0.362l0.602,0.231l-0.028-0.635h0.439l-0.026,0.635
				l0.601-0.231l0.112,0.362l-0.593,0.187l0.387,0.56l-0.327,0.214l-0.368-0.573l-0.378,0.573L192.68,888.981z"/>
			<path fill="#707487" d="M195.511,888.981l0.378-0.56l-0.592-0.187l0.112-0.362l0.6,0.231l-0.025-0.635h0.437l-0.025,0.635
				l0.601-0.231l0.112,0.362l-0.592,0.187l0.387,0.56l-0.326,0.214l-0.369-0.573l-0.379,0.573L195.511,888.981z"/>
			<path fill="#707487" d="M198.344,888.981l0.377-0.56l-0.592-0.187l0.111-0.362l0.601,0.231l-0.027-0.635h0.438l-0.027,0.635
				l0.602-0.231l0.112,0.362l-0.592,0.187l0.386,0.56l-0.326,0.214l-0.369-0.573l-0.377,0.573L198.344,888.981z"/>
			<path fill="#707487" d="M201.175,888.981l0.379-0.56l-0.591-0.187l0.111-0.362l0.601,0.231l-0.026-0.635h0.439l-0.026,0.635
				l0.601-0.231l0.111,0.362l-0.592,0.187l0.387,0.56l-0.327,0.214l-0.369-0.573l-0.378,0.573L201.175,888.981z"/>
		</g>
	</g>
	<g opacity="0.7">
		<path fill="#707487" d="M169.14,886.588h-0.329v-0.41c0-0.758-0.618-1.376-1.375-1.376c-0.758,0-1.375,0.618-1.375,1.376v0.41
			h-0.33c-0.258,0-0.47,0.213-0.47,0.47v2.675c0,0.26,0.212,0.471,0.47,0.471h3.408c0.262,0,0.471-0.211,0.471-0.471v-2.675
			C169.611,886.801,169.4,886.588,169.14,886.588z M166.682,886.178c0-0.415,0.338-0.755,0.753-0.755s0.752,0.34,0.752,0.755v0.41
			h-1.505V886.178z M167.69,888.967v0.683c0,0.029-0.025,0.052-0.055,0.052h-0.326c-0.025,0-0.048-0.023-0.048-0.052v-0.683
			c-0.225-0.087-0.386-0.304-0.386-0.561c0-0.329,0.269-0.599,0.602-0.599c0.33,0,0.599,0.269,0.599,0.599
			C168.073,888.663,167.912,888.88,167.69,888.967z"/>
	</g>
</g>
<g>
	<rect x="160.276" y="898.905" fill="#00628D" width="97.422" height="12.821"/>
	<g>
		<path fill="#FFFFFF" d="M202.524,906.773v-2.654h0.418v2.284h1.426v0.372h-1.844V906.773z"/>
		<path fill="#FFFFFF" d="M206.068,906.793c-0.185,0-0.357-0.036-0.51-0.113c-0.155-0.078-0.285-0.179-0.396-0.306
			c-0.11-0.124-0.197-0.269-0.257-0.431c-0.06-0.161-0.089-0.329-0.089-0.497c0-0.179,0.03-0.346,0.095-0.51
			c0.063-0.161,0.151-0.304,0.264-0.431c0.114-0.125,0.246-0.221,0.4-0.297c0.155-0.073,0.323-0.109,0.505-0.109
			c0.187,0,0.357,0.039,0.512,0.117c0.152,0.08,0.283,0.182,0.393,0.311c0.111,0.125,0.196,0.269,0.254,0.432
			c0.061,0.161,0.091,0.325,0.091,0.492c0,0.175-0.032,0.348-0.096,0.509c-0.063,0.161-0.15,0.303-0.264,0.427
			c-0.113,0.126-0.244,0.222-0.398,0.297C206.419,906.757,206.251,906.793,206.068,906.793z M205.243,905.448
			c0,0.126,0.019,0.245,0.058,0.363c0.036,0.116,0.092,0.218,0.165,0.31c0.073,0.089,0.158,0.161,0.262,0.214
			c0.103,0.053,0.217,0.082,0.344,0.082c0.129,0,0.246-0.03,0.351-0.085c0.104-0.056,0.191-0.133,0.261-0.224
			c0.071-0.09,0.125-0.196,0.164-0.31c0.037-0.113,0.057-0.231,0.057-0.351c0-0.13-0.021-0.251-0.06-0.367
			c-0.039-0.115-0.096-0.214-0.169-0.306c-0.071-0.087-0.16-0.16-0.263-0.215c-0.101-0.052-0.214-0.08-0.339-0.08
			c-0.13,0-0.246,0.028-0.35,0.087c-0.103,0.056-0.191,0.129-0.263,0.218c-0.07,0.089-0.125,0.193-0.16,0.309
			C205.261,905.209,205.243,905.325,205.243,905.448z"/>
		<path fill="#FFFFFF" d="M209.973,906.444c-0.216,0.233-0.471,0.349-0.759,0.349c-0.17,0-0.333-0.036-0.485-0.113
			c-0.15-0.078-0.281-0.179-0.39-0.306c-0.112-0.124-0.198-0.269-0.264-0.434c-0.062-0.162-0.094-0.332-0.094-0.505
			c0-0.182,0.03-0.352,0.094-0.514c0.063-0.162,0.151-0.304,0.264-0.427c0.109-0.122,0.242-0.22,0.392-0.289
			c0.153-0.07,0.319-0.106,0.5-0.106c0.249,0,0.457,0.053,0.628,0.158c0.168,0.104,0.297,0.248,0.386,0.421l-0.32,0.231
			c-0.075-0.146-0.171-0.253-0.295-0.324c-0.124-0.073-0.261-0.11-0.41-0.11c-0.123,0-0.234,0.028-0.333,0.081
			c-0.1,0.054-0.184,0.125-0.256,0.212c-0.071,0.089-0.125,0.193-0.163,0.311c-0.04,0.117-0.06,0.237-0.06,0.367
			c0,0.134,0.021,0.26,0.064,0.376c0.043,0.117,0.102,0.22,0.177,0.31c0.077,0.089,0.166,0.155,0.268,0.208
			c0.102,0.048,0.213,0.076,0.333,0.076c0.269,0,0.512-0.134,0.725-0.395v-0.278h-0.556v-0.311h0.907v1.341h-0.351V906.444
			L209.973,906.444z"/>
		<path fill="#FFFFFF" d="M211.185,906.773v-2.649h0.418v2.649H211.185z"/>
		<path fill="#FFFFFF" d="M212.995,904.905v1.87h-0.419v-2.655h0.329l1.517,1.916v-1.911h0.423v2.65h-0.347L212.995,904.905z"/>
	</g>
</g>
<g>
	<path fill="#FFFFFF" d="M190.821,846.434v-2.416l-0.997,1.829h-0.293l-1-1.829v2.416H188v-3.355h0.567l1.11,2.052l1.111-2.052
		h0.564v3.355H190.821z"/>
	<path fill="#FFFFFF" d="M194.884,845.965v0.469h-2.299v-3.355h2.258v0.466h-1.729v0.954h1.497v0.441h-1.497v1.025H194.884z"/>
	<path fill="#FFFFFF" d="M198.746,846.434v-2.416l-0.998,1.829h-0.292l-1.001-1.829v2.416h-0.53v-3.355h0.569l1.109,2.052
		l1.11-2.052h0.566v3.355H198.746z"/>
	<path fill="#FFFFFF" d="M203.144,845.568c0,0.139-0.028,0.258-0.082,0.364c-0.056,0.106-0.128,0.197-0.223,0.271
		c-0.092,0.074-0.201,0.131-0.328,0.171c-0.125,0.04-0.26,0.06-0.401,0.06h-1.602v-3.355h1.728c0.117,0,0.225,0.024,0.318,0.076
		c0.095,0.049,0.174,0.116,0.242,0.196c0.066,0.08,0.117,0.171,0.152,0.272c0.036,0.103,0.056,0.206,0.056,0.311
		c0,0.165-0.042,0.315-0.126,0.459c-0.083,0.144-0.202,0.249-0.357,0.321c0.193,0.055,0.345,0.159,0.457,0.309
		C203.088,845.171,203.144,845.352,203.144,845.568z M201.037,843.536v0.984h0.973c0.067,0,0.128-0.01,0.183-0.032
		c0.056-0.028,0.104-0.062,0.147-0.103c0.043-0.042,0.076-0.094,0.101-0.153c0.023-0.062,0.034-0.125,0.034-0.198
		c0-0.147-0.04-0.266-0.121-0.357c-0.083-0.094-0.185-0.141-0.313-0.141H201.037z M202.6,845.465c0-0.065-0.011-0.132-0.034-0.197
		c-0.025-0.061-0.056-0.117-0.095-0.164c-0.037-0.047-0.086-0.086-0.143-0.111c-0.058-0.03-0.119-0.043-0.184-0.043h-1.107v1.024
		h1.073c0.069,0,0.134-0.013,0.194-0.039c0.06-0.027,0.112-0.062,0.157-0.108c0.042-0.046,0.076-0.098,0.103-0.159
		C202.588,845.604,202.6,845.539,202.6,845.465z"/>
	<path fill="#FFFFFF" d="M206.475,845.965v0.469h-2.301v-3.355h2.259v0.466h-1.729v0.954h1.497v0.441h-1.497v1.025H206.475z"/>
	<path fill="#FFFFFF" d="M207.513,846.434v-3.355h1.46c0.15,0,0.29,0.03,0.418,0.093c0.128,0.063,0.237,0.146,0.329,0.249
		c0.092,0.102,0.163,0.217,0.214,0.349c0.05,0.132,0.078,0.266,0.078,0.399c0,0.111-0.016,0.223-0.048,0.325
		c-0.03,0.104-0.074,0.197-0.13,0.287c-0.058,0.091-0.127,0.165-0.209,0.229c-0.082,0.067-0.169,0.113-0.267,0.146l0.798,1.278
		h-0.599l-0.737-1.167h-0.775v1.167L207.513,846.434L207.513,846.434z M208.043,844.798h0.925c0.078,0,0.145-0.016,0.207-0.049
		c0.059-0.033,0.114-0.078,0.158-0.137c0.043-0.062,0.08-0.124,0.104-0.202c0.025-0.075,0.038-0.157,0.038-0.241
		c0-0.087-0.015-0.166-0.044-0.241c-0.029-0.077-0.068-0.142-0.119-0.198c-0.05-0.055-0.107-0.103-0.17-0.134
		c-0.064-0.032-0.131-0.052-0.199-0.052h-0.899V844.798L208.043,844.798z"/>
	<path fill="#FFFFFF" d="M212.778,846.434v-3.355h0.528v2.886h1.802v0.469L212.778,846.434L212.778,846.434z"/>
	<path fill="#FFFFFF" d="M217.257,846.455c-0.238,0-0.451-0.048-0.645-0.145c-0.194-0.094-0.361-0.223-0.5-0.382
		c-0.141-0.159-0.25-0.343-0.325-0.547c-0.075-0.206-0.114-0.415-0.114-0.628c0-0.223,0.04-0.439,0.12-0.64
		c0.082-0.209,0.193-0.388,0.333-0.546c0.142-0.157,0.311-0.283,0.505-0.376c0.196-0.092,0.41-0.14,0.638-0.14
		c0.238,0,0.453,0.049,0.647,0.147c0.193,0.1,0.359,0.229,0.499,0.39c0.14,0.162,0.244,0.344,0.322,0.545
		c0.075,0.205,0.114,0.411,0.114,0.625c0,0.221-0.041,0.436-0.12,0.642c-0.082,0.205-0.192,0.385-0.334,0.538
		c-0.142,0.157-0.31,0.282-0.504,0.376C217.698,846.41,217.486,846.455,217.257,846.455z M216.211,844.754
		c0,0.156,0.027,0.311,0.075,0.456c0.049,0.151,0.117,0.28,0.211,0.394c0.09,0.113,0.2,0.205,0.33,0.271
		c0.13,0.068,0.273,0.102,0.435,0.102c0.164,0,0.311-0.037,0.442-0.105c0.129-0.073,0.239-0.164,0.33-0.282
		c0.089-0.116,0.159-0.244,0.205-0.393c0.047-0.146,0.071-0.291,0.071-0.442c0-0.162-0.026-0.316-0.075-0.461
		c-0.05-0.145-0.122-0.276-0.211-0.388c-0.092-0.111-0.203-0.199-0.332-0.269c-0.128-0.066-0.27-0.101-0.429-0.101
		c-0.163,0-0.309,0.034-0.442,0.106c-0.131,0.071-0.242,0.162-0.331,0.274c-0.09,0.117-0.159,0.245-0.207,0.39
		C216.236,844.454,216.211,844.604,216.211,844.754z"/>
	<path fill="#FFFFFF" d="M222.188,846.017c-0.274,0.293-0.593,0.438-0.957,0.438c-0.219,0-0.422-0.048-0.613-0.145
		c-0.191-0.094-0.357-0.223-0.495-0.382c-0.14-0.159-0.25-0.343-0.331-0.549c-0.08-0.206-0.12-0.42-0.12-0.639
		c0-0.229,0.041-0.445,0.12-0.646c0.082-0.207,0.192-0.388,0.331-0.541c0.138-0.155,0.306-0.275,0.5-0.367
		c0.191-0.088,0.4-0.135,0.627-0.135c0.313,0,0.58,0.068,0.792,0.2c0.215,0.135,0.378,0.312,0.488,0.533l-0.407,0.292
		c-0.091-0.182-0.216-0.318-0.372-0.409c-0.155-0.091-0.326-0.138-0.516-0.138c-0.154,0-0.295,0.032-0.419,0.1
		c-0.126,0.068-0.235,0.157-0.326,0.269c-0.089,0.112-0.158,0.242-0.207,0.392c-0.049,0.146-0.073,0.3-0.073,0.458
		c0,0.174,0.026,0.331,0.081,0.479c0.054,0.148,0.126,0.277,0.225,0.388c0.095,0.109,0.207,0.197,0.335,0.264
		c0.131,0.063,0.271,0.095,0.419,0.095c0.342,0,0.647-0.163,0.918-0.495v-0.355h-0.703v-0.392h1.148v1.695h-0.445V846.017
		L222.188,846.017z"/>
	<path fill="#FFFFFF" d="M223.718,846.434v-3.353h0.529v3.353H223.718z"/>
	<path fill="#FFFFFF" d="M226.006,844.07v2.363h-0.529v-3.355h0.417l1.918,2.417v-2.414h0.534v3.353h-0.44L226.006,844.07z"/>
</g>
<ellipse opacity="0.56" fill="#6D4D56" enable-background="new    " cx="214.578" cy="976.854" rx="171.915" ry="9.752"/>
<ellipse opacity="0.27" fill="#6D4D56" enable-background="new    " cx="817.13" cy="955.217" rx="144.332" ry="4.855"/>
</svg>
