<?xml version="1.0" encoding="utf-8"?>
<!-- Generator: Adobe Illustrator 15.0.0, SVG Export Plug-In . SVG Version: 6.00 Build 0)  -->
<!DOCTYPE svg PUBLIC "-//W3C//DTD SVG 1.1//EN" "http://www.w3.org/Graphics/SVG/1.1/DTD/svg11.dtd">
<svg version="1.1" id="Layer_1" xmlns="http://www.w3.org/2000/svg" xmlns:xlink="http://www.w3.org/1999/xlink" x="0px" y="0px"
	 width="320px" height="640px" viewBox="0 0 320 640" enable-background="new 0 0 320 640" xml:space="preserve">
<rect x="-5" y="-8" fill="#D2849A" width="325" height="521"/>
<rect y="440" fill="#8F646F" width="320" height="217"/>
<path fill="#EA97AC" d="M270.54,240.032h-29.56v-27.355H210.46v48.217h-32.28v51.521h-26.603v15.279v52.659v68.971h113.114H324
	v-121.63V281.19h-53.459L270.54,240.032L270.54,240.032z M295.243,293.921h14.744v17.688h-14.744V293.921z M295.243,317.001h14.744
	v17.688h-14.744V317.001z M295.243,340.081h14.744v17.687h-14.744V340.081z M273.948,293.921h14.743v17.688h-14.743V293.921z
	 M273.948,317.001h14.743v17.688h-14.743V317.001z M273.948,340.081h14.743v17.687h-14.743V340.081z"/>
<path fill="#EA97AC" d="M113.101,295.165v-30.254H91.375v-20.105H68.939v35.439H45.211v37.869H25.656v11.231v18.313h-48.371v-41.157
	h-27.118v142.82h21.27h59.308v-55.158v-11.188h78.057h43.594v-53.629v-34.183H113.101L113.101,295.165z M59.14,287.243h6.16v10.854
	h-6.16V287.243z M-4.562,424.236h-14.744V406.55h14.744V424.236z M-4.562,401.159h-14.744v-17.688h14.744V401.159z M-4.562,378.077
	h-14.744v-17.688h14.744V378.077z M16.733,424.236H1.99V406.55h14.744L16.733,424.236L16.733,424.236z M16.733,401.159H1.99v-17.688
	h14.744L16.733,401.159L16.733,401.159z M16.733,378.077H1.99v-17.688h14.744L16.733,378.077L16.733,378.077z M36.743,350.066
	h-5.998v-2.405h-0.163v-8.445h6.161V350.066z M36.743,334.648h-6.161v-10.854h6.161V334.648z M45.842,350.066h-6.161v-10.854h6.161
	V350.066z M45.842,334.648h-6.161v-10.854h6.161V334.648z M56.203,313.515H50.04v-10.854h6.163V313.515z M56.203,298.097H50.04
	v-10.854h6.163V298.097z M59.14,302.661h6.16v10.854h-6.16V302.661z M70.2,368.1h-6.16v-10.854h6.16V368.1L70.2,368.1z M70.2,352.68
	h-6.16v-10.853h6.16V352.68L70.2,352.68z M79.298,368.1h-6.161v-10.854h6.161V368.1z M79.298,352.68h-6.161v-10.853h6.161V352.68z
	 M89.659,331.546h-6.161v-10.854h6.161V331.546z M89.659,316.126h-6.161v-10.854h6.161V316.126z M98.758,331.546h-6.161v-10.854
	h6.161V331.546z M98.758,316.126h-6.161v-10.854h6.161V316.126z M126.443,351.452h-10.837v-13h10.837V351.452z M126.443,334.486
	h-10.837v-13h10.837V334.486z M126.443,317.521h-10.837v-12.998h10.837V317.521z M142.096,351.452h-10.839v-13h10.838
	L142.096,351.452L142.096,351.452z M142.096,334.486h-10.839v-13h10.838L142.096,334.486L142.096,334.486z M142.096,317.521h-10.839
	v-12.998h10.838L142.096,317.521L142.096,317.521z"/>
<rect x="26.954" y="378.447" fill="#EA97AC" width="125.442" height="70.876"/>
<rect x="56.331" y="389.53" fill="#EA97AC" width="127.474" height="72.024"/>
<path fill="#B0B0B0" d="M30.279,479.019c0,0-1.615,3.005,9.85,5.509h239.986c0,0,8.027-0.512,10.144-4.299l0.016-2.073
	L30.279,479.019z"/>
<path fill="#FFFFFF" d="M30.334,472.952h260.022v6.677c0,0,0.389,0.896-2.67,0.669H32.785c0,0-2.398,0.672-2.619-0.893
	L30.334,472.952z"/>
<path fill="#B0B0B0" d="M142.686,473.005c0,0-1.005,3.342,2.335,3.676h30.167c0,0,3.205,0.414,2.777-3.56L142.686,473.005z"/>
<path fill="#161D21" d="M264.789,472.921V354.405c0-5.379-4.399-9.78-9.776-9.78H65.529c-5.379,0-9.778,4.401-9.778,9.78v118.516
	H264.789L264.789,472.921z"/>
<rect x="62.473" y="351.963" fill="#FFF2CA" width="195.593" height="113.682"/>
<g opacity="0.2">
	<path fill="#FFFFFF" d="M290.356,479.628v-6.677h-129.34v11.575h119.099c0,0,8.027-0.512,10.144-4.299l0.002-0.259
		C290.429,479.8,290.356,479.628,290.356,479.628z"/>
</g>
<path fill="#27AAE1" d="M199.46,399.103c0,0.804-0.71,1.447-1.582,1.447h-75.202c-0.873,0-1.583-0.646-1.583-1.447v-24.525
	c0-0.801,0.709-1.446,1.583-1.446h75.202c0.872,0,1.582,0.649,1.582,1.446V399.103z"/>
<g opacity="0.2">
	<g>
		<g>
			<g>
				<defs>
					<rect id="SVGID_1_" x="122.673" y="374.577" width="76.785" height="25.975"/>
				</defs>
				<clipPath id="SVGID_2_">
					<use xlink:href="#SVGID_1_"  overflow="visible"/>
				</clipPath>
				<path clip-path="url(#SVGID_2_)" fill="#1C75BC" d="M197.876,400.552c0.874,0,1.583-0.647,1.583-1.447v-24.527l-76.785,25.975
					H197.876L197.876,400.552z"/>
			</g>
		</g>
	</g>
</g>
<path fill="#FFFFFF" d="M138.991,382.53l-0.699,3.222h0.104c1.203,0,2.061-1.291,2.061-2.396c0-0.812-0.463-1.522-1.596-1.522
	c-2.351,0-3.919,1.319-3.919,3.525c0,0.741,0.189,0.855,0.205,0.987c-1,0-1.554-0.363-1.554-1.408c0-1.93,2.673-3.773,5.094-3.773
	c2.278,0,3.294,1.135,3.294,2.322c0,0.856-0.522,1.756-1.454,2.293c1.193,0.232,1.671,1.235,1.671,2.364
	c0,1.873-1.29,4.152-2.888,4.152c-0.872,0-1.714-0.085-1.714-1.002c0-0.244,0.058-0.552,0.189-0.913
	c0.273,0.45,0.768,0.522,0.972,0.522c0.8,0,1.437-1.436,1.437-2.67c0-0.943-0.364-1.784-1.321-1.784
	c-0.188,0-0.465,0.018-0.727,0.043l-1.188,5.56h-2.09l1.972-9.23L138.991,382.53z M149.616,384.792l-1.047,4.937
	c-0.028,0.16-0.059,0.317-0.059,0.449c0,0.317,0.145,0.552,0.726,0.552c0.579,0,1.335-0.812,1.917-1.276h0.494
	c-0.667,0.668-2.309,2.599-3.439,2.599c-0.988,0-1.654-0.377-1.785-1.22c-0.682,0.639-1.467,1.22-2.09,1.22
	c-1.117,0-1.813-0.496-1.813-1.581c0-0.219,0.028-0.464,0.086-0.74l1.046-4.936h2.089l-1.045,4.936
	c-0.029,0.16-0.059,0.316-0.059,0.451c0,0.315,0.146,0.549,0.726,0.549c0.304,0,0.665-0.229,1.03-0.52
	c0.016-0.146,0.043-0.304,0.086-0.478l1.046-4.937h2.09V384.792L149.616,384.792z M153.317,384.792l-1.059,4.937
	c-0.043,0.16-0.073,0.317-0.073,0.462c0,0.319,0.16,0.537,0.726,0.537c0.333,0,0.724-0.261,1.102-0.58l1.132-5.354h2.106
	l-1.774,8.418c-0.435,2.074-1.681,2.466-2.641,2.466c-0.887,0-1.714-0.623-1.714-1.567c0-1.35,1.133-1.772,2.51-2.176l0.219-0.999
	c-0.654,0.595-1.392,1.116-1.974,1.116c-1.132,0-1.799-0.495-1.799-1.582c0-0.23,0.03-0.464,0.087-0.74l1.016-4.936L153.317,384.792
	L153.317,384.792z M152.502,394.386c0.292,0,0.683-0.274,0.856-1.131l0.173-0.856c-0.914,0.305-1.61,0.726-1.61,1.508
	C151.924,394.111,152.185,394.386,152.502,394.386z M171.055,381.193l-2.311,10.856h-2.089c-0.681,0-0.841-1.278-0.841-2.962
	c0-1.423,0.102-3.12,0.102-4.63c0-0.448,0-0.886-0.029-1.291L164,392.052h-2.089l2.105-9.869c-1.279,0.537-2.03,1.638-2.03,3.18
	c0,0.739,0.188,0.854,0.203,0.988c-1.002,0-1.554-0.365-1.554-1.408c0-1.932,2.67-3.773,5.094-3.773c1.22,0,1.322,0.623,1.322,2.699
	c0,1.525-0.162,3.43-0.162,4.836c0,0.665,0.043,1.237,0.145,1.583l1.93-9.086h2.091V381.193L171.055,381.193z M176.206,386.779
	c0.088,0.088,0.221,0.131,0.422,0.131c0.682,0,0.986-0.495,1.525-0.71l0.057,0.304c-0.449,0.568-1.202,1.047-2.045,1.278
	c-0.277,2.918-1.857,4.354-3.31,4.354c-1.554,0-2.22-0.652-2.22-2.379c0-3.571,1.814-5.108,3.818-5.108
	C175.83,384.648,176.18,385.722,176.206,386.779z M175.091,387.928c-0.423,0-0.61-0.305-0.61-0.655c0-0.419,0.248-0.869,0.638-1.015
	c-0.042-0.479-0.202-0.754-0.607-0.754c-1.365,0-1.945,2.958-1.945,4.12c0,0.869,0.406,1.1,0.971,1.1
	C174.422,390.727,174.915,389.335,175.091,387.928z M186.57,385.808c0,2.264-1.145,6.242-4.078,6.242
	c-0.988,0-1.625-0.378-1.771-1.205c-0.683,0.624-1.468,1.205-2.075,1.205c-1.118,0-1.815-0.495-1.815-1.581
	c0-0.219,0.028-0.465,0.089-0.74l1.044-4.937h2.091l-1.047,4.937c-0.026,0.16-0.061,0.317-0.061,0.449
	c0,0.317,0.148,0.552,0.729,0.552c0.305,0,0.666-0.218,1.016-0.508c0-0.146,0.027-0.318,0.072-0.493l1.046-4.937h2.089l-1.045,4.937
	c-0.043,0.203-0.071,0.375-0.071,0.536c0,0.274,0.128,0.463,0.552,0.463c1.424,0,2.396-3.177,2.396-4.759
	c-0.089,0.027-0.219,0.06-0.308,0.06c-0.419,0-0.608-0.407-0.608-0.812c0-0.306,0.349-0.711,0.826-0.711
	C186.265,384.502,186.57,385.054,186.57,385.808z"/>
<g opacity="0.5">
	<g>
		<g>
			<g>
				<defs>
					<rect id="SVGID_3_" x="153.625" y="398.701" width="11.097" height="11.093"/>
				</defs>
				<clipPath id="SVGID_4_">
					<use xlink:href="#SVGID_3_"  overflow="visible"/>
				</clipPath>
				<path clip-path="url(#SVGID_4_)" fill="#FFFFFF" d="M164.724,404.247c0,3.066-2.483,5.549-5.549,5.549
					c-3.063,0-5.547-2.482-5.547-5.549c0-3.062,2.484-5.546,5.547-5.546C162.24,398.701,164.724,401.185,164.724,404.247"/>
			</g>
		</g>
	</g>
</g>
<g opacity="0.3">
	<g>
		<g>
			<g>
				<defs>
					<rect id="SVGID_5_" x="145.837" y="390.911" width="26.673" height="26.672"/>
				</defs>
				<clipPath id="SVGID_6_">
					<use xlink:href="#SVGID_5_"  overflow="visible"/>
				</clipPath>
				<path clip-path="url(#SVGID_6_)" fill="#FFFFFF" d="M159.174,390.911c-7.366,0-13.336,5.971-13.336,13.336
					c0,7.368,5.971,13.336,13.336,13.336c7.366,0,13.337-5.968,13.337-13.336C172.513,396.884,166.54,390.911,159.174,390.911
					 M159.174,413.512c-5.116,0-9.266-4.147-9.266-9.267c0-5.114,4.15-9.264,9.266-9.264c5.116,0,9.266,4.149,9.266,9.264
					C168.439,409.364,164.29,413.512,159.174,413.512"/>
			</g>
		</g>
	</g>
</g>
<path fill="#FBC088" d="M169.269,416.912c0,0-2.989-1.839-7.763-2.432v-10.665c0-0.869-0.703-1.574-1.572-1.574h-1.548
	c-0.868,0-1.574,0.705-1.574,1.574v12.235v1.484l-2.543-2.656c-0.6-0.627-1.591-0.65-2.221-0.05l-1.118,1.071
	c-0.628,0.599-0.65,1.595-0.049,2.221l3.59,3.754l0.001,0.002l0.122,0.126c0.48,0.517,3.372,2.141,3.543,7.734v5.132
	c0,0.967,0.787,1.751,1.754,1.751h7.477c0.967,0,1.754-0.784,1.754-1.751v-5.59c0,0,1.134-1.192,1.956-2.844v-6.476
	C171.078,417.648,169.269,416.912,169.269,416.912"/>
<path fill="#FBE0B5" d="M159.764,402.878h-1.181c-0.66,0-1.196,0.536-1.196,1.196v1.542h3.576v-1.542
	C160.961,403.414,160.426,402.878,159.764,402.878"/>
<path fill="#FBE0B5" d="M150.49,417.038l-0.04,0.039c0.011,0.374,0.149,0.751,0.43,1.046l1.55,1.619l1.384-1.34l-1.291-1.332
	C151.97,416.499,151.06,416.486,150.49,417.038"/>
<rect x="156.221" y="434.924" fill="#FFFFFF" width="15.561" height="3.461"/>
<rect x="155.513" y="436.931" fill="#F15A29" width="16.824" height="16.672"/>
<path fill="#FFFFFF" d="M171.39,439.995c0,0.866-0.702,1.573-1.57,1.573c-0.869,0-1.574-0.707-1.574-1.573
	c0-0.869,0.705-1.574,1.574-1.574C170.688,438.421,171.39,439.126,171.39,439.995"/>
<rect x="85.584" y="421.458" fill="#FFFFFF" width="19.125" height="13.835"/>
<path fill="#891021" d="M87.374,450.942c-2.255,0.011-4.097-1.815-4.106-4.068c-0.01-2.256,1.818-4.098,4.07-4.106
	c2.255-0.013,4.097,1.817,4.107,4.07C91.453,449.09,89.628,450.935,87.374,450.942 M87.347,444.52
	c-1.288,0.004-2.331,1.055-2.326,2.346c0.006,1.288,1.058,2.33,2.347,2.324c1.29-0.006,2.331-1.057,2.325-2.346
	C89.688,445.556,88.635,444.513,87.347,444.52"/>
<path fill="#891021" d="M100.638,450.887c-2.253,0.01-4.096-1.815-4.105-4.069c-0.01-2.256,1.816-4.098,4.068-4.107
	c2.257-0.011,4.097,1.817,4.109,4.069C104.72,449.034,102.892,450.876,100.638,450.887 M100.611,444.461
	c-1.29,0.008-2.333,1.058-2.328,2.349c0.008,1.288,1.059,2.329,2.348,2.324c1.288-0.006,2.331-1.055,2.327-2.346
	C102.953,445.498,101.899,444.456,100.611,444.461"/>
<path fill="#891021" d="M109.67,419.326c-0.206-0.044-0.409-0.039-0.602,0.004l-25.88,0.109c-0.036-0.21-0.061-0.341-0.067-0.375
	c-0.02-0.114-0.054-0.223-0.102-0.329c-0.073-0.162-1.839-3.977-6.32-3.962l-4.438,0.022c-0.775,0.003-1.397,0.633-1.396,1.408
	c0.005,0.771,0.635,1.396,1.408,1.395l4.44-0.021c2.294-0.01,3.409,1.689,3.681,2.178c0.156,0.901,0.811,4.572,1.079,8.203
	l1.085,10.324c0.008,0.075,0.024,0.152,0.045,0.226c0.298,1.052,1.63,2.828,4.718,2.814l17.982-0.077
	c0.739-0.004,1.335-0.606,1.333-1.342c-0.004-0.738-0.604-1.335-1.343-1.333l-17.985,0.076c-1.495,0.007-1.979-0.606-2.111-0.84
	l-0.097-0.938c0.526,0.153,0.97,0.178,1.205,0.172c0.036,0,0.07,0,0.096-0.002c0.538,0,8.529-0.035,14.395-0.059h0.005
	c5.828-0.025,7.371-4.296,7.433-4.476c0.016-0.053,0.033-0.107,0.044-0.161l2.46-11.353
	C110.906,420.236,110.426,419.492,109.67,419.326 M99.388,431.461l-4.367,3.055c0,0.002,0,0.002,0,0.003
	c-0.042,0.026-0.084,0.053-0.13,0.076c0,0-0.003,0.003-0.004,0.003c-0.01,0.004-0.023,0.007-0.031,0.013
	c-0.032,0.015-0.069,0.028-0.102,0.04c-0.02,0.004-0.034,0.013-0.051,0.016c-0.031,0.009-0.062,0.018-0.091,0.023
	c-0.018,0-0.033,0.008-0.05,0.008c-0.04,0.007-0.081,0.011-0.123,0.011c-0.004,0-0.009,0.001-0.014,0.001
	c-0.05,0-0.102-0.005-0.152-0.012c-0.014-0.003-0.026-0.008-0.041-0.008c-0.036-0.006-0.074-0.019-0.115-0.026
	c-0.013-0.006-0.024-0.008-0.038-0.012c-0.049-0.02-0.097-0.037-0.142-0.06c-0.003-0.002-0.006-0.009-0.01-0.009
	c-0.043-0.022-0.083-0.049-0.123-0.076c-0.006-0.004-0.011-0.004-0.017-0.009l-4.335-3.252c-0.462-0.35-0.56-1.007-0.209-1.471
	c0.347-0.466,1.006-0.561,1.472-0.213l2.643,1.984l-0.034-8.282c-0.002-0.582,0.464-1.054,1.046-1.057
	c0.582-0.002,1.056,0.466,1.057,1.048l0.036,8.389l2.721-1.904c0.475-0.333,1.133-0.219,1.464,0.257
	C99.981,430.472,99.864,431.128,99.388,431.461"/>
<path fill="#DB2A28" d="M239.876,425.255c0.536,0.777,0.34,1.838-0.435,2.374l-26.85,18.512c-0.777,0.535-1.84,0.34-2.376-0.439
	l-10.756-15.603c-0.536-0.777-0.34-1.838,0.436-2.373l26.849-18.512c0.777-0.533,1.841-0.338,2.377,0.436L239.876,425.255z"/>
<path fill="#93B3B5" d="M218.354,438.443c0.123,0.18,0.077,0.424-0.103,0.55l-6.19,4.269c-0.177,0.122-0.423,0.075-0.548-0.103
	l-2.48-3.598c-0.123-0.178-0.078-0.425,0.1-0.548l6.19-4.268c0.181-0.123,0.427-0.078,0.552,0.1L218.354,438.443z"/>
<rect x="198.806" y="420.65" transform="matrix(-0.8233 0.5676 -0.5676 -0.8233 635.697 649.061)" fill="#414042" width="36.025" height="5.661"/>
<rect x="200.66" y="425.815" transform="matrix(0.8233 -0.5676 0.5676 0.8233 -203.2983 199.4367)" fill="#FFFFFF" width="36.024" height="0.852"/>
<path fill="#FBB040" d="M232.784,425.859c0.802,1.163,0.221,2.958-1.297,4.008c-1.518,1.046-3.398,0.948-4.201-0.218
	c-0.804-1.165-0.222-2.956,1.295-4.004C230.099,424.599,231.979,424.694,232.784,425.859"/>
<path fill="#27AAE1" d="M235.532,423.964c0.803,1.168,0.221,2.958-1.295,4.007c-1.519,1.047-3.398,0.947-4.202-0.216
	c-0.805-1.165-0.223-2.956,1.292-4.004C232.849,422.705,234.729,422.802,235.532,423.964"/>
<path fill="#657E59" d="M230.151,424.984c-0.57,0.928-0.656,1.991-0.118,2.771c0.539,0.78,1.56,1.078,2.632,0.877
	c0.568-0.931,0.656-1.992,0.119-2.772C232.245,425.08,231.225,424.782,230.151,424.984"/>
<path fill="#275693" d="M246.116,450.533c0.104,0.936-0.569,1.78-1.507,1.886l-32.406,3.635c-0.936,0.107-1.78-0.565-1.888-1.505
	l-2.113-18.831c-0.106-0.939,0.567-1.782,1.506-1.888l32.404-3.638c0.938-0.104,1.782,0.568,1.888,1.507L246.116,450.533z"/>
<path fill="#93B3B5" d="M220.915,451.995c0.024,0.217-0.133,0.411-0.349,0.434l-7.475,0.841c-0.215,0.024-0.412-0.13-0.435-0.349
	l-0.488-4.344c-0.022-0.218,0.13-0.411,0.35-0.434l7.473-0.839c0.218-0.026,0.411,0.13,0.436,0.346L220.915,451.995z"/>
<rect x="208.57" y="435.277" transform="matrix(-0.9938 0.1115 -0.1115 -0.9938 500.5998 848.2266)" fill="#414042" width="36.025" height="5.667"/>
<rect x="208.964" y="440.99" transform="matrix(0.9938 -0.1115 0.1115 0.9938 -47.785 28.0489)" fill="#FFFFFF" width="36.028" height="0.853"/>
<path fill="#FBB040" d="M239.574,447.717c0.161,1.404-1.197,2.71-3.03,2.916c-1.833,0.204-3.447-0.767-3.604-2.173
	c-0.158-1.404,1.199-2.709,3.033-2.914C237.806,445.337,239.42,446.311,239.574,447.717"/>
<path fill="#BE1E2D" d="M242.894,447.346c0.158,1.402-1.199,2.707-3.034,2.914c-1.829,0.206-3.443-0.765-3.604-2.173
	c-0.157-1.404,1.201-2.71,3.033-2.915C241.122,444.965,242.736,445.939,242.894,447.346"/>
<path fill="#F15A29" d="M237.668,445.699c-0.94,0.552-1.515,1.445-1.412,2.388c0.108,0.943,0.867,1.686,1.906,2.016
	c0.944-0.551,1.52-1.443,1.412-2.387C239.469,446.771,238.709,446.03,237.668,445.699"/>
<ellipse opacity="0.27" fill="#6D4D56" enable-background="new    " cx="158.344" cy="488.505" rx="118.214" ry="3.978"/>
</svg>
