<?xml version="1.0" encoding="utf-8"?>
<!-- Generator: Adobe Illustrator 15.0.0, SVG Export Plug-In . SVG Version: 6.00 Build 0)  -->
<!DOCTYPE svg PUBLIC "-//W3C//DTD SVG 1.1//EN" "http://www.w3.org/Graphics/SVG/1.1/DTD/svg11.dtd">
<svg version="1.1" id="Layer_1" xmlns="http://www.w3.org/2000/svg" xmlns:xlink="http://www.w3.org/1999/xlink" x="0px" y="0px"
	 width="320px" height="640px" viewBox="0 0 320 640" enable-background="new 0 0 320 640" xml:space="preserve">
<g id="Layer_1_1_">
	<path fill="#CCEDFF" d="M-30.896,0v639.778h387.973V9.606c0-3.249,0.229-6.451,0.625-9.606H-30.896z"/>
	<g>
		<rect x="-30.896" y="526.141" fill="#80939E" width="387.973" height="113.638"/>
	</g>
</g>
<g id="Layer_2">
	<path fill="#FFFFFF" d="M166.982,148.233c-1.414,0-2.804,0.093-4.164,0.26c0-0.088,0.008-0.174,0.008-0.26
		c0-15.414-13.85-27.911-30.933-27.911c-4.83,0-9.404,1.002-13.474,2.783c-5.577-11.546-18.329-19.618-33.18-19.618
		c-18.899,0-34.406,13.074-36.032,29.745c-1.46-0.167-2.946-0.264-4.458-0.264c-19.339,0-35.015,14.143-35.015,31.587v11.269h2.304
		h65.419h49.792h9.147h61.171C197.568,160.584,183.875,148.233,166.982,148.233"/>
	<path fill="#FFFFFF" d="M665.597,289.482c1.313,0,2.606,0.096,3.872,0.27c0-0.093-0.005-0.181-0.005-0.27
		c0-15.916,12.881-28.817,28.775-28.817c4.494,0,8.746,1.034,12.538,2.873c5.185-11.92,17.052-20.259,30.865-20.259
		c17.581,0,32.005,13.5,33.515,30.715c1.359-0.172,2.741-0.271,4.148-0.271c17.988,0,32.572,14.602,32.572,32.617v11.636h-2.141
		h-60.86h-46.318h-8.508h-56.905C637.145,302.238,649.884,289.482,665.597,289.482"/>
	<path fill="#B0D9EA" d="M348.172,359.865v22.061h-41.577v-39.032h-8.485v-8.483H275.2v7.637h-6.787v36.485h-10.86V349.1
		c0.03-3.304,0.034-6.78,0-10.379v-2.085h-0.022c-0.516-38.328-5.471-88.741-28.149-86.227
		c-18.269,2.023-22.048,49.976-22.274,86.227h-0.049v40.199h-13.312v-44.123h-53.454v43.274h-32.245v20.363H97.864v-88.245H88.53
		v-23.757h-3.395v23.757h-11.03v89.094H44.408v-21.212H21.499v-10.183H-9.046v11.031h-21.85v148.69l387.973,0.738V359.865H348.172z"
		/>
	<polygon fill="#83C5DB" points="337.923,469.962 337.923,447.052 311.832,447.052 311.832,409.507 302.923,409.507 
		302.923,403.145 280.013,403.145 280.013,409.507 269.832,409.507 269.832,447.052 244.378,447.052 244.378,429.233 
		191.558,429.233 191.558,408.233 114.557,408.233 114.557,459.145 44.555,459.145 44.555,442.599 26.738,442.599 26.738,415.871 
		5.101,415.871 5.101,405.051 -5.717,405.051 -5.717,415.871 -27.354,415.871 -27.354,469.326 -30.896,469.326 -30.896,527.871 
		357.077,527.871 357.077,469.962 	"/>
	<polygon fill="#83C5DB" points="357.077,429.131 351.525,429.131 351.525,467.949 319.708,467.949 319.708,448.858 
		311.434,448.858 311.434,438.677 257.344,438.677 257.344,448.858 249.069,448.858 249.069,467.949 232.524,467.949 
		232.524,414.493 208.979,414.493 208.979,467.949 181.613,467.949 181.613,518.859 128.159,518.859 128.159,528.405 
		357.077,528.405 	"/>
	<rect x="22.952" y="-12.893" opacity="0.91" fill="#7D9BAF" enable-background="new    " width="8.35" height="541.934"/>
	<rect x="271.65" y="-12.893" opacity="0.91" fill="#7D9BAF" enable-background="new    " width="8.35" height="541.934"/>
	<rect x="-30.896" y="272.277" opacity="0.91" fill="#7D9BAF" enable-background="new    " width="387.973" height="8.35"/>
</g>
<g id="Layer_3">
	<polygon fill="#75868E" points="190.776,575.034 119.921,575.034 118.857,575.034 48.002,575.034 14,600.928 118.857,600.928 
		119.921,600.928 224.777,600.928 	"/>
	<rect x="33.301" y="508.616" fill="#AF9D7D" width="174.858" height="6.911"/>
	<path fill="#AD9566" d="M46.164,592.638h-4.818c-0.295,0-0.535-0.241-0.535-0.534v-76.525h5.888v76.525
		C46.698,592.397,46.459,592.638,46.164,592.638"/>
	<path fill="#AD9566" d="M200.115,592.638h-4.818c-0.295,0-0.534-0.241-0.534-0.534v-76.525h5.889v76.525
		C200.65,592.397,200.411,592.638,200.115,592.638"/>
	<rect x="40.81" y="515.578" fill="#9B855F" width="5.888" height="4.899"/>
	<rect x="194.762" y="515.578" fill="#9B855F" width="5.889" height="4.899"/>
	<path fill="#96805A" d="M56.587,581.738h-3.99c-0.295,0-0.534-0.239-0.534-0.534v-65.676h5.059v65.676
		C57.123,581.499,56.883,581.738,56.587,581.738"/>
	<path fill="#96805A" d="M188.861,581.738h-3.988c-0.297,0-0.535-0.239-0.535-0.534v-65.676h5.059v65.676
		C189.396,581.499,189.158,581.738,188.861,581.738"/>
	<path fill="#F6F6F6" d="M74.502,508.616c0-0.672,0.546-1.219,1.217-1.219h58.469c0.672,0,1.217,0.547,1.217,1.219H74.502z"/>
	<path fill="#878787" d="M80.122,507.397v-0.383c0-0.221-0.18-0.401-0.401-0.401h-2.247c-0.222,0-0.403,0.181-0.403,0.401v0.383
		H80.122z"/>
	<path fill="#878787" d="M83.97,507.397v-0.383c0-0.221-0.181-0.401-0.402-0.401h-2.246c-0.223,0-0.402,0.181-0.402,0.401v0.383
		H83.97z"/>
	<path fill="#878787" d="M87.817,507.397v-0.383c0-0.221-0.18-0.401-0.401-0.401h-2.247c-0.222,0-0.401,0.181-0.401,0.401v0.383
		H87.817z"/>
	<path fill="#878787" d="M91.664,507.397v-0.383c0-0.221-0.18-0.401-0.401-0.401h-2.247c-0.222,0-0.403,0.181-0.403,0.401v0.383
		H91.664z"/>
	<path fill="#878787" d="M112.883,507.397v-0.383c0-0.221-0.18-0.401-0.402-0.401H92.863c-0.222,0-0.402,0.181-0.402,0.401v0.383
		H112.883z"/>
	<path fill="#878787" d="M116.729,507.397v-0.383c0-0.221-0.18-0.401-0.402-0.401h-2.245c-0.223,0-0.403,0.181-0.403,0.401v0.383
		H116.729z"/>
	<path fill="#878787" d="M120.575,507.397v-0.383c0-0.221-0.179-0.401-0.401-0.401h-2.246c-0.223,0-0.401,0.181-0.401,0.401v0.383
		H120.575z"/>
	<path fill="#878787" d="M124.288,507.397v-0.383c0-0.221-0.18-0.401-0.401-0.401h-2.247c-0.221,0-0.403,0.181-0.403,0.401v0.383
		H124.288z"/>
	<path fill="#878787" d="M132.135,507.397v-0.383c0-0.221-0.179-0.401-0.402-0.401h-2.245c-0.224,0-0.403,0.181-0.403,0.401v0.383
		H132.135z"/>
	<path fill="#878787" d="M128.137,507.397v-0.383c0-0.221-0.181-0.401-0.404-0.401h-2.246c-0.221,0-0.401,0.181-0.401,0.401v0.383
		H128.137z"/>
	<rect x="108.354" y="494.718" fill="#B3B2B2" width="18.803" height="13.08"/>
	<rect x="108.354" y="494.718" fill="#878787" width="18.803" height="3.27"/>
	<path fill="#9D9D9C" d="M130.737,508.616c-0.042-0.459-0.414-0.818-0.881-0.818h-24.2c-0.466,0-0.839,0.359-0.882,0.818H130.737z"
		/>
	<path fill="#1C1C1C" d="M159.014,494.718H77.479c-2.107,0-3.815-1.709-3.815-3.814v-51.451c0-2.106,1.708-3.815,3.815-3.815h81.535
		c2.106,0,3.815,1.709,3.815,3.815v51.451C162.829,493.009,161.12,494.718,159.014,494.718"/>
	<path fill="#EDEDED" d="M73.664,485.234v5.669c0,2.107,1.708,3.814,3.815,3.814h81.535c2.106,0,3.815-1.707,3.815-3.814v-5.669
		H73.664z"/>
	<path fill="#384F5E" d="M158.224,483.026H78.269c-0.947,0-1.717-0.769-1.717-1.717v-40.304c0-0.948,0.77-1.718,1.717-1.718h79.955
		c0.948,0,1.717,0.77,1.717,1.718v40.304C159.94,482.26,159.172,483.026,158.224,483.026"/>
	<path fill="#DADADA" d="M120.291,489.977c0-1.13-0.916-2.045-2.044-2.045c-1.128,0-2.042,0.915-2.042,2.045
		c0,1.129,0.915,2.044,2.042,2.044C119.374,492.021,120.291,491.105,120.291,489.977"/>
	<polygon fill="#E89970" points="100.828,478.43 102.235,478.229 101.705,479.549 	"/>
	<rect x="127.815" y="479.535" fill="#DADADA" width="1.111" height="0.25"/>
	<rect x="127.815" y="478.142" fill="#DADADA" width="1.111" height="0.251"/>
	<rect x="127.815" y="476.751" fill="#DADADA" width="1.111" height="0.25"/>
	<path fill="#75868E" d="M171.098,590.284c0-4.901-23.985-8.874-53.571-8.874c-29.587,0-53.573,3.973-53.573,8.874
		c0,4.902,23.985,8.876,53.573,8.876C147.113,599.16,171.098,595.187,171.098,590.284"/>
	<path fill="#1F4056" d="M99.129,530.205c0,0-8.449,1.793-9.558,4.354s-0.939,9.217,0.342,12.8
		c1.28,3.586,10.497,25.944,10.667,27.992c0,0,2.56,0.512,3.156,0.599c0,0-8.447,3.755-8.789,7.081
		c-0.341,3.329,16.812,2.39,19.03-1.62c0,0-1.366-4.183-2.389-5.462c0,0,0.768-1.194,0.597-1.706
		c-0.171-0.513-4.694-14.423-5.291-17.41c-0.598-2.985-3.158-9.132-1.622-10.411c1.536-1.28,12.118-1.535,12.118-1.535h0.379
		c0,0,10.582,0.255,12.119,1.535c1.536,1.28-1.023,7.426-1.622,10.411c-0.598,2.988-5.12,16.897-5.291,17.41
		c-0.171,0.512,0.596,1.706,0.596,1.706c-1.022,1.279-2.388,5.462-2.388,5.462c2.218,4.01,19.371,4.949,19.03,1.62
		c-0.343-3.327-8.79-7.081-8.79-7.081c0.598-0.087,3.157-0.599,3.157-0.599c0.171-2.048,9.388-24.405,10.668-27.992
		c1.28-3.583,1.45-10.238,0.341-12.8c-1.108-2.561-9.558-4.354-9.558-4.354s-3.947,3.552-17.771,3.552
		C104.437,533.757,99.13,530.205,99.129,530.205"/>
	<path fill="#152E42" d="M145.591,534.559c-1.108-2.561-9.558-4.354-9.558-4.354s-3.947,3.552-17.772,3.552
		c-13.824,0-19.132-3.552-19.132-3.552s-8.449,1.793-9.559,4.354c-1.108,2.561-0.938,9.218,0.342,12.8
		c0.651,1.821,3.346,8.482,5.865,14.867c3.595-1.763,7.966-2.513,11.713-3.076c-0.283-1.001-0.495-1.815-0.595-2.316
		c-0.598-2.985-3.158-9.132-1.622-10.411c1.537-1.281,12.118-1.535,12.118-1.535h0.379c0,0,10.582,0.255,12.119,1.535
		c1.536,1.28-1.024,7.426-1.621,10.411c-0.128,0.638-0.437,1.777-0.841,3.176c0.196,0.052,0.397,0.092,0.593,0.147
		c1.526,0.432,6.519,1.953,10.671,3.833c2.695-6.871,5.849-14.641,6.559-16.63C146.53,543.776,146.7,537.119,145.591,534.559"/>
	<path fill="#575756" d="M103.736,575.948c0,0-8.447,3.755-8.789,7.081c-0.341,3.329,16.812,2.39,19.03-1.62
		c0,0-1.366-4.183-2.389-5.462C111.588,575.948,110.666,577.016,103.736,575.948"/>
	<path fill="#575756" d="M131.425,575.948c-6.422,0.938-7.852,0-7.852,0c-1.022,1.279-2.389,5.462-2.389,5.462
		c2.219,4.01,19.372,4.949,19.03,1.62C139.873,579.703,131.425,575.948,131.425,575.948"/>
	<path fill="#E8CAAA" d="M122.934,474.757L122.934,474.757c-0.191-0.961-0.17-4.459-0.17-4.459c3.07-2.262,4.139-7.595,4.139-7.595
		s1.45-1.877,1.535-3.072c0.086-1.196-0.768-1.622-0.768-1.622c0.231-7.042-2.174-11.243-5.082-12.562
		c-1.251-0.567-3.634-0.838-5.007-0.838c-1.372,0-3.757,0.269-5.008,0.838c-2.906,1.318-5.312,5.52-5.081,12.562
		c0,0-0.853,0.426-0.769,1.622c0.086,1.195,1.536,3.072,1.536,3.072s1.066,5.333,4.139,7.595c0,0,0.021,3.498-0.171,4.459
		C116.32,475.695,119.242,475.652,122.934,474.757"/>
	<path fill="#E8CAAA" d="M127.67,458.01c0.231-7.042-2.174-11.242-5.081-12.562c-1.25-0.568-3.634-0.839-5.007-0.839
		c-1.373,0-3.757,0.271-5.007,0.839c-2.906,1.319-5.312,5.52-5.081,12.562c0,0-0.853,0.427-0.77,1.621
		c0.086,1.195,1.538,3.072,1.538,3.072s1.066,5.333,4.139,7.595c0,0,0.007,1.333-0.032,2.579c1.242,0.58,2.82,0.995,5.456,0.995
		c2.188,0,4.218-0.602,4.961-1.345c-0.028-1.134-0.021-2.229-0.021-2.229c3.071-2.262,4.139-7.595,4.139-7.595
		s1.451-1.877,1.536-3.072C128.524,458.435,127.67,458.01,127.67,458.01"/>
	<path fill="#231C11" d="M129.525,457.537c0.261-7.225-2.462-11.537-5.756-12.89c-1.416-0.582-4.116-0.859-5.672-0.859
		c-1.554,0-4.255,0.277-5.672,0.859c-3.292,1.353-6.016,5.665-5.754,12.89c0,0-0.02,1.416,0.053,2.094
		c0.073,0.68,0.817,2.725,0.817,2.725s1.208,5.472,4.689,7.794c0,0,2.434,1.839,5.625,1.839c3.189,0,6.112-1.839,6.112-1.839
		c3.479-2.32,4.689-7.794,4.689-7.794s0.58-2.189,0.651-2.758C129.379,459.026,129.525,457.537,129.525,457.537"/>
	<path fill="#F4BD31" d="M153.592,504.007c-0.641-2.368-14.018-19.328-16.833-23.042c-2.816-3.71-11.201-4.479-11.201-4.479
		c0-0.832-2.625-1.728-2.625-1.728c-3.691,0.896-6.614,0.938-10.705,0c0,0-0.831,0.283-1.558,0.68
		c-0.565,0.308-1.067,0.684-1.067,1.047c0,0-8.383,0.771-11.201,4.479c-2.815,3.714-16.192,20.675-16.832,23.043
		c-0.64,2.369,0.781,4.618,2.944,4.863c2.816,0.32,8.129,0.854,10.305-0.511c0.296-0.188,1.009-0.866,1.872-1.748
		c0.518-0.527,1.089-1.128,1.655-1.737c1.511-1.625,2.992-3.31,3.344-3.855c0,0.003-0.133,1.646-0.329,3.93
		c-0.032,0.381-0.067,0.778-0.103,1.19s-0.073,0.838-0.112,1.271c-0.251,2.815-0.551,5.99-0.816,8.25
		c-0.061,0.521-0.12,0.994-0.176,1.402c-0.148,1.087-0.463,2.272-0.808,3.481c-0.344,1.21-0.718,2.443-0.984,3.632
		c-0.532,2.38-0.639,4.578,0.769,6.027c0,0,5.308,3.551,19.132,3.551c13.825,0,17.772-3.551,17.772-3.551
		c1.584-1.631,1.252-4.209,0.549-6.926c-0.232-0.906-0.508-1.826-0.765-2.733c-0.344-1.21-0.659-2.395-0.808-3.481
		c-0.056-0.408-0.115-0.882-0.176-1.402c-0.062-0.521-0.124-1.092-0.188-1.694c-0.043-0.402-0.085-0.819-0.128-1.247
		s-0.086-0.863-0.128-1.308c-0.086-0.884-0.17-1.792-0.252-2.683c-0.041-0.446-0.081-0.888-0.121-1.32
		c-0.077-0.866-0.148-1.7-0.215-2.462c-0.197-2.283-0.329-3.928-0.329-3.929c0.482,0.749,3.102,3.655,4.999,5.594
		c0.861,0.882,1.575,1.561,1.872,1.747c2.176,1.365,7.488,0.831,10.304,0.511c0.811-0.092,1.518-0.466,2.051-1.022
		c0.532-0.557,0.892-1.294,1.007-2.116C153.782,505.183,153.752,504.599,153.592,504.007"/>
	<path fill="#7F7A6F" d="M125.558,476.485c0-0.833-2.625-1.729-2.625-1.729c-3.691,0.896-6.613,0.938-10.705,0
		c0,0-2.625,0.896-2.625,1.729c0,0,2.257,0.896,8.017,0.896C123.382,477.381,125.558,476.485,125.558,476.485"/>
	<path fill="#2D2D2D" d="M119.205,532.937c17.581-0.341,13.996-17.066,13.142-22.528c-0.853-5.462,6.658-13.655,1.708-22.53
		c-4.95-8.874-16.214-9.217-16.214-9.217h-0.518c0,0-11.265,0.343-16.214,9.217c-4.951,8.875,2.56,17.068,1.706,22.53
		c-0.853,5.462-4.438,22.188,13.142,22.528H119.205z"/>
	<path fill="#2D2D2D" d="M142.971,545.737H92.193c-2.438,0-4.416-1.977-4.416-4.415v-3.265c0-1.131,0.917-2.049,2.048-2.049h55.513
		c1.131,0,2.048,0.918,2.048,2.049v3.265C147.385,543.761,145.408,545.737,142.971,545.737"/>
	<path fill="#2D2D2D" d="M147.385,539.978v-1.92c0-1.131-0.916-2.049-2.048-2.049H89.825c-1.131,0-2.048,0.918-2.048,2.049v1.92
		H147.385z"/>
	<rect x="90.602" y="513.528" fill="#3D3D3D" width="6.401" height="22.48"/>
	<path fill="#2B2823" d="M96.846,513.528h-6.087c-1.406,0-2.545-1.139-2.545-2.545v-0.814c0-0.492,0.399-0.893,0.892-0.893H98.5
		c0.493,0,0.893,0.4,0.893,0.893v0.814C99.393,512.39,98.252,513.528,96.846,513.528"/>
	<rect x="138.159" y="513.528" fill="#3D3D3D" width="6.4" height="22.48"/>
	<rect x="90.602" y="513.528" fill="#66625B" width="6.401" height="3.365"/>
	<rect x="138.159" y="513.528" fill="#66625B" width="6.4" height="3.365"/>
	<path fill="#2B2823" d="M144.404,513.528h-6.088c-1.406,0-2.545-1.139-2.545-2.545v-0.814c0-0.492,0.398-0.893,0.892-0.893h9.395
		c0.493,0,0.892,0.4,0.892,0.893v0.814C146.949,512.39,145.81,513.528,144.404,513.528"/>
	<path fill="#1D1D1B" d="M134.605,587.981c0-1.557,1.261-2.816,2.815-2.816c1.558,0,2.817,1.26,2.817,2.816
		c0,1.555-1.26,2.815-2.817,2.815C135.867,590.797,134.605,589.536,134.605,587.981"/>
	<path fill="#1D1D1B" d="M100.556,587.981c0-1.557-1.261-2.816-2.815-2.816c-1.557,0-2.817,1.26-2.817,2.816
		c0,1.555,1.261,2.815,2.817,2.815C99.295,590.797,100.556,589.536,100.556,587.981"/>
	<path fill="#2D2D2D" d="M117.795,580.044c9.602,0.77,18.306,7.169,18.306,7.169h2.304c2.05,0,3.711-1.663,3.711-3.713
		c-9.601-8.321-24.066-9.602-24.066-9.602h-0.938c0,0-14.464,1.28-24.065,9.602c0,2.05,1.663,3.713,3.712,3.713h2.305
		c0,0,8.704-6.399,18.305-7.169H117.795z"/>
	<path fill="#1D1D1B" d="M120.398,592.333c0-1.557-1.261-2.816-2.816-2.816c-1.557,0-2.817,1.26-2.817,2.816
		c0,1.555,1.26,2.815,2.817,2.815C119.137,595.148,120.398,593.888,120.398,592.333"/>
	<path fill="#2D2D2D" d="M118.136,592.632h-1.109c-1.32,0-2.39-1.07-2.39-2.39v-10.167c0-0.937,0.759-1.695,1.696-1.695h2.498
		c0.936,0,1.696,0.759,1.696,1.695v10.167C120.525,591.562,119.456,592.632,118.136,592.632"/>
	<path fill="#3D3D3D" d="M117.581,576.844L117.581,576.844c-1.626,0-2.944-1.318-2.944-2.944v-28.716
		c0-1.626,1.318-2.944,2.944-2.944c1.627,0,2.945,1.318,2.945,2.944v28.716C120.525,575.525,119.208,576.844,117.581,576.844"/>
	<path fill="#66625B" d="M120.525,550.857v-5.674c0-1.626-1.318-2.944-2.945-2.944c-1.626,0-2.944,1.318-2.944,2.944v5.674H120.525z
		"/>
	<path fill="#3D3D3D" d="M118.95,538.058h-2.845c-0.836,0-1.512-0.677-1.512-1.512v-19.459c0-0.834,0.676-1.509,1.512-1.509h2.845
		c0.835,0,1.511,0.675,1.511,1.509v19.459C120.461,537.381,119.785,538.058,118.95,538.058"/>
	<path fill="#DADADA" d="M54.684,502.827h-5.245c0-0.516,0.418-0.937,0.936-0.937h3.372
		C54.265,501.891,54.684,502.312,54.684,502.827"/>
	<path fill="#C6C6C6" d="M58.589,505.146H45.534c0-1.281,1.039-2.319,2.319-2.319h8.415
		C57.551,502.827,58.589,503.865,58.589,505.146"/>
	<path fill="#B3B2B2" d="M61.738,507.467H42.385c0-1.281,1.039-2.32,2.319-2.32h14.714
		C60.699,505.146,61.738,506.186,61.738,507.467"/>
	<rect x="42.385" y="507.467" fill="#9D9D9C" width="19.353" height="0.659"/>
	<path fill="#3C3C3B" d="M61.918,508.616H42.204c-0.136,0-0.244-0.109-0.244-0.246c0-0.135,0.109-0.245,0.244-0.245h19.714
		c0.136,0,0.246,0.11,0.246,0.245C62.164,508.507,62.054,508.616,61.918,508.616"/>
	<path fill="#DADADA" d="M52.259,504.604h-0.395c-0.254,0-0.462-0.099-0.462-0.22v1.022c0,0.121,0.207,0.221,0.462,0.221h0.395
		c0.255,0,0.463-0.099,0.463-0.221v-1.022C52.721,504.505,52.514,504.604,52.259,504.604"/>
	<path fill="#F6F6F6" d="M51.864,504.604h0.395c0.255,0,0.463-0.099,0.463-0.22c0-0.12-0.207-0.22-0.463-0.22h-0.395
		c-0.254,0-0.462,0.1-0.462,0.22C51.401,504.505,51.609,504.604,51.864,504.604"/>
	<path fill="#DADADA" d="M52.146,503.966h-0.169c-0.108,0-0.197-0.041-0.197-0.093v0.438c0,0.052,0.089,0.094,0.197,0.094h0.169
		c0.108,0,0.198-0.042,0.198-0.094v-0.438C52.343,503.925,52.254,503.966,52.146,503.966"/>
	<path fill="#F6F6F6" d="M51.977,503.966h0.169c0.108,0,0.197-0.041,0.197-0.093c0-0.051-0.088-0.092-0.197-0.092h-0.169
		c-0.108,0-0.197,0.042-0.197,0.092C51.779,503.925,51.869,503.966,51.977,503.966"/>
	<path fill="#B3B2B2" d="M52.004,502.465c-0.495,0-0.895-0.146-0.895-0.639c0-2.881-1.036-4.613-2.347-6.805
		c-1.183-1.977-2.523-4.217-3.435-7.784c-0.98-3.834-0.62-6.922,1.072-9.171c2.492-3.316,6.92-3.492,7.107-3.498
		c0.491-0.016,0.906,0.372,0.921,0.867c0.016,0.491-0.371,0.905-0.862,0.919c-0.04,0.003-3.777,0.166-5.746,2.796
		c-1.342,1.795-1.599,4.367-0.761,7.643c0.848,3.314,2.118,5.438,3.237,7.31c1.395,2.334,2.601,4.349,2.601,7.724
		C52.897,502.318,52.496,502.465,52.004,502.465"/>
	<path fill="#9D9D9C" d="M53.344,476.546c-0.606-0.169-0.542-2.233,0.383-2.233c0.563,0,1.735,0.1,1.735,0.1
		s-0.666,1.782-0.506,2.55C54.956,476.962,53.774,476.668,53.344,476.546"/>
	<path fill="#929292" d="M56.302,480.145L56.302,480.145c-1.052-0.596-1.74-1.672-1.834-2.876l-0.006-0.075
		c-0.086-1.1,0.332-2.176,1.137-2.93l0.14-0.131c0.795-0.743,1.882-1.092,2.961-0.944l1.449,0.194L56.302,480.145z"/>
	<path fill="#DADADA" d="M78.139,481.421H52.816c-0.197,0-0.356,0.159-0.356,0.355s0.159,0.354,0.356,0.354h25.323
		c0.196,0,0.355-0.158,0.355-0.354C78.494,481.581,78.335,481.421,78.139,481.421"/>
	<path fill="#D0D0D0" d="M77.806,481.421H53.148c0-0.981,0.795-1.776,1.776-1.776h21.104
		C77.012,479.645,77.806,480.439,77.806,481.421"/>
	<path fill="#C6C6C6" d="M76.074,479.645H54.881c0-0.941,0.763-1.702,1.703-1.702h17.788
		C75.312,477.942,76.074,478.703,76.074,479.645z"/>
	<path fill="#BCBCBC" d="M74.372,477.942H56.583c0-0.939,0.762-1.701,1.702-1.701H72.67
		C73.609,476.24,74.372,477.003,74.372,477.942"/>
	<path fill="#B3B2B2" d="M72.882,476.24h-14.81v-0.011c0-0.935,0.758-1.692,1.692-1.692h11.425c0.935,0,1.692,0.758,1.692,1.692
		V476.24z"/>
	<path fill="#A8A8A7" d="M71.377,474.538h-11.8v-0.033c0-0.922,0.748-1.669,1.67-1.669h8.459c0.923,0,1.67,0.747,1.67,1.669V474.538
		z"/>
	<path fill="#9D9D9C" d="M69.924,472.836H61.03v-0.021c0-0.928,0.754-1.683,1.682-1.683h5.529c0.929,0,1.682,0.755,1.682,1.683
		L69.924,472.836L69.924,472.836z"/>
	<polygon fill="#FFFFFF" points="61.052,415.562 71.677,427.937 56.381,425.092 	"/>
	<path fill="#FFFFFF" d="M41.281,431.21c-10.094-2.671-16.112-13.018-13.442-23.112c2.671-10.095,13.018-16.113,23.113-13.442
		s16.113,13.019,13.442,23.113S51.375,433.88,41.281,431.21"/>
	<path fill="#008AB5" d="M56.948,408.076l-8.835-7.176c-0.899-0.729-2.187-0.729-3.085,0l-8.845,7.184
		c0.007,0.02,0.007,0.02,0.015,0.04h20.732C56.938,408.099,56.938,408.099,56.948,408.076"/>
	<path fill="#C5C4E0" d="M38.093,423.314h16.954c1.055,0,1.911-0.855,1.911-1.911v-11.369c0-1.056-0.855-1.911-1.911-1.911H38.093
		c-1.055,0-1.911,0.855-1.911,1.911v11.369C36.183,422.459,37.038,423.314,38.093,423.314"/>
	<path fill="#008AB5" d="M55.047,424.173H38.093c-1.527,0-2.77-1.243-2.77-2.77v-11.369c0-1.526,1.243-2.771,2.77-2.771h16.954
		c1.527,0,2.77,1.244,2.77,2.771v11.369C57.817,422.932,56.574,424.173,55.047,424.173"/>
	<rect x="38.375" y="403.266" fill="#FFFFFF" width="16.381" height="17.022"/>
	
		<rect x="38.375" y="403.266" fill="none" stroke="#00AFA6" stroke-width="2" stroke-miterlimit="10" width="16.381" height="17.022"/>
	<path fill="#008AB5" d="M56.957,418.787v-8.045l-7.486,4.7l-0.647,0.406h-0.408l-3.642,0.001h-0.458l-0.618-0.389l-7.516-4.72
		v6.628C43.107,417.12,50.033,418.116,56.957,418.787"/>
	<path fill="#EFEFEF" d="M56.957,421.272v-9.736l-7.486,4.702l7.208,6.061C56.855,421.996,56.957,421.646,56.957,421.272"/>
	<path fill="#EFEFEF" d="M36.183,411.536v9.736c0,0.387,0.109,0.746,0.296,1.054l7.22-6.07L36.183,411.536z"/>
	<path fill="#EFEFEF" d="M44.775,416.645l-7.59,6.382c0.306,0.183,0.661,0.288,1.041,0.288h16.69c0.393,0,0.759-0.113,1.071-0.305
		l-7.569-6.364L44.775,416.645L44.775,416.645z"/>
	<path fill="#008AB5" d="M36.479,422.326l-0.605,0.509l0.637,0.757l0.673-0.565C36.895,422.854,36.652,422.614,36.479,422.326"/>
	<path fill="#008AB5" d="M44.316,416.646l-0.618-0.39l-7.219,6.07c0.173,0.289,0.416,0.528,0.705,0.7l7.591-6.381H44.316z"/>
	<path fill="#008AB5" d="M57.317,422.835l-0.638-0.536c-0.17,0.291-0.408,0.533-0.693,0.71l0.694,0.583L57.317,422.835z"/>
	<path fill="#008AB5" d="M56.679,422.299l-7.207-6.061l-0.648,0.406h-0.408l7.569,6.364
		C56.271,422.832,56.509,422.588,56.679,422.299"/>
	<polygon fill="#FFFFFF" points="175.341,419.587 168.15,431.089 180.371,426.839 	"/>
	<path fill="#FFFFFF" d="M193.552,429.986c7.967-3.457,11.623-12.715,8.167-20.683c-3.456-7.967-12.716-11.622-20.682-8.166
		s-11.624,12.715-8.167,20.681C176.324,429.785,185.585,433.442,193.552,429.986"/>
	<path fill="#008AB5" d="M193.815,416.396h-9.767c-0.533,0-0.971-0.438-0.971-0.972c0-0.532,0.438-0.969,0.971-0.969h9.767
		c0.533,0,0.97,0.436,0.97,0.969C194.785,415.959,194.349,416.396,193.815,416.396"/>
	<path fill="#008AB5" d="M191.614,423.416h-8.797c-0.403,0-0.756-0.272-0.859-0.663l-2.112-8.064h-2.512
		c-0.491,0-0.889-0.398-0.889-0.889s0.397-0.887,0.889-0.887h3.198c0.402,0,0.756,0.271,0.858,0.661l2.112,8.066h7.328l0.7-5.527
		c0.062-0.486,0.506-0.83,0.992-0.771c0.486,0.062,0.832,0.507,0.77,0.993l-0.797,6.304
		C192.439,423.084,192.062,423.416,191.614,423.416"/>
	<path fill="#6FCACB" d="M185.016,425.523c0,0.584-0.473,1.058-1.057,1.058s-1.057-0.474-1.057-1.058
		c0-0.583,0.473-1.055,1.057-1.055S185.016,424.94,185.016,425.523"/>
	<path fill="#6FCACB" d="M191.235,425.523c0,0.584-0.474,1.058-1.057,1.058c-0.584,0-1.056-0.474-1.056-1.058
		c0-0.583,0.472-1.055,1.056-1.055C190.762,424.469,191.235,424.94,191.235,425.523"/>
	<path fill="#6FCACB" d="M190.44,418.608h-6.219c-0.247,0-0.446-0.197-0.446-0.443c0-0.244,0.199-0.444,0.446-0.444h6.219
		c0.245,0,0.444,0.2,0.444,0.444C190.885,418.411,190.686,418.608,190.44,418.608"/>
	<path fill="#6FCACB" d="M189.553,420.386h-4.442c-0.246,0-0.445-0.199-0.445-0.442c0-0.247,0.199-0.446,0.445-0.446h4.442
		c0.244,0,0.443,0.199,0.443,0.446C189.995,420.187,189.797,420.386,189.553,420.386"/>
	<polygon fill="#FFAF10" points="191.882,406.104 187.021,412.553 182.162,406.104 	"/>
	<polygon fill="#FFFFFF" points="212.713,389.188 205.942,395.646 216.541,394.688 	"/>
	<path fill="#FFFFFF" d="M226.553,397.062c6.044-2.634,8.809-9.668,6.176-15.713c-2.634-6.044-9.668-8.81-15.713-6.175
		s-8.81,9.668-6.176,15.711C213.473,396.929,220.507,399.694,226.553,397.062"/>
	<path fill="#6FCACB" d="M224.104,383.147c0,2.675-2.17,4.845-4.845,4.845c-2.676,0-4.843-2.17-4.843-4.845s2.167-4.844,4.843-4.844
		C221.935,378.304,224.104,380.473,224.104,383.147"/>
	<polygon fill="#6FCACB" points="223.64,384.425 226.254,383.073 223.64,381.616 	"/>
	<path fill="#FFFFFF" d="M219.865,383.147c0,0.285-0.223,0.524-0.56,0.524c-0.329,0-0.55-0.24-0.55-0.524
		c0-0.293,0.222-0.533,0.55-0.533C219.643,382.614,219.865,382.854,219.865,383.147"/>
	<path fill="#FFFFFF" d="M221.825,383.147c0,0.285-0.222,0.524-0.56,0.524c-0.328,0-0.551-0.24-0.551-0.524
		c0-0.293,0.223-0.533,0.551-0.533C221.604,382.614,221.825,382.854,221.825,383.147"/>
	<path fill="#FFFFFF" d="M217.909,383.147c0,0.285-0.231,0.524-0.568,0.524c-0.319,0-0.551-0.24-0.551-0.524
		c0-0.293,0.231-0.533,0.551-0.533C217.678,382.614,217.909,382.854,217.909,383.147"/>
	<polygon fill="#FFD400" points="220.963,391.515 218.351,389.539 220.963,388.014 	"/>
	<polygon fill="none" stroke="#FFD400" stroke-width="2" stroke-miterlimit="10" points="220.963,391.515 218.351,389.539 
		220.963,388.014 	"/>
	<path fill="#FFD400" d="M229.388,389.769c0,2.433-1.972,4.403-4.403,4.403s-4.403-1.971-4.403-4.403
		c0-2.432,1.972-4.403,4.403-4.403C227.416,385.366,229.388,387.337,229.388,389.769"/>
	<circle fill="none" stroke="#FFD400" stroke-width="2" stroke-miterlimit="10" cx="224.984" cy="389.769" r="4.403"/>
	<path fill="#FFFFFF" d="M224.894,389.148c0.329,0,0.552,0.279,0.552,0.622c0,0.331-0.223,0.612-0.552,0.612
		c-0.336,0-0.56-0.28-0.56-0.612C224.334,389.428,224.558,389.148,224.894,389.148"/>
	<path fill="#FFFFFF" d="M222.934,389.148c0.328,0,0.551,0.279,0.551,0.622c0,0.331-0.224,0.612-0.551,0.612
		c-0.338,0-0.56-0.28-0.56-0.612C222.374,389.428,222.596,389.148,222.934,389.148"/>
	<path fill="#FFFFFF" d="M226.858,389.148c0.32,0,0.552,0.279,0.552,0.622c0,0.331-0.231,0.612-0.552,0.612
		c-0.336,0-0.567-0.28-0.567-0.612C226.291,389.428,226.522,389.148,226.858,389.148"/>
	<polygon fill="#FFFFFF" points="181.455,483.095 171.309,479.641 180.43,476.35 	"/>
	<path fill="#FFFFFF" d="M197.562,469.793c5.717,3.517,7.503,11,3.988,16.719c-3.516,5.719-11,7.504-16.719,3.991
		c-5.718-3.517-7.504-11.001-3.989-16.72C184.357,468.066,191.843,466.279,197.562,469.793"/>
	<path fill="#FFAF10" d="M190.914,486.124c0,1.079-1.025,1.955-2.29,1.955s-2.29-0.876-2.29-1.955c0-1.078,1.025-1.954,2.29-1.954
		S190.914,485.046,190.914,486.124"/>
	<polygon fill="#FFAF10" points="190.644,487.011 190.441,479.325 195.609,479.325 194.66,481.754 190.914,481.754 	"/>
	<rect x="190.441" y="479.325" fill="#FFAF10" width="0.473" height="6.861"/>
	<path fill="#6FCACB" d="M198.853,481.369l-1.325-0.374c0.173-0.61,0.26-1.245,0.26-1.887c0-3.658-2.853-6.637-6.359-6.637
		c-3.505,0-6.358,2.979-6.358,6.637c0,0.601,0.077,1.194,0.228,1.767l-1.332,0.352c-0.183-0.687-0.274-1.399-0.274-2.118
		c0-4.42,3.471-8.015,7.736-8.015c4.267,0,7.736,3.595,7.736,8.015C199.165,479.877,199.06,480.638,198.853,481.369"/>
	<path fill="#6FCACB" d="M185.051,481.863c0,1.332-0.763,2.412-1.703,2.412c-0.942,0-1.705-1.08-1.705-2.412
		s0.764-2.413,1.705-2.413C184.288,479.452,185.051,480.531,185.051,481.863"/>
	<path fill="#6FCACB" d="M197.749,481.864c0-1.332,0.764-2.412,1.704-2.412c0.941,0,1.704,1.08,1.704,2.412
		c0,1.331-0.763,2.411-1.704,2.411C198.513,484.275,197.749,483.195,197.749,481.864"/>
	<path fill="#23A3B0" d="M183.979,485.512L183.979,485.512c-0.707,0-1.287-0.58-1.287-1.29v-4.716c0-0.709,0.58-1.288,1.287-1.288
		c0.709,0,1.287,0.579,1.287,1.288v4.716C185.266,484.932,184.688,485.512,183.979,485.512"/>
	<path fill="#23A3B0" d="M198.821,478.217L198.821,478.217c0.708,0,1.288,0.58,1.288,1.288v4.717c0,0.709-0.58,1.289-1.288,1.289
		c-0.709,0-1.287-0.58-1.287-1.289v-4.717C197.533,478.797,198.112,478.217,198.821,478.217"/>
	<path fill="#FFFFFF" d="M255.574,348.011c7.295-4.483,9.572-14.031,5.09-21.324c-4.484-7.295-14.032-9.572-21.326-5.09
		c-7.293,4.484-9.571,14.032-5.089,21.326C238.732,350.218,248.281,352.495,255.574,348.011"/>
	<path fill="#FFD400" d="M241.748,341.653c0-0.267,0.128-0.52,0.349-0.694c1.417-1.114,2.3-3.615,2.3-6.528
		c0-1.595,1.424-2.889,3.178-2.889c1.75,0,3.176,1.294,3.176,2.889c0,2.913,0.881,5.414,2.298,6.528
		c0.222,0.174,0.35,0.428,0.35,0.694H241.748z"/>
	<path fill="none" stroke="#FFD400" stroke-width="2" stroke-miterlimit="10" d="M241.748,341.653c0-0.267,0.128-0.52,0.349-0.694
		c1.417-1.114,2.3-3.615,2.3-6.528c0-1.595,1.424-2.889,3.178-2.889c1.75,0,3.176,1.294,3.176,2.889
		c0,2.913,0.881,5.414,2.298,6.528c0.222,0.174,0.35,0.428,0.35,0.694H241.748z"/>
	<path fill="#FFD400" d="M241.63,342.268h11.885c0.478,0,0.867-0.391,0.867-0.867s-0.39-0.867-0.867-0.867H241.63
		c-0.476,0-0.866,0.391-0.866,0.867S241.154,342.268,241.63,342.268"/>
	<path fill="#FFD400" d="M246.494,343.323c-0.594,0.596-0.594,1.561,0,2.156c0.597,0.595,1.562,0.595,2.156,0
		c0.597-0.596,0.597-1.561,0-2.156C248.057,342.728,247.091,342.728,246.494,343.323"/>
	
		<line fill="none" stroke="#FFD400" stroke-width="2" stroke-linecap="round" stroke-miterlimit="10" x1="254.383" y1="333.126" x2="258.649" y2="330.883"/>
	
		<line fill="none" stroke="#FFD400" stroke-width="2" stroke-linecap="round" stroke-miterlimit="10" x1="251.956" y1="330.155" x2="254.383" y2="326.273"/>
	
		<line fill="none" stroke="#FFD400" stroke-width="2" stroke-linecap="round" stroke-miterlimit="10" x1="240.53" y1="333.126" x2="236.266" y2="330.883"/>
	
		<line fill="none" stroke="#FFD400" stroke-width="2" stroke-linecap="round" stroke-miterlimit="10" x1="242.956" y1="330.155" x2="240.53" y2="326.273"/>
	
		<line fill="none" stroke="#FFD400" stroke-width="2" stroke-linecap="round" stroke-miterlimit="10" x1="247.561" y1="328.214" x2="247.561" y2="322.85"/>
	<polygon fill="#FFFFFF" points="122.72,408.147 120.14,419.366 115.351,409.485 	"/>
	<path fill="#FFFFFF" d="M110.01,407.494c-6.277-3.86-8.238-12.076-4.379-18.353c3.859-6.277,12.075-8.238,18.353-4.379
		c6.276,3.857,8.238,12.073,4.379,18.352C124.504,409.391,116.288,411.352,110.01,407.494"/>
	<polygon fill="#FFD400" points="117.287,385.631 119.099,389.3 123.147,389.888 120.218,392.744 120.909,396.777 117.287,394.873 
		113.666,396.777 114.358,392.744 111.428,389.888 115.477,389.3 	"/>
	<path fill="#6FCACB" d="M122.664,398.553c-0.025-0.428-0.412-0.756-0.859-0.729c-0.448,0.024-0.794,0.396-0.771,0.822l0.104,1.814
		l-0.261-0.027l-0.147-2.566c-0.025-0.428-0.412-0.755-0.86-0.729c-0.449,0.025-0.794,0.396-0.77,0.824l0.132,2.301l-0.262-0.027
		l-0.2-3.498c-0.024-0.428-0.412-0.756-0.86-0.73c-0.448,0.025-0.795,0.396-0.77,0.823l0.187,3.237l-0.262-0.028l-0.321-5.578
		c-0.024-0.429-0.412-0.756-0.86-0.729c-0.447,0.025-0.793,0.395-0.771,0.823l0.353,6.137c-0.009,0.408-0.067,1.009-0.126,1.709
		l-0.522-1.744c-0.11-0.364-0.513-0.577-0.895-0.469c-0.383,0.106-0.607,0.491-0.497,0.857c0,0,0.718,2.378,0.729,2.399
		c0.006,0.023,0.004,0.042,0.011,0.067c0,0,0.755,4.004,3.791,3.829l1.773-0.103c0.748-0.042,3.451-0.198,3.267-3.4L122.664,398.553
		z"/>
	<path fill="#85CAF9" d="M93.522,416.963l-4.729-2.11l3.824-8.918l-5.698,8.082l-4.114-1.835l10.992-8.118L93.522,416.963z
		 M87.419,418.353l-0.695-3.054l2.636,1.007L87.419,418.353z"/>
	<path fill="#85CAF9" d="M219.638,351.5l-4.729-2.11l3.824-8.919l-5.698,8.083l-4.114-1.836l10.991-8.119L219.638,351.5z
		 M213.534,352.89l-0.693-3.053l2.636,1.005L213.534,352.89z"/>
	<g>
		<g>
			<path fill="#85CAF9" d="M137.68,424.112l-0.344,0.354l0.745,0.723l0.344-0.353c0.324,0.218,0.697,0.369,1.097,0.435l0.008,0.494
				l1.039-0.017l-0.008-0.491c0.396-0.081,0.765-0.242,1.085-0.468l0.354,0.342l0.723-0.744l-0.353-0.343
				c0.216-0.327,0.368-0.699,0.436-1.098l0.493-0.008l-0.016-1.039l-0.492,0.009c-0.08-0.399-0.242-0.768-0.468-1.086l0.343-0.354
				l-0.744-0.725l-0.344,0.354c-0.325-0.217-0.698-0.368-1.099-0.437l-0.007-0.491l-1.038,0.016l0.007,0.493
				c-0.398,0.08-0.766,0.24-1.084,0.467l-0.354-0.342l-0.723,0.745l0.354,0.342c-0.217,0.326-0.367,0.697-0.436,1.098l-0.493,0.009
				l0.016,1.038l0.492-0.008C137.292,423.425,137.452,423.793,137.68,424.112 M139.971,420.367c1.16-0.018,2.113,0.908,2.13,2.068
				c0.018,1.162-0.91,2.114-2.069,2.132c-1.16,0.019-2.114-0.908-2.131-2.069C137.884,421.338,138.81,420.385,139.971,420.367"/>
			<path fill="#85CAF9" d="M145.834,417.979l0.309-0.137l-0.338-0.762l-0.308,0.138c-0.137-0.186-0.303-0.344-0.494-0.471
				l0.121-0.313l-0.778-0.299l-0.12,0.313c-0.227-0.034-0.458-0.028-0.682,0.018l-0.137-0.308l-0.762,0.338l0.137,0.309
				c-0.186,0.136-0.344,0.301-0.469,0.494L142,417.18l-0.301,0.775l0.314,0.121c-0.034,0.228-0.03,0.457,0.017,0.682l-0.307,0.137
				l0.338,0.763l0.308-0.138c0.136,0.187,0.302,0.344,0.494,0.472l-0.122,0.312l0.778,0.299l0.121-0.312
				c0.225,0.032,0.457,0.028,0.68-0.018l0.139,0.308l0.762-0.338l-0.136-0.309c0.185-0.136,0.343-0.301,0.468-0.494l0.315,0.121
				l0.299-0.776l-0.314-0.122C145.886,418.434,145.881,418.205,145.834,417.979 M144.461,419.559
				c-0.162,0.07-0.333,0.109-0.509,0.112c-0.522,0.007-0.997-0.297-1.21-0.774c-0.291-0.655,0.006-1.426,0.662-1.717
				c0.161-0.073,0.333-0.109,0.508-0.113c0.523-0.006,0.998,0.297,1.21,0.773C145.412,418.496,145.116,419.267,144.461,419.559"/>
		</g>
	</g>
	<g>
		<g>
			<path fill="#85CAF9" d="M215.396,406.964c1.218-1.217,3.076-1.39,4.483-0.529c-0.477,0.47-1.026,1.021-1.026,1.021
				c-0.383,0.463,0.048,0.729,0.267,0.722h2.57c0.136,0,0.246,0,0.246,0h0.249h0.497c0.137,0,0.246-0.112,0.247-0.249v-3.532
				c0.017-0.324-0.339-0.638-0.705-0.275c0,0-0.607,0.589-1.025,1.006c-2.143-1.564-5.16-1.387-7.093,0.547
				c-1.13,1.129-1.655,2.626-1.593,4.104h1.828C214.277,408.767,214.624,407.737,215.396,406.964"/>
			<path fill="#85CAF9" d="M221.477,409.163c0.064,1.013-0.281,2.041-1.055,2.815c-1.217,1.216-3.078,1.389-4.484,0.53
				c0.478-0.471,1.027-1.021,1.027-1.021c0.384-0.461-0.047-0.728-0.267-0.721h-2.569c-0.137,0-0.246,0-0.246,0h-0.248h-0.498
				c-0.136,0-0.247,0.109-0.247,0.246v3.534c-0.016,0.322,0.34,0.635,0.706,0.274c0,0,0.605-0.59,1.025-1.005
				c2.142,1.563,5.16,1.388,7.094-0.547c1.129-1.128,1.654-2.626,1.593-4.104h-1.829v-0.003H221.477z"/>
		</g>
	</g>
	<g>
		<g>
			<path fill="#85CAF9" d="M64.029,444.611c-1.517,0-2.746,1.23-2.746,2.746c0,1.518,2.746,5.05,2.746,5.05s2.747-3.532,2.747-5.05
				C66.776,445.842,65.545,444.611,64.029,444.611z M64.029,447.803c-0.472,0-0.854-0.382-0.854-0.854
				c0-0.471,0.382-0.854,0.854-0.854s0.854,0.383,0.854,0.854C64.883,447.421,64.5,447.803,64.029,447.803z"/>
		</g>
	</g>
	<path fill="#85CAF9" d="M207.905,460.984l0.219-0.24c0.339-0.371,0.313-0.946-0.058-1.285l-3.009-2.75
		c-0.067-0.063-0.146-0.113-0.225-0.15c0.383-0.842,0.449-1.839,0.104-2.79c-0.686-1.894-2.739-2.89-4.579-2.224
		c-1.84,0.668-2.778,2.748-2.094,4.641c0.687,1.893,2.739,2.891,4.579,2.224c0.22-0.078,0.426-0.18,0.618-0.296
		c0.042,0.064,0.091,0.124,0.15,0.179l3.01,2.749C206.99,461.38,207.565,461.354,207.905,460.984z M199.331,455.8
		c-0.473-1.306,0.159-2.73,1.412-3.186c1.251-0.452,2.65,0.238,3.123,1.544c0.472,1.304-0.157,2.73-1.412,3.184
		C201.203,457.796,199.804,457.105,199.331,455.8z"/>
	<path fill="#85CAF9" d="M282.73,319.004l0.219-0.24c0.34-0.37,0.312-0.945-0.057-1.286l-3.009-2.749
		c-0.069-0.064-0.146-0.114-0.227-0.152c0.384-0.841,0.448-1.838,0.104-2.79c-0.686-1.892-2.741-2.889-4.579-2.223
		c-1.84,0.667-2.778,2.748-2.093,4.64s2.739,2.891,4.579,2.224c0.22-0.08,0.426-0.18,0.616-0.297
		c0.043,0.064,0.092,0.125,0.151,0.179l3.01,2.749C281.816,319.4,282.391,319.375,282.73,319.004z M274.158,313.819
		c-0.474-1.305,0.159-2.729,1.411-3.184c1.252-0.454,2.649,0.237,3.123,1.542c0.473,1.305-0.159,2.73-1.411,3.184
		C276.028,315.816,274.63,315.126,274.158,313.819z"/>
</g>
</svg>
