<?xml version="1.0" encoding="utf-8"?>
<!-- Generator: Adobe Illustrator 15.0.0, SVG Export Plug-In . SVG Version: 6.00 Build 0)  -->
<!DOCTYPE svg PUBLIC "-//W3C//DTD SVG 1.1//EN" "http://www.w3.org/Graphics/SVG/1.1/DTD/svg11.dtd">
<svg version="1.1" id="Layer_1" xmlns="http://www.w3.org/2000/svg" xmlns:xlink="http://www.w3.org/1999/xlink" x="0px" y="0px"
	 width="768px" height="1024px" viewBox="0 0 768 1024" enable-background="new 0 0 768 1024" xml:space="preserve">
<g id="Layer_1_1_">
	<rect x="-23.229" fill="#CCEDFF" width="814.098" height="1019.836"/>
	<g>
		<rect x="-23.229" y="851.312" fill="#80939E" width="814.098" height="171.522"/>
	</g>
</g>
<g id="Layer_2">
	<path fill="#FFFFFF" d="M-23.229,353.51H194.36c0.001-23.003-20.668-41.646-46.164-41.646c-2.135,0-4.233,0.14-6.288,0.393
		c0-0.133,0.013-0.263,0.013-0.393c0-23.264-20.905-42.127-46.69-42.127c-7.29,0-14.193,1.513-20.337,4.201
		c-8.418-17.427-27.665-29.612-50.082-29.612c-20.767,0-38.811,10.465-48.042,25.863L-23.229,353.51L-23.229,353.51z"/>
	<path fill="#FFFFFF" d="M1306.407,491.104c1.981,0,3.935,0.146,5.845,0.406c0-0.138-0.009-0.271-0.009-0.406
		c0-24.021,19.442-43.495,43.435-43.495c6.783,0,13.2,1.559,18.923,4.335c7.827-17.993,25.739-30.579,46.589-30.579
		c26.536,0,48.309,20.378,50.588,46.36c2.053-0.26,4.139-0.409,6.261-0.409c27.151,0,49.164,22.04,49.164,49.229v17.563h-3.231
		h-91.86h-69.911h-12.842h-85.893C1263.462,510.357,1282.688,491.104,1306.407,491.104"/>
	<path fill="#B0D9EA" d="M790.868,632.636h-26.333v-58.913h-12.809v-12.804h-34.578v11.524h-10.245v55.07H690.51V583.09
		c0.046-4.986,0.053-10.233,0-15.666v-3.146h-0.031c-0.78-57.851-8.258-133.945-42.488-130.151
		c-27.576,3.055-33.279,75.434-33.623,130.151h-0.072v60.674h-20.093v-66.599h-80.685v65.318H464.85v30.737H449.48V521.214h-14.089
		v-35.861h-5.124v35.861H413.62v134.476h-44.825v-32.018h-34.579v-15.37h-46.105v16.649h-48.667v83.244h-28.177v126.791H93.444
		v14.089l697.424,1.328V632.636L790.868,632.636z"/>
	<polygon fill="#83C5DB" points="790.868,730.938 772.439,730.938 772.439,674.268 758.992,674.268 758.992,664.663 
		724.413,664.663 724.413,674.268 709.045,674.268 709.045,730.938 670.624,730.938 670.624,704.043 590.899,704.043 
		590.899,672.345 474.676,672.345 474.676,749.19 369.018,749.19 369.018,724.215 342.123,724.215 342.123,683.874 309.465,683.874 
		309.465,667.542 293.136,667.542 293.136,683.874 260.478,683.874 260.478,764.557 179.794,764.557 179.794,745.346 
		126.965,745.346 126.965,712.688 99.11,712.688 99.11,680.99 88.543,680.99 88.543,669.464 5.939,669.464 5.939,680.99 
		-4.626,680.99 -4.626,761.674 -23.229,761.674 -23.229,852.926 790.868,852.926 	"/>
	<polygon fill="#83C5DB" points="790.868,762.479 784.327,762.479 784.327,733.664 771.839,733.664 771.839,718.296 
		690.194,718.296 690.194,733.664 677.707,733.664 677.707,762.479 652.733,762.479 652.733,681.795 617.195,681.795 
		617.195,762.479 575.892,762.479 575.892,839.322 495.206,839.322 495.206,853.73 790.868,853.73 	"/>
	<rect x="105.65" y="-1.586" opacity="0.91" fill="#7D9BAF" enable-background="new    " width="12.603" height="854.278"/>
	<rect x="601.32" y="-1.586" opacity="0.91" fill="#7D9BAF" enable-background="new    " width="12.604" height="854.278"/>
	<rect x="-23.229" y="402.135" opacity="0.91" fill="#7D9BAF" enable-background="new    " width="814.098" height="12.604"/>
</g>
<g id="Layer_3">
	<polygon fill="#75868E" points="438.343,890.644 306.854,890.644 304.879,890.644 173.39,890.644 110.289,938.694 304.879,938.694 
		306.854,938.694 501.442,938.694 	"/>
	<rect x="146.107" y="767.387" fill="#AF9D7D" width="324.497" height="12.827"/>
	<path fill="#AD9566" d="M169.978,923.312h-8.942c-0.548,0-0.993-0.446-0.993-0.993V780.306h10.927v142.014
		C170.969,922.867,170.526,923.312,169.978,923.312"/>
	<path fill="#AD9566" d="M455.676,923.312h-8.941c-0.546,0-0.992-0.446-0.992-0.993V780.306h10.929v142.014
		C456.668,922.867,456.226,923.312,455.676,923.312"/>
	<rect x="160.042" y="780.306" fill="#9B855F" width="10.927" height="9.095"/>
	<rect x="445.741" y="780.306" fill="#9B855F" width="10.928" height="9.095"/>
	<path fill="#96805A" d="M189.321,903.087h-7.404c-0.548,0-0.992-0.446-0.992-0.994V780.216h9.389v121.877
		C190.314,902.641,189.87,903.087,189.321,903.087"/>
	<path fill="#96805A" d="M434.792,903.087h-7.403c-0.55,0-0.994-0.446-0.994-0.994V780.216h9.39v121.877
		C435.785,902.641,435.341,903.087,434.792,903.087"/>
	<path fill="#F6F6F6" d="M222.568,767.387c0-1.245,1.013-2.259,2.257-2.259h108.504c1.247,0,2.259,1.011,2.259,2.259H222.568z"/>
	<path fill="#878787" d="M232.997,765.128v-0.712c0-0.41-0.334-0.745-0.746-0.745h-4.169c-0.412,0-0.747,0.335-0.747,0.745v0.712
		H232.997z"/>
	<path fill="#878787" d="M240.137,765.128v-0.712c0-0.41-0.335-0.745-0.748-0.745h-4.167c-0.414,0-0.747,0.335-0.747,0.745v0.712
		H240.137z"/>
	<path fill="#878787" d="M247.276,765.128v-0.712c0-0.41-0.333-0.745-0.746-0.745h-4.169c-0.413,0-0.745,0.335-0.745,0.745v0.712
		H247.276z"/>
	<path fill="#878787" d="M254.415,765.128v-0.712c0-0.41-0.334-0.745-0.746-0.745H249.5c-0.413,0-0.747,0.335-0.747,0.745v0.712
		H254.415z"/>
	<path fill="#878787" d="M293.793,765.128v-0.712c0-0.41-0.334-0.745-0.748-0.745H256.64c-0.413,0-0.747,0.335-0.747,0.745v0.712
		H293.793z"/>
	<path fill="#878787" d="M300.931,765.128v-0.712c0-0.41-0.334-0.745-0.746-0.745h-4.167c-0.414,0-0.748,0.335-0.748,0.745v0.712
		H300.931z"/>
	<path fill="#878787" d="M308.069,765.128v-0.712c0-0.41-0.334-0.745-0.746-0.745h-4.168c-0.414,0-0.746,0.335-0.746,0.745v0.712
		H308.069z"/>
	<path fill="#878787" d="M314.958,765.128v-0.712c0-0.41-0.334-0.745-0.744-0.745h-4.17c-0.41,0-0.746,0.335-0.746,0.745v0.712
		H314.958z"/>
	<path fill="#878787" d="M329.519,765.128v-0.712c0-0.41-0.333-0.745-0.746-0.745h-4.166c-0.414,0-0.748,0.335-0.748,0.745v0.712
		H329.519z"/>
	<path fill="#878787" d="M322.099,765.128v-0.712c0-0.41-0.335-0.745-0.748-0.745h-4.168c-0.412,0-0.744,0.335-0.744,0.745v0.712
		H322.099z"/>
	<rect x="285.388" y="741.596" fill="#B3B2B2" width="34.893" height="24.273"/>
	<rect x="285.388" y="741.596" fill="#878787" width="34.893" height="6.067"/>
	<path fill="#9D9D9C" d="M326.926,767.387c-0.079-0.85-0.77-1.518-1.636-1.518h-44.908c-0.867,0-1.558,0.668-1.638,1.518H326.926z"
		/>
	<path fill="#1C1C1C" d="M379.401,741.596H228.092c-3.911,0-7.081-3.17-7.081-7.079v-95.481c0-3.909,3.169-7.079,7.081-7.079
		h151.309c3.909,0,7.08,3.17,7.08,7.079v95.481C386.479,738.426,383.31,741.596,379.401,741.596"/>
	<path fill="#EDEDED" d="M221.011,723.997v10.52c0,3.911,3.169,7.079,7.081,7.079h151.309c3.909,0,7.08-3.168,7.08-7.079v-10.52
		H221.011z"/>
	<path fill="#384F5E" d="M377.935,719.899H229.558c-1.758,0-3.186-1.427-3.186-3.188V641.92c0-1.76,1.428-3.188,3.186-3.188h148.377
		c1.759,0,3.185,1.428,3.185,3.188v74.793C381.12,718.476,379.693,719.899,377.935,719.899"/>
	<path fill="#DADADA" d="M307.539,732.797c0-2.098-1.699-3.794-3.793-3.794c-2.094,0-3.79,1.696-3.79,3.794
		c0,2.094,1.697,3.792,3.79,3.792C305.839,736.589,307.539,734.891,307.539,732.797"/>
	<polygon fill="#E89970" points="271.421,711.369 274.034,710.998 273.049,713.446 	"/>
	<rect x="321.504" y="713.421" fill="#DADADA" width="2.061" height="0.463"/>
	<rect x="321.504" y="710.833" fill="#DADADA" width="2.061" height="0.467"/>
	<rect x="321.504" y="708.251" fill="#DADADA" width="2.061" height="0.465"/>
	<path fill="#75868E" d="M401.825,918.945c0-9.099-44.51-16.471-99.416-16.471c-54.907,0-99.417,7.372-99.417,16.471
		c0,9.096,44.511,16.47,99.417,16.47C357.317,935.415,401.825,928.041,401.825,918.945"/>
	<path fill="#1F4056" d="M268.269,807.454c0,0-15.679,3.325-17.737,8.078c-2.059,4.751-1.743,17.103,0.634,23.752
		c2.375,6.653,19.478,48.146,19.796,51.947c0,0,4.75,0.95,5.858,1.109c0,0-15.677,6.968-16.311,13.144
		c-0.634,6.175,31.199,4.435,35.316-3.01c0,0-2.534-7.762-4.433-10.136c0,0,1.424-2.216,1.108-3.168
		c-0.318-0.949-8.71-26.764-9.819-32.306s-5.86-16.947-3.009-19.322c2.851-2.376,22.488-2.847,22.488-2.847h0.703
		c0,0,19.639,0.473,22.49,2.847c2.849,2.377-1.901,13.78-3.011,19.322c-1.108,5.544-9.501,31.355-9.817,32.306
		c-0.317,0.952,1.107,3.168,1.107,3.168c-1.897,2.374-4.432,10.136-4.432,10.136c4.116,7.443,35.95,9.185,35.316,3.01
		c-0.634-6.178-16.312-13.144-16.312-13.144c1.11-0.159,5.859-1.109,5.859-1.109c0.318-3.801,17.421-45.294,19.796-51.947
		c2.376-6.649,2.693-19.001,0.632-23.752c-2.057-4.753-17.735-8.078-17.735-8.078s-7.325,6.587-32.98,6.587
		C278.119,814.041,268.271,807.454,268.269,807.454"/>
	<path fill="#152E42" d="M354.49,815.532c-2.057-4.753-17.735-8.078-17.735-8.078s-7.325,6.587-32.981,6.587
		c-25.654,0-35.504-6.587-35.504-6.587s-15.679,3.325-17.739,8.078c-2.057,4.751-1.741,17.104,0.634,23.752
		c1.207,3.38,6.209,15.741,10.884,27.588c6.669-3.269,14.782-4.66,21.736-5.705c-0.525-1.859-0.918-3.369-1.105-4.299
		c-1.108-5.542-5.859-16.947-3.009-19.324c2.851-2.374,22.489-2.847,22.489-2.847h0.703c0,0,19.639,0.475,22.49,2.847
		c2.849,2.377-1.902,13.782-3.01,19.324c-0.235,1.183-0.809,3.298-1.559,5.892c0.364,0.098,0.737,0.17,1.099,0.274
		c2.833,0.798,12.1,3.625,19.803,7.112c5.003-12.754,10.854-27.17,12.171-30.86C356.234,832.637,356.55,820.283,354.49,815.532"/>
	<path fill="#575756" d="M276.819,892.34c0,0-15.677,6.968-16.311,13.144c-0.634,6.175,31.199,4.435,35.316-3.008
		c0,0-2.534-7.762-4.435-10.139C291.39,892.34,289.679,894.318,276.819,892.34"/>
	<path fill="#575756" d="M328.202,892.34c-11.918,1.742-14.57,0-14.57,0c-1.899,2.374-4.434,10.136-4.434,10.136
		c4.117,7.443,35.95,9.185,35.316,3.01C343.88,899.308,328.202,892.34,328.202,892.34"/>
	<path fill="#E8CAAA" d="M312.444,704.552L312.444,704.552c-0.356-1.78-0.317-8.271-0.317-8.271
		c5.7-4.198,7.681-14.097,7.681-14.097s2.692-3.483,2.849-5.7c0.16-2.221-1.426-3.01-1.426-3.01
		c0.429-13.069-4.035-20.864-9.43-23.312c-2.322-1.052-6.745-1.554-9.292-1.554c-2.546,0-6.973,0.498-9.292,1.554
		c-5.394,2.447-9.857,10.242-9.429,23.312c0,0-1.583,0.789-1.426,3.01c0.16,2.217,2.851,5.7,2.851,5.7s1.979,9.897,7.681,14.097
		c0,0,0.039,6.492-0.318,8.271C300.172,706.294,305.594,706.214,312.444,704.552"/>
	<path fill="#E8CAAA" d="M321.234,673.474c0.43-13.067-4.034-20.86-9.43-23.311c-2.321-1.054-6.744-1.556-9.292-1.556
		c-2.546,0-6.973,0.502-9.292,1.556c-5.395,2.449-9.858,10.242-9.43,23.311c0,0-1.583,0.793-1.428,3.01
		c0.16,2.217,2.852,5.702,2.852,5.702s1.98,9.896,7.681,14.095c0,0,0.015,2.473-0.058,4.784c2.305,1.077,5.233,1.849,10.125,1.849
		c4.058,0,7.827-1.118,9.204-2.498c-0.051-2.104-0.039-4.135-0.039-4.135c5.7-4.198,7.682-14.095,7.682-14.095
		s2.692-3.485,2.85-5.702C322.818,674.263,321.234,673.474,321.234,673.474"/>
	<path fill="#231C11" d="M324.675,672.598c0.486-13.407-4.569-21.41-10.681-23.922c-2.627-1.08-7.638-1.593-10.525-1.593
		c-2.885,0-7.897,0.513-10.526,1.593c-6.11,2.514-11.164,10.515-10.68,23.922c0,0-0.037,2.628,0.099,3.886
		c0.134,1.262,1.516,5.057,1.516,5.057s2.242,10.154,8.702,14.464c0,0,4.519,3.413,10.438,3.413c5.92,0,11.344-3.413,11.344-3.413
		c6.458-4.308,8.701-14.464,8.701-14.464s1.076-4.062,1.21-5.118C324.407,675.361,324.675,672.598,324.675,672.598"/>
	<path fill="#F4BD31" d="M369.339,758.834c-1.189-4.393-26.014-35.869-31.239-42.76c-5.226-6.885-20.787-8.312-20.787-8.312
		c0-1.546-4.869-3.206-4.869-3.206c-6.85,1.66-12.274,1.74-19.866,0c0,0-1.542,0.523-2.89,1.262
		c-1.047,0.57-1.981,1.269-1.981,1.942c0,0-15.558,1.43-20.785,8.312c-5.226,6.893-30.049,38.369-31.237,42.762
		c-1.188,4.395,1.449,8.569,5.463,9.026c5.227,0.593,15.085,1.585,19.124-0.951c0.551-0.345,1.873-1.605,3.474-3.241
		c0.96-0.979,2.02-2.094,3.071-3.224c2.803-3.017,5.55-6.145,6.205-7.155c0,0.005-0.246,3.053-0.609,7.291
		c-0.062,0.708-0.126,1.443-0.191,2.211c-0.066,0.765-0.136,1.554-0.208,2.357c-0.465,5.227-1.023,11.117-1.515,15.311
		c-0.113,0.969-0.223,1.847-0.327,2.604c-0.276,2.018-0.86,4.216-1.499,6.459c-0.639,2.247-1.332,4.535-1.827,6.74
		c-0.988,4.418-1.187,8.497,1.427,11.187c0,0,9.85,6.589,35.504,6.589c25.655,0,32.981-6.589,32.981-6.589
		c2.939-3.026,2.321-7.812,1.019-12.854c-0.432-1.681-0.942-3.392-1.42-5.073c-0.639-2.246-1.223-4.441-1.501-6.459
		c-0.103-0.758-0.213-1.636-0.325-2.604c-0.115-0.966-0.231-2.025-0.349-3.145c-0.079-0.746-0.158-1.52-0.237-2.312
		c-0.081-0.795-0.161-1.604-0.24-2.427c-0.16-1.643-0.316-3.327-0.467-4.979c-0.076-0.829-0.151-1.647-0.223-2.452
		c-0.143-1.607-0.277-3.152-0.399-4.565c-0.365-4.238-0.61-7.289-0.61-7.289c0.897,1.389,5.755,6.78,9.276,10.377
		c1.599,1.636,2.923,2.897,3.474,3.241c4.037,2.536,13.896,1.546,19.122,0.95c1.505-0.17,2.818-0.866,3.807-1.896
		c0.988-1.034,1.655-2.403,1.868-3.928C369.692,761.016,369.634,759.933,369.339,758.834"/>
	<path fill="#7F7A6F" d="M317.313,707.762c0-1.548-4.869-3.21-4.869-3.21c-6.85,1.662-12.272,1.742-19.866,0
		c0,0-4.871,1.662-4.871,3.21c0,0,4.188,1.66,14.878,1.66S317.313,707.762,317.313,707.762"/>
	<path fill="#2D2D2D" d="M305.524,812.521c32.625-0.634,25.973-31.675,24.389-41.811s12.354-25.339,3.168-41.81
		c-9.187-16.469-30.091-17.104-30.091-17.104h-0.96c0,0-20.904,0.636-30.089,17.104c-9.188,16.471,4.75,31.674,3.166,41.81
		c-1.583,10.136-8.234,41.177,24.39,41.811H305.524z"/>
	<path fill="#2D2D2D" d="M349.627,836.275h-94.23c-4.526,0-8.195-3.666-8.195-8.193v-6.057c0-2.102,1.701-3.804,3.8-3.804h103.02
		c2.099,0,3.801,1.702,3.801,3.804v6.057C357.821,832.609,354.151,836.275,349.627,836.275"/>
	<path fill="#2D2D2D" d="M357.821,825.587v-3.562c0-2.102-1.703-3.804-3.801-3.804H251.002c-2.099,0-3.8,1.702-3.8,3.804v3.562
		H357.821z"/>
	<rect x="252.444" y="776.504" fill="#3D3D3D" width="11.879" height="41.719"/>
	<path fill="#2B2823" d="M264.032,776.504h-11.297c-2.609,0-4.723-2.115-4.723-4.725v-1.509c0-0.913,0.741-1.656,1.656-1.656h17.435
		c0.915,0,1.656,0.743,1.656,1.656v1.509C268.757,774.389,266.641,776.504,264.032,776.504"/>
	<rect x="340.7" y="776.504" fill="#3D3D3D" width="11.876" height="41.719"/>
	<rect x="252.444" y="776.504" fill="#66625B" width="11.879" height="6.243"/>
	<rect x="340.7" y="776.504" fill="#66625B" width="11.876" height="6.243"/>
	<path fill="#2B2823" d="M352.29,776.504h-11.298c-2.609,0-4.723-2.115-4.723-4.725v-1.509c0-0.913,0.742-1.656,1.654-1.656h17.434
		c0.915,0,1.656,0.743,1.656,1.656v1.509C357.012,774.389,354.897,776.504,352.29,776.504"/>
	<path fill="#1D1D1B" d="M334.105,914.67c0-2.888,2.34-5.227,5.224-5.227c2.89,0,5.227,2.339,5.227,5.227s-2.337,5.225-5.227,5.225
		C336.445,919.895,334.105,917.558,334.105,914.67"/>
	<path fill="#1D1D1B" d="M270.917,914.67c0-2.888-2.341-5.227-5.226-5.227c-2.888,0-5.227,2.339-5.227,5.227
		s2.341,5.225,5.227,5.225C268.577,919.895,270.917,917.558,270.917,914.67"/>
	<path fill="#2D2D2D" d="M302.908,899.942c17.817,1.426,33.971,13.302,33.971,13.302h4.275c3.806,0,6.887-3.086,6.887-6.889
		c-17.818-15.441-44.661-17.818-44.661-17.818h-1.741c0,0-26.842,2.377-44.658,17.818c0,3.803,3.084,6.889,6.888,6.889h4.278
		c0,0,16.152-11.876,33.97-13.302H302.908z"/>
	<path fill="#1D1D1B" d="M307.738,922.746c0-2.888-2.34-5.228-5.226-5.228c-2.888,0-5.228,2.34-5.228,5.228
		c0,2.887,2.339,5.226,5.228,5.226C305.397,927.972,307.738,925.633,307.738,922.746"/>
	<path fill="#2D2D2D" d="M303.542,923.301h-2.059c-2.451,0-4.435-1.984-4.435-4.433v-18.869c0-1.738,1.408-3.147,3.146-3.147h4.636
		c1.736,0,3.146,1.409,3.146,3.147v18.869C307.975,921.315,305.989,923.301,303.542,923.301"/>
	<path fill="#3D3D3D" d="M302.51,894.002L302.51,894.002c-3.018,0-5.464-2.445-5.464-5.463V835.25c0-3.02,2.447-5.468,5.464-5.468
		c3.019,0,5.465,2.448,5.465,5.468v53.289C307.975,891.557,305.529,894.002,302.51,894.002"/>
	<path fill="#66625B" d="M307.975,845.779V835.25c0-3.02-2.446-5.468-5.465-5.468c-3.018,0-5.464,2.448-5.464,5.468v10.529H307.975z
		"/>
	<path fill="#3D3D3D" d="M305.051,822.025h-5.281c-1.551,0-2.806-1.26-2.806-2.807v-36.111c0-1.549,1.254-2.803,2.806-2.803h5.281
		c1.55,0,2.805,1.254,2.805,2.803v36.111C307.856,820.767,306.601,822.025,305.051,822.025"/>
	<path fill="#DADADA" d="M185.79,756.646h-9.733c0-0.959,0.777-1.737,1.737-1.737h6.258
		C185.01,754.908,185.79,755.688,185.79,756.646"/>
	<path fill="#C6C6C6" d="M193.035,760.95h-24.226c0-2.38,1.928-4.306,4.304-4.306h15.617
		C191.108,756.646,193.035,758.572,193.035,760.95"/>
	<path fill="#B3B2B2" d="M198.879,765.254h-35.914c0-2.377,1.927-4.304,4.304-4.304h27.305
		C196.952,760.95,198.879,762.877,198.879,765.254"/>
	<rect x="162.965" y="765.254" fill="#9D9D9C" width="35.914" height="1.223"/>
	<path fill="#3C3C3B" d="M199.214,767.387H162.63c-0.252,0-0.453-0.203-0.453-0.454s0.203-0.456,0.453-0.456h36.584
		c0.252,0,0.455,0.205,0.455,0.456S199.467,767.387,199.214,767.387"/>
	<path fill="#DADADA" d="M181.289,759.939h-0.733c-0.473,0-0.859-0.184-0.859-0.406v1.898c0,0.223,0.384,0.405,0.859,0.405h0.733
		c0.474,0,0.858-0.182,0.858-0.405v-1.898C182.146,759.757,181.763,759.939,181.289,759.939"/>
	<path fill="#F6F6F6" d="M180.556,759.939h0.733c0.474,0,0.858-0.184,0.858-0.406s-0.383-0.406-0.858-0.406h-0.733
		c-0.473,0-0.859,0.182-0.859,0.406C179.697,759.757,180.083,759.939,180.556,759.939"/>
	<path fill="#DADADA" d="M181.08,758.759h-0.313c-0.201,0-0.367-0.076-0.367-0.172v0.812c0,0.096,0.166,0.171,0.367,0.171h0.313
		c0.202,0,0.367-0.075,0.367-0.171v-0.812C181.445,758.683,181.28,758.759,181.08,758.759"/>
	<path fill="#F6F6F6" d="M180.766,758.759h0.313c0.202,0,0.367-0.076,0.367-0.172c0-0.095-0.164-0.172-0.367-0.172h-0.313
		c-0.202,0-0.367,0.077-0.367,0.172C180.399,758.683,180.564,758.759,180.766,758.759"/>
	<path fill="#B3B2B2" d="M180.815,755.972c-0.917,0-1.66-0.271-1.66-1.184c0-5.347-1.921-8.562-4.354-12.627
		c-2.195-3.669-4.683-7.827-6.374-14.447c-1.819-7.115-1.15-12.844,1.989-17.019c4.625-6.154,12.842-6.48,13.189-6.491
		c0.91-0.031,1.682,0.688,1.709,1.607c0.029,0.912-0.688,1.68-1.601,1.706c-0.073,0.004-7.009,0.307-10.661,5.188
		c-2.492,3.331-2.967,8.104-1.412,14.184c1.574,6.149,3.929,10.09,6.007,13.562c2.589,4.332,4.827,8.07,4.827,14.334
		C182.474,755.701,181.729,755.972,180.815,755.972"/>
	<path fill="#9D9D9C" d="M183.302,707.872c-1.125-0.312-1.004-4.144,0.711-4.144c1.046,0,3.22,0.185,3.22,0.185
		s-1.236,3.311-0.939,4.731C186.294,708.646,184.102,708.099,183.302,707.872"/>
	<path fill="#929292" d="M188.791,714.55L188.791,714.55c-1.952-1.104-3.229-3.102-3.403-5.335l-0.01-0.141
		c-0.16-2.039,0.615-4.039,2.109-5.437l0.26-0.245c1.476-1.378,3.493-2.023,5.495-1.75l2.69,0.36L188.791,714.55z"/>
	<path fill="#DADADA" d="M229.317,716.92h-46.995c-0.365,0-0.66,0.295-0.66,0.659s0.295,0.657,0.66,0.657h46.995
		c0.363,0,0.659-0.291,0.659-0.657C229.975,717.217,229.68,716.92,229.317,716.92"/>
	<path fill="#D0D0D0" d="M228.698,716.92h-45.759c0-1.821,1.476-3.296,3.297-3.296H225.4
		C227.224,713.624,228.698,715.099,228.698,716.92"/>
	<path fill="#C6C6C6" d="M225.484,713.624h-39.329c0-1.748,1.415-3.159,3.159-3.159h33.011
		C224.069,710.465,225.484,711.876,225.484,713.624z"/>
	<path fill="#BCBCBC" d="M222.325,710.465h-33.011c0-1.744,1.415-3.158,3.159-3.158h26.695
		C220.91,707.305,222.325,708.721,222.325,710.465"/>
	<path fill="#B3B2B2" d="M219.56,707.305h-27.483v-0.021c0-1.731,1.406-3.14,3.141-3.14h21.201c1.736,0,3.141,1.407,3.141,3.14
		V707.305z"/>
	<path fill="#A8A8A7" d="M216.767,704.146H194.87v-0.06c0-1.713,1.389-3.101,3.1-3.101h15.699c1.712,0,3.099,1.388,3.099,3.101
		L216.767,704.146L216.767,704.146z"/>
	<path fill="#9D9D9C" d="M214.071,700.986h-16.505v-0.036c0-1.724,1.399-3.122,3.123-3.122h10.26c1.725,0,3.121,1.398,3.121,3.122
		L214.071,700.986L214.071,700.986z"/>
	<polygon fill="#FFFFFF" points="197.607,594.702 217.325,617.665 188.94,612.389 	"/>
	<path fill="#FFFFFF" d="M160.917,623.739c-18.732-4.954-29.901-24.157-24.946-42.891c4.957-18.732,24.159-29.901,42.893-24.945
		c18.734,4.956,29.901,24.161,24.944,42.892C198.852,617.528,179.649,628.695,160.917,623.739"/>
	<path fill="#008AB5" d="M189.991,580.808l-16.396-13.312c-1.668-1.354-4.058-1.354-5.726,0l-16.414,13.327
		c0.014,0.037,0.014,0.037,0.028,0.077h38.475C189.974,580.852,189.974,580.852,189.991,580.808"/>
	<path fill="#C5C4E0" d="M155,609.089h31.462c1.958,0,3.545-1.588,3.545-3.548v-21.097c0-1.962-1.587-3.55-3.545-3.55H155
		c-1.958,0-3.545,1.588-3.545,3.55v21.097C151.456,607.501,153.043,609.089,155,609.089"/>
	<path fill="#008AB5" d="M186.463,610.682h-31.462c-2.834,0-5.14-2.308-5.14-5.141v-21.097c0-2.835,2.306-5.144,5.14-5.144h31.462
		c2.833,0,5.141,2.309,5.141,5.144v21.097C191.604,608.377,189.297,610.682,186.463,610.682"/>
	<rect x="155.524" y="571.884" fill="#FFFFFF" width="30.398" height="31.589"/>
	
		<rect x="155.524" y="571.884" fill="none" stroke="#00AFA6" stroke-width="2" stroke-miterlimit="10" width="30.398" height="31.589"/>
	<path fill="#008AB5" d="M190.007,600.686v-14.929l-13.892,8.724l-1.201,0.754h-0.756l-6.758,0.002h-0.85l-1.147-0.723
		l-13.946-8.759v12.299C164.306,597.592,177.158,599.442,190.007,600.686"/>
	<path fill="#EFEFEF" d="M190.007,605.299v-18.064l-13.892,8.723l13.375,11.246C189.818,606.641,190.007,605.992,190.007,605.299"/>
	<path fill="#EFEFEF" d="M151.456,587.233v18.064c0,0.716,0.203,1.384,0.548,1.955l13.398-11.265L151.456,587.233z"/>
	<path fill="#EFEFEF" d="M167.401,596.71l-14.086,11.845c0.567,0.337,1.225,0.534,1.931,0.534h30.975
		c0.729,0,1.407-0.21,1.986-0.564l-14.047-11.812h-6.759V596.71z"/>
	<path fill="#008AB5" d="M152.004,607.254l-1.122,0.944l1.182,1.405l1.25-1.05C152.777,608.234,152.327,607.788,152.004,607.254"/>
	<path fill="#008AB5" d="M166.548,596.712l-1.147-0.723l-13.397,11.265c0.323,0.536,0.773,0.98,1.309,1.301l14.086-11.843H166.548z"
		/>
	<path fill="#008AB5" d="M190.676,608.198l-1.185-0.996c-0.315,0.54-0.756,0.99-1.286,1.319l1.289,1.081L190.676,608.198z"/>
	<path fill="#008AB5" d="M189.491,607.202l-13.374-11.246l-1.202,0.754h-0.756l14.046,11.812
		C188.735,608.192,189.176,607.74,189.491,607.202"/>
	<polygon fill="#FFFFFF" points="409.701,602.173 396.355,623.517 419.034,615.632 	"/>
	<path fill="#FFFFFF" d="M443.495,621.469c14.783-6.415,21.569-23.597,15.155-38.381c-6.414-14.785-23.599-21.568-38.381-15.155
		c-14.783,6.413-21.569,23.598-15.155,38.38C411.525,621.097,428.71,627.883,443.495,621.469"/>
	<path fill="#008AB5" d="M443.983,596.249H425.86c-0.991,0-1.8-0.811-1.8-1.803c0-0.986,0.809-1.799,1.8-1.799h18.123
		c0.991,0,1.801,0.811,1.801,1.799C445.784,595.438,444.975,596.249,443.983,596.249"/>
	<path fill="#008AB5" d="M439.9,609.274h-16.325c-0.75,0-1.404-0.503-1.595-1.229l-3.92-14.967h-4.664
		c-0.91,0-1.648-0.739-1.648-1.647c0-0.911,0.738-1.647,1.648-1.647h5.937c0.748,0,1.403,0.509,1.592,1.229l3.922,14.97h13.599
		l1.298-10.259c0.115-0.901,0.939-1.539,1.843-1.428c0.902,0.115,1.543,0.939,1.429,1.843l-1.48,11.695
		C441.432,608.659,440.73,609.274,439.9,609.274"/>
	<path fill="#6FCACB" d="M427.654,613.188c0,1.082-0.877,1.963-1.961,1.963c-1.083,0-1.96-0.881-1.96-1.963
		c0-1.08,0.877-1.957,1.96-1.957C426.777,611.23,427.654,612.107,427.654,613.188"/>
	<path fill="#6FCACB" d="M439.195,613.188c0,1.082-0.877,1.963-1.959,1.963s-1.96-0.881-1.96-1.963c0-1.08,0.877-1.957,1.96-1.957
		S439.195,612.107,439.195,613.188"/>
	<path fill="#6FCACB" d="M437.722,600.355H426.18c-0.454,0-0.825-0.367-0.825-0.823c0-0.454,0.371-0.825,0.825-0.825h11.542
		c0.454,0,0.824,0.371,0.824,0.825C438.545,599.988,438.176,600.355,437.722,600.355"/>
	<path fill="#6FCACB" d="M436.072,603.655h-8.244c-0.457,0-0.825-0.371-0.825-0.823c0-0.458,0.368-0.827,0.825-0.827h8.244
		c0.455,0,0.825,0.369,0.825,0.827C436.896,603.284,436.527,603.655,436.072,603.655"/>
	<polygon fill="#FFAF10" points="440.397,577.149 431.377,589.117 422.358,577.149 	"/>
	<polygon fill="#FFFFFF" points="479.055,545.757 466.489,557.74 486.158,555.967 	"/>
	<path fill="#FFFFFF" d="M504.737,560.367c11.217-4.887,16.348-17.939,11.46-29.158c-4.889-11.217-17.941-16.349-29.158-11.459
		c-11.217,4.889-16.348,17.941-11.461,29.156C480.465,560.123,493.519,565.255,504.737,560.367"/>
	<path fill="#6FCACB" d="M500.192,534.549c0,4.964-4.026,8.988-8.99,8.988c-4.965,0-8.988-4.024-8.988-8.988
		c0-4.965,4.023-8.991,8.988-8.991C496.166,525.558,500.192,529.584,500.192,534.549"/>
	<polygon fill="#6FCACB" points="499.331,536.919 504.182,534.41 499.331,531.707 	"/>
	<path fill="#FFFFFF" d="M492.327,534.549c0,0.527-0.413,0.973-1.038,0.973c-0.61,0-1.021-0.446-1.021-0.973
		c0-0.545,0.412-0.99,1.021-0.99C491.914,533.559,492.327,534.004,492.327,534.549"/>
	<path fill="#FFFFFF" d="M495.963,534.549c0,0.527-0.41,0.973-1.037,0.973c-0.609,0-1.021-0.446-1.021-0.973
		c0-0.545,0.411-0.99,1.021-0.99C495.554,533.559,495.963,534.004,495.963,534.549"/>
	<path fill="#FFFFFF" d="M488.697,534.549c0,0.527-0.43,0.973-1.057,0.973c-0.592,0-1.021-0.446-1.021-0.973
		c0-0.545,0.431-0.99,1.021-0.99C488.269,533.559,488.697,534.004,488.697,534.549"/>
	<polygon fill="#FFD400" points="494.364,550.074 489.516,546.408 494.364,543.579 	"/>
	<polygon fill="none" stroke="#FFD400" stroke-width="2" stroke-miterlimit="10" points="494.364,550.074 489.516,546.408 
		494.364,543.579 	"/>
	<path fill="#FFD400" d="M509.998,546.835c0,4.515-3.659,8.173-8.172,8.173c-4.515,0-8.171-3.658-8.171-8.173
		c0-4.512,3.657-8.172,8.171-8.172C506.339,538.665,509.998,542.323,509.998,546.835"/>
	<circle fill="none" stroke="#FFD400" stroke-width="2" stroke-miterlimit="10" cx="501.826" cy="546.835" r="8.172"/>
	<path fill="#FFFFFF" d="M501.659,545.684c0.607,0,1.021,0.521,1.021,1.153c0,0.616-0.414,1.138-1.021,1.138
		c-0.627,0-1.039-0.52-1.039-1.138C500.622,546.203,501.032,545.684,501.659,545.684"/>
	<path fill="#FFFFFF" d="M498.021,545.684c0.608,0,1.02,0.521,1.02,1.153c0,0.616-0.411,1.138-1.02,1.138
		c-0.628,0-1.038-0.52-1.038-1.138C496.983,546.203,497.395,545.684,498.021,545.684"/>
	<path fill="#FFFFFF" d="M505.306,545.684c0.595,0,1.021,0.521,1.021,1.153c0,0.616-0.428,1.138-1.021,1.138
		c-0.626,0-1.055-0.52-1.055-1.138C504.251,546.203,504.68,545.684,505.306,545.684"/>
	<polygon fill="#FFFFFF" points="421.046,720.025 402.218,713.613 419.144,707.508 	"/>
	<path fill="#FFFFFF" d="M450.937,695.341c10.61,6.526,13.925,20.415,7.402,31.026s-20.414,13.926-31.024,7.405
		c-10.611-6.523-13.926-20.414-7.403-31.027C426.435,692.136,440.324,688.821,450.937,695.341"/>
	<path fill="#FFAF10" d="M438.602,725.648c0,2.002-1.903,3.627-4.252,3.627c-2.347,0-4.25-1.625-4.25-3.627
		c0-2.001,1.902-3.626,4.25-3.626C436.698,722.021,438.602,723.646,438.602,725.648"/>
	<polygon fill="#FFAF10" points="438.1,727.293 437.723,713.031 447.314,713.031 445.552,717.537 438.602,717.537 	"/>
	<rect x="437.723" y="713.031" fill="#FFAF10" width="0.879" height="12.734"/>
	<path fill="#6FCACB" d="M453.332,716.823l-2.459-0.695c0.321-1.13,0.482-2.309,0.482-3.498c0-6.793-5.293-12.317-11.801-12.317
		c-6.506,0-11.802,5.524-11.802,12.317c0,1.113,0.144,2.215,0.422,3.278l-2.472,0.65c-0.337-1.274-0.508-2.599-0.508-3.93
		c0-8.204,6.438-14.875,14.356-14.875c7.917,0,14.356,6.671,14.356,14.875C453.912,714.056,453.716,715.467,453.332,716.823"/>
	<path fill="#6FCACB" d="M427.719,717.738c0,2.475-1.415,4.479-3.161,4.479c-1.747,0-3.162-2.004-3.162-4.479
		c0-2.47,1.416-4.476,3.162-4.476C426.305,713.266,427.719,715.27,427.719,717.738"/>
	<path fill="#6FCACB" d="M451.283,717.742c0-2.474,1.417-4.478,3.164-4.478c1.744,0,3.162,2.005,3.162,4.478
		c0,2.471-1.417,4.475-3.162,4.475C452.7,722.217,451.283,720.213,451.283,717.742"/>
	<path fill="#23A3B0" d="M425.73,724.51L425.73,724.51c-1.315,0-2.393-1.074-2.393-2.391v-8.755c0-1.314,1.077-2.39,2.393-2.39
		c1.312,0,2.387,1.074,2.387,2.39v8.755C428.117,723.436,427.044,724.51,425.73,724.51"/>
	<path fill="#23A3B0" d="M453.274,710.974L453.274,710.974c1.313,0,2.389,1.076,2.389,2.39v8.757c0,1.313-1.075,2.391-2.389,2.391
		c-1.315,0-2.39-1.076-2.39-2.391v-8.757C450.883,712.05,451.959,710.974,453.274,710.974"/>
	<path fill="#FFFFFF" d="M558.594,469.343c13.537-8.321,17.766-26.039,9.444-39.574c-8.32-13.535-26.039-17.764-39.575-9.443
		c-13.536,8.321-17.762,26.039-9.443,39.575C527.341,473.436,545.06,477.664,558.594,469.343"/>
	<path fill="#FFD400" d="M532.936,457.544c0-0.494,0.236-0.965,0.647-1.287c2.631-2.068,4.267-6.71,4.267-12.116
		c0-2.959,2.645-5.361,5.897-5.361c3.247,0,5.896,2.401,5.896,5.361c0,5.406,1.633,10.048,4.266,12.116
		c0.408,0.322,0.648,0.793,0.648,1.287H532.936z"/>
	<path fill="none" stroke="#FFD400" stroke-width="2" stroke-miterlimit="10" d="M532.936,457.544c0-0.494,0.236-0.965,0.647-1.287
		c2.631-2.068,4.267-6.71,4.267-12.116c0-2.959,2.645-5.361,5.897-5.361c3.247,0,5.896,2.401,5.896,5.361
		c0,5.406,1.633,10.048,4.266,12.116c0.408,0.322,0.648,0.793,0.648,1.287H532.936z"/>
	<path fill="#FFD400" d="M532.718,458.683h22.054c0.887,0,1.608-0.724,1.608-1.607c0-0.883-0.723-1.608-1.608-1.608h-22.054
		c-0.885,0-1.608,0.726-1.608,1.608C531.108,457.959,531.833,458.683,532.718,458.683"/>
	<path fill="#FFD400" d="M541.744,460.643c-1.104,1.105-1.104,2.896,0,4c1.104,1.104,2.897,1.104,4.001,0
		c1.107-1.104,1.107-2.895,0-4C544.643,459.537,542.85,459.537,541.744,460.643"/>
	
		<line fill="none" stroke="#FFD400" stroke-width="2" stroke-linecap="round" stroke-miterlimit="10" x1="556.382" y1="441.718" x2="564.299" y2="437.557"/>
	
		<line fill="none" stroke="#FFD400" stroke-width="2" stroke-linecap="round" stroke-miterlimit="10" x1="551.881" y1="436.205" x2="556.382" y2="429.002"/>
	
		<line fill="none" stroke="#FFD400" stroke-width="2" stroke-linecap="round" stroke-miterlimit="10" x1="530.677" y1="441.718" x2="522.761" y2="437.557"/>
	
		<line fill="none" stroke="#FFD400" stroke-width="2" stroke-linecap="round" stroke-miterlimit="10" x1="535.178" y1="436.205" x2="530.677" y2="429.002"/>
	
		<line fill="none" stroke="#FFD400" stroke-width="2" stroke-linecap="round" stroke-miterlimit="10" x1="543.723" y1="432.604" x2="543.723" y2="422.65"/>
	<polygon fill="#FFFFFF" points="312.048,580.943 307.26,601.76 298.373,583.427 	"/>
	<path fill="#FFFFFF" d="M288.461,579.729c-11.649-7.161-15.288-22.408-8.127-34.058c7.162-11.646,22.409-15.287,34.057-8.128
		c11.649,7.161,15.289,22.408,8.127,34.058C315.359,583.251,300.11,586.888,288.461,579.729"/>
	<polygon fill="#FFD400" points="301.966,539.157 305.327,545.964 312.841,547.055 307.404,552.356 308.688,559.84 301.966,556.308 
		295.246,559.84 296.53,552.356 291.093,547.055 298.605,545.964 	"/>
	<path fill="#6FCACB" d="M311.943,563.138c-0.046-0.796-0.764-1.402-1.594-1.354c-0.831,0.046-1.474,0.733-1.431,1.525l0.192,3.364
		l-0.485-0.05l-0.273-4.762c-0.046-0.793-0.764-1.402-1.596-1.354c-0.831,0.048-1.474,0.735-1.429,1.528l0.246,4.271l-0.486-0.05
		l-0.373-6.493c-0.045-0.794-0.764-1.4-1.595-1.354c-0.831,0.046-1.475,0.734-1.429,1.528l0.346,6.005l-0.485-0.052l-0.597-10.352
		c-0.044-0.793-0.764-1.402-1.594-1.354c-0.832,0.047-1.474,0.733-1.43,1.528l0.655,11.388c-0.018,0.758-0.125,1.873-0.234,3.174
		l-0.969-3.237c-0.203-0.676-0.952-1.069-1.661-0.871c-0.71,0.197-1.126,0.913-0.922,1.592c0,0,1.332,4.411,1.352,4.453
		c0.01,0.044,0.007,0.078,0.021,0.126c0,0,1.401,7.43,7.035,7.104l3.29-0.188c1.388-0.08,6.404-0.369,6.062-6.311L311.943,563.138z"
		/>
	<path fill="#85CAF9" d="M257.864,597.301l-8.775-3.916l7.096-16.55l-10.576,14.998l-7.635-3.404l20.398-15.066L257.864,597.301z
		 M246.537,599.88l-1.29-5.666l4.892,1.866L246.537,599.88z"/>
	<path fill="#85CAF9" d="M491.905,475.818l-8.775-3.915l7.097-16.554l-10.574,15l-7.635-3.404l20.396-15.07L491.905,475.818z
		 M480.58,478.395l-1.29-5.661l4.892,1.864L480.58,478.395z"/>
	<g>
		<g>
			<path fill="#85CAF9" d="M339.81,610.568l-0.637,0.655l1.381,1.343l0.637-0.655c0.604,0.403,1.294,0.685,2.038,0.808l0.013,0.915
				l1.928-0.029l-0.013-0.913c0.737-0.147,1.42-0.448,2.012-0.867l0.656,0.636l1.343-1.382l-0.657-0.637
				c0.403-0.604,0.683-1.297,0.809-2.037l0.916-0.016l-0.03-1.926l-0.913,0.015c-0.147-0.741-0.448-1.424-0.868-2.015l0.637-0.657
				l-1.383-1.342l-0.637,0.657c-0.603-0.404-1.295-0.686-2.038-0.81l-0.014-0.912l-1.926,0.029l0.014,0.912
				c-0.74,0.149-1.42,0.448-2.014,0.869l-0.655-0.637l-1.341,1.383l0.655,0.634c-0.401,0.607-0.682,1.296-0.807,2.037L338,606.645
				l0.03,1.928l0.915-0.016C339.089,609.296,339.389,609.977,339.81,610.568 M344.061,603.619c2.151-0.033,3.922,1.686,3.953,3.84
				c0.031,2.153-1.688,3.922-3.841,3.956c-2.153,0.033-3.922-1.686-3.955-3.843C340.188,605.42,341.907,603.65,344.061,603.619"/>
			<path fill="#85CAF9" d="M354.942,599.188l0.573-0.253l-0.628-1.415l-0.57,0.256c-0.253-0.347-0.561-0.638-0.917-0.873
				l0.224-0.582l-1.444-0.556l-0.222,0.582c-0.42-0.062-0.85-0.053-1.265,0.033l-0.254-0.571l-1.413,0.629l0.254,0.57
				c-0.345,0.252-0.637,0.561-0.872,0.918l-0.582-0.225l-0.556,1.439l0.582,0.226c-0.064,0.425-0.054,0.848,0.033,1.265l-0.57,0.253
				l0.625,1.416l0.571-0.254c0.254,0.347,0.562,0.638,0.918,0.873l-0.226,0.58l1.444,0.555l0.225-0.58
				c0.418,0.062,0.848,0.054,1.262-0.03l0.255,0.571l1.414-0.629l-0.253-0.57c0.343-0.253,0.637-0.561,0.871-0.917l0.583,0.222
				l0.555-1.44l-0.583-0.224C355.039,600.03,355.028,599.605,354.942,599.188 M352.393,602.116c-0.3,0.134-0.617,0.205-0.943,0.211
				c-0.971,0.011-1.85-0.55-2.245-1.437c-0.54-1.219,0.01-2.646,1.229-3.188c0.298-0.136,0.617-0.205,0.942-0.211
				c0.971-0.011,1.851,0.551,2.245,1.437C354.159,600.146,353.61,601.576,352.393,602.116"/>
		</g>
	</g>
	<g>
		<g>
			<path fill="#85CAF9" d="M484.035,578.747c2.258-2.259,5.708-2.582,8.317-0.984c-0.884,0.873-1.903,1.897-1.903,1.897
				c-0.712,0.855,0.089,1.351,0.495,1.334h4.771c0.251,0,0.457,0,0.457,0h0.46h0.924c0.252,0,0.456-0.203,0.457-0.457v-6.559
				c0.03-0.601-0.629-1.183-1.308-0.511c0,0-1.127,1.095-1.904,1.867c-3.975-2.904-9.574-2.575-13.162,1.016
				c-2.096,2.095-3.072,4.872-2.955,7.615h3.393C481.956,582.093,482.6,580.18,484.035,578.747"/>
			<path fill="#85CAF9" d="M495.316,582.826c0.121,1.878-0.521,3.789-1.957,5.224c-2.259,2.259-5.713,2.579-8.321,0.986
				c0.886-0.875,1.905-1.897,1.905-1.897c0.714-0.857-0.086-1.353-0.494-1.338l-4.768,0.002c-0.252,0-0.459-0.002-0.459-0.002
				h-0.462h-0.923c-0.251,0-0.458,0.205-0.458,0.459v6.559c-0.026,0.597,0.632,1.179,1.312,0.509c0,0,1.123-1.095,1.902-1.863
				c3.977,2.902,9.575,2.575,13.165-1.016c2.092-2.095,3.07-4.872,2.955-7.617h-3.395v-0.004L495.316,582.826L495.316,582.826z"/>
		</g>
	</g>
	<g>
		<g>
			<path fill="#85CAF9" d="M203.132,648.611c-2.816,0-5.096,2.281-5.096,5.097s5.096,9.369,5.096,9.369s5.097-6.554,5.097-9.369
				C208.229,650.894,205.946,648.611,203.132,648.611z M203.132,654.532c-0.875,0-1.584-0.71-1.584-1.583
				c0-0.875,0.708-1.585,1.584-1.585c0.875,0,1.586,0.71,1.586,1.585C204.717,653.822,204.006,654.532,203.132,654.532z"/>
		</g>
	</g>
	<path fill="#85CAF9" d="M470.131,678.994l0.407-0.445c0.628-0.688,0.58-1.755-0.106-2.385l-5.584-5.104
		c-0.126-0.119-0.271-0.212-0.417-0.28c0.711-1.562,0.832-3.413,0.193-5.179c-1.271-3.512-5.086-5.361-8.499-4.125
		c-3.413,1.239-5.157,5.102-3.884,8.612s5.083,5.364,8.499,4.127c0.406-0.146,0.79-0.335,1.146-0.551
		c0.076,0.119,0.168,0.229,0.277,0.331l5.586,5.103C468.436,679.729,469.501,679.682,470.131,678.994z M454.222,669.371
		c-0.879-2.42,0.295-5.064,2.617-5.908c2.324-0.842,4.919,0.439,5.796,2.862c0.877,2.422-0.292,5.068-2.617,5.908
		C457.694,673.077,455.099,671.796,454.222,669.371z"/>
	<path fill="#85CAF9" d="M608.989,415.514l0.405-0.443c0.63-0.689,0.58-1.756-0.105-2.388l-5.584-5.102
		c-0.126-0.118-0.271-0.211-0.418-0.281c0.709-1.562,0.832-3.413,0.193-5.177c-1.273-3.512-5.087-5.362-8.497-4.125
		c-3.415,1.238-5.157,5.099-3.886,8.61s5.084,5.365,8.498,4.129c0.406-0.149,0.789-0.336,1.146-0.553
		c0.08,0.12,0.17,0.23,0.28,0.333l5.584,5.103C607.291,416.248,608.36,416.2,608.989,415.514z M593.081,405.89
		c-0.878-2.421,0.296-5.063,2.618-5.908c2.324-0.842,4.919,0.439,5.796,2.863c0.877,2.419-0.295,5.066-2.619,5.907
		C596.552,409.597,593.957,408.314,593.081,405.89z"/>
</g>
</svg>
