<?xml version="1.0" encoding="utf-8"?>
<!-- Generator: Adobe Illustrator 15.0.0, SVG Export Plug-In . SVG Version: 6.00 Build 0)  -->
<!DOCTYPE svg PUBLIC "-//W3C//DTD SVG 1.1//EN" "http://www.w3.org/Graphics/SVG/1.1/DTD/svg11.dtd">
<svg version="1.1" id="Layer_1" xmlns="http://www.w3.org/2000/svg" xmlns:xlink="http://www.w3.org/1999/xlink" x="0px" y="0px"
	 width="1024px" height="1366px" viewBox="0 0 1024 1366" enable-background="new 0 0 1024 1366" xml:space="preserve">
<g id="Layer_1_1_">
	<rect x="-27.242" fill="#CCEDFF" width="1093.125" height="1357.823"/>
	<g>
		<rect x="-27.242" y="1151.266" fill="#80939E" width="1093.125" height="222.447"/>
	</g>
</g>
<g id="Layer_2">
	<path fill="#FFFFFF" d="M303.588,118.199c-2.572,0-5.098,0.169-7.572,0.472c0-0.16,0.015-0.316,0.015-0.472
		c0-28.016-25.175-50.733-56.227-50.733c-8.779,0-17.092,1.821-24.491,5.059c-10.138-20.986-33.316-35.66-60.312-35.66
		c-34.352,0-62.539,23.766-65.493,54.067c-2.654-0.304-5.355-0.479-8.103-0.479c-35.152,0-63.646,25.708-63.646,57.416v20.483h4.187
		h118.913h90.506h16.626h111.19C359.183,140.649,334.292,118.199,303.588,118.199"/>
	<path fill="#FFFFFF" d="M721.199,376.728c2.387,0,4.736,0.176,7.039,0.49c0-0.166-0.012-0.327-0.012-0.49
		c0-28.928,23.414-52.379,52.307-52.379c8.169,0,15.897,1.876,22.789,5.221c9.425-21.668,30.997-36.825,56.104-36.825
		c31.959,0,58.176,24.54,60.921,55.832c2.475-0.312,4.984-0.494,7.541-0.494c32.696,0,59.207,26.543,59.207,59.286v21.151h-3.893
		H872.576h-84.189H772.92H669.483C669.48,399.916,692.636,376.728,721.199,376.728"/>
	<path fill="#B0D9EA" d="M1065.883,923.053h-22.977v-74.026H984.3v40.1h-75.572v-70.947h-15.426v-15.421h-41.643v13.879H839.32
		v66.32h-19.738V829.46c0.056-6.008,0.062-12.327,0-18.866v-3.791h-0.04c-0.94-69.668-9.943-161.304-51.169-156.736
		c-33.206,3.68-40.075,90.842-40.488,156.736h-0.088v73.069h-24.195V799.67h-97.165v78.66h-58.61v37.016h-18.508V754.942h-16.966
		v-43.186h-6.173v43.186h-20.047v161.942H432.15v-38.557h-41.643V859.82h-55.523v20.051h-58.608v100.248h-33.932v152.688H100.554
		v16.969l965.329,1.837V923.053L1065.883,923.053z"/>
	<polygon fill="#83C5DB" points="1040.859,1074.596 1040.859,1030.645 1013.096,1030.645 1013.096,1049.149 965.672,1049.149 
		965.672,1007.505 918.245,1007.505 918.245,939.26 902.052,939.26 902.052,927.693 860.408,927.693 860.408,939.26 841.9,939.26 
		841.9,1007.505 795.633,1007.505 795.633,975.118 699.623,975.118 699.623,936.945 559.659,936.945 559.659,1029.485 
		432.418,1029.485 432.418,999.409 400.029,999.409 400.029,950.826 360.701,950.826 360.701,931.161 341.037,931.161 
		341.037,950.826 301.708,950.826 301.708,1047.992 204.543,1047.992 204.543,1024.855 140.923,1024.855 140.923,985.528 
		107.377,985.528 107.377,947.356 94.653,947.356 94.653,933.474 -4.825,933.474 -4.825,947.356 -17.547,947.356 -17.547,1044.52 
		-27.242,1044.52 -27.242,1154.41 1065.883,1154.41 1065.883,1074.596 	"/>
	<polygon fill="#83C5DB" points="1065.883,934.444 1062.111,934.444 1062.111,948.324 1049.391,948.324 1049.391,1045.49 
		1020.473,1045.49 1020.473,974.931 990.395,974.931 990.395,1045.49 932.561,1045.49 932.561,1010.788 917.521,1010.788 
		917.521,992.283 819.2,992.283 819.2,1010.788 804.162,1010.788 804.162,1045.49 774.087,1045.49 774.087,948.324 731.289,948.324 
		731.289,1045.49 681.548,1045.49 681.548,1138.03 584.384,1138.03 584.384,1155.381 1065.883,1155.381 	"/>
	<rect x="188.167" y="-6.037" opacity="0.91" fill="#7D9BAF" enable-background="new    " width="15.176" height="1162.574"/>
	<rect x="785.086" y="-6.037" opacity="0.91" fill="#7D9BAF" enable-background="new    " width="15.176" height="1162.574"/>
	<rect x="-27.242" y="705.817" opacity="0.91" fill="#7D9BAF" enable-background="new    " width="1093.125" height="15.177"/>
</g>
<g id="Layer_3">
	<polygon fill="#75868E" points="557.646,1225.13 407.2,1225.13 404.94,1225.13 254.495,1225.13 182.296,1280.109 404.94,1280.109 
		407.2,1280.109 629.841,1280.109 	"/>
	<rect x="223.277" y="1084.104" fill="#AF9D7D" width="371.28" height="14.678"/>
	<path fill="#AD9566" d="M250.59,1262.509h-10.231c-0.627,0-1.136-0.514-1.136-1.136v-162.487h12.502v162.487
		C251.725,1261.999,251.217,1262.509,250.59,1262.509"/>
	<path fill="#AD9566" d="M577.476,1262.509h-10.23c-0.626,0-1.135-0.514-1.135-1.136v-162.487h12.504v162.487
		C578.613,1261.999,578.104,1262.509,577.476,1262.509"/>
	<rect x="239.223" y="1098.886" fill="#9B855F" width="12.502" height="10.405"/>
	<rect x="566.108" y="1098.886" fill="#9B855F" width="12.504" height="10.405"/>
	<path fill="#96805A" d="M272.722,1239.365h-8.471c-0.628,0-1.134-0.507-1.134-1.137v-139.447h10.742v139.447
		C273.858,1238.858,273.35,1239.365,272.722,1239.365"/>
	<path fill="#96805A" d="M553.582,1239.365h-8.471c-0.628,0-1.138-0.507-1.138-1.137v-139.447h10.742v139.447
		C554.716,1238.858,554.209,1239.365,553.582,1239.365"/>
	<path fill="#F6F6F6" d="M310.761,1084.104c0-1.426,1.161-2.586,2.583-2.586H437.49c1.427,0,2.584,1.159,2.584,2.586H310.761z"/>
	<path fill="#878787" d="M322.693,1081.518v-0.813c0-0.469-0.382-0.851-0.853-0.851h-4.77c-0.472,0-0.854,0.382-0.854,0.851v0.813
		H322.693z"/>
	<path fill="#878787" d="M330.864,1081.518v-0.813c0-0.469-0.383-0.851-0.855-0.851h-4.768c-0.474,0-0.854,0.382-0.854,0.851v0.813
		H330.864z"/>
	<path fill="#878787" d="M339.033,1081.518v-0.813c0-0.469-0.382-0.851-0.854-0.851h-4.77c-0.472,0-0.853,0.382-0.853,0.851v0.813
		H339.033z"/>
	<path fill="#878787" d="M347.2,1081.518v-0.813c0-0.469-0.382-0.851-0.853-0.851h-4.77c-0.472,0-0.855,0.382-0.855,0.851v0.813
		H347.2z"/>
	<path fill="#878787" d="M392.255,1081.518v-0.813c0-0.469-0.382-0.851-0.855-0.851h-41.653c-0.473,0-0.854,0.382-0.854,0.851v0.813
		H392.255z"/>
	<path fill="#878787" d="M400.422,1081.518v-0.813c0-0.469-0.383-0.851-0.853-0.851h-4.767c-0.473,0-0.855,0.382-0.855,0.851v0.813
		H400.422z"/>
	<path fill="#878787" d="M408.589,1081.518v-0.813c0-0.469-0.382-0.851-0.854-0.851h-4.769c-0.473,0-0.854,0.382-0.854,0.851v0.813
		H408.589z"/>
	<path fill="#878787" d="M416.471,1081.518v-0.813c0-0.469-0.382-0.851-0.852-0.851h-4.77c-0.47,0-0.854,0.382-0.854,0.851v0.813
		H416.471z"/>
	<path fill="#878787" d="M433.132,1081.518v-0.813c0-0.469-0.381-0.851-0.854-0.851h-4.767c-0.472,0-0.855,0.382-0.855,0.851v0.813
		H433.132z"/>
	<path fill="#878787" d="M424.642,1081.518v-0.813c0-0.469-0.384-0.851-0.855-0.851h-4.769c-0.471,0-0.852,0.382-0.852,0.851v0.813
		H424.642z"/>
	<rect x="382.639" y="1054.595" fill="#B3B2B2" width="39.923" height="27.771"/>
	<rect x="382.639" y="1054.595" fill="#878787" width="39.923" height="6.941"/>
	<path fill="#9D9D9C" d="M430.165,1084.104c-0.09-0.972-0.881-1.736-1.872-1.736h-51.382c-0.992,0-1.782,0.766-1.874,1.736H430.165z
		"/>
	<path fill="#1C1C1C" d="M490.205,1054.595H317.081c-4.474,0-8.1-3.629-8.1-8.101V937.247c0-4.473,3.625-8.1,8.1-8.1h173.124
		c4.472,0,8.099,3.627,8.099,8.1v109.247C498.304,1050.966,494.677,1054.595,490.205,1054.595"/>
	<path fill="#EDEDED" d="M308.981,1034.458v12.036c0,4.475,3.625,8.101,8.1,8.101h173.124c4.472,0,8.099-3.626,8.099-8.101v-12.036
		H308.981z"/>
	<path fill="#384F5E" d="M488.527,1029.771H318.759c-2.011,0-3.645-1.632-3.645-3.646v-85.576c0-2.013,1.634-3.646,3.645-3.646
		h169.769c2.013,0,3.644,1.634,3.644,3.646v85.576C492.171,1028.143,490.54,1029.771,488.527,1029.771"/>
	<path fill="#DADADA" d="M407.983,1044.528c0-2.4-1.944-4.344-4.34-4.344s-4.337,1.942-4.337,4.344c0,2.394,1.942,4.339,4.337,4.339
		S407.983,1046.922,407.983,1044.528"/>
	<polygon fill="#E89970" points="366.658,1020.012 369.647,1019.586 368.521,1022.386 	"/>
	<rect x="423.961" y="1022.357" fill="#DADADA" width="2.357" height="0.529"/>
	<rect x="423.961" y="1019.398" fill="#DADADA" width="2.357" height="0.532"/>
	<rect x="423.961" y="1016.443" fill="#DADADA" width="2.357" height="0.529"/>
	<path fill="#75868E" d="M515.862,1257.512c0-10.406-50.927-18.844-113.75-18.844c-62.822,0-113.75,8.438-113.75,18.844
		c0,10.409,50.928,18.846,113.75,18.846C464.937,1276.357,515.862,1267.921,515.862,1257.512"/>
	<path fill="#1F4056" d="M363.05,1129.946c0,0-17.939,3.804-20.294,9.241c-2.355,5.437-1.994,19.57,0.726,27.18
		c2.718,7.612,22.286,55.088,22.649,59.435c0,0,5.436,1.089,6.703,1.271c0,0-17.937,7.973-18.662,15.036
		c-0.726,7.065,35.696,5.074,40.408-3.441c0,0-2.9-8.88-5.073-11.598c0,0,1.63-2.535,1.268-3.623
		c-0.363-1.088-9.965-30.623-11.233-36.964c-1.269-6.341-6.705-19.393-3.443-22.108c3.262-2.718,25.73-3.26,25.73-3.26h0.803
		c0,0,22.471,0.544,25.733,3.26c3.26,2.72-2.175,15.768-3.444,22.108c-1.269,6.343-10.871,35.876-11.233,36.964
		c-0.363,1.088,1.267,3.623,1.267,3.623c-2.171,2.718-5.07,11.598-5.07,11.598c4.709,8.518,41.133,10.508,40.407,3.441
		c-0.726-7.067-18.664-15.036-18.664-15.036c1.27-0.183,6.704-1.271,6.704-1.271c0.363-4.347,19.932-51.82,22.649-59.435
		c2.719-7.608,3.081-21.74,0.724-27.18c-2.354-5.438-20.292-9.241-20.292-9.241s-8.381,7.539-37.735,7.539
		C374.321,1137.485,363.052,1129.946,363.05,1129.946"/>
	<path fill="#152E42" d="M461.702,1139.188c-2.354-5.438-20.292-9.24-20.292-9.24s-8.38,7.539-37.736,7.539
		c-29.353,0-40.624-7.539-40.624-7.539s-17.939,3.804-20.295,9.24c-2.354,5.438-1.993,19.572,0.725,27.181
		c1.381,3.866,7.105,18.011,12.454,31.564c7.631-3.74,16.913-5.334,24.871-6.528c-0.602-2.127-1.052-3.854-1.265-4.918
		c-1.268-6.342-6.705-19.392-3.443-22.109c3.262-2.717,25.73-3.259,25.73-3.259h0.805c0,0,22.47,0.545,25.732,3.259
		c3.26,2.721-2.176,15.77-3.445,22.109c-0.27,1.354-0.924,3.771-1.783,6.741c0.416,0.109,0.843,0.194,1.258,0.312
		c3.241,0.914,13.844,4.146,22.658,8.14c5.725-14.593,12.419-31.088,13.926-35.311
		C463.698,1158.76,464.06,1144.625,461.702,1139.188"/>
	<path fill="#575756" d="M372.834,1227.07c0,0-17.937,7.972-18.662,15.037c-0.726,7.065,35.696,5.073,40.408-3.44
		c0,0-2.9-8.88-5.075-11.599C389.505,1227.07,387.547,1229.335,372.834,1227.07"/>
	<path fill="#575756" d="M431.625,1227.07c-13.636,1.994-16.671,0-16.671,0c-2.173,2.718-5.073,11.598-5.073,11.598
		c4.711,8.517,41.133,10.508,40.408,3.441C449.563,1235.042,431.625,1227.07,431.625,1227.07"/>
	<path fill="#E8CAAA" d="M413.596,1012.21L413.596,1012.21c-0.409-2.037-0.364-9.466-0.364-9.466
		c6.522-4.803,8.788-16.127,8.788-16.127s3.081-3.986,3.26-6.522c0.184-2.54-1.631-3.442-1.631-3.442
		c0.491-14.953-4.616-23.872-10.79-26.673c-2.655-1.204-7.717-1.778-10.632-1.778c-2.913,0-7.978,0.571-10.631,1.778
		c-6.172,2.801-11.279,11.72-10.79,26.673c0,0-1.811,0.902-1.632,3.442c0.183,2.536,3.262,6.522,3.262,6.522
		s2.265,11.324,8.788,16.127c0,0,0.045,7.429-0.363,9.466C399.554,1014.204,405.757,1014.111,413.596,1012.21"/>
	<path fill="#E8CAAA" d="M423.652,976.652c0.492-14.952-4.615-23.87-10.789-26.674c-2.656-1.204-7.717-1.778-10.632-1.778
		c-2.914,0-7.978,0.574-10.632,1.778c-6.172,2.804-11.278,11.722-10.789,26.674c0,0-1.811,0.905-1.633,3.441
		c0.182,2.536,3.263,6.523,3.263,6.523s2.265,11.323,8.788,16.126c0,0,0.017,2.83-0.066,5.476c2.637,1.232,5.987,2.112,11.584,2.112
		c4.643,0,8.957-1.278,10.531-2.855c-0.058-2.406-0.044-4.731-0.044-4.731c6.522-4.803,8.79-16.126,8.79-16.126
		s3.082-3.987,3.26-6.523C425.464,977.555,423.652,976.652,423.652,976.652"/>
	<path fill="#231C11" d="M427.59,975.649c0.557-15.344-5.228-24.497-12.222-27.37c-3.005-1.236-8.738-1.822-12.041-1.822
		c-3.301,0-9.036,0.586-12.044,1.822c-6.991,2.874-12.773,12.026-12.219,27.37c0,0-0.043,3.007,0.113,4.444
		c0.153,1.443,1.733,5.784,1.733,5.784s2.565,11.618,9.956,16.551c0,0,5.17,3.902,11.942,3.902c6.773,0,12.979-3.902,12.979-3.902
		c7.388-4.929,9.956-16.551,9.956-16.551s1.231-4.646,1.384-5.856C427.283,978.812,427.59,975.649,427.59,975.649"/>
	<path fill="#F4BD31" d="M478.692,1074.319c-1.36-5.029-29.764-41.042-35.743-48.926c-5.979-7.878-23.783-9.512-23.783-9.512
		c0-1.769-5.571-3.668-5.571-3.668c-7.838,1.899-14.043,1.991-22.73,0c0,0-1.763,0.601-3.306,1.443
		c-1.198,0.65-2.266,1.45-2.266,2.222c0,0-17.801,1.637-23.783,9.511c-5.979,7.886-34.381,43.899-35.741,48.929
		c-1.358,5.027,1.659,9.805,6.251,10.326c5.98,0.681,17.261,1.812,21.881-1.087c0.629-0.396,2.143-1.838,3.975-3.711
		c1.098-1.12,2.31-2.396,3.514-3.688c3.207-3.45,6.351-7.026,7.099-8.186c0,0.006-0.281,3.492-0.697,8.341
		c-0.069,0.812-0.144,1.653-0.218,2.53c-0.075,0.874-0.155,1.777-0.238,2.696c-0.532,5.98-1.171,12.721-1.733,17.52
		c-0.13,1.107-0.256,2.111-0.375,2.979c-0.315,2.307-0.983,4.821-1.714,7.39c-0.73,2.571-1.524,5.189-2.09,7.714
		c-1.13,5.054-1.357,9.723,1.632,12.798c0,0,11.271,7.539,40.623,7.539c29.354,0,37.736-7.539,37.736-7.539
		c3.362-3.461,2.656-8.937,1.167-14.706c-0.496-1.923-1.08-3.879-1.625-5.806c-0.73-2.568-1.399-5.083-1.716-7.39
		c-0.119-0.867-0.245-1.871-0.373-2.979c-0.131-1.105-0.265-2.316-0.399-3.599c-0.091-0.854-0.182-1.739-0.271-2.647
		c-0.092-0.908-0.185-1.835-0.275-2.774c-0.182-1.878-0.361-3.807-0.534-5.696c-0.088-0.949-0.173-1.886-0.254-2.805
		c-0.164-1.841-0.318-3.609-0.458-5.228c-0.418-4.848-0.698-8.338-0.698-8.34c1.025,1.59,6.584,7.76,10.612,11.875
		c1.83,1.871,3.346,3.313,3.975,3.709c4.619,2.899,15.9,1.766,21.879,1.088c1.722-0.195,3.225-0.993,4.355-2.172
		c1.13-1.183,1.893-2.75,2.137-4.494C479.097,1076.814,479.031,1075.575,478.692,1074.319"/>
	<path fill="#7F7A6F" d="M419.167,1015.883c0-1.771-5.571-3.673-5.571-3.673c-7.838,1.901-14.042,1.994-22.73,0
		c0,0-5.572,1.901-5.572,3.673c0,0,4.79,1.9,17.021,1.9S419.167,1015.883,419.167,1015.883"/>
	<path fill="#2D2D2D" d="M405.677,1135.744c37.328-0.723,29.718-36.238,27.905-47.835c-1.812-11.599,14.135-28.993,3.626-47.838
		c-10.511-18.842-34.428-19.569-34.428-19.569h-1.1c0,0-23.918,0.729-34.428,19.569c-10.512,18.845,5.436,36.239,3.623,47.838
		c-1.812,11.597-9.422,47.112,27.905,47.835H405.677z"/>
	<path fill="#2D2D2D" d="M456.139,1162.924H348.323c-5.178,0-9.376-4.193-9.376-9.374v-6.931c0-2.404,1.947-4.352,4.349-4.352
		h117.871c2.401,0,4.349,1.946,4.349,4.352v6.931C465.514,1158.729,461.315,1162.924,456.139,1162.924"/>
	<path fill="#2D2D2D" d="M465.514,1150.695v-4.076c0-2.404-1.947-4.352-4.349-4.352h-117.87c-2.401,0-4.349,1.946-4.349,4.352v4.076
		H465.514z"/>
	<rect x="344.944" y="1094.535" fill="#3D3D3D" width="13.592" height="47.732"/>
	<path fill="#2B2823" d="M358.204,1094.535h-12.927c-2.985,0-5.404-2.418-5.404-5.406v-1.727c0-1.047,0.848-1.894,1.895-1.894
		h19.948c1.047,0,1.895,0.848,1.895,1.894v1.727C363.61,1092.117,361.189,1094.535,358.204,1094.535"/>
	<rect x="445.924" y="1094.535" fill="#3D3D3D" width="13.588" height="47.732"/>
	<rect x="344.944" y="1094.535" fill="#66625B" width="13.592" height="7.145"/>
	<rect x="445.924" y="1094.535" fill="#66625B" width="13.588" height="7.145"/>
	<path fill="#2B2823" d="M459.185,1094.535h-12.927c-2.985,0-5.404-2.418-5.404-5.406v-1.727c0-1.047,0.848-1.894,1.893-1.894
		h19.948c1.046,0,1.895,0.848,1.895,1.894v1.727C464.589,1092.117,462.168,1094.535,459.185,1094.535"/>
	<path fill="#1D1D1B" d="M438.379,1252.621c0-3.307,2.678-5.98,5.977-5.98c3.306,0,5.981,2.676,5.981,5.98
		c0,3.302-2.675,5.976-5.981,5.976C441.057,1258.597,438.379,1255.923,438.379,1252.621"/>
	<path fill="#1D1D1B" d="M366.082,1252.621c0-3.307-2.678-5.98-5.979-5.98c-3.304,0-5.98,2.676-5.98,5.98
		c0,3.302,2.679,5.976,5.98,5.976C363.403,1258.597,366.082,1255.923,366.082,1252.621"/>
	<path fill="#2D2D2D" d="M402.684,1235.768c20.386,1.634,38.869,15.222,38.869,15.222h4.892c4.354,0,7.881-3.529,7.881-7.884
		c-20.387-17.666-51.1-20.386-51.1-20.386h-1.992c0,0-30.712,2.72-51.097,20.386c0,4.354,3.529,7.884,7.88,7.884h4.895
		c0,0,18.481-13.589,38.868-15.222H402.684z"/>
	<path fill="#1D1D1B" d="M408.21,1261.861c0-3.306-2.678-5.979-5.979-5.979c-3.305,0-5.981,2.675-5.981,5.979
		c0,3.303,2.676,5.979,5.981,5.979C405.532,1267.84,408.21,1265.164,408.21,1261.861"/>
	<path fill="#2D2D2D" d="M403.409,1262.495h-2.356c-2.804,0-5.074-2.271-5.074-5.072v-21.591c0-1.987,1.611-3.599,3.6-3.599h5.304
		c1.988,0,3.6,1.61,3.6,3.599v21.591C408.481,1260.224,406.21,1262.495,403.409,1262.495"/>
	<path fill="#3D3D3D" d="M402.229,1228.973L402.229,1228.973c-3.453,0-6.252-2.799-6.252-6.25v-60.974
		c0-3.453,2.799-6.253,6.252-6.253s6.252,2.8,6.252,6.253v60.974C408.481,1226.174,405.682,1228.973,402.229,1228.973"/>
	<path fill="#66625B" d="M408.481,1173.797v-12.048c0-3.453-2.799-6.253-6.252-6.253s-6.252,2.8-6.252,6.253v12.048H408.481z"/>
	<path fill="#3D3D3D" d="M405.137,1146.619h-6.042c-1.775,0-3.21-1.44-3.21-3.21v-41.318c0-1.771,1.435-3.205,3.21-3.205h6.042
		c1.772,0,3.208,1.435,3.208,3.205v41.318C408.345,1145.179,406.909,1146.619,405.137,1146.619"/>
	<path fill="#DADADA" d="M268.682,1071.812h-11.137c0-1.097,0.889-1.986,1.987-1.986h7.161
		C267.79,1069.826,268.682,1070.717,268.682,1071.812"/>
	<path fill="#C6C6C6" d="M276.972,1076.74h-27.719c0-2.725,2.206-4.928,4.923-4.928h17.87
		C274.768,1071.812,276.972,1074.02,276.972,1076.74"/>
	<path fill="#B3B2B2" d="M283.659,1081.664h-41.092c0-2.723,2.205-4.924,4.925-4.924h31.242
		C281.453,1076.74,283.659,1078.942,283.659,1081.664"/>
	<rect x="242.566" y="1081.664" fill="#9D9D9C" width="41.092" height="1.397"/>
	<path fill="#3C3C3B" d="M284.042,1084.104h-41.859c-0.288,0-0.519-0.23-0.519-0.52c0-0.287,0.232-0.523,0.519-0.523h41.859
		c0.289,0,0.521,0.236,0.521,0.523C284.562,1083.872,284.33,1084.104,284.042,1084.104"/>
	<path fill="#DADADA" d="M263.532,1075.584h-0.839c-0.541,0-0.982-0.211-0.982-0.466v2.173c0,0.255,0.439,0.466,0.982,0.466h0.839
		c0.542,0,0.982-0.208,0.982-0.466v-2.173C264.513,1075.373,264.074,1075.584,263.532,1075.584"/>
	<path fill="#F6F6F6" d="M262.693,1075.584h0.839c0.542,0,0.982-0.211,0.982-0.466s-0.439-0.465-0.982-0.465h-0.839
		c-0.541,0-0.982,0.208-0.982,0.465C261.711,1075.373,262.151,1075.584,262.693,1075.584"/>
	<path fill="#DADADA" d="M263.293,1074.232h-0.359c-0.23,0-0.42-0.088-0.42-0.197v0.929c0,0.11,0.189,0.198,0.42,0.198h0.359
		c0.23,0,0.419-0.088,0.419-0.198v-0.929C263.711,1074.145,263.522,1074.232,263.293,1074.232"/>
	<path fill="#F6F6F6" d="M262.933,1074.232h0.359c0.23,0,0.419-0.088,0.419-0.197s-0.188-0.195-0.419-0.195h-0.359
		c-0.23,0-0.419,0.088-0.419,0.195C262.514,1074.145,262.703,1074.232,262.933,1074.232"/>
	<path fill="#B3B2B2" d="M262.989,1071.043c-1.048,0-1.898-0.311-1.898-1.355c0-6.115-2.199-9.795-4.982-14.447
		c-2.512-4.197-5.358-8.954-7.292-16.528c-2.082-8.143-1.316-14.696,2.276-19.472c5.292-7.042,14.694-7.416,15.09-7.428
		c1.042-0.033,1.925,0.789,1.956,1.84c0.033,1.044-0.787,1.923-1.831,1.952c-0.083,0.006-8.02,0.352-12.198,5.937
		c-2.852,3.812-3.395,9.272-1.616,16.229c1.801,7.036,4.497,11.545,6.873,15.519c2.962,4.956,5.523,9.234,5.523,16.399
		C264.887,1070.733,264.036,1071.043,262.989,1071.043"/>
	<path fill="#9D9D9C" d="M265.835,1016.011c-1.287-0.359-1.148-4.743,0.813-4.743c1.198,0,3.685,0.214,3.685,0.214
		s-1.415,3.784-1.075,5.413C269.259,1016.894,266.75,1016.27,265.835,1016.011"/>
	<path fill="#929292" d="M272.116,1023.65L272.116,1023.65c-2.233-1.266-3.695-3.549-3.895-6.107l-0.012-0.157
		c-0.184-2.334,0.704-4.622,2.413-6.222l0.297-0.277c1.689-1.578,3.998-2.317,6.288-2.005l3.077,0.414L272.116,1023.65z"/>
	<path fill="#DADADA" d="M318.484,1026.36h-53.77c-0.417,0-0.755,0.338-0.755,0.755c0,0.419,0.337,0.754,0.755,0.754h53.77
		c0.415,0,0.754-0.334,0.754-0.754C319.236,1026.703,318.899,1026.36,318.484,1026.36"/>
	<path fill="#D0D0D0" d="M317.775,1026.36H265.42c0-2.083,1.689-3.771,3.772-3.771h44.81
		C316.089,1022.59,317.775,1024.277,317.775,1026.36"/>
	<path fill="#C6C6C6" d="M314.098,1022.59h-44.999c0-1.999,1.619-3.613,3.615-3.613h37.77
		C312.48,1018.977,314.098,1020.591,314.098,1022.59z"/>
	<path fill="#BCBCBC" d="M310.484,1018.977h-37.77c0-1.996,1.618-3.612,3.614-3.612h30.543
		C308.865,1015.361,310.484,1016.979,310.484,1018.977"/>
	<path fill="#B3B2B2" d="M307.32,1015.361h-31.445v-0.024c0-1.982,1.609-3.593,3.594-3.593h24.257c1.986,0,3.594,1.609,3.594,3.593
		V1015.361L307.32,1015.361z"/>
	<path fill="#A8A8A7" d="M304.125,1011.747H279.07v-0.069c0-1.958,1.589-3.546,3.547-3.546h17.962c1.959,0,3.545,1.588,3.545,3.546
		L304.125,1011.747L304.125,1011.747z"/>
	<path fill="#9D9D9C" d="M301.041,1008.132h-18.884v-0.042c0-1.973,1.601-3.572,3.572-3.572h11.739c1.974,0,3.571,1.601,3.571,3.572
		v0.042H301.041z"/>
	<polygon fill="#FFFFFF" points="282.202,886.521 304.764,912.797 272.286,906.758 	"/>
	<path fill="#FFFFFF" d="M240.222,919.748c-21.433-5.67-34.211-27.641-28.542-49.075c5.671-21.432,27.642-34.213,49.076-28.54
		c21.434,5.67,34.212,27.642,28.54,49.075C283.627,912.641,261.656,925.418,240.222,919.748"/>
	<path fill="#008AB5" d="M273.488,870.626l-18.759-15.232c-1.909-1.55-4.643-1.55-6.551,0l-18.78,15.251
		c0.015,0.042,0.015,0.042,0.032,0.088h44.022C273.468,870.677,273.468,870.677,273.488,870.626"/>
	<path fill="#C5C4E0" d="M233.453,902.983h35.998c2.24,0,4.057-1.816,4.057-4.059v-24.142c0-2.239-1.816-4.057-4.057-4.057h-35.998
		c-2.24,0-4.056,1.816-4.056,4.057v24.142C229.398,901.167,231.214,902.983,233.453,902.983"/>
	<path fill="#008AB5" d="M269.452,904.806h-35.998c-3.243,0-5.881-2.639-5.881-5.88v-24.142c0-3.24,2.639-5.882,5.881-5.882h35.998
		c3.242,0,5.882,2.642,5.882,5.882v24.142C275.334,902.17,272.694,904.806,269.452,904.806"/>
	<rect x="234.052" y="860.415" fill="#FFFFFF" width="34.781" height="36.144"/>
	
		<rect x="234.052" y="860.415" fill="none" stroke="#00AFA6" stroke-width="2" stroke-miterlimit="10" width="34.781" height="36.144"/>
	<path fill="#008AB5" d="M273.507,893.37v-17.082l-15.894,9.981l-1.375,0.86h-0.865l-7.732,0.004h-0.974l-1.312-0.828
		l-15.957-10.021v14.073C244.1,889.83,258.805,891.947,273.507,893.37"/>
	<path fill="#EFEFEF" d="M273.507,898.648v-20.673l-15.894,9.982l15.303,12.866C273.291,900.184,273.507,899.442,273.507,898.648"/>
	<path fill="#EFEFEF" d="M229.398,877.977v20.673c0,0.817,0.232,1.583,0.627,2.236l15.33-12.888L229.398,877.977z"/>
	<path fill="#EFEFEF" d="M247.642,888.822l-16.117,13.55c0.649,0.386,1.402,0.611,2.21,0.611h35.439c0.833,0,1.61-0.239,2.273-0.648
		l-16.073-13.512L247.642,888.822L247.642,888.822z"/>
	<path fill="#008AB5" d="M230.025,900.886l-1.284,1.08l1.352,1.608l1.43-1.202C230.91,902.007,230.394,901.496,230.025,900.886"/>
	<path fill="#008AB5" d="M246.666,888.823l-1.312-0.825l-15.328,12.888c0.369,0.613,0.884,1.121,1.498,1.486l16.117-13.549H246.666z
		"/>
	<path fill="#008AB5" d="M274.272,901.966l-1.355-1.141c-0.36,0.619-0.865,1.134-1.471,1.509l1.475,1.24L274.272,901.966z"/>
	<path fill="#008AB5" d="M272.917,900.825l-15.301-12.866l-1.376,0.863h-0.865l16.072,13.512
		C272.051,901.959,272.556,901.439,272.917,900.825"/>
	<polygon fill="#FFFFFF" points="524.873,895.07 509.603,919.491 535.553,910.47 	"/>
	<path fill="#FFFFFF" d="M563.539,917.15c16.915-7.341,24.679-26.999,17.34-43.917c-7.338-16.913-27-24.676-43.914-17.339
		c-16.914,7.338-24.679,27-17.339,43.912C526.96,916.724,546.623,924.488,563.539,917.15"/>
	<path fill="#008AB5" d="M564.098,888.294h-20.735c-1.135,0-2.062-0.927-2.062-2.062c0-1.131,0.927-2.06,2.062-2.06h20.735
		c1.134,0,2.061,0.927,2.061,2.06C566.158,887.367,565.231,888.294,564.098,888.294"/>
	<path fill="#008AB5" d="M559.426,903.198h-18.678c-0.859,0-1.606-0.576-1.825-1.407l-4.485-17.125h-5.335
		c-1.04,0-1.887-0.843-1.887-1.885c0-1.04,0.847-1.883,1.887-1.883h6.791c0.857,0,1.606,0.575,1.823,1.404l4.486,17.126h15.559
		l1.487-11.734c0.132-1.035,1.074-1.764,2.108-1.637c1.031,0.133,1.765,1.076,1.633,2.107l-1.692,13.384
		C561.177,902.494,560.376,903.198,559.426,903.198"/>
	<path fill="#6FCACB" d="M545.415,907.676c0,1.237-1.004,2.244-2.243,2.244s-2.245-1.007-2.245-2.244s1.005-2.241,2.245-2.241
		C544.411,905.435,545.415,906.438,545.415,907.676"/>
	<path fill="#6FCACB" d="M558.62,907.676c0,1.237-1.003,2.244-2.242,2.244s-2.243-1.007-2.243-2.244s1.004-2.241,2.243-2.241
		S558.62,906.438,558.62,907.676"/>
	<path fill="#6FCACB" d="M556.933,892.991h-13.207c-0.52,0-0.943-0.42-0.943-0.941c0-0.52,0.424-0.942,0.943-0.942h13.207
		c0.521,0,0.943,0.424,0.943,0.942C557.876,892.571,557.453,892.991,556.933,892.991"/>
	<path fill="#6FCACB" d="M555.046,896.768h-9.432c-0.522,0-0.944-0.424-0.944-0.942c0-0.523,0.421-0.944,0.944-0.944h9.432
		c0.521,0,0.943,0.421,0.943,0.944C555.988,896.344,555.567,896.768,555.046,896.768"/>
	<polygon fill="#FFAF10" points="559.995,866.442 549.675,880.133 539.355,866.442 	"/>
	<polygon fill="#FFFFFF" points="604.225,830.523 589.849,844.231 612.352,842.203 	"/>
	<path fill="#FFFFFF" d="M633.61,847.24c12.834-5.594,18.704-20.527,13.11-33.362c-5.591-12.834-20.527-18.704-33.36-13.112
		c-12.834,5.595-18.707,20.528-13.114,33.361C605.838,846.96,620.774,852.831,633.61,847.24"/>
	<path fill="#6FCACB" d="M628.41,817.698c0,5.68-4.607,10.286-10.287,10.286s-10.283-4.606-10.283-10.286
		c0-5.682,4.604-10.285,10.283-10.285S628.41,812.018,628.41,817.698"/>
	<polygon fill="#6FCACB" points="627.424,820.411 632.975,817.541 627.424,814.446 	"/>
	<path fill="#FFFFFF" d="M619.411,817.698c0,0.604-0.473,1.111-1.188,1.111c-0.696,0-1.168-0.51-1.168-1.111
		c0-0.624,0.473-1.132,1.168-1.132C618.938,816.566,619.411,817.074,619.411,817.698"/>
	<path fill="#FFFFFF" d="M623.572,817.698c0,0.604-0.473,1.111-1.188,1.111c-0.698,0-1.169-0.51-1.169-1.111
		c0-0.624,0.472-1.132,1.169-1.132C623.103,816.566,623.572,817.074,623.572,817.698"/>
	<path fill="#FFFFFF" d="M615.258,817.698c0,0.604-0.492,1.111-1.208,1.111c-0.678,0-1.17-0.51-1.17-1.111
		c0-0.624,0.492-1.132,1.17-1.132C614.767,816.566,615.258,817.074,615.258,817.698"/>
	<polygon fill="#FFD400" points="621.742,835.463 616.193,831.267 621.742,828.031 	"/>
	<polygon fill="none" stroke="#FFD400" stroke-width="2" stroke-miterlimit="10" points="621.742,835.463 616.193,831.267 
		621.742,828.031 	"/>
	<path fill="#FFD400" d="M639.63,831.755c0,5.165-4.187,9.352-9.351,9.352c-5.165,0-9.35-4.187-9.35-9.352
		c0-5.16,4.186-9.348,9.35-9.348C635.444,822.408,639.63,826.595,639.63,831.755"/>
	<path fill="none" stroke="#FFD400" stroke-width="2" stroke-miterlimit="10" d="M630.28,822.407c5.164,0,9.351,4.188,9.351,9.348
		c0,5.165-4.187,9.352-9.351,9.352c-5.163,0-9.35-4.187-9.35-9.352C620.931,826.595,625.117,822.407,630.28,822.407z"/>
	<path fill="#FFFFFF" d="M630.089,830.438c0.696,0,1.168,0.595,1.168,1.32c0,0.703-0.473,1.301-1.168,1.301
		c-0.717,0-1.189-0.594-1.189-1.301C628.901,831.032,629.372,830.438,630.089,830.438"/>
	<path fill="#FFFFFF" d="M625.926,830.438c0.697,0,1.167,0.595,1.167,1.32c0,0.703-0.471,1.301-1.167,1.301
		c-0.717,0-1.188-0.594-1.188-1.301C624.738,831.032,625.209,830.438,625.926,830.438"/>
	<path fill="#FFFFFF" d="M634.26,830.438c0.681,0,1.169,0.595,1.169,1.32c0,0.703-0.488,1.301-1.169,1.301
		c-0.715,0-1.207-0.594-1.207-1.301C633.054,831.032,633.545,830.438,634.26,830.438"/>
	<polygon fill="#FFFFFF" points="537.855,1029.915 516.312,1022.58 535.677,1015.594 	"/>
	<path fill="#FFFFFF" d="M572.052,1001.672c12.143,7.466,15.934,23.357,8.471,35.5c-7.464,12.141-23.355,15.934-35.497,8.473
		c-12.143-7.465-15.936-23.357-8.472-35.5C544.018,998.003,559.911,994.211,572.052,1001.672"/>
	<path fill="#FFAF10" d="M557.939,1036.349c0,2.29-2.179,4.149-4.864,4.149s-4.863-1.859-4.863-4.149
		c0-2.291,2.178-4.149,4.863-4.149C555.761,1032.198,557.939,1034.058,557.939,1036.349"/>
	<polygon fill="#FFAF10" points="557.364,1038.23 556.934,1021.912 567.909,1021.912 565.893,1027.067 557.939,1027.067 	"/>
	<rect x="556.934" y="1021.912" fill="#FFAF10" width="1.006" height="14.568"/>
	<path fill="#6FCACB" d="M574.794,1026.251l-2.812-0.795c0.364-1.294,0.549-2.645,0.549-4.005c0-7.771-6.057-14.092-13.501-14.092
		c-7.443,0-13.502,6.321-13.502,14.092c0,1.275,0.163,2.536,0.482,3.752l-2.829,0.745c-0.386-1.456-0.58-2.973-0.58-4.497
		c0-9.385,7.368-17.018,16.428-17.018c9.058,0,16.426,7.633,16.426,17.018C575.458,1023.083,575.234,1024.698,574.794,1026.251"/>
	<path fill="#6FCACB" d="M545.49,1027.299c0,2.83-1.62,5.122-3.618,5.122c-2,0-3.618-2.292-3.618-5.122
		c0-2.826,1.62-5.121,3.618-5.121C543.87,1022.181,545.49,1024.473,545.49,1027.299"/>
	<path fill="#6FCACB" d="M572.451,1027.302c0-2.827,1.62-5.121,3.618-5.121s3.618,2.294,3.618,5.121s-1.621,5.119-3.618,5.119
		C574.07,1032.421,572.451,1030.129,572.451,1027.302"/>
	<path fill="#23A3B0" d="M543.213,1035.046L543.213,1035.046c-1.504,0-2.734-1.229-2.734-2.735v-10.018
		c0-1.504,1.23-2.732,2.734-2.732c1.503,0,2.733,1.229,2.733,2.732v10.018C545.946,1033.814,544.716,1035.046,543.213,1035.046"/>
	<path fill="#23A3B0" d="M574.728,1019.557L574.728,1019.557c1.504,0,2.734,1.232,2.734,2.734v10.02c0,1.504-1.23,2.733-2.734,2.733
		s-2.732-1.229-2.732-2.733v-10.02C571.994,1020.789,573.224,1019.557,574.728,1019.557"/>
	<path fill="#FFFFFF" d="M695.232,743.091c15.486-9.521,20.323-29.792,10.805-45.276c-9.52-15.487-29.793-20.326-45.279-10.807
		c-15.488,9.521-20.324,29.793-10.807,45.279C659.473,747.774,679.747,752.613,695.232,743.091"/>
	<path fill="#FFD400" d="M665.875,729.593c0-0.564,0.269-1.104,0.739-1.473c3.01-2.368,4.882-7.678,4.882-13.863
		c0-3.388,3.025-6.134,6.748-6.134c3.716,0,6.745,2.746,6.745,6.134c0,6.187,1.866,11.495,4.88,13.863
		c0.468,0.367,0.742,0.907,0.742,1.473H665.875z"/>
	<path fill="none" stroke="#FFD400" stroke-width="2" stroke-miterlimit="10" d="M665.875,729.593c0-0.564,0.269-1.104,0.739-1.473
		c3.01-2.368,4.882-7.678,4.882-13.863c0-3.388,3.025-6.134,6.748-6.134c3.716,0,6.745,2.746,6.745,6.134
		c0,6.187,1.866,11.495,4.88,13.863c0.468,0.367,0.742,0.907,0.742,1.473H665.875z"/>
	<path fill="#FFD400" d="M665.624,730.895h25.235c1.014,0,1.84-0.827,1.84-1.84c0-1.009-0.826-1.84-1.84-1.84h-25.235
		c-1.011,0-1.841,0.831-1.841,1.84C663.783,730.066,664.613,730.895,665.624,730.895"/>
	<path fill="#FFD400" d="M675.954,733.138c-1.264,1.266-1.264,3.313,0,4.578c1.265,1.265,3.312,1.265,4.577,0
		c1.266-1.265,1.266-3.312,0-4.578C679.268,731.874,677.219,731.874,675.954,733.138"/>
	
		<line fill="none" stroke="#FFD400" stroke-width="2" stroke-linecap="round" stroke-miterlimit="10" x1="692.701" y1="711.485" x2="701.76" y2="706.723"/>
	
		<line fill="none" stroke="#FFD400" stroke-width="2" stroke-linecap="round" stroke-miterlimit="10" x1="687.55" y1="705.177" x2="692.701" y2="696.938"/>
	
		<line fill="none" stroke="#FFD400" stroke-width="2" stroke-linecap="round" stroke-miterlimit="10" x1="663.289" y1="711.485" x2="654.232" y2="706.723"/>
	
		<line fill="none" stroke="#FFD400" stroke-width="2" stroke-linecap="round" stroke-miterlimit="10" x1="668.44" y1="705.177" x2="663.289" y2="696.938"/>
	
		<line fill="none" stroke="#FFD400" stroke-width="2" stroke-linecap="round" stroke-miterlimit="10" x1="678.217" y1="701.057" x2="678.217" y2="689.668"/>
	<polygon fill="#FFFFFF" points="413.142,870.779 407.665,894.6 397.495,873.621 	"/>
	<path fill="#FFFFFF" d="M386.154,869.39c-13.328-8.192-17.492-25.639-9.298-38.966c8.195-13.327,25.64-17.492,38.967-9.299
		c13.328,8.193,17.493,25.637,9.298,38.967C416.931,873.42,399.483,877.584,386.154,869.39"/>
	<polygon fill="#FFD400" points="401.607,822.97 405.452,830.761 414.049,832.008 407.828,838.074 409.298,846.635 401.607,842.594 
		393.917,846.635 395.387,838.074 389.166,832.008 397.762,830.761 	"/>
	<path fill="#6FCACB" d="M413.021,850.407c-0.053-0.91-0.874-1.604-1.824-1.549c-0.951,0.052-1.687,0.841-1.637,1.747l0.221,3.851
		l-0.556-0.058l-0.312-5.448c-0.053-0.909-0.874-1.605-1.826-1.55c-0.951,0.055-1.687,0.842-1.636,1.747l0.282,4.889l-0.557-0.058
		l-0.426-7.429c-0.052-0.909-0.874-1.604-1.825-1.55c-0.95,0.053-1.688,0.839-1.635,1.747l0.396,6.872l-0.554-0.058l-0.684-11.846
		c-0.051-0.909-0.874-1.604-1.824-1.552c-0.951,0.056-1.686,0.84-1.636,1.75l0.75,13.029c-0.021,0.867-0.144,2.144-0.268,3.629
		l-1.109-3.702c-0.232-0.773-1.089-1.225-1.9-0.995c-0.812,0.225-1.289,1.043-1.055,1.819c0,0,1.524,5.048,1.547,5.096
		c0.011,0.05,0.008,0.09,0.023,0.144c0,0,1.603,8.5,8.05,8.131l3.763-0.218c1.588-0.091,7.327-0.422,6.937-7.22L413.021,850.407z"/>
	<path fill="#85CAF9" d="M351.147,889.496l-10.04-4.479l8.118-18.937l-12.1,17.161l-8.735-3.896l23.338-17.237L351.147,889.496z
		 M338.187,892.447l-1.475-6.481l5.596,2.135L338.187,892.447z"/>
	<path fill="#85CAF9" d="M618.928,750.499l-10.039-4.479l8.119-18.938l-12.101,17.161l-8.735-3.896l23.338-17.24L618.928,750.499z
		 M605.969,753.448l-1.474-6.479l5.597,2.137L605.969,753.448z"/>
	<g>
		<g>
			<path fill="#85CAF9" d="M444.905,904.679l-0.729,0.749l1.581,1.535l0.729-0.748c0.691,0.463,1.482,0.781,2.332,0.923l0.015,1.047
				l2.205-0.032l-0.016-1.044c0.843-0.172,1.625-0.516,2.303-0.994l0.751,0.729l1.536-1.581l-0.75-0.729
				c0.46-0.691,0.781-1.482,0.925-2.33l1.048-0.018l-0.035-2.205l-1.044,0.018c-0.169-0.846-0.512-1.628-0.993-2.304l0.729-0.753
				l-1.582-1.535l-0.729,0.752c-0.689-0.462-1.481-0.781-2.331-0.927l-0.016-1.045l-2.203,0.036l0.016,1.042
				c-0.847,0.171-1.625,0.515-2.304,0.995l-0.75-0.727l-1.535,1.58l0.75,0.727c-0.459,0.692-0.78,1.48-0.923,2.33l-1.048,0.019
				l0.034,2.205l1.046-0.018C444.081,903.221,444.424,904.002,444.905,904.679 M449.77,896.727c2.461-0.037,4.487,1.929,4.523,4.395
				c0.035,2.465-1.932,4.488-4.396,4.525c-2.462,0.036-4.487-1.93-4.524-4.396C445.339,898.787,447.305,896.762,449.77,896.727"/>
			<path fill="#85CAF9" d="M462.22,891.657l0.656-0.29l-0.719-1.619l-0.652,0.293c-0.29-0.395-0.642-0.729-1.05-1l0.257-0.666
				l-1.653-0.635l-0.254,0.666c-0.481-0.071-0.973-0.062-1.448,0.038l-0.29-0.653l-1.616,0.719l0.29,0.653
				c-0.395,0.288-0.729,0.641-0.997,1.05l-0.666-0.256l-0.636,1.648l0.666,0.256c-0.073,0.483-0.062,0.97,0.038,1.447l-0.652,0.29
				l0.714,1.617l0.654-0.289c0.291,0.396,0.642,0.729,1.049,0.999l-0.257,0.664l1.652,0.634l0.257-0.661
				c0.478,0.066,0.97,0.058,1.444-0.038l0.292,0.653l1.618-0.719l-0.29-0.654c0.393-0.288,0.729-0.641,0.997-1.049l0.667,0.256
				l0.635-1.648l-0.667-0.258C462.331,892.619,462.319,892.135,462.22,891.657 M459.302,895.007
				c-0.342,0.151-0.706,0.235-1.078,0.24c-1.111,0.016-2.116-0.629-2.568-1.644c-0.618-1.393,0.011-3.025,1.406-3.646
				c0.341-0.154,0.705-0.233,1.077-0.24c1.111-0.013,2.119,0.63,2.569,1.644C461.324,892.753,460.695,894.389,459.302,895.007"/>
		</g>
	</g>
	<g>
		<g>
			<path fill="#85CAF9" d="M609.923,868.268c2.583-2.584,6.532-2.952,9.519-1.126c-1.012,1-2.18,2.172-2.18,2.172
				c-0.813,0.98,0.104,1.547,0.566,1.528h5.46c0.285,0,0.521,0,0.521,0h0.526h1.057c0.29,0,0.522-0.233,0.524-0.524v-7.502
				c0.034-0.688-0.719-1.354-1.496-0.587c0,0-1.291,1.255-2.178,2.138c-4.549-3.323-10.956-2.944-15.062,1.162
				c-2.397,2.396-3.515,5.575-3.38,8.712h3.881C607.544,872.096,608.281,869.911,609.923,868.268"/>
			<path fill="#85CAF9" d="M622.832,872.938c0.139,2.147-0.597,4.334-2.239,5.978c-2.583,2.582-6.537,2.947-9.521,1.127
				c1.013-1.002,2.18-2.169,2.18-2.169c0.817-0.981-0.1-1.547-0.564-1.533l-5.455,0.002c-0.289,0-0.524-0.002-0.524-0.002h-0.528
				h-1.055c-0.289,0-0.524,0.236-0.524,0.525v7.503c-0.031,0.685,0.723,1.349,1.498,0.583c0,0,1.288-1.254,2.179-2.134
				c4.549,3.319,10.956,2.946,15.062-1.16c2.395-2.396,3.512-5.576,3.38-8.715h-3.883v-0.005H622.832L622.832,872.938z"/>
		</g>
	</g>
	<g>
		<g>
			<path fill="#85CAF9" d="M288.524,948.204c-3.222,0-5.83,2.611-5.83,5.83c0,3.224,5.83,10.722,5.83,10.722
				s5.832-7.498,5.832-10.722C294.356,950.815,291.744,948.204,288.524,948.204z M288.524,954.98c-1.002,0-1.813-0.812-1.813-1.813
				c0-1,0.811-1.812,1.813-1.812c1.001,0,1.814,0.812,1.814,1.812C290.337,954.169,289.524,954.98,288.524,954.98z"/>
		</g>
	</g>
	<path fill="#85CAF9" d="M594.015,982.967l0.467-0.507c0.719-0.787,0.663-2.01-0.123-2.731l-6.39-5.838
		c-0.145-0.135-0.309-0.24-0.478-0.32c0.812-1.787,0.953-3.903,0.222-5.926c-1.457-4.019-5.819-6.134-9.724-4.717
		c-3.906,1.417-5.901,5.833-4.445,9.852s5.817,6.139,9.724,4.724c0.465-0.17,0.902-0.384,1.312-0.632
		c0.088,0.139,0.192,0.265,0.319,0.382l6.391,5.837C592.075,983.81,593.295,983.755,594.015,982.967z M575.812,971.957
		c-1.007-2.771,0.338-5.794,2.994-6.76c2.66-0.963,5.631,0.503,6.632,3.274c1.004,2.771-0.335,5.798-2.996,6.761
		C579.785,976.198,576.815,974.732,575.812,971.957z"/>
	<path fill="#85CAF9" d="M752.893,681.502l0.464-0.508c0.721-0.79,0.666-2.009-0.121-2.731l-6.388-5.838
		c-0.146-0.134-0.311-0.241-0.48-0.321c0.812-1.786,0.953-3.904,0.222-5.923c-1.454-4.018-5.817-6.136-9.721-4.721
		c-3.907,1.417-5.9,5.835-4.445,9.854c1.456,4.018,5.817,6.14,9.724,4.726c0.466-0.172,0.903-0.386,1.31-0.633
		c0.092,0.137,0.196,0.263,0.322,0.382l6.388,5.836C750.951,682.342,752.172,682.288,752.893,681.502z M734.69,670.491
		c-1.006-2.771,0.339-5.793,2.995-6.76c2.658-0.964,5.627,0.503,6.631,3.276c1.005,2.77-0.336,5.796-2.995,6.758
		C738.663,674.733,735.693,673.265,734.69,670.491z"/>
</g>
<rect x="-27.242" y="139.59" opacity="0.91" fill="#7D9BAF" enable-background="new    " width="1093.125" height="15.177"/>
</svg>
