<?xml version="1.0" encoding="utf-8"?>
<!-- Generator: Adobe Illustrator 15.0.0, SVG Export Plug-In . SVG Version: 6.00 Build 0)  -->
<!DOCTYPE svg PUBLIC "-//W3C//DTD SVG 1.1//EN" "http://www.w3.org/Graphics/SVG/1.1/DTD/svg11.dtd">
<svg version="1.1" id="Layer_1" xmlns="http://www.w3.org/2000/svg" xmlns:xlink="http://www.w3.org/1999/xlink" x="0px" y="0px"
	 width="1366px" height="563px" viewBox="0 0 1366 563" enable-background="new 0 0 1366 563" xml:space="preserve">
<g id="Layer_1_1_">
	<rect x="-17.374" y="-15.971" fill="#CCEDFF" width="1383.374" height="578.971"/>
	<g>
		<rect x="-17.374" y="450.716" fill="#80939E" width="1383.374" height="112.284"/>
	</g>
</g>
<g id="Layer_2">
	<path fill="#FFFFFF" d="M278.268,99.539c-1.398,0-2.771,0.092-4.116,0.257c0-0.087,0.008-0.172,0.008-0.257
		c0-15.23-13.685-27.578-30.565-27.578c-4.772,0-9.291,0.99-13.313,2.75c-5.511-11.408-18.11-19.385-32.785-19.385
		c-18.674,0-33.996,12.919-35.602,29.391c-1.443-0.165-2.911-0.261-4.405-0.261c-19.108,0-34.597,13.974-34.597,31.211v11.135h2.276
		h64.64h49.199h9.038h60.442C308.489,111.743,294.958,99.539,278.268,99.539"/>
	<path fill="#FFFFFF" d="M1036.471,216.875c1.298,0,2.575,0.095,3.826,0.267c0-0.091-0.006-0.179-0.006-0.267
		c0-15.726,12.729-28.474,28.434-28.474c4.44,0,8.642,1.021,12.388,2.838c5.124-11.778,16.85-20.018,30.498-20.018
		c17.372,0,31.624,13.34,33.116,30.35c1.344-0.17,2.709-0.268,4.099-0.268c17.774,0,32.185,14.428,32.185,32.227v11.498h-2.115
		h-60.136h-45.766h-8.407h-56.228C1008.357,229.479,1020.943,216.875,1036.471,216.875"/>
	<path fill="#B0D9EA" d="M1095.907,416.37v-27.667h-13.415v-62.042h-18.445v36.89h-19.282v-12.575h-18.444v-43.597h-36.05v-18.443
		h-52.818v15.93H913.14v-21.799h-22.637v-51.143h-9.222l-31.021,20.96v20.96h-19.281v20.961h-20.121v-61.204h-10.062V223.54h-7.545
		v9.222h-10.061v93.899h-28.506V286.42h-31.858v21.798h-41.081v-38.567h-8.385v-8.383h-22.637v7.545h-6.707v36.051h-10.73v-29.081
		c0.03-3.265,0.034-6.7,0-10.255v-2.06h-0.021c-0.511-37.871-5.405-87.685-27.814-85.201c-18.052,1.999-21.785,49.381-22.01,85.201
		h-0.048v39.72h-13.153V259.59H517.42v42.76h-31.86v20.12h-10.061v-87.193h-9.223v-23.475h-3.354v23.475h-10.898v88.031H422.68
		V302.35h-22.637v-10.062h-30.182v10.899h-31.859v54.494h-18.445v83.001h-77.131v9.224l881.146,1.677V416.37H1095.907z"/>
	<polygon fill="#83C5DB" points="-74.549,448.024 -74.549,442.994 -21.731,442.994 -21.731,400.865 -21.731,392.69 5.307,392.69 
		5.307,339.872 28.573,339.872 28.573,392.69 44.921,392.69 44.921,373.827 53.096,373.827 53.096,363.767 106.543,363.767 
		106.543,373.827 114.717,373.827 114.717,392.69 146.156,392.69 146.156,354.334 162.506,354.334 162.506,392.69 178.226,392.69 
		178.226,339.872 185.142,339.872 185.142,332.326 239.218,332.326 239.218,339.872 246.135,339.872 246.135,360.622 
		264.37,360.622 264.37,382.001 298.953,382.001 298.953,394.577 351.771,394.577 351.771,341.759 373.15,341.759 373.15,331.069 
		383.84,331.069 383.84,341.759 405.219,341.759 405.219,368.168 422.825,368.168 422.825,384.517 491.992,384.517 491.992,334.213 
		568.076,334.213 568.076,354.963 620.267,354.963 620.267,372.569 645.418,372.569 645.418,335.471 655.479,335.471 
		655.479,329.183 678.115,329.183 678.115,335.471 686.918,335.471 686.918,372.569 712.699,372.569 712.699,395.206 
		738.479,395.206 738.479,385.146 753.57,385.146 753.57,409.039 784.381,409.039 784.381,440.479 807.018,440.479 807.018,447.396 
		807.018,452.426 -74.549,452.426 	"/>
	<polygon fill="#83C5DB" points="505.433,448.552 505.433,443.521 558.251,443.521 558.251,401.393 558.251,393.218 585.29,393.218 
		585.29,340.399 608.555,340.399 608.555,393.218 624.903,393.218 624.903,374.354 633.078,374.354 633.078,364.294 
		686.525,364.294 686.525,374.354 694.7,374.354 694.7,393.218 726.139,393.218 726.139,354.861 742.488,354.861 742.488,393.218 
		758.208,393.218 758.208,340.399 765.124,340.399 765.124,332.854 819.2,332.854 819.2,340.399 826.117,340.399 826.117,361.149 
		844.354,361.149 844.354,382.528 878.936,382.528 878.936,395.104 931.754,395.104 931.754,342.286 953.133,342.286 
		953.133,331.597 963.822,331.597 963.822,342.286 985.201,342.286 985.201,368.695 1002.808,368.695 1002.808,385.044 
		1071.975,385.044 1071.975,334.74 1148.059,334.74 1148.059,355.49 1200.249,355.49 1200.249,373.097 1225.4,373.097 
		1225.4,335.998 1235.461,335.998 1235.461,329.71 1258.098,329.71 1258.098,335.998 1266.9,335.998 1266.9,373.097 
		1292.682,373.097 1292.682,395.733 1318.462,395.733 1318.462,385.673 1333.553,385.673 1333.553,409.566 1364.363,409.566 
		1364.363,441.006 1387,441.006 1387,447.923 1387,452.953 505.433,452.953 	"/>
	<rect x="92.12" y="-15.971" opacity="0.91" fill="#7D9BAF" enable-background="new    " width="8.25" height="469.553"/>
	<rect x="401.479" y="-15.971" opacity="0.91" fill="#7D9BAF" enable-background="new    " width="8.25" height="469.553"/>
	<rect x="725.961" y="-15.971" opacity="0.91" fill="#7D9BAF" enable-background="new    " width="8.25" height="469.553"/>
	<rect x="1053.447" y="-15.971" opacity="0.91" fill="#7D9BAF" enable-background="new    " width="8.25" height="469.553"/>
	<rect x="-29.375" y="199.875" opacity="0.91" fill="#7D9BAF" enable-background="new    " width="1395.375" height="8.25"/>
</g>
<g id="Layer_3">
	<polygon fill="#75868E" points="471.457,490.44 385.38,490.44 384.087,490.44 298.01,490.44 256.702,521.896 384.087,521.896 
		385.38,521.896 512.764,521.896 	"/>
	<rect x="280.149" y="409.753" fill="#AF9D7D" width="212.426" height="8.396"/>
	<path fill="#AD9566" d="M295.776,511.826h-5.854c-0.359,0-0.65-0.293-0.65-0.649V418.21h7.153v92.967
		C296.425,511.535,296.135,511.826,295.776,511.826"/>
	<path fill="#AD9566" d="M482.803,511.826h-5.854c-0.358,0-0.649-0.293-0.649-0.649V418.21h7.154v92.967
		C483.453,511.535,483.162,511.826,482.803,511.826"/>
	<rect x="289.272" y="418.21" fill="#9B855F" width="7.153" height="5.953"/>
	<rect x="476.299" y="418.21" fill="#9B855F" width="7.154" height="5.953"/>
	<path fill="#96805A" d="M308.439,498.586h-4.847c-0.359,0-0.649-0.291-0.649-0.65V418.15h6.146v79.785
		C309.089,498.295,308.798,498.586,308.439,498.586"/>
	<path fill="#96805A" d="M469.132,498.586h-4.847c-0.359,0-0.65-0.291-0.65-0.65V418.15h6.146v79.785
		C469.781,498.295,469.491,498.586,469.132,498.586"/>
	<path fill="#F6F6F6" d="M330.203,409.753c0-0.815,0.664-1.479,1.478-1.479h71.03c0.816,0,1.479,0.663,1.479,1.479H330.203z"/>
	<path fill="#878787" d="M337.03,408.273v-0.466c0-0.269-0.219-0.488-0.488-0.488h-2.729c-0.27,0-0.489,0.221-0.489,0.488v0.466
		H337.03z"/>
	<path fill="#878787" d="M341.704,408.273v-0.466c0-0.269-0.219-0.488-0.489-0.488h-2.728c-0.271,0-0.489,0.221-0.489,0.488v0.466
		H341.704z"/>
	<path fill="#878787" d="M346.378,408.273v-0.466c0-0.269-0.218-0.488-0.488-0.488h-2.729c-0.27,0-0.488,0.221-0.488,0.488v0.466
		H346.378z"/>
	<path fill="#878787" d="M351.051,408.273v-0.466c0-0.269-0.219-0.488-0.488-0.488h-2.729c-0.27,0-0.489,0.221-0.489,0.488v0.466
		H351.051z"/>
	<path fill="#878787" d="M376.829,408.273v-0.466c0-0.269-0.219-0.488-0.489-0.488h-23.832c-0.27,0-0.489,0.221-0.489,0.488v0.466
		H376.829z"/>
	<path fill="#878787" d="M381.502,408.273v-0.466c0-0.269-0.219-0.488-0.488-0.488h-2.728c-0.27,0-0.489,0.221-0.489,0.488v0.466
		H381.502z"/>
	<path fill="#878787" d="M386.175,408.273v-0.466c0-0.269-0.219-0.488-0.488-0.488h-2.729c-0.27,0-0.488,0.221-0.488,0.488v0.466
		H386.175z"/>
	<path fill="#878787" d="M390.685,408.273v-0.466c0-0.269-0.219-0.488-0.488-0.488h-2.729c-0.269,0-0.488,0.221-0.488,0.488v0.466
		H390.685z"/>
	<path fill="#878787" d="M400.217,408.273v-0.466c0-0.269-0.218-0.488-0.488-0.488h-2.728c-0.27,0-0.489,0.221-0.489,0.488v0.466
		H400.217z"/>
	<path fill="#878787" d="M395.359,408.273v-0.466c0-0.269-0.219-0.488-0.489-0.488h-2.728c-0.27,0-0.488,0.221-0.488,0.488v0.466
		H395.359z"/>
	<rect x="371.327" y="392.869" fill="#B3B2B2" width="22.842" height="15.89"/>
	<rect x="371.327" y="392.869" fill="#878787" width="22.842" height="3.972"/>
	<path fill="#9D9D9C" d="M398.52,409.753c-0.052-0.557-0.504-0.994-1.072-0.994H368.05c-0.567,0-1.02,0.438-1.072,0.994H398.52z"/>
	<path fill="#1C1C1C" d="M432.871,392.869h-99.052c-2.56,0-4.635-2.075-4.635-4.636v-62.504c0-2.56,2.075-4.635,4.635-4.635h99.052
		c2.559,0,4.634,2.075,4.634,4.635v62.504C437.505,390.794,435.43,392.869,432.871,392.869"/>
	<path fill="#EDEDED" d="M329.184,381.348v6.887c0,2.561,2.075,4.636,4.635,4.636h99.052c2.559,0,4.634-2.075,4.634-4.636v-6.887
		H329.184z"/>
	<path fill="#384F5E" d="M431.911,378.666h-97.132c-1.151,0-2.086-0.934-2.086-2.086v-48.964c0-1.15,0.935-2.085,2.086-2.085h97.132
		c1.152,0,2.085,0.935,2.085,2.085v48.964C433.996,377.733,433.063,378.666,431.911,378.666"/>
	<path fill="#DADADA" d="M385.828,387.108c0-1.372-1.112-2.482-2.483-2.482s-2.482,1.11-2.482,2.482
		c0,1.371,1.112,2.483,2.482,2.483C384.715,389.592,385.828,388.479,385.828,387.108"/>
	<polygon fill="#E89970" points="362.184,373.082 363.894,372.839 363.25,374.441 	"/>
	<rect x="394.97" y="374.425" fill="#DADADA" width="1.348" height="0.304"/>
	<rect x="394.97" y="372.731" fill="#DADADA" width="1.348" height="0.307"/>
	<rect x="394.97" y="371.041" fill="#DADADA" width="1.348" height="0.304"/>
	<path fill="#75868E" d="M447.551,508.968c0-5.955-29.138-10.781-65.081-10.781c-35.944,0-65.082,4.826-65.082,10.781
		s29.138,10.782,65.082,10.782C418.414,519.75,447.551,514.923,447.551,508.968"/>
	<path fill="#1F4056" d="M360.12,435.981c0,0-10.264,2.177-11.611,5.288c-1.348,3.11-1.141,11.196,0.415,15.55
		c1.555,4.355,12.751,31.519,12.959,34.006c0,0,3.11,0.622,3.835,0.727c0,0-10.263,4.562-10.678,8.604
		c-0.415,4.043,20.424,2.903,23.119-1.969c0,0-1.659-5.081-2.902-6.636c0,0,0.933-1.45,0.726-2.073
		c-0.208-0.622-5.703-17.521-6.428-21.148c-0.726-3.628-3.836-11.095-1.97-12.649c1.866-1.555,14.722-1.864,14.722-1.864h0.46
		c0,0,12.856,0.311,14.722,1.864c1.866,1.556-1.244,9.021-1.97,12.649c-0.726,3.629-6.22,20.526-6.427,21.148
		c-0.208,0.623,0.725,2.073,0.725,2.073c-1.243,1.555-2.902,6.636-2.902,6.636c2.695,4.872,23.534,6.012,23.119,1.969
		s-10.678-8.604-10.678-8.604c0.726-0.104,3.836-0.727,3.836-0.727c0.208-2.487,11.404-29.649,12.959-34.006
		c1.555-4.354,1.762-12.438,0.414-15.55c-1.347-3.111-11.611-5.288-11.611-5.288s-4.795,4.313-21.59,4.313
		C366.568,440.295,360.121,435.981,360.12,435.981"/>
	<path fill="#152E42" d="M416.564,441.27c-1.347-3.111-11.611-5.288-11.611-5.288s-4.795,4.313-21.591,4.313
		c-16.794,0-23.242-4.313-23.242-4.313s-10.264,2.177-11.612,5.288c-1.347,3.11-1.14,11.197,0.415,15.55
		c0.79,2.212,4.065,10.305,7.125,18.061c4.366-2.141,9.677-3.052,14.229-3.736c-0.343-1.217-0.601-2.205-0.723-2.813
		c-0.726-3.628-3.836-11.095-1.97-12.649c1.866-1.555,14.722-1.864,14.722-1.864h0.46c0,0,12.856,0.311,14.722,1.864
		c1.866,1.556-1.245,9.021-1.97,12.649c-0.155,0.774-0.53,2.158-1.021,3.857c0.238,0.062,0.483,0.111,0.72,0.179
		c1.854,0.523,7.921,2.373,12.964,4.657c3.275-8.349,7.105-17.786,7.968-20.203C417.705,452.467,417.912,444.38,416.564,441.27"/>
	<path fill="#575756" d="M365.718,491.551c0,0-10.263,4.562-10.678,8.604c-0.415,4.043,20.424,2.903,23.119-1.969
		c0,0-1.659-5.081-2.903-6.636C375.256,491.551,374.136,492.847,365.718,491.551"/>
	<path fill="#575756" d="M399.355,491.551c-7.802,1.141-9.538,0-9.538,0c-1.244,1.555-2.903,6.636-2.903,6.636
		c2.695,4.872,23.534,6.012,23.119,1.969S399.355,491.551,399.355,491.551"/>
	<path fill="#E8CAAA" d="M389.039,368.62L389.039,368.62c-0.233-1.167-0.208-5.417-0.208-5.417c3.732-2.748,5.028-9.228,5.028-9.228
		s1.763-2.281,1.866-3.731c0.104-1.452-0.934-1.971-0.934-1.971c0.281-8.555-2.641-13.658-6.173-15.261
		c-1.519-0.689-4.415-1.016-6.083-1.016c-1.667,0-4.564,0.325-6.083,1.016c-3.531,1.603-6.453,6.706-6.173,15.261
		c0,0-1.036,0.519-0.933,1.971c0.104,1.45,1.866,3.731,1.866,3.731s1.296,6.479,5.028,9.228c0,0,0.026,4.25-0.208,5.417
		C381.005,369.76,384.555,369.708,389.039,368.62"/>
	<path fill="#E8CAAA" d="M394.793,348.274c0.281-8.555-2.641-13.658-6.173-15.261c-1.519-0.689-4.415-1.017-6.083-1.017
		c-1.667,0-4.564,0.326-6.083,1.017c-3.531,1.603-6.453,6.706-6.173,15.261c0,0-1.036,0.519-0.934,1.971
		c0.104,1.45,1.867,3.731,1.867,3.731s1.296,6.479,5.028,9.228c0,0,0.01,1.618-0.038,3.132c1.509,0.705,3.426,1.209,6.628,1.209
		c2.656,0,5.124-0.731,6.026-1.635c-0.034-1.377-0.026-2.706-0.026-2.706c3.732-2.748,5.029-9.228,5.029-9.228
		s1.763-2.281,1.866-3.731C395.83,348.792,394.793,348.274,394.793,348.274"/>
	<path fill="#231C11" d="M397.046,347.701c0.318-8.778-2.991-14.017-6.992-15.659c-1.72-0.708-5-1.044-6.89-1.044
		c-1.888,0-5.17,0.336-6.89,1.044c-4,1.644-7.309,6.881-6.992,15.659c0,0-0.024,1.72,0.065,2.544
		c0.088,0.824,0.992,3.309,0.992,3.309s1.468,6.647,5.696,9.469c0,0,2.958,2.233,6.833,2.233s7.426-2.233,7.426-2.233
		c4.228-2.819,5.696-9.469,5.696-9.469s0.704-2.659,0.792-3.351C396.87,349.51,397.046,347.701,397.046,347.701"/>
	<path fill="#F4BD31" d="M426.284,404.154c-0.778-2.877-17.029-23.481-20.45-27.992c-3.421-4.509-13.607-5.442-13.607-5.442
		c0-1.011-3.188-2.099-3.188-2.099c-4.484,1.088-8.035,1.14-13.005,0c0,0-1.008,0.344-1.891,0.825
		c-0.686,0.373-1.297,0.83-1.297,1.272c0,0-10.185,0.935-13.607,5.441c-3.421,4.512-19.671,25.116-20.449,27.993
		c-0.777,2.877,0.949,5.61,3.577,5.909c3.421,0.389,9.875,1.037,12.519-0.622c0.36-0.227,1.226-1.052,2.274-2.122
		c0.628-0.642,1.322-1.372,2.01-2.11c1.835-1.975,3.634-4.021,4.062-4.684c0,0.002-0.161,1.998-0.399,4.772
		c-0.04,0.463-0.082,0.945-0.125,1.447c-0.043,0.5-0.089,1.017-0.136,1.543c-0.305,3.422-0.67,7.278-0.992,10.023
		c-0.074,0.634-0.146,1.208-0.214,1.704c-0.181,1.32-0.563,2.76-0.981,4.229c-0.418,1.471-0.872,2.969-1.196,4.413
		c-0.647,2.892-0.777,5.562,0.934,7.322c0,0,6.448,4.313,23.242,4.313c16.795,0,21.591-4.313,21.591-4.313
		c1.924-1.98,1.52-5.113,0.667-8.414c-0.283-1.101-0.617-2.22-0.93-3.321c-0.418-1.47-0.8-2.908-0.982-4.229
		c-0.067-0.496-0.14-1.07-0.213-1.704c-0.075-0.633-0.151-1.326-0.228-2.059c-0.052-0.488-0.104-0.995-0.156-1.515
		c-0.052-0.52-0.105-1.05-0.157-1.588c-0.104-1.074-0.207-2.178-0.306-3.26c-0.049-0.542-0.098-1.078-0.145-1.604
		c-0.094-1.053-0.182-2.064-0.262-2.989c-0.239-2.774-0.399-4.771-0.399-4.772c0.587,0.909,3.767,4.44,6.072,6.794
		c1.047,1.07,1.914,1.896,2.274,2.122c2.643,1.659,9.097,1.011,12.518,0.622c0.985-0.111,1.845-0.567,2.492-1.242
		c0.647-0.677,1.083-1.574,1.223-2.571C426.516,405.583,426.478,404.873,426.284,404.154"/>
	<path fill="#7F7A6F" d="M392.227,370.72c0-1.012-3.188-2.1-3.188-2.1c-4.484,1.088-8.034,1.14-13.005,0c0,0-3.188,1.088-3.188,2.1
		c0,0,2.741,1.088,9.739,1.088S392.227,370.72,392.227,370.72"/>
	<path fill="#2D2D2D" d="M384.509,439.299c21.357-0.414,17.003-20.733,15.966-27.369c-1.037-6.636,8.087-16.588,2.074-27.37
		c-6.014-10.781-19.698-11.196-19.698-11.196h-0.629c0,0-13.685,0.415-19.698,11.196c-6.014,10.782,3.11,20.734,2.073,27.37
		c-1.037,6.636-5.391,26.955,15.966,27.369H384.509z"/>
	<path fill="#2D2D2D" d="M413.38,454.85h-61.686c-2.963,0-5.365-2.4-5.365-5.363v-3.966c0-1.375,1.114-2.489,2.488-2.489h67.44
		c1.374,0,2.488,1.114,2.488,2.489v3.966C418.744,452.449,416.342,454.85,413.38,454.85"/>
	<path fill="#2D2D2D" d="M418.744,447.853v-2.332c0-1.375-1.114-2.489-2.488-2.489h-67.439c-1.374,0-2.488,1.114-2.488,2.489v2.332
		H418.744z"/>
	<rect x="349.761" y="415.721" fill="#3D3D3D" width="7.776" height="27.311"/>
	<path fill="#2B2823" d="M357.347,415.721h-7.396c-1.708,0-3.092-1.384-3.092-3.093v-0.988c0-0.598,0.485-1.083,1.084-1.083h11.413
		c0.599,0,1.084,0.485,1.084,1.083v0.988C360.44,414.337,359.055,415.721,357.347,415.721"/>
	<rect x="407.536" y="415.721" fill="#3D3D3D" width="7.775" height="27.311"/>
	<rect x="349.761" y="415.721" fill="#66625B" width="7.776" height="4.088"/>
	<rect x="407.536" y="415.721" fill="#66625B" width="7.775" height="4.088"/>
	<path fill="#2B2823" d="M415.123,415.721h-7.396c-1.708,0-3.092-1.384-3.092-3.093v-0.988c0-0.598,0.485-1.083,1.083-1.083h11.413
		c0.599,0,1.084,0.485,1.084,1.083v0.988C418.215,414.337,416.83,415.721,415.123,415.721"/>
	<path fill="#1D1D1B" d="M403.219,506.169c0-1.891,1.532-3.421,3.42-3.421c1.891,0,3.422,1.53,3.422,3.421
		c0,1.89-1.531,3.42-3.422,3.42C404.751,509.589,403.219,508.059,403.219,506.169"/>
	<path fill="#1D1D1B" d="M361.854,506.169c0-1.891-1.532-3.421-3.421-3.421c-1.89,0-3.421,1.53-3.421,3.421
		c0,1.89,1.532,3.42,3.421,3.42C360.322,509.589,361.854,508.059,361.854,506.169"/>
	<path fill="#2D2D2D" d="M382.796,496.527c11.664,0.934,22.238,8.708,22.238,8.708h2.799c2.491,0,4.509-2.02,4.509-4.51
		c-11.664-10.108-29.236-11.664-29.236-11.664h-1.14c0,0-17.572,1.556-29.235,11.664c0,2.49,2.019,4.51,4.509,4.51h2.8
		c0,0,10.574-7.774,22.238-8.708H382.796z"/>
	<path fill="#1D1D1B" d="M385.958,511.456c0-1.891-1.532-3.421-3.421-3.421c-1.89,0-3.422,1.53-3.422,3.421
		c0,1.89,1.532,3.421,3.422,3.421C384.426,514.877,385.958,513.346,385.958,511.456"/>
	<path fill="#2D2D2D" d="M383.211,511.819h-1.348c-1.604,0-2.903-1.3-2.903-2.902v-12.353c0-1.138,0.922-2.06,2.06-2.06h3.035
		c1.137,0,2.059,0.922,2.059,2.06v12.353C386.113,510.52,384.814,511.819,383.211,511.819"/>
	<path fill="#3D3D3D" d="M382.536,492.64L382.536,492.64c-1.975,0-3.577-1.602-3.577-3.577v-34.885c0-1.977,1.602-3.578,3.577-3.578
		c1.976,0,3.577,1.602,3.577,3.578v34.885C386.113,491.038,384.512,492.64,382.536,492.64"/>
	<path fill="#66625B" d="M386.113,461.07v-6.893c0-1.977-1.601-3.578-3.577-3.578c-1.975,0-3.577,1.602-3.577,3.578v6.893H386.113z"
		/>
	<path fill="#3D3D3D" d="M384.199,445.521h-3.457c-1.015,0-1.837-0.823-1.837-1.837v-23.64c0-1.014,0.822-1.834,1.837-1.834h3.457
		c1.015,0,1.836,0.82,1.836,1.834v23.64C386.035,444.697,385.214,445.521,384.199,445.521"/>
	<path fill="#DADADA" d="M306.127,402.721h-6.372c0-0.627,0.509-1.137,1.137-1.137h4.097
		C305.617,401.584,306.127,402.094,306.127,402.721"/>
	<path fill="#C6C6C6" d="M310.87,405.539h-15.859c0-1.558,1.262-2.818,2.817-2.818h10.224
		C309.609,402.721,310.87,403.982,310.87,405.539"/>
	<path fill="#B3B2B2" d="M314.696,408.356h-23.511c0-1.557,1.262-2.816,2.818-2.816h17.875
		C313.434,405.539,314.696,406.8,314.696,408.356"/>
	<rect x="291.185" y="408.356" fill="#9D9D9C" width="23.511" height="0.801"/>
	<path fill="#3C3C3B" d="M314.915,409.753h-23.949c-0.165,0-0.297-0.133-0.297-0.298c0-0.164,0.133-0.299,0.297-0.299h23.949
		c0.165,0,0.298,0.135,0.298,0.299C315.213,409.62,315.08,409.753,314.915,409.753"/>
	<path fill="#DADADA" d="M303.181,404.878h-0.48c-0.31,0-0.562-0.12-0.562-0.267v1.243c0,0.146,0.251,0.267,0.562,0.267h0.48
		c0.31,0,0.562-0.119,0.562-0.267v-1.243C303.742,404.758,303.491,404.878,303.181,404.878"/>
	<path fill="#F6F6F6" d="M302.701,404.878h0.48c0.31,0,0.562-0.12,0.562-0.267c0-0.146-0.251-0.266-0.562-0.266h-0.48
		c-0.31,0-0.562,0.119-0.562,0.266S302.391,404.878,302.701,404.878"/>
	<path fill="#DADADA" d="M303.044,404.104h-0.205c-0.132,0-0.24-0.05-0.24-0.113v0.532c0,0.063,0.108,0.113,0.24,0.113h0.205
		c0.132,0,0.24-0.05,0.24-0.113v-0.532C303.283,404.055,303.175,404.104,303.044,404.104"/>
	<path fill="#F6F6F6" d="M302.838,404.104h0.205c0.132,0,0.24-0.05,0.24-0.113c0-0.062-0.107-0.111-0.24-0.111h-0.205
		c-0.132,0-0.24,0.051-0.24,0.111C302.598,404.055,302.706,404.104,302.838,404.104"/>
	<path fill="#B3B2B2" d="M302.87,402.279c-0.6,0-1.086-0.177-1.086-0.774c0-3.5-1.258-5.604-2.851-8.268
		c-1.437-2.4-3.065-5.123-4.172-9.456c-1.191-4.658-0.753-8.407,1.302-11.141c3.028-4.029,8.407-4.243,8.634-4.25
		c0.596-0.02,1.101,0.452,1.119,1.052c0.019,0.6-0.45,1.101-1.048,1.118c-0.047,0.003-4.588,0.201-6.979,3.396
		c-1.631,2.181-1.942,5.305-0.924,9.286c1.03,4.025,2.572,6.604,3.932,8.879c1.695,2.835,3.16,5.281,3.16,9.382
		C303.956,402.103,303.469,402.279,302.87,402.279"/>
	<path fill="#9D9D9C" d="M304.498,370.794c-0.736-0.206-0.657-2.714,0.466-2.714c0.685,0,2.108,0.121,2.108,0.121
		s-0.809,2.166-0.615,3.098C306.457,371.299,305.022,370.941,304.498,370.794"/>
	<path fill="#929292" d="M308.092,375.164L308.092,375.164c-1.278-0.723-2.114-2.03-2.228-3.493l-0.007-0.09
		c-0.105-1.336,0.403-2.646,1.381-3.561l0.17-0.159c0.966-0.902,2.287-1.325,3.597-1.146l1.761,0.235L308.092,375.164z"/>
	<path fill="#DADADA" d="M334.621,376.715h-30.764c-0.239,0-0.432,0.193-0.432,0.432c0,0.239,0.193,0.433,0.432,0.433h30.764
		c0.238,0,0.432-0.192,0.432-0.433C335.052,376.91,334.859,376.715,334.621,376.715"/>
	<path fill="#D0D0D0" d="M334.216,376.715h-29.955c0-1.191,0.966-2.157,2.158-2.157h25.638
		C333.251,374.558,334.216,375.523,334.216,376.715"/>
	<path fill="#C6C6C6" d="M332.112,374.558h-25.746c0-1.143,0.926-2.068,2.068-2.068h21.61
		C331.186,372.489,332.112,373.415,332.112,374.558z"/>
	<path fill="#BCBCBC" d="M330.044,372.489h-21.61c0-1.142,0.926-2.066,2.068-2.066h17.475
		C329.118,370.422,330.044,371.348,330.044,372.489"/>
	<path fill="#B3B2B2" d="M328.234,370.422h-17.991v-0.014c0-1.135,0.92-2.056,2.056-2.056h13.879c1.136,0,2.056,0.921,2.056,2.056
		V370.422z"/>
	<path fill="#A8A8A7" d="M326.406,368.354h-14.335v-0.039c0-1.121,0.909-2.028,2.029-2.028h10.277c1.121,0,2.029,0.907,2.029,2.028
		V368.354z"/>
	<path fill="#9D9D9C" d="M324.641,366.285h-10.805v-0.024c0-1.128,0.916-2.043,2.044-2.043h6.717c1.129,0,2.043,0.915,2.043,2.043
		L324.641,366.285L324.641,366.285z"/>
	<polygon fill="#FFFFFF" points="313.863,296.707 326.771,311.74 308.189,308.285 	"/>
	<path fill="#FFFFFF" d="M289.844,315.717c-12.263-3.244-19.574-15.814-16.33-28.078c3.245-12.263,15.815-19.574,28.079-16.329
		c12.263,3.244,19.574,15.815,16.329,28.078C314.678,311.65,302.107,318.961,289.844,315.717"/>
	<path fill="#008AB5" d="M308.877,287.611l-10.733-8.715c-1.092-0.887-2.656-0.887-3.748,0l-10.745,8.725
		c0.009,0.025,0.009,0.025,0.018,0.051h25.187C308.866,287.641,308.866,287.641,308.877,287.611"/>
	<path fill="#C5C4E0" d="M285.971,306.125h20.596c1.282,0,2.321-1.039,2.321-2.321v-13.812c0-1.283-1.039-2.322-2.321-2.322h-20.596
		c-1.282,0-2.321,1.039-2.321,2.322v13.812C283.651,305.086,284.69,306.125,285.971,306.125"/>
	<path fill="#008AB5" d="M306.568,307.168h-20.596c-1.855,0-3.365-1.51-3.365-3.364v-13.812c0-1.855,1.51-3.365,3.365-3.365h20.596
		c1.855,0,3.365,1.51,3.365,3.365v13.812C309.933,305.66,308.423,307.168,306.568,307.168"/>
	<rect x="286.314" y="281.77" fill="#FFFFFF" width="19.9" height="20.68"/>
	<rect x="286.314" y="281.77" fill="none" stroke="#00AFA6" stroke-width="2" stroke-miterlimit="10" width="19.9" height="20.68"/>
	<path fill="#008AB5" d="M308.888,300.625v-9.773l-9.094,5.711l-0.786,0.493h-0.495l-4.424,0.001h-0.557l-0.751-0.473l-9.13-5.733
		v8.052C292.063,298.6,300.476,299.811,308.888,300.625"/>
	<path fill="#EFEFEF" d="M308.888,303.645v-11.826l-9.094,5.711l8.756,7.361C308.764,304.523,308.888,304.099,308.888,303.645"/>
	<path fill="#EFEFEF" d="M283.651,291.818v11.826c0,0.469,0.133,0.906,0.359,1.28l8.771-7.374L283.651,291.818z"/>
	<path fill="#EFEFEF" d="M294.089,298.022l-9.221,7.753c0.371,0.221,0.802,0.35,1.264,0.35h20.277c0.477,0,0.921-0.137,1.3-0.37
		l-9.195-7.731L294.089,298.022L294.089,298.022z"/>
	<path fill="#008AB5" d="M284.01,304.925l-0.735,0.618l0.774,0.92l0.818-0.688C284.516,305.566,284.221,305.274,284.01,304.925"/>
	<path fill="#008AB5" d="M293.531,298.023l-0.751-0.473l-8.77,7.374c0.211,0.351,0.506,0.642,0.857,0.851l9.221-7.752H293.531z"/>
	<path fill="#008AB5" d="M309.326,305.543l-0.776-0.652c-0.206,0.354-0.495,0.648-0.842,0.863l0.844,0.709L309.326,305.543z"/>
	<path fill="#008AB5" d="M308.55,304.891l-8.755-7.361l-0.787,0.493h-0.495l9.195,7.731
		C308.055,305.539,308.344,305.242,308.55,304.891"/>
	<polygon fill="#FFFFFF" points="452.706,301.598 443.97,315.57 458.816,310.408 	"/>
	<path fill="#FFFFFF" d="M474.829,314.23c9.678-4.199,14.12-15.447,9.921-25.126c-4.198-9.678-15.447-14.12-25.125-9.921
		c-9.678,4.198-14.12,15.447-9.921,25.125C453.901,313.986,465.15,318.429,474.829,314.23"/>
	<path fill="#008AB5" d="M475.148,297.721h-11.864c-0.648,0-1.179-0.53-1.179-1.18c0-0.646,0.53-1.178,1.179-1.178h11.864
		c0.648,0,1.179,0.53,1.179,1.178C476.327,297.19,475.797,297.721,475.148,297.721"/>
	<path fill="#008AB5" d="M472.476,306.248h-10.687c-0.491,0-0.919-0.33-1.044-0.805l-2.566-9.798h-3.053
		c-0.596,0-1.079-0.483-1.079-1.079s0.483-1.078,1.079-1.078h3.886c0.49,0,0.919,0.332,1.043,0.805l2.566,9.799h8.902l0.851-6.715
		c0.075-0.592,0.614-1.008,1.206-0.936c0.591,0.075,1.01,0.615,0.935,1.206l-0.969,7.657
		C473.478,305.845,473.02,306.248,472.476,306.248"/>
	<path fill="#6FCACB" d="M464.459,308.81c0,0.709-0.574,1.284-1.283,1.284s-1.284-0.575-1.284-1.284
		c0-0.708,0.575-1.282,1.284-1.282S464.459,308.102,464.459,308.81"/>
	<path fill="#6FCACB" d="M472.015,308.81c0,0.709-0.574,1.284-1.283,1.284s-1.283-0.575-1.283-1.284
		c0-0.708,0.574-1.282,1.283-1.282S472.015,308.102,472.015,308.81"/>
	<path fill="#6FCACB" d="M471.049,300.408h-7.556c-0.298,0-0.54-0.24-0.54-0.539c0-0.297,0.242-0.539,0.54-0.539h7.556
		c0.298,0,0.54,0.242,0.54,0.539C471.589,300.168,471.347,300.408,471.049,300.408"/>
	<path fill="#6FCACB" d="M469.97,302.568h-5.396c-0.299,0-0.54-0.242-0.54-0.539c0-0.3,0.241-0.541,0.54-0.541h5.396
		c0.298,0,0.54,0.241,0.54,0.541C470.509,302.326,470.268,302.568,469.97,302.568"/>
	<polygon fill="#FFAF10" points="472.801,285.218 466.896,293.052 460.992,285.218 	"/>
	<polygon fill="#FFFFFF" points="498.107,264.667 489.882,272.511 502.758,271.35 	"/>
	<path fill="#FFFFFF" d="M514.92,274.231c7.343-3.199,10.702-11.745,7.502-19.088c-3.199-7.343-11.745-10.702-19.088-7.502
		s-10.702,11.745-7.503,19.087C499.03,274.072,507.576,277.431,514.92,274.231"/>
	<path fill="#6FCACB" d="M511.945,257.329c0,3.25-2.636,5.885-5.886,5.885s-5.884-2.635-5.884-5.885s2.634-5.885,5.884-5.885
		S511.945,254.079,511.945,257.329"/>
	<polygon fill="#6FCACB" points="511.381,258.881 514.557,257.239 511.381,255.469 	"/>
	<path fill="#FFFFFF" d="M506.796,257.329c0,0.346-0.271,0.637-0.68,0.637c-0.399,0-0.668-0.292-0.668-0.637
		c0-0.356,0.27-0.647,0.668-0.647C506.525,256.682,506.796,256.973,506.796,257.329"/>
	<path fill="#FFFFFF" d="M509.177,257.329c0,0.346-0.27,0.637-0.68,0.637c-0.399,0-0.669-0.292-0.669-0.637
		c0-0.356,0.27-0.647,0.669-0.647C508.908,256.682,509.177,256.973,509.177,257.329"/>
	<path fill="#FFFFFF" d="M504.42,257.329c0,0.346-0.281,0.637-0.691,0.637c-0.388,0-0.669-0.292-0.669-0.637
		c0-0.356,0.281-0.647,0.669-0.647C504.139,256.682,504.42,256.973,504.42,257.329"/>
	<polygon fill="#FFD400" points="508.13,267.493 504.955,265.093 508.13,263.242 	"/>
	<polygon fill="none" stroke="#FFD400" stroke-width="2" stroke-miterlimit="10" points="508.13,267.493 504.955,265.093 
		508.13,263.242 	"/>
	<path fill="#FFD400" d="M518.364,265.373c0,2.955-2.396,5.349-5.35,5.349c-2.955,0-5.35-2.394-5.35-5.349
		c0-2.954,2.395-5.349,5.35-5.349C515.969,260.024,518.364,262.418,518.364,265.373"/>
	<circle fill="none" stroke="#FFD400" stroke-width="2" stroke-miterlimit="10" cx="513.015" cy="265.373" r="5.349"/>
	<path fill="#FFFFFF" d="M512.905,264.618c0.398,0,0.669,0.341,0.669,0.756c0,0.403-0.271,0.744-0.669,0.744
		c-0.41,0-0.681-0.34-0.681-0.744C512.226,264.958,512.495,264.618,512.905,264.618"/>
	<path fill="#FFFFFF" d="M510.523,264.618c0.399,0,0.668,0.341,0.668,0.756c0,0.403-0.27,0.744-0.668,0.744
		c-0.41,0-0.68-0.34-0.68-0.744C509.844,264.958,510.113,264.618,510.523,264.618"/>
	<path fill="#FFFFFF" d="M515.292,264.618c0.389,0,0.669,0.341,0.669,0.756c0,0.403-0.28,0.744-0.669,0.744
		c-0.409,0-0.69-0.34-0.69-0.744C514.602,264.958,514.883,264.618,515.292,264.618"/>
	<polygon fill="#FFFFFF" points="460.134,378.749 447.808,374.552 458.888,370.555 	"/>
	<path fill="#FFFFFF" d="M479.7,362.59c6.946,4.271,9.115,13.364,4.846,20.311c-4.271,6.946-13.363,9.116-20.31,4.848
		c-6.947-4.271-9.117-13.364-4.847-20.312S472.753,358.32,479.7,362.59"/>
	<path fill="#FFAF10" d="M471.625,382.43c0,1.311-1.246,2.374-2.783,2.374c-1.536,0-2.782-1.063-2.782-2.374
		s1.246-2.374,2.782-2.374C470.379,380.056,471.625,381.119,471.625,382.43"/>
	<polygon fill="#FFAF10" points="471.296,383.506 471.05,374.17 477.329,374.17 476.176,377.12 471.625,377.12 	"/>
	<rect x="471.05" y="374.17" fill="#FFAF10" width="0.575" height="8.336"/>
	<path fill="#6FCACB" d="M481.269,376.652l-1.609-0.456c0.209-0.739,0.314-1.511,0.314-2.29c0-4.445-3.465-8.062-7.725-8.062
		c-4.259,0-7.726,3.617-7.726,8.062c0,0.729,0.094,1.451,0.276,2.146l-1.618,0.427c-0.221-0.834-0.332-1.7-0.332-2.573
		c0-5.368,4.216-9.736,9.398-9.736s9.398,4.368,9.398,9.736C481.648,374.84,481.521,375.764,481.269,376.652"/>
	<path fill="#6FCACB" d="M464.502,377.252c0,1.619-0.927,2.931-2.07,2.931s-2.069-1.312-2.069-2.931c0-1.617,0.927-2.93,2.069-2.93
		C463.575,374.323,464.502,375.635,464.502,377.252"/>
	<path fill="#6FCACB" d="M479.928,377.254c0-1.618,0.927-2.931,2.07-2.931c1.143,0,2.07,1.312,2.07,2.931
		c0,1.617-0.928,2.929-2.07,2.929C480.854,380.183,479.928,378.871,479.928,377.254"/>
	<path fill="#23A3B0" d="M463.199,381.685L463.199,381.685c-0.86,0-1.564-0.704-1.564-1.564v-5.732c0-0.86,0.704-1.564,1.564-1.564
		s1.563,0.704,1.563,1.564v5.732C464.763,380.98,464.06,381.685,463.199,381.685"/>
	<path fill="#23A3B0" d="M481.23,372.822L481.23,372.822c0.86,0,1.564,0.704,1.564,1.564v5.732c0,0.86-0.704,1.564-1.564,1.564
		s-1.563-0.704-1.563-1.564v-5.732C479.666,373.526,480.37,372.822,481.23,372.822"/>
	<path fill="#FFFFFF" d="M550.177,214.644c8.861-5.447,11.629-17.046,6.183-25.907c-5.447-8.861-17.047-11.628-25.907-6.182
		c-8.861,5.447-11.628,17.046-6.183,25.907C529.717,217.324,541.316,220.091,550.177,214.644"/>
	<path fill="#FFD400" d="M533.38,206.92c0-0.323,0.154-0.631,0.424-0.843c1.722-1.354,2.793-4.392,2.793-7.931
		c0-1.937,1.73-3.51,3.86-3.51c2.126,0,3.859,1.573,3.859,3.51c0,3.539,1.068,6.577,2.792,7.931c0.268,0.211,0.425,0.52,0.425,0.843
		H533.38z"/>
	<path fill="none" stroke="#FFD400" stroke-width="2" stroke-miterlimit="10" d="M533.38,206.92c0-0.323,0.154-0.631,0.424-0.843
		c1.722-1.354,2.793-4.392,2.793-7.931c0-1.937,1.73-3.51,3.86-3.51c2.126,0,3.859,1.573,3.859,3.51
		c0,3.539,1.068,6.577,2.792,7.931c0.268,0.211,0.425,0.52,0.425,0.843H533.38z"/>
	<path fill="#FFD400" d="M533.237,207.666h14.438c0.579,0,1.053-0.474,1.053-1.053c0-0.579-0.474-1.053-1.053-1.053h-14.438
		c-0.579,0-1.054,0.474-1.054,1.053C532.184,207.191,532.658,207.666,533.237,207.666"/>
	<path fill="#FFD400" d="M539.146,208.948c-0.723,0.724-0.723,1.896,0,2.62c0.724,0.723,1.896,0.723,2.619,0
		c0.725-0.724,0.725-1.896,0-2.62C541.043,208.225,539.87,208.225,539.146,208.948"/>
	
		<line fill="none" stroke="#FFD400" stroke-width="2" stroke-linecap="round" stroke-miterlimit="10" x1="548.729" y1="196.56" x2="553.911" y2="193.834"/>
	
		<line fill="none" stroke="#FFD400" stroke-width="2" stroke-linecap="round" stroke-miterlimit="10" x1="545.781" y1="192.951" x2="548.729" y2="188.236"/>
	
		<line fill="none" stroke="#FFD400" stroke-width="2" stroke-linecap="round" stroke-miterlimit="10" x1="531.9" y1="196.56" x2="526.719" y2="193.834"/>
	
		<line fill="none" stroke="#FFD400" stroke-width="2" stroke-linecap="round" stroke-miterlimit="10" x1="534.848" y1="192.951" x2="531.9" y2="188.236"/>
	
		<line fill="none" stroke="#FFD400" stroke-width="2" stroke-linecap="round" stroke-miterlimit="10" x1="540.441" y1="190.593" x2="540.441" y2="184.077"/>
	<polygon fill="#FFFFFF" points="388.779,287.701 385.646,301.328 379.827,289.326 	"/>
	<path fill="#FFFFFF" d="M373.339,286.904c-7.626-4.688-10.008-14.669-5.32-22.294s14.67-10.007,22.295-5.32
		c7.626,4.688,10.008,14.669,5.32,22.295C390.947,289.211,380.965,291.593,373.339,286.904"/>
	<polygon fill="#FFD400" points="382.18,260.346 384.38,264.803 389.299,265.517 385.739,268.987 386.58,273.886 382.18,271.573 
		377.78,273.886 378.621,268.987 375.062,265.517 379.98,264.803 	"/>
	<path fill="#6FCACB" d="M388.711,276.043c-0.03-0.52-0.5-0.918-1.044-0.887c-0.544,0.031-0.965,0.482-0.936,1.001l0.126,2.202
		l-0.318-0.033l-0.179-3.117c-0.03-0.519-0.5-0.918-1.044-0.887c-0.544,0.032-0.965,0.482-0.936,1.001l0.161,2.796l-0.318-0.033
		l-0.244-4.25c-0.03-0.52-0.5-0.918-1.044-0.887s-0.966,0.481-0.936,1.001l0.227,3.931l-0.318-0.033l-0.39-6.777
		c-0.03-0.52-0.5-0.918-1.044-0.887c-0.544,0.031-0.965,0.481-0.936,1.001l0.429,7.454c-0.012,0.496-0.082,1.226-0.153,2.077
		l-0.635-2.119c-0.133-0.443-0.623-0.7-1.087-0.57c-0.465,0.129-0.737,0.598-0.604,1.041c0,0,0.873,2.889,0.885,2.917
		c0.007,0.028,0.005,0.049,0.014,0.081c0,0,0.917,4.864,4.605,4.652l2.154-0.124c0.908-0.052,4.192-0.241,3.968-4.131
		L388.711,276.043z"/>
	<path fill="#85CAF9" d="M353.309,298.408l-5.744-2.562l4.645-10.834l-6.923,9.818l-4.998-2.229l13.353-9.864L353.309,298.408z
		 M345.894,300.097l-0.844-3.708l3.202,1.221L345.894,300.097z"/>
	<path fill="#85CAF9" d="M506.52,218.882l-5.744-2.563l4.646-10.835l-6.923,9.819l-4.998-2.23l13.353-9.864L506.52,218.882z
		 M499.105,220.57l-0.844-3.708l3.202,1.221L499.105,220.57z"/>
	<g>
		<g>
			<path fill="#85CAF9" d="M406.953,307.095l-0.417,0.429l0.905,0.879l0.417-0.429c0.395,0.265,0.847,0.447,1.334,0.528l0.008,0.599
				l1.262-0.019l-0.009-0.598c0.483-0.098,0.93-0.294,1.318-0.568l0.429,0.416l0.879-0.904l-0.429-0.417
				c0.263-0.396,0.447-0.849,0.529-1.333l0.599-0.01l-0.019-1.262l-0.598,0.01c-0.096-0.484-0.293-0.932-0.568-1.318l0.417-0.43
				l-0.905-0.879l-0.417,0.43c-0.395-0.264-0.848-0.447-1.334-0.529l-0.009-0.598l-1.261,0.02l0.009,0.598
				c-0.484,0.098-0.93,0.293-1.318,0.568l-0.429-0.416l-0.878,0.904l0.429,0.416c-0.263,0.396-0.447,0.848-0.529,1.333l-0.599,0.011
				l0.019,1.262l0.599-0.01C406.482,306.261,406.678,306.707,406.953,307.095 M409.736,302.545c1.409-0.021,2.568,1.104,2.588,2.514
				c0.021,1.41-1.105,2.568-2.514,2.59c-1.409,0.021-2.568-1.104-2.589-2.515C407.201,303.725,408.326,302.565,409.736,302.545"/>
			<path fill="#85CAF9" d="M416.859,299.645l0.375-0.166l-0.411-0.926l-0.373,0.167c-0.166-0.226-0.367-0.417-0.6-0.571l0.146-0.381
				l-0.945-0.363l-0.146,0.381c-0.275-0.041-0.556-0.035-0.828,0.021l-0.166-0.374l-0.925,0.411l0.166,0.374
				c-0.225,0.165-0.417,0.366-0.57,0.601l-0.381-0.146l-0.364,0.943l0.381,0.146c-0.042,0.277-0.035,0.555,0.021,0.828l-0.373,0.166
				l0.41,0.926l0.374-0.166c0.166,0.227,0.367,0.417,0.6,0.571l-0.147,0.381l0.945,0.362l0.147-0.379
				c0.274,0.039,0.555,0.033,0.827-0.021l0.167,0.374l0.925-0.411l-0.166-0.374c0.225-0.165,0.417-0.366,0.571-0.601l0.382,0.146
				l0.363-0.943l-0.382-0.147C416.923,300.195,416.916,299.918,416.859,299.645 M415.191,301.562
				c-0.197,0.087-0.405,0.134-0.618,0.138c-0.635,0.008-1.211-0.36-1.469-0.94c-0.354-0.797,0.006-1.731,0.804-2.086
				c0.196-0.089,0.404-0.134,0.617-0.138c0.635-0.008,1.211,0.36,1.469,0.94C416.347,300.271,415.987,301.207,415.191,301.562"/>
		</g>
	</g>
	<g>
		<g>
			<path fill="#85CAF9" d="M501.367,286.263c1.479-1.479,3.737-1.688,5.446-0.646c-0.579,0.573-1.247,1.242-1.247,1.242
				c-0.466,0.562,0.059,0.885,0.324,0.875h3.123c0.164,0,0.299,0,0.299,0h0.302h0.604c0.165,0,0.299-0.134,0.3-0.3v-4.292
				c0.02-0.393-0.412-0.773-0.856-0.335c0,0-0.738,0.718-1.246,1.222c-2.603-1.9-6.269-1.685-8.617,0.666
				c-1.372,1.371-2.011,3.189-1.935,4.984h2.221C500.007,288.453,500.428,287.201,501.367,286.263"/>
			<path fill="#85CAF9" d="M508.753,288.934c0.079,1.229-0.342,2.48-1.281,3.42c-1.479,1.479-3.739,1.688-5.447,0.645
				c0.579-0.572,1.247-1.241,1.247-1.241c0.468-0.562-0.057-0.886-0.323-0.876l-3.121,0.001c-0.165,0-0.3-0.001-0.3-0.001h-0.302
				h-0.604c-0.165,0-0.3,0.135-0.3,0.3v4.293c-0.019,0.392,0.413,0.772,0.857,0.334c0,0,0.736-0.718,1.246-1.221
				c2.603,1.899,6.269,1.686,8.618-0.664c1.37-1.371,2.01-3.19,1.935-4.986h-2.222v-0.003H508.753z"/>
		</g>
	</g>
	<g>
		<g>
			<path fill="#85CAF9" d="M317.48,331.998c-1.843,0-3.336,1.493-3.336,3.337c0,1.843,3.336,6.133,3.336,6.133
				s3.337-4.29,3.337-6.133S319.322,331.998,317.48,331.998z M317.48,335.875c-0.573,0-1.037-0.464-1.037-1.037
				c0-0.572,0.464-1.037,1.037-1.037c0.573,0,1.038,0.465,1.038,1.037C318.517,335.411,318.052,335.875,317.48,335.875z"/>
		</g>
	</g>
	<path fill="#85CAF9" d="M492.266,351.888l0.267-0.291c0.411-0.45,0.38-1.149-0.07-1.562l-3.655-3.341
		c-0.083-0.077-0.177-0.138-0.273-0.184c0.465-1.022,0.545-2.234,0.127-3.389c-0.833-2.3-3.329-3.511-5.563-2.7
		s-3.376,3.338-2.543,5.637s3.328,3.512,5.563,2.702c0.266-0.097,0.517-0.219,0.75-0.361c0.051,0.079,0.11,0.151,0.183,0.218
		l3.656,3.341C491.155,352.369,491.854,352.338,492.266,351.888z M481.851,345.589c-0.575-1.585,0.193-3.316,1.714-3.868
		c1.521-0.551,3.221,0.288,3.794,1.874c0.574,1.585-0.191,3.317-1.714,3.868C484.124,348.015,482.425,347.176,481.851,345.589z"/>
	<path fill="#85CAF9" d="M583.167,179.405l0.266-0.291c0.412-0.45,0.38-1.149-0.069-1.562l-3.655-3.34
		c-0.083-0.077-0.177-0.138-0.274-0.184c0.465-1.022,0.545-2.234,0.127-3.389c-0.833-2.299-3.329-3.51-5.562-2.7
		c-2.235,0.811-3.376,3.338-2.543,5.637s3.328,3.512,5.562,2.702c0.267-0.097,0.518-0.219,0.75-0.361
		c0.052,0.079,0.111,0.151,0.184,0.218l3.655,3.34C582.056,179.886,582.755,179.854,583.167,179.405z M572.753,173.105
		c-0.575-1.585,0.193-3.316,1.714-3.868c1.521-0.551,3.22,0.288,3.794,1.874c0.574,1.585-0.192,3.317-1.714,3.868
		C575.025,175.532,573.326,174.693,572.753,173.105z"/>
</g>
</svg>
