<?xml version="1.0" encoding="utf-8"?>
<!-- Generator: Adobe Illustrator 15.0.0, SVG Export Plug-In . SVG Version: 6.00 Build 0)  -->
<!DOCTYPE svg PUBLIC "-//W3C//DTD SVG 1.1//EN" "http://www.w3.org/Graphics/SVG/1.1/DTD/svg11.dtd">
<svg version="1.1" id="Layer_1" xmlns="http://www.w3.org/2000/svg" xmlns:xlink="http://www.w3.org/1999/xlink" x="0px" y="0px"
	 width="1024px" height="1366px" viewBox="0 0 1024 1366" enable-background="new 0 0 1024 1366" xml:space="preserve">
<g id="Layer_1_1_">
	<rect x="-27.242" fill="#CCEDFF" width="1093.125" height="1357.823"/>
	<g>
		<rect x="-27.242" y="1151.266" fill="#80939E" width="1093.125" height="222.447"/>
	</g>
</g>
<g id="Layer_2">
	<path fill="#FFFFFF" d="M303.588,118.199c-2.572,0-5.098,0.169-7.572,0.472c0-0.16,0.015-0.316,0.015-0.472
		c0-28.016-25.175-50.733-56.227-50.733c-8.779,0-17.092,1.821-24.491,5.059c-10.138-20.986-33.316-35.66-60.312-35.66
		c-34.352,0-62.539,23.766-65.493,54.067c-2.654-0.304-5.355-0.479-8.103-0.479c-35.152,0-63.646,25.708-63.646,57.416v20.483h4.187
		h118.913h90.506h16.626h111.19C359.183,140.649,334.292,118.199,303.588,118.199"/>
	<path fill="#FFFFFF" d="M721.199,376.728c2.387,0,4.737,0.175,7.039,0.49c0-0.166-0.011-0.327-0.011-0.49
		c0-28.928,23.414-52.379,52.306-52.379c8.169,0,15.898,1.876,22.789,5.22c9.425-21.668,30.997-36.825,56.104-36.825
		c31.959,0,58.176,24.54,60.921,55.832c2.474-0.312,4.984-0.494,7.541-0.494c32.696,0,59.207,26.543,59.207,59.286v21.152h-3.893
		H872.576h-84.189H772.92H669.483C669.48,399.916,692.636,376.728,721.199,376.728"/>
	<path fill="#B0D9EA" d="M1065.883,923.053h-22.977v-74.027H984.3v40.1h-75.572v-70.947h-15.426v-15.421h-41.643v13.879H839.32
		v66.32h-19.738v-53.497c0.056-6.008,0.062-12.327,0-18.866v-3.791h-0.04c-0.94-69.668-9.943-161.304-51.169-156.736
		c-33.206,3.679-40.075,90.841-40.488,156.736h-0.088v73.069h-24.196v-80.202h-97.165v78.66h-58.61v37.016h-18.508V754.942h-16.966
		v-43.185h-6.172v43.185h-20.047v161.943H432.15v-38.557h-41.642V859.82h-55.523v20.051h-58.608v100.248h-33.932v152.688H100.554
		v16.968l965.329,1.837V923.053z"/>
	<polygon fill="#83C5DB" points="1040.859,1074.596 1040.859,1030.644 1013.096,1030.644 1013.096,1049.149 965.672,1049.149 
		965.672,1007.505 918.245,1007.505 918.245,939.26 902.052,939.26 902.052,927.693 860.408,927.693 860.408,939.26 841.9,939.26 
		841.9,1007.505 795.633,1007.505 795.633,975.118 699.623,975.118 699.623,936.945 559.659,936.945 559.659,1029.485 
		432.418,1029.485 432.418,999.409 400.029,999.409 400.029,950.826 360.701,950.826 360.701,931.161 341.037,931.161 
		341.037,950.826 301.708,950.826 301.708,1047.992 204.543,1047.992 204.543,1024.856 140.923,1024.856 140.923,985.528 
		107.377,985.528 107.377,947.356 94.653,947.356 94.653,933.474 -4.825,933.474 -4.825,947.356 -17.547,947.356 -17.547,1044.519 
		-27.242,1044.519 -27.242,1154.41 1065.883,1154.41 1065.883,1074.596 	"/>
	<polygon fill="#83C5DB" points="1065.883,934.444 1062.111,934.444 1062.111,948.324 1049.391,948.324 1049.391,1045.49 
		1020.473,1045.49 1020.473,974.931 990.395,974.931 990.395,1045.49 932.561,1045.49 932.561,1010.788 917.522,1010.788 
		917.522,992.283 819.2,992.283 819.2,1010.788 804.162,1010.788 804.162,1045.49 774.087,1045.49 774.087,948.324 731.289,948.324 
		731.289,1045.49 681.548,1045.49 681.548,1138.03 584.384,1138.03 584.384,1155.381 1065.883,1155.381 	"/>
	<rect x="188.167" y="-6.037" opacity="0.91" fill="#7D9BAF" enable-background="new    " width="15.176" height="1162.574"/>
	<rect x="785.086" y="-6.037" opacity="0.91" fill="#7D9BAF" enable-background="new    " width="15.176" height="1162.574"/>
	<rect x="-27.242" y="705.817" opacity="0.91" fill="#7D9BAF" enable-background="new    " width="1093.125" height="15.177"/>
</g>
<g id="Layer_3">
	<polygon fill="#75868E" points="426.646,1225.13 276.2,1225.13 273.94,1225.13 123.495,1225.13 51.296,1280.109 273.94,1280.109 
		276.2,1280.109 498.841,1280.109 	"/>
	<rect x="92.277" y="1084.104" fill="#AF9D7D" width="371.28" height="14.677"/>
	<path fill="#AD9566" d="M119.59,1262.509h-10.231c-0.627,0-1.136-0.514-1.136-1.136v-162.487h12.502v162.487
		C120.725,1261.999,120.217,1262.509,119.59,1262.509"/>
	<path fill="#AD9566" d="M446.476,1262.509h-10.231c-0.626,0-1.135-0.514-1.135-1.136v-162.487h12.504v162.487
		C447.613,1261.999,447.104,1262.509,446.476,1262.509"/>
	<rect x="108.223" y="1098.886" fill="#9B855F" width="12.502" height="10.405"/>
	<rect x="435.108" y="1098.886" fill="#9B855F" width="12.504" height="10.405"/>
	<path fill="#96805A" d="M141.722,1239.365h-8.471c-0.628,0-1.134-0.507-1.134-1.136v-139.448h10.742v139.448
		C142.858,1238.858,142.35,1239.365,141.722,1239.365"/>
	<path fill="#96805A" d="M422.582,1239.365h-8.471c-0.628,0-1.137-0.507-1.137-1.136v-139.448h10.742v139.448
		C423.716,1238.858,423.209,1239.365,422.582,1239.365"/>
	<path fill="#F6F6F6" d="M179.761,1084.104c0-1.426,1.161-2.586,2.583-2.586h124.146c1.427,0,2.584,1.159,2.584,2.586H179.761z"/>
	<path fill="#878787" d="M191.693,1081.518v-0.814c0-0.469-0.382-0.851-0.853-0.851h-4.77c-0.472,0-0.854,0.382-0.854,0.851v0.814
		H191.693z"/>
	<path fill="#878787" d="M199.864,1081.518v-0.814c0-0.469-0.383-0.851-0.855-0.851h-4.768c-0.474,0-0.854,0.382-0.854,0.851v0.814
		H199.864z"/>
	<path fill="#878787" d="M208.033,1081.518v-0.814c0-0.469-0.382-0.851-0.854-0.851h-4.77c-0.472,0-0.853,0.382-0.853,0.851v0.814
		H208.033z"/>
	<path fill="#878787" d="M216.2,1081.518v-0.814c0-0.469-0.382-0.851-0.853-0.851h-4.77c-0.472,0-0.855,0.382-0.855,0.851v0.814
		H216.2z"/>
	<path fill="#878787" d="M261.255,1081.518v-0.814c0-0.469-0.382-0.851-0.855-0.851h-41.653c-0.473,0-0.854,0.382-0.854,0.851v0.814
		H261.255z"/>
	<path fill="#878787" d="M269.422,1081.518v-0.814c0-0.469-0.383-0.851-0.853-0.851h-4.767c-0.473,0-0.855,0.382-0.855,0.851v0.814
		H269.422z"/>
	<path fill="#878787" d="M277.589,1081.518v-0.814c0-0.469-0.382-0.851-0.854-0.851h-4.769c-0.473,0-0.854,0.382-0.854,0.851v0.814
		H277.589z"/>
	<path fill="#878787" d="M285.471,1081.518v-0.814c0-0.469-0.382-0.851-0.852-0.851h-4.77c-0.47,0-0.854,0.382-0.854,0.851v0.814
		H285.471z"/>
	<path fill="#878787" d="M302.132,1081.518v-0.814c0-0.469-0.381-0.851-0.854-0.851h-4.767c-0.472,0-0.855,0.382-0.855,0.851v0.814
		H302.132z"/>
	<path fill="#878787" d="M293.642,1081.518v-0.814c0-0.469-0.384-0.851-0.855-0.851h-4.769c-0.471,0-0.852,0.382-0.852,0.851v0.814
		H293.642z"/>
	<rect x="251.639" y="1054.595" fill="#B3B2B2" width="39.923" height="27.771"/>
	<rect x="251.639" y="1054.595" fill="#878787" width="39.923" height="6.941"/>
	<path fill="#9D9D9C" d="M299.165,1084.104c-0.09-0.972-0.881-1.737-1.872-1.737h-51.382c-0.992,0-1.782,0.766-1.874,1.737H299.165z
		"/>
	<path fill="#1C1C1C" d="M359.205,1054.595H186.081c-4.474,0-8.1-3.629-8.1-8.101V937.247c0-4.473,3.625-8.1,8.1-8.1h173.124
		c4.472,0,8.099,3.627,8.099,8.1v109.247C367.304,1050.966,363.677,1054.595,359.205,1054.595"/>
	<path fill="#EDEDED" d="M177.981,1034.458v12.036c0,4.475,3.625,8.101,8.1,8.101h173.124c4.472,0,8.099-3.626,8.099-8.101v-12.036
		H177.981z"/>
	<path fill="#384F5E" d="M357.527,1029.771H187.759c-2.011,0-3.645-1.631-3.645-3.646v-85.576c0-2.013,1.634-3.646,3.645-3.646
		h169.769c2.013,0,3.644,1.634,3.644,3.646v85.576C361.171,1028.143,359.54,1029.771,357.527,1029.771"/>
	<path fill="#DADADA" d="M276.983,1044.528c0-2.4-1.944-4.343-4.34-4.343s-4.337,1.942-4.337,4.343c0,2.394,1.942,4.339,4.337,4.339
		C275.038,1048.867,276.983,1046.922,276.983,1044.528"/>
	<polygon fill="#E89970" points="235.658,1020.012 238.647,1019.586 237.521,1022.386 	"/>
	<rect x="292.961" y="1022.357" fill="#DADADA" width="2.357" height="0.53"/>
	<rect x="292.961" y="1019.398" fill="#DADADA" width="2.357" height="0.533"/>
	<rect x="292.961" y="1016.443" fill="#DADADA" width="2.357" height="0.53"/>
	<path fill="#75868E" d="M384.862,1257.512c0-10.407-50.927-18.844-113.749-18.844c-62.822,0-113.75,8.437-113.75,18.844
		c0,10.409,50.928,18.846,113.75,18.846C333.937,1276.357,384.862,1267.921,384.862,1257.512"/>
	<path fill="#1F4056" d="M232.05,1129.946c0,0-17.939,3.804-20.294,9.241s-1.994,19.571,0.726,27.18
		c2.718,7.612,22.286,55.088,22.649,59.435c0,0,5.436,1.089,6.703,1.271c0,0-17.937,7.973-18.662,15.036
		c-0.726,7.066,35.696,5.075,40.408-3.441c0,0-2.9-8.88-5.073-11.598c0,0,1.63-2.535,1.268-3.623
		c-0.363-1.088-9.965-30.623-11.233-36.964c-1.269-6.341-6.705-19.392-3.443-22.108c3.262-2.718,25.73-3.26,25.73-3.26h0.803
		c0,0,22.471,0.544,25.733,3.26c3.26,2.72-2.175,15.768-3.444,22.108c-1.269,6.343-10.871,35.876-11.233,36.964
		c-0.363,1.088,1.267,3.623,1.267,3.623c-2.171,2.718-5.07,11.598-5.07,11.598c4.709,8.517,41.133,10.508,40.407,3.441
		c-0.726-7.067-18.664-15.036-18.664-15.036c1.27-0.183,6.704-1.271,6.704-1.271c0.363-4.347,19.932-51.821,22.649-59.435
		c2.719-7.608,3.081-21.74,0.724-27.18c-2.354-5.438-20.292-9.241-20.292-9.241s-8.381,7.539-37.735,7.539
		C243.321,1137.485,232.052,1129.946,232.05,1129.946"/>
	<path fill="#152E42" d="M330.702,1139.188c-2.354-5.438-20.292-9.241-20.292-9.241s-8.38,7.539-37.736,7.539
		c-29.353,0-40.624-7.539-40.624-7.539s-17.939,3.804-20.295,9.241c-2.354,5.438-1.993,19.572,0.725,27.18
		c1.381,3.866,7.105,18.011,12.454,31.565c7.631-3.741,16.913-5.334,24.871-6.529c-0.602-2.127-1.052-3.854-1.265-4.918
		c-1.268-6.341-6.705-19.391-3.443-22.109c3.262-2.717,25.73-3.259,25.73-3.259h0.805c0,0,22.47,0.545,25.732,3.259
		c3.26,2.721-2.176,15.769-3.445,22.109c-0.27,1.354-0.924,3.771-1.783,6.742c0.416,0.109,0.843,0.194,1.258,0.312
		c3.241,0.914,13.844,4.147,22.658,8.14c5.725-14.593,12.419-31.088,13.926-35.311
		C332.698,1158.76,333.06,1144.625,330.702,1139.188"/>
	<path fill="#575756" d="M241.834,1227.07c0,0-17.937,7.972-18.662,15.038c-0.726,7.065,35.696,5.073,40.408-3.441
		c0,0-2.9-8.88-5.075-11.598C258.505,1227.07,256.547,1229.335,241.834,1227.07"/>
	<path fill="#575756" d="M300.625,1227.07c-13.636,1.994-16.671,0-16.671,0c-2.173,2.718-5.073,11.598-5.073,11.598
		c4.711,8.517,41.133,10.508,40.408,3.441C318.563,1235.042,300.625,1227.07,300.625,1227.07"/>
	<path fill="#E8CAAA" d="M282.596,1012.21L282.596,1012.21c-0.409-2.037-0.364-9.466-0.364-9.466
		c6.522-4.803,8.788-16.127,8.788-16.127s3.081-3.986,3.26-6.522c0.184-2.54-1.631-3.443-1.631-3.443
		c0.491-14.953-4.616-23.872-10.79-26.673c-2.655-1.204-7.717-1.778-10.632-1.778c-2.913,0-7.978,0.571-10.631,1.778
		c-6.172,2.801-11.279,11.72-10.79,26.673c0,0-1.811,0.903-1.632,3.443c0.183,2.536,3.262,6.522,3.262,6.522
		s2.265,11.324,8.788,16.127c0,0,0.045,7.429-0.363,9.466C268.554,1014.204,274.757,1014.111,282.596,1012.21"/>
	<path fill="#E8CAAA" d="M292.652,976.652c0.492-14.952-4.615-23.87-10.789-26.673c-2.656-1.205-7.717-1.779-10.632-1.779
		c-2.914,0-7.978,0.574-10.632,1.779c-6.172,2.803-11.278,11.721-10.789,26.673c0,0-1.811,0.906-1.633,3.442
		c0.182,2.536,3.263,6.523,3.263,6.523s2.265,11.323,8.788,16.126c0,0,0.017,2.83-0.066,5.476c2.637,1.232,5.987,2.112,11.584,2.112
		c4.643,0,8.957-1.278,10.531-2.855c-0.058-2.407-0.044-4.732-0.044-4.732c6.522-4.803,8.79-16.126,8.79-16.126
		s3.082-3.987,3.26-6.523C294.464,977.555,292.652,976.652,292.652,976.652"/>
	<path fill="#231C11" d="M296.59,975.649c0.557-15.343-5.228-24.497-12.222-27.37c-3.005-1.236-8.738-1.822-12.041-1.822
		c-3.301,0-9.036,0.586-12.044,1.822c-6.991,2.874-12.773,12.027-12.219,27.37c0,0-0.043,3.007,0.113,4.445
		c0.153,1.443,1.733,5.784,1.733,5.784s2.565,11.618,9.956,16.551c0,0,5.17,3.902,11.942,3.902c6.773,0,12.979-3.902,12.979-3.902
		c7.388-4.929,9.956-16.551,9.956-16.551s1.231-4.646,1.384-5.856C296.283,978.812,296.59,975.649,296.59,975.649"/>
	<path fill="#F4BD31" d="M347.692,1074.319c-1.36-5.029-29.764-41.042-35.743-48.925c-5.979-7.878-23.783-9.512-23.783-9.512
		c0-1.769-5.571-3.668-5.571-3.668c-7.838,1.899-14.043,1.991-22.73,0c0,0-1.763,0.601-3.306,1.443
		c-1.198,0.651-2.266,1.451-2.266,2.222c0,0-17.801,1.637-23.783,9.511c-5.979,7.886-34.381,43.899-35.741,48.929
		c-1.358,5.027,1.659,9.804,6.251,10.326c5.98,0.68,17.261,1.812,21.881-1.087c0.629-0.396,2.143-1.838,3.975-3.711
		c1.098-1.12,2.31-2.396,3.514-3.688c3.207-3.45,6.351-7.026,7.099-8.185c0,0.006-0.281,3.492-0.697,8.341
		c-0.069,0.811-0.144,1.653-0.218,2.53c-0.075,0.874-0.155,1.777-0.238,2.696c-0.532,5.981-1.171,12.721-1.733,17.52
		c-0.13,1.107-0.256,2.111-0.375,2.979c-0.315,2.307-0.983,4.822-1.714,7.39c-0.73,2.571-1.524,5.189-2.09,7.714
		c-1.13,5.054-1.357,9.722,1.632,12.798c0,0,11.271,7.539,40.623,7.539c29.354,0,37.736-7.539,37.736-7.539
		c3.362-3.461,2.656-8.937,1.167-14.706c-0.496-1.923-1.08-3.879-1.625-5.806c-0.73-2.568-1.399-5.083-1.716-7.39
		c-0.119-0.867-0.245-1.871-0.373-2.979c-0.131-1.106-0.265-2.317-0.399-3.599c-0.091-0.854-0.182-1.739-0.271-2.647
		c-0.092-0.908-0.185-1.835-0.275-2.775c-0.182-1.878-0.361-3.806-0.534-5.696c-0.088-0.949-0.173-1.886-0.254-2.805
		c-0.164-1.84-0.318-3.609-0.458-5.227c-0.418-4.848-0.698-8.338-0.698-8.34c1.025,1.59,6.584,7.76,10.612,11.875
		c1.83,1.871,3.346,3.314,3.975,3.709c4.619,2.899,15.9,1.766,21.879,1.088c1.722-0.195,3.225-0.993,4.355-2.172
		c1.13-1.182,1.893-2.75,2.137-4.494C348.097,1076.814,348.031,1075.575,347.692,1074.319"/>
	<path fill="#7F7A6F" d="M288.167,1015.883c0-1.771-5.571-3.673-5.571-3.673c-7.838,1.901-14.042,1.994-22.73,0
		c0,0-5.572,1.901-5.572,3.673c0,0,4.79,1.9,17.021,1.9C283.546,1017.783,288.167,1015.883,288.167,1015.883"/>
	<path fill="#2D2D2D" d="M274.677,1135.744c37.328-0.723,29.718-36.238,27.905-47.835c-1.812-11.598,14.135-28.993,3.626-47.838
		c-10.511-18.842-34.428-19.569-34.428-19.569h-1.1c0,0-23.918,0.728-34.428,19.569c-10.512,18.845,5.436,36.24,3.623,47.838
		c-1.812,11.597-9.422,47.112,27.905,47.835H274.677z"/>
	<path fill="#2D2D2D" d="M325.139,1162.924H217.323c-5.178,0-9.376-4.194-9.376-9.374v-6.931c0-2.404,1.947-4.351,4.349-4.351
		h117.871c2.401,0,4.349,1.946,4.349,4.351v6.931C334.514,1158.729,330.315,1162.924,325.139,1162.924"/>
	<path fill="#2D2D2D" d="M334.514,1150.695v-4.076c0-2.404-1.947-4.351-4.349-4.351h-117.87c-2.401,0-4.349,1.946-4.349,4.351v4.076
		H334.514z"/>
	<rect x="213.944" y="1094.535" fill="#3D3D3D" width="13.592" height="47.733"/>
	<path fill="#2B2823" d="M227.204,1094.535h-12.927c-2.985,0-5.404-2.418-5.404-5.406v-1.727c0-1.046,0.848-1.893,1.895-1.893
		h19.948c1.047,0,1.895,0.847,1.895,1.893v1.727C232.61,1092.117,230.189,1094.535,227.204,1094.535"/>
	<rect x="314.924" y="1094.535" fill="#3D3D3D" width="13.588" height="47.733"/>
	<rect x="213.944" y="1094.535" fill="#66625B" width="13.592" height="7.145"/>
	<rect x="314.924" y="1094.535" fill="#66625B" width="13.588" height="7.145"/>
	<path fill="#2B2823" d="M328.185,1094.535h-12.927c-2.985,0-5.404-2.418-5.404-5.406v-1.727c0-1.046,0.848-1.893,1.893-1.893
		h19.948c1.046,0,1.895,0.847,1.895,1.893v1.727C333.589,1092.117,331.168,1094.535,328.185,1094.535"/>
	<path fill="#1D1D1B" d="M307.379,1252.621c0-3.306,2.678-5.98,5.977-5.98c3.306,0,5.981,2.675,5.981,5.98
		c0,3.302-2.675,5.976-5.981,5.976C310.057,1258.597,307.379,1255.923,307.379,1252.621"/>
	<path fill="#1D1D1B" d="M235.082,1252.621c0-3.306-2.678-5.98-5.979-5.98c-3.304,0-5.98,2.675-5.98,5.98
		c0,3.302,2.679,5.976,5.98,5.976C232.403,1258.597,235.082,1255.923,235.082,1252.621"/>
	<path fill="#2D2D2D" d="M271.684,1235.768c20.386,1.633,38.869,15.221,38.869,15.221h4.892c4.354,0,7.881-3.529,7.881-7.883
		c-20.387-17.666-51.1-20.386-51.1-20.386h-1.992c0,0-30.712,2.72-51.097,20.386c0,4.354,3.529,7.883,7.88,7.883h4.895
		c0,0,18.481-13.588,38.868-15.221H271.684z"/>
	<path fill="#1D1D1B" d="M277.21,1261.861c0-3.305-2.678-5.979-5.979-5.979c-3.305,0-5.981,2.675-5.981,5.979
		c0,3.303,2.676,5.979,5.981,5.979C274.532,1267.84,277.21,1265.164,277.21,1261.861"/>
	<path fill="#2D2D2D" d="M272.409,1262.495h-2.356c-2.804,0-5.074-2.271-5.074-5.072v-21.591c0-1.987,1.611-3.599,3.6-3.599h5.304
		c1.988,0,3.6,1.611,3.6,3.599v21.591C277.481,1260.224,275.21,1262.495,272.409,1262.495"/>
	<path fill="#3D3D3D" d="M271.229,1228.973L271.229,1228.973c-3.453,0-6.252-2.799-6.252-6.25v-60.974
		c0-3.453,2.799-6.253,6.252-6.253c3.453,0,6.252,2.8,6.252,6.253v60.974C277.481,1226.174,274.682,1228.973,271.229,1228.973"/>
	<path fill="#66625B" d="M277.481,1173.797v-12.048c0-3.453-2.799-6.253-6.252-6.253c-3.453,0-6.252,2.8-6.252,6.253v12.048H277.481
		z"/>
	<path fill="#3D3D3D" d="M274.137,1146.619h-6.042c-1.775,0-3.21-1.44-3.21-3.21v-41.318c0-1.771,1.435-3.205,3.21-3.205h6.042
		c1.772,0,3.208,1.434,3.208,3.205v41.318C277.345,1145.179,275.909,1146.619,274.137,1146.619"/>
	<path fill="#DADADA" d="M137.682,1071.812h-11.137c0-1.096,0.889-1.986,1.987-1.986h7.161
		C136.79,1069.826,137.682,1070.717,137.682,1071.812"/>
	<path fill="#C6C6C6" d="M145.972,1076.74h-27.719c0-2.724,2.206-4.928,4.923-4.928h17.87
		C143.768,1071.812,145.972,1074.019,145.972,1076.74"/>
	<path fill="#B3B2B2" d="M152.659,1081.664h-41.092c0-2.722,2.205-4.924,4.925-4.924h31.242
		C150.453,1076.74,152.659,1078.942,152.659,1081.664"/>
	<rect x="111.566" y="1081.664" fill="#9D9D9C" width="41.092" height="1.398"/>
	<path fill="#3C3C3B" d="M153.042,1084.104h-41.859c-0.288,0-0.519-0.231-0.519-0.52c0-0.287,0.232-0.523,0.519-0.523h41.859
		c0.289,0,0.521,0.236,0.521,0.523C153.562,1083.872,153.33,1084.104,153.042,1084.104"/>
	<path fill="#DADADA" d="M132.532,1075.584h-0.839c-0.541,0-0.982-0.211-0.982-0.466v2.173c0,0.255,0.439,0.466,0.982,0.466h0.839
		c0.542,0,0.982-0.208,0.982-0.466v-2.173C133.513,1075.373,133.074,1075.584,132.532,1075.584"/>
	<path fill="#F6F6F6" d="M131.693,1075.584h0.839c0.542,0,0.982-0.211,0.982-0.466s-0.439-0.465-0.982-0.465h-0.839
		c-0.541,0-0.982,0.208-0.982,0.465C130.711,1075.373,131.151,1075.584,131.693,1075.584"/>
	<path fill="#DADADA" d="M132.293,1074.232h-0.359c-0.23,0-0.42-0.088-0.42-0.197v0.929c0,0.11,0.189,0.198,0.42,0.198h0.359
		c0.23,0,0.419-0.088,0.419-0.198v-0.929C132.711,1074.145,132.522,1074.232,132.293,1074.232"/>
	<path fill="#F6F6F6" d="M131.933,1074.232h0.359c0.23,0,0.419-0.088,0.419-0.197s-0.188-0.195-0.419-0.195h-0.359
		c-0.23,0-0.419,0.088-0.419,0.195C131.514,1074.145,131.703,1074.232,131.933,1074.232"/>
	<path fill="#B3B2B2" d="M131.989,1071.043c-1.048,0-1.898-0.31-1.898-1.355c0-6.116-2.199-9.795-4.982-14.448
		c-2.512-4.197-5.358-8.954-7.292-16.528c-2.082-8.143-1.316-14.696,2.276-19.472c5.292-7.042,14.694-7.416,15.09-7.428
		c1.042-0.033,1.925,0.79,1.956,1.84c0.033,1.044-0.787,1.923-1.831,1.952c-0.083,0.006-8.02,0.352-12.198,5.937
		c-2.852,3.811-3.395,9.272-1.616,16.229c1.801,7.037,4.497,11.545,6.873,15.519c2.962,4.956,5.523,9.234,5.523,16.399
		C133.887,1070.733,133.036,1071.043,131.989,1071.043"/>
	<path fill="#9D9D9C" d="M134.835,1016.011c-1.287-0.36-1.148-4.743,0.813-4.743c1.198,0,3.685,0.213,3.685,0.213
		s-1.415,3.785-1.075,5.413C138.259,1016.894,135.75,1016.27,134.835,1016.011"/>
	<path fill="#929292" d="M141.116,1023.65L141.116,1023.65c-2.233-1.265-3.695-3.548-3.895-6.107l-0.012-0.157
		c-0.184-2.334,0.704-4.622,2.413-6.222l0.297-0.277c1.689-1.578,3.998-2.318,6.288-2.005l3.077,0.414L141.116,1023.65z"/>
	<path fill="#DADADA" d="M187.484,1026.36h-53.77c-0.417,0-0.755,0.338-0.755,0.755c0,0.419,0.337,0.754,0.755,0.754h53.77
		c0.415,0,0.754-0.334,0.754-0.754C188.236,1026.703,187.899,1026.36,187.484,1026.36"/>
	<path fill="#D0D0D0" d="M186.775,1026.36H134.42c0-2.083,1.689-3.771,3.772-3.771h44.81
		C185.089,1022.59,186.775,1024.277,186.775,1026.36"/>
	<path fill="#C6C6C6" d="M183.098,1022.59h-44.999c0-1.999,1.619-3.613,3.615-3.613h37.77
		C181.48,1018.977,183.098,1020.591,183.098,1022.59z"/>
	<path fill="#BCBCBC" d="M179.484,1018.977h-37.77c0-1.997,1.618-3.613,3.614-3.613h30.543
		C177.865,1015.361,179.484,1016.979,179.484,1018.977"/>
	<path fill="#B3B2B2" d="M176.32,1015.361h-31.445v-0.024c0-1.983,1.609-3.593,3.594-3.593h24.257c1.986,0,3.594,1.609,3.594,3.593
		V1015.361z"/>
	<path fill="#A8A8A7" d="M173.125,1011.747H148.07v-0.069c0-1.958,1.589-3.546,3.547-3.546h17.962c1.959,0,3.545,1.588,3.545,3.546
		V1011.747z"/>
	<path fill="#9D9D9C" d="M170.041,1008.132h-18.884v-0.042c0-1.973,1.601-3.572,3.572-3.572h11.739c1.974,0,3.571,1.6,3.571,3.572
		v0.042H170.041z"/>
	<polygon fill="#FFFFFF" points="151.202,886.522 173.764,912.797 141.286,906.758 	"/>
	<path fill="#FFFFFF" d="M109.222,919.748c-21.433-5.67-34.211-27.641-28.542-49.075c5.671-21.432,27.642-34.213,49.076-28.54
		c21.434,5.67,34.212,27.641,28.54,49.075C152.627,912.641,130.656,925.418,109.222,919.748"/>
	<path fill="#008AB5" d="M142.488,870.626l-18.759-15.232c-1.909-1.55-4.643-1.55-6.551,0l-18.78,15.251
		c0.015,0.042,0.015,0.042,0.032,0.087h44.022C142.468,870.677,142.468,870.677,142.488,870.626"/>
	<path fill="#C5C4E0" d="M102.453,902.983h35.998c2.24,0,4.057-1.816,4.057-4.058v-24.142c0-2.239-1.816-4.056-4.057-4.056h-35.998
		c-2.24,0-4.056,1.816-4.056,4.056v24.142C98.398,901.167,100.214,902.983,102.453,902.983"/>
	<path fill="#008AB5" d="M138.452,904.806h-35.998c-3.243,0-5.881-2.639-5.881-5.88v-24.142c0-3.24,2.639-5.882,5.881-5.882h35.998
		c3.242,0,5.882,2.642,5.882,5.882v24.142C144.334,902.17,141.694,904.806,138.452,904.806"/>
	<rect x="103.052" y="860.415" fill="#FFFFFF" width="34.781" height="36.144"/>
	
		<rect x="103.052" y="860.415" fill="none" stroke="#00AFA6" stroke-width="2" stroke-miterlimit="10" width="34.781" height="36.144"/>
	<path fill="#008AB5" d="M142.507,893.37v-17.082l-15.894,9.982l-1.375,0.86h-0.865l-7.732,0.004h-0.974l-1.312-0.828
		l-15.957-10.021v14.073C113.1,889.83,127.805,891.947,142.507,893.37"/>
	<path fill="#EFEFEF" d="M142.507,898.648v-20.672l-15.894,9.982l15.303,12.866C142.291,900.184,142.507,899.442,142.507,898.648"/>
	<path fill="#EFEFEF" d="M98.398,877.977v20.672c0,0.818,0.232,1.583,0.627,2.237l15.33-12.888L98.398,877.977z"/>
	<path fill="#EFEFEF" d="M116.642,888.822l-16.117,13.55c0.649,0.386,1.402,0.611,2.21,0.611h35.439c0.833,0,1.61-0.239,2.273-0.648
		l-16.073-13.512L116.642,888.822L116.642,888.822z"/>
	<path fill="#008AB5" d="M99.025,900.886l-1.284,1.08l1.352,1.608l1.43-1.202C99.91,902.007,99.394,901.496,99.025,900.886"/>
	<path fill="#008AB5" d="M115.666,888.823l-1.312-0.825l-15.328,12.888c0.369,0.613,0.884,1.121,1.498,1.486l16.117-13.549H115.666z
		"/>
	<path fill="#008AB5" d="M143.272,901.966l-1.355-1.141c-0.36,0.619-0.865,1.134-1.471,1.509l1.475,1.24L143.272,901.966z"/>
	<path fill="#008AB5" d="M141.917,900.825l-15.301-12.866l-1.376,0.863h-0.865l16.072,13.512
		C141.051,901.959,141.556,901.439,141.917,900.825"/>
	<polygon fill="#FFFFFF" points="393.873,895.07 378.603,919.491 404.553,910.47 	"/>
	<path fill="#FFFFFF" d="M432.539,917.15c16.915-7.34,24.679-26.999,17.34-43.917c-7.338-16.913-27-24.675-43.914-17.338
		c-16.914,7.337-24.679,26.999-17.339,43.912C395.96,916.724,415.623,924.488,432.539,917.15"/>
	<path fill="#008AB5" d="M433.098,888.294h-20.736c-1.134,0-2.061-0.927-2.061-2.062c0-1.13,0.927-2.059,2.061-2.059h20.736
		c1.133,0,2.06,0.927,2.06,2.059C435.158,887.367,434.231,888.294,433.098,888.294"/>
	<path fill="#008AB5" d="M428.426,903.198h-18.678c-0.859,0-1.606-0.576-1.825-1.407l-4.485-17.125h-5.335
		c-1.041,0-1.887-0.843-1.887-1.885c0-1.04,0.846-1.883,1.887-1.883h6.791c0.857,0,1.606,0.576,1.823,1.405l4.486,17.126h15.559
		l1.487-11.735c0.132-1.035,1.074-1.763,2.108-1.636c1.032,0.132,1.765,1.076,1.633,2.107l-1.692,13.384
		C430.177,902.494,429.376,903.198,428.426,903.198"/>
	<path fill="#6FCACB" d="M414.415,907.676c0,1.237-1.004,2.244-2.243,2.244c-1.239,0-2.245-1.007-2.245-2.244
		c0-1.238,1.005-2.241,2.245-2.241C413.411,905.435,414.415,906.438,414.415,907.676"/>
	<path fill="#6FCACB" d="M427.62,907.676c0,1.237-1.003,2.244-2.242,2.244s-2.243-1.007-2.243-2.244
		c0-1.238,1.004-2.241,2.243-2.241S427.62,906.438,427.62,907.676"/>
	<path fill="#6FCACB" d="M425.933,892.991h-13.207c-0.52,0-0.944-0.42-0.944-0.941c0-0.52,0.424-0.943,0.944-0.943h13.207
		c0.52,0,0.943,0.424,0.943,0.943C426.876,892.571,426.453,892.991,425.933,892.991"/>
	<path fill="#6FCACB" d="M424.046,896.768h-9.432c-0.522,0-0.944-0.424-0.944-0.943c0-0.523,0.421-0.944,0.944-0.944h9.432
		c0.521,0,0.943,0.421,0.943,0.944C424.988,896.344,424.567,896.768,424.046,896.768"/>
	<polygon fill="#FFAF10" points="428.995,866.442 418.675,880.133 408.355,866.442 	"/>
	<polygon fill="#FFFFFF" points="473.225,830.523 458.849,844.231 481.352,842.203 	"/>
	<path fill="#FFFFFF" d="M502.61,847.24c12.834-5.593,18.704-20.527,13.111-33.362c-5.591-12.834-20.528-18.704-33.361-13.112
		c-12.834,5.594-18.707,20.528-13.114,33.361C474.838,846.96,489.774,852.831,502.61,847.24"/>
	<path fill="#6FCACB" d="M497.41,817.698c0,5.68-4.607,10.286-10.287,10.286s-10.283-4.606-10.283-10.286
		c0-5.681,4.604-10.285,10.283-10.285S497.41,812.018,497.41,817.698"/>
	<polygon fill="#6FCACB" points="496.424,820.411 501.975,817.541 496.424,814.446 	"/>
	<path fill="#FFFFFF" d="M488.411,817.698c0,0.604-0.473,1.112-1.188,1.112c-0.697,0-1.168-0.51-1.168-1.112
		c0-0.624,0.472-1.132,1.168-1.132C487.938,816.566,488.411,817.074,488.411,817.698"/>
	<path fill="#FFFFFF" d="M492.572,817.698c0,0.604-0.472,1.112-1.188,1.112c-0.698,0-1.169-0.51-1.169-1.112
		c0-0.624,0.472-1.132,1.169-1.132C492.103,816.566,492.572,817.074,492.572,817.698"/>
	<path fill="#FFFFFF" d="M484.258,817.698c0,0.604-0.492,1.112-1.208,1.112c-0.678,0-1.17-0.51-1.17-1.112
		c0-0.624,0.492-1.132,1.17-1.132C483.767,816.566,484.258,817.074,484.258,817.698"/>
	<polygon fill="#FFD400" points="490.742,835.463 485.193,831.267 490.742,828.031 	"/>
	<polygon fill="none" stroke="#FFD400" stroke-width="2" stroke-miterlimit="10" points="490.742,835.463 485.193,831.267 
		490.742,828.031 	"/>
	<path fill="#FFD400" d="M508.63,831.755c0,5.165-4.187,9.351-9.351,9.351c-5.165,0-9.349-4.186-9.349-9.351
		c0-5.16,4.185-9.348,9.349-9.348C504.444,822.408,508.63,826.595,508.63,831.755"/>
	<path fill="none" stroke="#FFD400" stroke-width="2" stroke-miterlimit="10" d="M499.28,822.407c5.164,0,9.351,4.188,9.351,9.348
		c0,5.165-4.187,9.351-9.351,9.351c-5.163,0-9.349-4.186-9.349-9.351C489.931,826.595,494.117,822.407,499.28,822.407z"/>
	<path fill="#FFFFFF" d="M499.089,830.438c0.696,0,1.168,0.594,1.168,1.32c0,0.703-0.473,1.301-1.168,1.301
		c-0.717,0-1.19-0.594-1.19-1.301C497.901,831.032,498.372,830.438,499.089,830.438"/>
	<path fill="#FFFFFF" d="M494.926,830.438c0.697,0,1.167,0.594,1.167,1.32c0,0.703-0.471,1.301-1.167,1.301
		c-0.717,0-1.188-0.594-1.188-1.301C493.738,831.032,494.209,830.438,494.926,830.438"/>
	<path fill="#FFFFFF" d="M503.26,830.438c0.68,0,1.169,0.594,1.169,1.32c0,0.703-0.489,1.301-1.169,1.301
		c-0.715,0-1.207-0.594-1.207-1.301C502.054,831.032,502.545,830.438,503.26,830.438"/>
	<polygon fill="#FFFFFF" points="406.855,1029.915 385.312,1022.58 404.677,1015.594 	"/>
	<path fill="#FFFFFF" d="M441.052,1001.672c12.142,7.466,15.933,23.357,8.47,35.5c-7.463,12.141-23.355,15.934-35.497,8.472
		c-12.142-7.464-15.935-23.357-8.471-35.5C413.018,998.003,428.911,994.211,441.052,1001.672"/>
	<path fill="#FFAF10" d="M426.939,1036.349c0,2.29-2.178,4.149-4.864,4.149c-2.685,0-4.863-1.859-4.863-4.149
		c0-2.291,2.178-4.15,4.863-4.15C424.761,1032.198,426.939,1034.058,426.939,1036.349"/>
	<polygon fill="#FFAF10" points="426.364,1038.23 425.934,1021.912 436.909,1021.912 434.893,1027.067 426.939,1027.067 	"/>
	<rect x="425.934" y="1021.912" fill="#FFAF10" width="1.005" height="14.568"/>
	<path fill="#6FCACB" d="M443.794,1026.251l-2.812-0.795c0.365-1.294,0.549-2.644,0.549-4.005c0-7.77-6.056-14.092-13.501-14.092
		c-7.443,0-13.502,6.322-13.502,14.092c0,1.276,0.163,2.536,0.483,3.752l-2.829,0.745c-0.386-1.456-0.58-2.972-0.58-4.497
		c0-9.384,7.368-17.017,16.427-17.017c9.058,0,16.426,7.633,16.426,17.017C444.458,1023.083,444.234,1024.698,443.794,1026.251"/>
	<path fill="#6FCACB" d="M414.49,1027.299c0,2.83-1.62,5.122-3.618,5.122c-2,0-3.618-2.292-3.618-5.122
		c0-2.826,1.62-5.121,3.618-5.121C412.87,1022.181,414.49,1024.473,414.49,1027.299"/>
	<path fill="#6FCACB" d="M441.451,1027.302c0-2.827,1.62-5.121,3.618-5.121c1.998,0,3.619,2.294,3.619,5.121
		s-1.622,5.119-3.619,5.119C443.07,1032.421,441.451,1030.129,441.451,1027.302"/>
	<path fill="#23A3B0" d="M412.213,1035.046L412.213,1035.046c-1.504,0-2.735-1.23-2.735-2.735v-10.018
		c0-1.504,1.231-2.733,2.735-2.733c1.503,0,2.733,1.229,2.733,2.733v10.018C414.946,1033.815,413.716,1035.046,412.213,1035.046"/>
	<path fill="#23A3B0" d="M443.728,1019.557L443.728,1019.557c1.503,0,2.734,1.232,2.734,2.734v10.02
		c0,1.503-1.231,2.733-2.734,2.733c-1.504,0-2.733-1.23-2.733-2.733v-10.02C440.994,1020.789,442.224,1019.557,443.728,1019.557"/>
	<path fill="#FFFFFF" d="M564.232,743.091c15.487-9.521,20.324-29.792,10.805-45.277c-9.519-15.487-29.793-20.326-45.279-10.806
		c-15.488,9.52-20.324,29.793-10.807,45.279C528.473,747.774,548.747,752.613,564.232,743.091"/>
	<path fill="#FFD400" d="M534.875,729.593c0-0.565,0.269-1.105,0.739-1.473c3.01-2.368,4.882-7.678,4.882-13.863
		c0-3.388,3.025-6.134,6.748-6.134c3.716,0,6.745,2.746,6.745,6.134c0,6.186,1.866,11.495,4.88,13.863
		c0.468,0.367,0.742,0.907,0.742,1.473H534.875z"/>
	<path fill="none" stroke="#FFD400" stroke-width="2" stroke-miterlimit="10" d="M534.875,729.593c0-0.565,0.269-1.105,0.739-1.473
		c3.01-2.368,4.882-7.678,4.882-13.863c0-3.388,3.025-6.134,6.748-6.134c3.716,0,6.745,2.746,6.745,6.134
		c0,6.186,1.866,11.495,4.88,13.863c0.468,0.367,0.742,0.907,0.742,1.473H534.875z"/>
	<path fill="#FFD400" d="M534.624,730.895h25.235c1.014,0,1.84-0.828,1.84-1.84c0-1.009-0.826-1.84-1.84-1.84h-25.235
		c-1.011,0-1.841,0.831-1.841,1.84C532.783,730.066,533.613,730.895,534.624,730.895"/>
	<path fill="#FFD400" d="M544.954,733.138c-1.264,1.265-1.264,3.313,0,4.578c1.265,1.264,3.313,1.264,4.577,0
		c1.266-1.265,1.266-3.313,0-4.578C548.268,731.874,546.219,731.874,544.954,733.138"/>
	
		<line fill="none" stroke="#FFD400" stroke-width="2" stroke-linecap="round" stroke-miterlimit="10" x1="561.701" y1="711.485" x2="570.76" y2="706.723"/>
	
		<line fill="none" stroke="#FFD400" stroke-width="2" stroke-linecap="round" stroke-miterlimit="10" x1="556.55" y1="705.177" x2="561.701" y2="696.937"/>
	
		<line fill="none" stroke="#FFD400" stroke-width="2" stroke-linecap="round" stroke-miterlimit="10" x1="532.289" y1="711.485" x2="523.232" y2="706.723"/>
	
		<line fill="none" stroke="#FFD400" stroke-width="2" stroke-linecap="round" stroke-miterlimit="10" x1="537.44" y1="705.177" x2="532.289" y2="696.937"/>
	
		<line fill="none" stroke="#FFD400" stroke-width="2" stroke-linecap="round" stroke-miterlimit="10" x1="547.217" y1="701.057" x2="547.217" y2="689.668"/>
	<polygon fill="#FFFFFF" points="282.142,870.779 276.665,894.6 266.495,873.621 	"/>
	<path fill="#FFFFFF" d="M255.154,869.39c-13.328-8.193-17.492-25.639-9.298-38.966c8.195-13.327,25.64-17.492,38.967-9.299
		c13.328,8.193,17.493,25.637,9.298,38.967C285.931,873.42,268.483,877.584,255.154,869.39"/>
	<polygon fill="#FFD400" points="270.607,822.97 274.452,830.761 283.049,832.008 276.828,838.074 278.298,846.635 270.607,842.594 
		262.917,846.635 264.387,838.074 258.166,832.008 266.762,830.761 	"/>
	<path fill="#6FCACB" d="M282.021,850.407c-0.053-0.91-0.874-1.604-1.824-1.549c-0.951,0.052-1.687,0.841-1.637,1.747l0.221,3.851
		l-0.556-0.058l-0.312-5.448c-0.053-0.909-0.874-1.605-1.826-1.55c-0.951,0.055-1.687,0.842-1.636,1.747l0.282,4.889l-0.557-0.058
		l-0.426-7.428c-0.052-0.909-0.874-1.605-1.825-1.55c-0.95,0.053-1.688,0.839-1.635,1.747l0.396,6.872l-0.554-0.058l-0.684-11.845
		c-0.051-0.91-0.874-1.604-1.824-1.552c-0.951,0.056-1.686,0.84-1.636,1.75l0.75,13.029c-0.021,0.867-0.144,2.144-0.268,3.629
		l-1.109-3.702c-0.232-0.773-1.089-1.225-1.9-0.995c-0.812,0.225-1.289,1.043-1.055,1.819c0,0,1.524,5.048,1.547,5.096
		c0.011,0.05,0.008,0.09,0.023,0.144c0,0,1.603,8.5,8.05,8.13l3.763-0.217c1.588-0.091,7.327-0.422,6.937-7.22L282.021,850.407z"/>
	<path fill="#85CAF9" d="M220.147,889.496l-10.04-4.479l8.118-18.937l-12.1,17.161l-8.735-3.896l23.338-17.238L220.147,889.496z
		 M207.187,892.447l-1.475-6.481l5.596,2.135L207.187,892.447z"/>
	<path fill="#85CAF9" d="M487.928,750.499l-10.039-4.479l8.119-18.938l-12.101,17.161l-8.735-3.896l23.338-17.241L487.928,750.499z
		 M474.969,753.448l-1.474-6.479l5.597,2.136L474.969,753.448z"/>
	<g>
		<g>
			<path fill="#85CAF9" d="M313.905,904.679l-0.729,0.749l1.581,1.535l0.729-0.748c0.691,0.463,1.482,0.781,2.332,0.923l0.015,1.047
				l2.205-0.033l-0.016-1.044c0.843-0.171,1.625-0.515,2.303-0.994l0.751,0.729l1.536-1.581l-0.75-0.729
				c0.46-0.691,0.781-1.482,0.925-2.33l1.048-0.017l-0.035-2.205l-1.044,0.017c-0.169-0.846-0.512-1.628-0.993-2.304l0.729-0.752
				l-1.582-1.536l-0.729,0.752c-0.689-0.462-1.481-0.781-2.331-0.926l-0.016-1.045l-2.203,0.036l0.016,1.042
				c-0.847,0.171-1.625,0.514-2.304,0.995l-0.75-0.727l-1.535,1.58l0.75,0.727c-0.459,0.692-0.78,1.48-0.923,2.33l-1.048,0.019
				l0.034,2.205l1.046-0.018C313.081,903.221,313.424,904.002,313.905,904.679 M318.77,896.727c2.461-0.038,4.487,1.928,4.523,4.394
				c0.035,2.465-1.932,4.488-4.396,4.525c-2.462,0.037-4.487-1.929-4.524-4.396C314.339,898.787,316.305,896.762,318.77,896.727"/>
			<path fill="#85CAF9" d="M331.22,891.657l0.656-0.29l-0.719-1.619l-0.652,0.293c-0.29-0.395-0.642-0.729-1.05-1l0.257-0.666
				l-1.653-0.635l-0.254,0.666c-0.481-0.071-0.973-0.061-1.448,0.038l-0.29-0.653l-1.616,0.719l0.29,0.653
				c-0.395,0.288-0.729,0.641-0.997,1.05l-0.666-0.256l-0.636,1.648l0.666,0.256c-0.073,0.484-0.062,0.97,0.038,1.448l-0.652,0.29
				l0.714,1.617l0.654-0.289c0.291,0.395,0.642,0.729,1.049,0.999l-0.257,0.664l1.652,0.634l0.257-0.662
				c0.478,0.067,0.97,0.058,1.444-0.038l0.292,0.654l1.618-0.719l-0.29-0.654c0.393-0.288,0.729-0.641,0.997-1.049l0.667,0.256
				l0.635-1.649l-0.667-0.258C331.331,892.619,331.319,892.135,331.22,891.657 M328.302,895.007
				c-0.342,0.151-0.706,0.235-1.078,0.24c-1.111,0.016-2.116-0.629-2.568-1.643c-0.618-1.393,0.011-3.026,1.406-3.646
				c0.341-0.154,0.705-0.233,1.077-0.24c1.111-0.013,2.119,0.63,2.569,1.643C330.324,892.753,329.695,894.389,328.302,895.007"/>
		</g>
	</g>
	<g>
		<g>
			<path fill="#85CAF9" d="M478.923,868.268c2.583-2.584,6.532-2.953,9.518-1.126c-1.011,1-2.179,2.171-2.179,2.171
				c-0.814,0.981,0.103,1.547,0.566,1.529h5.46c0.285,0,0.521,0,0.521,0h0.526h1.057c0.29,0,0.522-0.234,0.524-0.525v-7.502
				c0.034-0.688-0.719-1.353-1.496-0.587c0,0-1.291,1.255-2.178,2.138c-4.549-3.323-10.956-2.944-15.062,1.162
				c-2.398,2.396-3.515,5.575-3.38,8.712h3.881C476.544,872.096,477.281,869.911,478.923,868.268"/>
			<path fill="#85CAF9" d="M491.832,872.937c0.139,2.148-0.597,4.334-2.239,5.978c-2.583,2.582-6.537,2.947-9.521,1.127
				c1.013-1.002,2.18-2.169,2.18-2.169c0.817-0.981-0.1-1.547-0.564-1.533l-5.456,0.002c-0.289,0-0.524-0.002-0.524-0.002h-0.528
				h-1.055c-0.289,0-0.524,0.236-0.524,0.525v7.503c-0.032,0.685,0.722,1.349,1.498,0.583c0,0,1.288-1.254,2.178-2.134
				c4.549,3.32,10.956,2.947,15.063-1.16c2.394-2.396,3.512-5.576,3.38-8.715h-3.883v-0.005H491.832z"/>
		</g>
	</g>
	<g>
		<g>
			<path fill="#85CAF9" d="M157.524,948.204c-3.222,0-5.83,2.611-5.83,5.83c0,3.224,5.83,10.722,5.83,10.722
				s5.832-7.498,5.832-10.722C163.356,950.815,160.744,948.204,157.524,948.204z M157.524,954.98c-1.002,0-1.813-0.812-1.813-1.813
				c0-1,0.811-1.812,1.813-1.812c1.001,0,1.814,0.812,1.814,1.812C159.337,954.169,158.524,954.98,157.524,954.98z"/>
		</g>
	</g>
	<path fill="#85CAF9" d="M463.015,982.967l0.466-0.507c0.719-0.787,0.664-2.01-0.123-2.731l-6.389-5.838
		c-0.145-0.135-0.309-0.241-0.478-0.321c0.812-1.787,0.953-3.903,0.222-5.925c-1.457-4.019-5.819-6.134-9.724-4.717
		c-3.906,1.417-5.901,5.833-4.445,9.851c1.456,4.019,5.817,6.139,9.724,4.724c0.464-0.17,0.902-0.384,1.311-0.632
		c0.088,0.139,0.192,0.265,0.319,0.382l6.391,5.837C461.075,983.81,462.295,983.755,463.015,982.967z M444.812,971.957
		c-1.006-2.77,0.338-5.794,2.995-6.76c2.66-0.963,5.63,0.503,6.631,3.275c1.004,2.771-0.334,5.798-2.996,6.76
		C448.785,976.198,445.815,974.732,444.812,971.957z"/>
	<path fill="#85CAF9" d="M621.893,681.502l0.463-0.508c0.721-0.79,0.666-2.009-0.121-2.731l-6.387-5.838
		c-0.146-0.134-0.311-0.241-0.481-0.321c0.813-1.787,0.953-3.905,0.222-5.923c-1.454-4.018-5.817-6.136-9.721-4.721
		c-3.907,1.417-5.9,5.835-4.445,9.853c1.456,4.018,5.817,6.14,9.723,4.726c0.466-0.172,0.904-0.386,1.31-0.633
		c0.092,0.137,0.196,0.263,0.322,0.382l6.388,5.836C619.951,682.342,621.172,682.288,621.893,681.502z M603.69,670.491
		c-1.005-2.77,0.339-5.793,2.996-6.76c2.658-0.963,5.627,0.503,6.63,3.277c1.005,2.769-0.336,5.796-2.995,6.758
		C607.663,674.733,604.693,673.265,603.69,670.491z"/>
</g>
<rect x="-27.242" y="139.59" opacity="0.91" fill="#7D9BAF" enable-background="new    " width="1093.125" height="15.177"/>
</svg>
