<?xml version="1.0" encoding="utf-8"?>
<!-- Generator: Adobe Illustrator 15.0.0, SVG Export Plug-In . SVG Version: 6.00 Build 0)  -->
<!DOCTYPE svg PUBLIC "-//W3C//DTD SVG 1.1//EN" "http://www.w3.org/Graphics/SVG/1.1/DTD/svg11.dtd">
<svg version="1.1" xmlns="http://www.w3.org/2000/svg" xmlns:xlink="http://www.w3.org/1999/xlink" x="0px" y="0px" width="1366px"
	 height="563px" viewBox="0 0 1366 563" enable-background="new 0 0 1366 563" xml:space="preserve">
<g id="Layer_1">
	<rect x="-17.374" y="-15.971" fill="#CCEDFF" width="1383.374" height="578.971"/>
	<g>
		<rect x="-17.374" y="450.716" fill="#80939E" width="1383.374" height="112.284"/>
	</g>
</g>
<g id="Layer_2">
	<path fill="#FFFFFF" d="M278.268,99.539c-1.398,0-2.771,0.092-4.116,0.257c0-0.087,0.008-0.172,0.008-0.257
		c0-15.23-13.685-27.578-30.565-27.578c-4.772,0-9.291,0.99-13.313,2.75c-5.511-11.408-18.11-19.385-32.785-19.385
		c-18.674,0-33.996,12.919-35.602,29.391c-1.443-0.165-2.911-0.261-4.405-0.261c-19.108,0-34.597,13.974-34.597,31.211v11.135h2.276
		h64.64h49.199h9.038h60.442C308.489,111.743,294.958,99.539,278.268,99.539"/>
	<path fill="#FFFFFF" d="M1036.471,216.875c1.298,0,2.575,0.095,3.826,0.267c0-0.091-0.006-0.179-0.006-0.267
		c0-15.726,12.729-28.474,28.434-28.474c4.44,0,8.641,1.021,12.387,2.838c5.124-11.778,16.85-20.018,30.498-20.018
		c17.372,0,31.624,13.34,33.117,30.35c1.343-0.17,2.709-0.268,4.098-0.268c17.775,0,32.185,14.428,32.185,32.227v11.498h-2.116
		h-60.135h-45.766h-8.407h-56.228C1008.357,229.479,1020.943,216.875,1036.471,216.875"/>
	<path fill="#B0D9EA" d="M1095.907,416.37v-27.667h-13.415v-62.042h-18.445v36.89h-19.282v-12.575h-18.445v-43.597h-36.05v-18.444
		h-52.818v15.93h-24.312v-21.799h-22.637v-51.142h-9.222l-31.021,20.96v20.96h-19.282v20.96h-20.121v-61.203h-10.062v-10.061h-7.545
		v9.222h-10.061v93.899h-28.506V286.42h-31.858v21.798h-41.081v-38.567h-8.385v-8.383h-22.637v7.545h-6.707v36.051h-10.73v-29.081
		c0.03-3.265,0.034-6.7,0-10.255v-2.06h-0.022c-0.51-37.871-5.405-87.685-27.814-85.201c-18.052,1.999-21.785,49.381-22.01,85.201
		h-0.048v39.719h-13.153V259.59h-52.818v42.759H485.56v20.121h-10.061v-87.193h-9.223v-23.475h-3.354v23.475h-10.899v88.031H422.68
		V302.35h-22.637v-10.062h-30.182v10.9h-31.859v54.494h-18.445v83.001h-77.131v9.223l881.146,1.677V416.37H1095.907z"/>
	<polygon fill="#83C5DB" points="-74.549,448.024 -74.549,442.994 -21.731,442.994 -21.731,400.865 -21.731,392.69 5.307,392.69 
		5.307,339.872 28.573,339.872 28.573,392.69 44.921,392.69 44.921,373.827 53.096,373.827 53.096,363.767 106.543,363.767 
		106.543,373.827 114.717,373.827 114.717,392.69 146.156,392.69 146.156,354.334 162.506,354.334 162.506,392.69 178.226,392.69 
		178.226,339.872 185.142,339.872 185.142,332.326 239.218,332.326 239.218,339.872 246.135,339.872 246.135,360.622 
		264.37,360.622 264.37,382.001 298.953,382.001 298.953,394.577 351.771,394.577 351.771,341.759 373.15,341.759 373.15,331.069 
		383.84,331.069 383.84,341.759 405.219,341.759 405.219,368.168 422.825,368.168 422.825,384.517 491.992,384.517 491.992,334.213 
		568.076,334.213 568.076,354.963 620.267,354.963 620.267,372.569 645.418,372.569 645.418,335.471 655.479,335.471 
		655.479,329.183 678.115,329.183 678.115,335.471 686.918,335.471 686.918,372.569 712.699,372.569 712.699,395.206 
		738.479,395.206 738.479,385.146 753.57,385.146 753.57,409.039 784.381,409.039 784.381,440.479 807.018,440.479 807.018,447.396 
		807.018,452.426 -74.549,452.426 	"/>
	<polygon fill="#83C5DB" points="505.433,448.552 505.433,443.521 558.251,443.521 558.251,401.393 558.251,393.218 585.29,393.218 
		585.29,340.399 608.555,340.399 608.555,393.218 624.903,393.218 624.903,374.354 633.078,374.354 633.078,364.294 
		686.525,364.294 686.525,374.354 694.7,374.354 694.7,393.218 726.139,393.218 726.139,354.861 742.488,354.861 742.488,393.218 
		758.208,393.218 758.208,340.399 765.124,340.399 765.124,332.854 819.2,332.854 819.2,340.399 826.117,340.399 826.117,361.149 
		844.353,361.149 844.353,382.528 878.936,382.528 878.936,395.104 931.754,395.104 931.754,342.286 953.133,342.286 
		953.133,331.597 963.822,331.597 963.822,342.286 985.201,342.286 985.201,368.695 1002.808,368.695 1002.808,385.044 
		1071.975,385.044 1071.975,334.74 1148.059,334.74 1148.059,355.49 1200.249,355.49 1200.249,373.097 1225.4,373.097 
		1225.4,335.998 1235.461,335.998 1235.461,329.71 1258.098,329.71 1258.098,335.998 1266.9,335.998 1266.9,373.097 
		1292.682,373.097 1292.682,395.733 1318.462,395.733 1318.462,385.673 1333.553,385.673 1333.553,409.566 1364.363,409.566 
		1364.363,441.006 1387,441.006 1387,447.923 1387,452.953 505.433,452.953 	"/>
	<rect x="92.12" y="-15.971" opacity="0.91" fill="#7D9BAF" width="8.25" height="469.553"/>
	<rect x="401.479" y="-15.971" opacity="0.91" fill="#7D9BAF" width="8.25" height="469.553"/>
	<rect x="725.961" y="-15.971" opacity="0.91" fill="#7D9BAF" width="8.25" height="469.553"/>
	<rect x="1053.447" y="-15.971" opacity="0.91" fill="#7D9BAF" width="8.25" height="469.553"/>
	<rect x="-29.375" y="199.875" opacity="0.91" fill="#7D9BAF" width="1395.375" height="8.25"/>
</g>
<g id="Layer_3">
	<polygon fill="#75868E" points="411.91,478.427 325.833,478.427 324.54,478.427 238.463,478.427 197.155,509.883 324.54,509.883 
		325.833,509.883 453.217,509.883 	"/>
	<rect x="220.602" y="397.739" fill="#AF9D7D" width="212.426" height="8.397"/>
	<path fill="#AD9566" d="M236.229,499.812h-5.854c-0.359,0-0.65-0.292-0.65-0.649v-92.967h7.153v92.967
		C236.878,499.521,236.588,499.812,236.229,499.812"/>
	<path fill="#AD9566" d="M423.256,499.812h-5.854c-0.358,0-0.649-0.292-0.649-0.649v-92.967h7.154v92.967
		C423.906,499.521,423.615,499.812,423.256,499.812"/>
	<rect x="229.725" y="406.196" fill="#9B855F" width="7.153" height="5.953"/>
	<rect x="416.752" y="406.196" fill="#9B855F" width="7.154" height="5.953"/>
	<path fill="#96805A" d="M248.892,486.572h-4.847c-0.359,0-0.649-0.291-0.649-0.65v-79.785h6.146v79.785
		C249.542,486.281,249.251,486.572,248.892,486.572"/>
	<path fill="#96805A" d="M409.585,486.572h-4.847c-0.359,0-0.65-0.291-0.65-0.65v-79.785h6.146v79.785
		C410.234,486.281,409.944,486.572,409.585,486.572"/>
	<path fill="#F6F6F6" d="M270.656,397.739c0-0.815,0.664-1.479,1.478-1.479h71.03c0.816,0,1.479,0.663,1.479,1.479H270.656z"/>
	<path fill="#878787" d="M277.483,396.26v-0.466c0-0.269-0.219-0.488-0.488-0.488h-2.729c-0.27,0-0.489,0.22-0.489,0.488v0.466
		H277.483z"/>
	<path fill="#878787" d="M282.157,396.26v-0.466c0-0.269-0.219-0.488-0.489-0.488h-2.728c-0.271,0-0.489,0.22-0.489,0.488v0.466
		H282.157z"/>
	<path fill="#878787" d="M286.831,396.26v-0.466c0-0.269-0.218-0.488-0.488-0.488h-2.729c-0.27,0-0.488,0.22-0.488,0.488v0.466
		H286.831z"/>
	<path fill="#878787" d="M291.504,396.26v-0.466c0-0.269-0.219-0.488-0.488-0.488h-2.729c-0.27,0-0.489,0.22-0.489,0.488v0.466
		H291.504z"/>
	<path fill="#878787" d="M317.282,396.26v-0.466c0-0.269-0.219-0.488-0.489-0.488h-23.832c-0.27,0-0.489,0.22-0.489,0.488v0.466
		H317.282z"/>
	<path fill="#878787" d="M321.955,396.26v-0.466c0-0.269-0.219-0.488-0.488-0.488h-2.728c-0.27,0-0.489,0.22-0.489,0.488v0.466
		H321.955z"/>
	<path fill="#878787" d="M326.628,396.26v-0.466c0-0.269-0.219-0.488-0.488-0.488h-2.729c-0.27,0-0.488,0.22-0.488,0.488v0.466
		H326.628z"/>
	<path fill="#878787" d="M331.138,396.26v-0.466c0-0.269-0.219-0.488-0.488-0.488h-2.729c-0.269,0-0.488,0.22-0.488,0.488v0.466
		H331.138z"/>
	<path fill="#878787" d="M340.67,396.26v-0.466c0-0.269-0.218-0.488-0.488-0.488h-2.728c-0.27,0-0.489,0.22-0.489,0.488v0.466
		H340.67z"/>
	<path fill="#878787" d="M335.812,396.26v-0.466c0-0.269-0.219-0.488-0.489-0.488h-2.728c-0.27,0-0.488,0.22-0.488,0.488v0.466
		H335.812z"/>
	<rect x="311.78" y="380.855" fill="#B3B2B2" width="22.842" height="15.89"/>
	<rect x="311.78" y="380.855" fill="#878787" width="22.842" height="3.972"/>
	<path fill="#9D9D9C" d="M338.973,397.739c-0.052-0.556-0.504-0.994-1.072-0.994h-29.398c-0.567,0-1.02,0.438-1.072,0.994H338.973z"
		/>
	<path fill="#1C1C1C" d="M373.324,380.855h-99.052c-2.56,0-4.635-2.075-4.635-4.635v-62.504c0-2.56,2.075-4.635,4.635-4.635h99.052
		c2.559,0,4.634,2.075,4.634,4.635v62.504C377.958,378.78,375.883,380.855,373.324,380.855"/>
	<path fill="#EDEDED" d="M269.637,369.334v6.887c0,2.56,2.075,4.635,4.635,4.635h99.052c2.559,0,4.634-2.075,4.634-4.635v-6.887
		H269.637z"/>
	<path fill="#384F5E" d="M372.364,366.652h-97.132c-1.151,0-2.086-0.933-2.086-2.086v-48.963c0-1.151,0.935-2.085,2.086-2.085
		h97.132c1.152,0,2.085,0.934,2.085,2.085v48.963C374.449,365.72,373.516,366.652,372.364,366.652"/>
	<path fill="#DADADA" d="M326.281,375.095c0-1.372-1.112-2.483-2.483-2.483c-1.371,0-2.482,1.111-2.482,2.483
		c0,1.371,1.112,2.483,2.482,2.483C325.168,377.578,326.281,376.466,326.281,375.095"/>
	<polygon fill="#E89970" points="302.637,361.068 304.347,360.825 303.703,362.428 	"/>
	<rect x="335.423" y="362.411" fill="#DADADA" width="1.348" height="0.304"/>
	<rect x="335.423" y="360.718" fill="#DADADA" width="1.348" height="0.306"/>
	<rect x="335.423" y="359.027" fill="#DADADA" width="1.348" height="0.304"/>
	<path fill="#75868E" d="M388.004,496.954c0-5.955-29.138-10.781-65.081-10.781c-35.944,0-65.082,4.826-65.082,10.781
		s29.138,10.782,65.082,10.782C358.867,507.736,388.004,502.909,388.004,496.954"/>
	<path fill="#1F4056" d="M300.573,423.968c0,0-10.264,2.177-11.611,5.288c-1.348,3.11-1.141,11.196,0.415,15.55
		c1.555,4.355,12.751,31.518,12.959,34.006c0,0,3.11,0.622,3.835,0.726c0,0-10.263,4.562-10.678,8.604
		c-0.415,4.043,20.424,2.903,23.119-1.969c0,0-1.659-5.081-2.902-6.636c0,0,0.933-1.45,0.726-2.073
		c-0.208-0.622-5.703-17.521-6.428-21.149c-0.726-3.628-3.836-11.094-1.97-12.649c1.866-1.555,14.722-1.864,14.722-1.864h0.46
		c0,0,12.856,0.31,14.722,1.864c1.866,1.556-1.244,9.021-1.97,12.649c-0.726,3.629-6.22,20.527-6.427,21.149
		c-0.208,0.623,0.725,2.073,0.725,2.073c-1.243,1.555-2.902,6.636-2.902,6.636c2.695,4.872,23.534,6.012,23.119,1.969
		c-0.415-4.043-10.678-8.604-10.678-8.604c0.726-0.104,3.836-0.726,3.836-0.726c0.208-2.488,11.404-29.65,12.959-34.006
		c1.555-4.354,1.762-12.439,0.414-15.55c-1.347-3.111-11.611-5.288-11.611-5.288s-4.795,4.313-21.59,4.313
		C307.021,428.281,300.574,423.968,300.573,423.968"/>
	<path fill="#152E42" d="M357.017,429.256c-1.347-3.111-11.611-5.288-11.611-5.288s-4.795,4.313-21.591,4.313
		c-16.794,0-23.242-4.313-23.242-4.313s-10.264,2.177-11.612,5.288c-1.347,3.11-1.14,11.197,0.415,15.55
		c0.79,2.212,4.065,10.304,7.125,18.06c4.366-2.14,9.677-3.052,14.229-3.736c-0.343-1.217-0.601-2.205-0.723-2.814
		c-0.726-3.628-3.836-11.094-1.97-12.649c1.866-1.555,14.722-1.864,14.722-1.864h0.46c0,0,12.856,0.31,14.722,1.864
		c1.866,1.556-1.245,9.021-1.97,12.649c-0.155,0.775-0.53,2.159-1.021,3.858c0.238,0.062,0.483,0.111,0.72,0.179
		c1.854,0.523,7.921,2.373,12.964,4.657c3.275-8.349,7.105-17.786,7.968-20.203C358.158,440.453,358.365,432.366,357.017,429.256"/>
	<path fill="#575756" d="M306.171,479.537c0,0-10.263,4.562-10.678,8.604c-0.415,4.043,20.424,2.903,23.119-1.969
		c0,0-1.659-5.081-2.903-6.636C315.709,479.537,314.589,480.833,306.171,479.537"/>
	<path fill="#575756" d="M339.808,479.537c-7.802,1.141-9.538,0-9.538,0c-1.244,1.555-2.903,6.636-2.903,6.636
		c2.695,4.872,23.534,6.012,23.119,1.969S339.808,479.537,339.808,479.537"/>
	<path fill="#E8CAAA" d="M329.492,356.606L329.492,356.606c-0.233-1.167-0.208-5.417-0.208-5.417
		c3.732-2.748,5.028-9.227,5.028-9.227s1.763-2.281,1.866-3.732c0.104-1.452-0.934-1.97-0.934-1.97
		c0.281-8.555-2.641-13.658-6.173-15.261c-1.519-0.689-4.415-1.016-6.083-1.016c-1.667,0-4.564,0.326-6.083,1.016
		c-3.531,1.603-6.453,6.706-6.173,15.261c0,0-1.036,0.518-0.933,1.97c0.104,1.451,1.866,3.732,1.866,3.732s1.296,6.479,5.028,9.227
		c0,0,0.026,4.25-0.208,5.417C321.458,357.746,325.008,357.694,329.492,356.606"/>
	<path fill="#E8CAAA" d="M335.246,336.261c0.281-8.555-2.641-13.658-6.173-15.261c-1.519-0.689-4.415-1.017-6.083-1.017
		c-1.667,0-4.564,0.327-6.083,1.017c-3.531,1.603-6.453,6.706-6.173,15.261c0,0-1.036,0.518-0.934,1.97
		c0.104,1.451,1.867,3.732,1.867,3.732s1.296,6.479,5.028,9.227c0,0,0.01,1.619-0.038,3.132c1.509,0.705,3.426,1.209,6.628,1.209
		c2.656,0,5.124-0.731,6.026-1.634c-0.034-1.377-0.026-2.707-0.026-2.707c3.732-2.748,5.029-9.227,5.029-9.227
		s1.763-2.281,1.866-3.732C336.283,336.778,335.246,336.261,335.246,336.261"/>
	<path fill="#231C11" d="M337.499,335.688c0.318-8.779-2.991-14.017-6.992-15.66c-1.72-0.708-5-1.044-6.89-1.044
		c-1.888,0-5.17,0.336-6.89,1.044c-4,1.644-7.309,6.881-6.992,15.66c0,0-0.024,1.719,0.065,2.543
		c0.088,0.825,0.992,3.309,0.992,3.309s1.468,6.648,5.696,9.469c0,0,2.958,2.233,6.833,2.233c3.875,0,7.426-2.233,7.426-2.233
		c4.228-2.82,5.696-9.469,5.696-9.469s0.704-2.659,0.792-3.351C337.323,337.496,337.499,335.688,337.499,335.688"/>
	<path fill="#F4BD31" d="M366.737,392.141c-0.778-2.877-17.029-23.482-20.45-27.993c-3.421-4.508-13.607-5.442-13.607-5.442
		c0-1.011-3.188-2.099-3.188-2.099c-4.484,1.088-8.035,1.14-13.005,0c0,0-1.008,0.344-1.891,0.826
		c-0.686,0.373-1.297,0.83-1.297,1.272c0,0-10.185,0.935-13.607,5.442c-3.421,4.511-19.671,25.116-20.449,27.993
		c-0.777,2.877,0.949,5.61,3.577,5.909c3.421,0.389,9.875,1.037,12.519-0.622c0.36-0.227,1.226-1.052,2.274-2.122
		c0.628-0.642,1.322-1.372,2.01-2.111c1.835-1.974,3.634-4.021,4.062-4.683c0,0.002-0.161,1.998-0.399,4.772
		c-0.04,0.463-0.082,0.946-0.125,1.448c-0.043,0.5-0.089,1.016-0.136,1.542c-0.305,3.422-0.67,7.279-0.992,10.024
		c-0.074,0.634-0.146,1.208-0.214,1.704c-0.181,1.32-0.563,2.76-0.981,4.229c-0.418,1.47-0.872,2.968-1.196,4.413
		c-0.647,2.891-0.777,5.561,0.934,7.322c0,0,6.448,4.313,23.242,4.313c16.795,0,21.591-4.313,21.591-4.313
		c1.924-1.981,1.52-5.113,0.667-8.414c-0.283-1.101-0.617-2.22-0.93-3.321c-0.418-1.47-0.8-2.909-0.982-4.229
		c-0.067-0.496-0.14-1.07-0.213-1.704c-0.075-0.633-0.151-1.326-0.228-2.059c-0.052-0.488-0.104-0.995-0.156-1.514
		c-0.052-0.52-0.105-1.05-0.157-1.588c-0.104-1.074-0.207-2.178-0.306-3.26c-0.049-0.542-0.098-1.078-0.145-1.604
		c-0.094-1.053-0.182-2.065-0.262-2.99c-0.239-2.774-0.399-4.771-0.399-4.772c0.587,0.909,3.767,4.44,6.072,6.794
		c1.047,1.07,1.914,1.896,2.274,2.122c2.643,1.659,9.097,1.011,12.518,0.622c0.985-0.111,1.845-0.567,2.492-1.242
		c0.647-0.677,1.083-1.574,1.223-2.572C366.969,393.569,366.931,392.859,366.737,392.141"/>
	<path fill="#7F7A6F" d="M332.68,358.706c0-1.012-3.188-2.1-3.188-2.1c-4.484,1.088-8.034,1.14-13.005,0c0,0-3.188,1.088-3.188,2.1
		c0,0,2.741,1.088,9.739,1.088C330.036,359.794,332.68,358.706,332.68,358.706"/>
	<path fill="#2D2D2D" d="M324.962,427.285c21.357-0.414,17.003-20.733,15.966-27.369c-1.037-6.636,8.087-16.588,2.074-27.37
		c-6.014-10.781-19.698-11.196-19.698-11.196h-0.629c0,0-13.685,0.415-19.698,11.196c-6.014,10.782,3.11,20.734,2.073,27.37
		s-5.391,26.955,15.966,27.369H324.962z"/>
	<path fill="#2D2D2D" d="M353.833,442.836h-61.686c-2.963,0-5.365-2.4-5.365-5.363v-3.966c0-1.375,1.114-2.489,2.488-2.489h67.44
		c1.374,0,2.488,1.114,2.488,2.489v3.966C359.197,440.436,356.795,442.836,353.833,442.836"/>
	<path fill="#2D2D2D" d="M359.197,435.839v-2.332c0-1.375-1.114-2.489-2.488-2.489H289.27c-1.374,0-2.488,1.114-2.488,2.489v2.332
		H359.197z"/>
	<rect x="290.214" y="403.707" fill="#3D3D3D" width="7.776" height="27.311"/>
	<path fill="#2B2823" d="M297.8,403.707h-7.396c-1.708,0-3.092-1.384-3.092-3.093v-0.988c0-0.598,0.485-1.083,1.084-1.083h11.413
		c0.599,0,1.084,0.485,1.084,1.083v0.988C300.893,402.323,299.508,403.707,297.8,403.707"/>
	<rect x="347.989" y="403.707" fill="#3D3D3D" width="7.775" height="27.311"/>
	<rect x="290.214" y="403.707" fill="#66625B" width="7.776" height="4.088"/>
	<rect x="347.989" y="403.707" fill="#66625B" width="7.775" height="4.088"/>
	<path fill="#2B2823" d="M355.576,403.707h-7.396c-1.708,0-3.092-1.384-3.092-3.093v-0.988c0-0.598,0.485-1.083,1.083-1.083h11.413
		c0.599,0,1.084,0.485,1.084,1.083v0.988C358.668,402.323,357.283,403.707,355.576,403.707"/>
	<path fill="#1D1D1B" d="M343.672,494.155c0-1.89,1.532-3.421,3.42-3.421c1.891,0,3.422,1.531,3.422,3.421s-1.531,3.42-3.422,3.42
		C345.204,497.575,343.672,496.045,343.672,494.155"/>
	<path fill="#1D1D1B" d="M302.307,494.155c0-1.89-1.532-3.421-3.421-3.421c-1.89,0-3.421,1.531-3.421,3.421s1.532,3.42,3.421,3.42
		C300.775,497.575,302.307,496.045,302.307,494.155"/>
	<path fill="#2D2D2D" d="M323.249,484.514c11.664,0.933,22.238,8.708,22.238,8.708h2.799c2.491,0,4.509-2.02,4.509-4.51
		c-11.664-10.108-29.236-11.664-29.236-11.664h-1.14c0,0-17.572,1.556-29.235,11.664c0,2.49,2.019,4.51,4.509,4.51h2.8
		c0,0,10.574-7.775,22.238-8.708H323.249z"/>
	<path fill="#1D1D1B" d="M326.411,499.442c0-1.89-1.532-3.421-3.421-3.421c-1.89,0-3.422,1.531-3.422,3.421s1.532,3.421,3.422,3.421
		C324.879,502.863,326.411,501.332,326.411,499.442"/>
	<path fill="#2D2D2D" d="M323.664,499.806h-1.348c-1.604,0-2.903-1.3-2.903-2.903v-12.352c0-1.138,0.922-2.06,2.06-2.06h3.035
		c1.137,0,2.059,0.922,2.059,2.06v12.352C326.566,498.506,325.267,499.806,323.664,499.806"/>
	<path fill="#3D3D3D" d="M322.989,480.626L322.989,480.626c-1.975,0-3.577-1.602-3.577-3.577v-34.885
		c0-1.977,1.602-3.578,3.577-3.578c1.976,0,3.577,1.602,3.577,3.578v34.885C326.566,479.024,324.965,480.626,322.989,480.626"/>
	<path fill="#66625B" d="M326.566,449.057v-6.893c0-1.977-1.601-3.578-3.577-3.578c-1.975,0-3.577,1.602-3.577,3.578v6.893H326.566z
		"/>
	<path fill="#3D3D3D" d="M324.652,433.507h-3.457c-1.015,0-1.837-0.823-1.837-1.837v-23.64c0-1.013,0.822-1.834,1.837-1.834h3.457
		c1.015,0,1.836,0.821,1.836,1.834v23.64C326.488,432.684,325.667,433.507,324.652,433.507"/>
	<path fill="#DADADA" d="M246.58,390.707h-6.372c0-0.627,0.509-1.137,1.137-1.137h4.097C246.07,389.57,246.58,390.08,246.58,390.707
		"/>
	<path fill="#C6C6C6" d="M251.323,393.525h-15.859c0-1.557,1.262-2.818,2.817-2.818h10.224
		C250.062,390.707,251.323,391.969,251.323,393.525"/>
	<path fill="#B3B2B2" d="M255.149,396.343h-23.511c0-1.557,1.262-2.817,2.818-2.817h17.875
		C253.887,393.525,255.149,394.786,255.149,396.343"/>
	<rect x="231.638" y="396.343" fill="#9D9D9C" width="23.511" height="0.801"/>
	<path fill="#3C3C3B" d="M255.368,397.739h-23.949c-0.165,0-0.297-0.133-0.297-0.298c0-0.164,0.133-0.298,0.297-0.298h23.949
		c0.165,0,0.298,0.134,0.298,0.298C255.666,397.606,255.533,397.739,255.368,397.739"/>
	<path fill="#DADADA" d="M243.634,392.864h-0.48c-0.31,0-0.562-0.12-0.562-0.266v1.243c0,0.146,0.251,0.266,0.562,0.266h0.48
		c0.31,0,0.562-0.119,0.562-0.266v-1.243C244.195,392.744,243.944,392.864,243.634,392.864"/>
	<path fill="#F6F6F6" d="M243.154,392.864h0.48c0.31,0,0.562-0.12,0.562-0.266c0-0.146-0.251-0.266-0.562-0.266h-0.48
		c-0.31,0-0.562,0.119-0.562,0.266C242.592,392.744,242.844,392.864,243.154,392.864"/>
	<path fill="#DADADA" d="M243.497,392.091h-0.205c-0.132,0-0.24-0.05-0.24-0.113v0.532c0,0.063,0.108,0.113,0.24,0.113h0.205
		c0.132,0,0.24-0.05,0.24-0.113v-0.532C243.736,392.041,243.628,392.091,243.497,392.091"/>
	<path fill="#F6F6F6" d="M243.291,392.091h0.205c0.132,0,0.24-0.05,0.24-0.113c0-0.062-0.107-0.112-0.24-0.112h-0.205
		c-0.132,0-0.24,0.051-0.24,0.112C243.051,392.041,243.159,392.091,243.291,392.091"/>
	<path fill="#B3B2B2" d="M243.323,390.266c-0.6,0-1.086-0.177-1.086-0.775c0-3.5-1.258-5.604-2.851-8.267
		c-1.437-2.401-3.065-5.123-4.172-9.456c-1.191-4.659-0.753-8.408,1.302-11.141c3.028-4.029,8.407-4.243,8.634-4.25
		c0.596-0.02,1.101,0.452,1.119,1.052c0.019,0.599-0.45,1.1-1.048,1.118c-0.047,0.003-4.588,0.201-6.979,3.396
		c-1.631,2.181-1.942,5.305-0.924,9.286c1.03,4.026,2.572,6.605,3.932,8.879c1.695,2.835,3.16,5.282,3.16,9.382
		C244.409,390.089,243.922,390.266,243.323,390.266"/>
	<path fill="#9D9D9C" d="M244.951,358.78c-0.736-0.206-0.657-2.714,0.466-2.714c0.685,0,2.108,0.121,2.108,0.121
		s-0.809,2.167-0.615,3.098C246.91,359.285,245.475,358.928,244.951,358.78"/>
	<path fill="#929292" d="M248.545,363.15L248.545,363.15c-1.278-0.722-2.114-2.03-2.228-3.493l-0.007-0.09
		c-0.105-1.336,0.403-2.645,1.381-3.56l0.17-0.159c0.966-0.903,2.287-1.326,3.597-1.147l1.761,0.236L248.545,363.15z"/>
	<path fill="#DADADA" d="M275.074,364.701H244.31c-0.239,0-0.432,0.194-0.432,0.432c0,0.239,0.193,0.432,0.432,0.432h30.764
		c0.238,0,0.432-0.192,0.432-0.432C275.505,364.896,275.312,364.701,275.074,364.701"/>
	<path fill="#D0D0D0" d="M274.669,364.701h-29.955c0-1.191,0.966-2.157,2.158-2.157h25.638
		C273.704,362.544,274.669,363.51,274.669,364.701"/>
	<path fill="#C6C6C6" d="M272.565,362.544h-25.746c0-1.143,0.926-2.068,2.068-2.068h21.61
		C271.639,360.476,272.565,361.401,272.565,362.544z"/>
	<path fill="#BCBCBC" d="M270.497,360.476h-21.61c0-1.142,0.926-2.067,2.068-2.067h17.475
		C269.571,358.408,270.497,359.334,270.497,360.476"/>
	<path fill="#B3B2B2" d="M268.687,358.408h-17.991v-0.013c0-1.135,0.92-2.056,2.056-2.056h13.879c1.136,0,2.056,0.921,2.056,2.056
		V358.408z"/>
	<path fill="#A8A8A7" d="M266.859,356.34h-14.335v-0.039c0-1.121,0.909-2.029,2.029-2.029h10.277c1.121,0,2.029,0.908,2.029,2.029
		V356.34z"/>
	<path fill="#9D9D9C" d="M265.094,354.271h-10.805v-0.024c0-1.128,0.916-2.043,2.044-2.043h6.717c1.129,0,2.043,0.915,2.043,2.043
		V354.271z"/>
	<polygon fill="#FFFFFF" points="254.316,284.693 267.224,299.727 248.642,296.271 	"/>
	<path fill="#FFFFFF" d="M230.297,303.703c-12.263-3.244-19.574-15.814-16.33-28.078c3.245-12.263,15.815-19.574,28.079-16.329
		c12.263,3.244,19.574,15.815,16.329,28.078C255.131,299.637,242.56,306.947,230.297,303.703"/>
	<path fill="#008AB5" d="M249.33,275.598l-10.733-8.715c-1.092-0.887-2.656-0.887-3.748,0l-10.745,8.725
		c0.009,0.025,0.009,0.025,0.018,0.05h25.187C249.319,275.627,249.319,275.627,249.33,275.598"/>
	<path fill="#C5C4E0" d="M226.424,294.111h20.596c1.282,0,2.321-1.039,2.321-2.321v-13.812c0-1.282-1.039-2.321-2.321-2.321h-20.596
		c-1.282,0-2.321,1.039-2.321,2.321v13.812C224.104,293.072,225.143,294.111,226.424,294.111"/>
	<path fill="#008AB5" d="M247.021,295.155h-20.596c-1.855,0-3.365-1.51-3.365-3.365v-13.812c0-1.855,1.51-3.365,3.365-3.365h20.596
		c1.855,0,3.365,1.51,3.365,3.365v13.812C250.386,293.646,248.876,295.155,247.021,295.155"/>
	<rect x="226.767" y="269.756" fill="#FFFFFF" width="19.9" height="20.68"/>
	
		<rect x="226.767" y="269.756" fill="none" stroke="#00AFA6" stroke-width="2" stroke-miterlimit="10" width="19.9" height="20.68"/>
	<path fill="#008AB5" d="M249.341,288.611v-9.773l-9.094,5.711l-0.786,0.493h-0.495l-4.424,0.001h-0.557l-0.751-0.472l-9.13-5.734
		v8.052C232.516,286.586,240.929,287.797,249.341,288.611"/>
	<path fill="#EFEFEF" d="M249.341,291.631v-11.827l-9.094,5.712l8.756,7.361C249.217,292.51,249.341,292.085,249.341,291.631"/>
	<path fill="#EFEFEF" d="M224.104,279.804v11.827c0,0.469,0.133,0.906,0.359,1.28l8.771-7.374L224.104,279.804z"/>
	<path fill="#EFEFEF" d="M234.542,286.009l-9.221,7.753c0.371,0.221,0.802,0.35,1.264,0.35h20.277c0.477,0,0.921-0.138,1.3-0.371
		l-9.195-7.731H234.542z"/>
	<path fill="#008AB5" d="M224.463,292.911l-0.735,0.618l0.774,0.92l0.818-0.688C224.969,293.553,224.674,293.261,224.463,292.911"/>
	<path fill="#008AB5" d="M233.984,286.01l-0.751-0.473l-8.77,7.374c0.211,0.35,0.506,0.642,0.857,0.851l9.221-7.752H233.984z"/>
	<path fill="#008AB5" d="M249.779,293.529l-0.776-0.652c-0.206,0.353-0.495,0.648-0.842,0.863l0.844,0.709L249.779,293.529z"/>
	<path fill="#008AB5" d="M249.003,292.877l-8.755-7.361l-0.787,0.493h-0.495l9.195,7.731
		C248.508,293.525,248.797,293.229,249.003,292.877"/>
	<polygon fill="#FFFFFF" points="393.159,289.584 384.423,303.557 399.27,298.395 	"/>
	<path fill="#FFFFFF" d="M415.282,302.217c9.678-4.199,14.12-15.448,9.921-25.126c-4.198-9.678-15.447-14.12-25.125-9.921
		c-9.678,4.198-14.12,15.447-9.921,25.125C394.354,301.973,405.604,306.415,415.282,302.217"/>
	<path fill="#008AB5" d="M415.602,285.707h-11.865c-0.648,0-1.178-0.53-1.178-1.179c0-0.647,0.53-1.178,1.178-1.178h11.865
		c0.648,0,1.178,0.53,1.178,1.178C416.78,285.177,416.25,285.707,415.602,285.707"/>
	<path fill="#008AB5" d="M412.929,294.235h-10.687c-0.491,0-0.919-0.33-1.044-0.806l-2.566-9.797h-3.053
		c-0.596,0-1.079-0.483-1.079-1.079s0.483-1.078,1.079-1.078h3.886c0.49,0,0.919,0.331,1.043,0.805l2.566,9.798h8.903l0.85-6.714
		c0.075-0.592,0.614-1.009,1.206-0.936c0.591,0.075,1.01,0.615,0.935,1.206l-0.969,7.657
		C413.931,293.831,413.473,294.235,412.929,294.235"/>
	<path fill="#6FCACB" d="M404.912,296.796c0,0.709-0.574,1.284-1.283,1.284c-0.709,0-1.284-0.575-1.284-1.284
		c0-0.708,0.575-1.283,1.284-1.283C404.338,295.513,404.912,296.088,404.912,296.796"/>
	<path fill="#6FCACB" d="M412.468,296.796c0,0.709-0.574,1.284-1.283,1.284c-0.709,0-1.284-0.575-1.284-1.284
		c0-0.708,0.575-1.283,1.284-1.283C411.894,295.513,412.468,296.088,412.468,296.796"/>
	<path fill="#6FCACB" d="M411.502,288.395h-7.556c-0.298,0-0.54-0.241-0.54-0.539s0.242-0.539,0.54-0.539h7.556
		c0.298,0,0.54,0.241,0.54,0.539S411.8,288.395,411.502,288.395"/>
	<path fill="#6FCACB" d="M410.423,290.554h-5.397c-0.298,0-0.54-0.241-0.54-0.539c0-0.299,0.242-0.54,0.54-0.54h5.397
		c0.298,0,0.54,0.241,0.54,0.54C410.962,290.312,410.721,290.554,410.423,290.554"/>
	<polygon fill="#FFAF10" points="413.254,273.204 407.35,281.038 401.445,273.204 	"/>
	<polygon fill="#FFFFFF" points="438.561,252.653 430.335,260.497 443.211,259.336 	"/>
	<path fill="#FFFFFF" d="M455.373,262.218c7.343-3.199,10.702-11.745,7.502-19.088c-3.199-7.343-11.745-10.702-19.088-7.502
		s-10.702,11.745-7.503,19.087C439.483,262.058,448.029,265.417,455.373,262.218"/>
	<path fill="#6FCACB" d="M452.398,245.315c0,3.25-2.635,5.885-5.885,5.885s-5.884-2.635-5.884-5.885c0-3.25,2.634-5.885,5.884-5.885
		S452.398,242.065,452.398,245.315"/>
	<polygon fill="#6FCACB" points="451.834,246.867 455.01,245.225 451.834,243.455 	"/>
	<path fill="#FFFFFF" d="M447.249,245.315c0,0.346-0.27,0.637-0.68,0.637c-0.399,0-0.668-0.292-0.668-0.637
		c0-0.356,0.27-0.647,0.668-0.647C446.979,244.668,447.249,244.959,447.249,245.315"/>
	<path fill="#FFFFFF" d="M449.63,245.315c0,0.346-0.27,0.637-0.68,0.637c-0.399,0-0.669-0.292-0.669-0.637
		c0-0.356,0.27-0.647,0.669-0.647C449.361,244.668,449.63,244.959,449.63,245.315"/>
	<path fill="#FFFFFF" d="M444.873,245.315c0,0.346-0.281,0.637-0.691,0.637c-0.388,0-0.669-0.292-0.669-0.637
		c0-0.356,0.281-0.647,0.669-0.647C444.592,244.668,444.873,244.959,444.873,245.315"/>
	<polygon fill="#FFD400" points="448.583,255.479 445.408,253.079 448.583,251.228 	"/>
	<polygon fill="none" stroke="#FFD400" stroke-width="2" stroke-miterlimit="10" points="448.583,255.479 445.408,253.079 
		448.583,251.228 	"/>
	<path fill="#FFD400" d="M458.817,253.359c0,2.955-2.395,5.349-5.349,5.349c-2.955,0-5.35-2.394-5.35-5.349
		c0-2.954,2.395-5.349,5.35-5.349C456.422,248.011,458.817,250.405,458.817,253.359"/>
	<circle fill="none" stroke="#FFD400" stroke-width="2" stroke-miterlimit="10" cx="453.468" cy="253.359" r="5.349"/>
	<path fill="#FFFFFF" d="M453.358,252.604c0.399,0,0.669,0.341,0.669,0.756c0,0.403-0.27,0.744-0.669,0.744
		c-0.41,0-0.68-0.34-0.68-0.744C452.679,252.945,452.948,252.604,453.358,252.604"/>
	<path fill="#FFFFFF" d="M450.977,252.604c0.399,0,0.668,0.341,0.668,0.756c0,0.403-0.27,0.744-0.668,0.744
		c-0.411,0-0.68-0.34-0.68-0.744C450.297,252.945,450.566,252.604,450.977,252.604"/>
	<path fill="#FFFFFF" d="M455.745,252.604c0.389,0,0.669,0.341,0.669,0.756c0,0.403-0.28,0.744-0.669,0.744
		c-0.409,0-0.69-0.34-0.69-0.744C455.055,252.945,455.336,252.604,455.745,252.604"/>
	<polygon fill="#FFFFFF" points="400.587,366.735 388.261,362.538 399.341,358.541 	"/>
	<path fill="#FFFFFF" d="M420.153,350.576c6.947,4.271,9.116,13.364,4.846,20.311c-4.271,6.946-13.363,9.116-20.31,4.847
		c-6.947-4.271-9.117-13.364-4.846-20.311C404.113,348.476,413.206,346.307,420.153,350.576"/>
	<path fill="#FFAF10" d="M412.078,370.416c0,1.311-1.246,2.374-2.783,2.374c-1.536,0-2.782-1.063-2.782-2.374
		s1.246-2.374,2.782-2.374C410.832,368.042,412.078,369.105,412.078,370.416"/>
	<polygon fill="#FFAF10" points="411.749,371.492 411.503,362.156 417.782,362.156 416.629,365.106 412.078,365.106 	"/>
	<rect x="411.503" y="362.156" fill="#FFAF10" width="0.575" height="8.336"/>
	<path fill="#6FCACB" d="M421.722,364.639l-1.61-0.456c0.209-0.74,0.315-1.511,0.315-2.29c0-4.446-3.465-8.063-7.725-8.063
		c-4.259,0-7.725,3.617-7.725,8.063c0,0.729,0.093,1.451,0.276,2.146l-1.618,0.427c-0.221-0.834-0.332-1.7-0.332-2.573
		c0-5.369,4.216-9.737,9.398-9.737c5.183,0,9.399,4.368,9.399,9.737C422.102,362.826,421.974,363.75,421.722,364.639"/>
	<path fill="#6FCACB" d="M404.955,365.238c0,1.619-0.927,2.931-2.07,2.931c-1.144,0-2.07-1.312-2.07-2.931
		c0-1.617,0.927-2.929,2.07-2.929C404.028,362.31,404.955,363.621,404.955,365.238"/>
	<path fill="#6FCACB" d="M420.381,365.24c0-1.618,0.927-2.93,2.07-2.93s2.07,1.312,2.07,2.93c0,1.617-0.927,2.929-2.07,2.929
		S420.381,366.857,420.381,365.24"/>
	<path fill="#23A3B0" d="M403.652,369.671L403.652,369.671c-0.86,0-1.564-0.704-1.564-1.565v-5.732c0-0.86,0.704-1.564,1.564-1.564
		c0.861,0,1.564,0.704,1.564,1.564v5.732C405.216,368.967,404.513,369.671,403.652,369.671"/>
	<path fill="#23A3B0" d="M421.684,360.809L421.684,360.809c0.86,0,1.564,0.704,1.564,1.564v5.732c0,0.861-0.704,1.565-1.564,1.565
		c-0.861,0-1.564-0.704-1.564-1.565v-5.732C420.119,361.513,420.823,360.809,421.684,360.809"/>
	<path fill="#FFFFFF" d="M490.63,202.63c8.861-5.447,11.629-17.046,6.182-25.907c-5.447-8.861-17.046-11.628-25.907-6.182
		c-8.861,5.447-11.628,17.046-6.182,25.907C470.17,205.31,481.77,208.077,490.63,202.63"/>
	<path fill-rule="evenodd" clip-rule="evenodd" fill="#FFD400" d="M473.833,194.906c0-0.323,0.154-0.631,0.424-0.843
		c1.722-1.354,2.793-4.392,2.793-7.931c0-1.937,1.73-3.51,3.86-3.51c2.126,0,3.86,1.573,3.86,3.51c0,3.539,1.068,6.577,2.792,7.931
		c0.267,0.211,0.424,0.52,0.424,0.843H473.833z"/>
	<path fill="none" stroke="#FFD400" stroke-width="2" stroke-miterlimit="10" d="M473.833,194.906c0-0.323,0.154-0.631,0.424-0.843
		c1.722-1.354,2.793-4.392,2.793-7.931c0-1.937,1.73-3.51,3.86-3.51c2.126,0,3.86,1.573,3.86,3.51c0,3.539,1.068,6.577,2.792,7.931
		c0.267,0.211,0.424,0.52,0.424,0.843H473.833z"/>
	<path fill-rule="evenodd" clip-rule="evenodd" fill="#FFD400" d="M473.69,195.652h14.438c0.579,0,1.053-0.474,1.053-1.053
		s-0.474-1.053-1.053-1.053H473.69c-0.579,0-1.053,0.474-1.053,1.053S473.111,195.652,473.69,195.652"/>
	<path fill-rule="evenodd" clip-rule="evenodd" fill="#FFD400" d="M479.6,196.934c-0.723,0.724-0.723,1.896,0,2.62
		c0.723,0.723,1.896,0.723,2.619,0c0.724-0.724,0.724-1.896,0-2.62C481.496,196.211,480.323,196.211,479.6,196.934"/>
	
		<line fill="none" stroke="#FFD400" stroke-width="2" stroke-linecap="round" stroke-miterlimit="10" x1="489.182" y1="184.546" x2="494.364" y2="181.821"/>
	
		<line fill="none" stroke="#FFD400" stroke-width="2" stroke-linecap="round" stroke-miterlimit="10" x1="486.234" y1="180.937" x2="489.182" y2="176.222"/>
	
		<line fill="none" stroke="#FFD400" stroke-width="2" stroke-linecap="round" stroke-miterlimit="10" x1="472.354" y1="184.546" x2="467.172" y2="181.821"/>
	
		<line fill="none" stroke="#FFD400" stroke-width="2" stroke-linecap="round" stroke-miterlimit="10" x1="475.301" y1="180.937" x2="472.354" y2="176.222"/>
	
		<line fill="none" stroke="#FFD400" stroke-width="2" stroke-linecap="round" stroke-miterlimit="10" x1="480.895" y1="178.579" x2="480.895" y2="172.063"/>
	<polygon fill="#FFFFFF" points="329.232,275.687 326.099,289.314 320.28,277.312 	"/>
	<path fill="#FFFFFF" d="M313.792,274.891c-7.626-4.688-10.008-14.67-5.32-22.295c4.688-7.625,14.67-10.007,22.295-5.32
		c7.626,4.688,10.008,14.669,5.32,22.295C331.4,277.197,321.418,279.579,313.792,274.891"/>
	<polygon fill="#FFD400" points="322.633,248.332 324.833,252.789 329.752,253.503 326.192,256.973 327.033,261.872 
		322.633,259.559 318.233,261.872 319.074,256.973 315.515,253.503 320.433,252.789 	"/>
	<path fill="#6FCACB" d="M329.164,264.03c-0.03-0.52-0.5-0.918-1.044-0.887s-0.965,0.482-0.936,1.001l0.126,2.202l-0.318-0.033
		l-0.179-3.117c-0.03-0.519-0.5-0.918-1.044-0.887c-0.544,0.032-0.965,0.482-0.936,1.001l0.161,2.796l-0.318-0.033l-0.244-4.25
		c-0.03-0.52-0.5-0.918-1.044-0.887s-0.966,0.481-0.936,1.001l0.227,3.931l-0.318-0.033l-0.39-6.777
		c-0.03-0.52-0.5-0.918-1.044-0.887c-0.544,0.031-0.965,0.481-0.936,1.001l0.429,7.454c-0.012,0.496-0.082,1.226-0.153,2.077
		l-0.635-2.119c-0.133-0.443-0.623-0.7-1.087-0.57c-0.465,0.129-0.737,0.598-0.604,1.041c0,0,0.873,2.889,0.885,2.917
		c0.007,0.028,0.005,0.05,0.014,0.081c0,0,0.917,4.864,4.605,4.652l2.154-0.124c0.908-0.052,4.192-0.241,3.968-4.131L329.164,264.03
		z"/>
	<path fill="#85CAF9" d="M293.762,286.395l-5.744-2.563l4.645-10.834l-6.923,9.819l-4.998-2.23l13.353-9.864L293.762,286.395z
		 M286.347,288.083l-0.844-3.708l3.202,1.221L286.347,288.083z"/>
	<path fill="#85CAF9" d="M446.973,206.868l-5.744-2.563l4.645-10.835l-6.923,9.819l-4.998-2.23l13.353-9.864L446.973,206.868z
		 M439.559,208.556l-0.844-3.708l3.202,1.221L439.559,208.556z"/>
	<g>
		<g>
			<path fill="#85CAF9" d="M347.406,295.081l-0.417,0.429l0.905,0.879l0.417-0.429c0.395,0.264,0.847,0.447,1.334,0.529l0.008,0.598
				l1.262-0.018l-0.009-0.598c0.483-0.098,0.93-0.294,1.318-0.568l0.429,0.416l0.879-0.905l-0.429-0.417
				c0.263-0.395,0.447-0.848,0.529-1.333l0.599-0.009l-0.019-1.262l-0.598,0.009c-0.096-0.484-0.293-0.931-0.568-1.318l0.417-0.429
				l-0.905-0.879l-0.417,0.429c-0.395-0.263-0.848-0.447-1.334-0.529l-0.009-0.598l-1.261,0.019l0.009,0.598
				c-0.484,0.098-0.93,0.293-1.318,0.568l-0.429-0.416l-0.878,0.905l0.429,0.416c-0.263,0.396-0.447,0.848-0.529,1.333l-0.599,0.01
				l0.019,1.262l0.599-0.009C346.935,294.247,347.131,294.693,347.406,295.081 M350.189,290.531
				c1.409-0.021,2.568,1.104,2.588,2.514c0.021,1.41-1.105,2.568-2.514,2.59c-1.409,0.021-2.568-1.104-2.589-2.515
				C347.654,291.711,348.779,290.552,350.189,290.531"/>
			<path fill="#85CAF9" d="M357.312,287.631l0.375-0.166l-0.411-0.926l-0.373,0.167c-0.166-0.226-0.367-0.417-0.6-0.571l0.146-0.381
				l-0.945-0.364l-0.146,0.382c-0.275-0.042-0.556-0.035-0.828,0.021l-0.166-0.374l-0.925,0.411l0.166,0.374
				c-0.225,0.165-0.417,0.366-0.57,0.6l-0.381-0.146l-0.364,0.944l0.381,0.146c-0.042,0.278-0.035,0.555,0.021,0.828l-0.373,0.166
				l0.41,0.926l0.374-0.166c0.166,0.226,0.367,0.417,0.6,0.571l-0.147,0.381l0.945,0.363l0.147-0.38
				c0.274,0.04,0.555,0.034,0.827-0.021l0.167,0.374l0.925-0.411l-0.166-0.374c0.225-0.165,0.417-0.366,0.571-0.6l0.382,0.146
				l0.363-0.944l-0.382-0.147C357.376,288.182,357.369,287.904,357.312,287.631 M355.644,289.548
				c-0.197,0.087-0.405,0.133-0.618,0.137c-0.635,0.009-1.211-0.36-1.469-0.94c-0.354-0.797,0.006-1.732,0.804-2.086
				c0.196-0.088,0.404-0.133,0.617-0.137c0.635-0.009,1.211,0.36,1.469,0.94C356.8,288.258,356.44,289.194,355.644,289.548"/>
		</g>
	</g>
	<g>
		<g>
			<path fill="#85CAF9" d="M441.82,274.249c1.479-1.479,3.738-1.689,5.447-0.645c-0.579,0.573-1.247,1.242-1.247,1.242
				c-0.466,0.562,0.058,0.885,0.324,0.875h3.123c0.164,0,0.299,0,0.299,0h0.301h0.605c0.165,0,0.299-0.134,0.3-0.3v-4.292
				c0.019-0.393-0.412-0.774-0.857-0.335c0,0-0.738,0.717-1.246,1.222c-2.602-1.901-6.268-1.685-8.617,0.665
				c-1.372,1.371-2.011,3.19-1.935,4.985h2.221C440.46,276.439,440.881,275.188,441.82,274.249"/>
			<path fill="#85CAF9" d="M449.206,276.92c0.079,1.229-0.342,2.48-1.281,3.42c-1.479,1.478-3.739,1.688-5.447,0.645
				c0.579-0.573,1.247-1.242,1.247-1.242c0.467-0.561-0.057-0.885-0.324-0.876l-3.121,0.001c-0.165,0-0.3-0.001-0.3-0.001h-0.301
				h-0.605c-0.165,0-0.3,0.135-0.3,0.3v4.293c-0.018,0.392,0.413,0.772,0.858,0.334c0,0,0.736-0.718,1.246-1.221
				c2.602,1.9,6.268,1.686,8.618-0.664c1.37-1.371,2.01-3.19,1.935-4.986h-2.222V276.92z"/>
		</g>
	</g>
	<g>
		<g>
			<path fill="#85CAF9" d="M257.933,319.984c-1.843,0-3.336,1.494-3.336,3.337s3.336,6.133,3.336,6.133s3.337-4.29,3.337-6.133
				S259.775,319.984,257.933,319.984z M257.933,323.861c-0.573,0-1.037-0.464-1.037-1.037c0-0.572,0.464-1.037,1.037-1.037
				s1.038,0.465,1.038,1.037C258.97,323.397,258.505,323.861,257.933,323.861z"/>
		</g>
	</g>
	<path fill="#85CAF9" d="M432.719,339.874l0.266-0.291c0.412-0.45,0.38-1.149-0.07-1.562l-3.655-3.34
		c-0.083-0.077-0.177-0.138-0.274-0.184c0.465-1.022,0.545-2.234,0.127-3.389c-0.833-2.299-3.329-3.51-5.563-2.7
		c-2.235,0.811-3.376,3.338-2.543,5.637c0.833,2.299,3.328,3.512,5.563,2.702c0.266-0.097,0.517-0.219,0.75-0.361
		c0.051,0.079,0.111,0.151,0.183,0.218l3.656,3.34C431.608,340.355,432.307,340.324,432.719,339.874z M422.304,333.575
		c-0.575-1.585,0.193-3.316,1.714-3.868c1.521-0.551,3.22,0.288,3.794,1.874c0.574,1.585-0.192,3.317-1.714,3.868
		C424.577,336.001,422.878,335.162,422.304,333.575z"/>
	<path fill="#85CAF9" d="M523.62,167.391l0.266-0.291c0.412-0.45,0.38-1.149-0.07-1.562l-3.655-3.34
		c-0.083-0.077-0.177-0.138-0.274-0.184c0.465-1.022,0.545-2.234,0.127-3.389c-0.833-2.299-3.329-3.51-5.563-2.7
		c-2.235,0.811-3.376,3.338-2.543,5.637c0.833,2.299,3.328,3.512,5.563,2.702c0.266-0.097,0.517-0.219,0.75-0.361
		c0.051,0.079,0.111,0.151,0.183,0.218l3.656,3.34C522.509,167.872,523.208,167.841,523.62,167.391z M513.206,161.092
		c-0.575-1.585,0.193-3.316,1.714-3.868c1.521-0.551,3.22,0.288,3.794,1.874c0.574,1.585-0.192,3.317-1.714,3.868
		C515.478,163.518,513.779,162.679,513.206,161.092z"/>
</g>
</svg>
