<?xml version="1.0" encoding="utf-8"?>
<!-- Generator: Adobe Illustrator 15.0.0, SVG Export Plug-In . SVG Version: 6.00 Build 0)  -->
<!DOCTYPE svg PUBLIC "-//W3C//DTD SVG 1.1//EN" "http://www.w3.org/Graphics/SVG/1.1/DTD/svg11.dtd">
<svg version="1.1" xmlns="http://www.w3.org/2000/svg" xmlns:xlink="http://www.w3.org/1999/xlink" x="0px" y="0px" width="1366px"
	 height="563px" viewBox="0 0 1366 563" enable-background="new 0 0 1366 563" xml:space="preserve">
<g id="Layer_1">
	<linearGradient id="SVGID_1_" gradientUnits="userSpaceOnUse" x1="674.313" y1="563" x2="674.313" y2="-15.9702">
		<stop  offset="0.2454" style="stop-color:#A2CCFF"/>
		<stop  offset="0.8466" style="stop-color:#5CAAFF"/>
	</linearGradient>
	<rect x="-17.374" y="-15.971" fill="url(#SVGID_1_)" width="1383.374" height="578.971"/>
	<g>
		<rect x="-17.374" y="461.487" fill="#CCAC75" width="1383.374" height="101.513"/>
		<rect x="-17.374" y="451.856" fill="#FFD792" width="1383.374" height="9.631"/>
	</g>
</g>
<g id="Layer_2">
	<path fill="#327EB7" d="M1339.334,416.37v-27.667h-13.415v-62.042h-18.445v36.89h-19.282v-12.575h-18.445v-43.597h-36.05v-18.444
		h-52.818v15.93h-24.312v-21.799h-22.637v-51.142h-9.222l-31.021,20.96v20.96h-19.282v20.96h-20.121v-61.203h-10.062v-10.061h-7.545
		v9.222h-10.061v93.899h-28.506V286.42h-31.858v21.798H925.17v-38.567h-8.385v-8.383h-22.637v7.545h-6.707v36.051h-10.73v-29.081
		c0.03-3.265,0.034-6.7,0-10.255v-2.06h-0.022c-0.51-37.871-5.405-87.685-27.814-85.201c-18.052,1.999-21.785,49.381-22.01,85.201
		h-0.048v39.719h-13.153V259.59h-52.818v42.759h-31.858v20.121h-10.061v-87.193h-9.223v-23.475h-3.354v23.475H695.45v88.031h-29.343
		V302.35H643.47v-10.062h-30.182v10.9H581.43v54.494h-18.445v83.001h-77.131v9.223L1367,451.582V416.37H1339.334z"/>
	<polygon fill="#87BCD6" points="455.425,448.552 455.425,443.521 508.244,443.521 508.244,401.393 508.244,393.218 
		535.282,393.218 535.282,340.399 558.547,340.399 558.547,393.218 574.896,393.218 574.896,374.354 583.07,374.354 583.07,364.294 
		636.518,364.294 636.518,374.354 644.692,374.354 644.692,393.218 676.131,393.218 676.131,354.861 692.48,354.861 692.48,393.218 
		708.2,393.218 708.2,340.399 715.116,340.399 715.116,332.854 769.192,332.854 769.192,340.399 776.109,340.399 776.109,361.149 
		794.345,361.149 794.345,382.528 828.928,382.528 828.928,395.104 881.746,395.104 881.746,342.286 903.125,342.286 
		903.125,331.597 913.814,331.597 913.814,342.286 935.193,342.286 935.193,368.695 952.8,368.695 952.8,385.044 1021.967,385.044 
		1021.967,334.74 1098.051,334.74 1098.051,355.49 1150.241,355.49 1150.241,373.097 1175.393,373.097 1175.393,335.998 
		1185.453,335.998 1185.453,329.71 1208.09,329.71 1208.09,335.998 1216.893,335.998 1216.893,373.097 1242.674,373.097 
		1242.674,395.733 1268.454,395.733 1268.454,385.673 1283.545,385.673 1283.545,409.566 1314.355,409.566 1314.355,441.006 
		1336.992,441.006 1336.992,447.923 1336.992,452.953 455.425,452.953 	"/>
	<rect x="92.12" y="-15.971" opacity="0.91" fill="#CEC6BA" width="8.25" height="469.553"/>
	<rect x="401.479" y="-15.971" opacity="0.91" fill="#CEC6BA" width="8.25" height="469.553"/>
	<rect x="725.961" y="-15.971" opacity="0.91" fill="#CEC6BA" width="8.25" height="469.553"/>
	<rect x="1053.447" y="-15.971" opacity="0.91" fill="#CEC6BA" width="8.25" height="469.553"/>
	<rect x="-29.375" y="199.875" opacity="0.91" fill="#CEC6BA" width="1395.375" height="8.25"/>
</g>
<g id="Layer_3">
	<line fill="none" x1="146.165" y1="532.098" x2="146.165" y2="265.815"/>
	<line fill="none" x1="412.448" y1="265.815" x2="412.448" y2="532.098"/>
	<polygon fill="#7F6B49" points="367.91,478.427 281.833,478.427 280.54,478.427 194.463,478.427 153.155,509.883 280.54,509.883 
		281.833,509.883 409.217,509.883 	"/>
	<rect x="176.602" y="397.739" fill="#C6C6C6" width="212.426" height="8.397"/>
	<path fill="#B3B2B2" d="M192.229,499.812h-5.854c-0.359,0-0.65-0.292-0.65-0.649v-92.967h7.153v92.967
		C192.878,499.521,192.588,499.812,192.229,499.812"/>
	<path fill="#B3B2B2" d="M379.256,499.812h-5.854c-0.358,0-0.649-0.292-0.649-0.649v-92.967h7.154v92.967
		C379.906,499.521,379.615,499.812,379.256,499.812"/>
	<rect x="185.725" y="406.196" fill="#9D9D9C" width="7.153" height="5.953"/>
	<rect x="372.752" y="406.196" fill="#9D9D9C" width="7.154" height="5.953"/>
	<path fill="#9D9D9C" d="M204.892,486.572h-4.847c-0.359,0-0.649-0.291-0.649-0.65v-79.785h6.146v79.785
		C205.542,486.281,205.251,486.572,204.892,486.572"/>
	<path fill="#9D9D9C" d="M365.585,486.572h-4.847c-0.359,0-0.65-0.291-0.65-0.65v-79.785h6.146v79.785
		C366.234,486.281,365.944,486.572,365.585,486.572"/>
	<path fill="#F6F6F6" d="M226.656,397.739c0-0.815,0.664-1.479,1.478-1.479h71.03c0.816,0,1.479,0.663,1.479,1.479H226.656z"/>
	<path fill="#878787" d="M233.483,396.26v-0.466c0-0.269-0.219-0.488-0.488-0.488h-2.729c-0.27,0-0.489,0.22-0.489,0.488v0.466
		H233.483z"/>
	<path fill="#878787" d="M238.157,396.26v-0.466c0-0.269-0.219-0.488-0.489-0.488h-2.728c-0.271,0-0.489,0.22-0.489,0.488v0.466
		H238.157z"/>
	<path fill="#878787" d="M242.831,396.26v-0.466c0-0.269-0.218-0.488-0.488-0.488h-2.729c-0.27,0-0.488,0.22-0.488,0.488v0.466
		H242.831z"/>
	<path fill="#878787" d="M247.504,396.26v-0.466c0-0.269-0.219-0.488-0.488-0.488h-2.729c-0.27,0-0.489,0.22-0.489,0.488v0.466
		H247.504z"/>
	<path fill="#878787" d="M273.282,396.26v-0.466c0-0.269-0.219-0.488-0.489-0.488h-23.832c-0.27,0-0.489,0.22-0.489,0.488v0.466
		H273.282z"/>
	<path fill="#878787" d="M277.955,396.26v-0.466c0-0.269-0.219-0.488-0.488-0.488h-2.728c-0.27,0-0.489,0.22-0.489,0.488v0.466
		H277.955z"/>
	<path fill="#878787" d="M282.628,396.26v-0.466c0-0.269-0.219-0.488-0.488-0.488h-2.729c-0.27,0-0.488,0.22-0.488,0.488v0.466
		H282.628z"/>
	<path fill="#878787" d="M287.138,396.26v-0.466c0-0.269-0.219-0.488-0.488-0.488h-2.729c-0.269,0-0.488,0.22-0.488,0.488v0.466
		H287.138z"/>
	<path fill="#878787" d="M296.67,396.26v-0.466c0-0.269-0.218-0.488-0.488-0.488h-2.728c-0.27,0-0.489,0.22-0.489,0.488v0.466
		H296.67z"/>
	<path fill="#878787" d="M291.812,396.26v-0.466c0-0.269-0.219-0.488-0.489-0.488h-2.728c-0.27,0-0.488,0.22-0.488,0.488v0.466
		H291.812z"/>
	<rect x="267.78" y="380.855" fill="#B3B2B2" width="22.842" height="15.89"/>
	<rect x="267.78" y="380.855" fill="#878787" width="22.842" height="3.972"/>
	<path fill="#9D9D9C" d="M294.973,397.739c-0.052-0.556-0.504-0.994-1.072-0.994h-29.398c-0.567,0-1.02,0.438-1.072,0.994H294.973z"
		/>
	<path fill="#3C3C3B" d="M329.324,380.855h-99.052c-2.56,0-4.635-2.075-4.635-4.635v-62.504c0-2.56,2.075-4.635,4.635-4.635h99.052
		c2.559,0,4.634,2.075,4.634,4.635v62.504C333.958,378.78,331.883,380.855,329.324,380.855"/>
	<path fill="#7F7A6F" d="M225.637,369.334v6.887c0,2.56,2.075,4.635,4.635,4.635h99.052c2.559,0,4.634-2.075,4.634-4.635v-6.887
		H225.637z"/>
	<path fill="#CCAC75" d="M328.364,366.652h-97.132c-1.151,0-2.086-0.933-2.086-2.086v-48.963c0-1.151,0.935-2.085,2.086-2.085
		h97.132c1.152,0,2.085,0.934,2.085,2.085v48.963C330.449,365.72,329.516,366.652,328.364,366.652"/>
	<path fill="#DADADA" d="M282.281,375.095c0-1.372-1.112-2.483-2.483-2.483c-1.371,0-2.482,1.111-2.482,2.483
		c0,1.371,1.112,2.483,2.482,2.483C281.168,377.578,282.281,376.466,282.281,375.095"/>
	<polygon fill="#E89970" points="258.637,361.068 260.347,360.825 259.703,362.428 	"/>
	<rect x="291.423" y="362.411" fill="#DADADA" width="1.348" height="0.304"/>
	<rect x="291.423" y="360.718" fill="#DADADA" width="1.348" height="0.306"/>
	<rect x="291.423" y="359.027" fill="#DADADA" width="1.348" height="0.304"/>
	<line fill="none" x1="146.165" y1="532.098" x2="146.165" y2="265.815"/>
	<line fill="none" x1="412.448" y1="265.815" x2="412.448" y2="532.098"/>
	<path fill="#7F6B49" d="M344.004,496.954c0-5.955-29.138-10.781-65.081-10.781c-35.944,0-65.082,4.826-65.082,10.781
		s29.138,10.782,65.082,10.782C314.867,507.736,344.004,502.909,344.004,496.954"/>
	<path fill="#FFD792" d="M256.573,423.968c0,0-10.264,2.177-11.611,5.288c-1.348,3.11-1.141,11.196,0.415,15.55
		c1.555,4.355,12.751,31.518,12.959,34.006c0,0,3.11,0.622,3.835,0.726c0,0-10.263,4.562-10.678,8.604
		c-0.415,4.043,20.424,2.903,23.119-1.969c0,0-1.659-5.081-2.902-6.636c0,0,0.933-1.45,0.726-2.073
		c-0.208-0.622-5.703-17.521-6.428-21.149c-0.726-3.628-3.836-11.094-1.97-12.649c1.866-1.555,14.722-1.864,14.722-1.864h0.46
		c0,0,12.856,0.31,14.722,1.864c1.866,1.556-1.244,9.021-1.97,12.649c-0.726,3.629-6.22,20.527-6.427,21.149
		c-0.208,0.623,0.725,2.073,0.725,2.073c-1.243,1.555-2.902,6.636-2.902,6.636c2.695,4.872,23.534,6.012,23.119,1.969
		c-0.415-4.043-10.678-8.604-10.678-8.604c0.726-0.104,3.836-0.726,3.836-0.726c0.208-2.488,11.404-29.65,12.959-34.006
		c1.555-4.354,1.762-12.439,0.414-15.55c-1.347-3.111-11.611-5.288-11.611-5.288s-4.795,4.313-21.59,4.313
		C263.021,428.281,256.574,423.968,256.573,423.968"/>
	<path fill="#CCAC75" d="M313.017,429.256c-1.347-3.111-11.611-5.288-11.611-5.288s-4.795,4.313-21.591,4.313
		c-16.794,0-23.242-4.313-23.242-4.313s-10.264,2.177-11.612,5.288c-1.347,3.11-1.14,11.197,0.415,15.55
		c0.79,2.212,4.065,10.304,7.125,18.06c4.366-2.14,9.677-3.052,14.229-3.736c-0.343-1.217-0.601-2.205-0.723-2.814
		c-0.726-3.628-3.836-11.094-1.97-12.649c1.866-1.555,14.722-1.864,14.722-1.864h0.46c0,0,12.856,0.31,14.722,1.864
		c1.866,1.556-1.245,9.021-1.97,12.649c-0.155,0.775-0.53,2.159-1.021,3.858c0.238,0.062,0.483,0.111,0.72,0.179
		c1.854,0.523,7.921,2.373,12.964,4.657c3.275-8.349,7.105-17.786,7.968-20.203C314.158,440.453,314.365,432.366,313.017,429.256"/>
	<path fill="#575756" d="M262.171,479.537c0,0-10.263,4.562-10.678,8.604c-0.415,4.043,20.424,2.903,23.119-1.969
		c0,0-1.659-5.081-2.903-6.636C271.709,479.537,270.589,480.833,262.171,479.537"/>
	<path fill="#575756" d="M295.808,479.537c-7.802,1.141-9.538,0-9.538,0c-1.244,1.555-2.903,6.636-2.903,6.636
		c2.695,4.872,23.534,6.012,23.119,1.969S295.808,479.537,295.808,479.537"/>
	<path fill="#FFF3DE" d="M285.492,356.606L285.492,356.606c-0.233-1.167-0.208-5.417-0.208-5.417
		c3.732-2.748,5.028-9.227,5.028-9.227s1.763-2.281,1.866-3.732c0.104-1.452-0.934-1.97-0.934-1.97
		c0.281-8.555-2.641-13.658-6.173-15.261c-1.519-0.689-4.415-1.016-6.083-1.016c-1.667,0-4.564,0.326-6.083,1.016
		c-3.531,1.603-6.453,6.706-6.173,15.261c0,0-1.036,0.518-0.933,1.97c0.104,1.451,1.866,3.732,1.866,3.732s1.296,6.479,5.028,9.227
		c0,0,0.026,4.25-0.208,5.417C277.458,357.746,281.008,357.694,285.492,356.606"/>
	<path fill="#FFF3DE" d="M291.246,336.261c0.281-8.555-2.641-13.658-6.173-15.261c-1.519-0.689-4.415-1.017-6.083-1.017
		c-1.667,0-4.564,0.327-6.083,1.017c-3.531,1.603-6.453,6.706-6.173,15.261c0,0-1.036,0.518-0.934,1.97
		c0.104,1.451,1.867,3.732,1.867,3.732s1.296,6.479,5.028,9.227c0,0,0.01,1.619-0.038,3.132c1.509,0.705,3.426,1.209,6.628,1.209
		c2.656,0,5.124-0.731,6.026-1.634c-0.034-1.377-0.026-2.707-0.026-2.707c3.732-2.748,5.029-9.227,5.029-9.227
		s1.763-2.281,1.866-3.732C292.283,336.778,291.246,336.261,291.246,336.261"/>
	<path fill="#7F6B49" d="M291.246,336.261c0.281-8.555-2.641-13.658-6.173-15.261c-1.519-0.689-4.415-1.017-6.083-1.017
		c-1.667,0-4.564,0.327-6.083,1.017c-3.531,1.603-6.453,6.706-6.173,15.261c0,0,0.046,1.451,0.124,2.255
		c0.077,0.804,0.809,3.447,0.809,3.447s1.296,6.479,5.028,9.227c0,0,2.611,2.177,6.033,2.177c3.421,0,6.557-2.177,6.557-2.177
		c3.732-2.748,5.029-9.227,5.029-9.227s0.622-2.592,0.7-3.266C291.09,338.023,291.246,336.261,291.246,336.261"/>
	<path fill="#FFD792" d="M322.737,392.141c-0.778-2.877-17.029-23.482-20.45-27.993c-3.421-4.508-13.607-5.442-13.607-5.442
		c0-1.011-3.188-2.099-3.188-2.099c-4.484,1.088-8.035,1.14-13.005,0c0,0-1.008,0.344-1.891,0.826
		c-0.686,0.373-1.297,0.83-1.297,1.272c0,0-10.185,0.935-13.607,5.442c-3.421,4.511-19.671,25.116-20.449,27.993
		c-0.777,2.877,0.949,5.61,3.577,5.909c3.421,0.389,9.875,1.037,12.519-0.622c0.36-0.227,1.226-1.052,2.274-2.122
		c0.628-0.642,1.322-1.372,2.01-2.111c1.835-1.974,3.634-4.021,4.062-4.683c0,0.002-0.161,1.998-0.399,4.772
		c-0.04,0.463-0.082,0.946-0.125,1.448c-0.043,0.5-0.089,1.016-0.136,1.542c-0.305,3.422-0.67,7.279-0.992,10.024
		c-0.074,0.634-0.146,1.208-0.214,1.704c-0.181,1.32-0.563,2.76-0.981,4.229c-0.418,1.47-0.872,2.968-1.196,4.413
		c-0.647,2.891-0.777,5.561,0.934,7.322c0,0,6.448,4.313,23.242,4.313c16.795,0,21.591-4.313,21.591-4.313
		c1.924-1.981,1.52-5.113,0.667-8.414c-0.283-1.101-0.617-2.22-0.93-3.321c-0.418-1.47-0.8-2.909-0.982-4.229
		c-0.067-0.496-0.14-1.07-0.213-1.704c-0.075-0.633-0.151-1.326-0.228-2.059c-0.052-0.488-0.104-0.995-0.156-1.514
		c-0.052-0.52-0.105-1.05-0.157-1.588c-0.104-1.074-0.207-2.178-0.306-3.26c-0.049-0.542-0.098-1.078-0.145-1.604
		c-0.094-1.053-0.182-2.065-0.262-2.99c-0.239-2.774-0.399-4.771-0.399-4.772c0.587,0.909,3.767,4.44,6.072,6.794
		c1.047,1.07,1.914,1.896,2.274,2.122c2.643,1.659,9.097,1.011,12.518,0.622c0.985-0.111,1.845-0.567,2.492-1.242
		c0.647-0.677,1.083-1.574,1.223-2.572C322.969,393.569,322.931,392.859,322.737,392.141"/>
	<path fill="#7F7A6F" d="M288.68,358.706c0-1.012-3.188-2.1-3.188-2.1c-4.484,1.088-8.034,1.14-13.005,0c0,0-3.188,1.088-3.188,2.1
		c0,0,2.741,1.088,9.739,1.088C286.036,359.794,288.68,358.706,288.68,358.706"/>
	<path fill="#7F6B49" d="M280.962,427.285c21.357-0.414,17.003-20.733,15.966-27.369c-1.037-6.636,8.087-16.588,2.074-27.37
		c-6.014-10.781-19.698-11.196-19.698-11.196h-0.629c0,0-13.685,0.415-19.698,11.196c-6.014,10.782,3.11,20.734,2.073,27.37
		s-5.391,26.955,15.966,27.369H280.962z"/>
	<path fill="#7F6B49" d="M277.017,423.554c-4.9-0.097-8.484-1.42-10.579-3.938c-4.035-4.841-2.569-13.797-1.864-18.102l0.165-1.022
		c0.525-3.363-0.648-6.764-1.89-10.365c-1.767-5.121-3.594-10.416-0.611-15.763c4.926-8.83,16.436-9.28,16.551-9.283l0.426,0.002
		c0.735,0.039,11.788,0.784,16.528,9.281c2.981,5.349,1.155,10.644-0.611,15.763c-1.243,3.602-2.417,7.002-1.89,10.365l0.164,1.022
		c0.705,4.305,2.171,13.261-1.862,18.102c-2.092,2.513-5.664,3.836-10.617,3.938H277.017z"/>
	<path fill="#7F7A6F" d="M309.833,442.836h-61.686c-2.963,0-5.365-2.4-5.365-5.363v-3.966c0-1.375,1.114-2.489,2.488-2.489h67.44
		c1.374,0,2.488,1.114,2.488,2.489v3.966C315.197,440.436,312.795,442.836,309.833,442.836"/>
	<path fill="#7F6B49" d="M315.197,435.839v-2.332c0-1.375-1.114-2.489-2.488-2.489H245.27c-1.374,0-2.488,1.114-2.488,2.489v2.332
		H315.197z"/>
	<rect x="246.214" y="403.707" fill="#7F7A6F" width="7.776" height="27.311"/>
	<path fill="#7F6B49" d="M253.8,403.707h-7.396c-1.708,0-3.092-1.384-3.092-3.093v-0.988c0-0.598,0.485-1.083,1.084-1.083h11.413
		c0.599,0,1.084,0.485,1.084,1.083v0.988C256.893,402.323,255.508,403.707,253.8,403.707"/>
	<rect x="303.989" y="403.707" fill="#7F7A6F" width="7.775" height="27.311"/>
	<rect x="246.214" y="403.707" fill="#66625B" width="7.776" height="4.088"/>
	<rect x="303.989" y="403.707" fill="#66625B" width="7.775" height="4.088"/>
	<path fill="#7F6B49" d="M311.576,403.707h-7.396c-1.708,0-3.092-1.384-3.092-3.093v-0.988c0-0.598,0.485-1.083,1.083-1.083h11.413
		c0.599,0,1.084,0.485,1.084,1.083v0.988C314.668,402.323,313.283,403.707,311.576,403.707"/>
	<path fill="#1D1D1B" d="M299.672,494.155c0-1.89,1.532-3.421,3.42-3.421c1.891,0,3.422,1.531,3.422,3.421s-1.531,3.42-3.422,3.42
		C301.204,497.575,299.672,496.045,299.672,494.155"/>
	<path fill="#1D1D1B" d="M258.307,494.155c0-1.89-1.532-3.421-3.421-3.421c-1.89,0-3.421,1.531-3.421,3.421s1.532,3.42,3.421,3.42
		C256.775,497.575,258.307,496.045,258.307,494.155"/>
	<path fill="#6B675E" d="M279.249,484.514c11.664,0.933,22.238,8.708,22.238,8.708h2.799c2.491,0,4.509-2.02,4.509-4.51
		c-11.664-10.108-29.236-11.664-29.236-11.664h-1.14c0,0-17.572,1.556-29.235,11.664c0,2.49,2.019,4.51,4.509,4.51h2.8
		c0,0,10.574-7.775,22.238-8.708H279.249z"/>
	<path fill="#1D1D1B" d="M282.411,499.442c0-1.89-1.532-3.421-3.421-3.421c-1.89,0-3.422,1.531-3.422,3.421s1.532,3.421,3.422,3.421
		C280.879,502.863,282.411,501.332,282.411,499.442"/>
	<path fill="#6B675E" d="M279.664,499.806h-1.348c-1.604,0-2.903-1.3-2.903-2.903v-12.352c0-1.138,0.922-2.06,2.06-2.06h3.035
		c1.137,0,2.059,0.922,2.059,2.06v12.352C282.566,498.506,281.267,499.806,279.664,499.806"/>
	<path fill="#7F7A6F" d="M278.989,480.626L278.989,480.626c-1.975,0-3.577-1.602-3.577-3.577v-34.885
		c0-1.977,1.602-3.578,3.577-3.578c1.976,0,3.577,1.602,3.577,3.578v34.885C282.566,479.024,280.965,480.626,278.989,480.626"/>
	<path fill="#66625B" d="M282.566,449.057v-6.893c0-1.977-1.601-3.578-3.577-3.578c-1.975,0-3.577,1.602-3.577,3.578v6.893H282.566z
		"/>
	<path fill="#7F7A6F" d="M280.652,433.507h-3.457c-1.015,0-1.837-0.823-1.837-1.837v-23.64c0-1.013,0.822-1.834,1.837-1.834h3.457
		c1.015,0,1.836,0.821,1.836,1.834v23.64C282.488,432.684,281.667,433.507,280.652,433.507"/>
	<path fill="#DADADA" d="M202.58,390.707h-6.372c0-0.627,0.509-1.137,1.137-1.137h4.097C202.07,389.57,202.58,390.08,202.58,390.707
		"/>
	<path fill="#C6C6C6" d="M207.323,393.525h-15.859c0-1.557,1.262-2.818,2.817-2.818h10.224
		C206.062,390.707,207.323,391.969,207.323,393.525"/>
	<path fill="#B3B2B2" d="M211.149,396.343h-23.511c0-1.557,1.262-2.817,2.818-2.817h17.875
		C209.887,393.525,211.149,394.786,211.149,396.343"/>
	<rect x="187.638" y="396.343" fill="#9D9D9C" width="23.511" height="0.801"/>
	<path fill="#3C3C3B" d="M211.368,397.739h-23.949c-0.165,0-0.297-0.133-0.297-0.298c0-0.164,0.133-0.298,0.297-0.298h23.949
		c0.165,0,0.298,0.134,0.298,0.298C211.666,397.606,211.533,397.739,211.368,397.739"/>
	<path fill="#DADADA" d="M199.634,392.864h-0.48c-0.31,0-0.562-0.12-0.562-0.266v1.243c0,0.146,0.251,0.266,0.562,0.266h0.48
		c0.31,0,0.562-0.119,0.562-0.266v-1.243C200.195,392.744,199.944,392.864,199.634,392.864"/>
	<path fill="#F6F6F6" d="M199.154,392.864h0.48c0.31,0,0.562-0.12,0.562-0.266c0-0.146-0.251-0.266-0.562-0.266h-0.48
		c-0.31,0-0.562,0.119-0.562,0.266C198.592,392.744,198.844,392.864,199.154,392.864"/>
	<path fill="#DADADA" d="M199.497,392.091h-0.205c-0.132,0-0.24-0.05-0.24-0.113v0.532c0,0.063,0.108,0.113,0.24,0.113h0.205
		c0.132,0,0.24-0.05,0.24-0.113v-0.532C199.736,392.041,199.628,392.091,199.497,392.091"/>
	<path fill="#F6F6F6" d="M199.291,392.091h0.205c0.132,0,0.24-0.05,0.24-0.113c0-0.062-0.107-0.112-0.24-0.112h-0.205
		c-0.132,0-0.24,0.051-0.24,0.112C199.051,392.041,199.159,392.091,199.291,392.091"/>
	<path fill="#B3B2B2" d="M199.323,390.266c-0.6,0-1.086-0.177-1.086-0.775c0-3.5-1.258-5.604-2.851-8.267
		c-1.437-2.401-3.065-5.123-4.172-9.456c-1.191-4.659-0.753-8.408,1.302-11.141c3.028-4.029,8.407-4.243,8.634-4.25
		c0.596-0.02,1.101,0.452,1.119,1.052c0.019,0.599-0.45,1.1-1.048,1.118c-0.047,0.003-4.588,0.201-6.979,3.396
		c-1.631,2.181-1.942,5.305-0.924,9.286c1.03,4.026,2.572,6.605,3.932,8.879c1.695,2.835,3.16,5.282,3.16,9.382
		C200.409,390.089,199.922,390.266,199.323,390.266"/>
	<path fill="#9D9D9C" d="M200.951,358.78c-0.736-0.206-0.657-2.714,0.466-2.714c0.685,0,2.108,0.121,2.108,0.121
		s-0.809,2.167-0.615,3.098C202.91,359.285,201.475,358.928,200.951,358.78"/>
	<path fill="#929292" d="M204.545,363.15L204.545,363.15c-1.278-0.722-2.114-2.03-2.228-3.493l-0.007-0.09
		c-0.105-1.336,0.403-2.645,1.381-3.56l0.17-0.159c0.966-0.903,2.287-1.326,3.597-1.147l1.761,0.236L204.545,363.15z"/>
	<path fill="#DADADA" d="M231.074,364.701H200.31c-0.239,0-0.432,0.194-0.432,0.432c0,0.239,0.193,0.432,0.432,0.432h30.764
		c0.238,0,0.432-0.192,0.432-0.432C231.505,364.896,231.312,364.701,231.074,364.701"/>
	<path fill="#D0D0D0" d="M230.669,364.701h-29.955c0-1.191,0.966-2.157,2.158-2.157h25.638
		C229.704,362.544,230.669,363.51,230.669,364.701"/>
	<path fill="#C6C6C6" d="M228.565,362.544h-25.746c0-1.143,0.926-2.068,2.068-2.068h21.61
		C227.639,360.476,228.565,361.401,228.565,362.544z"/>
	<path fill="#BCBCBC" d="M226.497,360.476h-21.61c0-1.142,0.926-2.067,2.068-2.067h17.475
		C225.571,358.408,226.497,359.334,226.497,360.476"/>
	<path fill="#B3B2B2" d="M224.687,358.408h-17.991v-0.013c0-1.135,0.92-2.056,2.056-2.056h13.879c1.136,0,2.056,0.921,2.056,2.056
		V358.408z"/>
	<path fill="#A8A8A7" d="M222.859,356.34h-14.335v-0.039c0-1.121,0.909-2.029,2.029-2.029h10.277c1.121,0,2.029,0.908,2.029,2.029
		V356.34z"/>
	<path fill="#9D9D9C" d="M221.094,354.271h-10.805v-0.024c0-1.128,0.916-2.043,2.044-2.043h6.717c1.129,0,2.043,0.915,2.043,2.043
		V354.271z"/>
	<line fill="none" x1="146.165" y1="532.098" x2="146.165" y2="265.815"/>
	<line fill="none" x1="412.448" y1="265.815" x2="412.448" y2="532.098"/>
</g>
</svg>
