<?xml version="1.0" encoding="utf-8"?>
<!-- Generator: Adobe Illustrator 15.0.0, SVG Export Plug-In . SVG Version: 6.00 Build 0)  -->
<!DOCTYPE svg PUBLIC "-//W3C//DTD SVG 1.1//EN" "http://www.w3.org/Graphics/SVG/1.1/DTD/svg11.dtd">
<svg version="1.1" id="Layer_1" xmlns="http://www.w3.org/2000/svg" xmlns:xlink="http://www.w3.org/1999/xlink" x="0px" y="0px"
	 width="320px" height="640px" viewBox="0 0 320 640" enable-background="new 0 0 320 640" xml:space="preserve">
<g id="Layer_1_1_">
	<rect x="-11.397" y="0.208" fill="#89C6E8" width="378.592" height="549.019"/>
	<rect x="363.941" y="521.223" fill="#5298D1" width="6.059" height="6.188"/>
	<rect x="354.181" y="517.101" fill="#3C7DBC" width="15.819" height="10.999"/>
	<polygon fill="#5298D1" points="366.211,499.375 366.211,483.702 356.313,483.702 356.313,490.301 339.406,490.301 
		339.406,475.454 322.496,475.454 322.496,451.124 316.723,451.124 316.723,446.999 301.877,446.999 301.877,451.124 
		295.278,451.124 295.278,475.454 278.782,475.454 278.782,463.908 244.553,463.908 244.553,450.3 194.654,450.3 194.654,483.291 
		149.291,483.291 149.291,472.567 137.743,472.567 137.743,455.247 123.722,455.247 123.722,448.237 116.711,448.237 
		116.711,455.247 102.689,455.247 102.689,489.891 68.049,489.891 68.049,481.642 45.366,481.642 45.366,467.619 33.407,467.619 
		33.407,454.009 28.871,454.009 28.871,449.062 -6.595,449.062 -6.595,454.009 -11.132,454.009 -11.132,488.652 -11.397,488.652 
		-11.397,527.83 370,527.83 370,499.375 	"/>
	<polygon fill="#3C7DBC" points="368.273,508.859 368.273,515.045 350.128,515.045 350.128,503.91 317.548,503.91 317.548,495.25 
		280.02,495.25 280.02,510.921 271.772,510.921 271.772,504.323 265.174,504.323 265.174,482.053 257.75,482.053 257.75,476.691 
		223.522,476.691 223.522,482.053 215.688,482.053 215.688,501.85 209.089,501.85 209.089,509.271 195.891,509.271 195.891,500.611 
		182.695,500.611 182.695,471.33 163.725,471.33 163.725,508.446 147.229,508.446 147.229,493.188 109.701,493.188 109.701,478.754 
		93.205,478.754 93.205,501.85 76.709,501.85 76.709,461.021 72.172,461.021 72.172,457.722 64.336,457.722 64.336,460.608 
		59.388,460.608 59.388,511.745 43.305,511.745 43.305,496.9 26.809,496.9 26.809,508.034 19.386,508.034 19.386,500.611 
		12.375,500.611 12.375,508.034 4.952,508.034 4.952,477.517 -0.41,477.517 -0.41,472.156 -11.397,472.156 -11.397,527.693 
		370,527.693 370,508.859 	"/>
	<g>
		<path fill="#4895B7" d="M370,530.793h-4.341v-5.124H370v-2.699h-4.341v-5.125H370V515.3h-4.341v-5.125H370v-4.853h-1.562v-4.825
			H370v-2.129h-1.562v-7.569H370v-2.128h-1.562v-7.568H370v-2.13h-1.562v-7.567H370v-2.038h-14.763v-0.968h-12.756v3.425
			l-7.001,10.553v-57.984h-4.505v-4.4h-6.024V409.64h-2.128v-20.705h-1.471v20.705h-1.984v10.353h-5.948v4.401h-5.211v42.214
			l-0.007-0.01l-15.283-16.835v-19.22h-21.452v19.403l-15.585,17.171v68.531H370V530.793z M258.683,526.578h-1.961v-6.117h1.961
			V526.578z M258.683,518.753h-1.961v-6.115h1.961V518.753z M258.683,510.932h-1.961v-6.116h1.961V510.932z M258.683,503.108h-1.961
			v-6.114h1.961V503.108z M258.683,495.284h-1.961v-6.115h1.961V495.284z M258.683,487.461h-1.961v-6.115h1.961V487.461z
			 M258.683,479.639h-1.961v-6.116h1.961V479.639z M261.714,526.578h-1.961v-6.117h1.961V526.578z M261.714,518.753h-1.961v-6.115
			h1.961V518.753z M261.714,510.932h-1.961v-6.116h1.961V510.932z M261.714,503.108h-1.961v-6.114h1.961V503.108z M261.714,495.284
			h-1.961v-6.115h1.961V495.284z M261.714,487.461h-1.961v-6.115h1.961V487.461z M261.714,479.639h-1.961v-6.116h1.961V479.639z
			 M264.744,526.578h-1.96v-6.117h1.96V526.578z M264.744,518.753h-1.96v-6.115h1.96V518.753z M264.744,510.932h-1.96v-6.116h1.96
			V510.932z M264.744,503.108h-1.96v-6.114h1.96V503.108z M264.744,495.284h-1.96v-6.115h1.96V495.284z M264.744,487.461h-1.96
			v-6.115h1.96V487.461z M264.744,479.639h-1.96v-6.116h1.96V479.639z M267.775,526.578h-1.96v-6.117h1.96V526.578z
			 M267.775,518.753h-1.96v-6.115h1.96V518.753z M267.775,510.932h-1.96v-6.116h1.96V510.932z M267.775,503.108h-1.96v-6.114h1.96
			V503.108z M267.775,495.284h-1.96v-6.115h1.96V495.284z M267.775,487.461h-1.96v-6.115h1.96V487.461z M267.775,479.639h-1.96
			v-6.116h1.96V479.639z M270.806,526.578h-1.961v-6.117h1.961V526.578z M270.806,518.753h-1.961v-6.115h1.961V518.753z
			 M270.806,510.932h-1.961v-6.116h1.961V510.932z M270.806,503.108h-1.961v-6.114h1.961V503.108z M270.806,495.284h-1.961v-6.115
			h1.961V495.284z M270.806,487.461h-1.961v-6.115h1.961V487.461z M270.806,479.639h-1.961v-6.116h1.961V479.639z M290.176,523.144
			h-15.421v-3.34h15.421V523.144z M290.176,511.877h-15.421v-3.341h15.421V511.877z M290.176,500.608h-15.421v-3.339h15.421V500.608
			z M290.176,489.342h-15.421v-3.34h15.421V489.342z M290.176,478.074h-15.421v-3.339h15.421V478.074z M290.176,466.807h-15.421
			v-3.338h15.421V466.807z M290.176,455.54h-15.421v-3.34h15.421V455.54z M290.176,444.273h-15.421v-3.341h15.421V444.273z
			 M295.711,526.578h-1.957v-6.117h1.957V526.578z M295.711,518.753h-1.957v-6.115h1.957V518.753z M295.711,510.932h-1.957v-6.116
			h1.957V510.932z M295.711,503.108h-1.957v-6.114h1.957V503.108z M295.711,495.284h-1.957v-6.115h1.957V495.284z M295.711,487.461
			h-1.957v-6.115h1.957V487.461z M295.711,479.639h-1.957v-6.116h1.957V479.639z M298.743,526.578h-1.962v-6.117h1.962V526.578z
			 M298.743,518.753h-1.962v-6.115h1.962V518.753z M298.743,510.932h-1.962v-6.116h1.962V510.932z M298.743,503.108h-1.962v-6.114
			h1.962V503.108z M298.743,495.284h-1.962v-6.115h1.962V495.284z M298.743,487.461h-1.962v-6.115h1.962V487.461z M298.743,479.639
			h-1.962v-6.116h1.962V479.639z M301.773,526.578h-1.961v-6.117h1.961V526.578z M301.773,518.753h-1.961v-6.115h1.961V518.753z
			 M301.773,510.932h-1.961v-6.116h1.961V510.932z M301.773,503.108h-1.961v-6.114h1.961V503.108z M301.773,495.284h-1.961v-6.115
			h1.961V495.284z M301.773,487.461h-1.961v-6.115h1.961V487.461z M301.773,479.639h-1.961v-6.116h1.961V479.639z M304.806,526.578
			h-1.961v-6.117h1.961V526.578z M304.806,518.753h-1.961v-6.115h1.961V518.753z M304.806,510.932h-1.961v-6.116h1.961V510.932z
			 M304.806,503.108h-1.961v-6.114h1.961V503.108z M304.806,495.284h-1.961v-6.115h1.961V495.284z M304.806,487.461h-1.961v-6.115
			h1.961V487.461z M304.806,479.639h-1.961v-6.116h1.961V479.639z M307.836,526.578h-1.962v-6.117h1.962V526.578z M307.836,518.753
			h-1.962v-6.115h1.962V518.753z M307.836,510.932h-1.962v-6.116h1.962V510.932z M307.836,503.108h-1.962v-6.114h1.962V503.108z
			 M307.836,495.284h-1.962v-6.115h1.962V495.284z M307.836,487.461h-1.962v-6.115h1.962V487.461z M307.836,479.639h-1.962v-6.116
			h1.962V479.639z M309.395,426.104h3.161v3.423h-3.161V426.104z M312.632,438.901v3.423h-3.158v-3.423H312.632z M309.395,461.374
			h3.159v3.426h-3.159V461.374z M312.617,487.355v3.423h-3.158v-3.423H312.617z M308.893,474.226h3.158v3.423h-3.158V474.226z
			 M308.674,501.115h2.997v3.423h-2.997V501.115z M312.679,518.996h-3.157v-3.424h3.157V518.996z M326.937,421.132h3.085v3.505
			h-3.085V421.132z M326.017,493.415v-4.152h4.035v4.152H326.017z M329.308,500.722v4.488h-3.939v-4.488H329.308z M329.959,481.405
			h-3.942v-4.488h3.942V481.405z M329.794,463.977h-3.939v-4.486h3.939V463.977z M328.187,452.183h-4.035v-4.151h4.035V452.183z
			 M322.896,430.262h3.158v3.422h-3.158V430.262z M322.67,471.072h3.942v4.386h-3.942V471.072z M323.496,476.917v4.488h-3.939
			v-4.488H323.496z M318.637,421.132h3.158v3.425h-3.158V421.132z M318.712,476.917v4.488h-3.939v-4.488H318.712z M314.744,430.262
			h3.083v3.422h-3.083V430.262z M314.744,438.901h3.083v3.423h-3.083V438.901z M314.553,453.645h3.939v4.487h-3.939V453.645z
			 M314.169,465.333h3.938v4.382h-3.938V465.333z M314.169,494.878h3.938v4.485h-3.938V494.878z M318.438,506.566v4.383h-3.94
			v-4.383H318.438z M318.163,528.567h-3.939v-4.485h3.939V528.567z M321.545,522.64h-3.938v-4.489h3.938V522.64z M322.67,512.308
			h3.942v4.382h-3.942V512.308z M330.066,522.64h-3.939v-4.489h3.939V522.64z M330.096,442.324h-3.085v-3.423h3.085V442.324z
			 M331.124,426.104h3.085v3.423h-3.085V426.104z M334.897,444.681v3.426h-3.159v-3.426H334.897z M331.297,462.701h3.159v3.423
			h-3.159V462.701z M334.897,480.512v3.423h-3.159v-3.423H334.897z M334.519,515.923h-3.156v-3.422h3.156V515.923z M335.146,500.21
			h-3.156v-3.425h3.156V500.21z M346.66,475.26h4.401v7.563h-4.401V475.26z M353.343,535.004h-8.964v-13.393h8.964V535.004z
			 M361.925,519.881h-26.13v-5.042h26.129v2.923h0.001V519.881z M361.925,511.101h-26.13v-5.042h26.13V511.101z M361.925,502.322
			h-26.13v-5.045h26.13V502.322z M361.925,493.541h-26.13v-5.044h26.13V493.541z M364.463,505.321h-0.486v-4.824h0.486V505.321z
			 M364.463,498.367h-0.486v-7.568h0.486V498.367z M364.463,488.671h-0.486v-3.669l-2.584-3.899h3.07V488.671z M364.463,478.973
			h-4.483l-2.335-3.521v-4.047h6.818V478.973z"/>
	</g>
	<path fill="#4895B7" d="M254.135,469.836v-28.251H212.53v-3.637h-7.601v3.637h-4.311v28.251h-22.693v-0.966h-12.758v3.423
		l-7,10.556v-57.986h-0.021h-4.484v-0.021v-4.38h-0.39h-5.634v-0.043v-10.311h-2.13v-20.702h-1.47v20.702h-1.983v10.311v0.043h-1.96
		h-3.988v4.38v0.021h-0.085h-3.325h-1.801v42.213l-0.008-0.009l-15.283-16.835v-19.219H94.155v19.403L78.57,467.583v68.532h15.584
		h0.174H115.6h0.006h15.291h0.462h0.208h1.375h0.501h2.581h17.639h2.766h0.028h1.171h0.54h19.081h9.086h0.328h13.955h0.407h1.918
		h13.825h4.031v-23.277h13.152v23.277h7.017h9.89h3.274h10.613v-66.28L254.135,469.836L254.135,469.836z M81.37,527.047h-1.962
		v-6.115h1.962V527.047z M81.37,519.225h-1.962v-6.117h1.962V519.225z M81.37,511.403h-1.962v-6.119h1.962V511.403z M81.37,503.578
		h-1.962v-6.116h1.962V503.578z M81.37,495.754h-1.962v-6.115h1.962V495.754z M81.37,487.931h-1.962v-6.115h1.962V487.931z
		 M81.37,480.107h-1.962v-6.115h1.962V480.107z M84.4,527.047h-1.961v-6.115H84.4V527.047z M84.4,519.225h-1.961v-6.117H84.4
		V519.225z M84.4,511.403h-1.961v-6.119H84.4V511.403z M84.4,503.578h-1.961v-6.116H84.4V503.578z M84.4,495.754h-1.961v-6.115H84.4
		V495.754z M84.4,487.931h-1.961v-6.115H84.4V487.931z M84.4,480.107h-1.961v-6.115H84.4V480.107z M87.431,527.047H85.47v-6.115
		h1.961V527.047z M87.431,519.225H85.47v-6.117h1.961V519.225z M87.431,511.403H85.47v-6.119h1.961V511.403z M87.431,503.578H85.47
		v-6.116h1.961V503.578z M87.431,495.754H85.47v-6.115h1.961V495.754z M87.431,487.931H85.47v-6.115h1.961V487.931z M87.431,480.107
		H85.47v-6.115h1.961V480.107z M90.463,527.047h-1.962v-6.115h1.962V527.047z M90.463,519.225h-1.962v-6.117h1.962V519.225z
		 M90.463,511.403h-1.962v-6.119h1.962V511.403z M90.463,503.578h-1.962v-6.116h1.962V503.578z M90.463,495.754h-1.962v-6.115h1.962
		V495.754z M90.463,487.931h-1.962v-6.115h1.962V487.931z M90.463,480.107h-1.962v-6.115h1.962V480.107z M93.493,527.047h-1.961
		v-6.115h1.961V527.047z M93.493,519.225h-1.961v-6.117h1.961V519.225z M93.493,511.403h-1.961v-6.119h1.961V511.403z
		 M93.493,503.578h-1.961v-6.116h1.961V503.578z M93.493,495.754h-1.961v-6.115h1.961V495.754z M93.493,487.931h-1.961v-6.115h1.961
		V487.931z M93.493,480.107h-1.961v-6.115h1.961V480.107z M112.862,523.613H97.441v-3.34h15.421V523.613z M112.862,512.346H97.441
		v-3.339h15.421V512.346z M112.862,501.078H97.441v-3.34h15.421V501.078z M112.862,489.81H97.441v-3.339h15.421V489.81z
		 M112.862,478.543H97.441v-3.339h15.421V478.543z M112.862,467.275H97.441v-3.339h15.421V467.275z M112.862,456.008H97.441v-3.34
		h15.421V456.008z M112.862,444.741H97.441v-3.34h15.421V444.741z M261.665,491.27v7.569h-6.82v-7.569H261.665z M254.845,489.142
		v-7.569h6.82v7.569H254.845z M261.665,500.966v7.569h-6.82v-7.569H261.665z M261.665,510.663v7.569h-6.82v-7.569H261.665z
		 M261.665,520.36v7.57h-6.82v-7.57H261.665z M261.665,479.444h-6.82v-7.569h6.82V479.444z M244.05,510.663h6.809h0.012v7.569
		h-0.012h-6.809V510.663z M250.858,508.535h-6.809v-0.051v-4.37v-2.611v-0.537h6.267h0.543h0.012v7.569H250.858z M240.969,487.908
		h-3.403v-4.369h3.403V487.908z M240.969,490.152v4.369h-3.403v-4.369H240.969z M250.858,498.839h-0.544h-6.265v-1.705v-2.612
		v-3.251h6.265h0.544h0.012v7.568H250.858L250.858,498.839z M250.858,489.142h-6.809v-1.233v-4.369v-1.967h6.809h0.012v7.569
		H250.858z M240.969,469.836v0.794h-3.403v-4.37h12.751v3.576H240.969z M237.565,463.648v-4.369h12.751v4.369H237.565z
		 M250.316,456.667h-12.751v-4.369h12.751V456.667z M237.565,497.134h3.401v4.369h-3.401V497.134z M244.05,520.36h6.809h0.012v7.57
		h-0.012h-6.809V520.36z M250.871,479.444h-0.012h-6.808v-7.569h6.808h0.012V479.444z M192.964,510.663v5.108h-1.839h-2.781v-5.126
		h4.619L192.964,510.663L192.964,510.663z M192.964,520.36v3.08h-1.839h-2.781v-5.124h4.619L192.964,520.36L192.964,520.36z
		 M169.345,475.728h4.403v7.565h-4.403V475.728z M177.249,488.967h1.464h1.617h4.281v0.175v2.128v2.741h-4.281h-1.617h-1.464H158.48
		v-5.044H177.249L177.249,488.967z M191.125,489.142v-7.569h6.82v7.569H191.125z M197.945,491.27v7.569h-6.82v-7.569H197.945z
		 M191.125,479.444v-7.569h6.82v7.569H191.125z M180.331,471.875h6.82v7.569h-4.484l-2.336-3.524V471.875z M186.663,491.27h0.488
		v7.569h-0.488V491.27z M186.663,489.142v-3.671l-2.585-3.898h3.073v7.569H186.663z M184.612,498.839v2.127v1.825h-4.281h-1.616
		h-1.465h-18.77v-5.043h18.77h1.465h1.616h4.281V498.839z M186.663,505.792v-4.828h0.488v4.828H186.663z M158.48,506.526h18.769
		h1.464h1.617h4.281v2.009v2.128v0.908h-4.281h-1.617h-1.464H158.48V506.526z M192.964,531.262h-4.618v-5.123h2.779h1.839v1.791
		V531.262L192.964,531.262z M191.125,505.792v-4.828h6.82v4.828H191.125z M157.834,500.678h-0.207h-1.2h-1.752v-3.422h1.752h1.2
		h0.207V500.678z M157.205,516.392h-0.776h-2.383v-3.423h2.383h0.776V516.392z M153.983,463.17h3.158v3.426h-3.158V463.17z
		 M157.583,484.403h-0.448h-2.71v-3.423h3.158v2.752V484.403L157.583,484.403z M157.583,448.573h-3.158v-3.422h3.158V448.573z
		 M153.809,426.573h3.085v3.423h-3.085V426.573z M140.291,523.108v-4.486h3.94v4.486H140.291z M140.85,524.548v4.488h-3.941v-4.488
		H140.85z M137.183,511.418v-4.382h3.94v4.382H137.183z M137.458,481.873v-4.486h3.941v4.486H137.458z M142.242,481.873v-4.486
		h3.941v4.486H142.242z M148.703,493.885v-4.152h4.034v4.152H148.703z M151.995,501.19v4.487h-3.941v-4.487H151.995z
		 M152.644,481.873h-3.941v-4.486h3.941V481.873z M152.48,464.447h-3.941v-4.487h3.941V464.447z M150.873,452.653h-4.034v-4.154
		h4.034V452.653z M148.742,434.154h-3.16v-3.424h3.16V434.154z M149.297,471.543v4.383h-3.939v-4.383H149.297z M145.357,512.776
		h3.939v4.383h-3.939V512.776z M148.813,518.62h3.94v4.488h-3.94V518.62L148.813,518.62z M149.696,442.794v-3.421h3.085v3.421
		H149.696z M140.515,430.73v3.424h-3.085v-3.424H140.515z M140.515,439.37v3.424h-3.085v-3.424H140.515z M141.179,454.114v4.486
		h-3.94v-4.486H141.179z M140.794,465.803v4.383h-3.939v-4.383H140.794z M140.794,495.347v4.487h-3.939v-4.487H140.794z
		 M149.622,421.603h3.084v3.239v0.264h-3.084v-0.264V421.603z M141.322,421.603h3.159v3.239v0.183h-3.159v-0.183V421.603z
		 M131.359,501.584h3v3.425h-3V501.584z M132.146,491.248v-3.421h3.157v3.421H132.146z M135.366,519.464h-3.158v-3.423h3.158
		V519.464z M135.319,442.794h-3.159v-3.421h3.159V442.794z M132.082,426.573h3.158v3.423h-3.158V426.573z M132.082,461.844h3.158
		v3.424h-3.158V461.844z M131.579,474.695h3.157v3.423h-3.157V474.695z M118.399,527.047h-1.961v-6.115h1.961V527.047z
		 M118.399,519.225h-1.961v-6.117h1.961V519.225z M118.399,511.403h-1.961v-6.119h1.961V511.403z M118.399,503.578h-1.961v-6.116
		h1.961V503.578z M118.399,495.754h-1.961v-6.115h1.961V495.754z M118.399,487.931h-1.961v-6.115h1.961V487.931z M118.399,480.107
		h-1.961v-6.115h1.961V480.107z M121.43,527.047h-1.961v-6.115h1.961V527.047z M121.43,519.225h-1.961v-6.117h1.961V519.225z
		 M121.43,511.403h-1.961v-6.119h1.961V511.403z M121.43,503.578h-1.961v-6.116h1.961V503.578z M121.43,495.754h-1.961v-6.115h1.961
		V495.754z M121.43,487.931h-1.961v-6.115h1.961V487.931z M121.43,480.107h-1.961v-6.115h1.961V480.107z M124.46,527.047h-1.96
		v-6.115h1.96V527.047z M124.46,519.225h-1.96v-6.117h1.96V519.225z M124.46,511.403h-1.96v-6.119h1.96V511.403z M124.46,503.578
		h-1.96v-6.116h1.96V503.578z M124.46,495.754h-1.96v-6.115h1.96V495.754z M124.46,487.931h-1.96v-6.115h1.96V487.931z
		 M124.46,480.107h-1.96v-6.115h1.96V480.107z M127.491,527.047h-1.96v-6.115h1.96V527.047z M127.491,519.225h-1.96v-6.117h1.96
		V519.225z M127.491,511.403h-1.96v-6.119h1.96V511.403z M127.491,503.578h-1.96v-6.116h1.96V503.578z M127.491,495.754h-1.96
		v-6.115h1.96V495.754z M127.491,487.931h-1.96v-6.115h1.96V487.931z M127.491,480.107h-1.96v-6.115h1.96V480.107z M130.522,527.047
		h-1.961v-6.115h1.961V527.047z M130.522,519.225h-1.961v-6.117h1.961V519.225z M130.522,511.403h-1.961v-6.119h1.961V511.403z
		 M130.522,503.578h-1.961v-6.116h1.961V503.578z M130.522,495.754h-1.961v-6.115h1.961V495.754z M130.522,487.931h-1.961v-6.115
		h1.961V487.931z M130.522,480.107h-1.961v-6.115h1.961V480.107z M176.028,535.472h-8.965v-13.391h8.965V535.472z M158.48,520.352
		v-5.045h18.769h1.464h1.617h4.281v2.926v2.119h-5.898h-1.464H158.48z M200.229,531.262h-1.658h-2.96v-3.332v-1.791h2.335h0.626
		h1.657V531.262L200.229,531.262z M200.229,523.44h-1.658h-0.626h-2.335v-3.08v-2.044h2.961h1.657L200.229,523.44L200.229,523.44z
		 M200.229,515.771h-1.658h-0.626h-2.335v-5.108v-0.017h2.961h1.657L200.229,515.771L200.229,515.771z M207.494,531.262h-4.55
		h-0.068v-5.123h0.068h4.55V531.262z M207.494,523.44h-4.55h-0.068v-5.124h0.068h4.55V523.44z M207.494,515.771h-4.55h-0.068v-5.126
		h0.068h4.55V515.771z M214.761,531.262h-4.619v-5.123h4.619V531.262z M214.761,523.44h-4.619v-5.124h4.619V523.44z
		 M214.761,515.771h-4.619v-5.126h4.619V515.771z M217.188,508.484h-0.419v-2.692h-12.33v-1.678h12.749V508.484z M217.188,501.503
		h-12.749v-4.369h12.749V501.503z M217.188,494.521h-12.749v-4.369h12.749V494.521z M217.188,487.908h-12.749v-4.369h12.749V487.908
		z M217.188,470.63h-12.749v-4.37h12.749V470.63z M217.188,463.648h-12.749v-4.369h12.749V463.648z M217.188,456.667h-12.749v-4.369
		h12.749V456.667z M233.75,508.484h-12.749v-4.37h12.749V508.484z M233.75,501.503h-12.749v-4.369h12.749V501.503z M233.75,494.521
		h-12.749v-4.369h12.749V494.521z M233.75,487.908h-12.749v-4.369h12.749V487.908z M233.75,470.63h-12.749v-4.37h12.749V470.63z
		 M233.75,463.648h-12.749v-4.369h12.749V463.648z M233.75,456.667h-12.749v-4.369h12.749V456.667z M237.565,508.484v-4.37h3.401
		v4.37H237.565z"/>
	<g>
		<path fill="#4895B7" d="M82.258,451.828v-10.713H55.629v-3.636h-7.602v3.636h-4.311v28.252H21.023v-0.968H8.267v3.425
			l-7.001,10.553v-57.984h-4.505v-4.4h-6.022V409.64h-2.131v-20.705h-0.004v82.139h3.793v4.385h-3.793v1.459h0.678v4.488h-0.678
			v30.902h3.793v4.382h-3.793v18.958h75.294V512.37h13.154v23.277h5.206v-27.633h-1.595v-4.369h1.595v-2.613h-1.595v-4.368h1.595
			v-2.611h-1.595v-4.368h1.595v-2.244h-1.595v-4.37h1.595v-12.911h-1.595v-4.368h1.595v-2.611h-1.595v-4.372h1.595v-2.61h-1.595
			v-4.369H82.258z M-7.28,421.132h3.086v3.505H-7.28V421.132z M-11.319,430.262h3.158v3.422h-3.158V430.262z M-10.063,448.03h4.034
			v4.152h-4.034V448.03z M-8.363,463.977v-4.486h3.941v4.486H-8.363z M-8.199,476.917h3.941v4.488h-3.941V476.917z M-4.164,489.263
			v4.152h-4.035v-4.152H-4.164z M-8.848,505.21v-4.487h3.94v4.487H-8.848z M-4.147,522.641h-3.94v-4.49h3.94V522.641z
			 M-4.121,442.324h-3.084v-3.423h3.084V442.324z M-3.093,426.105h3.085v3.422h-3.085V426.105z M0.681,444.683v3.423h-3.159v-3.423
			H0.681z M-2.918,462.701H0.24v3.423h-3.158V462.701z M0.681,480.512v3.423h-3.159v-3.423H0.681z M0.303,515.924h-3.158v-3.422
			h3.158V515.924z M0.932,500.21h-3.157v-3.425h3.157V500.21z M34.224,471.405h6.819v7.567h-6.819V471.405z M34.224,481.104h6.819
			v7.567h-6.819V481.104z M34.224,490.799h6.819v7.569h-6.819V490.799z M34.224,500.497h6.819v4.825h-6.819V500.497z M12.443,475.26
			h4.402v7.564h-4.402V475.26z M19.126,535.004h-8.964v-13.393h8.964V535.004z M27.711,519.881H1.58v-5.042h26.131V519.881z
			 M27.711,511.101H1.58v-5.042h26.131V511.101z M27.711,502.32H1.58v-5.043h26.131V502.32z M27.711,493.541H1.58v-5.044h26.131
			V493.541z M30.249,505.321h-0.487v-4.824h0.487V505.321z M30.249,498.367h-0.487v-7.568h0.487V498.367z M30.249,488.671h-0.487
			v-3.669l-2.585-3.898h3.072V488.671z M30.249,478.973h-4.484l-2.336-3.521v-4.047h6.82V478.973z M36.062,530.793h-4.618v-5.124
			h4.618V530.793z M36.062,522.97h-4.618v-5.125h4.618V522.97z M36.062,515.3h-4.618v-5.123h4.618V515.3z M43.327,530.793h-4.618
			v-5.124h4.618V530.793z M43.327,522.971h-4.618v-5.123h4.618V522.971z M43.327,515.301h-4.618v-5.123h4.618V515.301z
			 M50.592,530.793h-4.618v-5.124h4.618V530.793z M50.592,522.971h-4.618v-5.124h4.618V522.971z M50.592,515.301h-4.618v-5.123
			h4.618V515.301z M57.857,530.793h-4.618v-5.124h4.618V530.793z M57.857,522.971h-4.618v-5.124h4.618V522.971z M57.857,515.301
			h-4.618v-5.123h4.618V515.301z M60.285,508.015h-0.417v-2.693H47.536v-1.676h12.749V508.015z M60.285,501.032H47.536v-4.368
			h12.749V501.032z M60.285,494.053H47.536v-4.368h12.749V494.053z M60.285,487.44H47.536v-4.37h12.749V487.44z M60.285,470.159
			H47.536v-4.368h12.749V470.159z M60.285,463.18H47.536v-4.372h12.749V463.18z M60.285,456.197H47.536v-4.369h12.749V456.197z
			 M76.849,508.015h-12.75v-4.369h12.75V508.015z M76.849,501.032h-12.75v-4.368h12.75V501.032z M76.849,494.053h-12.75v-4.368
			h12.75V494.053z M76.849,487.44h-12.75v-4.37h12.75V487.44z M76.849,470.159h-12.75v-4.368h12.75V470.159z M76.849,463.18h-12.75
			v-4.372h12.75V463.18z M76.849,456.197h-12.75v-4.369h12.75V456.197z"/>
	</g>
	<rect x="-11.397" y="534.621" fill="#CECBBC" width="378.592" height="105.171"/>
	<path fill="#C6C2AF" d="M219.917,542.318c0,1.401-25.41,2.541-56.764,2.541c-31.344,0-56.756-1.141-56.756-2.541
		c0-1.405,25.413-2.546,56.756-2.546C194.507,539.772,219.917,540.913,219.917,542.318"/>
	<path fill="#34495E" d="M120.986,503.141c-0.15-0.037-0.297-0.014-0.42,0.058l-2.679,1.548c-0.124,0.074-0.221,0.19-0.26,0.333
		c-0.044,0.151-0.017,0.298,0.049,0.42l10.541,19.082l4.358-2.518l-11.256-18.668C121.248,503.274,121.132,503.178,120.986,503.141z
		"/>
	<path fill="#5D6D7E" d="M120.436,503.274l-10.474-18.142c-0.177-0.308-0.476-0.551-0.845-0.645c-0.376-0.107-0.75-0.052-1.06,0.132
		c-0.309,0.182-0.556,0.474-0.651,0.85c-0.103,0.371-0.041,0.752,0.136,1.06l10.471,18.14L120.436,503.274z"/>
	<g>
		
			<rect x="110.735" y="488.041" transform="matrix(0.5009 0.8655 -0.8655 0.5009 478.9505 148.3126)" fill="#F2F9FF" width="0.287" height="2.796"/>
		<polygon fill="#F2F9FF" points="110.453,491.56 110.308,491.318 112.714,489.902 112.857,490.151 		"/>
	</g>
	<path fill="#34495E" d="M207.854,503.141c0.151-0.037,0.303-0.014,0.422,0.058l2.677,1.548c0.126,0.074,0.221,0.19,0.261,0.333
		c0.036,0.151,0.017,0.298-0.05,0.42l-10.545,19.082l-4.355-2.518l11.253-18.667C207.596,503.274,207.713,503.178,207.854,503.141z"
		/>
	<path fill="#5D6D7E" d="M208.409,503.274l10.47-18.142c0.18-0.308,0.48-0.551,0.851-0.645c0.371-0.107,0.747-0.052,1.056,0.132
		c0.312,0.182,0.556,0.474,0.654,0.85c0.099,0.371,0.038,0.752-0.144,1.06l-10.47,18.14L208.409,503.274z"/>
	<g>
		
			<rect x="217.907" y="488.038" transform="matrix(-0.5079 0.8614 -0.8614 -0.5079 750.4016 550.1987)" fill="#F2F9FF" width="0.285" height="2.791"/>
		
			<rect x="217.137" y="489.344" transform="matrix(-0.5054 0.8629 -0.8629 -0.5054 750.5438 551.2487)" fill="#F2F9FF" width="0.284" height="2.788"/>
	</g>
	<path fill="#FFFFFF" d="M116.816,520.624c-0.322,0-0.647,0.128-0.897,0.37c-0.25,0.25-0.372,0.575-0.372,0.898v19.539
		c0,0.11,0.042,0.221,0.122,0.302c0.084,0.081,0.194,0.125,0.299,0.125h96.9c0.11,0,0.218-0.04,0.301-0.125
		c0.085-0.081,0.123-0.191,0.123-0.302v-19.539c0-0.323-0.123-0.648-0.372-0.898c-0.246-0.245-0.573-0.37-0.898-0.37H116.816
		L116.816,520.624z"/>
	<path fill="#34495E" d="M196.54,541.858h-64.235v-12.011c0-0.501,0.191-1.003,0.57-1.381c0.39-0.384,0.885-0.574,1.385-0.574
		h60.328c0.5,0,0.997,0.19,1.383,0.574c0.378,0.377,0.569,0.88,0.569,1.381V541.858L196.54,541.858z"/>
	<path fill="#CEE2F2" d="M190.951,535.516c0,0.465-0.376,0.849-0.847,0.849h-51.369c-0.462,0-0.841-0.384-0.841-0.849v-1.273
		c0-0.465,0.381-0.849,0.841-0.849h51.369c0.471,0,0.847,0.384,0.847,0.849V535.516L190.951,535.516z"/>
	<g>
		<path fill="#F2F9FF" d="M143.434,534.879c0,0.32-0.268,0.585-0.595,0.585c-0.327,0-0.592-0.265-0.592-0.585
			c0-0.33,0.265-0.599,0.592-0.599C143.166,534.282,143.434,534.549,143.434,534.879z"/>
		<path fill="#F2F9FF" d="M148.328,534.879c0,0.324-0.265,0.588-0.593,0.588c-0.326,0-0.595-0.264-0.595-0.588
			c0-0.33,0.27-0.599,0.595-0.599C148.062,534.282,148.328,534.549,148.328,534.879z"/>
		<path fill="#F2F9FF" d="M153.223,534.879c0,0.32-0.266,0.588-0.595,0.588c-0.328,0-0.595-0.268-0.595-0.588
			c0-0.33,0.267-0.599,0.595-0.599C152.958,534.282,153.223,534.549,153.223,534.879z"/>
		<path fill="#F2F9FF" d="M158.114,534.879c0,0.32-0.265,0.588-0.593,0.588c-0.327,0-0.595-0.268-0.595-0.588
			c0-0.33,0.268-0.599,0.595-0.599C157.85,534.282,158.114,534.549,158.114,534.879z"/>
		<path fill="#F2F9FF" d="M163.002,534.879c0,0.32-0.261,0.588-0.589,0.588c-0.327,0-0.596-0.268-0.596-0.588
			c0-0.33,0.269-0.599,0.596-0.599C162.742,534.282,163.002,534.549,163.002,534.879z"/>
		<path fill="#F2F9FF" d="M167.897,534.879c0,0.32-0.263,0.588-0.59,0.588c-0.329,0-0.596-0.268-0.596-0.588
			c0-0.33,0.267-0.599,0.596-0.599C167.635,534.282,167.897,534.549,167.897,534.879z"/>
		<path fill="#F2F9FF" d="M172.798,534.879c0,0.32-0.269,0.588-0.594,0.588c-0.329,0-0.596-0.268-0.596-0.588
			c0-0.33,0.267-0.599,0.596-0.599C172.529,534.281,172.798,534.549,172.798,534.879z"/>
	</g>
	<path fill="#FF8E31" d="M211.008,537.416c0,0.236-0.186,0.424-0.42,0.424h-9.324c-0.234,0-0.421-0.188-0.421-0.424v-5.083
		c0-0.235,0.187-0.426,0.421-0.426h9.324c0.234,0,0.42,0.19,0.42,0.426V537.416z"/>
	<path fill="#34495E" d="M206.404,534.879c0,0.813-0.666,1.48-1.486,1.48c-0.815,0-1.482-0.667-1.482-1.48
		c0-0.823,0.667-1.487,1.482-1.487C205.738,533.393,206.404,534.056,206.404,534.879z"/>
	<g>
		<rect x="141.783" y="538.508" fill="#F2F9FF" width="2.114" height="0.422"/>
		<rect x="146.673" y="538.508" fill="#F2F9FF" width="2.118" height="0.422"/>
		<rect x="151.572" y="538.508" fill="#F2F9FF" width="2.115" height="0.422"/>
		<rect x="156.462" y="538.508" fill="#F2F9FF" width="2.114" height="0.422"/>
		<rect x="161.354" y="538.508" fill="#F2F9FF" width="2.119" height="0.422"/>
		<rect x="166.243" y="538.508" fill="#F2F9FF" width="2.122" height="0.422"/>
		<rect x="171.136" y="538.508" fill="#F2F9FF" width="2.116" height="0.422"/>
		<rect x="179.433" y="538.508" fill="#F2F9FF" width="7.631" height="0.422"/>
	</g>
	<g>
		<path fill="#34495E" d="M214.148,539.481c0,0.109-0.045,0.215-0.128,0.302c-0.082,0.078-0.193,0.12-0.299,0.12h-0.424v-16.479
			h0.424c0.105,0,0.217,0.045,0.299,0.124c0.083,0.083,0.128,0.193,0.128,0.303V539.481z"/>
		<path fill="#34495E" d="M115.547,539.903h-0.424c-0.106,0-0.219-0.042-0.298-0.12c-0.088-0.087-0.127-0.192-0.127-0.302v-15.631
			c0-0.109,0.039-0.218,0.127-0.303c0.081-0.079,0.191-0.124,0.298-0.124h0.424V539.903z"/>
	</g>
	<path fill="#B8D1E6" d="M370,528.657h-35.438c-0.224,0-0.45,0.089-0.624,0.258c-0.174,0.174-0.259,0.4-0.259,0.625v1.065H370
		V528.657z"/>
</g>
<g id="Layer_2">
	<path fill="#C6C2AF" d="M55.798,543.805c29.339,0,53.123,2.946,53.123,6.585c0,3.632-23.783,6.577-53.123,6.577
		s-53.123-2.945-53.123-6.577C2.676,546.751,26.459,543.805,55.798,543.805z"/>
	<g>
		<path fill="#252628" d="M99.66,481.748H10.727c-3.489,0-6.318-2.83-6.318-6.317v-20.636c0-3.488,2.83-6.318,6.318-6.318h88.932
			c3.489,0,6.319,2.83,6.319,6.318v20.636C105.978,478.918,103.148,481.748,99.66,481.748z"/>
		<path fill="#131314" d="M99.66,515.022H10.727c-3.489,0-6.318-2.83-6.318-6.32v-20.635c0-3.49,2.83-6.319,6.318-6.319h88.932
			c3.489,0,6.319,2.829,6.319,6.319v20.635C105.978,512.192,103.148,515.022,99.66,515.022z"/>
		<path fill="#252628" d="M99.66,548.294H10.727c-3.489,0-6.318-2.826-6.318-6.316v-20.636c0-3.49,2.83-6.319,6.318-6.319h88.932
			c3.489,0,6.319,2.829,6.319,6.319v20.635C105.978,545.468,103.148,548.294,99.66,548.294z"/>
		<path fill="#BDC0C9" d="M21.045,458.983c3.386,0,6.129,2.748,6.129,6.13c0,3.384-2.743,6.13-6.129,6.13
			c-3.385,0-6.129-2.746-6.129-6.13C14.916,461.731,17.661,458.983,21.045,458.983z"/>
		<circle fill="#8697CB" cx="90.219" cy="462.487" r="1.752"/>
		<circle fill="#8697CB" cx="83.212" cy="462.487" r="1.752"/>
		<circle fill="#8697CB" cx="93.721" cy="467.741" r="1.75"/>
		<circle fill="#8697CB" cx="86.715" cy="467.741" r="1.75"/>
		<circle fill="#8697CB" cx="76.209" cy="462.487" r="1.752"/>
		<circle fill="#8697CB" cx="79.711" cy="467.741" r="1.75"/>
		<circle fill="#8697CB" cx="69.201" cy="462.487" r="1.752"/>
		<circle fill="#8697CB" cx="72.706" cy="467.741" r="1.75"/>
		<circle fill="#8697CB" cx="62.198" cy="462.487" r="1.752"/>
		<circle fill="#8697CB" cx="65.701" cy="467.741" r="1.75"/>
		<circle fill="#BDC0C9" cx="21.045" cy="498.386" r="6.129"/>
		<circle fill="#8697CB" cx="90.219" cy="495.758" r="1.751"/>
		<circle fill="#8697CB" cx="83.212" cy="495.758" r="1.751"/>
		<circle fill="#8697CB" cx="93.721" cy="501.013" r="1.75"/>
		<circle fill="#8697CB" cx="86.715" cy="501.013" r="1.75"/>
		<circle fill="#8697CB" cx="76.209" cy="495.758" r="1.751"/>
		<circle fill="#8697CB" cx="79.711" cy="501.013" r="1.75"/>
		<path fill="#8697CB" d="M69.201,494.007c0.969,0,1.753,0.784,1.753,1.754c0,0.965-0.784,1.749-1.753,1.749
			c-0.966,0-1.749-0.784-1.749-1.749C67.452,494.791,68.235,494.007,69.201,494.007z"/>
		<circle fill="#8697CB" cx="72.706" cy="501.013" r="1.75"/>
		<circle fill="#8697CB" cx="62.198" cy="495.758" r="1.751"/>
		<circle fill="#8697CB" cx="65.701" cy="501.013" r="1.75"/>
		<circle fill="#BDC0C9" cx="21.045" cy="531.659" r="6.125"/>
		<circle fill="#8697CB" cx="90.219" cy="529.031" r="1.75"/>
		<circle fill="#8697CB" cx="83.212" cy="529.031" r="1.75"/>
		<circle fill="#8697CB" cx="93.721" cy="534.287" r="1.751"/>
		<circle fill="#8697CB" cx="86.715" cy="534.287" r="1.751"/>
		<circle fill="#8697CB" cx="76.209" cy="529.031" r="1.75"/>
		<circle fill="#8697CB" cx="79.711" cy="534.287" r="1.751"/>
		<circle fill="#8697CB" cx="69.201" cy="529.031" r="1.75"/>
		<circle fill="#8697CB" cx="72.706" cy="534.287" r="1.751"/>
		<circle fill="#8697CB" cx="62.198" cy="529.031" r="1.75"/>
		<circle fill="#8697CB" cx="65.701" cy="534.287" r="1.751"/>
	</g>
	<path fill="#FFFFFF" d="M191.901,549.494c0.511-0.819,1.007-1.659,1.48-2.498l-0.422-0.236c-0.468,0.83-0.962,1.668-1.467,2.479
		L191.901,549.494z"/>
	<rect x="264.125" y="493.442" fill="#444455" width="5.509" height="57.841"/>
	<path fill="#5A5D6F" d="M306.818,549.906v2.754c0,0.762-0.616,1.378-1.378,1.378h-77.12c-0.761,0-1.378-0.616-1.378-1.378v-2.754
		c0-0.761,0.617-1.378,1.378-1.378h77.122C306.202,548.528,306.818,549.146,306.818,549.906z"/>
	<rect x="259.305" y="548.528" fill="#444455" width="15.148" height="5.51"/>
	<path fill="#6F7588" d="M268.946,556.104h-4.132c-1.521,0-2.754-1.234-2.754-2.755v-4.131c0-1.523,1.233-2.755,2.754-2.755h4.132
		c1.521,0,2.754,1.231,2.754,2.755v4.131C271.701,554.87,270.467,556.104,268.946,556.104z"/>
	<path fill="#1B1E23" d="M304.064,496.195h-74.37c-1.521,0-2.755-1.232-2.755-2.753v-13.773c0-1.521,1.234-2.754,2.755-2.754h74.37
		c1.52,0,2.754,1.233,2.754,2.754v13.773C306.818,494.963,305.586,496.195,304.064,496.195z"/>
	<circle fill="#B3E671" cx="300.62" cy="483.113" r="2.067"/>
	<circle fill="#FFD75B" cx="300.62" cy="489.999" r="2.065"/>
	<g>
		<path fill="#5A5D6F" d="M232.451,492.064c-0.761,0-1.377-0.617-1.377-1.378v-8.263c0-0.762,0.616-1.378,1.377-1.378
			c0.76,0,1.374,0.616,1.374,1.378v8.263C233.825,491.447,233.211,492.064,232.451,492.064z"/>
		<path fill="#5A5D6F" d="M237.957,492.064c-0.76,0-1.377-0.617-1.377-1.378v-8.263c0-0.762,0.617-1.378,1.377-1.378
			c0.761,0,1.378,0.616,1.378,1.378v8.263C239.335,491.447,238.72,492.064,237.957,492.064z"/>
		<path fill="#5A5D6F" d="M243.466,492.064c-0.76,0-1.374-0.617-1.374-1.378v-8.263c0-0.762,0.615-1.378,1.374-1.378
			c0.761,0,1.38,0.616,1.38,1.378v8.263C244.846,491.447,244.227,492.064,243.466,492.064z"/>
		<path fill="#5A5D6F" d="M248.977,492.064c-0.762,0-1.378-0.617-1.378-1.378v-8.263c0-0.762,0.616-1.378,1.378-1.378
			c0.76,0,1.377,0.616,1.377,1.378v8.263C250.355,491.447,249.739,492.064,248.977,492.064z"/>
		<path fill="#5A5D6F" d="M254.484,492.064c-0.76,0-1.375-0.617-1.375-1.378v-8.263c0-0.762,0.615-1.378,1.375-1.378
			s1.378,0.616,1.378,1.378v8.263C255.862,491.447,255.244,492.064,254.484,492.064z"/>
		<path fill="#5A5D6F" d="M259.994,492.064c-0.762,0-1.379-0.617-1.379-1.378v-8.263c0-0.762,0.617-1.378,1.379-1.378
			c0.76,0,1.376,0.616,1.376,1.378v8.263C261.371,491.447,260.754,492.064,259.994,492.064z"/>
	</g>
	<path fill="#6F7588" d="M293.047,492.064h-26.169c-0.761,0-1.378-0.617-1.378-1.378v-8.263c0-0.762,0.617-1.378,1.378-1.378h26.169
		c0.76,0,1.376,0.616,1.376,1.378v8.263C294.423,491.447,293.807,492.064,293.047,492.064z"/>
	<path fill="#5A5D6F" d="M290.292,487.934h-20.658c-0.76,0-1.376-0.618-1.376-1.378l0,0c0-0.76,0.616-1.377,1.376-1.377h20.658
		c0.759,0,1.378,0.617,1.378,1.377l0,0C291.671,487.315,291.052,487.934,290.292,487.934z"/>
	<path fill="#1B1E23" d="M304.064,518.229h-74.37c-1.521,0-2.755-1.23-2.755-2.752v-13.772c0-1.521,1.234-2.755,2.755-2.755h74.37
		c1.52,0,2.754,1.233,2.754,2.755v13.772C306.818,516.999,305.586,518.229,304.064,518.229z"/>
	<circle fill="#B3E671" cx="300.62" cy="505.147" r="2.067"/>
	<circle fill="#FFD75B" cx="300.62" cy="512.033" r="2.066"/>
	<g>
		<path fill="#5A5D6F" d="M232.451,514.1c-0.761,0-1.377-0.618-1.377-1.377v-8.263c0-0.764,0.616-1.38,1.377-1.38
			c0.76,0,1.374,0.616,1.374,1.38v8.263C233.825,513.481,233.211,514.1,232.451,514.1z"/>
		<path fill="#5A5D6F" d="M237.957,514.1c-0.76,0-1.377-0.618-1.377-1.377v-8.263c0-0.764,0.617-1.38,1.377-1.38
			c0.761,0,1.378,0.616,1.378,1.38v8.263C239.335,513.481,238.72,514.1,237.957,514.1z"/>
		<path fill="#5A5D6F" d="M243.466,514.1c-0.76,0-1.374-0.618-1.374-1.377v-8.263c0-0.764,0.615-1.38,1.374-1.38
			c0.761,0,1.38,0.616,1.38,1.38v8.263C244.846,513.481,244.227,514.1,243.466,514.1z"/>
		<path fill="#5A5D6F" d="M248.977,514.1c-0.762,0-1.378-0.618-1.378-1.377v-8.263c0-0.764,0.616-1.38,1.378-1.38
			c0.76,0,1.377,0.616,1.377,1.38v8.263C250.355,513.481,249.739,514.1,248.977,514.1z"/>
		<path fill="#5A5D6F" d="M254.484,514.1c-0.76,0-1.375-0.618-1.375-1.377v-8.263c0-0.764,0.615-1.38,1.375-1.38
			s1.378,0.616,1.378,1.38v8.263C255.862,513.481,255.244,514.1,254.484,514.1z"/>
		<path fill="#5A5D6F" d="M259.994,514.1c-0.762,0-1.379-0.618-1.379-1.377v-8.263c0-0.764,0.617-1.38,1.379-1.38
			c0.76,0,1.376,0.616,1.376,1.38v8.263C261.371,513.481,260.754,514.1,259.994,514.1z"/>
	</g>
	<path fill="#6F7588" d="M293.047,514.1h-26.169c-0.761,0-1.378-0.618-1.378-1.377v-8.263c0-0.764,0.617-1.38,1.378-1.38h26.169
		c0.76,0,1.376,0.616,1.376,1.38v8.263C294.423,513.481,293.807,514.1,293.047,514.1z"/>
	<path fill="#5A5D6F" d="M290.292,509.967h-20.658c-0.76,0-1.376-0.617-1.376-1.376l0,0c0-0.76,0.616-1.377,1.376-1.377h20.658
		c0.759,0,1.378,0.617,1.378,1.377l0,0C291.671,509.35,291.052,509.967,290.292,509.967z"/>
	<path fill="#1B1E23" d="M304.064,540.266h-74.37c-1.521,0-2.755-1.232-2.755-2.755v-13.77c0-1.524,1.234-2.757,2.755-2.757h74.37
		c1.52,0,2.754,1.232,2.754,2.757v13.77C306.818,539.032,305.586,540.266,304.064,540.266z"/>
	<circle fill="#B3E671" cx="300.62" cy="527.183" r="2.065"/>
	<circle fill="#FFD75B" cx="300.62" cy="534.068" r="2.066"/>
	<g>
		<path fill="#5A5D6F" d="M232.451,536.134c-0.761,0-1.377-0.617-1.377-1.377v-8.263c0-0.761,0.616-1.378,1.377-1.378
			c0.76,0,1.374,0.617,1.374,1.378v8.263C233.825,535.517,233.211,536.134,232.451,536.134z"/>
		<path fill="#5A5D6F" d="M237.957,536.134c-0.76,0-1.377-0.617-1.377-1.377v-8.263c0-0.761,0.617-1.378,1.377-1.378
			c0.761,0,1.378,0.617,1.378,1.378v8.263C239.335,535.517,238.72,536.134,237.957,536.134z"/>
		<path fill="#5A5D6F" d="M243.466,536.134c-0.76,0-1.374-0.617-1.374-1.377v-8.263c0-0.761,0.615-1.378,1.374-1.378
			c0.761,0,1.38,0.617,1.38,1.378v8.263C244.846,535.517,244.227,536.134,243.466,536.134z"/>
		<path fill="#5A5D6F" d="M248.977,536.134c-0.762,0-1.378-0.617-1.378-1.377v-8.263c0-0.761,0.616-1.378,1.378-1.378
			c0.76,0,1.377,0.617,1.377,1.378v8.263C250.355,535.517,249.739,536.134,248.977,536.134z"/>
		<path fill="#5A5D6F" d="M254.484,536.134c-0.76,0-1.375-0.617-1.375-1.377v-8.263c0-0.761,0.615-1.378,1.375-1.378
			s1.378,0.617,1.378,1.378v8.263C255.862,535.517,255.244,536.134,254.484,536.134z"/>
		<path fill="#5A5D6F" d="M259.994,536.134c-0.762,0-1.379-0.617-1.379-1.377v-8.263c0-0.761,0.617-1.378,1.379-1.378
			c0.76,0,1.376,0.617,1.376,1.378v8.263C261.371,535.517,260.754,536.134,259.994,536.134z"/>
	</g>
	<path fill="#6F7588" d="M293.047,536.134h-26.169c-0.761,0-1.378-0.617-1.378-1.377v-8.263c0-0.761,0.617-1.378,1.378-1.378h26.169
		c0.76,0,1.376,0.617,1.376,1.378v8.263C294.423,535.517,293.807,536.134,293.047,536.134z"/>
	<path fill="#5A5D6F" d="M290.292,532.002h-20.658c-0.76,0-1.376-0.614-1.376-1.377l0,0c0-0.761,0.616-1.377,1.376-1.377h20.658
		c0.759,0,1.378,0.616,1.378,1.377l0,0C291.671,531.388,291.052,532.002,290.292,532.002z"/>
</g>
<g id="Layer_3">
	<path display="none" fill="#C6C2AF" d="M35.166,545.312c0,0.808-1.651,1.463-3.687,1.463c-2.035,0-3.687-0.655-3.687-1.463
		c0-0.809,1.651-1.464,3.687-1.464C33.516,543.849,35.166,544.504,35.166,545.312"/>
	<path fill="#72A839" d="M108.484,532.903c0,0-5.133-1.73-6.335-5.441c-1.202-3.711,0.08-8.989,4.805-10.801
		c4.725-1.813,10.733,1.318,11.053,6.432c0.32,5.111-2.894,8.571-7.093,9.811H108.484z"/>
	<path fill="#66962F" d="M118.007,523.093c-0.148-2.352-1.496-4.28-3.368-5.507l0,0c2.388,3.767,0.389,10.813-4.499,12.062
		c-4.812,1.23-7.42-1.028-7.5-1.099c1.72,2.964,5.844,4.353,5.844,4.353h2.43C115.113,531.664,118.327,528.206,118.007,523.093"/>
	<path fill="#685830" d="M108.897,544.644c0,0,0.367-12.813,0.262-13.255c-0.105-0.442-1.409-2.461-1.409-2.461
		s1.67,1.83,1.826,1.072c0.157-0.756,0.47-6.503,0.47-6.503s0.104,5.81,0.522,5.747c0.418-0.063,2.141-2.336,2.141-2.336
		s-1.984,3.029-1.984,4.165c0,1.138,0.157,13.57,0.157,13.57H108.897L108.897,544.644z"/>
	<path fill="#C6C2AF" d="M71.65,560.426c0,1.396-2.849,2.528-6.363,2.528c-3.515,0-6.364-1.133-6.364-2.528
		c0-1.395,2.849-2.524,6.364-2.524C68.801,557.9,71.65,559.03,71.65,560.426"/>
	<path fill="#5AAA39" d="M63.259,543.942c0,0-7.473-2.518-9.221-7.919c-1.749-5.398,0.116-13.076,6.993-15.719
		c6.878-2.641,15.622,1.919,16.087,9.36c0.466,7.44-4.211,12.475-10.324,14.277H63.259z"/>
	<path fill="#549B34" d="M77.12,529.665c-0.214-3.417-2.177-6.228-4.903-8.013l0,0c3.476,5.483,0.566,15.738-6.548,17.556
		c-7.005,1.792-10.799-1.496-10.915-1.599c2.503,4.31,8.505,6.335,8.505,6.335h3.536C72.908,542.141,77.585,537.105,77.12,529.665"
		/>
	<path fill="#685830" d="M63.86,561.035c0,0,0.533-18.651,0.379-19.294c-0.152-0.646-2.051-3.584-2.051-3.584
		s2.432,2.664,2.661,1.562c0.228-1.1,0.684-9.464,0.684-9.464s0.152,8.454,0.759,8.364c0.606-0.094,3.115-3.402,3.115-3.402
		s-2.887,4.412-2.887,6.064c0,1.653,0.229,19.754,0.229,19.754H63.86L63.86,561.035z"/>
	<path fill="#C6C2AF" d="M225.503,537.813c0,1.226-2.499,2.218-5.585,2.218c-3.085,0-5.584-0.992-5.584-2.218
		c0-1.224,2.499-2.217,5.584-2.217C223.003,535.598,225.503,536.59,225.503,537.813"/>
	<path fill="#5AAA39" d="M218.139,523.347c0,0-6.56-2.21-8.095-6.95s0.103-11.481,6.14-13.798s13.713,1.686,14.12,8.215
		c0.41,6.532-3.694,10.951-9.061,12.533H218.139z"/>
	<path fill="#549B34" d="M230.304,510.813c-0.188-3.002-1.91-5.466-4.302-7.031l0,0c3.051,4.812,0.497,13.813-5.747,15.409
		c-6.149,1.571-9.481-1.313-9.582-1.402c2.197,3.78,7.466,5.559,7.466,5.559h3.104C226.608,521.765,230.714,517.346,230.304,510.813
		"/>
	<path fill="#685830" d="M218.667,538.349c0,0,0.467-16.371,0.333-16.935c-0.133-0.565-1.801-3.146-1.801-3.146
		s2.135,2.337,2.334,1.371c0.201-0.968,0.601-8.307,0.601-8.307s0.133,7.42,0.667,7.339c0.533-0.081,2.733-2.985,2.733-2.985
		s-2.531,3.873-2.531,5.324s0.199,17.338,0.199,17.338H218.667L218.667,538.349z"/>
	<path fill="#C6C2AF" d="M119.116,555.882c0,2.097-7.836,3.793-17.502,3.793s-17.501-1.696-17.501-3.793
		c0-2.096,7.835-3.795,17.501-3.795S119.116,553.786,119.116,555.882"/>
	<path fill="#398C15" d="M87.779,555.88c0,0-4.147-1.13-2.513-5.029c1.633-3.896,5.153-1.253,5.153-1.253s-3.52-2.892-0.755-5.408
		c2.766-2.513,3.52,3.018,3.52,3.018s-1.383-6.66,4.649-7.792c6.034-1.131,7.793,7.543,7.793,7.543s0.628-6.538,3.394-6.788
		c2.765-0.252,0,5.906,0,5.906s3.38-5.278,8.351-1.508c4.972,3.771-1.061,11.312-1.061,11.312H87.779L87.779,555.88z"/>
	<path fill="#3FA01C" d="M87.245,552.087c0.664-1.777,4.488-1.272,4.488-1.272s-2.004-4.247-1.195-4.753
		c0.81-0.507,3.238,2.629,3.238,2.629s-0.326-4.351,2.012-6.172c2.339-1.82,6.689-0.164,9.119,5.079c0,0,0.28-0.4,0.672-0.855
		c-0.321-1.334-2.28-8.352-7.745-7.327c-5.3,0.994-4.876,6.254-4.694,7.517c-0.198-1.08-1.085-4.913-3.475-2.742
		c-2.765,2.517,0.754,5.408,0.754,5.408s-3.519-2.64-5.152,1.253c-1.634,3.899,2.513,5.029,2.513,5.029
		S86.581,553.865,87.245,552.087"/>
	<path fill="#3FA01C" d="M117.373,544.569c-4.972-3.771-8.351,1.509-8.351,1.509s2.765-6.16,0-5.908
		c-2.4,0.219-3.19,5.169-3.357,6.472c0.629-0.716,1.497-1.504,1.975-1.087c0.809,0.709,0.505,2.733,0.505,2.733
		s3.44-3.645,6.172-2.226c2.732,1.414,1.994,9.819,1.994,9.819S122.345,548.339,117.373,544.569"/>
	<path fill="#C6C2AF" d="M38.348,558.441c0,2.084-7.795,3.775-17.413,3.775c-9.616,0-17.413-1.691-17.413-3.775
		c0-2.085,7.796-3.774,17.413-3.774C30.552,554.667,38.348,556.356,38.348,558.441"/>
	<path fill="#398C15" d="M7.17,558.439c0,0-4.126-1.125-2.5-5.001c1.625-3.877,5.126-1.252,5.126-1.252s-3.502-2.876-0.75-5.376
		c2.75-2.502,3.502,3.001,3.502,3.001s-1.375-6.627,4.626-7.754c6.003-1.124,7.753,7.504,7.753,7.504s0.626-6.502,3.377-6.754
		c2.751-0.25,0,5.879,0,5.879s3.363-5.253,8.309-1.5c4.947,3.751-1.057,11.253-1.057,11.253H7.17z"/>
	<path fill="#3FA01C" d="M6.638,554.667c0.661-1.771,4.466-1.266,4.466-1.266s-1.993-4.228-1.188-4.731s3.221,2.618,3.221,2.618
		s-0.326-4.33,2.001-6.142c2.327-1.812,6.657-0.164,9.072,5.054c0,0,0.279-0.398,0.668-0.852c-0.319-1.327-2.268-8.308-7.705-7.289
		c-5.273,0.987-4.852,6.222-4.673,7.479c-0.196-1.075-1.08-4.888-3.456-2.727c-2.752,2.499,0.75,5.375,0.75,5.375
		s-3.502-2.625-5.126,1.255c-1.626,3.873,2.5,5,2.5,5S5.977,556.435,6.638,554.667"/>
	<path fill="#3FA01C" d="M36.616,547.185c-4.948-3.751-8.31,1.502-8.31,1.502s2.75-6.129,0-5.88c-2.389,0.219-3.174,5.142-3.34,6.44
		c0.626-0.713,1.488-1.496,1.964-1.082c0.806,0.704,0.503,2.719,0.503,2.719s3.423-3.624,6.142-2.215
		c2.717,1.408,1.984,9.771,1.984,9.771S41.562,550.938,36.616,547.185"/>
	<path fill="#C6C2AF" d="M244.605,560.618c0,1.896-6.821,3.435-15.232,3.435c-8.412,0-15.233-1.539-15.233-3.435
		c0-1.898,6.821-3.434,15.233-3.434S244.605,558.72,244.605,560.618"/>
	<path fill="#398C15" d="M219.797,560.618c0,0-5.782-2.434-1.42-5.908c0,0-5.147-4.405-1.643-7.24
		c3.504-2.837,7.159,1.882,7.159,1.882s-3.162-4.424,1.232-5.349c4.491-0.945,3.731,4.56,3.731,4.56s0.68-6.243,5.595-3.543
		c4.463,2.45,2.836,6.303-0.396,6.852c0,0,4.727-1.495,5.518,1.419c0.787,2.916-3.624,3.782-3.624,3.782s5.12-1.102,5.909,1.261
		c0.787,2.363-5.309,2.286-5.309,2.286L219.797,560.618L219.797,560.618z"/>
	<path fill="#3FA01C" d="M218.763,556.034c1.375-1.832,2.107-2.013,2.107-2.013s-2.68-1.649-2.531-3.571
		c0.15-1.923,5.734,0.64,5.734,0.64s-0.465-3.845,1.736-4.212c2.202-0.364,2.912,2.93,2.912,2.93s1.58-3.571,3.502-3.386
		c1.924,0.183,4.12,2.972,1.19,5.835c0,0,3.555-0.252,3.977,1.259c0.419,1.514-2.471,3.906-2.471,3.906s5.54-0.109,5.197,2.798
		c1.16-0.315,2.077-0.876,1.741-1.884c-0.762-2.284-5.559-1.334-5.891-1.265c0.302-0.064,4.364-0.973,3.605-3.78
		c-0.603-2.229-3.511-1.877-4.844-1.59c2.761-0.93,3.862-4.407-0.277-6.681c-4.718-2.592-5.533,3.053-5.592,3.513
		c0.054-0.43,0.564-5.435-3.734-4.529c-4.395,0.925-1.232,5.349-1.232,5.349s-3.653-4.72-7.159-1.882
		c-3.505,2.836,1.644,7.239,1.644,7.239c-4.362,3.475,1.419,5.909,1.419,5.909S217.39,557.864,218.763,556.034"/>
	<path fill="#C6C2AF" d="M281.659,561.977c0,2.035,7.615,3.687,17.005,3.687c9.392,0,17.004-1.651,17.004-3.687
		c0-2.037-7.612-3.688-17.004-3.688C289.274,558.289,281.659,559.939,281.659,561.977"/>
	<path fill="#398C15" d="M312.106,561.977c0,0,4.03-1.1,2.441-4.886c-1.588-3.787-5.007-1.222-5.007-1.222s3.42-2.807,0.733-5.25
		c-2.688-2.444-3.421,2.931-3.421,2.931s1.344-6.474-4.517-7.572c-5.862-1.1-7.573,7.328-7.573,7.328s-0.609-6.351-3.296-6.594
		c-2.688-0.245,0,5.739,0,5.739s-3.284-5.128-8.117-1.466c-4.827,3.663,1.032,10.991,1.032,10.991H312.106L312.106,561.977z"/>
	<path fill="#3FA01C" d="M312.625,558.289c-0.645-1.729-4.359-1.234-4.359-1.234s1.946-4.129,1.159-4.622
		c-0.788-0.491-3.146,2.557-3.146,2.557s0.318-4.229-1.955-5.998c-2.271-1.769-6.5-0.157-8.858,4.935c0,0-0.273-0.389-0.654-0.833
		c0.313-1.294,2.215-8.113,7.525-7.116c5.148,0.964,4.736,6.076,4.561,7.306c0.192-1.053,1.055-4.777,3.377-2.665
		c2.686,2.441-0.734,5.251-0.734,5.251s3.42-2.564,5.008,1.221c1.587,3.785-2.442,4.886-2.442,4.886
		S313.271,560.018,312.625,558.289"/>
	<path fill="#3FA01C" d="M283.351,550.984c4.832-3.664,8.117,1.465,8.117,1.465s-2.688-5.984,0-5.739
		c2.33,0.214,3.097,5.021,3.26,6.287c-0.611-0.695-1.453-1.462-1.916-1.056c-0.785,0.688-0.491,2.655-0.491,2.655
		s-3.346-3.539-5.999-2.163c-2.653,1.377-1.938,9.543-1.938,9.543S278.523,554.647,283.351,550.984"/>
	<path fill="#5AAA39" d="M327.237,521.96c0,0-7.001-2.358-8.639-7.42c-1.64-5.058,0.108-12.253,6.552-14.728
		c6.443-2.473,14.638,1.8,15.073,8.771c0.438,6.972-3.945,11.689-9.675,13.378L327.237,521.96L327.237,521.96z"/>
	<path fill="#549B34" d="M340.225,508.582c-0.203-3.203-2.04-5.836-4.594-7.509l0,0c3.256,5.138,0.529,14.744-6.136,16.449
		c-6.562,1.679-10.118-1.402-10.228-1.497c2.347,4.037,7.97,5.935,7.97,5.935h3.314
		C336.278,520.271,340.661,515.554,340.225,508.582"/>
	<path fill="#685830" d="M327.798,537.973c0,0,0.5-17.474,0.359-18.078c-0.144-0.602-1.924-3.356-1.924-3.356
		s2.279,2.495,2.493,1.464c0.213-1.033,0.64-8.867,0.64-8.867s0.144,7.92,0.711,7.834c0.568-0.086,2.919-3.186,2.919-3.186
		s-2.705,4.133-2.705,5.684c0,1.549,0.214,18.506,0.214,18.506H327.798L327.798,537.973z"/>
	<path fill="#FFFFFF" d="M123.236,122.539c-0.972,0-1.928,0.064-2.863,0.179c0-0.061,0.006-0.119,0.006-0.179
		c0-10.592-9.519-19.182-21.26-19.182c-3.318,0-6.462,0.689-9.259,1.913c-3.833-7.935-12.596-13.483-22.804-13.483
		c-12.988,0-23.646,8.985-24.763,20.443c-1.004-0.116-2.025-0.182-3.064-0.182c-13.291,0-24.064,9.721-24.064,21.709v7.745h1.583
		h44.96h34.221h6.286h42.041C144.256,131.028,134.844,122.539,123.236,122.539"/>
	<path display="none" fill="#FFFFFF" d="M241.545,382.841c0.904,0,1.791,0.066,2.662,0.186c0-0.063-0.005-0.125-0.005-0.186
		c0-10.938,8.854-19.806,19.777-19.806c3.089,0,6.013,0.71,8.617,1.975c3.564-8.191,11.719-13.924,21.214-13.924
		c12.081,0,21.994,9.278,23.032,21.109c0.936-0.118,1.884-0.186,2.851-0.186c12.363,0,22.387,10.033,22.387,22.415v7.996h-1.47
		h-41.829h-31.832h-5.848h-39.108C221.992,391.606,230.746,382.841,241.545,382.841"/>
	<g>
		<path fill="#FFFFFF" d="M197.713,423.856c0.157-0.156,0.157-0.409,0-0.565c-0.154-0.156-0.409-0.156-0.563,0
			c-4.521,4.519-4.521,11.877,0,16.396c0.078,0.076,0.182,0.118,0.282,0.118c0.103,0,0.205-0.042,0.281-0.118
			c0.157-0.156,0.157-0.408,0-0.563C193.505,434.913,193.505,428.065,197.713,423.856z"/>
		<path fill="#FFFFFF" d="M213.547,423.291c-0.157-0.156-0.411-0.156-0.566,0c-0.157,0.156-0.156,0.409,0,0.565
			c2.035,2.037,3.157,4.747,3.157,7.633c0,2.888-1.12,5.599-3.157,7.635c-0.156,0.155-0.156,0.407,0,0.564
			c0.078,0.078,0.18,0.12,0.281,0.12c0.104,0,0.207-0.042,0.285-0.12c2.186-2.185,3.389-5.098,3.389-8.196
			C216.936,428.392,215.733,425.479,213.547,423.291z"/>
		<path fill="#FFFFFF" d="M199.41,425.552c0.156-0.155,0.156-0.409,0-0.566c-0.155-0.155-0.408-0.154-0.564,0
			c-3.586,3.588-3.586,9.421,0,13.006c0.078,0.079,0.181,0.117,0.281,0.117c0.104,0,0.205-0.038,0.283-0.117
			c0.156-0.156,0.156-0.407,0-0.565C196.136,434.152,196.136,428.825,199.41,425.552z"/>
		<path fill="#FFFFFF" d="M211.85,424.987c-0.155-0.156-0.408-0.156-0.564,0c-0.155,0.155-0.155,0.409,0,0.565
			c3.274,3.275,3.274,8.602,0,11.875c-0.155,0.156-0.155,0.407,0,0.564c0.076,0.078,0.18,0.118,0.281,0.118
			c0.104,0,0.206-0.04,0.283-0.118C215.436,434.407,215.436,428.573,211.85,424.987z"/>
		<path fill="#FFFFFF" d="M201.107,426.684c-0.157-0.158-0.409-0.158-0.564,0c-1.282,1.28-1.988,2.988-1.988,4.804
			c0,1.819,0.706,3.525,1.988,4.807c0.077,0.078,0.179,0.119,0.282,0.119c0.103,0,0.204-0.041,0.282-0.119
			c0.156-0.154,0.156-0.408,0-0.564c-2.338-2.339-2.338-6.142,0-8.481C201.264,427.093,201.264,426.84,201.107,426.684z"/>
		<path fill="#FFFFFF" d="M210.153,426.684c-0.155-0.158-0.409-0.158-0.565,0c-0.156,0.154-0.156,0.409,0,0.564
			c2.338,2.34,2.338,6.144,0,8.481c-0.156,0.156-0.156,0.41,0,0.564c0.077,0.079,0.18,0.119,0.282,0.119s0.206-0.04,0.283-0.119
			c1.281-1.28,1.986-2.987,1.986-4.807C212.14,429.672,211.438,427.964,210.153,426.684z"/>
		<path fill="#FFFFFF" d="M205.348,428.771c-1.543,0-2.799,1.256-2.799,2.8c0,1.407,1.044,2.571,2.399,2.767v12.025
			c0,0.223,0.179,0.401,0.399,0.401s0.4-0.18,0.4-0.401v-12.025c1.354-0.193,2.398-1.359,2.398-2.767
			C208.146,430.027,206.89,428.771,205.348,428.771z M205.348,433.57c-1.103,0-2-0.898-2-2c0-1.103,0.896-1.999,2-1.999
			c1.103,0,1.999,0.896,1.999,1.999C207.347,432.672,206.45,433.57,205.348,433.57z"/>
	</g>
	<g>
		<path fill="#FFFFFF" d="M45.787,355.808c0.156-0.156,0.156-0.409,0-0.566c-0.156-0.155-0.41-0.155-0.564,0
			c-4.521,4.521-4.521,11.878,0,16.396c0.078,0.081,0.18,0.119,0.282,0.119c0.102,0,0.205-0.038,0.282-0.119
			c0.156-0.155,0.156-0.407,0-0.565C41.579,366.864,41.579,360.018,45.787,355.808z"/>
		<path fill="#FFFFFF" d="M61.62,355.242c-0.156-0.156-0.409-0.156-0.566,0c-0.156,0.156-0.156,0.409,0,0.566
			c2.036,2.036,3.158,4.748,3.158,7.633c0,2.887-1.121,5.598-3.158,7.634c-0.156,0.155-0.156,0.408,0,0.565
			c0.078,0.078,0.181,0.117,0.283,0.117s0.205-0.039,0.283-0.117c2.187-2.187,3.391-5.1,3.391-8.197
			C65.011,360.344,63.807,357.429,61.62,355.242z"/>
		<path fill="#FFFFFF" d="M47.485,357.502c0.156-0.154,0.156-0.406,0-0.564c-0.157-0.154-0.41-0.154-0.566,0
			c-3.585,3.588-3.585,9.421,0,13.005c0.079,0.079,0.181,0.118,0.283,0.118c0.103,0,0.204-0.039,0.283-0.118
			c0.156-0.156,0.156-0.407,0-0.563C44.211,366.104,44.211,360.776,47.485,357.502z"/>
		<path fill="#FFFFFF" d="M59.924,356.938c-0.157-0.154-0.41-0.154-0.565,0c-0.157,0.155-0.157,0.409,0,0.564
			c3.273,3.274,3.273,8.603,0,11.877c-0.157,0.153-0.157,0.406,0,0.563c0.078,0.079,0.18,0.118,0.282,0.118
			c0.103,0,0.205-0.039,0.283-0.118C63.509,366.358,63.509,360.525,59.924,356.938z"/>
		<path fill="#FFFFFF" d="M49.18,358.635c-0.155-0.156-0.409-0.156-0.564,0c-1.282,1.281-1.989,2.989-1.989,4.807
			c0,1.816,0.707,3.522,1.989,4.807c0.077,0.077,0.179,0.116,0.282,0.116c0.103,0,0.205-0.039,0.282-0.116
			c0.156-0.157,0.156-0.41,0-0.567c-2.337-2.34-2.337-6.142,0-8.482C49.336,359.043,49.336,358.792,49.18,358.635z"/>
		<path fill="#FFFFFF" d="M58.227,358.635c-0.156-0.156-0.409-0.156-0.565,0c-0.156,0.156-0.156,0.408,0,0.564
			c2.338,2.34,2.338,6.144,0,8.481c-0.156,0.156-0.156,0.41,0,0.567c0.079,0.077,0.181,0.116,0.283,0.116
			c0.103,0,0.205-0.039,0.282-0.116c1.282-1.283,1.988-2.99,1.988-4.807C60.214,361.623,59.51,359.916,58.227,358.635z"/>
		<path fill="#FFFFFF" d="M53.421,360.724c-1.543,0-2.798,1.254-2.798,2.799c0,1.404,1.044,2.572,2.397,2.767v12.027
			c0,0.221,0.18,0.398,0.401,0.398c0.22,0,0.4-0.18,0.4-0.398v-12.027c1.354-0.194,2.399-1.36,2.399-2.767
			C56.22,361.979,54.963,360.724,53.421,360.724z M53.421,365.521c-1.103,0-2-0.897-2-1.999c0-1.103,0.896-2,2-2
			s1.999,0.897,1.999,2C55.42,364.624,54.524,365.521,53.421,365.521z"/>
	</g>
	<g>
		<g>
			<path fill="#FFFFFF" d="M284.108,378.375c-0.228,0.964-1.197,1.566-2.163,1.341s-1.568-1.196-1.343-2.162
				c0.227-0.966,1.199-1.569,2.165-1.344C283.733,376.438,284.334,377.407,284.108,378.375z M281.525,377.768
				c-0.106,0.459,0.179,0.92,0.635,1.026c0.459,0.106,0.92-0.179,1.026-0.637c0.107-0.457-0.177-0.916-0.637-1.025
				C282.092,377.025,281.634,377.311,281.525,377.768z"/>
		</g>
		<g>
			<path fill="#FFFFFF" d="M285.953,364.697c-0.06,0.255-0.315,0.413-0.57,0.354c-7.119-1.672-14.27,2.765-15.939,9.885
				c-0.061,0.255-0.314,0.412-0.57,0.353c-0.253-0.059-0.412-0.312-0.351-0.568c1.788-7.629,9.447-12.38,17.078-10.591
				C285.854,364.188,286.014,364.442,285.953,364.697z"/>
		</g>
		<g>
			<path fill="#FFFFFF" d="M285.271,367.604c-0.058,0.255-0.313,0.412-0.568,0.354c-5.517-1.294-11.061,2.143-12.354,7.66
				c-0.06,0.255-0.315,0.412-0.57,0.354c-0.254-0.061-0.413-0.315-0.353-0.57c1.412-6.027,7.466-9.778,13.493-8.366
				C285.174,367.094,285.331,367.349,285.271,367.604z"/>
		</g>
		<g>
			<path fill="#FFFFFF" d="M284.59,370.51c-0.059,0.252-0.313,0.41-0.568,0.352c-3.918-0.918-7.851,1.521-8.768,5.437
				c-0.061,0.255-0.314,0.413-0.568,0.354c-0.255-0.06-0.412-0.316-0.354-0.57c1.037-4.424,5.479-7.179,9.904-6.142
				C284.493,370,284.651,370.252,284.59,370.51z"/>
		</g>
		<g>
			<path fill="#FFFFFF" d="M283.833,373.738c-0.06,0.254-0.314,0.41-0.569,0.351c-2.135-0.5-4.281,0.831-4.781,2.967
				c-0.059,0.255-0.313,0.412-0.568,0.354c-0.255-0.061-0.412-0.316-0.354-0.57c0.618-2.645,3.276-4.291,5.921-3.672
				C283.735,373.228,283.894,373.482,283.833,373.738z"/>
		</g>
	</g>
	<path fill="#FFFFFF" d="M183,327.918c-11.607,0-21.021,8.487-21.018,18.961h42.039h6.285h34.221h44.96h1.582v-7.742
		c0-11.99-10.772-21.712-24.062-21.712c-1.038,0-2.062,0.067-3.065,0.182c-1.115-11.457-11.773-20.442-24.762-20.442
		c-10.207,0-18.971,5.549-22.803,13.483c-2.798-1.224-5.941-1.912-9.26-1.912c-11.742,0-21.26,8.588-21.26,19.183
		c0,0.061,0.006,0.118,0.006,0.179C184.928,327.981,183.973,327.918,183,327.918"/>
	<path fill="#C6C2AF" d="M207.065,555.771c0,1.896-6.819,3.435-15.23,3.435c-8.414,0-15.233-1.539-15.233-3.435
		c0-1.896,6.819-3.434,15.233-3.434C200.247,552.337,207.065,553.874,207.065,555.771"/>
	<path fill="#398C15" d="M182.259,555.771c0,0-5.78-2.435-1.419-5.909c0,0-5.148-4.404-1.644-7.241
		c3.505-2.834,7.16,1.884,7.16,1.884s-3.162-4.424,1.231-5.349c4.491-0.946,3.731,4.561,3.731,4.561s0.68-6.247,5.594-3.546
		c4.464,2.45,2.836,6.303-0.395,6.854c0,0,4.727-1.494,5.517,1.42c0.788,2.915-3.625,3.781-3.625,3.781s5.121-1.102,5.91,1.261
		c0.788,2.364-5.309,2.286-5.309,2.286L182.259,555.771L182.259,555.771z"/>
	<path fill="#3FA01C" d="M181.225,551.186c1.374-1.83,2.105-2.014,2.105-2.014s-2.679-1.648-2.529-3.57s5.734,0.641,5.734,0.641
		s-0.467-3.847,1.735-4.213c2.203-0.366,2.912,2.931,2.912,2.931s1.579-3.571,3.503-3.387c1.924,0.183,4.12,2.973,1.189,5.836
		c0,0,3.557-0.253,3.977,1.259c0.419,1.512-2.47,3.906-2.47,3.906s5.538-0.109,5.195,2.798c1.161-0.314,2.078-0.877,1.741-1.887
		c-0.762-2.282-5.557-1.333-5.89-1.263c0.303-0.062,4.365-0.973,3.605-3.779c-0.603-2.229-3.51-1.877-4.843-1.59
		c2.76-0.931,3.861-4.409-0.279-6.682c-4.717-2.593-5.531,3.053-5.59,3.513c0.053-0.429,0.564-5.434-3.734-4.528
		c-4.396,0.926-1.232,5.349-1.232,5.349s-3.654-4.719-7.159-1.883s1.643,7.24,1.643,7.24c-4.362,3.476,1.418,5.909,1.418,5.909
		S179.852,553.017,181.225,551.186"/>
</g>
<g>
	<g>
		<path fill="#FFFFFF" d="M113.829,461.526c-0.953,0.274-1.952-0.277-2.228-1.232c-0.275-0.951,0.277-1.952,1.231-2.227
			c0.953-0.275,1.953,0.279,2.228,1.231C115.335,460.252,114.783,461.25,113.829,461.526z M113.095,458.976
			c-0.452,0.132-0.713,0.605-0.584,1.059c0.131,0.45,0.605,0.712,1.057,0.582c0.451-0.131,0.713-0.602,0.582-1.056
			C114.02,459.108,113.547,458.847,113.095,458.976z"/>
	</g>
	<g>
		<path fill="#FFFFFF" d="M126.662,456.447c-0.251,0.074-0.513-0.071-0.586-0.321c-2.026-7.028-9.39-11.099-16.417-9.075
			c-0.252,0.073-0.515-0.071-0.587-0.324c-0.072-0.25,0.072-0.512,0.325-0.583c7.528-2.172,15.419,2.188,17.589,9.719
			C127.058,456.114,126.914,456.376,126.662,456.447z"/>
	</g>
	<g>
		<path fill="#FFFFFF" d="M123.794,457.274c-0.252,0.074-0.513-0.072-0.586-0.322c-1.569-5.446-7.278-8.602-12.723-7.032
			c-0.252,0.072-0.514-0.073-0.587-0.324c-0.072-0.252,0.073-0.514,0.324-0.587c5.949-1.715,12.181,1.731,13.896,7.679
			C124.19,456.94,124.045,457.202,123.794,457.274z"/>
	</g>
	<g>
		<path fill="#FFFFFF" d="M120.926,458.1c-0.251,0.073-0.514-0.071-0.587-0.323c-1.113-3.865-5.164-6.103-9.029-4.989
			c-0.251,0.073-0.513-0.073-0.586-0.322c-0.073-0.254,0.073-0.516,0.324-0.588c4.366-1.258,8.943,1.271,10.202,5.64
			C121.323,457.767,121.179,458.028,120.926,458.1z"/>
	</g>
	<g>
		<path fill="#FFFFFF" d="M117.739,459.019c-0.251,0.074-0.513-0.072-0.585-0.323c-0.608-2.107-2.817-3.329-4.926-2.723
			c-0.251,0.075-0.513-0.07-0.586-0.322c-0.073-0.251,0.073-0.513,0.323-0.586c2.61-0.753,5.346,0.759,6.098,3.369
			C118.136,458.684,117.992,458.947,117.739,459.019z"/>
	</g>
</g>
</svg>
