<?xml version="1.0" encoding="utf-8"?>
<!-- Generator: Adobe Illustrator 15.0.0, SVG Export Plug-In . SVG Version: 6.00 Build 0)  -->
<!DOCTYPE svg PUBLIC "-//W3C//DTD SVG 1.1//EN" "http://www.w3.org/Graphics/SVG/1.1/DTD/svg11.dtd">
<svg version="1.1" id="Layer_1" xmlns="http://www.w3.org/2000/svg" xmlns:xlink="http://www.w3.org/1999/xlink" x="0px" y="0px"
	 width="320px" height="640px" viewBox="0 0 320 640" enable-background="new 0 0 320 640" xml:space="preserve">
<g id="Layer_1_1_">
	<path fill="#9FD5F7" d="M337.082,213.737V0H-26.996v640h364.078V252.592C334.239,239.458,334.028,226.324,337.082,213.737z"/>
	<g id="Layer_4">
		<path fill="#92CCE8" d="M340.397,470.648v-99.717h-31.413v99.717h-4.629v-53.449h-40.432v53.449h-2.127V330.515h-40.428v140.134
			h-11.141V366.409L169.8,341.946v68.339h-11.142v-14.89h-26.406v75.253H78.74V354.178H36.624v116.471h-45.5V312.43h-28.019v234.149
			c0,2.364-0.127,4.703-0.339,7.02h382.312v-82.95H340.397z"/>
		<path fill="#80BAD8" d="M344.923,499.979v-73.617h-29.938v73.617h-16.905V371.905h-11.334l-0.957-40.061l-0.96,40.061h-15.076
			v25.757h-18.666l-9.25-16.121l-9.25,16.121h-1.867v-15.188h-26.386v117.505h-5.113v-52.756h-12.115v-15.985h-20.19v-11.108h-21.54
			v18.426h-9.691V346.98h-6.969c-2.175-5.559-7.349-9.587-13.522-10.068l-1.035-43.186l-1.034,43.163
			c-6.354,0.333-11.709,4.41-13.931,10.091h-5.506v152.999h-5.115v-94.206H63.532v94.203h-8.075v-94.203H37.776l-17.35-30.241
			L3.078,405.773h-17.08v94.203h-4.037v-48.202h-18.856v94.805c0,2.366-0.127,4.706-0.339,7.024h382.312v-53.624H344.923z"/>
		<path fill="#679FB7" d="M334.374,462.243v18.58h-38.102V538.5h-40.818v-64.18h-28.147v64.18h-14.994v-90.194h-11.965v-25.702
			h-28.148V538.5h-11.336v-84.62h-44.086v84.62h-9.446v-72.852H63.245V538.5H37.74v-76.88h-48.495v13.936h-26.141v71.023
			c0,2.364-0.127,4.703-0.339,7.02h382.312v-91.355H334.374z"/>
	</g>
	<rect x="-26.996" y="552.223" fill="#404749" width="364.078" height="87.777"/>
	<path opacity="0.34" fill="#FFFCEE" enable-background="new    " d="M73.658,424.31c2.439,0.003,4.896,0.14,7.357,0.419
		l3.33-10.952l23.098,7.024l-3.33,10.949c8.376,4.336,15.547,10.323,21.213,17.425l10.094-5.386l11.367,21.296l-10.092,5.389
		c2.748,8.658,3.728,17.943,2.67,27.319l10.948,3.327l-7.021,23.1l-10.948-3.327c-4.339,8.375-10.321,15.546-17.425,21.213
		l5.387,10.096l-21.297,11.365l-5.387-10.093c-6.385,2.026-13.112,3.095-19.961,3.088v-17.295
		c20.938,0.007,40.306-13.559,46.711-34.631c7.843-25.8-6.716-53.072-32.511-60.913c-4.727-1.436-9.502-2.119-14.2-2.119
		L73.658,424.31L73.658,424.31z M32.396,438.766l-5.388-10.093l21.294-11.369l5.394,10.095c6.385-2.026,13.11-3.095,19.962-3.089
		v17.294c-20.939-0.01-40.305,13.557-46.712,34.633c-7.841,25.796,6.713,53.068,32.511,60.908l0,0
		c4.727,1.438,9.503,2.12,14.202,2.122v17.295c-2.441,0-4.897-0.139-7.361-0.418l-3.328,10.952l-23.097-7.021l3.329-10.953
		c-8.38-4.334-15.544-10.318-21.21-17.424l-10.1,5.388L0.526,515.787l10.094-5.39c-2.75-8.659-3.731-17.945-2.671-27.32L-3,479.748
		l7.023-23.1l10.949,3.328C19.308,451.601,25.29,444.434,32.396,438.766z"/>
	<path opacity="0.34" fill="#FFFCEE" enable-background="new    " d="M241.646,447.741c1.535,0,3.08,0.088,4.629,0.263l2.098-6.891
		l14.533,4.419l-2.092,6.892c5.271,2.727,9.783,6.495,13.348,10.964l6.352-3.39l7.154,13.403l-6.352,3.391
		c1.729,5.451,2.346,11.292,1.682,17.194l6.889,2.092l-4.418,14.538l-6.891-2.095c-2.73,5.272-6.494,9.785-10.965,13.351
		l3.389,6.354l-13.402,7.152l-3.391-6.352c-4.018,1.274-8.252,1.945-12.562,1.942v-10.882c13.178,0.005,25.365-8.535,29.395-21.797
		c4.938-16.235-4.225-33.399-20.457-38.334c-2.977-0.903-5.98-1.33-8.938-1.333V447.741L241.646,447.741z M215.68,456.84
		l-3.391-6.354l13.402-7.154l3.395,6.354c4.016-1.277,8.25-1.945,12.561-1.943v10.883c-13.178-0.006-25.365,8.534-29.396,21.795
		c-4.936,16.236,4.225,33.398,20.457,38.333l0,0c2.977,0.904,5.98,1.332,8.939,1.333v10.885c-1.537-0.002-3.082-0.09-4.633-0.264
		l-2.094,6.892l-14.535-4.419l2.094-6.892c-5.275-2.729-9.783-6.494-13.348-10.966l-6.355,3.391l-7.152-13.404l6.354-3.393
		c-1.732-5.448-2.348-11.292-1.682-17.191l-6.891-2.095l4.418-14.539l6.891,2.095C207.443,464.915,211.209,460.402,215.68,456.84z"
		/>
	<g id="Layer_3">
		<path opacity="0.4" fill="#221F1F" enable-background="new    " d="M44.803,577.081c0-2.244,53.458-4.062,112.406-4.062
			c58.945,0,101.064,1.817,101.064,4.062c0,2.24-42.119,4.061-101.064,4.061C98.261,581.142,44.803,579.321,44.803,577.081z"/>
		<path fill="#221F1F" d="M233.1,570.18V471.3c0-4.712-3.816-8.531-8.529-8.531H82.186c-4.711,0-8.53,3.819-8.53,8.531v98.879
			L233.1,570.18L233.1,570.18z"/>
		<path fill="#BBBDBF" d="M245.816,575.998H60.938c-3.833,0-4.425-5.076-4.425-5.076h193.729
			C250.242,570.922,249.65,575.998,245.816,575.998z"/>
		<rect x="56.513" y="568.939" fill="#E6E6E7" width="193.729" height="2.849"/>
		<rect x="79.89" y="470.828" fill="#EFCC86" width="146.975" height="92.88"/>
	</g>
</g>
<g id="Layer_2">
	<g>
		<rect x="93.478" y="399.195" fill="#18232D" width="117.837" height="164.583"/>
		<g>
			<rect x="102.083" y="408.686" fill="#458424" width="56.564" height="2.147"/>
			<rect x="102.083" y="413.997" fill="#E2CF7F" width="18.126" height="2.152"/>
			<rect x="102.083" y="419.298" fill="#CCCCCC" width="29.231" height="2.147"/>
			<rect x="115.685" y="424.608" fill="#E2CF7F" width="17.057" height="2.147"/>
			<rect x="115.685" y="429.907" fill="#E2CF7F" width="17.057" height="2.149"/>
			<rect x="127.522" y="435.22" fill="#E2CF7F" width="16.591" height="2.147"/>
			<rect x="126.308" y="413.997" fill="#CCCCCC" width="30.912" height="2.152"/>
			<rect x="161.625" y="413.997" fill="#CCCCCC" width="14.762" height="2.152"/>
			<rect x="181.992" y="413.997" fill="#CCCCCC" width="19.928" height="2.152"/>
			<rect x="136.198" y="419.298" fill="#E2CF7F" width="17.392" height="2.147"/>
			<rect x="137.946" y="424.608" fill="#CCCCCC" width="9.957" height="2.147"/>
			<rect x="137.946" y="429.907" fill="#CCCCCC" width="17.058" height="2.149"/>
			<rect x="152.642" y="424.608" fill="#CCCCCC" width="18.954" height="2.147"/>
			<rect x="175.385" y="424.608" fill="#CCCCCC" width="9.945" height="2.147"/>
			<rect x="189.6" y="424.608" fill="#CCCCCC" width="12.32" height="2.147"/>
			<rect x="158.795" y="429.907" fill="#CCCCCC" width="21.543" height="2.149"/>
			<rect x="183.555" y="429.907" fill="#CCCCCC" width="6.434" height="2.149"/>
			<rect x="148.85" y="435.22" fill="#CCCCCC" width="12.333" height="2.147"/>
			<rect x="115.685" y="445.83" fill="#E2CF7F" width="17.057" height="2.148"/>
			<rect x="115.685" y="451.143" fill="#E2CF7F" width="17.057" height="2.15"/>
			<rect x="137.946" y="445.83" fill="#CCCCCC" width="9.957" height="2.148"/>
			<rect x="137.946" y="451.143" fill="#CCCCCC" width="15.363" height="2.15"/>
			<rect x="152.642" y="445.83" fill="#CCCCCC" width="14.575" height="2.148"/>
			<rect x="170.125" y="445.83" fill="#CCCCCC" width="7.662" height="2.148"/>
			<rect x="181.07" y="445.83" fill="#CCCCCC" width="9.477" height="2.148"/>
			<rect x="168.258" y="451.143" fill="#CCCCCC" width="17.07" height="2.15"/>
			<rect x="115.685" y="456.441" fill="#E2CF7F" width="17.057" height="2.151"/>
			<rect x="115.685" y="461.754" fill="#E2CF7F" width="17.057" height="2.147"/>
			<rect x="137.946" y="456.441" fill="#CCCCCC" width="9.957" height="2.151"/>
			<rect x="137.946" y="461.754" fill="#CCCCCC" width="31.274" height="2.147"/>
			<rect x="152.642" y="456.441" fill="#CCCCCC" width="18.954" height="2.151"/>
			<rect x="175.385" y="456.441" fill="#CCCCCC" width="9.945" height="2.151"/>
			<rect x="189.6" y="456.441" fill="#CCCCCC" width="12.32" height="2.151"/>
			<rect x="173.01" y="461.754" fill="#CCCCCC" width="17.537" height="2.147"/>
			<rect x="156.725" y="451.143" fill="#CCCCCC" width="7.261" height="2.15"/>
			<rect x="102.083" y="472.364" fill="#E2CF7F" width="18.126" height="2.148"/>
			<rect x="102.083" y="477.664" fill="#CCCCCC" width="29.231" height="2.147"/>
			<rect x="115.685" y="482.976" fill="#E2CF7F" width="17.057" height="2.149"/>
			<rect x="115.685" y="488.275" fill="#E2CF7F" width="17.057" height="2.16"/>
			<rect x="127.522" y="493.587" fill="#E2CF7F" width="16.591" height="2.147"/>
			<rect x="126.308" y="472.364" fill="#CCCCCC" width="17.152" height="2.148"/>
			<rect x="147.851" y="472.364" fill="#CCCCCC" width="8.663" height="2.148"/>
			<rect x="162.117" y="472.364" fill="#CCCCCC" width="27.549" height="2.148"/>
			<rect x="136.198" y="477.664" fill="#E2CF7F" width="17.392" height="2.147"/>
			<rect x="137.946" y="482.976" fill="#CCCCCC" width="19.434" height="2.149"/>
			<rect x="137.946" y="488.275" fill="#CCCCCC" width="13.269" height="2.16"/>
			<rect x="162.117" y="482.976" fill="#CCCCCC" width="14.443" height="2.149"/>
			<rect x="155.004" y="488.275" fill="#CCCCCC" width="25.334" height="2.16"/>
			<rect x="183.555" y="488.275" fill="#CCCCCC" width="6.434" height="2.16"/>
			<rect x="148.85" y="493.587" fill="#CCCCCC" width="12.333" height="2.147"/>
			<rect x="163.92" y="493.587" fill="#CCCCCC" width="22.957" height="2.147"/>
			<rect x="190.293" y="493.587" fill="#CCCCCC" width="6.861" height="2.147"/>
			<rect x="115.685" y="504.199" fill="#E2CF7F" width="17.057" height="2.148"/>
			<rect x="115.685" y="509.51" fill="#E2CF7F" width="17.057" height="2.147"/>
			<rect x="137.946" y="504.199" fill="#CCCCCC" width="28.083" height="2.148"/>
			<rect x="137.946" y="509.51" fill="#CCCCCC" width="15.363" height="2.147"/>
			<rect x="170.125" y="504.199" fill="#CCCCCC" width="7.662" height="2.148"/>
			<rect x="181.07" y="504.199" fill="#CCCCCC" width="9.477" height="2.148"/>
			<rect x="168.258" y="509.51" fill="#CCCCCC" width="17.07" height="2.147"/>
			<rect x="156.725" y="509.51" fill="#CCCCCC" width="7.261" height="2.147"/>
			<rect x="102.083" y="518.212" fill="#E2CF7F" width="18.126" height="2.149"/>
			<rect x="102.083" y="523.511" fill="#CCCCCC" width="29.231" height="2.15"/>
			<rect x="115.685" y="528.824" fill="#E2CF7F" width="17.057" height="2.147"/>
			<rect x="115.685" y="534.122" fill="#E2CF7F" width="17.057" height="2.149"/>
			<rect x="127.522" y="539.436" fill="#E2CF7F" width="16.591" height="2.148"/>
			<rect x="126.308" y="518.212" fill="#CCCCCC" width="17.152" height="2.149"/>
			<rect x="147.851" y="518.212" fill="#CCCCCC" width="8.663" height="2.149"/>
			<rect x="162.117" y="518.212" fill="#CCCCCC" width="39.803" height="2.149"/>
			<rect x="136.198" y="523.511" fill="#E2CF7F" width="17.392" height="2.15"/>
			<rect x="137.946" y="528.824" fill="#CCCCCC" width="19.434" height="2.147"/>
			<rect x="137.946" y="534.122" fill="#CCCCCC" width="13.269" height="2.149"/>
			<rect x="162.117" y="528.824" fill="#CCCCCC" width="14.443" height="2.147"/>
			<rect x="180.35" y="528.824" fill="#CCCCCC" width="8.783" height="2.147"/>
			<rect x="193.404" y="528.824" fill="#CCCCCC" width="8.514" height="2.147"/>
			<rect x="155.004" y="534.122" fill="#CCCCCC" width="25.334" height="2.149"/>
			<rect x="183.555" y="534.122" fill="#CCCCCC" width="6.434" height="2.149"/>
			<rect x="148.85" y="539.436" fill="#CCCCCC" width="12.333" height="2.148"/>
			<rect x="115.685" y="550.045" fill="#E2CF7F" width="17.057" height="2.149"/>
			<rect x="115.685" y="555.356" fill="#E2CF7F" width="17.057" height="2.149"/>
			<rect x="137.946" y="550.045" fill="#CCCCCC" width="28.083" height="2.149"/>
			<rect x="137.946" y="555.356" fill="#CCCCCC" width="15.363" height="2.149"/>
			<rect x="170.125" y="550.045" fill="#CCCCCC" width="7.662" height="2.149"/>
			<rect x="181.07" y="550.045" fill="#CCCCCC" width="9.477" height="2.149"/>
			<rect x="168.258" y="555.356" fill="#CCCCCC" width="17.07" height="2.149"/>
			<rect x="156.725" y="555.356" fill="#CCCCCC" width="7.261" height="2.149"/>
		</g>
	</g>
	<g>
		<rect x="201.471" y="498.399" fill="#DB9A26" width="63.256" height="15.894"/>
		<text transform="matrix(1 0 0 1 207.4746 510.2197)" fill="#FFFFFF" font-family="'PTSans-Bold'" font-size="9.9814">J</text>
		<text transform="matrix(1 0 0 1 210.8086 510.2197)" fill="#FFFFFF" font-family="'PTSans-Bold'" font-size="9.9814">A</text>
		<text transform="matrix(1 0 0 1 216.8467 510.2197)" fill="#FFFFFF" font-family="'PTSans-Bold'" font-size="9.9814">V</text>
		<text transform="matrix(1 0 0 1 222.8555 510.2197)" fill="#FFFFFF" font-family="'PTSans-Bold'" font-size="9.9814">A</text>
		<text transform="matrix(1 0 0 1 228.8936 510.2197)" fill="#FFFFFF" font-family="'PTSans-Bold'" font-size="9.9814">S</text>
		<text transform="matrix(1 0 0 1 234.1836 510.2197)" fill="#FFFFFF" font-family="'PTSans-Bold'" font-size="9.9814">C</text>
		<text transform="matrix(1 0 0 1 239.7646 510.2197)" fill="#FFFFFF" font-family="'PTSans-Bold'" font-size="9.9814">R</text>
		<text transform="matrix(1 0 0 1 245.7725 510.2197)" fill="#FFFFFF" font-family="'PTSans-Bold'" font-size="9.9814">I</text>
		<text transform="matrix(1 0 0 1 248.6182 510.2197)" fill="#FFFFFF" font-family="'PTSans-Bold'" font-size="9.9814">P</text>
		<text transform="matrix(1 0 0 1 254.3271 510.2197)" fill="#FFFFFF" font-family="'PTSans-Bold'" font-size="9.9814">T</text>
	</g>
	<text transform="matrix(1 0 0 1 253.7627 533.2266)" fill="#FFFFFF" font-family="'PTSans-Bold'" font-size="9.5894">&lt;</text>
	<text transform="matrix(1 0 0 1 258.8164 533.2266)" fill="#FFFFFF" font-family="'PTSans-Bold'" font-size="9.5894">s</text>
	<text transform="matrix(1 0 0 1 262.8633 533.2266)" fill="#FFFFFF" font-family="'PTSans-Bold'" font-size="9.5894">c</text>
	<text transform="matrix(1 0 0 1 267.0156 533.2266)" fill="#FFFFFF" font-family="'PTSans-Bold'" font-size="9.5894">r</text>
	<text transform="matrix(1 0 0 1 270.3818 533.2266)" fill="#FFFFFF" font-family="'PTSans-Bold'" font-size="9.5894">i</text>
	<text transform="matrix(1 0 0 1 272.9609 533.2266)" fill="#FFFFFF" font-family="'PTSans-Bold'" font-size="9.5894">p</text>
	<text transform="matrix(1 0 0 1 278.1396 533.2266)" fill="#FFFFFF" font-family="'PTSans-Bold'" font-size="9.5894">t</text>
	<text transform="matrix(1 0 0 1 281.4854 533.2266)" fill="#FFFFFF" font-family="'PTSans-Bold'" font-size="9.5894">&gt;</text>
	<g>
		<text transform="matrix(1 0 0 1 44.3667 495.4346)" fill="#FFFFFF" font-family="'PTSans-Bold'" font-size="11.8099">&lt;</text>
		<text transform="matrix(1 0 0 1 50.5903 495.4346)" fill="#FFFFFF" font-family="'PTSans-Bold'" font-size="11.8099">h</text>
		<text transform="matrix(1 0 0 1 57.0269 495.4346)" fill="#FFFFFF" font-family="'PTSans-Bold'" font-size="11.8099">e</text>
		<text transform="matrix(1 0 0 1 63.0278 495.4346)" fill="#FFFFFF" font-family="'PTSans-Bold'" font-size="11.8099">a</text>
		<text transform="matrix(1 0 0 1 68.8833 495.4346)" fill="#FFFFFF" font-family="'PTSans-Bold'" font-size="11.8099">d</text>
		<text transform="matrix(1 0 0 1 75.2495 495.4346)" fill="#FFFFFF" font-family="'PTSans-Bold'" font-size="11.8099">&gt;</text>
	</g>
	<g>
		<rect x="72.618" y="402.363" fill="#EFA73F" width="41.72" height="14.791"/>
		<text transform="matrix(1 0 0 1 79.6743 413.3633)" fill="#FFFFFF" font-family="'PTSans-Bold'" font-size="9.2876">H</text>
		<text transform="matrix(1 0 0 1 85.7202 413.3633)" fill="#FFFFFF" font-family="'PTSans-Bold'" font-size="9.2876">T</text>
		<text transform="matrix(1 0 0 1 90.9966 413.3633)" fill="#FFFFFF" font-family="'PTSans-Bold'" font-size="9.2876">M</text>
		<text transform="matrix(1 0 0 1 98.4263 413.3633)" fill="#FFFFFF" font-family="'PTSans-Bold'" font-size="9.2876">L</text>
		<text transform="matrix(1 0 0 1 103.1997 413.3633)" fill="#FFFFFF" font-family="'PTSans-Bold'" font-size="9.2876">5</text>
	</g>
	<text transform="matrix(1 0 0 1 202.4561 441.957)" fill="#FFFFFF" font-family="'PTSans-Bold'" font-size="10.4289">&lt;</text>
	<text transform="matrix(1 0 0 1 207.9531 441.957)" fill="#FFFFFF" font-family="'PTSans-Bold'" font-size="10.4289">l</text>
	<text transform="matrix(1 0 0 1 211.0186 441.957)" fill="#FFFFFF" font-family="'PTSans-Bold'" font-size="10.4289">a</text>
	<text transform="matrix(1 0 0 1 216.1904 441.957)" fill="#FFFFFF" font-family="'PTSans-Bold'" font-size="10.4289">b</text>
	<text transform="matrix(1 0 0 1 221.7812 441.957)" fill="#FFFFFF" font-family="'PTSans-Bold'" font-size="10.4289">e</text>
	<text transform="matrix(1 0 0 1 227.0781 441.957)" fill="#FFFFFF" font-family="'PTSans-Bold'" font-size="10.4289">l</text>
	<text transform="matrix(1 0 0 1 230.1436 441.957)" fill="#FFFFFF" font-family="'PTSans-Bold'" font-size="10.4289">&gt;</text>
	<text transform="matrix(1 0 0 1 20.8374 432.0576)" fill="#FFFFFF" font-family="'PTSans-Bold'" font-size="9.3379">&lt;</text>
	<text transform="matrix(1 0 0 1 25.7583 432.0576)" fill="#FFFFFF" font-family="'PTSans-Bold'" font-size="9.3379">f</text>
	<text transform="matrix(1 0 0 1 28.7563 432.0576)" fill="#FFFFFF" font-family="'PTSans-Bold'" font-size="9.3379">o</text>
	<text transform="matrix(1 0 0 1 33.77 432.0576)" fill="#FFFFFF" font-family="'PTSans-Bold'" font-size="9.3379">r</text>
	<text transform="matrix(1 0 0 1 37.0474 432.0576)" fill="#FFFFFF" font-family="'PTSans-Bold'" font-size="9.3379">m</text>
	<text transform="matrix(1 0 0 1 44.564 432.0576)" fill="#FFFFFF" font-family="'PTSans-Bold'" font-size="9.3379">&gt;</text>
	<g>
		<rect x="201.471" y="393.364" fill="#79AF45" width="35.406" height="17.469"/>
		<text transform="matrix(1 0 0 1 207.8828 406.3574)" fill="#FFFFFF" font-family="'PTSans-Bold'" font-size="10.9703">C</text>
		<text transform="matrix(1 0 0 1 214.0146 406.3574)" fill="#FFFFFF" font-family="'PTSans-Bold'" font-size="10.9703">S</text>
		<text transform="matrix(1 0 0 1 219.8291 406.3574)" fill="#FFFFFF" font-family="'PTSans-Bold'" font-size="10.9703">S</text>
		<text transform="matrix(1 0 0 1 225.6436 406.3574)" fill="#FFFFFF" font-family="'PTSans-Bold'" font-size="10.9703">3</text>
	</g>
	<text transform="matrix(1 0 0 1 149.4595 380.0195)" fill="#FFFFFF" font-family="'PTSans-Bold'" font-size="11.3344">&lt;</text>
	<text transform="matrix(1 0 0 1 155.4321 380.0195)" fill="#FFFFFF" font-family="'PTSans-Bold'" font-size="11.3344">s</text>
	<text transform="matrix(1 0 0 1 160.2153 380.0195)" fill="#FFFFFF" font-family="'PTSans-Bold'" font-size="11.3344">t</text>
	<text transform="matrix(1 0 0 1 164.1699 380.0195)" fill="#FFFFFF" font-family="'PTSans-Bold'" font-size="11.3344">y</text>
	<text transform="matrix(1 0 0 1 169.5879 380.0195)" fill="#FFFFFF" font-family="'PTSans-Bold'" font-size="11.3344">l</text>
	<text transform="matrix(1 0 0 1 172.9189 380.0195)" fill="#FFFFFF" font-family="'PTSans-Bold'" font-size="11.3344">e</text>
	<text transform="matrix(1 0 0 1 178.6787 380.0195)" fill="#FFFFFF" font-family="'PTSans-Bold'" font-size="11.3344">&gt;</text>
	<text transform="matrix(1 0 0 1 261.9844 391.5205)" fill="#FFFFFF" font-family="'PTSans-Bold'" font-size="9.5449">&lt;</text>
	<text transform="matrix(1 0 0 1 267.0146 391.5205)" fill="#FFFFFF" font-family="'PTSans-Bold'" font-size="9.5449">d</text>
	<text transform="matrix(1 0 0 1 272.1592 391.5205)" fill="#FFFFFF" font-family="'PTSans-Bold'" font-size="9.5449">i</text>
	<text transform="matrix(1 0 0 1 274.7266 391.5205)" fill="#FFFFFF" font-family="'PTSans-Bold'" font-size="9.5449">v</text>
	<text transform="matrix(1 0 0 1 279.2793 391.5205)" fill="#FFFFFF" font-family="'PTSans-Bold'" font-size="9.5449">&gt;</text>
	<g>
		<path fill="#80BAD8" d="M89.69,294.094c6.908,1.415,12.076,6.673,12.076,12.898l0,0c0,6.398-5.355,13.008-12.659,13.008H57.003
			c-7.817,0-13.843-6.264-13.843-13.008l0,0c0-6.226,5.168-11.483,12.077-12.898c-0.005-0.126-0.006-0.249-0.006-0.374
			c0-7.997,7.714-14.48,17.232-14.48c9.517,0,17.232,6.483,17.232,14.48C89.697,293.845,89.693,293.968,89.69,294.094z"/>
		<path fill="#FFFFFF" d="M68.076,292.423c6.501,1.331,11.364,6.28,11.364,12.139l0,0c0,6.022-5.042,12.24-11.913,12.24h-30.21
			c-7.356,0-13.026-5.895-13.026-12.24l0,0c0-5.858,4.864-10.808,11.363-12.139c-0.003-0.116-0.004-0.234-0.004-0.354
			c0-7.523,7.259-13.627,16.215-13.627c8.956,0,16.217,6.104,16.217,13.627C68.081,292.188,68.079,292.307,68.076,292.423z"/>
	</g>
	<g>
		<polygon fill="#FFFFFF" points="285.34,482.732 290.338,482.767 290.242,515.152 285.248,515.12 		"/>
		<polygon fill="#7F7F7F" points="286.312,484.192 286.227,513.673 289.271,513.693 289.357,484.214 		"/>
		<path fill="#FFFFFF" d="M291.023,474.608c1.729,1.071,2.881,2.991,2.871,5.174c-0.016,3.34-2.734,6.038-6.074,6.021
			c-3.34-0.015-6.035-2.733-6.021-6.074c0.01-2.183,1.176-4.092,2.918-5.148l-0.016,3.421l-0.008,1.819l1.572,0.919l1.574,0.918
			l1.58-0.906l1.578-0.902l0.008-1.82L291.023,474.608z"/>
		<path fill="#FFFFFF" d="M290.867,522.216c1.742-1.058,2.908-2.963,2.92-5.15c0.014-3.34-2.684-6.059-6.021-6.072
			c-3.34-0.016-6.059,2.681-6.074,6.021c-0.012,2.185,1.141,4.105,2.873,5.174l0.016-3.419l0.008-1.821l1.578-0.903l1.578-0.902
			l1.574,0.918l1.574,0.917l-0.008,1.82L290.867,522.216z"/>
		<path fill="#7F7F7F" d="M291.852,520.009c0.609-0.846,0.955-1.867,0.961-2.946c0.012-2.802-2.25-5.084-5.051-5.095
			c-2.803-0.013-5.084,2.248-5.098,5.052c-0.004,1.079,0.332,2.106,0.934,2.953l0.016-3.59l4.139-2.366l4.117,2.4L291.852,520.009z"
			/>
		<path fill="#7F7F7F" d="M283.732,476.74c-0.609,0.844-0.953,1.868-0.959,2.947c-0.012,2.803,2.248,5.083,5.053,5.096
			c2.803,0.011,5.082-2.25,5.096-5.053c0.002-1.077-0.332-2.104-0.936-2.954l-0.014,3.591l-4.139,2.365l-4.117-2.397L283.732,476.74
			z"/>
	</g>
	<path fill="#1A252B" d="M286.016,467.319l1.594,1.339l-3.314,3.946l-1.596-1.338c-1.127,0.869-2.379,1.521-3.736,1.946l0.18,2.073
		l-3.768,0.329v-5.811c2.34,0.002,4.607-1.024,6.164-2.879c2.852-3.396,2.408-8.481-0.99-11.337l0,0
		c-0.838-0.705-1.791-1.221-2.828-1.536c-0.773-0.234-1.564-0.35-2.346-0.35v-5.81l1.365-0.119l0.18,2.073
		c1.4,0.181,2.768,0.611,4.02,1.269l1.338-1.597l3.945,3.312l-1.336,1.598c0.871,1.124,1.523,2.378,1.945,3.737l2.074-0.183
		l0.449,5.133l-2.076,0.182C287.102,464.711,286.676,466.061,286.016,467.319z M275.377,475.615l-1.365,0.118l-0.18-2.072
		c-1.402-0.183-2.768-0.612-4.018-1.269l-1.34,1.594l-3.947-3.313l1.34-1.592c-0.871-1.128-1.523-2.382-1.945-3.739l-2.074,0.182
		l-0.449-5.135l2.072-0.182c0.184-1.409,0.609-2.758,1.27-4.017l-1.594-1.34l3.311-3.947l1.594,1.339
		c1.127-0.869,2.381-1.522,3.738-1.944l-0.182-2.075l3.77-0.329v5.812c-2.34,0-4.605,1.021-6.164,2.876
		c-2.852,3.4-2.408,8.485,0.992,11.34c0.838,0.703,1.789,1.219,2.828,1.536c0.773,0.235,1.562,0.35,2.344,0.35V475.615
		L275.377,475.615z"/>
	<text transform="matrix(1 0 0 1 215.1543 355.7861)" fill="#FFFFFF" font-family="'PTSans-Bold'" font-size="10.5003">&lt;</text>
	<text transform="matrix(1 0 0 1 220.6885 355.7861)" fill="#FFFFFF" font-family="'PTSans-Bold'" font-size="10.5003">b</text>
	<text transform="matrix(1 0 0 1 226.3184 355.7861)" fill="#FFFFFF" font-family="'PTSans-Bold'" font-size="10.5003">o</text>
	<text transform="matrix(1 0 0 1 231.9541 355.7861)" fill="#FFFFFF" font-family="'PTSans-Bold'" font-size="10.5003">d</text>
	<text transform="matrix(1 0 0 1 237.6152 355.7861)" fill="#FFFFFF" font-family="'PTSans-Bold'" font-size="10.5003">y</text>
	<text transform="matrix(1 0 0 1 242.6328 355.7861)" fill="#FFFFFF" font-family="'PTSans-Bold'" font-size="10.5003">&gt;</text>
	<g>
		<path fill="#80BAD8" d="M268.307,185.403c6.91,1.417,12.076,6.675,12.076,12.899l0,0c0,6.398-5.355,13.011-12.658,13.011h-32.104
			c-7.818,0-13.842-6.265-13.842-13.011l0,0c0-6.225,5.168-11.482,12.074-12.898c-0.004-0.125-0.006-0.248-0.006-0.377
			c0-7.995,7.715-14.479,17.23-14.479c9.518,0,17.232,6.484,17.232,14.479C268.312,185.154,268.309,185.279,268.307,185.403z"/>
		<path fill="#FFFFFF" d="M246.691,183.734c6.502,1.331,11.365,6.28,11.365,12.137l0,0c0,6.024-5.041,12.242-11.912,12.242h-30.211
			c-7.357,0-13.025-5.894-13.025-12.242l0,0c0-5.856,4.861-10.806,11.363-12.137c-0.006-0.117-0.006-0.236-0.006-0.354
			c0-7.525,7.26-13.627,16.215-13.627c8.953,0,16.217,6.102,16.217,13.627C246.697,183.498,246.695,183.617,246.691,183.734z"/>
	</g>
</g>
<g id="Layer_5">
	<g>
		<path fill="#FFEEC9" d="M307.756,493.279l-3.578-8.116l-3.578,8.116v64.037c0,1.073,0.879,1.954,1.953,1.954h3.254
			c1.07,0,1.951-0.881,1.951-1.954L307.756,493.279L307.756,493.279z"/>
		<path fill="#FFCD61" d="M307.756,493.279l-3.578-8.116l1.553,8.442v65.665h0.072c1.074,0,1.953-0.881,1.953-1.954V493.279z"/>
		<path fill="#C0F7FC" d="M307.756,493.279l-3.578-8.116l-3.578,8.116v61.163c2.521,0.429,4.891,0.409,7.16,0L307.756,493.279
			L307.756,493.279z"/>
		<path fill="#A2EDF4" d="M307.756,493.279l-3.578-8.116l1.553,8.442v61.152c1.223,0.004,0.863-0.104,2.025-0.313V493.279z"/>
		<path fill="#134089" d="M307.756,493.279l-3.578-8.116l-3.578,8.116v58.88c2.533,0.459,4.902,0.438,7.16,0L307.756,493.279
			L307.756,493.279z"/>
		<path fill="#0D3570" d="M307.748,493.536l-3.551-8.054l1.766,8.068v58.638c1.217,0.006,0.635,0.201,1.785-0.021V493.536z"/>
		<path fill="#FFFFFF" d="M307.756,493.279l-3.578-8.116l-3.578,8.116c1.139,0.211,2.338,0.326,3.578,0.326
			S306.619,493.49,307.756,493.279z"/>
		<path fill="#CCCCCC" d="M307.756,493.279l-3.578-8.116l1.797,8.442C307.215,493.605,306.619,493.49,307.756,493.279z"/>
		<path fill="#4D4D4D" d="M305.361,487.842l-1.184-2.679l-1.182,2.679c0.377,0.07,0.773,0.108,1.182,0.108
			C304.588,487.95,304.984,487.912,305.361,487.842z"/>
	</g>
</g>
</svg>
