<?xml version="1.0" encoding="utf-8"?>
<!-- Generator: Adobe Illustrator 15.0.0, SVG Export Plug-In . SVG Version: 6.00 Build 0)  -->
<!DOCTYPE svg PUBLIC "-//W3C//DTD SVG 1.1//EN" "http://www.w3.org/Graphics/SVG/1.1/DTD/svg11.dtd">
<svg version="1.1" id="Layer_1" xmlns="http://www.w3.org/2000/svg" xmlns:xlink="http://www.w3.org/1999/xlink" x="0px" y="0px"
	 width="1024px" height="1366px" viewBox="0 0 1024 1366" enable-background="new 0 0 1024 1366" xml:space="preserve">
<g id="Layer_1_1_">
	<rect x="-82.981" fill="#9FD5F7" width="1146.856" height="1318.206"/>
	<g id="Layer_4">
		<polygon fill="#92CCE8" points="1052.88,962.405 1052.88,819.85 1018.191,819.85 1018.191,698.437 931.442,698.437 
			931.442,962.405 892.659,962.405 892.659,819.85 824.28,819.85 824.28,759.142 780.914,759.142 780.914,776.486 762.544,776.486 
			762.544,784.073 740.855,784.073 740.855,797.084 728.609,797.084 728.609,962.405 714.826,962.405 714.826,759.142 
			650.795,759.142 650.795,962.405 641.359,962.405 641.359,853.453 558.945,853.453 558.945,962.405 554.609,962.405 
			554.609,676.756 472.2,676.756 472.2,962.405 449.491,962.405 449.491,749.924 367.082,700.06 367.082,839.361 344.371,839.361 
			344.371,809.009 290.544,809.009 290.544,962.405 181.468,962.405 181.468,724.992 95.618,724.992 95.618,962.405 2.87,962.405 
			2.87,639.893 -82.981,639.893 -82.981,813.34 -93.249,813.34 -93.249,1131.49 1074.884,1131.49 1074.884,962.405 		"/>
		<path fill="#80BAD8" d="M1008.978,1022.186V810.121h-53.462v212.064h-11.291V766.648c0-14.304-11.106-25.97-25.103-26.819
			l-1.629-67.902l-1.622,67.902c-14.007,0.85-25.104,12.516-25.104,26.819v255.537h-69.583V831.265h-53.463v190.928h-43.669V872.13
			h-61.025v150.062h-34.461V761.127h-23.103l-1.952-81.659l-1.956,81.659h-30.73v52.501h-38.048l-18.856-32.86l-18.854,32.86h-3.808
			v-30.96h-53.784v239.522h-10.424V914.654h-24.695v-32.585h-41.156v-22.643h-43.905v37.556h-19.755V710.319h-14.206
			c-4.433-11.331-14.979-19.54-27.564-20.522l-2.108-88.028l-2.108,87.984c-12.953,0.676-23.868,8.988-28.396,20.566h-11.225
			v311.873h-10.426v-192.03h-51.039v192.023h-16.459V830.162h-36.04L62.602,768.52l-35.364,61.643H-7.578v192.023h-8.228v-98.255
			h-55.977v98.255h-12.073v-77.711h-9.394v187.023h1168.133v-109.312H1008.978z"/>
		<polygon fill="#679FB7" points="1066.1,936.43 1066.1,1067.096 1014.105,1067.096 1014.105,986.93 963.794,986.93 
			963.794,1020.385 947.746,1020.385 947.746,1100.712 885.084,1100.712 885.084,974.935 798.433,974.935 798.433,945.269 
			702.548,945.269 702.548,983.144 624.883,983.144 624.883,1100.712 541.68,1100.712 541.68,969.889 484.304,969.889 
			484.304,1100.712 453.74,1100.712 453.74,916.859 429.351,916.859 429.351,864.471 371.975,864.471 371.975,1100.712 
			348.865,1100.712 348.865,928.223 259.001,928.223 259.001,1100.712 239.748,1100.712 239.748,952.211 149.882,952.211 
			149.882,1100.712 97.893,1100.712 97.893,944.002 -0.958,944.002 -0.958,972.406 -93.249,972.406 -93.249,1131.49 
			1074.884,1131.49 1074.884,936.43 		"/>
	</g>
	<rect x="-82.981" y="1128.684" fill="#404749" width="1146.856" height="237.316"/>
	<path opacity="0.34" fill="#FFFCEE" enable-background="new    " d="M180.128,878.141c4.972,0.004,9.978,0.283,14.996,0.852
		l6.787-22.322l47.082,14.316l-6.787,22.318c17.074,8.84,31.691,21.045,43.24,35.52l20.574-10.98l23.172,43.412l-20.573,10.982
		c5.602,17.65,7.599,36.578,5.443,55.689l22.317,6.781l-14.313,47.086l-22.316-6.781c-8.847,17.072-21.039,31.689-35.519,43.238
		l10.979,20.58l-43.412,23.166l-10.981-20.57c-13.015,4.129-26.728,6.305-40.689,6.293v-35.256
		c42.68,0.016,82.158-27.637,95.215-70.588c15.988-52.592-13.689-108.184-66.271-124.166c-9.636-2.928-19.37-4.32-28.944-4.322
		v-35.248H180.128z M96.02,907.605l-10.982-20.572l43.405-23.176l10.995,20.578c13.014-4.131,26.723-6.309,40.691-6.297v35.25
		c-42.684-0.018-82.158,27.637-95.218,70.598c-15.984,52.582,13.684,108.172,66.269,124.154l0,0
		c9.635,2.93,19.372,4.322,28.949,4.324v35.256c-4.978-0.002-9.983-0.283-15.005-0.852l-6.784,22.324l-47.082-14.314l6.786-22.324
		c-17.083-8.834-31.686-21.033-43.235-35.516l-20.587,10.98l-23.164-43.414l20.575-10.986c-5.607-17.65-7.605-36.58-5.445-55.688
		l-22.317-6.787l14.315-47.086l22.318,6.783C69.342,933.768,81.536,919.158,96.02,907.605z"/>
	<path opacity="0.34" fill="#FFFCEE" enable-background="new    " d="M522.557,925.9c3.128,0.002,6.276,0.18,9.435,0.537
		l4.272-14.047l29.629,9.008l-4.268,14.047c10.744,5.561,19.942,13.24,27.209,22.352l12.948-6.91l14.58,27.32l-12.946,6.912
		c3.525,11.111,4.784,23.018,3.43,35.047l14.042,4.266l-9.005,29.635l-14.045-4.271c-5.568,10.75-13.24,19.947-22.354,27.215
		l6.908,12.951l-27.321,14.58l-6.909-12.947c-8.191,2.598-16.822,3.965-25.605,3.959v-22.182
		c26.857,0.008,51.701-17.398,59.917-44.43c10.063-33.096-8.612-68.082-41.702-78.141c-6.064-1.842-12.189-2.713-18.215-2.717V925.9
		L522.557,925.9z M469.625,944.447l-6.91-12.949l27.316-14.582l6.92,12.947c8.187-2.602,16.817-3.965,25.606-3.959v22.182
		c-26.862-0.012-51.704,17.396-59.923,44.43c-10.06,33.094,8.611,68.076,41.701,78.137l0,0c6.065,1.842,12.191,2.713,18.22,2.715
		v22.188c-3.135-0.002-6.283-0.18-9.442-0.537l-4.27,14.049l-29.629-9.008l4.272-14.047c-10.754-5.562-19.943-13.238-27.208-22.354
		l-12.956,6.912l-14.579-27.324l12.95-6.914c-3.53-11.107-4.786-23.02-3.427-35.045l-14.045-4.27l9.007-29.635l14.043,4.27
		C452.837,960.908,460.51,951.711,469.625,944.447z"/>
	<g id="Layer_3">
		<path opacity="0.4" fill="#221F1F" enable-background="new    " d="M121.312,1189.547c0-4.574,108.968-8.277,229.127-8.277
			c120.154,0,206.007,3.703,206.007,8.277c0,4.566-85.853,8.277-206.007,8.277C230.28,1197.824,121.312,1194.113,121.312,1189.547z"
			/>
		<path fill="#221F1F" d="M505.132,1175.479V973.924c0-9.604-7.78-17.391-17.386-17.391H197.511
			c-9.603,0-17.388,7.787-17.388,17.391v201.553L505.132,1175.479L505.132,1175.479z"/>
		<path fill="#BBBDBF" d="M531.055,1187.34H154.201c-7.814,0-9.02-10.348-9.02-10.348h394.893
			C540.074,1176.992,538.871,1187.34,531.055,1187.34z"/>
		<rect x="145.181" y="1172.951" fill="#E6E6E7" width="394.893" height="5.807"/>
		<rect x="192.832" y="972.961" fill="#EFCC86" width="299.592" height="189.328"/>
	</g>
</g>
<g id="Layer_2">
	<g>
		<rect x="220.529" y="826.945" fill="#18232D" width="240.198" height="335.484"/>
		<g>
			<rect x="238.069" y="846.291" fill="#458424" width="115.301" height="4.379"/>
			<rect x="238.069" y="857.117" fill="#E2CF7F" width="36.948" height="4.387"/>
			<rect x="238.069" y="867.922" fill="#CCCCCC" width="59.584" height="4.379"/>
			<rect x="265.794" y="878.748" fill="#E2CF7F" width="34.77" height="4.379"/>
			<rect x="265.794" y="889.551" fill="#E2CF7F" width="34.77" height="4.381"/>
			<rect x="289.925" y="900.379" fill="#E2CF7F" width="33.818" height="4.377"/>
			<rect x="287.449" y="857.117" fill="#CCCCCC" width="63.011" height="4.387"/>
			<rect x="359.438" y="857.117" fill="#CCCCCC" width="30.09" height="4.387"/>
			<rect x="400.955" y="857.117" fill="#CCCCCC" width="40.62" height="4.387"/>
			<rect x="307.609" y="867.922" fill="#E2CF7F" width="35.451" height="4.379"/>
			<rect x="311.174" y="878.748" fill="#CCCCCC" width="20.295" height="4.379"/>
			<rect x="311.174" y="889.551" fill="#CCCCCC" width="34.77" height="4.381"/>
			<rect x="341.129" y="878.748" fill="#CCCCCC" width="38.633" height="4.379"/>
			<rect x="387.489" y="878.748" fill="#CCCCCC" width="20.271" height="4.379"/>
			<rect x="416.464" y="878.748" fill="#CCCCCC" width="25.111" height="4.379"/>
			<rect x="353.67" y="889.551" fill="#CCCCCC" width="43.914" height="4.381"/>
			<rect x="404.14" y="889.551" fill="#CCCCCC" width="13.115" height="4.381"/>
			<rect x="333.399" y="900.379" fill="#CCCCCC" width="25.14" height="4.377"/>
			<rect x="265.794" y="922.008" fill="#E2CF7F" width="34.77" height="4.379"/>
			<rect x="265.794" y="932.836" fill="#E2CF7F" width="34.77" height="4.383"/>
			<rect x="311.174" y="922.008" fill="#CCCCCC" width="20.295" height="4.379"/>
			<rect x="311.174" y="932.836" fill="#CCCCCC" width="31.316" height="4.383"/>
			<rect x="341.129" y="922.008" fill="#CCCCCC" width="29.709" height="4.379"/>
			<rect x="376.769" y="922.008" fill="#CCCCCC" width="15.618" height="4.379"/>
			<rect x="399.078" y="922.008" fill="#CCCCCC" width="19.317" height="4.379"/>
			<rect x="372.96" y="932.836" fill="#CCCCCC" width="34.797" height="4.383"/>
			<rect x="265.794" y="943.637" fill="#E2CF7F" width="34.77" height="4.385"/>
			<rect x="265.794" y="954.465" fill="#E2CF7F" width="34.77" height="4.379"/>
			<rect x="311.174" y="943.637" fill="#CCCCCC" width="20.295" height="4.385"/>
			<rect x="311.174" y="954.465" fill="#CCCCCC" width="63.749" height="4.379"/>
			<rect x="341.129" y="943.637" fill="#CCCCCC" width="38.633" height="4.385"/>
			<rect x="387.489" y="943.637" fill="#CCCCCC" width="20.271" height="4.385"/>
			<rect x="416.464" y="943.637" fill="#CCCCCC" width="25.111" height="4.385"/>
			<rect x="382.646" y="954.465" fill="#CCCCCC" width="35.749" height="4.379"/>
			<rect x="349.453" y="932.836" fill="#CCCCCC" width="14.8" height="4.383"/>
			<rect x="238.069" y="976.094" fill="#E2CF7F" width="36.948" height="4.379"/>
			<rect x="238.069" y="986.895" fill="#CCCCCC" width="59.584" height="4.381"/>
			<rect x="265.794" y="997.723" fill="#E2CF7F" width="34.77" height="4.383"/>
			<rect x="265.794" y="1008.525" fill="#E2CF7F" width="34.77" height="4.404"/>
			<rect x="289.925" y="1019.354" fill="#E2CF7F" width="33.818" height="4.379"/>
			<rect x="287.449" y="976.094" fill="#CCCCCC" width="34.962" height="4.379"/>
			<rect x="331.362" y="976.094" fill="#CCCCCC" width="17.659" height="4.379"/>
			<rect x="360.446" y="976.094" fill="#CCCCCC" width="56.154" height="4.379"/>
			<rect x="307.609" y="986.895" fill="#E2CF7F" width="35.451" height="4.381"/>
			<rect x="311.174" y="997.723" fill="#CCCCCC" width="39.613" height="4.383"/>
			<rect x="311.174" y="1008.525" fill="#CCCCCC" width="27.046" height="4.404"/>
			<rect x="360.446" y="997.723" fill="#CCCCCC" width="29.438" height="4.383"/>
			<rect x="345.944" y="1008.525" fill="#CCCCCC" width="51.64" height="4.404"/>
			<rect x="404.14" y="1008.525" fill="#CCCCCC" width="13.115" height="4.404"/>
			<rect x="333.399" y="1019.354" fill="#CCCCCC" width="25.14" height="4.379"/>
			<rect x="364.119" y="1019.354" fill="#CCCCCC" width="46.795" height="4.379"/>
			<rect x="417.878" y="1019.354" fill="#CCCCCC" width="13.985" height="4.379"/>
			<rect x="265.794" y="1040.984" fill="#E2CF7F" width="34.77" height="4.379"/>
			<rect x="265.794" y="1051.811" fill="#E2CF7F" width="34.77" height="4.379"/>
			<rect x="311.174" y="1040.984" fill="#CCCCCC" width="57.243" height="4.379"/>
			<rect x="311.174" y="1051.811" fill="#CCCCCC" width="31.316" height="4.379"/>
			<rect x="376.769" y="1040.984" fill="#CCCCCC" width="15.618" height="4.379"/>
			<rect x="399.078" y="1040.984" fill="#CCCCCC" width="19.317" height="4.379"/>
			<rect x="372.96" y="1051.811" fill="#CCCCCC" width="34.797" height="4.379"/>
			<rect x="349.453" y="1051.811" fill="#CCCCCC" width="14.8" height="4.379"/>
			<rect x="238.069" y="1069.547" fill="#E2CF7F" width="36.948" height="4.383"/>
			<rect x="238.069" y="1080.35" fill="#CCCCCC" width="59.584" height="4.383"/>
			<rect x="265.794" y="1091.18" fill="#E2CF7F" width="34.77" height="4.379"/>
			<rect x="265.794" y="1101.979" fill="#E2CF7F" width="34.77" height="4.383"/>
			<rect x="289.925" y="1112.811" fill="#E2CF7F" width="33.818" height="4.381"/>
			<rect x="287.449" y="1069.547" fill="#CCCCCC" width="34.962" height="4.383"/>
			<rect x="331.362" y="1069.547" fill="#CCCCCC" width="17.659" height="4.383"/>
			<rect x="360.446" y="1069.547" fill="#CCCCCC" width="81.129" height="4.383"/>
			<rect x="307.609" y="1080.35" fill="#E2CF7F" width="35.451" height="4.383"/>
			<rect x="311.174" y="1091.18" fill="#CCCCCC" width="39.613" height="4.379"/>
			<rect x="311.174" y="1101.979" fill="#CCCCCC" width="27.046" height="4.383"/>
			<rect x="360.446" y="1091.18" fill="#CCCCCC" width="29.438" height="4.379"/>
			<rect x="397.609" y="1091.18" fill="#CCCCCC" width="17.901" height="4.379"/>
			<rect x="424.219" y="1091.18" fill="#CCCCCC" width="17.355" height="4.379"/>
			<rect x="345.944" y="1101.979" fill="#CCCCCC" width="51.64" height="4.383"/>
			<rect x="404.14" y="1101.979" fill="#CCCCCC" width="13.115" height="4.383"/>
			<rect x="333.399" y="1112.811" fill="#CCCCCC" width="25.14" height="4.381"/>
			<rect x="265.794" y="1134.436" fill="#E2CF7F" width="34.77" height="4.383"/>
			<rect x="265.794" y="1145.264" fill="#E2CF7F" width="34.77" height="4.381"/>
			<rect x="311.174" y="1134.436" fill="#CCCCCC" width="57.243" height="4.383"/>
			<rect x="311.174" y="1145.264" fill="#CCCCCC" width="31.316" height="4.381"/>
			<rect x="376.769" y="1134.436" fill="#CCCCCC" width="15.618" height="4.383"/>
			<rect x="399.078" y="1134.436" fill="#CCCCCC" width="19.317" height="4.383"/>
			<rect x="372.96" y="1145.264" fill="#CCCCCC" width="34.797" height="4.381"/>
			<rect x="349.453" y="1145.264" fill="#CCCCCC" width="14.8" height="4.381"/>
		</g>
	</g>
	<g>
		<rect x="440.663" y="1029.162" fill="#DB9A26" width="128.939" height="32.396"/>
		<text transform="matrix(1 0 0 1 452.9023 1053.2607)" fill="#FFFFFF" font-family="'PTSans-Bold'" font-size="20.346">J</text>
		<text transform="matrix(1 0 0 1 459.6973 1053.2607)" fill="#FFFFFF" font-family="'PTSans-Bold'" font-size="20.346">A</text>
		<text transform="matrix(1 0 0 1 472.0059 1053.2607)" fill="#FFFFFF" font-family="'PTSans-Bold'" font-size="20.346">V</text>
		<text transform="matrix(1 0 0 1 484.2549 1053.2607)" fill="#FFFFFF" font-family="'PTSans-Bold'" font-size="20.346">A</text>
		<text transform="matrix(1 0 0 1 496.5625 1053.2607)" fill="#FFFFFF" font-family="'PTSans-Bold'" font-size="20.346">S</text>
		<text transform="matrix(1 0 0 1 507.3457 1053.2607)" fill="#FFFFFF" font-family="'PTSans-Bold'" font-size="20.346">C</text>
		<text transform="matrix(1 0 0 1 518.7207 1053.2607)" fill="#FFFFFF" font-family="'PTSans-Bold'" font-size="20.346">R</text>
		<text transform="matrix(1 0 0 1 530.9688 1053.2607)" fill="#FFFFFF" font-family="'PTSans-Bold'" font-size="20.346">I</text>
		<text transform="matrix(1 0 0 1 536.7686 1053.2607)" fill="#FFFFFF" font-family="'PTSans-Bold'" font-size="20.346">P</text>
		<text transform="matrix(1 0 0 1 548.4043 1053.2607)" fill="#FFFFFF" font-family="'PTSans-Bold'" font-size="20.346">T</text>
	</g>
	<text transform="matrix(1 0 0 1 547.2559 1100.1582)" fill="#FFFFFF" font-family="'PTSans-Bold'" font-size="19.547">&lt;</text>
	<text transform="matrix(1 0 0 1 557.5566 1100.1582)" fill="#FFFFFF" font-family="'PTSans-Bold'" font-size="19.547">s</text>
	<text transform="matrix(1 0 0 1 565.8047 1100.1582)" fill="#FFFFFF" font-family="'PTSans-Bold'" font-size="19.547">c</text>
	<text transform="matrix(1 0 0 1 574.2695 1100.1582)" fill="#FFFFFF" font-family="'PTSans-Bold'" font-size="19.547">r</text>
	<text transform="matrix(1 0 0 1 581.1309 1100.1582)" fill="#FFFFFF" font-family="'PTSans-Bold'" font-size="19.547">i</text>
	<text transform="matrix(1 0 0 1 586.3877 1100.1582)" fill="#FFFFFF" font-family="'PTSans-Bold'" font-size="19.547">p</text>
	<text transform="matrix(1 0 0 1 596.9453 1100.1582)" fill="#FFFFFF" font-family="'PTSans-Bold'" font-size="19.547">t</text>
	<text transform="matrix(1 0 0 1 603.7646 1100.1582)" fill="#FFFFFF" font-family="'PTSans-Bold'" font-size="19.547">&gt;</text>
	<g>
		<text transform="matrix(1 0 0 1 120.4229 1023.1221)" fill="#FFFFFF" font-family="'PTSans-Bold'" font-size="24.0733">&lt;</text>
		<text transform="matrix(1 0 0 1 133.1099 1023.1221)" fill="#FFFFFF" font-family="'PTSans-Bold'" font-size="24.0733">h</text>
		<text transform="matrix(1 0 0 1 146.229 1023.1221)" fill="#FFFFFF" font-family="'PTSans-Bold'" font-size="24.0733">e</text>
		<text transform="matrix(1 0 0 1 158.4604 1023.1221)" fill="#FFFFFF" font-family="'PTSans-Bold'" font-size="24.0733">a</text>
		<text transform="matrix(1 0 0 1 170.3984 1023.1221)" fill="#FFFFFF" font-family="'PTSans-Bold'" font-size="24.0733">d</text>
		<text transform="matrix(1 0 0 1 183.3735 1023.1221)" fill="#FFFFFF" font-family="'PTSans-Bold'" font-size="24.0733">&gt;</text>
	</g>
	<g>
		<rect x="178.008" y="833.404" fill="#EFA73F" width="85.042" height="30.15"/>
		<text transform="matrix(1 0 0 1 192.3936 855.8291)" fill="#FFFFFF" font-family="'PTSans-Bold'" font-size="18.9317">H</text>
		<text transform="matrix(1 0 0 1 204.7178 855.8291)" fill="#FFFFFF" font-family="'PTSans-Bold'" font-size="18.9317">T</text>
		<text transform="matrix(1 0 0 1 215.4731 855.8291)" fill="#FFFFFF" font-family="'PTSans-Bold'" font-size="18.9317">M</text>
		<text transform="matrix(1 0 0 1 230.6172 855.8291)" fill="#FFFFFF" font-family="'PTSans-Bold'" font-size="18.9317">L</text>
		<text transform="matrix(1 0 0 1 240.3477 855.8291)" fill="#FFFFFF" font-family="'PTSans-Bold'" font-size="18.9317">5</text>
	</g>
	<text transform="matrix(1 0 0 1 442.6719 914.1143)" fill="#FFFFFF" font-family="'PTSans-Bold'" font-size="21.2582">&lt;</text>
	<text transform="matrix(1 0 0 1 453.876 914.1143)" fill="#FFFFFF" font-family="'PTSans-Bold'" font-size="21.2582">l</text>
	<text transform="matrix(1 0 0 1 460.126 914.1143)" fill="#FFFFFF" font-family="'PTSans-Bold'" font-size="21.2582">a</text>
	<text transform="matrix(1 0 0 1 470.668 914.1143)" fill="#FFFFFF" font-family="'PTSans-Bold'" font-size="21.2582">b</text>
	<text transform="matrix(1 0 0 1 482.0635 914.1143)" fill="#FFFFFF" font-family="'PTSans-Bold'" font-size="21.2582">e</text>
	<text transform="matrix(1 0 0 1 492.8613 914.1143)" fill="#FFFFFF" font-family="'PTSans-Bold'" font-size="21.2582">l</text>
	<text transform="matrix(1 0 0 1 499.1104 914.1143)" fill="#FFFFFF" font-family="'PTSans-Bold'" font-size="21.2582">&gt;</text>
	<text transform="matrix(1 0 0 1 72.4619 893.9336)" fill="#FFFFFF" font-family="'PTSans-Bold'" font-size="19.0342">&lt;</text>
	<text transform="matrix(1 0 0 1 82.4922 893.9336)" fill="#FFFFFF" font-family="'PTSans-Bold'" font-size="19.0342">f</text>
	<text transform="matrix(1 0 0 1 88.6025 893.9336)" fill="#FFFFFF" font-family="'PTSans-Bold'" font-size="19.0342">o</text>
	<text transform="matrix(1 0 0 1 98.8232 893.9336)" fill="#FFFFFF" font-family="'PTSans-Bold'" font-size="19.0342">r</text>
	<text transform="matrix(1 0 0 1 105.5034 893.9336)" fill="#FFFFFF" font-family="'PTSans-Bold'" font-size="19.0342">m</text>
	<text transform="matrix(1 0 0 1 120.8267 893.9336)" fill="#FFFFFF" font-family="'PTSans-Bold'" font-size="19.0342">&gt;</text>
	<g>
		<rect x="440.663" y="815.061" fill="#79AF45" width="72.17" height="35.609"/>
		<text transform="matrix(1 0 0 1 453.7344 841.5479)" fill="#FFFFFF" font-family="'PTSans-Bold'" font-size="22.3617">C</text>
		<text transform="matrix(1 0 0 1 466.2334 841.5479)" fill="#FFFFFF" font-family="'PTSans-Bold'" font-size="22.3617">S</text>
		<text transform="matrix(1 0 0 1 478.085 841.5479)" fill="#FFFFFF" font-family="'PTSans-Bold'" font-size="22.3617">S</text>
		<text transform="matrix(1 0 0 1 489.9375 841.5479)" fill="#FFFFFF" font-family="'PTSans-Bold'" font-size="22.3617">3</text>
	</g>
	<text transform="matrix(1 0 0 1 334.6421 787.8623)" fill="#FFFFFF" font-family="'PTSans-Bold'" font-size="23.1039">&lt;</text>
	<text transform="matrix(1 0 0 1 346.8164 787.8623)" fill="#FFFFFF" font-family="'PTSans-Bold'" font-size="23.1039">s</text>
	<text transform="matrix(1 0 0 1 356.5674 787.8623)" fill="#FFFFFF" font-family="'PTSans-Bold'" font-size="23.1039">t</text>
	<text transform="matrix(1 0 0 1 364.6309 787.8623)" fill="#FFFFFF" font-family="'PTSans-Bold'" font-size="23.1039">y</text>
	<text transform="matrix(1 0 0 1 375.6738 787.8623)" fill="#FFFFFF" font-family="'PTSans-Bold'" font-size="23.1039">l</text>
	<text transform="matrix(1 0 0 1 382.4648 787.8623)" fill="#FFFFFF" font-family="'PTSans-Bold'" font-size="23.1039">e</text>
	<text transform="matrix(1 0 0 1 394.2041 787.8623)" fill="#FFFFFF" font-family="'PTSans-Bold'" font-size="23.1039">&gt;</text>
	<text transform="matrix(1 0 0 1 564.0146 811.3037)" fill="#FFFFFF" font-family="'PTSans-Bold'" font-size="19.4562">&lt;</text>
	<text transform="matrix(1 0 0 1 574.2676 811.3037)" fill="#FFFFFF" font-family="'PTSans-Bold'" font-size="19.4562">d</text>
	<text transform="matrix(1 0 0 1 584.7529 811.3037)" fill="#FFFFFF" font-family="'PTSans-Bold'" font-size="19.4562">i</text>
	<text transform="matrix(1 0 0 1 589.9863 811.3037)" fill="#FFFFFF" font-family="'PTSans-Bold'" font-size="19.4562">v</text>
	<text transform="matrix(1 0 0 1 599.2686 811.3037)" fill="#FFFFFF" font-family="'PTSans-Bold'" font-size="19.4562">&gt;</text>
	<g>
		<path fill="#80BAD8" d="M224.747,435.3c14.082,2.885,24.616,13.604,24.616,26.293l0,0c0,13.043-10.917,26.516-25.804,26.516
			h-65.441c-15.934,0-28.216-12.768-28.216-26.516l0,0c0-12.689,10.535-23.408,24.616-26.293c-0.009-0.256-0.013-0.507-0.013-0.763
			c0-16.301,15.726-29.516,35.125-29.516c19.398,0,35.125,13.215,35.125,29.516C224.759,434.793,224.753,435.044,224.747,435.3z"/>
		<path fill="#FFFFFF" d="M180.688,431.895c13.251,2.713,23.165,12.801,23.165,24.743l0,0c0,12.275-10.277,24.951-24.284,24.951
			h-61.581c-14.995,0-26.553-12.016-26.553-24.951l0,0c0-11.941,9.914-22.029,23.163-24.743c-0.007-0.238-0.008-0.478-0.008-0.72
			c0-15.336,14.796-27.776,33.052-27.776c18.256,0,33.056,12.44,33.056,27.776C180.698,431.417,180.694,431.657,180.688,431.895z"/>
	</g>
	<g>
		<polygon fill="#FFFFFF" points="611.621,997.229 621.805,997.297 621.613,1063.311 611.432,1063.246 		"/>
		<polygon fill="#7F7F7F" points="613.602,1000.205 613.426,1060.297 619.635,1060.338 619.809,1000.246 		"/>
		<path fill="#FFFFFF" d="M623.203,980.668c3.523,2.184,5.873,6.096,5.854,10.547c-0.032,6.809-5.574,12.307-12.384,12.271
			c-6.806-0.027-12.301-5.57-12.271-12.379c0.02-4.451,2.396-8.344,5.946-10.496l-0.032,6.973l-0.017,3.709l3.206,1.873l3.208,1.873
			l3.222-1.848l3.217-1.84l0.016-3.709L623.203,980.668z"/>
		<path fill="#FFFFFF" d="M622.885,1077.709c3.553-2.154,5.928-6.039,5.952-10.496c0.027-6.809-5.468-12.35-12.274-12.379
			c-6.809-0.031-12.351,5.465-12.381,12.273c-0.022,4.453,2.326,8.365,5.856,10.547l0.03-6.973l0.016-3.711l3.221-1.84l3.217-1.842
			l3.209,1.871l3.205,1.869l-0.014,3.711L622.885,1077.709z"/>
		<path fill="#7F7F7F" d="M624.893,1073.211c1.242-1.723,1.947-3.807,1.957-6.004c0.023-5.713-4.586-10.363-10.295-10.387
			c-5.713-0.025-10.362,4.584-10.391,10.297c-0.008,2.199,0.676,4.293,1.904,6.02l0.031-7.316l8.434-4.824l8.395,4.893
			L624.893,1073.211z"/>
		<path fill="#7F7F7F" d="M608.342,985.014c-1.24,1.719-1.941,3.809-1.955,6.008c-0.023,5.711,4.584,10.359,10.301,10.385
			c5.711,0.023,10.359-4.584,10.385-10.297c0.008-2.195-0.676-4.291-1.904-6.023l-0.03,7.32l-8.433,4.822l-8.395-4.889
			L608.342,985.014z"/>
	</g>
	<path fill="#1A252B" d="M612.996,965.809l3.25,2.729l-6.76,8.045l-3.25-2.729c-2.295,1.773-4.848,3.104-7.617,3.969l0.368,4.225
		l-7.679,0.672v-11.844c4.77,0.004,9.389-2.086,12.562-5.867c5.812-6.924,4.91-17.289-2.018-23.109l0,0
		c-1.711-1.436-3.652-2.488-5.767-3.131c-1.577-0.48-3.188-0.713-4.778-0.713v-11.844l2.778-0.242l0.368,4.225
		c2.854,0.371,5.641,1.246,8.193,2.588l2.729-3.254l8.043,6.752l-2.724,3.254c1.773,2.295,3.104,4.848,3.962,7.619l4.229-0.371
		l0.917,10.463l-4.233,0.369C615.21,960.492,614.343,963.242,612.996,965.809z M591.311,982.719l-2.781,0.242l-0.369-4.225
		c-2.857-0.373-5.639-1.248-8.189-2.586l-2.729,3.25l-8.047-6.754l2.73-3.248c-1.775-2.297-3.105-4.852-3.967-7.619l-4.227,0.369
		l-0.914-10.467l4.225-0.369c0.371-2.875,1.238-5.623,2.586-8.188l-3.25-2.73l6.749-8.045l3.251,2.727
		c2.295-1.771,4.852-3.104,7.619-3.963l-0.369-4.23l7.684-0.67v11.846c-4.772-0.002-9.392,2.082-12.565,5.861
		c-5.814,6.932-4.909,17.299,2.021,23.115c1.709,1.434,3.648,2.484,5.764,3.133c1.578,0.479,3.188,0.711,4.781,0.711v11.84H591.311z
		"/>
	<text transform="matrix(1 0 0 1 855.5215 980.6172)" fill="#FFFFFF" font-family="'PTSans-Bold'" font-size="21.4037">&lt;</text>
	<text transform="matrix(1 0 0 1 866.8027 980.6172)" fill="#FFFFFF" font-family="'PTSans-Bold'" font-size="21.4037">b</text>
	<text transform="matrix(1 0 0 1 878.2764 980.6172)" fill="#FFFFFF" font-family="'PTSans-Bold'" font-size="21.4037">o</text>
	<text transform="matrix(1 0 0 1 889.7666 980.6172)" fill="#FFFFFF" font-family="'PTSans-Bold'" font-size="21.4037">d</text>
	<text transform="matrix(1 0 0 1 901.3047 980.6172)" fill="#FFFFFF" font-family="'PTSans-Bold'" font-size="21.4037">y</text>
	<text transform="matrix(1 0 0 1 911.5332 980.6172)" fill="#FFFFFF" font-family="'PTSans-Bold'" font-size="21.4037">&gt;</text>
	<g>
		<path fill="#80BAD8" d="M819.507,656.145c14.086,2.887,24.617,13.607,24.617,26.297l0,0c0,13.04-10.916,26.517-25.803,26.517
			H752.88c-15.936,0-28.215-12.769-28.215-26.517l0,0c0-12.689,10.535-23.41,24.615-26.295c-0.012-0.256-0.016-0.506-0.016-0.766
			c0-16.301,15.727-29.516,35.125-29.516s35.127,13.215,35.127,29.516C819.519,655.639,819.513,655.891,819.507,656.145z"/>
		<path fill="#FFFFFF" d="M775.448,652.743c13.252,2.713,23.164,12.801,23.164,24.74l0,0c0,12.28-10.275,24.955-24.281,24.955
			h-61.582c-14.996,0-26.551-12.015-26.551-24.955l0,0c0-11.939,9.91-22.027,23.162-24.74c-0.008-0.238-0.012-0.48-0.012-0.721
			c0-15.338,14.799-27.775,33.055-27.775c18.25,0,33.053,12.438,33.053,27.775C775.458,652.262,775.452,652.504,775.448,652.743z"/>
	</g>
</g>
<g id="Layer_5">
	<polygon fill="#FFFFFF" points="666.736,837.607 805.5,837.607 828.787,860.896 828.787,837.607 828.787,1066.793 
		666.738,1066.793 	"/>
	
		<line fill="none" stroke="#CCCCCC" stroke-width="0.9601" stroke-miterlimit="22.9256" x1="765.16" y1="1000.158" x2="765.16" y2="1014.48"/>
	
		<line fill="none" stroke="#CCCCCC" stroke-width="0.9601" stroke-miterlimit="22.9256" x1="799.961" y1="1000.158" x2="799.961" y2="1028.805"/>
	<rect x="708.426" y="862.158" fill="#CCCCCC" width="78.67" height="5.594"/>
	<rect x="681.608" y="876.145" fill="#CCCCCC" width="132.306" height="5.598"/>
	<rect x="681.608" y="885.939" fill="#CCCCCC" width="132.306" height="5.592"/>
	<rect x="681.608" y="895.732" fill="#CCCCCC" width="132.306" height="5.596"/>
	<rect x="681.608" y="905.523" fill="#CCCCCC" width="62.006" height="5.596"/>
	<polygon fill="#CCCCCC" points="805.5,860.896 828.787,860.896 805.5,837.607 	"/>
	<rect x="681.608" y="995.9" fill="#EF4136" width="27.908" height="8.516"/>
	<rect x="716.502" y="995.9" fill="#9ACAE6" width="27.908" height="8.516"/>
	<rect x="751.209" y="995.9" fill="#609DC1" width="27.904" height="8.516"/>
	<rect x="786.01" y="995.9" fill="#9ACAE6" width="27.904" height="8.516"/>
	<rect x="681.608" y="1010.223" fill="#F2675D" width="27.908" height="8.516"/>
	<rect x="681.608" y="1024.545" fill="#F48C85" width="27.908" height="8.518"/>
	<rect x="681.608" y="1038.867" fill="#FCD8D6" width="27.908" height="8.516"/>
	<rect x="751.209" y="1010.223" fill="#609DC1" width="27.904" height="8.516"/>
	<rect x="786.01" y="1010.223" fill="#9ACAE6" width="27.904" height="8.516"/>
	<rect x="786.01" y="1024.545" fill="#9ACAE6" width="27.904" height="8.518"/>
	<g>
		<path fill="#FFEEC9" d="M657.312,1018.727l-7.293-16.545l-7.295,16.545v130.533c0,2.186,1.793,3.98,3.98,3.98h6.631
			c2.186,0,3.979-1.795,3.979-3.98L657.312,1018.727L657.312,1018.727z"/>
		<path fill="#FFCD61" d="M657.312,1018.727l-7.295-16.545l3.164,17.207l-0.001,133.852h0.151c2.187,0,3.979-1.795,3.979-3.98
			L657.312,1018.727z"/>
		<path fill="#C0F7FC" d="M657.312,1018.727l-7.293-16.545l-7.295,16.545V1143.4c5.141,0.875,9.968,0.834,14.593,0L657.312,1018.727
			L657.312,1018.727z"/>
		<path fill="#A2EDF4" d="M657.312,1018.727l-7.295-16.545l3.164,17.207l-0.001,124.654c2.495,0.01,1.76-0.211,4.13-0.639
			L657.312,1018.727z"/>
		<path fill="#134089" d="M657.312,1018.727l-7.293-16.545l-7.295,16.545v120.02c5.164,0.936,9.992,0.893,14.593,0L657.312,1018.727
			L657.312,1018.727z"/>
		<path fill="#0D3570" d="M657.293,1019.252l-7.236-16.42l3.6,16.447v119.527c2.482,0.012,1.295,0.408,3.637-0.043V1019.252z"/>
		<path fill="#FFFFFF" d="M657.312,1018.727l-7.293-16.545l-7.295,16.545c2.322,0.43,4.766,0.662,7.295,0.662
			C652.547,1019.389,654.993,1019.156,657.312,1018.727z"/>
		<path fill="#CCCCCC" d="M657.312,1018.727l-7.293-16.545l3.662,17.207C656.21,1019.389,654.993,1019.156,657.312,1018.727z"/>
		<path fill="#4D4D4D" d="M652.429,1007.645l-2.409-5.463l-2.411,5.463c0.769,0.143,1.577,0.219,2.411,0.219
			S651.663,1007.787,652.429,1007.645z"/>
	</g>
	<rect x="681.608" y="924.623" fill="#CCCCCC" width="132.306" height="5.594"/>
	<rect x="681.608" y="934.418" fill="#CCCCCC" width="132.306" height="5.592"/>
	<rect x="681.608" y="944.209" fill="#CCCCCC" width="132.306" height="5.596"/>
	<g id="Layer_6">
		<path fill="#151E26" d="M876.67,1029.312v6.1h-11.877h-83.885v-6.1c0-7.768,6.297-14.062,14.068-14.062h67.627
			C870.367,1015.25,876.67,1021.545,876.67,1029.312z"/>
		<path fill="#151E26" d="M795.482,1150.49h81.188v6.928c0,7.771-6.303,14.064-14.066,14.064h-3.914h-63.713
			c-7.771,0-14.068-6.293-14.068-14.064v-6.928H795.482z"/>
		<polygon fill="#B5B5B5" points="876.67,1090.428 876.67,1150.49 795.482,1150.49 864.795,1035.924 864.795,1035.408 
			876.67,1035.408 876.67,1073.418 		"/>
		<polygon fill="#CECECE" points="864.795,1035.408 864.795,1035.924 795.482,1150.49 780.908,1150.49 780.908,1035.408 		"/>
		<circle fill="#F4F4F4" cx="828.789" cy="1160.987" r="6.3"/>
		<g>
			<path fill="#1A1A1A" d="M814.107,1105.867c-0.975,0-1.953-0.373-2.699-1.121l-11.879-11.879c-1.49-1.494-1.49-3.912,0-5.402
				l11.879-11.879c1.494-1.488,3.908-1.488,5.398,0c1.496,1.496,1.496,3.91,0,5.4l-9.176,9.182l9.18,9.186
				c1.492,1.49,1.492,3.902-0.004,5.4C816.062,1105.494,815.084,1105.867,814.107,1105.867z"/>
			<path fill="#1A1A1A" d="M843.467,1105.867c-0.977,0-1.951-0.371-2.697-1.121c-1.496-1.492-1.496-3.906,0-5.4l9.18-9.186
				l-9.18-9.18c-1.496-1.486-1.496-3.902,0-5.4c1.49-1.488,3.904-1.488,5.398,0l11.879,11.883c1.49,1.49,1.49,3.906,0,5.396
				l-11.879,11.881C845.424,1105.494,844.445,1105.867,843.467,1105.867z"/>
			<path fill="#1A1A1A" d="M824.041,1115.365c-0.248,0-0.49-0.023-0.738-0.07c-2.072-0.404-3.424-2.416-3.014-4.48l8.398-42.764
				c0.408-2.072,2.412-3.42,4.482-3.012c2.068,0.406,3.418,2.414,3.01,4.479l-8.4,42.766
				C827.426,1114.104,825.828,1115.365,824.041,1115.365z"/>
		</g>
	</g>
</g>
</svg>
