<?xml version="1.0" encoding="utf-8"?>
<!-- Generator: Adobe Illustrator 15.0.0, SVG Export Plug-In . SVG Version: 6.00 Build 0)  -->
<!DOCTYPE svg PUBLIC "-//W3C//DTD SVG 1.1//EN" "http://www.w3.org/Graphics/SVG/1.1/DTD/svg11.dtd">
<svg version="1.1" id="Layer_1" xmlns="http://www.w3.org/2000/svg" xmlns:xlink="http://www.w3.org/1999/xlink" x="0px" y="0px"
	 width="768px" height="1024px" viewBox="0 0 768 1024" enable-background="new 0 0 768 1024" xml:space="preserve">
<g id="Layer_1_1_">
	<rect x="-8.581" fill="#9FD5F7" width="780.966" height="988.457"/>
	<g id="Layer_4">
		<polygon fill="#92CCE8" points="764.898,746.172 764.898,649.096 741.277,649.096 741.277,566.418 682.205,566.418 
			682.205,746.172 655.795,746.172 655.795,649.096 609.231,649.096 609.231,607.756 579.7,607.756 579.7,619.566 567.19,619.566 
			567.19,624.734 552.422,624.734 552.422,633.592 544.083,633.592 544.083,746.172 534.696,746.172 534.696,607.756 
			491.094,607.756 491.094,746.172 484.668,746.172 484.668,671.979 428.548,671.979 428.548,746.172 425.595,746.172 
			425.595,551.654 369.477,551.654 369.477,746.172 354.013,746.172 354.013,601.479 297.896,567.523 297.896,662.383 
			282.43,662.383 282.43,641.713 245.776,641.713 245.776,746.172 171.5,746.172 171.5,584.502 113.039,584.502 113.039,746.172 
			49.88,746.172 49.88,526.551 -8.581,526.551 -8.581,644.662 -15.573,644.662 -15.573,861.312 779.883,861.312 779.883,746.172 		
			"/>
		<path fill="#80BAD8" d="M735.003,786.879V642.471h-36.405v144.408h-7.689V612.867c0-9.74-7.562-17.684-17.094-18.264
			l-1.108-46.238l-1.105,46.238c-9.538,0.58-17.095,8.523-17.095,18.264v174.012h-47.384v-130.01h-36.406v130.016h-29.737V684.695
			h-41.556v102.189h-23.467V609.107h-15.731l-1.33-55.607l-1.331,55.607h-20.926v35.75h-25.91l-12.841-22.377l-12.839,22.377h-2.593
			v-21.082H345.83v163.107h-7.098v-73.229h-16.817v-22.189H293.89v-15.42h-29.897v25.576H250.54V574.51h-9.673
			c-3.019-7.715-10.2-13.307-18.771-13.977l-1.436-59.943l-1.436,59.914c-8.82,0.461-16.253,6.121-19.336,14.006h-7.644v212.375
			h-7.1V656.119h-34.756v130.76h-11.208v-130.76h-24.542l-24.083-41.977l-24.082,41.977H42.766v130.76h-5.603v-66.906H-0.955v66.906
			h-8.222v-52.92h-6.396v127.357h795.456v-74.438H735.003z"/>
		<polygon fill="#679FB7" points="773.901,728.482 773.901,817.461 738.495,817.461 738.495,762.871 704.235,762.871 
			704.235,785.652 693.307,785.652 693.307,840.354 650.637,840.354 650.637,754.703 591.63,754.703 591.63,734.502 
			526.336,734.502 526.336,760.291 473.448,760.291 473.448,840.354 416.79,840.354 416.79,751.268 377.719,751.268 
			377.719,840.354 356.906,840.354 356.906,715.154 340.298,715.154 340.298,679.48 301.228,679.48 301.228,840.354 
			285.491,840.354 285.491,722.893 224.297,722.893 224.297,840.354 211.186,840.354 211.186,739.229 149.991,739.229 
			149.991,840.354 114.588,840.354 114.588,733.639 47.274,733.639 47.274,752.98 -15.573,752.98 -15.573,861.312 779.883,861.312 
			779.883,728.482 		"/>
	</g>
	<rect x="-8.581" y="859.4" fill="#404749" width="780.966" height="161.604"/>
	<path opacity="0.34" fill="#FFFCEE" enable-background="new    " d="M170.587,688.789c3.386,0.004,6.795,0.193,10.212,0.58
		l4.621-15.199l32.061,9.748l-4.622,15.197c11.626,6.021,21.58,14.332,29.445,24.189l14.01-7.479l15.779,29.562l-14.01,7.479
		c3.814,12.02,5.175,24.908,3.707,37.922l15.197,4.617l-9.747,32.064l-15.197-4.617c-6.024,11.625-14.326,21.58-24.187,29.443
		l7.477,14.016l-29.562,15.773l-7.478-14.008c-8.863,2.812-18.201,4.293-27.708,4.285v-24.008
		c29.063,0.012,55.947-18.82,64.838-48.068c10.887-35.812-9.322-73.668-45.128-84.551c-6.562-1.994-13.19-2.941-19.71-2.943v-24.004
		H170.587z M113.312,708.854l-7.478-14.008l29.558-15.781l7.486,14.012c8.862-2.812,18.198-4.295,27.709-4.287v24.004
		c-29.065-0.012-55.946,18.82-64.84,48.072c-10.884,35.809,9.318,73.662,45.126,84.545l0,0c6.562,1.996,13.192,2.943,19.713,2.945
		v24.008c-3.389,0-6.798-0.191-10.218-0.58l-4.619,15.203l-32.061-9.748l4.621-15.201c-11.632-6.016-21.577-14.322-29.441-24.186
		l-14.02,7.479l-15.773-29.564l14.011-7.482c-3.818-12.02-5.179-24.908-3.708-37.92l-15.197-4.623l9.748-32.062l15.198,4.617
		C95.146,726.67,103.45,716.721,113.312,708.854z"/>
	<path opacity="0.34" fill="#FFFCEE" enable-background="new    " d="M403.768,721.312c2.131,0.002,4.274,0.121,6.426,0.365
		l2.909-9.564l20.176,6.133l-2.905,9.566c7.315,3.787,13.579,9.016,18.527,15.221l8.817-4.707l9.929,18.605l-8.816,4.707
		c2.401,7.566,3.259,15.674,2.336,23.865l9.562,2.904l-6.132,20.18l-9.564-2.908c-3.792,7.32-9.017,13.582-15.223,18.531l4.705,8.82
		l-18.605,9.93l-4.704-8.816c-5.579,1.768-11.455,2.697-17.438,2.695v-15.105c18.29,0.006,35.207-11.848,40.802-30.254
		c6.854-22.539-5.864-46.361-28.397-53.211c-4.129-1.256-8.301-1.85-12.404-1.85V721.312L403.768,721.312z M367.724,733.941
		l-4.706-8.816l18.601-9.932l4.713,8.816c5.574-1.771,11.451-2.699,17.436-2.695v15.105c-18.291-0.008-35.208,11.846-40.805,30.254
		c-6.851,22.537,5.864,46.359,28.396,53.209l0,0c4.131,1.254,8.302,1.848,12.407,1.85v15.109c-2.135-0.002-4.278-0.123-6.43-0.367
		l-2.907,9.566l-20.177-6.133l2.909-9.566c-7.323-3.789-13.58-9.014-18.527-15.223l-8.823,4.709l-9.927-18.607l8.818-4.709
		c-2.404-7.562-3.258-15.676-2.333-23.863l-9.565-2.908l6.134-20.18l9.563,2.906C356.292,745.15,361.517,738.889,367.724,733.941z"
		/>
	<g id="Layer_3">
		<path opacity="0.4" fill="#221F1F" enable-background="new    " d="M130.535,900.846c0-3.115,74.204-5.635,156.028-5.635
			c81.82,0,140.282,2.52,140.282,5.635c0,3.109-58.462,5.637-140.282,5.637C204.738,906.482,130.535,903.955,130.535,900.846z"/>
		<path fill="#221F1F" d="M391.903,891.266V754.014c0-6.539-5.299-11.842-11.84-11.842H182.424c-6.54,0-11.84,5.303-11.84,11.842
			v137.25L391.903,891.266L391.903,891.266z"/>
		<path fill="#BBBDBF" d="M409.556,899.342H152.931c-5.321,0-6.142-7.045-6.142-7.045h268.908
			C415.697,892.297,414.878,899.342,409.556,899.342z"/>
		<rect x="146.79" y="889.545" fill="#E6E6E7" width="268.908" height="3.953"/>
		<rect x="179.238" y="753.359" fill="#EFCC86" width="204.011" height="128.924"/>
	</g>
</g>
<g id="Layer_2">
	<g>
		<rect x="198.099" y="653.928" fill="#18232D" width="163.566" height="228.453"/>
		<g>
			<rect x="210.043" y="667.1" fill="#458424" width="78.516" height="2.982"/>
			<rect x="210.043" y="674.473" fill="#E2CF7F" width="25.16" height="2.988"/>
			<rect x="210.043" y="681.83" fill="#CCCCCC" width="40.574" height="2.982"/>
			<rect x="228.923" y="689.203" fill="#E2CF7F" width="23.677" height="2.982"/>
			<rect x="228.923" y="696.559" fill="#E2CF7F" width="23.677" height="2.984"/>
			<rect x="245.354" y="703.934" fill="#E2CF7F" width="23.029" height="2.98"/>
			<rect x="243.669" y="674.473" fill="#CCCCCC" width="42.908" height="2.988"/>
			<rect x="292.691" y="674.473" fill="#CCCCCC" width="20.489" height="2.988"/>
			<rect x="320.962" y="674.473" fill="#CCCCCC" width="27.661" height="2.988"/>
			<rect x="257.397" y="681.83" fill="#E2CF7F" width="24.141" height="2.982"/>
			<rect x="259.824" y="689.203" fill="#CCCCCC" width="13.82" height="2.982"/>
			<rect x="259.824" y="696.559" fill="#CCCCCC" width="23.677" height="2.984"/>
			<rect x="280.222" y="689.203" fill="#CCCCCC" width="26.308" height="2.982"/>
			<rect x="311.792" y="689.203" fill="#CCCCCC" width="13.803" height="2.982"/>
			<rect x="331.523" y="689.203" fill="#CCCCCC" width="17.1" height="2.982"/>
			<rect x="288.763" y="696.559" fill="#CCCCCC" width="29.904" height="2.984"/>
			<rect x="323.131" y="696.559" fill="#CCCCCC" width="8.931" height="2.984"/>
			<rect x="274.959" y="703.934" fill="#CCCCCC" width="17.12" height="2.98"/>
			<rect x="228.923" y="718.662" fill="#E2CF7F" width="23.677" height="2.98"/>
			<rect x="228.923" y="726.035" fill="#E2CF7F" width="23.677" height="2.984"/>
			<rect x="259.824" y="718.662" fill="#CCCCCC" width="13.82" height="2.98"/>
			<rect x="259.824" y="726.035" fill="#CCCCCC" width="21.326" height="2.984"/>
			<rect x="280.222" y="718.662" fill="#CCCCCC" width="20.231" height="2.98"/>
			<rect x="304.492" y="718.662" fill="#CCCCCC" width="10.635" height="2.98"/>
			<rect x="319.684" y="718.662" fill="#CCCCCC" width="13.154" height="2.98"/>
			<rect x="301.898" y="726.035" fill="#CCCCCC" width="23.696" height="2.984"/>
			<rect x="228.923" y="733.389" fill="#E2CF7F" width="23.677" height="2.988"/>
			<rect x="228.923" y="740.764" fill="#E2CF7F" width="23.677" height="2.982"/>
			<rect x="259.824" y="733.389" fill="#CCCCCC" width="13.82" height="2.988"/>
			<rect x="259.824" y="740.764" fill="#CCCCCC" width="43.411" height="2.982"/>
			<rect x="280.222" y="733.389" fill="#CCCCCC" width="26.308" height="2.988"/>
			<rect x="311.792" y="733.389" fill="#CCCCCC" width="13.803" height="2.988"/>
			<rect x="331.523" y="733.389" fill="#CCCCCC" width="17.1" height="2.988"/>
			<rect x="308.495" y="740.764" fill="#CCCCCC" width="24.343" height="2.982"/>
			<rect x="285.891" y="726.035" fill="#CCCCCC" width="10.079" height="2.984"/>
			<rect x="210.043" y="755.492" fill="#E2CF7F" width="25.16" height="2.982"/>
			<rect x="210.043" y="762.846" fill="#CCCCCC" width="40.574" height="2.984"/>
			<rect x="228.923" y="770.221" fill="#E2CF7F" width="23.677" height="2.984"/>
			<rect x="228.923" y="777.576" fill="#E2CF7F" width="23.677" height="3"/>
			<rect x="245.354" y="784.951" fill="#E2CF7F" width="23.029" height="2.98"/>
			<rect x="243.669" y="755.492" fill="#CCCCCC" width="23.808" height="2.982"/>
			<rect x="273.572" y="755.492" fill="#CCCCCC" width="12.025" height="2.982"/>
			<rect x="293.376" y="755.492" fill="#CCCCCC" width="38.239" height="2.982"/>
			<rect x="257.397" y="762.846" fill="#E2CF7F" width="24.141" height="2.984"/>
			<rect x="259.824" y="770.221" fill="#CCCCCC" width="26.975" height="2.984"/>
			<rect x="259.824" y="777.576" fill="#CCCCCC" width="18.418" height="3"/>
			<rect x="293.376" y="770.221" fill="#CCCCCC" width="20.047" height="2.984"/>
			<rect x="283.501" y="777.576" fill="#CCCCCC" width="35.165" height="3"/>
			<rect x="323.131" y="777.576" fill="#CCCCCC" width="8.931" height="3"/>
			<rect x="274.959" y="784.951" fill="#CCCCCC" width="17.12" height="2.98"/>
			<rect x="295.878" y="784.951" fill="#CCCCCC" width="31.865" height="2.98"/>
			<rect x="332.486" y="784.951" fill="#CCCCCC" width="9.523" height="2.98"/>
			<rect x="228.923" y="799.68" fill="#E2CF7F" width="23.677" height="2.982"/>
			<rect x="228.923" y="807.053" fill="#E2CF7F" width="23.677" height="2.982"/>
			<rect x="259.824" y="799.68" fill="#CCCCCC" width="38.98" height="2.982"/>
			<rect x="259.824" y="807.053" fill="#CCCCCC" width="21.326" height="2.982"/>
			<rect x="304.492" y="799.68" fill="#CCCCCC" width="10.635" height="2.982"/>
			<rect x="319.684" y="799.68" fill="#CCCCCC" width="13.154" height="2.982"/>
			<rect x="301.898" y="807.053" fill="#CCCCCC" width="23.696" height="2.982"/>
			<rect x="285.891" y="807.053" fill="#CCCCCC" width="10.079" height="2.982"/>
			<rect x="210.043" y="819.129" fill="#E2CF7F" width="25.16" height="2.984"/>
			<rect x="210.043" y="826.486" fill="#CCCCCC" width="40.574" height="2.984"/>
			<rect x="228.923" y="833.861" fill="#E2CF7F" width="23.677" height="2.98"/>
			<rect x="228.923" y="841.215" fill="#E2CF7F" width="23.677" height="2.984"/>
			<rect x="245.354" y="848.59" fill="#E2CF7F" width="23.029" height="2.984"/>
			<rect x="243.669" y="819.129" fill="#CCCCCC" width="23.808" height="2.984"/>
			<rect x="273.572" y="819.129" fill="#CCCCCC" width="12.025" height="2.984"/>
			<rect x="293.376" y="819.129" fill="#CCCCCC" width="55.247" height="2.984"/>
			<rect x="257.397" y="826.486" fill="#E2CF7F" width="24.141" height="2.984"/>
			<rect x="259.824" y="833.861" fill="#CCCCCC" width="26.975" height="2.98"/>
			<rect x="259.824" y="841.215" fill="#CCCCCC" width="18.418" height="2.984"/>
			<rect x="293.376" y="833.861" fill="#CCCCCC" width="20.047" height="2.98"/>
			<rect x="318.684" y="833.861" fill="#CCCCCC" width="12.19" height="2.98"/>
			<rect x="336.804" y="833.861" fill="#CCCCCC" width="11.818" height="2.98"/>
			<rect x="283.501" y="841.215" fill="#CCCCCC" width="35.165" height="2.984"/>
			<rect x="323.131" y="841.215" fill="#CCCCCC" width="8.931" height="2.984"/>
			<rect x="274.959" y="848.59" fill="#CCCCCC" width="17.12" height="2.984"/>
			<rect x="228.923" y="863.316" fill="#E2CF7F" width="23.677" height="2.984"/>
			<rect x="228.923" y="870.689" fill="#E2CF7F" width="23.677" height="2.984"/>
			<rect x="259.824" y="863.316" fill="#CCCCCC" width="38.98" height="2.984"/>
			<rect x="259.824" y="870.689" fill="#CCCCCC" width="21.326" height="2.984"/>
			<rect x="304.492" y="863.316" fill="#CCCCCC" width="10.635" height="2.984"/>
			<rect x="319.684" y="863.316" fill="#CCCCCC" width="13.154" height="2.984"/>
			<rect x="301.898" y="870.689" fill="#CCCCCC" width="23.696" height="2.984"/>
			<rect x="285.891" y="870.689" fill="#CCCCCC" width="10.079" height="2.984"/>
		</g>
	</g>
	<g>
		<rect x="348.001" y="791.629" fill="#DB9A26" width="87.802" height="22.061"/>
		<text transform="matrix(1 0 0 1 356.3359 808.0391)" fill="#FFFFFF" font-family="'PTSans-Bold'" font-size="13.8549">J</text>
		<text transform="matrix(1 0 0 1 360.9624 808.0391)" fill="#FFFFFF" font-family="'PTSans-Bold'" font-size="13.8549">A</text>
		<text transform="matrix(1 0 0 1 369.3442 808.0391)" fill="#FFFFFF" font-family="'PTSans-Bold'" font-size="13.8549">V</text>
		<text transform="matrix(1 0 0 1 377.6851 808.0391)" fill="#FFFFFF" font-family="'PTSans-Bold'" font-size="13.8549">A</text>
		<text transform="matrix(1 0 0 1 386.0674 808.0391)" fill="#FFFFFF" font-family="'PTSans-Bold'" font-size="13.8549">S</text>
		<text transform="matrix(1 0 0 1 393.4092 808.0391)" fill="#FFFFFF" font-family="'PTSans-Bold'" font-size="13.8549">C</text>
		<text transform="matrix(1 0 0 1 401.1553 808.0391)" fill="#FFFFFF" font-family="'PTSans-Bold'" font-size="13.8549">R</text>
		<text transform="matrix(1 0 0 1 409.4961 808.0391)" fill="#FFFFFF" font-family="'PTSans-Bold'" font-size="13.8549">I</text>
		<text transform="matrix(1 0 0 1 413.4453 808.0391)" fill="#FFFFFF" font-family="'PTSans-Bold'" font-size="13.8549">P</text>
		<text transform="matrix(1 0 0 1 421.3691 808.0391)" fill="#FFFFFF" font-family="'PTSans-Bold'" font-size="13.8549">T</text>
	</g>
	<text transform="matrix(1 0 0 1 420.5869 839.9746)" fill="#FFFFFF" font-family="'PTSans-Bold'" font-size="13.3108">&lt;</text>
	<text transform="matrix(1 0 0 1 427.6016 839.9746)" fill="#FFFFFF" font-family="'PTSans-Bold'" font-size="13.3108">s</text>
	<text transform="matrix(1 0 0 1 433.2178 839.9746)" fill="#FFFFFF" font-family="'PTSans-Bold'" font-size="13.3108">c</text>
	<text transform="matrix(1 0 0 1 438.9824 839.9746)" fill="#FFFFFF" font-family="'PTSans-Bold'" font-size="13.3108">r</text>
	<text transform="matrix(1 0 0 1 443.6553 839.9746)" fill="#FFFFFF" font-family="'PTSans-Bold'" font-size="13.3108">i</text>
	<text transform="matrix(1 0 0 1 447.2344 839.9746)" fill="#FFFFFF" font-family="'PTSans-Bold'" font-size="13.3108">p</text>
	<text transform="matrix(1 0 0 1 454.4238 839.9746)" fill="#FFFFFF" font-family="'PTSans-Bold'" font-size="13.3108">t</text>
	<text transform="matrix(1 0 0 1 459.0674 839.9746)" fill="#FFFFFF" font-family="'PTSans-Bold'" font-size="13.3108">&gt;</text>
	<g>
		<text transform="matrix(1 0 0 1 129.9292 787.5166)" fill="#FFFFFF" font-family="'PTSans-Bold'" font-size="16.393">&lt;</text>
		<text transform="matrix(1 0 0 1 138.5684 787.5166)" fill="#FFFFFF" font-family="'PTSans-Bold'" font-size="16.393">h</text>
		<text transform="matrix(1 0 0 1 147.502 787.5166)" fill="#FFFFFF" font-family="'PTSans-Bold'" font-size="16.393">e</text>
		<text transform="matrix(1 0 0 1 155.8315 787.5166)" fill="#FFFFFF" font-family="'PTSans-Bold'" font-size="16.393">a</text>
		<text transform="matrix(1 0 0 1 163.9609 787.5166)" fill="#FFFFFF" font-family="'PTSans-Bold'" font-size="16.393">d</text>
		<text transform="matrix(1 0 0 1 172.7964 787.5166)" fill="#FFFFFF" font-family="'PTSans-Bold'" font-size="16.393">&gt;</text>
	</g>
	<g>
		<rect x="169.144" y="658.326" fill="#EFA73F" width="57.911" height="20.531"/>
		<text transform="matrix(1 0 0 1 178.9385 673.5967)" fill="#FFFFFF" font-family="'PTSans-Bold'" font-size="12.8918">H</text>
		<text transform="matrix(1 0 0 1 187.3311 673.5967)" fill="#FFFFFF" font-family="'PTSans-Bold'" font-size="12.8918">T</text>
		<text transform="matrix(1 0 0 1 194.6548 673.5967)" fill="#FFFFFF" font-family="'PTSans-Bold'" font-size="12.8918">M</text>
		<text transform="matrix(1 0 0 1 204.9678 673.5967)" fill="#FFFFFF" font-family="'PTSans-Bold'" font-size="12.8918">L</text>
		<text transform="matrix(1 0 0 1 211.5938 673.5967)" fill="#FFFFFF" font-family="'PTSans-Bold'" font-size="12.8918">5</text>
	</g>
	<text transform="matrix(1 0 0 1 349.3691 713.2861)" fill="#FFFFFF" font-family="'PTSans-Bold'" font-size="14.4761">&lt;</text>
	<text transform="matrix(1 0 0 1 356.9985 713.2861)" fill="#FFFFFF" font-family="'PTSans-Bold'" font-size="14.4761">l</text>
	<text transform="matrix(1 0 0 1 361.2549 713.2861)" fill="#FFFFFF" font-family="'PTSans-Bold'" font-size="14.4761">a</text>
	<text transform="matrix(1 0 0 1 368.4331 713.2861)" fill="#FFFFFF" font-family="'PTSans-Bold'" font-size="14.4761">b</text>
	<text transform="matrix(1 0 0 1 376.1929 713.2861)" fill="#FFFFFF" font-family="'PTSans-Bold'" font-size="14.4761">e</text>
	<text transform="matrix(1 0 0 1 383.5469 713.2861)" fill="#FFFFFF" font-family="'PTSans-Bold'" font-size="14.4761">l</text>
	<text transform="matrix(1 0 0 1 387.8008 713.2861)" fill="#FFFFFF" font-family="'PTSans-Bold'" font-size="14.4761">&gt;</text>
	<text transform="matrix(1 0 0 1 97.2695 699.543)" fill="#FFFFFF" font-family="'PTSans-Bold'" font-size="12.9616">&lt;</text>
	<text transform="matrix(1 0 0 1 104.0996 699.543)" fill="#FFFFFF" font-family="'PTSans-Bold'" font-size="12.9616">f</text>
	<text transform="matrix(1 0 0 1 108.2607 699.543)" fill="#FFFFFF" font-family="'PTSans-Bold'" font-size="12.9616">o</text>
	<text transform="matrix(1 0 0 1 115.2207 699.543)" fill="#FFFFFF" font-family="'PTSans-Bold'" font-size="12.9616">r</text>
	<text transform="matrix(1 0 0 1 119.7695 699.543)" fill="#FFFFFF" font-family="'PTSans-Bold'" font-size="12.9616">m</text>
	<text transform="matrix(1 0 0 1 130.2041 699.543)" fill="#FFFFFF" font-family="'PTSans-Bold'" font-size="12.9616">&gt;</text>
	<g>
		<rect x="348.001" y="645.834" fill="#79AF45" width="49.144" height="24.248"/>
		<text transform="matrix(1 0 0 1 356.9019 663.8721)" fill="#FFFFFF" font-family="'PTSans-Bold'" font-size="15.2275">C</text>
		<text transform="matrix(1 0 0 1 365.4131 663.8721)" fill="#FFFFFF" font-family="'PTSans-Bold'" font-size="15.2275">S</text>
		<text transform="matrix(1 0 0 1 373.4839 663.8721)" fill="#FFFFFF" font-family="'PTSans-Bold'" font-size="15.2275">S</text>
		<text transform="matrix(1 0 0 1 381.5547 663.8721)" fill="#FFFFFF" font-family="'PTSans-Bold'" font-size="15.2275">3</text>
	</g>
	<text transform="matrix(1 0 0 1 275.8042 627.3135)" fill="#FFFFFF" font-family="'PTSans-Bold'" font-size="15.7329">&lt;</text>
	<text transform="matrix(1 0 0 1 284.0942 627.3135)" fill="#FFFFFF" font-family="'PTSans-Bold'" font-size="15.7329">s</text>
	<text transform="matrix(1 0 0 1 290.7354 627.3135)" fill="#FFFFFF" font-family="'PTSans-Bold'" font-size="15.7329">t</text>
	<text transform="matrix(1 0 0 1 296.2261 627.3135)" fill="#FFFFFF" font-family="'PTSans-Bold'" font-size="15.7329">y</text>
	<text transform="matrix(1 0 0 1 303.7456 627.3135)" fill="#FFFFFF" font-family="'PTSans-Bold'" font-size="15.7329">l</text>
	<text transform="matrix(1 0 0 1 308.3696 627.3135)" fill="#FFFFFF" font-family="'PTSans-Bold'" font-size="15.7329">e</text>
	<text transform="matrix(1 0 0 1 316.3643 627.3135)" fill="#FFFFFF" font-family="'PTSans-Bold'" font-size="15.7329">&gt;</text>
	<text transform="matrix(1 0 0 1 431.999 643.2754)" fill="#FFFFFF" font-family="'PTSans-Bold'" font-size="13.249">&lt;</text>
	<text transform="matrix(1 0 0 1 438.9805 643.2754)" fill="#FFFFFF" font-family="'PTSans-Bold'" font-size="13.249">d</text>
	<text transform="matrix(1 0 0 1 446.1211 643.2754)" fill="#FFFFFF" font-family="'PTSans-Bold'" font-size="13.249">i</text>
	<text transform="matrix(1 0 0 1 449.6855 643.2754)" fill="#FFFFFF" font-family="'PTSans-Bold'" font-size="13.249">v</text>
	<text transform="matrix(1 0 0 1 456.0059 643.2754)" fill="#FFFFFF" font-family="'PTSans-Bold'" font-size="13.249">&gt;</text>
	<g>
		<path fill="#80BAD8" d="M200.97,387.231c9.59,1.964,16.763,9.263,16.763,17.904l0,0c0,8.882-7.434,18.056-17.572,18.056h-44.563
			c-10.85,0-19.213-8.694-19.213-18.056l0,0c0-8.641,7.174-15.94,16.762-17.904c-0.006-0.174-0.008-0.345-0.008-0.52
			c0-11.1,10.708-20.099,23.919-20.099c13.209,0,23.919,8.999,23.919,20.099C200.979,386.886,200.975,387.057,200.97,387.231z"/>
		<path fill="#FFFFFF" d="M170.968,384.913c9.024,1.847,15.774,8.717,15.774,16.849l0,0c0,8.359-6.998,16.991-16.536,16.991h-41.934
			c-10.211,0-18.082-8.182-18.082-16.991l0,0c0-8.132,6.751-15.001,15.773-16.849c-0.004-0.163-0.005-0.326-0.005-0.491
			c0-10.443,10.076-18.914,22.507-18.914c12.432,0,22.51,8.471,22.51,18.914C170.975,384.587,170.972,384.75,170.968,384.913z"/>
	</g>
	<g>
		<polygon fill="#FFFFFF" points="464.418,769.885 471.353,769.93 471.222,814.885 464.289,814.84 		"/>
		<polygon fill="#7F7F7F" points="465.767,771.91 465.646,812.83 469.875,812.859 469.993,771.939 		"/>
		<path fill="#FFFFFF" d="M472.305,758.607c2.399,1.486,4,4.15,3.986,7.182c-0.022,4.635-3.796,8.381-8.433,8.357
			c-4.635-0.02-8.377-3.795-8.356-8.43c0.014-3.031,1.632-5.684,4.05-7.148l-0.021,4.748l-0.013,2.525l2.184,1.275l2.185,1.275
			l2.194-1.258l2.19-1.254l0.011-2.525L472.305,758.607z"/>
		<path fill="#FFFFFF" d="M472.088,824.689c2.42-1.469,4.036-4.113,4.054-7.148c0.019-4.637-3.724-8.41-8.359-8.43
			c-4.636-0.021-8.41,3.721-8.431,8.357c-0.015,3.033,1.585,5.697,3.988,7.184l0.021-4.75l0.011-2.527l2.193-1.252l2.19-1.254
			l2.186,1.273l2.183,1.273l-0.01,2.527L472.088,824.689z"/>
		<path fill="#7F7F7F" d="M473.455,821.625c0.846-1.172,1.327-2.592,1.333-4.088c0.016-3.891-3.123-7.057-7.011-7.072
			c-3.89-0.02-7.056,3.119-7.075,7.012c-0.005,1.496,0.46,2.922,1.297,4.1l0.021-4.984l5.743-3.283l5.717,3.33L473.455,821.625z"/>
		<path fill="#7F7F7F" d="M462.185,761.566c-0.844,1.17-1.322,2.594-1.331,4.09c-0.016,3.891,3.121,7.057,7.014,7.072
			c3.89,0.016,7.056-3.121,7.072-7.012c0.005-1.494-0.46-2.922-1.297-4.102l-0.021,4.984l-5.742,3.285l-5.717-3.328L462.185,761.566
			z"/>
	</g>
	<path fill="#1A252B" d="M465.354,748.488l2.214,1.857l-4.604,5.479l-2.213-1.857c-1.562,1.207-3.301,2.113-5.187,2.703l0.25,2.877
		l-5.229,0.457v-8.066c3.248,0.004,6.394-1.42,8.555-3.994c3.958-4.715,3.344-11.773-1.374-15.736l0,0
		c-1.165-0.979-2.487-1.695-3.927-2.133c-1.074-0.326-2.171-0.486-3.254-0.486v-8.064l1.893-0.164l0.25,2.875
		c1.944,0.254,3.841,0.85,5.579,1.764l1.858-2.217l5.477,4.6l-1.854,2.215c1.207,1.562,2.114,3.301,2.698,5.188l2.88-0.252
		l0.624,7.125l-2.883,0.25C466.862,744.869,466.271,746.74,465.354,748.488z M450.587,760.004l-1.894,0.164l-0.251-2.877
		c-1.946-0.254-3.841-0.85-5.577-1.76l-1.858,2.213l-5.479-4.6l1.859-2.213c-1.209-1.562-2.114-3.303-2.701-5.188l-2.878,0.252
		l-0.622-7.127l2.876-0.252c0.253-1.959,0.844-3.828,1.762-5.576l-2.214-1.857l4.597-5.48l2.214,1.857
		c1.562-1.207,3.303-2.113,5.188-2.699l-0.251-2.881l5.232-0.455v8.066c-3.25-0.002-6.396,1.418-8.557,3.99
		c-3.96,4.721-3.344,11.781,1.376,15.742c1.163,0.977,2.483,1.691,3.925,2.133c1.074,0.326,2.171,0.484,3.256,0.484v8.062H450.587z"
		/>
	<text transform="matrix(1 0 0 1 630.5049 758.5723)" fill="#FFFFFF" font-family="'PTSans-Bold'" font-size="14.5751">&lt;</text>
	<text transform="matrix(1 0 0 1 638.1875 758.5723)" fill="#FFFFFF" font-family="'PTSans-Bold'" font-size="14.5751">b</text>
	<text transform="matrix(1 0 0 1 646 758.5723)" fill="#FFFFFF" font-family="'PTSans-Bold'" font-size="14.5751">o</text>
	<text transform="matrix(1 0 0 1 653.8242 758.5723)" fill="#FFFFFF" font-family="'PTSans-Bold'" font-size="14.5751">d</text>
	<text transform="matrix(1 0 0 1 661.6816 758.5723)" fill="#FFFFFF" font-family="'PTSans-Bold'" font-size="14.5751">y</text>
	<text transform="matrix(1 0 0 1 668.6465 758.5723)" fill="#FFFFFF" font-family="'PTSans-Bold'" font-size="14.5751">&gt;</text>
	<g>
		<path fill="#80BAD8" d="M605.98,537.619c9.593,1.965,16.763,9.266,16.763,17.906l0,0c0,8.881-7.433,18.057-17.569,18.057H560.61
			c-10.852,0-19.214-8.693-19.214-18.057l0,0c0-8.641,7.174-15.941,16.763-17.906c-0.009-0.174-0.011-0.344-0.011-0.52
			c0-11.102,10.709-20.1,23.918-20.1c13.211,0,23.921,8.998,23.921,20.1C605.989,537.275,605.984,537.445,605.98,537.619z"/>
		<path fill="#FFFFFF" d="M575.978,535.301c9.024,1.85,15.774,8.719,15.774,16.848l0,0c0,8.363-6.997,16.994-16.535,16.994h-41.935
			c-10.211,0-18.08-8.182-18.08-16.994l0,0c0-8.129,6.749-14.998,15.772-16.848c-0.005-0.162-0.008-0.326-0.008-0.49
			c0-10.443,10.077-18.914,22.509-18.914c12.428,0,22.508,8.471,22.508,18.914C575.984,534.975,575.98,535.139,575.978,535.301z"/>
	</g>
</g>
<g id="Layer_5">
	<polygon fill="#FFFFFF" points="501.949,661.188 596.442,661.188 612.3,677.047 612.3,661.188 612.3,817.254 501.951,817.254 	"/>
	
		<line fill="none" stroke="#CCCCCC" stroke-width="0.9601" stroke-miterlimit="22.9256" x1="568.972" y1="771.879" x2="568.972" y2="781.633"/>
	
		<line fill="none" stroke="#CCCCCC" stroke-width="0.9601" stroke-miterlimit="22.9256" x1="592.671" y1="771.879" x2="592.671" y2="791.387"/>
	<rect x="530.338" y="677.906" fill="#CCCCCC" width="53.571" height="3.809"/>
	<rect x="512.077" y="687.43" fill="#CCCCCC" width="90.095" height="3.812"/>
	<rect x="512.077" y="694.1" fill="#CCCCCC" width="90.095" height="3.809"/>
	<rect x="512.077" y="700.77" fill="#CCCCCC" width="90.095" height="3.809"/>
	<rect x="512.077" y="707.436" fill="#CCCCCC" width="42.223" height="3.811"/>
	<polygon fill="#CCCCCC" points="596.442,677.047 612.3,677.047 596.442,661.188 	"/>
	<rect x="512.077" y="768.979" fill="#EF4136" width="19.004" height="5.799"/>
	<rect x="535.838" y="768.979" fill="#9ACAE6" width="19.004" height="5.799"/>
	<rect x="559.472" y="768.979" fill="#609DC1" width="19.002" height="5.799"/>
	<rect x="583.17" y="768.979" fill="#9ACAE6" width="19.002" height="5.799"/>
	<rect x="512.077" y="778.732" fill="#F2675D" width="19.004" height="5.799"/>
	<rect x="512.077" y="788.486" fill="#F48C85" width="19.004" height="5.799"/>
	<rect x="512.077" y="798.238" fill="#FCD8D6" width="19.004" height="5.799"/>
	<rect x="559.472" y="778.732" fill="#609DC1" width="19.002" height="5.799"/>
	<rect x="583.17" y="778.732" fill="#9ACAE6" width="19.002" height="5.799"/>
	<rect x="583.17" y="788.486" fill="#9ACAE6" width="19.002" height="5.799"/>
	<g>
		<path fill="#FFEEC9" d="M495.532,784.523l-4.967-11.266l-4.968,11.266v88.887c0,1.49,1.222,2.711,2.711,2.711h4.516
			c1.488,0,2.71-1.221,2.71-2.711L495.532,784.523L495.532,784.523z"/>
		<path fill="#FFCD61" d="M495.532,784.523l-4.968-11.266l2.155,11.717l-0.001,91.146h0.103c1.488,0,2.71-1.221,2.71-2.711
			L495.532,784.523z"/>
		<path fill="#C0F7FC" d="M495.532,784.523l-4.967-11.266l-4.968,11.266v84.898c3.502,0.596,6.788,0.568,9.938,0L495.532,784.523
			L495.532,784.523z"/>
		<path fill="#A2EDF4" d="M495.532,784.523l-4.968-11.266l2.155,11.717l-0.001,84.885c1.699,0.008,1.198-0.145,2.812-0.434
			L495.532,784.523z"/>
		<path fill="#134089" d="M495.532,784.523l-4.967-11.266l-4.968,11.266v81.729c3.517,0.637,6.805,0.607,9.938,0L495.532,784.523
			L495.532,784.523z"/>
		<path fill="#0D3570" d="M495.519,784.881l-4.927-11.182l2.45,11.201v81.393c1.691,0.008,0.883,0.279,2.477-0.029V784.881z"/>
		<path fill="#FFFFFF" d="M495.532,784.523l-4.967-11.266l-4.968,11.266c1.582,0.291,3.246,0.451,4.968,0.451
			S493.952,784.814,495.532,784.523z"/>
		<path fill="#CCCCCC" d="M495.532,784.523l-4.967-11.266l2.494,11.717C494.781,784.975,493.952,784.814,495.532,784.523z"/>
		<path fill="#4D4D4D" d="M492.206,776.977l-1.641-3.719l-1.641,3.719c0.522,0.098,1.073,0.15,1.641,0.15
			C491.134,777.127,491.686,777.074,492.206,776.977z"/>
	</g>
	<rect x="512.077" y="720.441" fill="#CCCCCC" width="90.095" height="3.811"/>
	<rect x="512.077" y="727.111" fill="#CCCCCC" width="90.095" height="3.809"/>
	<rect x="512.077" y="733.779" fill="#CCCCCC" width="90.095" height="3.811"/>
	<g id="Layer_6">
		<path fill="#151E26" d="M644.906,791.732v4.152h-8.088h-57.122v-4.152c0-5.291,4.288-9.576,9.58-9.576h46.052
			C640.614,782.156,644.906,786.441,644.906,791.732z"/>
		<path fill="#151E26" d="M589.62,874.25h55.286v4.717c0,5.291-4.292,9.576-9.578,9.576h-2.666h-43.386
			c-5.292,0-9.58-4.285-9.58-9.576v-4.717H589.62z"/>
		<polygon fill="#B5B5B5" points="644.906,833.35 644.906,874.25 589.62,874.25 636.82,796.234 636.82,795.883 644.906,795.883 
			644.906,821.766 		"/>
		<polygon fill="#CECECE" points="636.82,795.883 636.82,796.234 589.62,874.25 579.696,874.25 579.696,795.883 		"/>
		<circle fill="#F4F4F4" cx="612.301" cy="881.398" r="4.289"/>
		<g>
			<path fill="#1A1A1A" d="M602.304,843.863c-0.664,0-1.33-0.254-1.838-0.764l-8.09-8.09c-1.014-1.018-1.014-2.662,0-3.678
				l8.09-8.088c1.018-1.016,2.661-1.016,3.676,0c1.02,1.018,1.02,2.66,0,3.676l-6.248,6.252l6.251,6.256
				c1.017,1.014,1.017,2.658-0.003,3.678C603.635,843.609,602.969,843.863,602.304,843.863z"/>
			<path fill="#1A1A1A" d="M622.296,843.863c-0.665,0-1.328-0.252-1.837-0.764c-1.018-1.016-1.018-2.66,0-3.678l6.251-6.254
				l-6.251-6.252c-1.018-1.014-1.018-2.656,0-3.678c1.015-1.014,2.659-1.014,3.677,0l8.089,8.092c1.015,1.016,1.015,2.66,0,3.676
				l-8.089,8.09C623.629,843.609,622.963,843.863,622.296,843.863z"/>
			<path fill="#1A1A1A" d="M609.068,850.332c-0.169,0-0.334-0.018-0.503-0.049c-1.411-0.275-2.331-1.645-2.053-3.051l5.72-29.121
				c0.277-1.412,1.642-2.328,3.052-2.051c1.409,0.277,2.328,1.645,2.05,3.049l-5.72,29.123
				C611.373,849.473,610.285,850.332,609.068,850.332z"/>
		</g>
	</g>
</g>
</svg>
