<?xml version="1.0" encoding="utf-8"?>
<!-- Generator: Adobe Illustrator 15.0.0, SVG Export Plug-In . SVG Version: 6.00 Build 0)  -->
<!DOCTYPE svg PUBLIC "-//W3C//DTD SVG 1.1//EN" "http://www.w3.org/Graphics/SVG/1.1/DTD/svg11.dtd">
<svg version="1.1" id="Layer_1" xmlns="http://www.w3.org/2000/svg" xmlns:xlink="http://www.w3.org/1999/xlink" x="0px" y="0px"
	 width="1366px" height="563px" viewBox="0 0 1366 563" enable-background="new 0 0 1366 563" xml:space="preserve">
<g id="Layer_1_1_">
	<rect fill="#9FD5F7" width="1366" height="452.083"/>
	<g id="Layer_4">
		<polygon fill="#92CCE8" points="674.185,381.941 674.185,306.296 655.776,306.296 655.776,241.87 609.745,241.87 609.745,381.941 
			589.166,381.941 589.166,306.296 552.882,306.296 552.882,274.083 529.869,274.083 529.869,283.287 520.122,283.287 
			520.122,287.313 508.613,287.313 508.613,294.216 502.115,294.216 502.115,381.941 494.802,381.941 494.802,274.082 
			460.824,274.082 460.824,381.941 455.817,381.941 455.817,324.128 412.086,324.128 412.086,381.941 409.785,381.941 
			409.785,230.365 366.056,230.365 366.056,381.941 354.006,381.941 354.006,269.192 310.277,242.731 310.277,316.65 
			298.226,316.65 298.226,300.544 269.663,300.544 269.663,381.941 211.784,381.941 211.784,255.962 166.229,255.962 
			166.229,381.941 117.014,381.941 117.014,210.805 71.459,210.805 71.459,302.843 56.872,302.843 56.872,280.984 11.318,280.984 
			11.318,324.128 -3.305,324.128 -3.305,381.941 -7.371,381.941 -7.371,471.664 740.046,471.664 740.046,381.941 		"/>
		<path fill="#80BAD8" d="M716.935,308.512v105.152h-4.313v-71.129h-23.639v71.129h-38.095V301.135h-28.369v112.529h-5.991V278.066
			c0-7.59-5.894-13.78-13.321-14.231l-0.863-36.032l-0.862,36.032c-7.432,0.451-13.321,6.641-13.321,14.231v135.598h-36.923V312.354
			h-28.369v101.312h-23.172v-79.628h-32.383v79.628h-18.286v-138.53H436.77l-1.037-43.332l-1.038,43.332H418.39v27.859h-20.191
			l-10.005-17.437l-10.004,17.437h-2.021v-16.429H347.63v127.099h-5.532v-57.062h-13.104v-17.291h-21.839v-12.015h-23.297v19.929
			h-10.483v-99.049h-7.538c-2.352-6.014-7.948-10.37-14.626-10.892l-1.119-46.71l-1.119,46.688
			c-6.873,0.358-12.665,4.769-15.068,10.914h-5.956v165.489h-5.532V311.768h-27.083v101.896H186.6V311.768h-19.124l-18.766-32.709
			l-18.765,32.709H111.47v101.896h-4.366v-52.138H77.401v52.138h-6.406v-41.238H56.143v41.238H42.747V343.65h-22.42v70.014H18.87
			v-45.986H4.018v-6.151H-7.371v110.139h747.417V308.512H716.935z"/>
		<polygon fill="#679FB7" points="695.481,329.478 695.481,368.158 681.198,368.158 681.198,437.494 653.608,437.494 
			653.608,394.955 626.911,394.955 626.911,412.707 618.396,412.707 618.396,455.33 585.146,455.33 585.146,388.59 539.166,388.59 
			539.166,372.848 488.286,372.848 488.286,392.945 447.074,392.945 447.074,455.33 402.924,455.33 402.924,385.911 
			372.479,385.911 372.479,455.33 356.261,455.33 356.261,357.773 343.319,357.773 343.319,329.974 312.873,329.974 312.873,455.33 
			300.611,455.33 300.611,363.803 252.926,363.803 252.926,455.33 242.709,455.33 242.709,376.531 195.024,376.531 195.024,455.33 
			167.436,455.33 167.436,372.176 114.983,372.176 114.983,387.249 65.934,387.249 65.934,455.33 26.423,455.33 26.423,393.277 
			-7.371,393.277 -7.371,471.664 740.046,471.664 740.046,329.478 		"/>
		<polygon fill="#92CCE8" points="1373.553,210.805 1342.593,210.805 1342.593,381.941 1293.378,381.941 1293.378,255.962 
			1247.823,255.962 1247.823,381.941 1189.944,381.941 1189.944,300.544 1161.382,300.544 1161.382,316.65 1149.331,316.65 
			1149.331,242.731 1105.601,269.192 1105.601,381.941 1093.552,381.941 1093.552,230.365 1049.823,230.365 1049.823,381.941 
			1047.521,381.941 1047.521,324.128 1003.79,324.128 1003.79,381.941 998.784,381.941 998.784,274.082 964.806,274.082 
			964.806,381.941 957.493,381.941 957.493,294.216 950.995,294.216 950.995,287.313 939.485,287.313 939.485,283.287 
			929.739,283.287 929.739,274.083 906.727,274.083 906.727,306.296 870.442,306.296 870.442,381.941 849.862,381.941 
			849.862,241.87 803.831,241.87 803.831,306.296 785.423,306.296 785.423,381.941 719.562,381.941 719.562,471.664 
			1373.553,471.664 		"/>
		<path fill="#80BAD8" d="M1373.553,361.526h-21.05v52.138h-4.365V311.768h-18.475l-18.767-32.709l-18.766,32.709h-19.125v101.896
			h-8.734V311.768h-27.082v101.896h-5.532V248.175h-5.955c-2.402-6.145-8.195-10.556-15.068-10.914l-1.119-46.688l-1.118,46.71
			c-6.679,0.522-12.273,4.878-14.625,10.892h-7.539v99.049h-10.482v-19.929h-23.297v12.015h-21.84v17.291h-13.104v57.062h-5.53
			V286.565h-28.537v16.429h-2.021l-10.004-17.437l-10.006,17.437h-20.191v-27.859h-16.305l-1.037-43.332l-1.039,43.332h-12.254
			v138.529h-18.287v-79.628h-32.383v79.628h-23.172V312.354h-28.369v101.312H871.45V278.066c0-7.59-5.892-13.78-13.322-14.231
			l-0.863-36.032l-0.862,36.032c-7.428,0.451-13.32,6.641-13.32,14.231v135.598h-5.992V301.135h-28.37v112.529h-38.094v-71.129
			h-23.639v71.129h-4.314V308.512h-23.111v163.152h653.991V361.526z"/>
		<polygon fill="#679FB7" points="1373.553,387.249 1342.624,387.249 1342.624,372.176 1290.171,372.176 1290.171,455.33 
			1262.583,455.33 1262.583,376.531 1214.896,376.531 1214.896,455.33 1204.681,455.33 1204.681,363.803 1156.997,363.803 
			1156.997,455.33 1144.733,455.33 1144.733,329.974 1114.288,329.974 1114.288,357.773 1101.347,357.773 1101.347,455.33 
			1085.128,455.33 1085.128,385.911 1054.683,385.911 1054.683,455.33 1010.534,455.33 1010.534,392.945 969.321,392.945 
			969.321,372.848 918.442,372.848 918.442,388.59 872.46,388.59 872.46,455.33 839.212,455.33 839.212,412.707 830.696,412.707 
			830.696,394.955 803.999,394.955 803.999,437.494 776.409,437.494 776.409,368.158 762.126,368.158 762.126,329.478 
			717.562,329.478 717.562,471.664 1373.553,471.664 		"/>
	</g>
	<rect y="470.083" fill="#404749" width="1366" height="92.917"/>
	<path opacity="0.34" fill="#FFFCEE" enable-background="new    " d="M303.013,329.016c2.8,0.003,5.619,0.16,8.444,0.48
		l3.821-12.569l26.509,8.06l-3.821,12.568c9.613,4.976,17.843,11.847,24.346,19.998l11.584-6.182l13.047,24.443l-11.584,6.184
		c3.154,9.938,4.279,20.594,3.065,31.355l12.565,3.819l-8.059,26.51l-12.565-3.819c-4.981,9.615-11.846,17.844-19.999,24.347
		l6.182,11.587l-24.443,13.044l-6.183-11.583c-7.328,2.325-15.049,3.55-22.91,3.543v-19.849
		c24.031,0.008,46.259-15.562,53.61-39.746c9.002-29.61-7.707-60.91-37.313-69.91c-5.425-1.649-10.906-2.432-16.297-2.434V329.016z
		 M255.656,345.607l-6.183-11.584l24.439-13.048l6.191,11.585c7.327-2.326,15.046-3.552,22.91-3.546v19.848
		c-24.032-0.01-46.258,15.562-53.611,39.749c-9,29.607,7.704,60.906,37.312,69.906l0,0c5.425,1.649,10.907,2.433,16.299,2.435
		v19.849c-2.802-0.002-5.621-0.159-8.448-0.479l-3.82,12.57l-26.509-8.06l3.821-12.569c-9.618-4.975-17.84-11.844-24.343-19.997
		l-11.592,6.182l-13.042-24.443l11.585-6.187c-3.157-9.938-4.282-20.595-3.066-31.354l-12.566-3.821l8.06-26.512l12.566,3.819
		C240.636,360.336,247.502,352.11,255.656,345.607z"/>
	<path opacity="0.34" fill="#FFFCEE" enable-background="new    " d="M495.815,355.907c1.762,0.001,3.535,0.101,5.313,0.302
		l2.405-7.91l16.683,5.071l-2.404,7.91c6.05,3.131,11.229,7.455,15.321,12.586l7.29-3.892l8.21,15.384l-7.29,3.892
		c1.985,6.255,2.694,12.96,1.93,19.733l7.907,2.402l-5.07,16.685l-7.908-2.404c-3.135,6.052-7.455,11.229-12.586,15.322l3.89,7.292
		l-15.383,8.209l-3.891-7.29c-4.612,1.464-9.471,2.233-14.417,2.229v-12.49c15.123,0.005,29.111-9.795,33.737-25.014
		c5.666-18.635-4.85-38.333-23.481-43.996c-3.414-1.038-6.863-1.529-10.256-1.531V355.907L495.815,355.907z M466.013,366.349
		l-3.891-7.29l15.38-8.211l3.896,7.291c4.61-1.465,9.469-2.234,14.417-2.23v12.489c-15.124-0.006-29.111,9.795-33.739,25.016
		c-5.664,18.633,4.849,38.33,23.48,43.994l0,0c3.415,1.038,6.864,1.529,10.258,1.53v12.491c-1.764-0.001-3.538-0.1-5.316-0.302
		l-2.404,7.911l-16.683-5.072l2.405-7.91c-6.054-3.131-11.228-7.453-15.319-12.585l-7.295,3.891l-8.208-15.383l7.291-3.894
		c-1.987-6.254-2.694-12.961-1.93-19.731l-7.908-2.404l5.072-16.686l7.907,2.403C456.561,375.617,460.881,370.44,466.013,366.349z"
		/>
	<g id="Layer_3">
		<path opacity="0.4" fill="#221F1F" enable-background="new    " d="M269.897,504.352c0-2.576,61.354-4.661,129.008-4.661
			c67.653,0,115.991,2.085,115.991,4.661c0,2.571-48.338,4.66-115.991,4.66C331.251,509.012,269.897,506.923,269.897,504.352z"/>
		<path fill="#221F1F" d="M486.005,496.432V382.946c0-5.407-4.381-9.792-9.789-9.792H312.801c-5.407,0-9.79,4.385-9.79,9.792
			v113.484L486.005,496.432L486.005,496.432z"/>
		<path fill="#BBBDBF" d="M500.601,503.109H288.415c-4.4,0-5.078-5.826-5.078-5.826h222.342
			C505.679,497.283,505.002,503.109,500.601,503.109z"/>
		<rect x="283.337" y="495.008" fill="#E6E6E7" width="222.342" height="3.269"/>
		<rect x="310.166" y="382.404" fill="#EFCC86" width="168.684" height="106.599"/>
	</g>
</g>
<g id="Layer_2">
	<g>
		<rect x="325.761" y="300.191" fill="#18232D" width="135.242" height="188.892"/>
		<g>
			<rect x="335.637" y="311.083" fill="#458424" width="64.92" height="2.466"/>
			<rect x="335.637" y="317.18" fill="#E2CF7F" width="20.803" height="2.468"/>
			<rect x="335.637" y="323.262" fill="#CCCCCC" width="33.548" height="2.466"/>
			<rect x="351.247" y="329.357" fill="#E2CF7F" width="19.577" height="2.467"/>
			<rect x="351.247" y="335.439" fill="#E2CF7F" width="19.577" height="2.467"/>
			<rect x="364.834" y="341.537" fill="#E2CF7F" width="19.041" height="2.465"/>
			<rect x="363.44" y="317.18" fill="#CCCCCC" width="35.478" height="2.468"/>
			<rect x="403.973" y="317.18" fill="#CCCCCC" width="16.942" height="2.468"/>
			<rect x="427.349" y="317.18" fill="#CCCCCC" width="22.871" height="2.468"/>
			<rect x="374.791" y="323.262" fill="#E2CF7F" width="19.96" height="2.466"/>
			<rect x="376.798" y="329.357" fill="#CCCCCC" width="11.427" height="2.467"/>
			<rect x="376.798" y="335.439" fill="#CCCCCC" width="19.577" height="2.467"/>
			<rect x="393.664" y="329.357" fill="#CCCCCC" width="21.752" height="2.467"/>
			<rect x="419.767" y="329.357" fill="#CCCCCC" width="11.413" height="2.467"/>
			<rect x="436.081" y="329.357" fill="#CCCCCC" width="14.139" height="2.467"/>
			<rect x="400.726" y="335.439" fill="#CCCCCC" width="24.725" height="2.467"/>
			<rect x="429.142" y="335.439" fill="#CCCCCC" width="7.384" height="2.467"/>
			<rect x="389.312" y="341.537" fill="#CCCCCC" width="14.155" height="2.465"/>
			<rect x="351.247" y="353.715" fill="#E2CF7F" width="19.577" height="2.466"/>
			<rect x="351.247" y="359.812" fill="#E2CF7F" width="19.577" height="2.466"/>
			<rect x="376.798" y="353.715" fill="#CCCCCC" width="11.427" height="2.466"/>
			<rect x="376.798" y="359.812" fill="#CCCCCC" width="17.632" height="2.466"/>
			<rect x="393.664" y="353.715" fill="#CCCCCC" width="16.728" height="2.466"/>
			<rect x="413.73" y="353.715" fill="#CCCCCC" width="8.794" height="2.466"/>
			<rect x="426.292" y="353.715" fill="#CCCCCC" width="10.876" height="2.466"/>
			<rect x="411.586" y="359.812" fill="#CCCCCC" width="19.593" height="2.466"/>
			<rect x="351.247" y="365.893" fill="#E2CF7F" width="19.577" height="2.468"/>
			<rect x="351.247" y="371.99" fill="#E2CF7F" width="19.577" height="2.466"/>
			<rect x="376.798" y="365.893" fill="#CCCCCC" width="11.427" height="2.468"/>
			<rect x="376.798" y="371.99" fill="#CCCCCC" width="35.893" height="2.466"/>
			<rect x="393.664" y="365.893" fill="#CCCCCC" width="21.752" height="2.468"/>
			<rect x="419.767" y="365.893" fill="#CCCCCC" width="11.413" height="2.468"/>
			<rect x="436.081" y="365.893" fill="#CCCCCC" width="14.139" height="2.468"/>
			<rect x="417.04" y="371.99" fill="#CCCCCC" width="20.128" height="2.466"/>
			<rect x="398.351" y="359.812" fill="#CCCCCC" width="8.333" height="2.466"/>
			<rect x="335.637" y="384.168" fill="#E2CF7F" width="20.803" height="2.466"/>
			<rect x="335.637" y="390.25" fill="#CCCCCC" width="33.548" height="2.466"/>
			<rect x="351.247" y="396.346" fill="#E2CF7F" width="19.577" height="2.468"/>
			<rect x="351.247" y="402.428" fill="#E2CF7F" width="19.577" height="2.481"/>
			<rect x="364.834" y="408.524" fill="#E2CF7F" width="19.041" height="2.467"/>
			<rect x="363.44" y="384.168" fill="#CCCCCC" width="19.685" height="2.466"/>
			<rect x="388.165" y="384.168" fill="#CCCCCC" width="9.942" height="2.466"/>
			<rect x="404.54" y="384.168" fill="#CCCCCC" width="31.617" height="2.466"/>
			<rect x="374.791" y="390.25" fill="#E2CF7F" width="19.96" height="2.466"/>
			<rect x="376.798" y="396.346" fill="#CCCCCC" width="22.304" height="2.468"/>
			<rect x="376.798" y="402.428" fill="#CCCCCC" width="15.228" height="2.481"/>
			<rect x="404.54" y="396.346" fill="#CCCCCC" width="16.575" height="2.468"/>
			<rect x="396.375" y="402.428" fill="#CCCCCC" width="29.075" height="2.481"/>
			<rect x="429.142" y="402.428" fill="#CCCCCC" width="7.384" height="2.481"/>
			<rect x="389.312" y="408.524" fill="#CCCCCC" width="14.155" height="2.467"/>
			<rect x="406.608" y="408.524" fill="#CCCCCC" width="26.348" height="2.467"/>
			<rect x="436.877" y="408.524" fill="#CCCCCC" width="7.874" height="2.467"/>
			<rect x="351.247" y="420.703" fill="#E2CF7F" width="19.577" height="2.466"/>
			<rect x="351.247" y="426.8" fill="#E2CF7F" width="19.577" height="2.467"/>
			<rect x="376.798" y="420.703" fill="#CCCCCC" width="32.23" height="2.466"/>
			<rect x="376.798" y="426.8" fill="#CCCCCC" width="17.632" height="2.467"/>
			<rect x="413.73" y="420.703" fill="#CCCCCC" width="8.794" height="2.466"/>
			<rect x="426.292" y="420.703" fill="#CCCCCC" width="10.876" height="2.466"/>
			<rect x="411.586" y="426.8" fill="#CCCCCC" width="19.593" height="2.467"/>
			<rect x="398.351" y="426.8" fill="#CCCCCC" width="8.333" height="2.467"/>
			<rect x="335.637" y="436.787" fill="#E2CF7F" width="20.803" height="2.467"/>
			<rect x="335.637" y="442.869" fill="#CCCCCC" width="33.548" height="2.466"/>
			<rect x="351.247" y="448.966" fill="#E2CF7F" width="19.577" height="2.466"/>
			<rect x="351.247" y="455.047" fill="#E2CF7F" width="19.577" height="2.467"/>
			<rect x="364.834" y="461.145" fill="#E2CF7F" width="19.041" height="2.467"/>
			<rect x="363.44" y="436.787" fill="#CCCCCC" width="19.685" height="2.467"/>
			<rect x="388.165" y="436.787" fill="#CCCCCC" width="9.942" height="2.467"/>
			<rect x="404.54" y="436.787" fill="#CCCCCC" width="45.68" height="2.467"/>
			<rect x="374.791" y="442.869" fill="#E2CF7F" width="19.96" height="2.466"/>
			<rect x="376.798" y="448.966" fill="#CCCCCC" width="22.304" height="2.466"/>
			<rect x="376.798" y="455.047" fill="#CCCCCC" width="15.228" height="2.467"/>
			<rect x="404.54" y="448.966" fill="#CCCCCC" width="16.575" height="2.466"/>
			<rect x="425.465" y="448.966" fill="#CCCCCC" width="10.079" height="2.466"/>
			<rect x="440.447" y="448.966" fill="#CCCCCC" width="9.772" height="2.466"/>
			<rect x="396.375" y="455.047" fill="#CCCCCC" width="29.075" height="2.467"/>
			<rect x="429.142" y="455.047" fill="#CCCCCC" width="7.384" height="2.467"/>
			<rect x="389.312" y="461.145" fill="#CCCCCC" width="14.155" height="2.467"/>
			<rect x="351.247" y="473.322" fill="#E2CF7F" width="19.577" height="2.466"/>
			<rect x="351.247" y="479.419" fill="#E2CF7F" width="19.577" height="2.466"/>
			<rect x="376.798" y="473.322" fill="#CCCCCC" width="32.23" height="2.466"/>
			<rect x="376.798" y="479.419" fill="#CCCCCC" width="17.632" height="2.466"/>
			<rect x="413.73" y="473.322" fill="#CCCCCC" width="8.794" height="2.466"/>
			<rect x="426.292" y="473.322" fill="#CCCCCC" width="10.876" height="2.466"/>
			<rect x="411.586" y="479.419" fill="#CCCCCC" width="19.593" height="2.466"/>
			<rect x="398.351" y="479.419" fill="#CCCCCC" width="8.333" height="2.466"/>
		</g>
	</g>
	<g>
		<rect x="449.706" y="414.048" fill="#DB9A26" width="72.598" height="18.241"/>
		<text transform="matrix(1 0 0 1 456.5952 427.6152)" fill="#FFFFFF" font-family="'PTSans-Bold'" font-size="11.4557">J</text>
		<text transform="matrix(1 0 0 1 460.4214 427.6152)" fill="#FFFFFF" font-family="'PTSans-Bold'" font-size="11.4557">A</text>
		<text transform="matrix(1 0 0 1 467.3521 427.6152)" fill="#FFFFFF" font-family="'PTSans-Bold'" font-size="11.4557">V</text>
		<text transform="matrix(1 0 0 1 474.248 427.6152)" fill="#FFFFFF" font-family="'PTSans-Bold'" font-size="11.4557">A</text>
		<text transform="matrix(1 0 0 1 481.1782 427.6152)" fill="#FFFFFF" font-family="'PTSans-Bold'" font-size="11.4557">S</text>
		<text transform="matrix(1 0 0 1 487.25 427.6152)" fill="#FFFFFF" font-family="'PTSans-Bold'" font-size="11.4557">C</text>
		<text transform="matrix(1 0 0 1 493.6543 427.6152)" fill="#FFFFFF" font-family="'PTSans-Bold'" font-size="11.4557">R</text>
		<text transform="matrix(1 0 0 1 500.5503 427.6152)" fill="#FFFFFF" font-family="'PTSans-Bold'" font-size="11.4557">I</text>
		<text transform="matrix(1 0 0 1 503.8154 427.6152)" fill="#FFFFFF" font-family="'PTSans-Bold'" font-size="11.4557">P</text>
		<text transform="matrix(1 0 0 1 510.3672 427.6152)" fill="#FFFFFF" font-family="'PTSans-Bold'" font-size="11.4557">T</text>
	</g>
	<text transform="matrix(1 0 0 1 509.7207 454.0205)" fill="#FFFFFF" font-family="'PTSans-Bold'" font-size="11.0058">&lt;</text>
	<text transform="matrix(1 0 0 1 515.5205 454.0205)" fill="#FFFFFF" font-family="'PTSans-Bold'" font-size="11.0058">s</text>
	<text transform="matrix(1 0 0 1 520.165 454.0205)" fill="#FFFFFF" font-family="'PTSans-Bold'" font-size="11.0058">c</text>
	<text transform="matrix(1 0 0 1 524.9307 454.0205)" fill="#FFFFFF" font-family="'PTSans-Bold'" font-size="11.0058">r</text>
	<text transform="matrix(1 0 0 1 528.7939 454.0205)" fill="#FFFFFF" font-family="'PTSans-Bold'" font-size="11.0058">i</text>
	<text transform="matrix(1 0 0 1 531.7539 454.0205)" fill="#FFFFFF" font-family="'PTSans-Bold'" font-size="11.0058">p</text>
	<text transform="matrix(1 0 0 1 537.6978 454.0205)" fill="#FFFFFF" font-family="'PTSans-Bold'" font-size="11.0058">t</text>
	<text transform="matrix(1 0 0 1 541.5376 454.0205)" fill="#FFFFFF" font-family="'PTSans-Bold'" font-size="11.0058">&gt;</text>
	<g>
		<text transform="matrix(1 0 0 1 269.395 410.6455)" fill="#FFFFFF" font-family="'PTSans-Bold'" font-size="13.5543">&lt;</text>
		<text transform="matrix(1 0 0 1 276.5381 410.6455)" fill="#FFFFFF" font-family="'PTSans-Bold'" font-size="13.5543">h</text>
		<text transform="matrix(1 0 0 1 283.9248 410.6455)" fill="#FFFFFF" font-family="'PTSans-Bold'" font-size="13.5543">e</text>
		<text transform="matrix(1 0 0 1 290.811 410.6455)" fill="#FFFFFF" font-family="'PTSans-Bold'" font-size="13.5543">a</text>
		<text transform="matrix(1 0 0 1 297.5332 410.6455)" fill="#FFFFFF" font-family="'PTSans-Bold'" font-size="13.5543">d</text>
		<text transform="matrix(1 0 0 1 304.8389 410.6455)" fill="#FFFFFF" font-family="'PTSans-Bold'" font-size="13.5543">&gt;</text>
	</g>
	<g>
		<rect x="301.82" y="303.828" fill="#EFA73F" width="47.882" height="16.975"/>
		<text transform="matrix(1 0 0 1 309.918 316.4521)" fill="#FFFFFF" font-family="'PTSans-Bold'" font-size="10.6594">H</text>
		<text transform="matrix(1 0 0 1 316.8569 316.4521)" fill="#FFFFFF" font-family="'PTSans-Bold'" font-size="10.6594">T</text>
		<text transform="matrix(1 0 0 1 322.9121 316.4521)" fill="#FFFFFF" font-family="'PTSans-Bold'" font-size="10.6594">M</text>
		<text transform="matrix(1 0 0 1 331.439 316.4521)" fill="#FFFFFF" font-family="'PTSans-Bold'" font-size="10.6594">L</text>
		<text transform="matrix(1 0 0 1 336.918 316.4521)" fill="#FFFFFF" font-family="'PTSans-Bold'" font-size="10.6594">5</text>
	</g>
	<text transform="matrix(1 0 0 1 450.8354 349.2686)" fill="#FFFFFF" font-family="'PTSans-Bold'" font-size="11.9693">&lt;</text>
	<text transform="matrix(1 0 0 1 457.1436 349.2686)" fill="#FFFFFF" font-family="'PTSans-Bold'" font-size="11.9693">l</text>
	<text transform="matrix(1 0 0 1 460.6626 349.2686)" fill="#FFFFFF" font-family="'PTSans-Bold'" font-size="11.9693">a</text>
	<text transform="matrix(1 0 0 1 466.5986 349.2686)" fill="#FFFFFF" font-family="'PTSans-Bold'" font-size="11.9693">b</text>
	<text transform="matrix(1 0 0 1 473.0146 349.2686)" fill="#FFFFFF" font-family="'PTSans-Bold'" font-size="11.9693">e</text>
	<text transform="matrix(1 0 0 1 479.0942 349.2686)" fill="#FFFFFF" font-family="'PTSans-Bold'" font-size="11.9693">l</text>
	<text transform="matrix(1 0 0 1 482.6133 349.2686)" fill="#FFFFFF" font-family="'PTSans-Bold'" font-size="11.9693">&gt;</text>
	<text transform="matrix(1 0 0 1 242.3906 337.9072)" fill="#FFFFFF" font-family="'PTSans-Bold'" font-size="10.7171">&lt;</text>
	<text transform="matrix(1 0 0 1 248.0386 337.9072)" fill="#FFFFFF" font-family="'PTSans-Bold'" font-size="10.7171">f</text>
	<text transform="matrix(1 0 0 1 251.4785 337.9072)" fill="#FFFFFF" font-family="'PTSans-Bold'" font-size="10.7171">o</text>
	<text transform="matrix(1 0 0 1 257.2334 337.9072)" fill="#FFFFFF" font-family="'PTSans-Bold'" font-size="10.7171">r</text>
	<text transform="matrix(1 0 0 1 260.9946 337.9072)" fill="#FFFFFF" font-family="'PTSans-Bold'" font-size="10.7171">m</text>
	<text transform="matrix(1 0 0 1 269.6226 337.9072)" fill="#FFFFFF" font-family="'PTSans-Bold'" font-size="10.7171">&gt;</text>
	<g>
		<rect x="449.706" y="293.5" fill="#79AF45" width="40.635" height="20.049"/>
		<text transform="matrix(1 0 0 1 457.064 308.4111)" fill="#FFFFFF" font-family="'PTSans-Bold'" font-size="12.5906">C</text>
		<text transform="matrix(1 0 0 1 464.1021 308.4111)" fill="#FFFFFF" font-family="'PTSans-Bold'" font-size="12.5906">S</text>
		<text transform="matrix(1 0 0 1 470.7749 308.4111)" fill="#FFFFFF" font-family="'PTSans-Bold'" font-size="12.5906">S</text>
		<text transform="matrix(1 0 0 1 477.4478 308.4111)" fill="#FFFFFF" font-family="'PTSans-Bold'" font-size="12.5906">3</text>
	</g>
	<text transform="matrix(1 0 0 1 390.0098 278.1836)" fill="#FFFFFF" font-family="'PTSans-Bold'" font-size="13.0085">&lt;</text>
	<text transform="matrix(1 0 0 1 396.8647 278.1836)" fill="#FFFFFF" font-family="'PTSans-Bold'" font-size="13.0085">s</text>
	<text transform="matrix(1 0 0 1 402.3545 278.1836)" fill="#FFFFFF" font-family="'PTSans-Bold'" font-size="13.0085">t</text>
	<text transform="matrix(1 0 0 1 406.8945 278.1836)" fill="#FFFFFF" font-family="'PTSans-Bold'" font-size="13.0085">y</text>
	<text transform="matrix(1 0 0 1 413.1128 278.1836)" fill="#FFFFFF" font-family="'PTSans-Bold'" font-size="13.0085">l</text>
	<text transform="matrix(1 0 0 1 416.9365 278.1836)" fill="#FFFFFF" font-family="'PTSans-Bold'" font-size="13.0085">e</text>
	<text transform="matrix(1 0 0 1 423.5459 278.1836)" fill="#FFFFFF" font-family="'PTSans-Bold'" font-size="13.0085">&gt;</text>
	<text transform="matrix(1 0 0 1 519.1562 291.3828)" fill="#FFFFFF" font-family="'PTSans-Bold'" font-size="10.9547">&lt;</text>
	<text transform="matrix(1 0 0 1 524.9292 291.3828)" fill="#FFFFFF" font-family="'PTSans-Bold'" font-size="10.9547">d</text>
	<text transform="matrix(1 0 0 1 530.833 291.3828)" fill="#FFFFFF" font-family="'PTSans-Bold'" font-size="10.9547">i</text>
	<text transform="matrix(1 0 0 1 533.7803 291.3828)" fill="#FFFFFF" font-family="'PTSans-Bold'" font-size="10.9547">v</text>
	<text transform="matrix(1 0 0 1 539.0063 291.3828)" fill="#FFFFFF" font-family="'PTSans-Bold'" font-size="10.9547">&gt;</text>
	<g>
		<path fill="#80BAD8" d="M337.525,229.457c7.929,1.625,13.86,7.66,13.86,14.805l0,0c0,7.343-6.147,14.93-14.529,14.93H300.01
			c-8.972,0-15.887-7.189-15.887-14.93l0,0c0-7.145,5.932-13.18,13.86-14.804c-0.005-0.144-0.007-0.286-0.007-0.431
			c0-9.178,8.854-16.619,19.777-16.619c10.922,0,19.777,7.441,19.777,16.619C337.532,229.172,337.529,229.314,337.525,229.457z"/>
		<path fill="#FFFFFF" d="M312.718,227.54c7.461,1.528,13.043,7.208,13.043,13.931l0,0c0,6.911-5.787,14.049-13.673,14.049h-34.673
			c-8.443,0-14.95-6.765-14.95-14.049l0,0c0-6.723,5.582-12.403,13.042-13.931c-0.004-0.134-0.005-0.268-0.005-0.405
			c0-8.636,8.331-15.639,18.61-15.639c10.279,0,18.612,7.003,18.612,15.639C312.724,227.272,312.721,227.406,312.718,227.54z"/>
	</g>
	<g>
		<polygon fill="#FFFFFF" points="545.964,396.068 551.696,396.105 551.589,433.275 545.856,433.238 		"/>
		<polygon fill="#7F7F7F" points="547.078,397.743 546.979,431.578 550.476,431.601 550.573,397.766 		"/>
		<path fill="#FFFFFF" d="M552.483,386.744c1.986,1.229,3.308,3.431,3.296,5.938c-0.017,3.833-3.138,6.928-6.971,6.91
			c-3.833-0.016-6.927-3.137-6.91-6.971c0.011-2.507,1.35-4.698,3.348-5.909l-0.018,3.926l-0.009,2.089l1.805,1.053l1.806,1.054
			l1.814-1.038l1.812-1.036l0.009-2.089L552.483,386.744z"/>
		<path fill="#FFFFFF" d="M552.306,441.382c1.999-1.212,3.337-3.401,3.35-5.91c0.016-3.833-3.078-6.953-6.911-6.97
			c-3.833-0.018-6.954,3.077-6.971,6.91c-0.012,2.508,1.31,4.71,3.297,5.938l0.017-3.925l0.009-2.09l1.813-1.036l1.813-1.037
			l1.806,1.053l1.804,1.053l-0.008,2.09L552.306,441.382z"/>
		<path fill="#7F7F7F" d="M553.436,438.85c0.699-0.969,1.096-2.145,1.101-3.382c0.014-3.216-2.582-5.834-5.797-5.848
			c-3.216-0.014-5.834,2.581-5.849,5.797c-0.005,1.238,0.38,2.418,1.071,3.392l0.018-4.121l4.749-2.716l4.726,2.755L553.436,438.85z
			"/>
		<path fill="#7F7F7F" d="M544.117,389.19c-0.699,0.968-1.094,2.145-1.101,3.382c-0.014,3.216,2.581,5.834,5.799,5.848
			c3.216,0.014,5.833-2.582,5.847-5.798c0.005-1.236-0.38-2.417-1.071-3.392l-0.018,4.123l-4.748,2.715l-4.726-2.754L544.117,389.19
			z"/>
	</g>
	<path fill="#1A252B" d="M546.737,378.377l1.83,1.536l-3.805,4.53l-1.83-1.536c-1.293,0.998-2.73,1.748-4.289,2.233l0.207,2.381
		l-4.324,0.377v-6.669c2.686,0.001,5.286-1.174,7.074-3.302c3.272-3.901,2.764-9.736-1.137-13.012l0,0
		c-0.963-0.808-2.056-1.401-3.246-1.763c-0.889-0.271-1.795-0.401-2.691-0.401v-6.67l1.564-0.137l0.208,2.38
		c1.607,0.209,3.176,0.702,4.613,1.456l1.536-1.83l4.53,3.801l-1.535,1.831c0.998,1.293,1.748,2.731,2.231,4.29l2.381-0.209
		l0.516,5.893l-2.383,0.206C547.983,375.384,547.495,376.932,546.737,378.377z M534.527,387.898l-1.566,0.137l-0.208-2.38
		c-1.608-0.209-3.175-0.702-4.611-1.455l-1.536,1.83l-4.531-3.802l1.537-1.83c-0.999-1.292-1.749-2.731-2.233-4.291l-2.38,0.209
		l-0.515-5.893l2.379-0.207c0.209-1.62,0.698-3.167,1.456-4.612l-1.83-1.537l3.8-4.529l1.831,1.536
		c1.292-0.998,2.732-1.748,4.29-2.232l-0.208-2.381l4.326-0.378v6.67c-2.687-0.001-5.288,1.172-7.075,3.3
		c-3.273,3.903-2.763,9.739,1.138,13.014c0.962,0.808,2.054,1.4,3.245,1.763c0.889,0.271,1.795,0.401,2.692,0.401V387.898
		L534.527,387.898z"/>
	<text transform="matrix(1 0 0 1 683.2881 386.7139)" fill="#FFFFFF" font-family="'PTSans-Bold'" font-size="12.0512">&lt;</text>
	<text transform="matrix(1 0 0 1 689.6396 386.7139)" fill="#FFFFFF" font-family="'PTSans-Bold'" font-size="12.0512">b</text>
	<text transform="matrix(1 0 0 1 696.0996 386.7139)" fill="#FFFFFF" font-family="'PTSans-Bold'" font-size="12.0512">o</text>
	<text transform="matrix(1 0 0 1 702.5693 386.7139)" fill="#FFFFFF" font-family="'PTSans-Bold'" font-size="12.0512">d</text>
	<text transform="matrix(1 0 0 1 709.0654 386.7139)" fill="#FFFFFF" font-family="'PTSans-Bold'" font-size="12.0512">y</text>
	<text transform="matrix(1 0 0 1 714.8252 386.7139)" fill="#FFFFFF" font-family="'PTSans-Bold'" font-size="12.0512">&gt;</text>
	<g>
		<path fill="#80BAD8" d="M741.645,263.766c7.931,1.625,13.861,7.66,13.861,14.805l0,0c0,7.343-6.147,14.93-14.529,14.93h-36.846
			c-8.973,0-15.887-7.188-15.887-14.93l0,0c0-7.145,5.932-13.18,13.859-14.804c-0.005-0.144-0.007-0.286-0.007-0.431
			c0-9.178,8.854-16.619,19.777-16.619c10.922,0,19.777,7.441,19.777,16.619C741.652,263.48,741.648,263.623,741.645,263.766z"/>
		<path fill="#FFFFFF" d="M716.838,261.849c7.461,1.528,13.043,7.208,13.043,13.931l0,0c0,6.913-5.786,14.05-13.672,14.05h-34.674
			c-8.443,0-14.949-6.765-14.949-14.05l0,0c0-6.723,5.581-12.402,13.041-13.931c-0.004-0.134-0.005-0.269-0.005-0.405
			c0-8.636,8.331-15.639,18.61-15.639c10.277,0,18.61,7.003,18.61,15.639C716.844,261.58,716.841,261.715,716.838,261.849z"/>
	</g>
</g>
<g id="Layer_5">
	<polygon fill="#FFFFFF" points="576.995,306.193 655.126,306.193 668.236,319.306 668.236,306.193 668.237,435.235 
		576.996,435.235 	"/>
	
		<line fill="none" stroke="#CCCCCC" stroke-width="0.9601" stroke-miterlimit="22.9256" x1="632.412" y1="397.717" x2="632.412" y2="405.781"/>
	
		<line fill="none" stroke="#CCCCCC" stroke-width="0.9601" stroke-miterlimit="22.9256" x1="652.007" y1="397.717" x2="652.007" y2="413.846"/>
	<rect x="600.468" y="320.017" fill="#CCCCCC" width="44.295" height="3.15"/>
	<rect x="585.369" y="327.894" fill="#CCCCCC" width="74.494" height="3.15"/>
	<rect x="585.369" y="333.407" fill="#CCCCCC" width="74.494" height="3.149"/>
	<rect x="585.369" y="338.921" fill="#CCCCCC" width="74.494" height="3.15"/>
	<rect x="585.369" y="344.435" fill="#CCCCCC" width="34.912" height="3.15"/>
	<polygon fill="#CCCCCC" points="655.126,319.306 668.236,319.306 655.126,306.193 	"/>
	<rect x="585.369" y="395.319" fill="#EF4136" width="15.713" height="4.795"/>
	<rect x="605.016" y="395.319" fill="#9ACAE6" width="15.713" height="4.795"/>
	<rect x="624.557" y="395.319" fill="#609DC1" width="15.712" height="4.795"/>
	<rect x="644.15" y="395.319" fill="#9ACAE6" width="15.713" height="4.795"/>
	<rect x="585.369" y="403.384" fill="#F2675D" width="15.713" height="4.795"/>
	<rect x="585.369" y="411.448" fill="#F48C85" width="15.713" height="4.795"/>
	<rect x="585.369" y="419.513" fill="#FCD8D6" width="15.713" height="4.795"/>
	<rect x="624.557" y="403.384" fill="#609DC1" width="15.712" height="4.795"/>
	<rect x="644.15" y="403.384" fill="#9ACAE6" width="15.713" height="4.795"/>
	<rect x="644.15" y="411.448" fill="#9ACAE6" width="15.713" height="4.795"/>
	<g>
		<path fill="#FFEEC9" d="M571.689,408.172l-4.106-9.316l-4.107,9.316v73.496c0,1.231,1.009,2.24,2.241,2.24h3.733
			c1.231,0,2.24-1.009,2.24-2.24L571.689,408.172L571.689,408.172z"/>
		<path fill="#FFCD61" d="M571.689,408.172l-4.107-9.316l1.781,9.688l-0.001,75.364h0.086c1.231,0,2.24-1.009,2.24-2.24
			L571.689,408.172z"/>
		<path fill="#C0F7FC" d="M571.689,408.172l-4.106-9.316l-4.107,9.316v70.197c2.894,0.492,5.612,0.47,8.215,0L571.689,408.172
			L571.689,408.172z"/>
		<path fill="#A2EDF4" d="M571.689,408.172l-4.107-9.316l1.781,9.688l-0.001,70.187c1.405,0.004,0.991-0.119,2.326-0.36
			L571.689,408.172z"/>
		<path fill="#134089" d="M571.689,408.172l-4.106-9.316l-4.107,9.316v67.577c2.908,0.526,5.626,0.502,8.215,0L571.689,408.172
			L571.689,408.172z"/>
		<path fill="#0D3570" d="M571.679,408.469l-4.075-9.245l2.026,9.259v67.3c1.398,0.005,0.729,0.23,2.049-0.025V408.469z"/>
		<path fill="#FFFFFF" d="M571.689,408.172l-4.106-9.316l-4.107,9.316c1.306,0.242,2.683,0.372,4.107,0.372
			C569.006,408.544,570.384,408.414,571.689,408.172z"/>
		<path fill="#CCCCCC" d="M571.689,408.172l-4.106-9.316l2.062,9.688C571.068,408.544,570.384,408.414,571.689,408.172z"/>
		<path fill="#4D4D4D" d="M568.939,401.933l-1.356-3.077l-1.357,3.077c0.432,0.08,0.887,0.123,1.357,0.123
			C568.053,402.056,568.508,402.013,568.939,401.933z"/>
	</g>
	<rect x="585.369" y="355.188" fill="#CCCCCC" width="74.494" height="3.15"/>
	<rect x="585.369" y="360.702" fill="#CCCCCC" width="74.494" height="3.149"/>
	<rect x="585.369" y="366.216" fill="#CCCCCC" width="74.494" height="3.15"/>
	<g id="Layer_6">
		<path fill="#151E26" d="M695.196,414.134v3.432h-6.687h-47.23v-3.432c0-4.376,3.545-7.92,7.92-7.92h38.077
			C691.649,406.214,695.196,409.758,695.196,414.134z"/>
		<path fill="#151E26" d="M649.485,482.36h45.711v3.902c0,4.375-3.547,7.92-7.92,7.92h-2.203h-35.874c-4.375,0-7.92-3.545-7.92-7.92
			v-3.902H649.485z"/>
		<polygon fill="#B5B5B5" points="695.196,448.543 695.196,482.36 649.485,482.36 688.511,417.854 688.511,417.564 695.196,417.564 
			695.196,438.966 		"/>
		<polygon fill="#CECECE" points="688.511,417.564 688.511,417.854 649.485,482.36 641.279,482.36 641.279,417.564 		"/>
		<circle fill="#F4F4F4" cx="668.238" cy="488.271" r="3.547"/>
		<g>
			<path fill="#1A1A1A" d="M659.973,457.235c-0.55,0-1.101-0.21-1.521-0.63l-6.688-6.69c-0.839-0.84-0.839-2.2,0-3.04l6.688-6.689
				c0.84-0.838,2.201-0.838,3.04,0c0.841,0.842,0.841,2.202,0,3.041l-5.168,5.169l5.169,5.171c0.84,0.84,0.84,2.2-0.001,3.041
				C661.072,457.025,660.521,457.235,659.973,457.235z"/>
			<path fill="#1A1A1A" d="M676.503,457.235c-0.55,0-1.1-0.209-1.52-0.63c-0.842-0.841-0.842-2.2,0-3.04l5.168-5.171l-5.168-5.169
				c-0.842-0.839-0.842-2.199,0-3.041c0.84-0.838,2.199-0.838,3.04,0l6.688,6.689c0.839,0.84,0.839,2.2,0,3.04l-6.688,6.689
				C677.604,457.025,677.054,457.235,676.503,457.235z"/>
			<path fill="#1A1A1A" d="M665.564,462.584c-0.139,0-0.276-0.013-0.416-0.04c-1.166-0.229-1.926-1.359-1.696-2.522l4.729-24.079
				c0.229-1.166,1.358-1.925,2.523-1.695c1.165,0.229,1.925,1.359,1.695,2.522l-4.729,24.079
				C667.471,461.874,666.571,462.584,665.564,462.584z"/>
		</g>
	</g>
</g>
</svg>
