<?xml version="1.0" encoding="utf-8"?>
<!-- Generator: Adobe Illustrator 15.0.0, SVG Export Plug-In . SVG Version: 6.00 Build 0)  -->
<!DOCTYPE svg PUBLIC "-//W3C//DTD SVG 1.1//EN" "http://www.w3.org/Graphics/SVG/1.1/DTD/svg11.dtd">
<svg version="1.1" id="Layer_1" xmlns="http://www.w3.org/2000/svg" xmlns:xlink="http://www.w3.org/1999/xlink" x="0px" y="0px"
	 width="240px" height="240px" viewBox="0 0 240 240" enable-background="new 0 0 240 240" xml:space="preserve">
<g>
	<path fill="#1A252D" d="M150.637,225.637c0,6,4.908,10.908,10.908,10.908h60.547c6,0,10.908-4.908,10.908-10.908v-17.455
		l-41.182-10.908l-41.182,10.908V225.637L150.637,225.637z"/>
	<path fill="#1A252D" d="M233,84.364c0-6-4.909-10.909-10.909-10.909h-60.546c-6,0-10.908,4.909-10.908,10.909v17.455l41.182,10.909
		L233,101.818V84.364z"/>
</g>
<rect x="150.637" y="101.64" fill="#AED8F4" width="82.363" height="106.542"/>
<path fill="#5B6872" d="M201.637,91.727H182c-2.26,0-4.091-1.832-4.091-4.091c0-2.259,1.832-4.091,4.091-4.091h19.637
	c2.26,0,4.09,1.832,4.09,4.091C205.727,89.896,203.896,91.727,201.637,91.727z"/>
<g>
	<path fill="#1A252D" d="M8,225.637c0,6,4.909,10.908,10.909,10.908h60.546c6,0,10.909-4.908,10.909-10.908v-17.455l-41.182-10.908
		L8,208.182V225.637z"/>
	<path fill="#1A252D" d="M90.364,84.364c0-6-4.909-10.909-10.909-10.909H18.909c-6,0-10.909,4.909-10.909,10.909v17.455
		l41.182,10.909l41.182-10.909L90.364,84.364L90.364,84.364z"/>
</g>
<rect x="8" y="101.64" fill="#EFDABD" width="82.364" height="106.542"/>
<path fill="#5B6872" d="M59,91.727H39.364c-2.26,0-4.091-1.832-4.091-4.091c0-2.259,1.831-4.091,4.091-4.091H59
	c2.259,0,4.091,1.832,4.091,4.091C63.091,89.896,61.259,91.727,59,91.727z"/>
<path fill="#F9B52B" d="M142.273,184.727h-29.035l5.121-3.414c1.88-1.252,2.388-3.793,1.134-5.672
	c-1.253-1.881-3.793-2.389-5.672-1.135l-16.364,10.909c-1.138,0.759-1.822,2.036-1.822,3.403s0.684,2.646,1.822,3.404l16.364,10.908
	c0.697,0.466,1.486,0.688,2.265,0.688c1.321,0,2.62-0.639,3.407-1.822c1.254-1.879,0.746-4.42-1.134-5.672l-5.121-3.415h29.035
	c2.26,0,4.09-1.831,4.09-4.091S144.533,184.727,142.273,184.727z"/>
<path fill="#1C54A5" d="M144.542,141.778l-16.364-10.909c-1.879-1.254-4.419-0.746-5.672,1.134c-1.254,1.88-0.746,4.42,1.135,5.673
	l5.121,3.415H99.728c-2.259,0-4.091,1.831-4.091,4.091c0,2.259,1.832,4.091,4.091,4.091h29.034l-5.122,3.414
	c-1.88,1.253-2.388,3.793-1.134,5.673c0.787,1.183,2.085,1.822,3.406,1.822c0.78,0,1.568-0.223,2.266-0.688l16.363-10.909
	c1.139-0.759,1.822-2.036,1.822-3.403C146.363,143.813,145.68,142.537,144.542,141.778z"/>
</svg>
