<?xml version="1.0" encoding="utf-8"?>
<!-- Generator: Adobe Illustrator 15.0.0, SVG Export Plug-In . SVG Version: 6.00 Build 0)  -->
<!DOCTYPE svg PUBLIC "-//W3C//DTD SVG 1.1//EN" "http://www.w3.org/Graphics/SVG/1.1/DTD/svg11.dtd">
<svg version="1.1" id="Layer_1" xmlns="http://www.w3.org/2000/svg" xmlns:xlink="http://www.w3.org/1999/xlink" x="0px" y="0px"
	 width="240px" height="240px" viewBox="0 0 240 240" enable-background="new 0 0 240 240" xml:space="preserve">
<path fill="#40596B" d="M219.923,57.641H18.649c-5.032,0-9.149,4.117-9.149,9.148v134.945c0,5.032,4.117,9.149,9.149,9.149h201.274
	c5.031,0,9.148-4.117,9.148-9.149V66.79C229.071,61.758,224.954,57.641,219.923,57.641z"/>
<rect x="23.223" y="71.364" fill="#F5F9D7" width="192.125" height="112.53"/>
<rect x="77.201" y="211.341" fill="#CDD6E0" width="83.712" height="20.127"/>
<rect x="52.042" y="230.554" fill="#38424F" width="134.487" height="5.946"/>
<rect x="77.201" y="211.341" fill="#ACB3BA" width="83.712" height="6.861"/>
<ellipse fill="#E0C46C" cx="119.286" cy="197.617" rx="5.489" ry="5.489"/>
<path fill="#84DBFF" d="M172.349,60.843c0-0.915,0-1.83,0-2.745c0-19.67-16.011-35.68-35.681-35.68
	c-11.436,0-21.499,5.489-28.361,13.723c-2.287-0.458-5.032-0.915-7.319-0.915c-14.181,0-26.074,10.064-28.819,23.33
	c-8.691,1.83-15.096,9.606-15.096,19.212c0,10.979,8.691,19.67,19.67,19.67h85.542c10.979,0,19.67-8.691,19.67-19.67
	C181.497,70.449,177.838,64.502,172.349,60.843z"/>
<path fill="#8E9BA3" d="M163.2,107.502V92.864l-7.319-2.745c-0.915-3.202-1.83-5.947-3.659-8.691l3.202-6.861l-10.521-10.521
	l-6.861,3.202c-2.745-1.372-5.489-2.745-8.691-3.66l-2.745-7.318h-14.637l-2.745,7.318c-3.202,0.915-5.947,1.831-8.691,3.66
	l-6.861-3.202L83.148,74.566l3.202,6.861c-1.373,2.745-2.744,5.489-3.66,8.691l-7.319,2.745v14.638l7.319,2.745
	c0.916,3.202,1.83,5.947,3.66,8.691l-3.202,6.861L93.67,136.32l6.861-3.202c2.745,1.373,5.49,2.745,8.691,3.66l2.745,7.318h14.637
	l2.745-7.318c3.202-0.915,5.946-1.83,8.691-3.66l6.861,3.202l10.521-10.521l-3.202-6.861c1.372-2.745,2.744-5.49,3.659-8.691
	L163.2,107.502z M137.126,100.183c0,10.064-8.233,17.84-17.84,17.84c-10.063,0-17.84-7.776-17.84-17.84
	c0-10.063,8.234-17.84,17.84-17.84C129.35,82.343,137.126,90.119,137.126,100.183z"/>
<path fill="#4474BC" d="M138.498,80.97c-10.521-10.521-27.446-10.521-37.968,0s-10.521,27.446,0,37.968
	c10.521,10.521,27.447,10.521,37.968,0C149.02,108.874,149.02,91.491,138.498,80.97z M132.094,112.991
	c-6.861,6.861-18.297,6.861-25.159,0s-6.861-18.298,0-25.159c6.861-6.862,18.297-6.862,25.159,0
	C138.956,94.693,138.956,105.672,132.094,112.991z"/>
</svg>
