<?xml version="1.0" encoding="utf-8"?>
<!-- Generator: Adobe Illustrator 15.0.0, SVG Export Plug-In . SVG Version: 6.00 Build 0)  -->
<!DOCTYPE svg PUBLIC "-//W3C//DTD SVG 1.1//EN" "http://www.w3.org/Graphics/SVG/1.1/DTD/svg11.dtd">
<svg version="1.1" id="Layer_1" xmlns="http://www.w3.org/2000/svg" xmlns:xlink="http://www.w3.org/1999/xlink" x="0px" y="0px"
	 width="240px" height="240px" viewBox="0 0 240 240" enable-background="new 0 0 240 240" xml:space="preserve">
<path fill="#F4B651" d="M209.055,108.387c0.325-1.957,0.649-4.24,0.649-6.197c0-17.613-14.023-31.964-31.31-32.617
	C173.829,49.677,156.214,35,135.014,35c-14.351,0-27.071,6.523-35.226,17.287c-1.957-0.326-4.241-0.652-6.523-0.652
	c-17.613,0-32.617,11.417-38.162,27.071c-20.549,6.85-35.226,25.441-35.226,48.6c0,28.703,23.157,51.206,52.186,51.206h89.043
	c28.702,0,52.187-22.504,52.187-51.206C212.968,120.455,211.664,114.583,209.055,108.387z"/>
<g>
	<path fill="#F4C37D" d="M209.706,109.692c0,0.979,0,1.63,0,2.61c0,2.283-0.326,4.24-0.651,6.197
		c1.955,4.567,2.935,9.459,3.587,14.352c0.326-1.632,0.326-3.263,0.326-5.219C212.968,121.434,211.664,115.563,209.706,109.692z"/>
	<path fill="#F4C37D" d="M55.429,89.143c5.545-15.656,20.548-27.072,38.161-27.072c2.283,0,4.241,0.326,6.523,0.652
		c8.154-10.437,20.875-17.286,35.225-17.286c21.202,0,39.14,14.677,43.707,34.573c15.655,0.652,28.378,12.395,30.985,27.398
		c0.329-1.63,0.329-3.262,0.329-5.217c0-17.613-14.026-31.964-31.314-32.617C173.829,49.677,156.214,35,135.014,35
		c-14.351,0-27.071,6.523-35.226,17.287c-1.957-0.326-4.241-0.652-6.523-0.652c-17.613,0-32.617,11.417-38.162,27.071
		c-20.549,6.85-35.226,26.419-35.226,49.251c0,1.631,0,3.587,0.326,5.218C22.16,112.628,36.186,95.34,55.429,89.143z"/>
	<path fill="#F4C37D" d="M188.506,125.021c0,0.652,0,1.305,0,1.957c0,1.632-0.327,3.263-0.327,4.893
		c1.306,3.588,2.283,7.177,2.61,11.09c0-1.306,0.324-2.609,0.324-3.915C191.113,133.83,190.137,129.263,188.506,125.021z"/>
	<path fill="#F4C37D" d="M69.129,108.714c4.24-12.068,15.656-20.876,29.355-20.876c1.632,0,3.262,0.327,4.892,0.327
		c6.197-8.155,16.309-13.373,27.071-13.373c16.309,0,30.008,11.416,33.595,26.745c12.067,0.653,21.854,9.459,23.811,21.202
		c0.326-1.305,0.326-2.61,0.326-3.914c0-13.7-10.764-24.463-24.137-25.115c-3.587-15.331-17.286-26.746-33.595-26.746
		c-11.088,0-20.875,5.218-27.071,13.372c-1.631-0.325-3.262-0.325-4.892-0.325c-13.699,0-25.114,8.806-29.355,20.875
		c-15.982,5.218-27.398,20.223-27.398,38.162c0,1.304,0,2.607,0.326,4.238C43.688,126.979,54.451,113.606,69.129,108.714z"/>
	<path fill="#F4C37D" d="M172.85,143.94c0,0.651,0,0.979,0,1.629c0,1.306,0,2.61-0.326,3.915c0.98,2.61,1.955,5.545,2.282,8.807
		c0-0.979,0-1.957,0-3.264C175.133,151.115,174.152,147.527,172.85,143.94z"/>
	<path fill="#F4C37D" d="M79.24,131.219c3.262-9.459,12.395-16.308,23.158-16.308c1.304,0,2.608,0,3.914,0.325
		c4.892-6.197,12.721-10.436,21.528-10.436c13.045,0,23.809,9.132,26.417,20.874c9.459,0.326,17.286,7.502,18.592,16.634
		c0.325-0.979,0.325-1.958,0.325-3.262c0-10.765-8.48-19.244-18.917-19.897c-2.937-12.065-13.699-20.873-26.417-20.873
		c-8.809,0-16.311,4.241-21.528,10.438c-1.305-0.326-2.61-0.326-3.914-0.326c-10.764,0-19.897,6.849-23.158,16.31
		c-12.395,4.239-21.526,15.982-21.526,30.006c0,0.979,0,2.284,0.326,3.263C59.343,145.569,67.824,135.134,79.24,131.219z"/>
</g>
<path fill="#214551" d="M171.871,157.312c0,4.567-3.588,8.155-8.155,8.155H69.128c-4.566,0-8.154-3.588-8.154-8.155l0,0
	c0-4.565,3.588-8.153,8.154-8.153h94.588C168.283,149.158,171.871,152.746,171.871,157.312L171.871,157.312z"/>
<path fill="#102D35" d="M60.974,157.312L60.974,157.312c0-4.565,3.588-8.153,8.154-8.153h94.589c4.566,0,8.154,3.588,8.154,8.153
	l0,0"/>
<polygon fill="#DCEAF4" points="77.283,149.158 77.283,214.392 102.072,237.223 155.562,237.223 155.562,149.158 "/>
<polyline fill="#DCEAF4" points="155.562,237.223 155.562,149.158 77.283,149.158 "/>
<polyline fill="#D4E8E5" points="155.562,191.561 155.562,149.158 77.283,149.158 "/>
<polygon fill="#D6E5E3" points="121.315,237.223 102.072,214.392 102.072,237.223 112.508,237.223 "/>
<polygon fill="#8AADC1" points="77.283,214.392 102.072,237.223 102.072,214.392 "/>
<polygon fill="#799BAA" points="89.677,225.807 102.072,237.223 102.072,214.392 "/>
<g>
	<path fill="#102D35" d="M140.559,167.098c0,0.979-0.979,1.63-1.955,1.63H93.917c-0.979,0-1.957-0.652-1.957-1.63l0,0
		c0-0.98,0.978-1.631,1.957-1.631h45.011C139.907,165.467,140.559,166.119,140.559,167.098L140.559,167.098z"/>
	<path fill="#102D35" d="M140.559,180.144c0,0.98-0.979,1.631-1.955,1.631H93.917c-0.979,0-1.957-0.65-1.957-1.631l0,0
		c0-0.978,0.978-1.63,1.957-1.63h45.011C139.907,178.512,140.559,179.166,140.559,180.144L140.559,180.144z"/>
	<path fill="#102D35" d="M140.559,193.191c0,0.978-0.979,1.631-1.955,1.631H93.917c-0.979,0-1.957-0.654-1.957-1.631l0,0
		c0-0.981,0.978-1.631,1.957-1.631h45.011C139.907,191.561,140.559,192.214,140.559,193.191L140.559,193.191z"/>
</g>
</svg>
