<?xml version="1.0" encoding="utf-8"?>
<!-- Generator: Adobe Illustrator 15.0.0, SVG Export Plug-In . SVG Version: 6.00 Build 0)  -->
<!DOCTYPE svg PUBLIC "-//W3C//DTD SVG 1.1//EN" "http://www.w3.org/Graphics/SVG/1.1/DTD/svg11.dtd">
<svg version="1.1" id="Layer_1" xmlns="http://www.w3.org/2000/svg" xmlns:xlink="http://www.w3.org/1999/xlink" x="0px" y="0px"
	 width="240px" height="240px" viewBox="0 0 240 240" enable-background="new 0 0 240 240" xml:space="preserve">
<path fill="#ACD2EA" d="M59.35,111.619c-2.576,0-4.665,2.604-4.665,5.815v42.642c0,3.211,2.088,5.815,4.665,5.815
	c2.575,0,4.664-2.604,4.664-5.815v-36.827H120.5V111.62L59.35,111.619L59.35,111.619z"/>
<path fill="#9DC3D6" d="M181.648,111.619H120.5v11.629h56.486v36.828c0,3.211,2.088,5.814,4.663,5.814
	c2.577,0,4.665-2.604,4.665-5.814v-42.643C186.313,114.223,184.226,111.619,181.648,111.619z"/>
<path fill="#808183" d="M222.137,226.57h-81.237c-3.618,0-6.552-2.934-6.552-6.551v-57.654c0-3.617,2.934-6.55,6.552-6.55h81.235
	c3.62,0,6.553,2.933,6.553,6.55v57.654C228.688,223.637,225.755,226.57,222.137,226.57z"/>
<path fill="#59595B" d="M222.137,155.816h-40.832v70.755h40.832c3.618,0,6.552-2.934,6.552-6.552v-57.651
	C228.688,158.749,225.755,155.816,222.137,155.816z"/>
<rect x="139.705" y="161.534" fill="#F9C7BD" width="83.62" height="59.317"/>
<rect x="181.308" y="161.534" fill="#F9AD9B" width="42.023" height="59.317"/>
<path fill="#59595B" d="M131.738,231.65h99.56c2.727,0,4.938-2.211,4.938-4.938v-5.381c0-2.727-2.211-4.938-4.938-4.938h-99.56
	c-2.728,0-4.938,2.211-4.938,4.938v5.381C126.8,229.439,129.012,231.65,131.738,231.65z"/>
<path fill="#272525" d="M231.299,216.397h-49.993v15.253h49.993c2.726,0,4.938-2.211,4.938-4.937v-5.38
	C236.235,218.606,234.024,216.397,231.299,216.397z"/>
<path fill="#808183" d="M100.102,226.57H18.864c-3.619,0-6.552-2.934-6.552-6.551v-57.654c0-3.617,2.933-6.55,6.552-6.55h81.236
	c3.618,0,6.551,2.933,6.551,6.55v57.654C106.652,223.637,103.72,226.57,100.102,226.57z"/>
<path fill="#59595B" d="M100.102,155.816H59.006v70.755h41.096c3.618,0,6.551-2.934,6.551-6.552v-57.651
	C106.652,158.749,103.72,155.816,100.102,155.816z"/>
<rect x="17.675" y="161.534" fill="#F9C7BD" width="83.62" height="59.317"/>
<rect x="59.008" y="161.534" fill="#F9AD9B" width="42.288" height="59.317"/>
<path fill="#59595B" d="M9.703,231.65h99.56c2.727,0,4.938-2.211,4.938-4.938v-5.381c0-2.727-2.211-4.938-4.938-4.938H9.703
	c-2.727,0-4.938,2.211-4.938,4.938v5.381C4.765,229.439,6.976,231.65,9.703,231.65z"/>
<path fill="#272525" d="M109.263,216.397H59.004v15.253h50.258c2.727,0,4.938-2.211,4.938-4.937v-5.38
	C114.2,218.606,111.989,216.397,109.263,216.397z"/>
<path fill="#4485E2" d="M150.041,132.418c8.104,0,14.673-6.57,14.673-14.673c0-7.299-5.335-13.335-12.314-14.466
	c-0.991-14.127-12.756-25.282-27.135-25.282c-9.271,0-17.456,4.64-22.368,11.72c-1.288-0.536-2.701-0.834-4.183-0.834
	c-6.012,0-10.885,4.874-10.885,10.884c0,0.238,0.021,0.469,0.036,0.704c-6.702,2.034-11.579,8.257-11.579,15.623
	c0,9.017,7.31,16.327,16.326,16.327h57.43V132.418z"/>
<path fill="#235FC9" d="M152.399,103.277c-0.99-14.127-12.756-25.282-27.135-25.282c-1.626,0-3.217,0.151-4.765,0.424v53.998h29.541
	c8.104,0,14.673-6.57,14.673-14.672C164.714,110.445,159.38,104.408,152.399,103.277z"/>
</svg>
