<?xml version="1.0" encoding="utf-8"?>
<!-- Generator: Adobe Illustrator 15.0.0, SVG Export Plug-In . SVG Version: 6.00 Build 0)  -->
<!DOCTYPE svg PUBLIC "-//W3C//DTD SVG 1.1//EN" "http://www.w3.org/Graphics/SVG/1.1/DTD/svg11.dtd">
<svg version="1.1" id="Layer_1" xmlns="http://www.w3.org/2000/svg" xmlns:xlink="http://www.w3.org/1999/xlink" x="0px" y="0px"
	 width="240px" height="240px" viewBox="0 0 240 240" enable-background="new 0 0 240 240" xml:space="preserve">
<g>
	<g>
		<path fill="#4F5C66" d="M207.518,103.388H35.346c-6.753,0-12.232-5.478-12.232-12.232v-39.95c0-6.753,5.479-12.232,12.232-12.232
			h172.169c6.756,0,12.233,5.479,12.233,12.232v39.947C219.751,97.91,214.271,103.388,207.518,103.388z"/>
		<path fill="#38454F" d="M207.518,167.805H35.346c-6.753,0-12.232-5.479-12.232-12.23v-39.951c0-6.753,5.479-12.232,12.232-12.232
			h172.169c6.756,0,12.229,5.479,12.229,12.232v39.947C219.751,162.325,214.271,167.805,207.518,167.805z"/>
		<path fill="#4F5C66" d="M207.518,232.219H35.346c-6.753,0-12.232-5.478-12.232-12.23v-39.949c0-6.754,5.479-12.232,12.232-12.232
			h172.169c6.756,0,12.229,5.479,12.229,12.232v39.947C219.751,226.741,214.271,232.219,207.518,232.219z"/>
		<circle fill="#4B79AA" cx="55.321" cy="71.181" r="11.866"/>
		<circle fill="#DDE2ED" cx="189.236" cy="66.096" r="3.39"/>
		<circle fill="#DDE2ED" cx="175.677" cy="66.096" r="3.39"/>
		<circle fill="#DDE2ED" cx="196.02" cy="76.266" r="3.39"/>
		<circle fill="#DDE2ED" cx="182.458" cy="76.266" r="3.39"/>
		<circle fill="#DDE2ED" cx="162.116" cy="66.096" r="3.39"/>
		<circle fill="#DDE2ED" cx="168.896" cy="76.266" r="3.39"/>
		<circle fill="#DDE2ED" cx="148.555" cy="66.096" r="3.39"/>
		<circle fill="#DDE2ED" cx="155.334" cy="76.266" r="3.39"/>
		<circle fill="#DDE2ED" cx="134.993" cy="66.096" r="3.39"/>
		<circle fill="#DDE2ED" cx="141.771" cy="76.266" r="3.39"/>
		<circle fill="#4B79AA" cx="55.321" cy="135.596" r="11.866"/>
		<circle fill="#DDE2ED" cx="189.236" cy="130.511" r="3.39"/>
		<circle fill="#DDE2ED" cx="175.677" cy="130.511" r="3.39"/>
		<circle fill="#DDE2ED" cx="196.02" cy="140.681" r="3.39"/>
		<circle fill="#DDE2ED" cx="182.458" cy="140.681" r="3.39"/>
		<circle fill="#DDE2ED" cx="162.116" cy="130.511" r="3.39"/>
		<circle fill="#DDE2ED" cx="168.896" cy="140.681" r="3.39"/>
		<circle fill="#DDE2ED" cx="148.555" cy="130.511" r="3.39"/>
		<circle fill="#DDE2ED" cx="155.334" cy="140.681" r="3.39"/>
		<circle fill="#DDE2ED" cx="134.993" cy="130.511" r="3.39"/>
		<circle fill="#DDE2ED" cx="141.771" cy="140.681" r="3.39"/>
		<circle fill="#4B79AA" cx="55.321" cy="200.011" r="11.866"/>
		<circle fill="#DDE2ED" cx="189.236" cy="194.926" r="3.391"/>
		<circle fill="#DDE2ED" cx="175.677" cy="194.926" r="3.391"/>
		<circle fill="#DDE2ED" cx="196.02" cy="205.097" r="3.39"/>
		<circle fill="#DDE2ED" cx="182.458" cy="205.097" r="3.39"/>
		<circle fill="#DDE2ED" cx="162.116" cy="194.926" r="3.391"/>
		<circle fill="#DDE2ED" cx="168.896" cy="205.097" r="3.39"/>
		<circle fill="#DDE2ED" cx="148.555" cy="194.926" r="3.391"/>
		<circle fill="#DDE2ED" cx="155.334" cy="205.097" r="3.39"/>
		<circle fill="#DDE2ED" cx="134.993" cy="194.926" r="3.391"/>
		<circle fill="#DDE2ED" cx="141.771" cy="205.097" r="3.39"/>
	</g>
	<g>
		<g>
			<path fill="#64AED8" d="M202.951,202.083c-0.174-13.343-10.725-24.106-23.729-24.106c-8.707,0-16.297,4.834-20.43,12.021
				c-1.427-0.479-2.947-0.745-4.529-0.745c-6.996,0-12.832,5.061-14.27,11.812c-5.95,2.934-10.092,9.174-10.092,16.377
				c0,9.996,7.943,18.17,17.656,18.17h36.53c0.206,0,0.403-0.022,0.611-0.03c0.202,0.008,0.401,0.03,0.608,0.03h14.609
				c9.043,0,16.438-7.61,16.438-16.913C216.359,210.458,210.555,203.559,202.951,202.083z"/>
			<path fill="#B1D3EF" d="M199.92,239h-14.611c-0.215,0-0.428-0.016-0.638-0.027c-0.159,0.017-0.366,0.027-0.579,0.027h-36.527
				c-11.604,0-21.047-9.673-21.047-21.557c0-7.67,4.102-14.821,10.564-18.656c2.325-7.577,9.311-12.928,17.176-12.928
				c1.002,0,2.008,0.086,2.996,0.259c5.072-7.175,13.27-11.534,21.969-11.534c13.907,0,25.508,10.936,26.967,24.857
				c7.994,2.729,13.562,10.438,13.562,19.252C219.751,229.893,210.854,239,199.92,239z M184.539,232.188l0.63,0.021l14.751,0.011
				c7.193,0,13.049-6.066,13.049-13.521c0-6.5-4.484-12.085-10.664-13.286l-2.709-0.525l-0.037-2.756
				c-0.146-11.449-9.267-20.763-20.336-20.763c-7.238,0-13.771,3.858-17.486,10.321l-1.387,2.41l-2.635-0.885
				c-1.125-0.38-2.287-0.572-3.455-0.572c-5.221,0-9.824,3.842-10.947,9.127l-0.346,1.609l-1.475,0.727
				c-4.98,2.457-8.194,7.689-8.194,13.34c0,8.146,6.401,14.775,14.267,14.775L184.539,232.188z"/>
		</g>
	</g>
</g>
</svg>
