<?xml version="1.0" encoding="utf-8"?>
<!-- Generator: Adobe Illustrator 15.0.0, SVG Export Plug-In . SVG Version: 6.00 Build 0)  -->
<!DOCTYPE svg PUBLIC "-//W3C//DTD SVG 1.1//EN" "http://www.w3.org/Graphics/SVG/1.1/DTD/svg11.dtd">
<svg version="1.1" id="Layer_1" xmlns="http://www.w3.org/2000/svg" xmlns:xlink="http://www.w3.org/1999/xlink" x="0px" y="0px"
	 width="240px" height="240px" viewBox="0 0 240 240" enable-background="new 0 0 240 240" xml:space="preserve">
<path fill="#F4B651" d="M222.536,94.361c0.365-2.196,0.73-4.759,0.73-6.955c0-19.767-15.739-35.873-35.14-36.605
	C183.002,28.472,163.235,12,139.442,12c-16.106,0-30.382,7.321-39.534,19.401c-2.196-0.366-4.759-0.732-7.321-0.732
	c-19.767,0-36.605,12.812-42.828,30.382c-23.062,7.687-39.534,28.552-39.534,54.542c0,32.213,25.99,57.47,58.568,57.47h99.932
	c32.213,0,58.568-25.257,58.568-57.47C226.928,107.905,225.464,101.316,222.536,94.361z"/>
<g>
	<path fill="#F4C37D" d="M223.267,95.826c0,1.098,0,1.83,0,2.929c0,2.562-0.365,4.759-0.73,6.955
		c2.195,5.125,3.294,10.615,4.025,16.106c0.366-1.831,0.366-3.661,0.366-5.857C226.928,109.003,225.464,102.415,223.267,95.826z"/>
	<path fill="#F4C37D" d="M50.125,72.764c6.223-17.57,23.061-30.382,42.828-30.382c2.562,0,4.759,0.366,7.321,0.732
		c9.151-11.713,23.427-19.4,39.533-19.4c23.794,0,43.926,16.472,49.051,38.801c17.57,0.732,31.847,13.91,34.775,30.748
		C224,91.433,224,89.603,224,87.407c0-19.767-15.741-35.873-35.142-36.605C183.002,28.472,163.235,12,139.442,12
		c-16.106,0-30.382,7.321-39.534,19.401c-2.196-0.366-4.759-0.732-7.321-0.732c-19.767,0-36.605,12.812-42.828,30.382
		c-23.062,7.687-39.534,29.65-39.534,55.273c0,1.831,0,4.026,0.366,5.856C12.788,99.12,28.528,79.719,50.125,72.764z"/>
	<path fill="#F4C37D" d="M199.475,113.03c0,0.732,0,1.464,0,2.196c0,1.831-0.366,3.661-0.366,5.491
		c1.464,4.026,2.562,8.054,2.928,12.446c0-1.465,0.366-2.929,0.366-4.393C202.402,122.914,201.305,117.789,199.475,113.03z"/>
	<path fill="#F4C37D" d="M65.5,94.728C70.258,81.184,83.07,71.3,98.444,71.3c1.831,0,3.661,0.366,5.491,0.366
		c6.955-9.151,18.303-15.008,30.381-15.008c18.304,0,33.678,12.812,37.704,30.016c13.543,0.732,24.525,10.615,26.721,23.793
		c0.367-1.464,0.367-2.929,0.367-4.393c0-15.375-12.08-27.454-27.088-28.186c-4.026-17.205-19.4-30.016-37.704-30.016
		c-12.444,0-23.427,5.856-30.381,15.008c-1.831-0.366-3.661-0.366-5.491-0.366c-15.374,0-28.186,9.883-32.944,23.427
		c-17.937,5.857-30.749,22.695-30.749,42.828c0,1.464,0,2.928,0.366,4.758C36.948,115.226,49.027,100.219,65.5,94.728z"/>
	<path fill="#F4C37D" d="M181.904,134.262c0,0.731,0,1.097,0,1.829c0,1.465,0,2.929-0.367,4.394c1.1,2.928,2.196,6.222,2.562,9.883
		c0-1.099,0-2.196,0-3.661C184.467,142.314,183.367,138.288,181.904,134.262z"/>
	<path fill="#F4C37D" d="M76.847,119.985c3.661-10.615,13.911-18.302,25.99-18.302c1.464,0,2.928,0,4.393,0.366
		c5.491-6.955,14.276-11.713,24.16-11.713c14.642,0,26.721,10.249,29.648,23.427c10.616,0.366,19.401,8.418,20.866,18.669
		c0.365-1.1,0.365-2.197,0.365-3.661c0-12.081-9.518-21.597-21.231-22.329c-3.294-13.544-15.374-23.428-29.648-23.428
		c-9.884,0-18.304,4.759-24.16,11.714c-1.464-0.366-2.929-0.366-4.393-0.366c-12.079,0-22.329,7.687-25.99,18.303
		c-13.91,4.759-24.159,17.938-24.159,33.677c0,1.098,0,2.562,0.366,3.66C54.518,136.091,64.035,124.378,76.847,119.985z"/>
</g>
<path fill="#214551" d="M180.806,149.269c0,5.125-4.026,9.152-9.151,9.152H65.5c-5.125,0-9.151-4.027-9.151-9.152l0,0
	c0-5.124,4.027-9.15,9.151-9.15h106.155C176.779,140.118,180.806,144.145,180.806,149.269L180.806,149.269z"/>
<path fill="#102D35" d="M56.348,149.269L56.348,149.269c0-5.124,4.027-9.15,9.151-9.15h106.155c5.125,0,9.151,4.026,9.151,9.15l0,0"
	/>
<polygon fill="#DCEAF4" points="74.651,140.118 74.651,213.328 102.471,238.951 162.503,238.951 162.503,140.118 "/>
<polyline fill="#DCEAF4" points="162.503,238.951 162.503,140.118 74.651,140.118 "/>
<polyline fill="#D4E8E5" points="162.503,187.705 162.503,140.118 74.651,140.118 "/>
<polygon fill="#D6E5E3" points="124.068,238.951 102.471,213.328 102.471,238.951 114.184,238.951 "/>
<polygon fill="#8AADC1" points="74.651,213.328 102.471,238.951 102.471,213.328 "/>
<polygon fill="#799BAA" points="88.561,226.14 102.471,238.951 102.471,213.328 "/>
<g>
	<path fill="#102D35" d="M145.664,160.251c0,1.098-1.097,1.829-2.195,1.829H93.319c-1.098,0-2.196-0.731-2.196-1.829l0,0
		c0-1.098,1.098-1.83,2.196-1.83h50.515C144.933,158.421,145.664,159.153,145.664,160.251L145.664,160.251z"/>
	<path fill="#102D35" d="M145.664,174.893c0,1.099-1.097,1.83-2.195,1.83H93.319c-1.098,0-2.196-0.731-2.196-1.83l0,0
		c0-1.098,1.098-1.83,2.196-1.83h50.515C144.933,173.062,145.664,173.795,145.664,174.893L145.664,174.893z"/>
	<path fill="#102D35" d="M145.664,189.535c0,1.098-1.097,1.83-2.195,1.83H93.319c-1.098,0-2.196-0.732-2.196-1.83l0,0
		c0-1.099,1.098-1.83,2.196-1.83h50.515C144.933,187.705,145.664,188.437,145.664,189.535L145.664,189.535z"/>
</g>
</svg>
