<?xml version="1.0" encoding="utf-8"?>
<!-- Generator: Adobe Illustrator 15.0.0, SVG Export Plug-In . SVG Version: 6.00 Build 0)  -->
<!DOCTYPE svg PUBLIC "-//W3C//DTD SVG 1.1//EN" "http://www.w3.org/Graphics/SVG/1.1/DTD/svg11.dtd">
<svg version="1.1" id="Layer_1" xmlns="http://www.w3.org/2000/svg" xmlns:xlink="http://www.w3.org/1999/xlink" x="0px" y="0px"
	 width="240px" height="240px" viewBox="0 0 240 240" enable-background="new 0 0 240 240" xml:space="preserve">
<path d="M228.554,75.35V64.524c0-6.729-5.508-12.234-12.234-12.234H59.629H22.926c-6.729,0-12.234,5.504-12.234,12.234v10.822
	h217.862V75.35z"/>
<g opacity="0.25">
	<path fill="#FFFFFF" d="M73.256,52.291H59.629H22.926c-6.729,0-12.234,5.504-12.234,12.234v10.822h49.312L73.256,52.291z"/>
</g>
<circle fill="#D80E47" cx="27.936" cy="63.819" r="3.482"/>
<circle fill="#57D307" cx="38.387" cy="63.819" r="3.482"/>
<g>
	<circle fill="#EDCE4C" cx="48.838" cy="63.819" r="3.482"/>
	<path fill="#FFFFFF" d="M192.916,69.937H83.4c-3.364,0-6.118-2.753-6.118-6.117l0,0c0-3.363,2.753-6.118,6.118-6.118h109.516
		c3.364,0,6.118,2.754,6.118,6.118l0,0C199.038,67.184,196.282,69.937,192.916,69.937z"/>
</g>
<g>
	<rect x="206.993" y="63.125" fill="#FFFFFF" width="9.788" height="1.703"/>
	<polygon fill="#FFFFFF" points="212.637,69.052 211.429,67.85 215.303,63.977 211.429,60.102 212.637,58.901 217.708,63.977 	"/>
</g>
<polygon fill="#C9C9C9" points="193.585,61.842 190.328,66.056 187.072,61.842 "/>
<rect x="10.691" y="75.35" fill="#EFB98F" width="217.862" height="156.623"/>
<rect x="17.493" y="82.179" fill="#6A95AA" width="204.247" height="142.971"/>
<g opacity="0.75">
	<path fill="#FFFFFF" d="M220.044,83.88v139.568H19.201V83.88H220.044 M221.747,82.179H17.5v142.971h204.248V82.179L221.747,82.179z
		"/>
</g>
<path fill="#FFFFFF" d="M166.453,136.642h-2.141c-2.132-9.006-10.205-15.756-19.863-15.756c-2.347,0-4.722,0.52-6.688,1.181
	c-4.725-13.473-17.519-23.15-32.604-23.15c-19.097,0-34.58,15.483-34.58,34.581c0,1.199,0.063,2.391,0.183,3.559
	c-12.554,2.173-22.188,13.156-22.188,26.302c0,14.694,12.025,26.72,26.72,26.72h91.161c14.696,0,26.723-12.025,26.723-26.72
	C193.176,148.666,181.149,136.642,166.453,136.642z"/>
<path fill="#E0E0E0" d="M137.756,122.066c0,0,3.796,7.039,3.796,20.663c0,0,4.625-8.715,4.625-21.768
	C146.18,120.962,142.451,120.443,137.756,122.066z"/>
<path fill="#2559A5" d="M199.72,188.577v-9.756l-4.878-1.83c-0.608-2.132-1.22-3.961-2.438-5.789l2.134-4.573l-7.012-7.009
	l-4.57,2.133c-1.83-0.914-3.657-1.83-5.791-2.439l-1.83-4.876h-9.753l-1.83,4.876c-2.132,0.609-3.964,1.222-5.792,2.439l-4.57-2.133
	l-7.014,7.009l2.134,4.572c-0.914,1.829-1.828,3.658-2.437,5.79l-4.879,1.829v9.756l4.879,1.83c0.608,2.134,1.218,3.961,2.437,5.788
	l-2.134,4.572l7.013,7.014l4.57-2.135c1.829,0.916,3.659,1.83,5.792,2.438l1.829,4.879h9.755l1.828-4.879
	c2.134-0.607,3.962-1.218,5.791-2.438l4.571,2.135l7.012-7.013l-2.133-4.573c0.914-1.827,1.828-3.654,2.437-5.787L199.72,188.577z
	 M182.345,183.7c0,6.707-5.487,11.888-11.888,11.888c-6.706,0-11.89-5.181-11.89-11.888s5.488-11.889,11.89-11.889
	C177.162,171.812,182.345,176.991,182.345,183.7z"/>
</svg>
