<?xml version="1.0" encoding="utf-8"?>
<!-- Generator: Adobe Illustrator 15.0.0, SVG Export Plug-In . SVG Version: 6.00 Build 0)  -->
<!DOCTYPE svg PUBLIC "-//W3C//DTD SVG 1.1//EN" "http://www.w3.org/Graphics/SVG/1.1/DTD/svg11.dtd">
<svg version="1.1" id="Capa_1" xmlns="http://www.w3.org/2000/svg" xmlns:xlink="http://www.w3.org/1999/xlink" x="0px" y="0px"
	 width="400px" height="400px" viewBox="56 112 400 400" enable-background="new 56 112 400 400" xml:space="preserve">
<g>
	<path fill="#13448C" d="M361.224,337.42h-8.031c-7.505,0-13.607,6.094-13.607,13.584v8.412h-43.831v-27.358
		c16.066-5.177,26.249-26.621,26.249-56.223c0-31.827-11.76-54.252-29.962-57.134c-0.231-0.035-0.458-0.053-0.693-0.053H115.094
		c-2.12,0-3.939,1.508-4.327,3.589h-0.004c-0.088,0.471-2.08,11.648,5.478,20.737c5.014,6.031,12.867,9.541,23.318,10.535
		c-1.573,6.994-2.432,14.562-2.432,22.325c0,32.063,13.55,57.187,30.845,57.187l0,0h92.533v57.042
		c0,7.354,5.997,13.342,13.365,13.342h8.522c5.763,0,10.642-3.682,12.513-8.798h44.682v21.607c0,7.491,6.103,13.584,13.607,13.584
		h8.031c7.505,0,13.607-6.093,13.607-13.584v-65.206C374.835,343.518,368.729,337.42,361.224,337.42z M290.974,227.446
		c10.563,1.918,21.097,16.202,22.111,43.991h-90.418l-16.334-16.308c-0.828-0.827-1.948-1.289-3.115-1.289h-8.813h-1.534h-17.559
		h-4.715c-1.185-1.935-2.754-3.813-4.472-5.661c0.035,0.03,0.087,0.039,0.123,0.074c-0.229-0.246-0.511-0.497-0.749-0.743
		c-0.688-0.713-1.384-1.421-2.132-2.116c-0.229-0.211-0.49-0.426-0.728-0.642c-7.575-6.805-17.801-12.805-26.769-17.306H290.974z
		 M123.078,237.432c-2.128-2.524-3.067-5.358-3.485-7.799c6.645,2.846,15.461,7.06,23.591,11.943
		c-0.431,1.085-0.828,2.208-1.22,3.342C133.138,244.36,126.797,241.849,123.078,237.432z M154.751,269.972
		c0-7.959,1.666-13.857,3.221-17.641c2.71,2.569,4.807,5.178,5.992,7.751c0.723,1.558,2.283,2.561,4.006,2.561h12.672
		c0.335,2.38,0.546,4.816,0.546,7.334c0,14.841-6.178,27.856-13.219,27.856S154.751,284.813,154.751,269.972z M184.15,324.224
		c0.123-0.146,0.229-0.325,0.352-0.471c0.851-1.029,1.675-2.124,2.468-3.299c0.124-0.181,0.255-0.339,0.374-0.528
		c0.908-1.381,1.768-2.868,2.587-4.425c0.212-0.405,0.41-0.836,0.617-1.254c0.6-1.2,1.167-2.442,1.71-3.735
		c0.224-0.536,0.445-1.072,0.66-1.623c0.529-1.354,1.022-2.749,1.49-4.183c0.146-0.449,0.304-0.884,0.445-1.342
		c0.577-1.896,1.102-3.85,1.565-5.864c0.087-0.378,0.15-0.771,0.232-1.153c0.358-1.653,0.67-3.342,0.944-5.062
		c0.105-0.664,0.193-1.337,0.286-2.011c0.211-1.553,0.383-3.127,0.52-4.725c0.058-0.655,0.124-1.297,0.167-1.962
		c0.15-2.222,0.248-4.469,0.248-6.752c0-0.004,0-0.013,0-0.019v-13.179h2.582l16.333,16.308c0.829,0.826,1.948,1.288,3.116,1.288
		h92.243c-1.013,27.789-11.549,42.072-22.111,43.99h-30.475H184.15L184.15,324.224z M295.75,385.811v-17.598h43.829v17.598H295.75z"
		/>
	<ellipse fill="#13448C" cx="251.69" cy="306.627" rx="4.407" ry="4.399"/>
	<ellipse fill="#13448C" cx="234.065" cy="306.627" rx="4.407" ry="4.399"/>
	<ellipse fill="#13448C" cx="216.44" cy="306.627" rx="4.406" ry="4.399"/>
</g>
</svg>
