<?xml version="1.0" encoding="utf-8"?>
<!-- Generator: Adobe Illustrator 15.0.0, SVG Export Plug-In . SVG Version: 6.00 Build 0)  -->
<!DOCTYPE svg PUBLIC "-//W3C//DTD SVG 1.1//EN" "http://www.w3.org/Graphics/SVG/1.1/DTD/svg11.dtd">
<svg version="1.1" id="Capa_1" xmlns="http://www.w3.org/2000/svg" xmlns:xlink="http://www.w3.org/1999/xlink" x="0px" y="0px"
	 width="400px" height="400px" viewBox="0 0 400 400" enable-background="new 0 0 400 400" xml:space="preserve">
<g>
	<path fill="#13448C" d="M343.324,223H140.278v27.932h-10.011V223h-19.181v27.932h-10.002V223H83.155v27.932h-10.01V223H19.783
		c-2.766,0-5.008,2.242-5.008,5.007v32.163c-0.007-0.004-0.016-0.01-0.024-0.014c0.008,0.386,0.029,0.771,0.029,1.155
		c0,1.041-0.03,2.076-0.086,3.102c0.052,0.956,0.086,1.915,0.086,2.882c0,0.575-0.029,1.142-0.046,1.709
		c0.019,0.593,0.046,1.185,0.046,1.78c0,0.83-0.029,1.654-0.065,2.479c0.021-0.01,0.042-0.021,0.063-0.029v33.15
		c0,2.766,2.241,5.008,5.007,5.008h323.539c2.765,0,5.008-2.242,5.008-5.008v-78.372C348.332,225.244,346.089,223.002,343.324,223z
		 M235.96,238.835h67.346v12.515H235.96V238.835z M304.966,285.326H61.48v-22.513h243.486V285.326z"/>
	<path fill="#13448C" d="M280.578,281.368c3.922,0,7.09-3.165,7.09-7.083c0-3.921-3.168-7.087-7.09-7.087
		c-3.916,0-7.094,3.166-7.094,7.087C273.484,278.203,276.66,281.368,280.578,281.368z"/>
	<path fill="#13448C" d="M207.604,281.366c3.914,0,7.09-3.168,7.09-7.088c0-3.916-3.168-7.088-7.09-7.088
		c-3.908,0-7.084,3.168-7.084,7.088C200.52,278.203,203.693,281.368,207.604,281.366z"/>
	<path fill="#13448C" d="M243.048,281.368c3.923,0,7.097-3.165,7.097-7.083c0-3.921-3.174-7.087-7.097-7.087
		c-3.92,0-7.088,3.166-7.088,7.087C235.96,278.203,239.128,281.368,243.048,281.368z"/>
</g>
</svg>
