<?xml version="1.0" encoding="utf-8"?>
<!-- Generator: Adobe Illustrator 15.0.0, SVG Export Plug-In . SVG Version: 6.00 Build 0)  -->
<!DOCTYPE svg PUBLIC "-//W3C//DTD SVG 1.1//EN" "http://www.w3.org/Graphics/SVG/1.1/DTD/svg11.dtd">
<svg version="1.1" id="Layer_1" xmlns="http://www.w3.org/2000/svg" xmlns:xlink="http://www.w3.org/1999/xlink" x="0px" y="0px"
	 width="400px" height="400px" viewBox="0 0 400 400" enable-background="new 0 0 400 400" xml:space="preserve">
<g>
	<path fill="#13448C" d="M317.123,178.367h-93.67v-21.893c0-2.748-2.229-4.977-4.977-4.977h-39.035V82.049
		c0-2.748-2.229-4.976-4.977-4.976s-4.976,2.228-4.976,4.976v69.449h-9.507V82.049c0-2.748-2.228-4.976-4.976-4.976
		c-2.749,0-4.978,2.228-4.978,4.976v69.449h-39.033c-2.749,0-4.976,2.229-4.976,4.977v21.893H72.627
		c-2.749,0-4.976,2.229-4.976,4.979v10.811H49.958c-2.749,0-4.976,2.229-4.976,4.977v110.104c0,2.747,2.228,4.977,4.976,4.977
		h212.11c2.75,0,4.977-2.229,4.977-4.977v-22.73h27.396c2.748,0,4.975-2.229,4.975-4.977v-46.604
		c13.641-8.885,22.682-24.26,22.682-41.715v-9.865C322.098,180.596,319.871,178.367,317.123,178.367z M115.973,161.451H213.5v16.916
		h-97.527V161.451z M257.096,304.259H54.936v-9.788h53.736c1.32,0,2.585-0.523,3.52-1.457l8.11-8.11
		c1.618,0.687,3.371,1.051,5.181,1.051c3.544,0,6.876-1.381,9.383-3.886c2.506-2.507,3.886-5.839,3.886-9.384
		c0-3.546-1.38-6.876-3.886-9.382c-5.173-5.174-13.59-5.176-18.766,0c-2.506,2.505-3.885,5.836-3.885,9.382
		c0,1.811,0.365,3.562,1.051,5.18l-6.654,6.656H54.936v-80.413h12.717v33.884c0,2.748,2.228,4.976,4.976,4.976h184.467v10.703
		h-53.736c-1.319,0-2.584,0.524-3.52,1.457l-8.109,8.111c-1.619-0.686-3.371-1.051-5.182-1.051c-3.544,0-6.876,1.38-9.382,3.887
		c-2.507,2.505-3.888,5.837-3.888,9.383c0,3.543,1.381,6.877,3.888,9.385c2.586,2.584,5.983,3.879,9.382,3.879
		c3.396,0,6.795-1.293,9.383-3.879c2.506-2.506,3.887-5.84,3.887-9.383c0-1.812-0.364-3.563-1.053-5.184l6.654-6.652h51.676V304.259
		L257.096,304.259z M122.166,272.686c0-0.887,0.345-1.719,0.972-2.346c0.647-0.646,1.497-0.971,2.345-0.971
		c0.85,0,1.699,0.323,2.346,0.971c0.627,0.627,0.972,1.459,0.972,2.347c0,0.887-0.345,1.719-0.972,2.346l0,0
		c-0.626,0.625-1.459,0.972-2.346,0.972c-0.885,0-1.718-0.347-2.345-0.972C122.511,274.405,122.166,273.572,122.166,272.686z
		 M189.865,275.457c0,0.885-0.344,1.719-0.971,2.346c-1.295,1.293-3.398,1.293-4.691,0c-0.626-0.627-0.971-1.461-0.971-2.348
		c0-0.885,0.345-1.719,0.971-2.345l0,0c0.627-0.627,1.459-0.972,2.346-0.972s1.719,0.345,2.346,0.973
		C189.521,273.737,189.865,274.57,189.865,275.457z M289.465,276.551h-22.418v-33.584h5.295c6.015,0,11.781-1.073,17.123-3.037
		V276.551L289.465,276.551z M312.146,193.209c0,21.949-17.857,39.808-39.808,39.808H77.604v-44.695h140.871h93.673L312.146,193.209
		L312.146,193.209z"/>
	<path fill="#13448C" d="M119.622,198.395h-25.21c-2.749,0-4.976,2.227-4.976,4.976c0,2.748,2.227,4.976,4.976,4.976h25.21
		c2.749,0,4.976-2.228,4.976-4.976C124.598,200.621,122.371,198.395,119.622,198.395z"/>
	<path fill="#13448C" d="M119.622,212.99h-25.21c-2.749,0-4.976,2.229-4.976,4.977s2.227,4.976,4.976,4.976h25.21
		c2.749,0,4.976-2.228,4.976-4.976S122.371,212.99,119.622,212.99z"/>
</g>
</svg>
