<?xml version="1.0" encoding="utf-8"?>
<!-- Generator: Adobe Illustrator 15.0.0, SVG Export Plug-In . SVG Version: 6.00 Build 0)  -->
<!DOCTYPE svg PUBLIC "-//W3C//DTD SVG 1.1//EN" "http://www.w3.org/Graphics/SVG/1.1/DTD/svg11.dtd">
<svg version="1.1" id="Layer_1" xmlns="http://www.w3.org/2000/svg" xmlns:xlink="http://www.w3.org/1999/xlink" x="0px" y="0px"
	 width="400px" height="400px" viewBox="0 0 400 400" enable-background="new 0 0 400 400" xml:space="preserve">
<g>
	<g>
		<g>
			<path fill="#13448C" d="M325.109,132.5H64.664H40.55v9.418h24.115v47.094h19.292v18.836h4.823v23.546
				C88.78,288.523,136.38,335,194.887,335c58.508,0,106.107-46.478,106.107-103.605v-23.546h4.821v-18.836h19.294v-47.094h24.115
				V132.5H325.109z M291.348,231.396c0,51.934-43.274,94.187-96.461,94.187c-53.188,0-96.46-42.253-96.46-94.187V207.85h192.922
				L291.348,231.396L291.348,231.396z M296.171,198.43H93.604v-9.418h202.567V198.43L296.171,198.43z M74.311,179.593v-37.674
				h241.153v37.674H74.311z"/>
			<path fill="#13448C" d="M194.887,316.162c23.935,0,43.406-19.014,43.406-42.383c0-23.368-19.472-42.383-43.406-42.383
				c-23.934,0-43.406,19.015-43.406,42.383C151.48,297.146,170.953,316.162,194.887,316.162z M194.887,240.814
				c18.617,0,33.762,14.787,33.762,32.965s-15.145,32.965-33.762,32.965c-18.616,0-33.762-14.787-33.762-32.965
				S176.271,240.814,194.887,240.814z"/>
			<path fill="#13448C" d="M194.887,297.325c13.297,0,24.115-10.564,24.115-23.547c0-12.983-10.818-23.547-24.115-23.547
				s-24.115,10.563-24.115,23.547C170.771,286.761,181.59,297.325,194.887,297.325z M194.887,259.65
				c7.979,0,14.47,6.339,14.47,14.129s-6.491,14.128-14.47,14.128s-14.469-6.339-14.469-14.128
				C180.417,265.989,186.908,259.65,194.887,259.65z"/>
			<polygon fill="#13448C" points="193.475,281.816 186.656,275.157 196.303,265.739 203.122,272.399 			"/>
			<rect x="170.771" y="156.045" fill="#13448C" width="9.646" height="9.418"/>
			<rect x="190.064" y="156.045" fill="#13448C" width="9.646" height="9.418"/>
			<rect x="209.356" y="156.045" fill="#13448C" width="9.646" height="9.418"/>
		</g>
	</g>
</g>
</svg>
