<?xml version="1.0" encoding="utf-8"?>
<!-- Generator: Adobe Illustrator 15.0.0, SVG Export Plug-In . SVG Version: 6.00 Build 0)  -->
<!DOCTYPE svg PUBLIC "-//W3C//DTD SVG 1.1//EN" "http://www.w3.org/Graphics/SVG/1.1/DTD/svg11.dtd">
<svg version="1.1" id="Layer_1" xmlns="http://www.w3.org/2000/svg" xmlns:xlink="http://www.w3.org/1999/xlink" x="0px" y="0px"
	 width="400px" height="400px" viewBox="0 0 400 400" enable-background="new 0 0 400 400" xml:space="preserve">
<path fill="#13448C" d="M225.41,113.598L208.204,84.69c-1.44-2.317-3.798-3.915-6.483-4.395c-0.686-0.121-17.019-2.987-41.425-2.987
	c-22.514,0-56.516,2.559-90.656,14.751c-3.834,1.37-6.392,5-6.392,9.072v25.542c0,3.134,1.522,6.068,4.083,7.873
	c1.646,1.16,3.589,1.759,5.55,1.759c1.089,0,2.185-0.185,3.238-0.561c31.54-11.266,67.503-13.629,92.117-13.629
	c3.22,0,6.328,0.041,9.313,0.109c-15.948,8.066-30.042,21.312-41.299,39.159c-11.471,18.189-19.59,40.523-23.208,62.935
	c-14.316,0.027-25.956,11.468-25.956,25.524c0,14.076,11.667,25.526,26.007,25.526h15.497c8.187,40.734,44.218,71.52,87.329,71.52
	c43.109,0,79.141-30.785,87.329-71.52h15.496c14.34,0,26.007-11.45,26.007-25.526c0-14.058-11.639-25.497-25.955-25.524
	c-3.617-22.411-11.738-44.744-23.208-62.935C277.919,133.371,253.264,116.682,225.41,113.598L225.41,113.598z M82.513,113.479v-5.44
	c29.376-9.411,58.209-11.466,77.781-11.466c15.699,0,27.892,1.287,33.909,2.08l3.232,5.197c-7.957-0.548-17.924-1-29.199-1
	C135.989,102.852,107.227,106.422,82.513,113.479L82.513,113.479z M152.548,171.661c11.313-17.94,31.492-39.328,63.371-39.328
	c31.88,0,52.058,21.388,63.371,39.328c9.462,15.002,16.442,33.813,19.904,52.659h-166.55
	C136.106,205.477,143.085,186.663,152.548,171.661z M215.919,327.626c-32.433,0-59.737-22.234-67.553-52.255h13.021
	c7.438,23.027,29.062,39.734,54.531,39.734c5.318,0,9.632-4.314,9.632-9.635c0-5.319-4.312-9.632-9.632-9.632
	c-14.641,0-27.361-8.315-33.718-20.469h40.84c-0.509,2.003-0.778,4.103-0.778,6.261c0,14.03,11.413,25.445,25.443,25.445
	c14.029,0,25.445-11.415,25.445-25.445c0-2.158-0.272-4.258-0.781-6.261h11.129C275.683,305.395,248.354,327.626,215.919,327.626
	L215.919,327.626z M253.887,281.632c0,3.408-2.773,6.181-6.181,6.181c-3.408,0-6.181-2.771-6.181-6.181s2.771-6.181,6.181-6.181
	C251.113,275.451,253.887,278.227,253.887,281.632z M318.743,256.105H113.095c-3.655,0-6.742-2.865-6.742-6.26
	s3.087-6.261,6.742-6.261h205.649c3.653,0,6.741,2.866,6.741,6.261C325.485,253.239,322.397,256.105,318.743,256.105
	L318.743,256.105z"/>
</svg>
