<?xml version="1.0" encoding="utf-8"?>
<!-- Generator: Adobe Illustrator 15.0.0, SVG Export Plug-In . SVG Version: 6.00 Build 0)  -->
<!DOCTYPE svg PUBLIC "-//W3C//DTD SVG 1.1//EN" "http://www.w3.org/Graphics/SVG/1.1/DTD/svg11.dtd">
<svg version="1.1" id="Layer_1" xmlns="http://www.w3.org/2000/svg" xmlns:xlink="http://www.w3.org/1999/xlink" x="0px" y="0px"
	 width="300px" height="300px" viewBox="0 0 300 300" enable-background="new 0 0 300 300" xml:space="preserve">
<path fill="#274E75" d="M287.5,46.875h-275C5.625,46.875,0,52.5,0,59.375v186.25c0,6.875,5.625,12.5,12.5,12.5h275
	c6.875,0,12.5-5.625,12.5-12.5V59.375C300,52.5,294.375,46.875,287.5,46.875z"/>
<rect x="18.75" y="65.625" fill="#FFFFFF" width="262.5" height="173.125"/>
<rect x="92.5" y="258.125" fill="#CDD6E0" width="114.375" height="33.75"/>
<rect x="58.125" y="291.875" fill="#F2F2F2" width="183.75" height="8.125"/>
<rect x="92.5" y="258.125" fill="#ACB3BA" width="114.375" height="9.375"/>
<path fill="#F2F2F2" d="M258.75,70v158.75c0,5.625-4.375,10-10,10H50.625c-5.625,0-10-4.375-10-10V70H258.75z"/>
<g>
	<path fill="#FFFFFF" d="M151.25,114.375v23.75c-0.625,0-0.625,0-1.25,0c-0.625,0-0.625,0-1.25,0v-23.75H151.25z"/>
	<path fill="#FFFFFF" d="M151.25,205.625v23.75h-2.5v-23.75c0.625,0,0.625,0,1.25,0C150.625,205.625,150.625,205.625,151.25,205.625
		z"/>
	<path fill="#FFFFFF" d="M191.25,131.875l-16.875,16.875c-0.625-0.625-1.25-1.25-1.875-1.875L189.375,130L191.25,131.875z"/>
	<path fill="#FFFFFF" d="M126.875,196.875L110,213.75l-1.875-1.875L125,195C125.625,195.625,126.25,196.25,126.875,196.875z"/>
	<path fill="#FFFFFF" d="M207.5,170.625v2.5h-23.125c0-0.625,0-0.625,0-1.25s0-0.625,0-1.25H207.5L207.5,170.625z"/>
	<path fill="#FFFFFF" d="M116.25,171.875c0,0.625,0,0.625,0,1.25H93.125v-2.5h23.125C116.25,170.625,116.25,171.25,116.25,171.875z"
		/>
	<path fill="#FFFFFF" d="M191.25,211.25l-1.875,1.875l-16.25-16.249c0.625-0.626,1.25-1.251,1.875-1.876L191.25,211.25z"/>
	<path fill="#FFFFFF" d="M126.875,146.875c-0.625,0.625-1.25,1.25-1.875,1.875l-16.875-16.875L110,130L126.875,146.875z"/>
	<path fill="#FFFFFF" d="M138.125,140c-0.625,0-1.25,0.625-2.5,1.25L130,128.125l2.5-1.25L138.125,140z"/>
	<path fill="#FFFFFF" d="M169.375,216.25l-2.5,1.25l-5.625-13.125c0.625,0,1.25-0.625,2.5-1.25L169.375,216.25z"/>
	<path fill="#FFFFFF" d="M119.375,157.5c-0.625,0.625-0.625,1.25-1.25,2.5L105,154.375l1.25-2.5L119.375,157.5z"/>
	<path fill="#FFFFFF" d="M195,189.375l-1.25,2.5l-13.125-5.625c0.625-0.625,0.625-1.25,1.25-2.5L195,189.375z"/>
	<path fill="#FFFFFF" d="M119.375,185.625l-13.125,5.625l-1.25-2.5l13.125-5.625C118.75,184.375,118.75,185,119.375,185.625z"/>
	<path fill="#FFFFFF" d="M195,154.375L181.875,160c0-0.625-0.625-1.25-1.25-2.5l13.125-5.625L195,154.375z"/>
	<path fill="#FFFFFF" d="M138.125,203.75l-5.625,13.125l-2.5-1.25l5.625-13.125C136.875,203.125,137.5,203.125,138.125,203.75z"/>
	<path fill="#FFFFFF" d="M169.375,127.5l-5,13.125c-0.625-0.625-1.25-0.625-2.5-1.25l5.625-13.125L169.375,127.5z"/>
</g>
<path fill="#5E1818" d="M246.25,0H53.75c-6.875,0-12.5,5.625-12.5,12.5V45h218.125V12.5C258.75,5.625,253.125,0,246.25,0z"/>
<polygon fill="#40596B" points="194.375,163.75 206.25,206.25 216.875,195.625 226.875,206.25 236.25,196.875 226.25,186.25 
	236.25,175.625 "/>
<ellipse fill="#F2E9DD" cx="123.125" cy="22.5" rx="7.5" ry="7.5"/>
<ellipse fill="#FF7058" cx="94.375" cy="22.5" rx="7.5" ry="7.5"/>
<ellipse fill="#CECECE" cx="65.625" cy="22.5" rx="7.5" ry="7.5"/>
<path fill="#E4EAEF" d="M258.75,75v29.375C255,107.5,250,108.75,245,108.75c-13.125,0-23.75-10.625-23.75-23.75
	c0,13.125-10.625,23.75-23.75,23.75S173.75,98.125,173.75,85c0,13.125-10.625,23.75-23.75,23.75c-13.125,0-23.75-10.625-23.75-23.75
	c0,13.125-10.625,23.75-23.75,23.75S78.75,98.125,78.75,85c0,13.125-10.625,23.75-23.75,23.75c-5,0-10-1.875-13.75-4.375V75
	C41.25,75,258.75,75,258.75,75z"/>
<polygon fill="#FF7058" points="78.75,70 31.25,70 41.25,45 84.375,45 "/>
<polygon fill="#CDD6E0" points="126.25,70 78.75,70 84.375,45 128.125,45 "/>
<polygon fill="#FF7058" points="173.75,70 126.25,70 128.125,45 171.875,45 "/>
<polygon fill="#CDD6E0" points="221.25,70 173.75,70 171.875,45 215.625,45 "/>
<polygon fill="#FF7058" points="268.75,70 221.25,70 215.625,45 258.75,45 "/>
<g>
	<path fill="#ACB3BA" d="M78.75,80.625c0,13.125,10.625,23.75,23.75,23.75s23.75-10.625,23.75-23.75V70h-47.5V80.625L78.75,80.625z"
		/>
	<path fill="#ACB3BA" d="M173.75,70v10.625c0,13.125,10.625,23.75,23.75,23.75s23.75-10.625,23.75-23.75V70H173.75z"/>
</g>
<g>
	<path fill="#F1543F" d="M31.25,80.625c0,13.125,10.625,23.75,23.75,23.75s23.75-10.625,23.75-23.75V70h-47.5V80.625z"/>
	<path fill="#F1543F" d="M126.25,80.625c0,13.125,10.625,23.75,23.75,23.75c13.125,0,23.75-10.625,23.75-23.75V70h-47.5V80.625
		L126.25,80.625z"/>
	<path fill="#F1543F" d="M221.25,70v10.625c0,13.125,10.625,23.75,23.75,23.75s23.75-10.625,23.75-23.75V70H221.25z"/>
</g>
<ellipse fill="#D3A420" cx="150" cy="171.875" rx="36.875" ry="37.5"/>
<g>
	<path fill="#FFFFFF" d="M143.75,183.125l-1.25-4.375h28.75v-21.875h-34.375L135,148.75h-10v3.75h7.5l8.75,34.375h31.25v-3.75
		H143.75z M167.5,160v14.375h-25.625L138.125,160H167.5z"/>
	<ellipse fill="#FFFFFF" cx="149.375" cy="193.75" rx="4.375" ry="4.375"/>
	<ellipse fill="#FFFFFF" cx="165.625" cy="193.75" rx="4.375" ry="4.375"/>
</g>
</svg>
