<?xml version="1.0" encoding="utf-8"?>
<!-- Generator: Adobe Illustrator 15.0.0, SVG Export Plug-In . SVG Version: 6.00 Build 0)  -->
<!DOCTYPE svg PUBLIC "-//W3C//DTD SVG 1.1//EN" "http://www.w3.org/Graphics/SVG/1.1/DTD/svg11.dtd">
<svg version="1.1" id="Capa_1" xmlns="http://www.w3.org/2000/svg" xmlns:xlink="http://www.w3.org/1999/xlink" x="0px" y="0px"
	 width="521px" height="521px" viewBox="0 0 521 521" enable-background="new 0 0 521 521" xml:space="preserve">
<g>
	<g>
		<g>
			<path fill="#225987" d="M48.901,305.062H276.91c16.79,0,30.399-13.61,30.399-30.399V130.256c0-16.79-13.609-30.401-30.399-30.401
				H48.901c-16.791,0-30.401,13.611-30.401,30.401v144.405C18.5,291.452,32.111,305.062,48.901,305.062z"/>
		</g>
		<g>
			<g>
				<path fill="#D6A943" d="M178.106,274.661h91.205c4.2,0,7.601-3.402,7.601-7.601s-3.399-7.603-7.601-7.603h-91.205
					c-4.201,0-7.601,3.404-7.601,7.603C170.506,271.259,173.906,274.661,178.106,274.661z"/>
			</g>
		</g>
		<g>
			<g>
				<path fill="#2C2C2D" d="M178.106,244.261h30.401c4.201,0,7.601-3.403,7.601-7.601s-3.399-7.601-7.601-7.601h-30.401
					c-4.201,0-7.601,3.403-7.601,7.601S173.906,244.261,178.106,244.261z"/>
			</g>
		</g>
		<g>
			<g>
				<path fill="#2C2C2D" d="M117.304,244.261h30.4c4.202,0,7.601-3.403,7.601-7.601s-3.399-7.601-7.601-7.601h-30.4
					c-4.202,0-7.601,3.403-7.601,7.601S113.104,244.261,117.304,244.261z"/>
			</g>
		</g>
		<g>
			<g>
				<path fill="#DD973A" d="M117.304,274.661h30.4c4.202,0,7.601-3.402,7.601-7.601s-3.399-7.603-7.601-7.603h-30.4
					c-4.202,0-7.601,3.404-7.601,7.603S113.104,274.661,117.304,274.661z"/>
			</g>
		</g>
		<g>
			<g>
				<path fill="#2C2C2D" d="M56.501,244.261h30.401c4.201,0,7.6-3.403,7.6-7.601s-3.399-7.601-7.6-7.601H56.501
					c-4.201,0-7.601,3.403-7.601,7.601S52.301,244.261,56.501,244.261z"/>
			</g>
		</g>
		<g>
			<g>
				<path fill="#B8BAC0" d="M269.311,206.26H56.501c-4.201,0-7.601-3.403-7.601-7.601s3.399-7.601,7.601-7.601h212.81
					c4.2,0,7.601,3.403,7.601,7.601S273.512,206.26,269.311,206.26z"/>
			</g>
		</g>
		<g>
			<rect x="18.5" y="130.256" fill="#1E1E1E" width="288.812" height="38.001"/>
		</g>
	</g>
	<g>
		<path fill="#0C5FBA" d="M425.036,422.868H197.027c-16.79,0-30.4-13.611-30.4-30.4V248.061c0-16.79,13.611-30.401,30.4-30.401
			h228.009c16.79,0,30.401,13.611,30.401,30.401v144.406C455.438,409.256,441.826,422.868,425.036,422.868z"/>
	</g>
	<g>
		<path fill="#FF4F19" d="M371.836,298.569c-5.57,6.312-13.723,10.295-22.803,10.295c-16.79,0-30.401-13.61-30.401-30.401
			c0-16.79,13.611-30.4,30.401-30.4c9.083,0,17.235,3.983,22.808,10.301"/>
	</g>
	<g>
		<path fill="#FFD100" d="M257.829,308.864h-45.602c-8.396,0-15.201-6.807-15.201-15.201v-30.4c0-8.395,6.805-15.2,15.201-15.2
			h45.602c8.396,0,15.2,6.805,15.2,15.2v30.4C273.029,302.058,266.225,308.864,257.829,308.864z"/>
	</g>
	<g>
		<g>
			<path fill="#B8BAC0" d="M235.028,362.065h-30.4c-4.202,0-7.601-3.404-7.601-7.602c0-4.196,3.399-7.602,7.601-7.602h30.4
				c4.202,0,7.601,3.404,7.601,7.602S239.23,362.065,235.028,362.065z"/>
		</g>
	</g>
	<g>
		<g>
			<path fill="#8A8895" d="M295.831,392.467h-91.204c-4.201,0-7.601-3.403-7.601-7.601c0-4.199,3.4-7.603,7.601-7.603h91.204
				c4.201,0,7.601,3.403,7.601,7.603C303.432,389.063,300.032,392.467,295.831,392.467z"/>
		</g>
	</g>
	<g>
		<g>
			<path fill="#B8BAC0" d="M295.831,362.065H265.43c-4.201,0-7.601-3.404-7.601-7.602c0-4.196,3.399-7.602,7.601-7.602h30.401
				c4.201,0,7.601,3.404,7.601,7.602S300.032,362.065,295.831,362.065z"/>
		</g>
	</g>
	<g>
		<g>
			<path fill="#B8BAC0" d="M356.634,362.065h-30.399c-4.201,0-7.603-3.404-7.603-7.602c0-4.196,3.4-7.602,7.603-7.602h30.399
				c4.201,0,7.601,3.404,7.601,7.602C364.233,358.661,360.835,362.065,356.634,362.065z"/>
		</g>
	</g>
	<g>
		<g>
			<path fill="#8A8895" d="M356.634,392.467h-30.399c-4.201,0-7.603-3.403-7.603-7.601c0-4.199,3.4-7.603,7.603-7.603h30.399
				c4.201,0,7.601,3.403,7.601,7.603C364.233,389.063,360.835,392.467,356.634,392.467z"/>
		</g>
	</g>
	<g>
		<g>
			<path fill="#B8BAC0" d="M417.436,362.065h-30.399c-4.201,0-7.602-3.404-7.602-7.602c0-4.196,3.399-7.602,7.602-7.602h30.399
				c4.202,0,7.602,3.404,7.602,7.602C425.036,358.661,421.638,362.065,417.436,362.065z"/>
		</g>
	</g>
	<g>
		<circle fill="#FFD100" cx="394.635" cy="278.461" r="30.401"/>
	</g>
	<g>
		<polygon fill="#FF9500" points="235.028,270.862 235.028,248.061 219.829,248.061 219.829,308.864 235.028,308.864 
			235.028,286.062 273.029,286.062 273.029,270.862 		"/>
	</g>
</g>
</svg>
