<?xml version="1.0" encoding="utf-8"?>
<!-- Generator: Adobe Illustrator 15.0.0, SVG Export Plug-In . SVG Version: 6.00 Build 0)  -->
<!DOCTYPE svg PUBLIC "-//W3C//DTD SVG 1.1//EN" "http://www.w3.org/Graphics/SVG/1.1/DTD/svg11.dtd">
<svg version="1.1" id="Layer_1" xmlns="http://www.w3.org/2000/svg" xmlns:xlink="http://www.w3.org/1999/xlink" x="0px" y="0px"
	 width="521px" height="521px" viewBox="0 0 521 521" enable-background="new 0 0 521 521" xml:space="preserve">
<polygon points="126.98,210.889 96.925,121.948 19.107,121.948 19.107,98.176 113.988,98.176 149.493,203.276 "/>
<polygon fill="#F47434" points="69.331,190.925 399.361,190.925 336.456,367.426 124.287,367.426 "/>
<circle cx="299.424" cy="421.439" r="45.766"/>
<circle cx="161.388" cy="421.439" r="45.766"/>
<path fill="#409BFF" d="M385.72,338.562H190.203c-17.812,0-32.388-14.576-32.388-32.389v-53.44
	c0-17.811,14.576-32.387,32.388-32.387h195.518c17.811,0,32.388,14.576,32.388,32.387v53.44
	C418.107,323.986,403.53,338.562,385.72,338.562z"/>
<g>
	<path fill="#FFFFFF" d="M196.176,293.084c3.385,1.731,8.604,3.471,13.978,3.471c5.791,0,8.859-2.406,8.859-6.047
		c0-3.473-2.649-5.455-9.352-7.861c-9.264-3.229-15.305-8.354-15.305-16.465c0-9.521,7.942-16.802,21.097-16.802
		c6.297,0,10.93,1.328,14.231,2.812l-2.811,10.175c-2.238-1.071-6.209-2.644-11.672-2.644c-5.462,0-8.104,2.486-8.104,5.373
		c0,3.566,3.147,5.132,10.342,7.861c9.85,3.642,14.482,8.771,14.482,16.633c0,9.354-7.196,17.303-22.513,17.303
		c-6.378,0-12.663-1.665-15.811-3.398L196.176,293.084z"/>
	<path fill="#FFFFFF" d="M253.671,254.018v11.583h9.021v9.276h-9.021v14.646c0,4.882,1.158,7.12,4.967,7.12
		c1.565,0,2.812-0.169,3.723-0.324l0.081,9.514c-1.651,0.66-4.632,1.078-8.187,1.078c-4.059,0-7.455-1.416-9.433-3.484
		c-2.325-2.395-3.485-6.284-3.485-11.994v-16.541h-5.373v-9.275h5.373v-8.772L253.671,254.018z"/>
	<path fill="#FFFFFF" d="M309.529,285.377c0,14.807-10.511,21.604-21.353,21.604c-11.841,0-20.936-7.781-20.936-20.854
		c0-13.067,8.604-21.435,21.602-21.435C301.256,264.691,309.529,273.213,309.529,285.377z M280.233,285.795
		c0,6.951,2.899,12.162,8.273,12.162c4.882,0,8.029-4.881,8.029-12.162c0-6.041-2.318-12.164-8.029-12.164
		C282.467,273.631,280.233,279.834,280.233,285.795z"/>
	<path fill="#FFFFFF" d="M317.298,278.924c0-5.961-0.168-9.851-0.337-13.322h10.849l0.404,7.456h0.336
		c2.069-5.878,7.026-8.366,10.918-8.366c1.158,0,1.738,0,2.648,0.168v11.833c-0.91-0.161-1.989-0.323-3.398-0.323
		c-4.632,0-7.779,2.487-8.603,6.377c-0.169,0.822-0.249,1.821-0.249,2.812v20.523h-12.568V278.924z"/>
	<path fill="#FFFFFF" d="M357.753,289.853c0.417,5.206,5.541,7.692,11.421,7.692c4.294,0,7.773-0.586,11.165-1.649l1.652,8.521
		c-4.14,1.652-9.183,2.489-14.645,2.489c-13.74,0-21.604-7.95-21.604-20.61c0-10.256,6.378-21.604,20.442-21.604
		c13.065,0,18.037,10.188,18.037,20.193c0,2.15-0.251,4.058-0.419,4.968H357.753z M372.566,281.244c0-3.062-1.316-8.187-7.12-8.187
		c-5.294,0-7.445,4.794-7.775,8.187H372.566z"/>
</g>
</svg>
