<?xml version="1.0" encoding="utf-8"?>
<!-- Generator: Adobe Illustrator 15.0.0, SVG Export Plug-In . SVG Version: 6.00 Build 0)  -->
<!DOCTYPE svg PUBLIC "-//W3C//DTD SVG 1.1//EN" "http://www.w3.org/Graphics/SVG/1.1/DTD/svg11.dtd">
<svg version="1.1" id="Layer_1" xmlns="http://www.w3.org/2000/svg" xmlns:xlink="http://www.w3.org/1999/xlink" x="0px" y="0px"
	 width="465px" height="521px" viewBox="0 0 465 521" enable-background="new 0 0 465 521" xml:space="preserve">
<g>
	<rect x="16.251" y="82.057" fill="#E0782B" width="88.186" height="111.551"/>
	<circle fill="#161D21" cx="31.665" cy="96.862" r="2.563"/>
	<circle fill="#161D21" cx="88.908" cy="96.862" r="2.563"/>
	<g>
		<path fill="#161D21" d="M32.804,96.925v-12.52c0-14.905,12.125-27.032,27.03-27.032h1.022c14.903,0,27.028,12.126,27.028,27.032
			v12.52h2.044v-12.52c0-16.033-13.043-29.076-29.072-29.076h-1.022c-16.034,0-29.076,13.043-29.076,29.076v12.52H32.804z"/>
	</g>
</g>
<g>
	<circle fill="#FFFFFF" cx="60.345" cy="139.492" r="17.718"/>
	<g>
		<polygon fill="#2FBCBC" points="62.95,137.889 61.792,137.889 56.971,137.889 57.371,139.689 61.786,139.689 62.95,139.689 
			64.505,139.689 64.982,137.889 		"/>
		<path fill="#2FBCBC" d="M57.514,144.036c-1.003,0-1.814,0.812-1.814,1.809c0,0.999,0.812,1.81,1.814,1.81
			c0.994,0,1.805-0.811,1.805-1.81C59.318,144.847,58.508,144.036,57.514,144.036z"/>
		<circle fill="#2FBCBC" cx="64.318" cy="145.845" r="1.809"/>
		<g>
			<path fill="#2FBCBC" d="M68.905,133.558c-0.087-0.027-0.173-0.037-0.256-0.037c-0.388,0-0.743,0.247-0.859,0.637l-0.117,0.402
				H54.432l-0.682-2.55c-0.099-0.397-0.461-0.683-0.868-0.683h-4.624c-0.496,0-0.898,0.402-0.898,0.899
				c0,0.493,0.402,0.896,0.898,0.896h3.919l2.324,9.216c0.101,0.398,0.464,0.685,0.87,0.685h10.968c0.395,0,0.746-0.264,0.857-0.642
				l2.311-7.706c0.028-0.088,0.04-0.174,0.04-0.259C69.547,134.03,69.295,133.674,68.905,133.558 M65.728,141.044l-0.055,0.183
				h-9.595l-1.203-4.874h12.256L65.728,141.044z"/>
		</g>
	</g>
</g>
<g>
	<g>
		<g>
			<path fill="#FFFFFF" d="M430.609,248.251c0.874-2.916,1.691-5.889,2.434-8.833l-1.477-0.371
				c-0.733,2.924-1.548,5.874-2.413,8.771L430.609,248.251z"/>
			<path fill="#FFFFFF" d="M408.083,298.18c1.605-2.576,3.17-5.227,4.662-7.871l-1.326-0.746c-1.479,2.625-3.034,5.256-4.626,7.814
				L408.083,298.18z"/>
			<path fill="#FFFFFF" d="M417.053,282.232c1.373-2.711,2.699-5.488,3.953-8.256l-1.389-0.627c-1.238,2.75-2.559,5.508-3.92,8.199
				L417.053,282.232z"/>
			<path fill="#FFFFFF" d="M435.307,157.953l1.504-0.231c-0.461-3.013-0.992-6.043-1.578-9.005l-1.493,0.294
				C434.32,151.952,434.85,154.959,435.307,157.953z"/>
			<path fill="#FFFFFF" d="M424.582,265.551c1.129-2.822,2.206-5.708,3.206-8.582l-1.437-0.499c-0.992,2.85-2.062,5.715-3.182,8.514
				L424.582,265.551z"/>
			<path fill="#FFFFFF" d="M431.78,140.148l1.476-0.36c-0.717-2.943-1.514-5.916-2.362-8.832l-1.463,0.425
				C430.277,134.277,431.066,137.226,431.78,140.148z"/>
			<path fill="#FFFFFF" d="M438.788,175.9c-0.192-3.014-0.46-6.079-0.792-9.11l-1.509,0.165c0.327,3.009,0.59,6.052,0.786,9.043
				L438.788,175.9z"/>
			<path fill="#FFFFFF" d="M435.074,230.48c0.607-2.972,1.157-5.999,1.63-8.999l-1.502-0.238c-0.47,2.977-1.014,5.982-1.615,8.934
				L435.074,230.48z"/>
			<path fill="#FFFFFF" d="M437.931,212.42c0.341-3.014,0.617-6.08,0.823-9.109l-1.52-0.101c-0.204,3.005-0.476,6.044-0.814,9.039
				L437.931,212.42z"/>
			<path fill="#FFFFFF" d="M439.171,194.175c0.07-3.034,0.074-6.111,0.012-9.144l-1.521,0.034c0.062,3.009,0.057,6.062-0.012,9.075
				L439.171,194.175z"/>
		</g>
	</g>
	<g>
		<g>
			<g>
				<g>
					<path fill="#B0B0B0" d="M37.416,295.84c0,0-2.449,4.559,14.933,8.355h363.915c0,0,12.175-0.779,15.381-6.521l0.021-3.143
						L37.416,295.84z"/>
					<path fill="#D6D6D6" d="M37.499,286.641h394.292v10.121c0,0,0.593,1.359-4.049,1.02H41.212c0,0-3.632,1.02-3.97-1.352
						L37.499,286.641z"/>
					<path fill="#B0B0B0" d="M413.479,292.557c0,0.391-0.262,0.707-0.586,0.707h-13.416c-0.324,0-0.584-0.316-0.584-0.707l0,0
						c0-0.398,0.26-0.717,0.584-0.717h13.416C413.217,291.84,413.479,292.158,413.479,292.557L413.479,292.557z"/>
				</g>
				<path fill="#B0B0B0" d="M207.865,286.719c0,0-1.521,5.072,3.544,5.576h45.743c0,0,4.864,0.631,4.217-5.4L207.865,286.719z"/>
				<g>
					<linearGradient id="SVGID_1_" gradientUnits="userSpaceOnUse" x1="261.1279" y1="287" x2="261.1279" y2="286.8809">
						<stop  offset="0.0244" style="stop-color:#5F6767"/>
						<stop  offset="0.4756" style="stop-color:#676B6C"/>
						<stop  offset="0.5137" style="stop-color:#717576"/>
						<stop  offset="0.6192" style="stop-color:#878A8B"/>
						<stop  offset="0.7202" style="stop-color:#949899"/>
						<stop  offset="0.811" style="stop-color:#999C9D"/>
					</linearGradient>
					<path fill="url(#SVGID_1_)" d="M261.132,287v-0.119h-0.008C261.124,286.918,261.124,286.959,261.132,287z"/>
				</g>
			</g>
		</g>
		<path fill="#161D21" d="M393.022,286.596V106.879c0-8.159-6.671-14.831-14.825-14.831H90.868c-8.156,0-14.829,6.671-14.829,14.831
			v179.716H393.022z"/>
		<rect x="86.233" y="103.175" fill="#FFFFFF" width="296.594" height="172.392"/>
	</g>
	<g>
		<path fill="#255611" d="M38.623,151.433c0.648,11.449,10.108,20.542,21.721,20.542c11.61,0,21.073-9.093,21.721-20.542H38.623z"/>
		<polygon fill="#286312" points="86.535,102.623 38.559,151.433 82.128,151.433 119.443,102.623 		"/>
		<polygon fill="#83BF5C" points="119.443,102.623 82.128,151.433 125.698,151.433 152.35,102.623 		"/>
		<path fill="#75AA53" d="M82.191,151.433c0.649,11.449,10.11,20.542,21.723,20.542c11.608,0,21.07-9.093,21.718-20.542H82.191z"/>
		<path fill="#255611" d="M125.759,151.433c0.648,11.449,10.109,20.542,21.72,20.542c11.612,0,21.075-9.093,21.725-20.542H125.759z"
			/>
		<polygon fill="#286312" points="152.35,102.623 125.698,151.433 169.262,151.433 185.257,102.623 		"/>
		<polygon fill="#83BF5C" points="185.257,102.623 169.262,151.433 212.834,151.433 218.166,102.623 		"/>
		<path fill="#75AA53" d="M169.327,151.433c0.648,11.449,10.11,20.542,21.722,20.542c11.612,0,21.072-9.093,21.721-20.542H169.327z"
			/>
		<path fill="#255611" d="M212.897,151.433c0.649,11.449,10.109,20.542,21.72,20.542c11.614,0,21.073-9.093,21.722-20.542H212.897z"
			/>
		<polygon fill="#286312" points="218.166,102.623 212.834,151.433 256.403,151.433 251.071,102.623 		"/>
		<path fill="#75AA53" d="M256.465,151.433c0.647,11.449,10.114,20.542,21.724,20.542s21.067-9.093,21.719-20.542H256.465z"/>
		<polygon fill="#83BF5C" points="251.071,102.623 256.403,151.433 299.97,151.433 283.979,102.623 		"/>
		<polygon fill="#286312" points="283.979,102.623 299.97,151.433 343.539,151.433 316.887,102.623 		"/>
		<path fill="#255611" d="M300.031,151.433c0.653,11.449,10.111,20.542,21.725,20.542c11.61,0,21.075-9.093,21.72-20.542H300.031z"
			/>
		<polygon fill="#83BF5C" points="316.887,102.623 343.539,151.433 387.11,151.433 349.798,102.623 		"/>
		<path fill="#75AA53" d="M343.604,151.433c0.646,11.449,10.113,20.542,21.725,20.542c11.606,0,21.073-9.093,21.716-20.542H343.604z
			"/>
		<polygon fill="#286312" points="349.798,102.623 387.11,151.433 430.676,151.433 382.702,102.623 		"/>
		<path fill="#F76031" d="M387.175,151.433c0.645,11.449,10.111,20.542,21.719,20.542c11.614,0,21.073-9.093,21.721-20.542H387.175z
			"/>
	</g>
	<g>
		<g>
			<rect x="199.467" y="196.275" fill="#87937F" width="71.841" height="38.894"/>
			<g>
				<path fill="#AAB7A1" d="M201.589,198.196h67.599v35.047h-67.599V198.196z"/>
			</g>
			<g>
				<path fill="#87937F" d="M203.494,222.359c5.11,0,9.377,4.261,9.387,9.371h45.353c0.104-4.956,4.192-9.058,9.137-9.193v-13.378
					c-5.082-0.046-9.311-4.296-9.311-9.389c0-0.021,0.004-0.036,0.004-0.056h-45.191c0,0.071,0.01,0.146,0.01,0.224
					c0,5.117-4.272,9.391-9.389,9.391c-0.031,0-0.057-0.006-0.088-0.006v13.042C203.437,222.363,203.463,222.359,203.494,222.359z"
					/>
			</g>
			<g>
				<g>
					<path fill="#FFFFFF" d="M246.812,215.72c0-6.299-5.123-11.424-11.422-11.424c-6.299,0-11.426,5.125-11.426,11.424
						s5.127,11.427,11.426,11.427C241.688,227.147,246.812,222.019,246.812,215.72z"/>
					<path fill="#AAB7A1" d="M224.983,215.812c0-5.702,4.626-10.33,10.334-10.33c5.708,0,10.333,4.628,10.333,10.33
						c0,5.709-4.626,10.339-10.333,10.339C229.609,226.151,224.983,221.521,224.983,215.812z"/>
				</g>
			</g>
		</g>
		<rect x="250.004" y="214.987" fill="#FFFFFF" width="5.243" height="1.467"/>
		<rect x="257.134" y="214.987" fill="#FFFFFF" width="5.238" height="1.467"/>
		<rect x="209.131" y="214.987" fill="#FFFFFF" width="5.24" height="1.467"/>
		<rect x="216.256" y="214.987" fill="#FFFFFF" width="5.241" height="1.467"/>
	</g>
	<g>
		<g>
			<g>
				<path fill="#F78C63" d="M103.244,230.638c0,1.945,1.576,3.524,3.522,3.524h51.083c1.944,0,3.521-1.579,3.521-3.524v-29.836
					c0-1.947-1.576-3.522-3.521-3.522h-51.083c-1.946,0-3.522,1.575-3.522,3.522V230.638z"/>
				<rect x="103.244" y="201.174" fill="#4B4C4A" width="58.125" height="5.082"/>
				<rect x="116.792" y="214.974" fill="#FFFFFF" width="41.26" height="5.442"/>
				<rect x="116.792" y="211.723" fill="#FFFFFF" width="41.26" height="1.326"/>
			</g>
			<path fill="#0E3D89" d="M110.848,227.573c0-1.89,1.53-3.424,3.422-3.424l0,0c1.89,0,3.423,1.534,3.423,3.424l0,0
				c0,1.893-1.533,3.423-3.423,3.423l0,0C112.378,230.996,110.848,229.465,110.848,227.573L110.848,227.573z"/>
			<path opacity="0.8" fill="#E2BA14" d="M106.912,227.573c0-1.89,1.531-3.424,3.423-3.424l0,0c1.89,0,3.422,1.534,3.422,3.424l0,0
				c0,1.893-1.532,3.423-3.422,3.423l0,0C108.443,230.996,106.912,229.465,106.912,227.573L106.912,227.573z"/>
		</g>
	</g>
	<path fill="#DB9C1F" d="M364.357,197.28h-51.084c-1.946,0-3.522,1.575-3.522,3.522v0.372v5.082v24.382
		c0,1.945,1.576,3.524,3.522,3.524h51.084c1.942,0,3.52-1.579,3.52-3.524v-24.382v-5.082v-0.372
		C367.877,198.855,366.3,197.28,364.357,197.28z"/>
	<g>
		<rect x="296.604" y="213.644" fill-rule="evenodd" clip-rule="evenodd" fill="#B0B0B0" width="9.206" height="4.152"/>
		<rect x="285.6" y="213.644" fill-rule="evenodd" clip-rule="evenodd" fill="#B0B0B0" width="9.207" height="4.152"/>
		<rect x="274.6" y="213.644" fill-rule="evenodd" clip-rule="evenodd" fill="#B0B0B0" width="9.203" height="4.152"/>
	</g>
	<g>
		<rect x="187.008" y="213.644" fill-rule="evenodd" clip-rule="evenodd" fill="#B0B0B0" width="9.207" height="4.152"/>
		<rect x="176.005" y="213.644" fill-rule="evenodd" clip-rule="evenodd" fill="#B0B0B0" width="9.207" height="4.152"/>
		<rect x="165.004" y="213.644" fill-rule="evenodd" clip-rule="evenodd" fill="#B0B0B0" width="9.204" height="4.152"/>
	</g>
	<g>
		<g>
			<polygon fill="#FFFFFF" points="347.844,212.579 345.652,212.579 336.515,212.579 337.273,215.992 345.638,215.992 
				347.846,215.992 350.788,215.992 351.695,212.579 			"/>
			<path fill="#FFFFFF" d="M337.541,224.225c-1.896,0-3.435,1.535-3.435,3.425c0,1.896,1.539,3.43,3.435,3.43
				c1.89,0,3.422-1.534,3.422-3.43C340.963,225.76,339.431,224.225,337.541,224.225z"/>
			<path fill="#FFFFFF" d="M350.437,224.225c-1.893,0-3.431,1.535-3.431,3.425c0,1.896,1.538,3.43,3.431,3.43
				c1.892,0,3.428-1.534,3.428-3.43C353.864,225.76,352.328,224.225,350.437,224.225z"/>
			<g>
				<path fill="#FFFFFF" d="M359.128,204.373c-0.164-0.056-0.324-0.072-0.487-0.072c-0.733,0-1.407,0.473-1.626,1.21l-0.229,0.759
					h-25.084l-1.292-4.829c-0.186-0.756-0.872-1.292-1.646-1.292h-8.756c-0.943,0-1.704,0.759-1.704,1.701
					c0,0.935,0.761,1.697,1.704,1.697h7.423l4.408,17.462c0.188,0.755,0.874,1.295,1.647,1.295h20.78
					c0.748,0,1.41-0.499,1.625-1.213l4.374-14.602c0.054-0.168,0.076-0.332,0.076-0.49
					C360.342,205.264,359.866,204.59,359.128,204.373 M353.106,218.556l-0.107,0.348H334.82l-2.276-9.237h23.224L353.106,218.556z"
					/>
			</g>
		</g>
	</g>
	<g>
		<g>
			<g>
				<path fill-rule="evenodd" clip-rule="evenodd" fill="#101416" d="M455.359,281.992c0,2.766-2.305,5.027-5.125,5.027h-79.7
					c-2.816,0-5.121-2.262-5.121-5.027V121.959c0-2.767,2.305-5.03,5.121-5.03h79.7c2.82,0,5.125,2.263,5.125,5.03V281.992z"/>
				<polygon fill-rule="evenodd" clip-rule="evenodd" fill="#FFFFFF" points="447.161,135.71 445.004,135.71 440.887,135.71 
					436.205,135.71 432.296,135.71 432.027,135.71 426.79,135.71 413.614,135.71 409.047,135.71 404.362,135.71 399.979,135.71 
					393.405,135.71 389.327,135.71 376.448,135.71 375.981,135.71 371.896,135.71 369.546,135.71 369.543,153.85 369.537,153.845 
					369.537,158.73 369.543,158.736 369.543,172.217 369.543,172.217 369.541,188.541 369.537,188.541 369.537,192.575 
					369.541,192.575 369.539,233.078 369.537,233.078 369.537,236.747 369.539,236.747 369.537,255.468 369.537,255.468 
					369.537,260.354 369.537,260.356 369.537,272.543 369.827,272.543 374.046,272.543 383.404,272.543 388.73,272.543 
					388.732,272.543 389.327,272.543 392.774,272.543 393.405,272.543 397.451,272.543 398.047,272.543 401.603,272.543 
					414.066,272.543 414.27,272.543 418.718,272.543 429.762,272.543 434.3,272.543 435.301,272.543 440.728,272.543 
					451.23,272.543 451.23,261.365 451.23,253.892 451.23,252.113 451.23,249.852 451.23,245.458 451.23,243.542 451.23,238.566 
					451.23,192.575 451.23,188.539 451.23,177.881 451.23,172.217 451.23,148.071 451.23,143.576 451.23,135.71 				"/>
				<circle opacity="0.2" fill-rule="evenodd" clip-rule="evenodd" fill="#FFFFFF" cx="410.385" cy="280.031" r="4.514"/>
			</g>
			<path fill="#FFFFFF" d="M430.928,126.181c0,0.946-0.766,1.711-1.712,1.711h-37.659c-0.946,0-1.712-0.765-1.712-1.711l0,0
				c0-0.946,0.766-1.712,1.712-1.712h37.659C430.162,124.469,430.928,125.235,430.928,126.181L430.928,126.181z"/>
		</g>
		<g>
			<g>
				<rect x="377.702" y="234.308" fill="#B0B0B0" width="30.6" height="1.9"/>
				<rect x="390.898" y="240.386" fill="#B0B0B0" width="17.403" height="1.896"/>
				<rect x="390.898" y="246.462" fill="#B0B0B0" width="17.403" height="1.899"/>
				<rect x="390.898" y="252.539" fill="#B0B0B0" width="17.403" height="1.897"/>
			</g>
			<g>
				<rect x="412.471" y="252.539" fill="#B0B0B0" width="30.599" height="1.897"/>
				<rect x="412.471" y="246.462" fill="#B0B0B0" width="17.401" height="1.899"/>
				<rect x="412.471" y="240.386" fill="#B0B0B0" width="17.401" height="1.896"/>
			</g>
		</g>
		<g>
			<circle fill="#DB2A07" cx="410.387" cy="190.59" r="26.248"/>
			<g>
				<path fill="#FFFFFF" d="M405.741,186.538c1.591,0,2.975-0.64,4.113-1.897c1.13-1.244,1.701-2.748,1.701-4.477
					c0-1.727-0.573-3.23-1.703-4.466c-1.139-1.249-2.522-1.88-4.111-1.88c-1.59,0-2.973,0.632-4.112,1.88
					c-1.129,1.236-1.702,2.739-1.702,4.466c0,1.729,0.573,3.232,1.7,4.477C402.767,185.898,404.151,186.538,405.741,186.538z
					 M405.741,177.312c0.668,0,1.213,0.273,1.661,0.833c0.474,0.588,0.704,1.25,0.704,2.018c0,0.77-0.228,1.421-0.695,2.001
					c-0.459,0.587-1.005,0.873-1.67,0.873s-1.212-0.286-1.67-0.875c-0.451-0.574-0.672-1.229-0.672-1.999s0.228-1.432,0.693-2.021
					C404.535,177.583,405.074,177.312,405.741,177.312z"/>
				<path fill="#FFFFFF" d="M414.986,194.788c-1.591,0-2.973,0.641-4.105,1.905c-1.119,1.251-1.687,2.763-1.687,4.486
					c0,1.728,0.569,3.227,1.689,4.457c1.134,1.24,2.514,1.868,4.103,1.868c1.588,0,2.971-0.628,4.11-1.867
					c1.132-1.229,1.704-2.73,1.704-4.458c0-1.726-0.572-3.235-1.7-4.488C417.962,195.427,416.576,194.788,414.986,194.788z
					 M414.986,198.307c0.668,0,1.21,0.274,1.66,0.839c0.474,0.599,0.703,1.264,0.703,2.033s-0.229,1.431-0.701,2.02
					c-0.45,0.561-0.994,0.832-1.662,0.832c-0.667,0-1.206-0.271-1.649-0.83c-0.465-0.589-0.691-1.251-0.691-2.021
					c0-0.77,0.227-1.436,0.693-2.036C413.78,198.582,414.319,198.307,414.986,198.307z"/>
				<polygon fill="#FFFFFF" points="420.347,173.521 396.931,205.397 400.453,207.659 423.84,175.811 				"/>
			</g>
		</g>
	</g>
</g>
<g opacity="0.25">
	<g>
		<g>
			
				<image overflow="visible" width="594" height="510" xlink:href="56C03656.png"  transform="matrix(0.1456 0.0242 -0.0242 0.1456 161.1782 2.9678)">
			</image>
		</g>
	</g>
</g>
<rect x="161.976" y="23.775" transform="matrix(0.9478 0.3189 -0.3189 0.9478 25.3587 -57.8853)" fill="#E7A20C" width="54.932" height="49.438"/>
<polygon fill="#ECB53D" points="238.654,29.7 186.592,12.182 171.294,16.307 223.356,33.826 "/>
<polygon fill="#805E01" points="228.616,32.407 233.396,31.118 181.333,13.599 176.553,14.888 "/>
<polygon fill="#AD7A09" points="207.589,80.682 222.887,76.556 238.654,29.7 223.356,33.826 "/>
<polygon fill="#805E01" points="228.616,32.407 223.359,48.026 227.98,46.78 233.237,31.162 "/>
<polygon fill="#EADECE" points="200.663,65.802 168.777,54.818 177.413,29.332 209.339,40.509 "/>
<line fill="none" stroke="#FFFFFF" stroke-width="5" stroke-linecap="round" stroke-miterlimit="10" x1="345.777" y1="49.916" x2="345.777" y2="49.916"/>
<image overflow="visible" width="439" height="365" xlink:href="56C03650.png"  transform="matrix(0.1301 -0.0437 0.0437 0.1301 302.6299 13.0503)">
</image>
<line fill="none" x1="302.63" y1="13.05" x2="318.583" y2="60.539"/>
<line fill="none" x1="375.698" y1="41.352" x2="359.745" y2="-6.136"/>
<line fill="none" x1="302.63" y1="13.05" x2="318.583" y2="60.538"/>
<line fill="none" x1="375.698" y1="41.352" x2="359.745" y2="-6.137"/>
<path fill="#98DFE2" d="M360.249,38.436c0.005,1.526-1.229,2.767-2.754,2.772l-39.146,0.121c-1.526,0.005-2.768-1.229-2.772-2.755
	l-0.07-23.027c-0.005-1.526,1.229-2.768,2.754-2.771l39.146-0.122c1.526-0.005,2.767,1.229,2.771,2.755L360.249,38.436z"/>
<rect x="315.524" y="17.55" transform="matrix(1 -0.0031 0.0031 1 -0.0644 1.0452)" fill="#333333" width="44.672" height="7.599"/>
<rect x="319.227" y="26.992" transform="matrix(1 -0.0031 0.0031 1 -0.0846 1.0438)" fill="#FFFFFF" width="37.305" height="1.841"/>
<rect x="348.683" y="20.498" transform="matrix(1 -0.0031 0.0031 1 -0.0638 1.0776)" fill="#FFFFFF" width="7.829" height="1.842"/>
<rect x="319.438" y="20.559" transform="matrix(1 -0.0031 0.0031 1 -0.0649 1.0318)" fill="#FFFFFF" width="26.942" height="1.842"/>
<rect x="319.238" y="30.215" transform="matrix(1 -0.0031 0.0031 1 -0.0954 1.0528)" fill="#FFFFFF" width="37.303" height="1.843"/>
<rect x="319.248" y="33.469" transform="matrix(1 -0.0031 0.0031 1 -0.1047 1.0151)" fill="#FFFFFF" width="18.653" height="1.841"/>
<image overflow="visible" width="476" height="380" xlink:href="56C0365F.png"  transform="matrix(0.1301 -0.0437 0.0437 0.1301 287.4912 33.0298)">
</image>
<polyline fill="none" points="287.491,33.03 304.1,82.471 366.03,61.667 "/>
<polyline fill="none" points="366.03,61.667 349.422,12.226 287.491,33.03 "/>
<polyline fill="none" points="287.491,33.03 304.101,82.471 366.029,61.667 "/>
<polyline fill="none" points="366.029,61.667 349.421,12.226 287.491,33.03 "/>
<path fill="#FFD54E" d="M351.358,57.968c0.136,1.702-1.131,3.193-2.834,3.331l-43.654,3.524c-1.702,0.137-3.194-1.132-3.331-2.833
	l-2.071-25.679c-0.139-1.702,1.129-3.193,2.831-3.331l43.655-3.523c1.703-0.137,3.193,1.131,3.33,2.833L351.358,57.968z"/>
<rect x="299.914" y="36.596" transform="matrix(0.9968 -0.0805 0.0805 0.9968 -2.2332 26.2773)" fill="#333333" width="49.981" height="8.502"/>
<rect x="304.627" y="47.136" transform="matrix(0.9968 -0.0804 0.0804 0.9968 -2.8195 26.3365)" fill="#FFFFFF" width="41.736" height="2.06"/>
<rect x="338.77" y="38.546" transform="matrix(0.9968 -0.0804 0.0804 0.9968 -2.0735 27.6317)" fill="#FFFFFF" width="6.957" height="2.061"/>
<rect x="304.934" y="51.145" transform="matrix(0.9968 -0.0805 0.0805 0.9968 -3.1588 25.9723)" fill="#FFFFFF" width="31.431" height="2.061"/>
<rect x="305.248" y="55.32" transform="matrix(0.9968 -0.0805 0.0805 0.9968 -3.5169 25.4284)" fill="#FFFFFF" width="17.003" height="2.061"/>
<image overflow="visible" width="469" height="397" xlink:href="56C0365E.png"  transform="matrix(0.1301 -0.0437 0.0437 0.1301 292.998 43.1812)">
</image>
<polyline fill="none" points="371.369,74.334 354.019,22.683 292.998,43.181 310.35,94.833 "/>
<polyline fill="none" points="371.369,74.335 354.018,22.683 292.998,43.181 310.35,94.833 "/>
<path fill="#E95B11" d="M357.197,52.744c1.048,1.259,0.875,3.127-0.385,4.175l-32.301,26.839c-1.258,1.047-3.128,0.874-4.174-0.386
	l-15.787-19c-1.046-1.258-0.874-3.128,0.386-4.173l32.299-26.84c1.26-1.046,3.129-0.874,4.175,0.385L357.197,52.744z"/>
<rect x="303.045" y="49.827" transform="matrix(0.7691 -0.6391 0.6391 0.7691 41.0494 221.4363)" fill="#333333" width="47.924" height="8.152"/>
<rect x="312.637" y="61.487" transform="matrix(0.7691 -0.6391 0.6391 0.7691 35.7341 223.866)" fill="#FFFFFF" width="30.138" height="1.977"/>
<rect x="314.848" y="64.147" transform="matrix(0.7691 -0.6391 0.6391 0.7691 34.5396 225.8832)" fill="#FFFFFF" width="30.139" height="1.976"/>
<rect x="317.058" y="66.807" transform="matrix(0.7691 -0.6391 0.6391 0.7691 33.3561 227.9218)" fill="#FFFFFF" width="30.137" height="1.977"/>
<g>
	<g>
		<polygon fill="#9E302E" points="125.697,254.115 171.747,291.678 125.522,331.324 79.649,291.678 		"/>
		<rect x="85.848" y="262.51" fill="#FF641D" width="79.437" height="4.244"/>
		<rect x="85.848" y="266.754" fill="#F9F9F9" width="79.437" height="76.535"/>
		<g>
			<rect x="92.686" y="287.916" fill="#B0B0B0" width="29.76" height="1.805"/>
			<rect x="92.686" y="295.303" fill="#B0B0B0" width="65.759" height="1.807"/>
			<rect x="92.686" y="299.41" fill="#B0B0B0" width="65.759" height="1.803"/>
			<rect x="92.686" y="303.514" fill="#B0B0B0" width="65.759" height="1.805"/>
			<rect x="92.686" y="307.617" fill="#B0B0B0" width="65.759" height="1.807"/>
		</g>
		<g>
			<rect x="92.686" y="311.73" fill="#B0B0B0" width="65.759" height="1.805"/>
			<rect x="92.686" y="315.832" fill="#B0B0B0" width="65.759" height="1.809"/>
			<rect x="92.686" y="319.939" fill="#B0B0B0" width="65.759" height="1.807"/>
			<rect x="92.686" y="324.043" fill="#B0B0B0" width="65.759" height="1.807"/>
		</g>
		<path fill="#D34139" d="M171.747,291.678c0,0,0,1.893,0,5.02c0,10.135,0,33.232,0,46.719v5.297c0,2.762-2.259,5.018-5.018,5.018
			h-5.649c-19.893,0-61.95,0-76.416,0C81.5,353.73,171.747,291.678,171.747,291.678z"/>
		<path fill="#E74C3C" d="M79.649,291.678c0,0,0,1.893,0,5.02c0,10.135,0,33.232,0,46.719v5.297c0,2.762,2.256,5.018,5.015,5.018
			h5.651c19.896,0,61.949,0,76.414,0C169.896,353.73,79.649,291.678,79.649,291.678z"/>
	</g>
	<g>
		<path fill="#B0B0B0" d="M115.083,281.053l-2.197-7.256v7.256h-1.748v-8.9h3.247l1.562,5.328l1.643-5.328h3.257v8.9h-2.101v-7.256
			l-2.237,7.256H115.083z"/>
		<path fill="#B0B0B0" d="M126.994,272.152l2.786,8.9h-2.241l-0.549-1.832h-2.876l-0.56,1.832h-1.827l2.852-8.9H126.994z
			 M124.613,277.578h1.887l-0.936-3.123L124.613,277.578z"/>
		<path fill="#B0B0B0" d="M132.817,272.152v8.9h-2.079v-8.9H132.817z"/>
		<path fill="#B0B0B0" d="M136.718,279.291h3.54v1.762h-5.653v-8.9h2.114V279.291z"/>
	</g>
</g>
<g>
	<rect x="287.332" y="256.47" fill="#FF641D" width="63.826" height="4.942"/>
	<rect x="287.332" y="261.412" fill="#F4E7DC" width="63.826" height="89.145"/>
	<g>
		<rect x="292.827" y="286.059" fill="#B0B0B0" width="23.911" height="2.104"/>
		<rect x="292.827" y="294.666" fill="#B0B0B0" width="52.836" height="2.102"/>
		<rect x="292.827" y="299.447" fill="#B0B0B0" width="52.836" height="2.104"/>
		<rect x="292.827" y="304.229" fill="#B0B0B0" width="52.836" height="2.1"/>
		<rect x="292.827" y="309.008" fill="#B0B0B0" width="52.836" height="2.105"/>
	</g>
	<g>
		<rect x="292.827" y="313.797" fill="#B0B0B0" width="52.836" height="2.102"/>
		<rect x="292.827" y="318.576" fill="#B0B0B0" width="52.836" height="2.105"/>
		<rect x="292.827" y="323.359" fill="#B0B0B0" width="52.836" height="2.102"/>
		<rect x="292.827" y="328.141" fill="#B0B0B0" width="52.836" height="2.104"/>
	</g>
	<g>
		<rect x="292.827" y="332.896" fill="#B0B0B0" width="52.836" height="2.104"/>
		<rect x="292.827" y="337.678" fill="#B0B0B0" width="52.836" height="2.102"/>
		<rect x="292.827" y="342.459" fill="#B0B0B0" width="52.836" height="2.105"/>
	</g>
</g>
<g>
	<path fill="#B0B0B0" d="M313.975,266.977v2.076h-2.598v8.416h-2.491v-8.416h-2.614v-2.076H313.975z"/>
	<path fill="#B0B0B0" d="M319.446,266.977l3.285,10.492h-2.642l-0.646-2.16h-3.394l-0.657,2.16h-2.156l3.363-10.492H319.446z
		 M316.64,273.373h2.223l-1.102-3.684L316.64,273.373z"/>
	<path fill="#B0B0B0" d="M331.842,266.977l-2.866,4.873l3.242,5.619h-2.846l-2.104-3.807l-2.107,3.807h-2.328l3.25-5.592l-2.882-4.9
		h2.862l1.701,3.188l1.785-3.188H331.842z"/>
</g>
</svg>
