<?xml version="1.0" encoding="utf-8"?>
<!-- Generator: Adobe Illustrator 15.0.0, SVG Export Plug-In . SVG Version: 6.00 Build 0)  -->
<!DOCTYPE svg PUBLIC "-//W3C//DTD SVG 1.1//EN" "http://www.w3.org/Graphics/SVG/1.1/DTD/svg11.dtd">
<svg version="1.1" id="Layer_1" xmlns="http://www.w3.org/2000/svg" xmlns:xlink="http://www.w3.org/1999/xlink" x="0px" y="0px"
	 width="240px" height="240px" viewBox="0 0 240 240" enable-background="new 0 0 240 240" xml:space="preserve">
<g id="Layer_1_1_" display="none">
	<g display="inline">
		<g>
			<path fill="#2469A8" d="M59.55,22.583c-16.116,0-29.225,13.109-29.225,29.225c0,16.116,13.109,29.226,29.225,29.226
				c16.116,0,29.225-13.109,29.225-29.225C88.775,35.693,75.666,22.583,59.55,22.583z M59.55,71.292
				c-10.761,0-19.483-8.723-19.483-19.483c0-10.761,8.722-19.483,19.483-19.483c10.762,0,19.484,8.722,19.484,19.483
				C79.034,62.569,70.312,71.292,59.55,71.292z"/>
		</g>
	</g>
	<g display="inline">
		<g>
			<path fill="#2469A8" d="M59.55,168.709H35.196c-2.682,0-4.871-2.188-4.871-4.871V120c0-2.692-2.179-4.871-4.871-4.871
				s-4.871,2.179-4.871,4.871v43.837c0,8.056,6.556,14.612,14.612,14.612h4.871v29.225h-4.871c-2.692,0-4.871,2.18-4.871,4.872
				s2.179,4.87,4.871,4.87H54.68c2.692,0,4.87-2.178,4.87-4.87s-2.178-4.872-4.87-4.872h-4.871V178.45h9.741
				c3.92,0,4.812,2.672,4.871,4.921c0.029,2.661,2.198,4.82,4.871,4.82c2.692,0,4.871-2.178,4.871-4.871
				C74.163,177.45,70.272,168.709,59.55,168.709z"/>
		</g>
	</g>
	<g display="inline">
		<g>
			<path fill="#2469A8" d="M176.45,22.583c-16.116,0-29.226,13.109-29.226,29.225c0,16.116,13.108,29.225,29.226,29.225
				c16.114,0,29.225-13.109,29.225-29.225C205.675,35.692,192.564,22.583,176.45,22.583z M176.45,71.292
				c-10.761,0-19.483-8.723-19.483-19.483c0-10.761,8.723-19.483,19.483-19.483c10.76,0,19.483,8.722,19.483,19.483
				C195.934,62.569,187.211,71.292,176.45,71.292z"/>
		</g>
	</g>
	<g display="inline">
		<g>
			<path fill="#2469A8" d="M210.547,115.129c-2.691,0-4.872,2.179-4.872,4.871v43.837c0,2.683-2.188,4.871-4.87,4.871H176.45
				c-10.722,0-14.612,8.741-14.612,14.612c0,2.691,2.18,4.871,4.871,4.871c2.672,0,4.842-2.16,4.87-4.821
				c0.06-2.249,0.952-4.921,4.871-4.921h9.741v29.225h-4.871c-2.691,0-4.87,2.18-4.87,4.872s2.179,4.87,4.87,4.87h19.484
				c2.691,0,4.869-2.178,4.869-4.87s-2.178-4.872-4.869-4.872h-4.871V178.45h4.871c8.055,0,14.611-6.558,14.611-14.612V120
				C215.417,117.309,213.238,115.129,210.547,115.129z"/>
		</g>
	</g>
	<g display="inline">
		<g>
			<path fill="#2469A8" d="M176.45,90.775c-10.742,0-19.483,8.742-19.483,19.483v22.205l-14.611,4.87v-7.591h4.869
				c2.692,0,4.873-2.18,4.873-4.871S149.917,120,147.225,120h-58.45c-2.691,0-4.871,2.178-4.871,4.871s2.179,4.871,4.871,4.871
				h4.871v7.591l-14.612-4.87v-22.205c0-10.742-8.742-19.483-19.484-19.483c-10.741,0-19.483,8.742-19.483,19.483v38.967
				c0,4.471,3.043,8.367,7.377,9.45l32.986,8.247l8.534,42.665c0.912,4.554,4.909,7.829,9.553,7.829h38.967
				c4.644,0,8.641-3.275,9.553-7.829l8.533-42.665l32.984-8.247c4.336-1.083,7.379-4.979,7.379-9.45v-38.967
				C195.934,99.517,187.191,90.775,176.45,90.775z M93.646,183.32l-4.871-24.354l-38.966-9.742v-38.966
				c0-5.38,4.361-9.741,9.741-9.741c5.381,0,9.742,4.361,9.742,9.741v29.226l24.354,8.117V183.32z M132.611,140.867v37.583v29.225
				h-29.224V178.45v-37.583v-11.125h29.224V140.867z M186.191,149.225l-38.967,9.742l-4.871,24.354v-35.719l24.354-8.117v-29.227
				c0-5.38,4.36-9.741,9.741-9.741c5.38,0,9.742,4.361,9.742,9.741V149.225L186.191,149.225z"/>
		</g>
	</g>
</g>
<g id="Layer_2">
	<path fill="#2469A8" d="M89.099,75.741c9.335,2.086,18.919,3.146,28.485,3.146s19.15-1.057,28.45-3.138
		c0.946-0.191,1.592-1.068,1.491-2.028c-1.336-12.826-10.472-23.348-22.107-26.69v-2.226c0-1.033-0.838-1.871-1.87-1.871
		c-1.033,0-1.871,0.838-1.871,1.871v1.435c-1.347-0.199-2.71-0.333-4.098-0.333c-1.384,0-2.743,0.135-4.088,0.332v-1.433
		c0-1.033-0.839-1.871-1.871-1.871c-1.032,0-1.872,0.838-1.872,1.871v2.224c-11.633,3.34-20.771,13.864-22.107,26.692
		C87.543,74.663,88.173,75.533,89.099,75.741z M109.749,50.951v5.794c0,1.033,0.838,1.872,1.871,1.872
		c1.033,0,1.871-0.838,1.871-1.872v-6.733c1.341-0.228,2.707-0.366,4.097-0.366c1.386,0,2.749,0.138,4.088,0.363v6.733
		c0,1.033,0.838,1.871,1.872,1.871c1.032,0,1.869-0.838,1.869-1.871v-5.794c9.218,3.068,16.475,11.335,18.16,21.501
		c-17.063,3.573-34.854,3.584-51.992,0C93.275,62.287,100.529,54.021,109.749,50.951z M129.169,70.412
		c-3.795,0.85-7.694,1.28-11.586,1.28c-3.888,0-7.785-0.43-11.583-1.28c-1.009-0.227-1.642-1.226-1.419-2.233
		c0.227-1.009,1.233-1.639,2.232-1.418c7.073,1.58,14.489,1.578,21.538,0c1.011-0.223,2.008,0.41,2.234,1.418
		C130.813,69.188,130.176,70.186,129.169,70.412z M86.384,84.195c0.036-1.213,0.145-4.911,2.798-5.912
		c2.621-0.988,5.297,1.674,5.805,2.219c0.706,0.756,0.666,1.939-0.088,2.646c-0.756,0.704-1.94,0.666-2.646-0.087
		c-0.518-0.548-1.294-1.097-1.708-1.224c-0.126,0.241-0.374,0.907-0.42,2.472c-0.19,6.494,4.842,8.245,4.892,8.264
		c0.592,0.196,1.046,0.675,1.213,1.275l0.081,0.294c0.031,0.112,0.05,0.229,0.061,0.344c1.432,17.056,14.91,22.575,21.213,22.575
		c6.302,0,19.783-5.519,21.212-22.575c0.01-0.114,0.03-0.229,0.061-0.338l0.079-0.295c0.166-0.602,0.623-1.083,1.213-1.281
		c0.193-0.07,5.079-1.86,4.893-8.264c-0.046-1.562-0.291-2.227-0.419-2.469c-0.415,0.131-1.214,0.693-1.709,1.223
		c-0.707,0.755-1.89,0.794-2.647,0.088c-0.756-0.706-0.794-1.89-0.087-2.646c0.507-0.546,3.176-3.21,5.805-2.219
		c2.65,1.002,2.762,4.698,2.796,5.912c0.193,6.459-3.596,10.053-6.337,11.451c-1.869,17.337-15.562,25.149-24.86,25.149
		c-9.3,0-22.992-7.81-24.859-25.148C89.982,94.248,86.194,90.654,86.384,84.195z M120.443,83.834c-0.546,0-1.064,0.238-1.421,0.653
		c-0.094,0.112-0.138,0.251-0.203,0.38h-2.471c-0.066-0.129-0.109-0.269-0.205-0.38c-0.355-0.413-0.874-0.653-1.42-0.653H99.976
		c-0.501,0-0.981,0.202-1.333,0.56c-0.352,0.356-0.545,0.842-0.536,1.344c0.031,1.749,0.331,7.616,2.902,9.706
		c1.641,1.334,4.205,2.164,6.691,2.164c2.375,0,4.369-0.752,5.615-2.119c1.348-1.478,2.247-4.579,2.759-6.881h3.017
		c0.512,2.303,1.412,5.403,2.761,6.881c1.247,1.366,3.241,2.119,5.615,2.119c2.486,0,5.048-0.83,6.692-2.164
		c2.57-2.089,2.871-7.956,2.902-9.706c0.009-0.502-0.185-0.986-0.536-1.344c-0.353-0.356-0.833-0.56-1.333-0.56H120.443z
		 M110.552,92.967c-0.522,0.572-1.561,0.898-2.851,0.898c-1.615,0-3.355-0.531-4.33-1.324c-0.645-0.523-1.173-2.737-1.403-4.965
		h10.499C111.982,89.771,111.254,92.195,110.552,92.967z M131.797,92.542c-0.974,0.792-2.713,1.325-4.329,1.325
		c-1.291,0-2.33-0.327-2.853-0.9c-0.702-0.771-1.432-3.195-1.915-5.389h10.499C132.972,89.805,132.443,92.017,131.797,92.542z
		 M178.393,121.462c-18.644,6.093-38.004,9.339-57.617,9.658v45.073c0,1.032-0.84,1.87-1.872,1.87c-1.033,0-1.871-0.838-1.871-1.87
		v-38.3c-14.256-0.037-28.39-1.631-42.235-4.735c-0.148-0.016-0.293-0.045-0.438-0.097c-5.891-1.335-11.738-2.915-17.51-4.799
		l1.054,14.473c0.076,1.03-0.699,1.927-1.73,2.003c-0.047,0-0.092,0.004-0.138,0.004c-0.973,0-1.792-0.751-1.866-1.734
		l-1.255-17.273c-0.045-0.626,0.227-1.234,0.724-1.618c0.497-0.386,1.154-0.491,1.747-0.289c6.167,2.114,12.425,3.863,18.738,5.331
		c3.979-6.332,10.443-11.142,19.259-14.315l-0.116-1.957c-0.062-1.031,0.726-1.917,1.756-1.978c1.022-0.09,1.918,0.724,1.978,1.757
		l0.481,8.106l5.589-2.004c0.979-0.349,2.044,0.158,2.393,1.13c0.348,0.974-0.157,2.045-1.131,2.394l-7.942,2.846
		c-0.205,0.073-0.419,0.109-0.63,0.109c-0.361,0-0.722-0.104-1.031-0.31c-0.492-0.324-0.8-0.863-0.836-1.45l-0.281-4.739
		c-7.046,2.692-12.211,6.405-15.629,11.296c12.821,2.703,25.886,4.069,39.05,4.107v-4.879c0-1.028,0.829-1.862,1.857-1.871
		c11.05-0.075,22.018-1.125,32.827-3.079c-2.727-2.188-6.117-4.105-9.922-5.591l-0.282,4.757c-0.034,0.587-0.344,1.125-0.836,1.449
		c-0.311,0.204-0.67,0.312-1.03,0.312c-0.214,0-0.426-0.038-0.631-0.11l-7.941-2.846c-0.972-0.349-1.478-1.421-1.129-2.394
		c0.349-0.972,1.412-1.483,2.394-1.13l5.588,2.003l0.48-8.106c0.061-1.033,0.944-1.844,1.979-1.756
		c1.03,0.061,1.818,0.946,1.757,1.977l-0.116,1.946c5.739,2.084,10.749,5.095,14.316,8.605c7.919-1.634,15.745-3.753,23.441-6.388
		c0.587-0.2,1.234-0.098,1.729,0.273c0.495,0.373,0.775,0.966,0.744,1.585l-1.187,25.132c-0.05,1.033-0.916,1.822-1.958,1.781
		c-1.032-0.047-1.83-0.925-1.781-1.957L178.393,121.462z M187.433,150.534c-1.671-1.679-4.287-2.496-7.996-2.496
		c-3.71,0-6.326,0.817-7.997,2.496c-2.233,2.247-2.218,5.4-2.201,8.182l0.001,12.984c0,5.622,4.575,10.197,10.197,10.197
		s10.196-4.575,10.196-10.197l0.001-12.984C189.651,155.935,189.669,152.781,187.433,150.534z M185.895,158.695l-0.002,13.004
		c0,3.56-2.896,6.455-6.454,6.455c-2.622,0-4.877-1.579-5.886-3.832h3.812c1.031,0,1.87-0.839,1.87-1.871s-0.839-1.871-1.87-1.871
		h-4.382v-3.158h4.382c1.031,0,1.87-0.838,1.87-1.871s-0.839-1.872-1.87-1.872h-4.386v-3.405h4.386c1.031,0,1.87-0.84,1.87-1.871
		c0-1.032-0.839-1.871-1.87-1.871h-4.351c0.076-1.387,0.32-2.595,1.078-3.358c0.92-0.924,2.719-1.395,5.346-1.395
		c2.626,0,4.425,0.469,5.344,1.395C185.918,154.314,185.907,156.441,185.895,158.695z M56.887,146.807
		c-3.972,0-6.766,0.868-8.543,2.656c-2.372,2.385-2.354,5.761-2.338,8.74l0.002,14.046c0,5.997,4.879,10.877,10.878,10.877
		c5.998,0,10.877-4.88,10.877-10.877l0.002-14.049c0.016-2.978,0.035-6.355-2.339-8.737
		C63.652,147.675,60.857,146.807,56.887,146.807z M56.887,179.384c-3.935,0-7.137-3.2-7.137-7.135v-14.066
		c-0.014-2.469-0.026-4.801,1.248-6.082c1.023-1.029,3.004-1.554,5.889-1.554c2.885,0,4.867,0.523,5.89,1.554
		c0.887,0.891,1.145,2.294,1.22,3.894h-4.867c-1.033,0-1.87,0.837-1.87,1.871c0,1.032,0.837,1.869,1.87,1.869h4.895v3.995h-4.895
		c-1.033,0-1.87,0.839-1.87,1.869c0,1.033,0.837,1.872,1.87,1.872h4.894v3.723h-4.894c-1.033,0-1.87,0.839-1.87,1.871
		c0,1.034,0.837,1.871,1.87,1.871h4.357C62.425,177.538,59.871,179.384,56.887,179.384z"/>
</g>
</svg>
