<?xml version="1.0" encoding="utf-8"?>
<!-- Generator: Adobe Illustrator 15.0.0, SVG Export Plug-In . SVG Version: 6.00 Build 0)  -->
<!DOCTYPE svg PUBLIC "-//W3C//DTD SVG 1.1//EN" "http://www.w3.org/Graphics/SVG/1.1/DTD/svg11.dtd">
<svg version="1.1" id="Layer_1" xmlns="http://www.w3.org/2000/svg" xmlns:xlink="http://www.w3.org/1999/xlink" x="0px" y="0px"
	 width="240px" height="240px" viewBox="0 0 240 240" enable-background="new 0 0 240 240" xml:space="preserve">
<path fill="#143233" d="M151.519,67.233c39.669,0,71.825,25.538,71.825,57.041c0,22.495-16.398,41.946-40.216,51.232
	c-1.662,10.793,1.62,22.21,9.855,30.523c-15.808,0-29.163-10.553-33.556-25.058c-2.598,0.227-5.235,0.346-7.909,0.346
	c-39.667,0-71.825-25.538-71.825-57.044C79.692,92.771,111.852,67.233,151.519,67.233z"/>
<path fill="#A0D3F9" d="M84.481,28.926c-39.669,0-71.825,25.539-71.825,57.042c0,22.495,16.397,41.945,40.215,51.234
	c1.662,10.79-1.62,22.207-9.856,30.521c15.807,0,29.163-10.553,33.556-25.056c2.598,0.225,5.236,0.344,7.91,0.344
	c39.667,0,71.825-25.538,71.825-57.042S124.147,28.926,84.481,28.926z"/>
</svg>
