<?xml version="1.0" encoding="utf-8"?>
<!-- Generator: Adobe Illustrator 15.0.0, SVG Export Plug-In . SVG Version: 6.00 Build 0)  -->
<!DOCTYPE svg PUBLIC "-//W3C//DTD SVG 1.1//EN" "http://www.w3.org/Graphics/SVG/1.1/DTD/svg11.dtd">
<svg version="1.1" id="Layer_1" xmlns="http://www.w3.org/2000/svg" xmlns:xlink="http://www.w3.org/1999/xlink" x="0px" y="0px"
	 width="240px" height="240px" viewBox="0 0 240 240" enable-background="new 0 0 240 240" xml:space="preserve">
<g id="Layer_1_1_" display="none">
	<g display="inline">
		<g>
			<path fill="#2469A8" d="M59.55,22.583c-16.116,0-29.225,13.109-29.225,29.225c0,16.116,13.109,29.226,29.225,29.226
				c16.116,0,29.225-13.109,29.225-29.225C88.775,35.693,75.666,22.583,59.55,22.583z M59.55,71.292
				c-10.761,0-19.483-8.723-19.483-19.483c0-10.761,8.722-19.483,19.483-19.483c10.762,0,19.484,8.722,19.484,19.483
				C79.034,62.569,70.312,71.292,59.55,71.292z"/>
		</g>
	</g>
	<g display="inline">
		<g>
			<path fill="#2469A8" d="M59.55,168.709H35.196c-2.682,0-4.871-2.188-4.871-4.871V120c0-2.692-2.179-4.871-4.871-4.871
				s-4.871,2.179-4.871,4.871v43.837c0,8.056,6.556,14.612,14.612,14.612h4.871v29.225h-4.871c-2.692,0-4.871,2.18-4.871,4.872
				s2.179,4.87,4.871,4.87H54.68c2.692,0,4.87-2.178,4.87-4.87s-2.178-4.872-4.87-4.872h-4.871V178.45h9.741
				c3.92,0,4.812,2.672,4.871,4.921c0.029,2.661,2.198,4.82,4.871,4.82c2.692,0,4.871-2.178,4.871-4.871
				C74.163,177.45,70.272,168.709,59.55,168.709z"/>
		</g>
	</g>
	<g display="inline">
		<g>
			<path fill="#2469A8" d="M176.45,22.583c-16.116,0-29.226,13.109-29.226,29.225c0,16.116,13.108,29.225,29.226,29.225
				c16.114,0,29.225-13.109,29.225-29.225C205.675,35.692,192.564,22.583,176.45,22.583z M176.45,71.292
				c-10.761,0-19.483-8.723-19.483-19.483c0-10.761,8.723-19.483,19.483-19.483c10.76,0,19.483,8.722,19.483,19.483
				C195.934,62.569,187.211,71.292,176.45,71.292z"/>
		</g>
	</g>
	<g display="inline">
		<g>
			<path fill="#2469A8" d="M210.547,115.129c-2.691,0-4.872,2.179-4.872,4.871v43.837c0,2.683-2.188,4.871-4.87,4.871H176.45
				c-10.722,0-14.612,8.741-14.612,14.612c0,2.691,2.18,4.871,4.871,4.871c2.672,0,4.842-2.16,4.87-4.821
				c0.06-2.249,0.952-4.921,4.871-4.921h9.741v29.225h-4.871c-2.691,0-4.87,2.18-4.87,4.872s2.179,4.87,4.87,4.87h19.484
				c2.691,0,4.869-2.178,4.869-4.87s-2.178-4.872-4.869-4.872h-4.871V178.45h4.871c8.055,0,14.611-6.558,14.611-14.612V120
				C215.417,117.309,213.238,115.129,210.547,115.129z"/>
		</g>
	</g>
	<g display="inline">
		<g>
			<path fill="#2469A8" d="M176.45,90.775c-10.742,0-19.483,8.742-19.483,19.483v22.205l-14.611,4.87v-7.591h4.869
				c2.692,0,4.873-2.18,4.873-4.871S149.917,120,147.225,120h-58.45c-2.691,0-4.871,2.178-4.871,4.871s2.179,4.871,4.871,4.871
				h4.871v7.591l-14.612-4.87v-22.205c0-10.742-8.742-19.483-19.484-19.483c-10.741,0-19.483,8.742-19.483,19.483v38.967
				c0,4.471,3.043,8.367,7.377,9.45l32.986,8.247l8.534,42.665c0.912,4.554,4.909,7.829,9.553,7.829h38.967
				c4.644,0,8.641-3.275,9.553-7.829l8.533-42.665l32.984-8.247c4.336-1.083,7.379-4.979,7.379-9.45v-38.967
				C195.934,99.517,187.191,90.775,176.45,90.775z M93.646,183.32l-4.871-24.354l-38.966-9.742v-38.966
				c0-5.38,4.361-9.741,9.741-9.741c5.381,0,9.742,4.361,9.742,9.741v29.226l24.354,8.117V183.32z M132.611,140.867v37.583v29.225
				h-29.224V178.45v-37.583v-11.125h29.224V140.867z M186.191,149.225l-38.967,9.742l-4.871,24.354v-35.719l24.354-8.117v-29.227
				c0-5.38,4.36-9.741,9.741-9.741c5.38,0,9.742,4.361,9.742,9.741V149.225L186.191,149.225z"/>
		</g>
	</g>
</g>
<g id="Layer_2">
	<g>
		<g>
			<circle fill="#2469A8" cx="119.738" cy="50.454" r="3.845"/>
		</g>
	</g>
	<g>
		<g>
			<path fill="#2469A8" d="M168.451,58.145h-25.638v-2.564c0-1.417-1.15-2.564-2.564-2.564h-9.794l0.381-2.284
				c0.544-3.266-0.372-6.591-2.513-9.122c-2.14-2.53-5.271-3.977-8.584-3.977c-3.312,0-6.443,1.448-8.585,3.978
				c-2.144,2.531-3.057,5.854-2.512,9.122l0.382,2.282h-9.795c-1.416,0-2.564,1.146-2.564,2.564v2.563H71.027
				c-7.068,0-12.818,5.751-12.818,12.819v107.679c0,7.067,5.75,12.818,12.818,12.818h97.424c7.067,0,12.818-5.751,12.818-12.818
				V70.963C181.27,63.896,175.519,58.145,168.451,58.145z M101.792,58.145h10.256c0.753,0,1.469-0.33,1.956-0.908
				c0.488-0.577,0.696-1.336,0.572-2.08l-0.877-5.269c-0.297-1.779,0.203-3.589,1.369-4.966c2.331-2.753,7.013-2.753,9.345,0
				c1.167,1.375,1.665,3.184,1.369,4.966l-0.876,5.269c-0.123,0.744,0.083,1.502,0.571,2.08c0.484,0.578,1.201,0.908,1.954,0.908
				h10.255v15.382h-35.894V58.145z M99.229,78.655h41.021c1.414,0,2.564-1.146,2.564-2.564v-2.564h23.072v102.552H73.591V73.527
				h23.074v2.564C96.665,77.509,97.814,78.655,99.229,78.655z M176.143,178.643c0,4.241-3.451,7.691-7.691,7.691H71.027
				c-4.241,0-7.691-3.45-7.691-7.691V70.963c0-4.24,3.451-7.691,7.691-7.691h25.638V68.4H71.027c-1.415,0-2.563,1.146-2.563,2.563
				v107.679c0,1.419,1.148,2.562,2.563,2.562h97.424c1.415,0,2.563-1.144,2.563-2.562V70.963c0-1.417-1.148-2.563-2.563-2.563
				h-25.638v-5.128h25.638c4.24,0,7.691,3.451,7.691,7.691V178.643L176.143,178.643z"/>
		</g>
	</g>
	<g>
		<g>
			<polygon fill="#2469A8" points="95.914,162.509 92.289,158.884 88.974,162.198 85.659,158.884 82.034,162.509 85.348,165.823 
				82.034,169.139 85.659,172.765 88.974,169.45 92.289,172.765 95.914,169.139 92.598,165.823 			"/>
		</g>
	</g>
	<g>
		<g>
			<polygon fill="#2469A8" points="103.605,116.361 99.979,112.736 96.665,116.05 93.35,112.736 89.725,116.361 93.04,119.675 
				89.725,122.991 93.35,126.615 96.665,123.302 99.979,126.615 103.605,122.991 100.29,119.675 			"/>
		</g>
	</g>
	<g>
		<g>
			<path fill="#2469A8" d="M142.813,145.314c-4.241,0-7.691,3.45-7.691,7.69c0,4.241,3.45,7.691,7.691,7.691
				c4.239,0,7.69-3.45,7.69-7.691C150.504,148.765,147.055,145.314,142.813,145.314z M142.813,155.569
				c-1.413,0-2.564-1.149-2.564-2.564s1.151-2.564,2.564-2.564c1.412,0,2.563,1.149,2.563,2.564S144.226,155.569,142.813,155.569z"
				/>
		</g>
	</g>
	<g>
		<g>
			<path fill="#2469A8" d="M140.249,96.603c-4.241,0-7.69,3.45-7.69,7.69c0,4.241,3.449,7.691,7.69,7.691s7.691-3.451,7.691-7.691
				S144.49,96.603,140.249,96.603z M140.249,106.857c-1.413,0-2.563-1.149-2.563-2.564c0-1.415,1.15-2.563,2.563-2.563
				s2.564,1.149,2.564,2.563C142.813,105.708,141.66,106.857,140.249,106.857z"/>
		</g>
	</g>
	<g>
		<g>
			<path fill="#2469A8" d="M106.919,132.495c-4.24,0-7.69,3.451-7.69,7.691s3.451,7.69,7.69,7.69c4.241,0,7.691-3.45,7.691-7.69
				S111.161,132.495,106.919,132.495z M106.919,142.75c-1.413,0-2.563-1.148-2.563-2.563c0-1.416,1.151-2.564,2.563-2.564
				c1.413,0,2.565,1.148,2.565,2.564C109.484,141.602,108.333,142.75,106.919,142.75z"/>
		</g>
	</g>
	<g>
		<g>
			<path fill="#2469A8" d="M91.537,83.783c-4.241,0-7.691,3.45-7.691,7.692c0,4.24,3.45,7.691,7.691,7.691s7.692-3.451,7.692-7.691
				C99.229,87.233,95.777,83.783,91.537,83.783z M91.537,94.038c-1.412,0-2.563-1.148-2.563-2.562c0-1.416,1.151-2.564,2.563-2.564
				c1.413,0,2.563,1.149,2.563,2.564C94.1,92.89,92.95,94.038,91.537,94.038z"/>
		</g>
	</g>
	<g>
		<g>
			<path fill="#2469A8" d="M150.496,129.76c-0.059-0.887-0.572-1.672-1.353-2.09l-36.033-19.216l6.627-10.604v3.879h5.129V88.911
				c0-1.418-1.147-2.564-2.563-2.564h-12.819v5.128h8.19l-10.367,16.587c-0.377,0.603-0.484,1.336-0.303,2.021
				c0.185,0.687,0.646,1.265,1.272,1.602l34.831,18.574l-42.816,30.926l3.002,4.154l46.148-33.328
				C150.158,131.492,150.559,130.641,150.496,129.76z"/>
		</g>
	</g>
	<g>
		<g>
			<rect x="129.993" y="86.346" fill="#2469A8" width="5.129" height="5.128"/>
		</g>
	</g>
	<g>
		<g>
			<rect x="140.249" y="86.346" fill="#2469A8" width="5.128" height="5.128"/>
		</g>
	</g>
	<g>
		<g>
			<rect x="150.505" y="86.346" fill="#2469A8" width="5.127" height="5.128"/>
		</g>
	</g>
</g>
</svg>
