<?xml version="1.0" encoding="utf-8"?>
<!-- Generator: Adobe Illustrator 15.0.0, SVG Export Plug-In . SVG Version: 6.00 Build 0)  -->
<!DOCTYPE svg PUBLIC "-//W3C//DTD SVG 1.1//EN" "http://www.w3.org/Graphics/SVG/1.1/DTD/svg11.dtd">
<svg version="1.1" id="Layer_1" xmlns="http://www.w3.org/2000/svg" xmlns:xlink="http://www.w3.org/1999/xlink" x="0px" y="0px"
	 width="240px" height="240px" viewBox="0 0 240 240" enable-background="new 0 0 240 240" xml:space="preserve">
<path display="none" fill="#143233" d="M151.519,67.233c39.669,0,71.825,25.538,71.825,57.041c0,22.495-16.398,41.946-40.216,51.232
	c-1.662,10.793,1.62,22.21,9.855,30.523c-15.808,0-29.163-10.553-33.556-25.058c-2.598,0.227-5.235,0.346-7.909,0.346
	c-39.667,0-71.825-25.538-71.825-57.044C79.692,92.771,111.852,67.233,151.519,67.233z"/>
<path display="none" fill="#A0D3F9" d="M84.481,28.926c-39.669,0-71.825,25.539-71.825,57.042c0,22.495,16.397,41.945,40.215,51.234
	c1.662,10.79-1.62,22.207-9.856,30.521c15.807,0,29.163-10.553,33.556-25.056c2.598,0.225,5.236,0.344,7.91,0.344
	c39.667,0,71.825-25.538,71.825-57.042S124.147,28.926,84.481,28.926z"/>
<path fill="#2B414D" d="M143.363,82.336l-63.062,28.59l50.972,112.403l27.448-23.201l35.452-5.227L143.363,82.336z"/>
<path fill="#475F6C" d="M96.638,83.48l63.063,28.591l-50.973,112.566l-27.447-23.363l-35.616-5.229
	C45.665,196.045,96.638,83.48,96.638,83.48z"/>
<path fill="#EFC75E" d="M201.688,97.204c0,6.044-8.659,11.109-9.967,16.828c-1.306,5.881,4.412,14.215,1.961,19.605
	c-2.614,5.391-12.579,6.045-16.174,10.619s-1.96,14.703-6.536,18.461c-4.574,3.758-13.723-0.162-18.951,2.451
	c-5.228,2.615-8.005,12.418-13.723,13.725c-5.555,1.307-12.253-6.209-18.135-6.209c-5.881,0-12.58,7.516-18.135,6.209
	c-5.719-1.307-8.496-11.109-13.723-13.725c-5.228-2.613-14.541,1.307-18.952-2.451c-4.574-3.756-2.94-13.887-6.535-18.461
	c-3.594-4.574-13.56-5.229-16.174-10.619c-2.451-5.229,3.268-13.724,1.96-19.605c-1.633-5.719-10.292-10.783-10.292-16.828
	s8.659-11.109,9.966-16.828c1.307-5.881-4.412-14.214-1.961-19.605c2.614-5.392,12.581-6.045,16.175-10.619
	c3.594-4.575,1.96-14.704,6.535-18.461c4.574-3.758,13.724,0.164,18.952-2.451c5.228-2.614,8.005-12.417,13.723-13.724
	c5.555-1.307,12.253,6.208,18.135,6.208s12.581-7.516,18.135-6.208c5.717,1.307,8.495,11.11,13.723,13.724
	c5.228,2.615,14.54-1.307,18.952,2.451c4.574,3.757,2.939,13.887,6.535,18.461c3.594,4.574,13.56,5.228,16.174,10.619
	c2.451,5.228-3.268,13.724-1.961,19.605C193.029,86.094,201.688,91.159,201.688,97.204z"/>
<path fill="#D7B354" d="M120.001,64.528c-18.135,0-32.675,14.704-32.675,32.675c0,17.972,14.704,32.675,32.675,32.675
	c18.135,0,32.675-14.704,32.675-32.675C152.676,79.232,138.135,64.528,120.001,64.528z M120.001,111.907
	c-8.168,0-14.704-6.535-14.704-14.704S111.833,82.5,120.001,82.5c8.169,0,14.704,6.536,14.704,14.704
	S128.17,111.907,120.001,111.907z M120.001,38.389c-32.512,0-58.815,26.303-58.815,58.815c0,32.513,26.303,58.816,58.815,58.816
	c32.513,0,58.815-26.303,58.815-58.816C178.816,64.692,152.513,38.389,120.001,38.389z M120.001,146.217
	c-27.12,0-49.013-21.893-49.013-49.013s21.892-49.013,49.013-49.013c27.121,0,49.012,21.892,49.012,49.013
	S147.121,146.217,120.001,146.217z"/>
</svg>
