<?xml version="1.0" encoding="utf-8"?>
<!-- Generator: Adobe Illustrator 15.0.0, SVG Export Plug-In . SVG Version: 6.00 Build 0)  -->
<!DOCTYPE svg PUBLIC "-//W3C//DTD SVG 1.1//EN" "http://www.w3.org/Graphics/SVG/1.1/DTD/svg11.dtd">
<svg version="1.1" id="Layer_1" xmlns="http://www.w3.org/2000/svg" xmlns:xlink="http://www.w3.org/1999/xlink" x="0px" y="0px"
	 width="240px" height="240px" viewBox="0 0 240 240" enable-background="new 0 0 240 240" xml:space="preserve">
<g id="Layer_1_1_" display="none">
	<g display="inline">
		<g>
			<path fill="#2469A8" d="M59.55,22.583c-16.116,0-29.225,13.109-29.225,29.225c0,16.116,13.109,29.226,29.225,29.226
				c16.116,0,29.225-13.109,29.225-29.225C88.775,35.693,75.666,22.583,59.55,22.583z M59.55,71.292
				c-10.761,0-19.483-8.723-19.483-19.483c0-10.761,8.722-19.483,19.483-19.483c10.762,0,19.484,8.722,19.484,19.483
				C79.034,62.569,70.312,71.292,59.55,71.292z"/>
		</g>
	</g>
	<g display="inline">
		<g>
			<path fill="#2469A8" d="M59.55,168.709H35.196c-2.682,0-4.871-2.188-4.871-4.871V120c0-2.692-2.179-4.871-4.871-4.871
				s-4.871,2.179-4.871,4.871v43.837c0,8.056,6.556,14.612,14.612,14.612h4.871v29.225h-4.871c-2.692,0-4.871,2.18-4.871,4.872
				s2.179,4.87,4.871,4.87H54.68c2.692,0,4.87-2.178,4.87-4.87s-2.178-4.872-4.87-4.872h-4.871V178.45h9.741
				c3.92,0,4.812,2.672,4.871,4.921c0.029,2.661,2.198,4.82,4.871,4.82c2.692,0,4.871-2.178,4.871-4.871
				C74.163,177.45,70.272,168.709,59.55,168.709z"/>
		</g>
	</g>
	<g display="inline">
		<g>
			<path fill="#2469A8" d="M176.45,22.583c-16.116,0-29.226,13.109-29.226,29.225c0,16.116,13.108,29.225,29.226,29.225
				c16.114,0,29.225-13.109,29.225-29.225C205.675,35.692,192.564,22.583,176.45,22.583z M176.45,71.292
				c-10.761,0-19.483-8.723-19.483-19.483c0-10.761,8.723-19.483,19.483-19.483c10.76,0,19.483,8.722,19.483,19.483
				C195.934,62.569,187.211,71.292,176.45,71.292z"/>
		</g>
	</g>
	<g display="inline">
		<g>
			<path fill="#2469A8" d="M210.547,115.129c-2.691,0-4.872,2.179-4.872,4.871v43.837c0,2.683-2.188,4.871-4.87,4.871H176.45
				c-10.722,0-14.612,8.741-14.612,14.612c0,2.691,2.18,4.871,4.871,4.871c2.672,0,4.842-2.16,4.87-4.821
				c0.06-2.249,0.952-4.921,4.871-4.921h9.741v29.225h-4.871c-2.691,0-4.87,2.18-4.87,4.872s2.179,4.87,4.87,4.87h19.484
				c2.691,0,4.869-2.178,4.869-4.87s-2.178-4.872-4.869-4.872h-4.871V178.45h4.871c8.055,0,14.611-6.558,14.611-14.612V120
				C215.417,117.309,213.238,115.129,210.547,115.129z"/>
		</g>
	</g>
	<g display="inline">
		<g>
			<path fill="#2469A8" d="M176.45,90.775c-10.742,0-19.483,8.742-19.483,19.483v22.205l-14.611,4.87v-7.591h4.869
				c2.692,0,4.873-2.18,4.873-4.871S149.917,120,147.225,120h-58.45c-2.691,0-4.871,2.178-4.871,4.871s2.179,4.871,4.871,4.871
				h4.871v7.591l-14.612-4.87v-22.205c0-10.742-8.742-19.483-19.484-19.483c-10.741,0-19.483,8.742-19.483,19.483v38.967
				c0,4.471,3.043,8.367,7.377,9.45l32.986,8.247l8.534,42.665c0.912,4.554,4.909,7.829,9.553,7.829h38.967
				c4.644,0,8.641-3.275,9.553-7.829l8.533-42.665l32.984-8.247c4.336-1.083,7.379-4.979,7.379-9.45v-38.967
				C195.934,99.517,187.191,90.775,176.45,90.775z M93.646,183.32l-4.871-24.354l-38.966-9.742v-38.966
				c0-5.38,4.361-9.741,9.741-9.741c5.381,0,9.742,4.361,9.742,9.741v29.226l24.354,8.117V183.32z M132.611,140.867v37.583v29.225
				h-29.224V178.45v-37.583v-11.125h29.224V140.867z M186.191,149.225l-38.967,9.742l-4.871,24.354v-35.719l24.354-8.117v-29.227
				c0-5.38,4.36-9.741,9.741-9.741c5.38,0,9.742,4.361,9.742,9.741V149.225L186.191,149.225z"/>
		</g>
	</g>
</g>
<g id="Layer_2">
	<g>
		<g>
			<g>
				<circle fill="#2469A8" cx="62.534" cy="89.802" r="2.441"/>
				<circle fill="#2469A8" cx="72.297" cy="89.802" r="2.441"/>
				<circle fill="#2469A8" cx="82.06" cy="89.802" r="2.441"/>
				<path fill="#2469A8" d="M60.092,177.672h31.417l-31.416-29.57v29.57H60.092z M64.974,159.401l14.225,13.389H64.974V159.401z"/>
				<path fill="#2469A8" d="M194.339,58.07V43.426h-14.646v4.882h-48.817v-4.882h-14.645V58.07h14.645v-4.882h8.253
					c-7.905,5.25-13.134,14.229-13.134,24.409H57.651c-4.037,0-7.322,3.285-7.322,7.322v30.574
					c-2.223-1.874-4.088-1.418-4.806-1.108c-0.757,0.327-2.517,1.441-2.517,4.707v68.343c0,4.038,3.286,7.322,7.323,7.322h73.226
					c3.194,0,4.298-1.581,4.674-2.522c0.373-0.944,0.653-2.85-1.676-5.04l-2.334-2.2h62.798c4.038,0,7.321-3.285,7.321-7.321V84.919
					c0-4.037-3.284-7.322-7.321-7.322h-2.441c0-10.181-5.229-19.159-13.134-24.409h8.252v4.882L194.339,58.07L194.339,58.07z
					 M184.575,48.308h4.882v4.882h-4.882V48.308z M125.995,53.188h-4.882v-4.882h4.882V53.188z M55.211,84.919
					c0-1.344,1.095-2.441,2.44-2.441h68.763c0.002,0.02,0.029,0.025,0.045,0.037c0.929,5.495,3.396,10.528,7.075,14.608H55.211
					V84.919L55.211,84.919z M50.33,189.877L50.33,189.877c-1.345,0-2.441-1.094-2.441-2.442v-2.44h4.882v-4.883h-4.882v-4.881h4.882
					v-4.883h-4.882v-4.882h4.882v-4.883h-4.882V155.7h4.882v-4.881h-4.882v-4.881h4.882v-4.882h-4.882v-4.883h4.882v-4.883h-4.882
					v-11.438l25.536,24.034l7.364,6.931l41.494,39.053H50.33V189.877z M64.974,129.236v-17.468h53.699v34.173H82.724L64.974,129.236
					z M189.455,177.674c0,1.345-1.095,2.438-2.438,2.438h-67.986l-31.12-29.289h35.644v-43.936H60.092v17.753l-4.882-4.594v-18.041
					h84.028c0.471,0.308,0.911,0.651,1.401,0.935v2.756c-1.472,1.116-2.441,2.865-2.441,4.851c0,1.379,0.477,2.638,1.253,3.66
					c-0.776,1.026-1.253,2.285-1.253,3.665c0,3.363,2.74,6.101,6.103,6.101h21.968c3.363,0,6.103-2.738,6.103-6.101
					c0-1.379-0.476-2.639-1.252-3.662c0.776-1.022,1.252-2.282,1.252-3.661c0-1.984-0.969-3.735-2.44-4.851v-2.755
					c0.49-0.283,0.928-0.627,1.4-0.936h18.125V177.674L189.455,177.674z M144.302,116.65h21.967c0.674,0,1.222,0.548,1.222,1.221
					c0,0.674-0.548,1.22-1.222,1.22h-21.967c-0.674,0-1.22-0.546-1.22-1.22C143.082,117.198,143.628,116.65,144.302,116.65z
					 M143.082,110.549c0-0.674,0.546-1.22,1.22-1.22h21.967c0.674,0,1.222,0.546,1.222,1.22c0,0.672-0.548,1.22-1.222,1.22h-21.967
					C143.628,111.769,143.082,111.222,143.082,110.549z M184.158,82.479h2.858c1.345,0,2.44,1.097,2.44,2.441v12.204h-12.422
					c3.604-3.996,6.038-8.906,7.012-14.269C184.09,82.744,184.134,82.626,184.158,82.479z M179.693,77.599
					c0,9.194-5.1,17.517-13.316,21.721l-1.327,0.682v4.447h-7.323V87.014c4.199-1.091,7.323-4.882,7.323-9.416
					c0-5.385-4.38-9.765-9.766-9.765c-5.384,0-9.763,4.38-9.763,9.765c0,4.534,3.125,8.325,7.322,9.416v17.433h-7.322V100
					l-1.327-0.682c-8.217-4.203-13.318-12.526-13.318-21.721c0-13.459,10.95-24.409,24.408-24.409
					C168.744,53.188,179.693,64.138,179.693,77.599z M155.284,82.479c-2.692,0-4.881-2.188-4.881-4.88
					c0-2.692,2.188-4.883,4.881-4.883c2.693,0,4.883,2.19,4.883,4.883C160.167,80.291,157.978,82.479,155.284,82.479z"/>
				<rect x="128.437" y="131.296" fill="#2469A8" width="56.14" height="4.883"/>
				<rect x="128.437" y="141.061" fill="#2469A8" width="56.14" height="4.881"/>
				<rect x="128.437" y="150.823" fill="#2469A8" width="56.14" height="4.882"/>
				<rect x="128.437" y="160.586" fill="#2469A8" width="56.14" height="4.884"/>
			</g>
		</g>
	</g>
</g>
</svg>
