<?xml version="1.0" encoding="utf-8"?>
<!-- Generator: Adobe Illustrator 15.0.0, SVG Export Plug-In . SVG Version: 6.00 Build 0)  -->
<!DOCTYPE svg PUBLIC "-//W3C//DTD SVG 1.1//EN" "http://www.w3.org/Graphics/SVG/1.1/DTD/svg11.dtd">
<svg version="1.1" id="Layer_1" xmlns="http://www.w3.org/2000/svg" xmlns:xlink="http://www.w3.org/1999/xlink" x="0px" y="0px"
	 width="412px" height="346px" viewBox="50 81 412 346" enable-background="new 50 81 412 346" xml:space="preserve">
<path fill="#1F252D" d="M395.629,374.428H186.501H111.68c-5.041,0-9.866-1.009-14.259-2.736
	c-14.114-5.688-24.125-19.516-24.125-35.573v32.261c0,21.102,17.283,38.384,38.383,38.384h283.95
	c21.101,0,38.383-17.282,38.383-38.384v-32.261c0,21.101-17.282,38.383-38.383,38.383V374.428L395.629,374.428z"/>
<path fill="#171C23" d="M111.607,114.53h283.95c21.101,0,38.385,17.284,38.385,38.383v183.13c0,21.1-17.284,38.384-38.385,38.384
	h-283.95c-21.1,0-38.383-17.284-38.383-38.384v-183.13C73.224,131.814,90.507,114.53,111.607,114.53z"/>
<path fill="#2A333A" d="M142.357,92.998L142.357,92.998c25.637,0,46.593,20.956,46.593,46.593V343.75
	c0,25.637-20.956,46.593-46.593,46.593l0,0c-25.637,0-46.593-20.956-46.593-46.593V139.591
	C95.764,113.954,116.72,92.998,142.357,92.998z"/>
<path fill="#75BD80" d="M274.861,137.503h96.211c10.945,0,19.947,9.001,19.947,19.948l0,0c0,10.946-9.002,19.948-19.947,19.948
	h-96.211c-10.945,0-19.946-9.001-19.946-19.948l0,0C254.915,146.504,263.916,137.503,274.861,137.503z"/>
<path fill="#FFE356" d="M238.423,202.676h19.444c4.537,0,8.21,3.673,8.21,8.21v19.443c0,4.537-3.673,8.21-8.21,8.21h-19.444
	c-4.537,0-8.209-3.673-8.209-8.21v-19.443C230.213,206.348,233.886,202.676,238.423,202.676z M380.649,295.789h19.443
	c4.537,0,8.21,3.673,8.21,8.209v19.443c0,4.537-3.673,8.211-8.21,8.211h-19.443c-4.536,0-8.209-3.674-8.209-8.211v-19.443
	C372.44,299.462,376.113,295.789,380.649,295.789z M309.5,295.789h19.444c4.537,0,8.21,3.673,8.21,8.209v19.443
	c0,4.537-3.673,8.211-8.21,8.211H309.5c-4.536,0-8.209-3.674-8.209-8.211v-19.443C301.291,299.462,304.964,295.789,309.5,295.789z
	 M238.352,295.789h19.443c4.537,0,8.211,3.673,8.211,8.209v19.443c0,4.537-3.674,8.211-8.211,8.211h-19.443
	c-4.537,0-8.21-3.674-8.21-8.211v-19.443C230.142,299.462,233.815,295.789,238.352,295.789z M380.578,249.197h19.443
	c4.536,0,8.211,3.672,8.211,8.209v19.443c0,4.537-3.675,8.209-8.211,8.209h-19.443c-4.536,0-8.21-3.672-8.21-8.209v-19.443
	C372.368,252.869,376.042,249.197,380.578,249.197z M309.428,249.197h19.444c4.537,0,8.21,3.672,8.21,8.209v19.443
	c0,4.537-3.673,8.209-8.21,8.209h-19.444c-4.537,0-8.209-3.672-8.209-8.209v-19.443
	C301.221,252.869,304.891,249.197,309.428,249.197z M238.28,249.197h19.443c4.537,0,8.21,3.672,8.21,8.209v19.443
	c0,4.537-3.674,8.209-8.21,8.209H238.28c-4.537,0-8.21-3.672-8.21-8.209v-19.443C230.069,252.869,233.743,249.197,238.28,249.197z
	 M380.506,202.676h19.443c4.537,0,8.211,3.673,8.211,8.21v19.443c0,4.537-3.674,8.21-8.211,8.21h-19.443
	c-4.537,0-8.21-3.673-8.21-8.21v-19.443C372.296,206.348,375.969,202.676,380.506,202.676z M309.356,202.676H328.8
	c4.537,0,8.21,3.673,8.21,8.21v19.443c0,4.537-3.673,8.21-8.21,8.21h-19.443c-4.538,0-8.21-3.673-8.21-8.21v-19.443
	C301.146,206.348,304.818,202.676,309.356,202.676z"/>
<path fill="#222A33" d="M142.357,89.542L142.357,89.542c21.46,0,38.959,17.572,38.959,38.959V334.1
	c0,21.461-17.571,38.959-38.959,38.959l0,0c-21.46,0-38.959-17.57-38.959-38.959V128.501
	C103.397,107.042,120.969,89.542,142.357,89.542z"/>
<path fill="#83CF8F" d="M274.861,140.384h96.211c10.945,0,19.947,9.001,19.947,19.948l0,0c0,10.946-9.002,19.948-19.947,19.948
	h-96.211c-10.945,0-19.946-9.001-19.946-19.948l0,0C254.915,149.385,263.916,140.384,274.861,140.384z"/>
</svg>
