<?xml version="1.0" encoding="utf-8"?>
<!-- Generator: Adobe Illustrator 15.0.0, SVG Export Plug-In . SVG Version: 6.00 Build 0)  -->
<!DOCTYPE svg PUBLIC "-//W3C//DTD SVG 1.1//EN" "http://www.w3.org/Graphics/SVG/1.1/DTD/svg11.dtd">
<svg version="1.1" id="Layer_1" xmlns="http://www.w3.org/2000/svg" xmlns:xlink="http://www.w3.org/1999/xlink" x="0px" y="0px"
	 width="412px" height="346px" viewBox="0 0 412 346" enable-background="new 0 0 412 346" xml:space="preserve">
<g>
	<path fill="#366695" d="M146.695,299.399h189.24c14.183,0,25.678-11.496,25.678-25.675V84.482
		c0-14.182-11.499-25.676-25.678-25.676h-189.24c-14.18,0-25.676,11.496-25.676,25.676v189.241
		C121.019,287.903,132.516,299.399,146.695,299.399z"/>
	<path fill="#366695" d="M146.695,58.806c-14.18,0-25.676,11.496-25.676,25.676v189.241c0,14.18,11.496,25.675,25.676,25.675h84.36
		V58.806H146.695z"/>
</g>
<path fill="#285377" d="M335.939,58.806H231.056v240.593h104.884c14.18,0,25.675-11.496,25.675-25.675V84.482
	C361.614,70.302,350.119,58.806,335.939,58.806z"/>
<g>
	<rect x="278.175" y="216.042" fill="#71E2EF" width="26.733" height="23.792"/>
	<rect x="241.511" y="216.042" fill="#71E2EF" width="26.733" height="23.792"/>
	<rect x="315.229" y="216.402" fill="#71E2EF" width="25.923" height="23.071"/>
	<rect x="278.175" y="181.791" fill="#71E2EF" width="26.733" height="23.795"/>
	<rect x="241.511" y="181.791" fill="#71E2EF" width="26.733" height="23.795"/>
	<rect x="241.511" y="85.538" fill="#71E2EF" width="101.051" height="74.713"/>
	<rect x="315.229" y="182.152" fill="#71E2EF" width="25.923" height="23.072"/>
	<rect x="278.175" y="249.57" fill="#71E2EF" width="26.733" height="23.793"/>
	<rect x="241.511" y="249.57" fill="#71E2EF" width="26.733" height="23.793"/>
	<rect x="315.229" y="249.931" fill="#71E2EF" width="25.923" height="23.072"/>
</g>
<g>
	<path fill="#1B283A" d="M121.087,121.182h-43.88c-10.906,0-19.779,7.443-19.779,16.592V300.63c0,9.15,8.874,16.595,19.779,16.595
		h76.282c10.906,0,19.78-7.444,19.78-16.595v-69.546c0-4.922,3.99-8.91,8.911-8.91s8.91,3.991,8.91,8.91v69.546
		c0,18.978-16.868,34.414-37.603,34.414H77.206c-20.733,0-37.6-15.437-37.6-34.414V137.774c0-18.976,16.868-34.414,37.6-34.414
		h43.881L121.087,121.182L121.087,121.182z"/>
	<path fill="#141F33" d="M204.392,250.796h-45.635c-9.545,0-17.283-7.738-17.283-17.283V54.215c0-9.545,7.738-17.282,17.283-17.282
		h45.635c9.544,0,17.282,7.737,17.282,17.282v179.298C221.671,243.057,213.933,250.796,204.392,250.796z"/>
</g>
</svg>
