<?xml version="1.0" encoding="utf-8"?>
<!-- Generator: Adobe Illustrator 15.0.0, SVG Export Plug-In . SVG Version: 6.00 Build 0)  -->
<!DOCTYPE svg PUBLIC "-//W3C//DTD SVG 1.1//EN" "http://www.w3.org/Graphics/SVG/1.1/DTD/svg11.dtd">
<svg version="1.1" id="Layer_1" xmlns="http://www.w3.org/2000/svg" xmlns:xlink="http://www.w3.org/1999/xlink" x="0px" y="0px"
	 width="240px" height="240px" viewBox="0 0 240 240" enable-background="new 0 0 240 240" xml:space="preserve">
<g>
	<g>
		<path fill="#2469A8" d="M75.794,47.773c-11.869,0-21.523,9.655-21.523,21.523c0,11.868,9.654,21.524,21.523,21.524
			s21.523-9.655,21.523-21.523C97.317,57.429,87.663,47.773,75.794,47.773z M75.794,83.646c-7.925,0-14.349-6.424-14.349-14.349
			c0-7.925,6.423-14.349,14.349-14.349c7.926,0,14.35,6.423,14.35,14.349C90.144,77.222,83.72,83.646,75.794,83.646z"/>
	</g>
</g>
<g>
	<g>
		<path fill="#2469A8" d="M75.794,155.391H57.858c-1.976,0-3.587-1.609-3.587-3.588V119.52c0-1.983-1.604-3.588-3.587-3.588
			c-1.982,0-3.587,1.604-3.587,3.588v32.283c0,5.934,4.828,10.762,10.761,10.762h3.587v21.522h-3.587
			c-1.982,0-3.587,1.604-3.587,3.588c0,1.982,1.605,3.587,3.587,3.587h14.351c1.982,0,3.586-1.604,3.586-3.587
			s-1.604-3.588-3.586-3.588H68.62v-21.522h7.174c2.887,0,3.543,1.969,3.587,3.625c0.021,1.959,1.618,3.55,3.587,3.55
			c1.982,0,3.587-1.604,3.587-3.587C86.556,161.828,83.69,155.391,75.794,155.391z"/>
	</g>
</g>
<g>
	<g>
		<path fill="#2469A8" d="M161.887,47.773c-11.867,0-21.523,9.655-21.523,21.523c0,11.868,9.654,21.523,21.523,21.523
			c11.867,0,21.523-9.655,21.523-21.523S173.754,47.773,161.887,47.773z M161.887,83.646c-7.924,0-14.349-6.424-14.349-14.349
			c0-7.925,6.425-14.349,14.349-14.349s14.35,6.423,14.35,14.349C176.236,77.222,169.812,83.646,161.887,83.646z"/>
	</g>
</g>
<g>
	<g>
		<path fill="#2469A8" d="M186.998,115.932c-1.982,0-3.588,1.604-3.588,3.588v32.283c0,1.977-1.612,3.588-3.587,3.588h-17.937
			c-7.896,0-10.763,6.438-10.763,10.762c0,1.981,1.606,3.587,3.588,3.587c1.968,0,3.565-1.591,3.587-3.552
			c0.044-1.655,0.701-3.623,3.588-3.623h7.174v21.522h-3.588c-1.981,0-3.586,1.604-3.586,3.588c0,1.982,1.604,3.587,3.586,3.587
			h14.351c1.981,0,3.586-1.604,3.586-3.587s-1.604-3.588-3.586-3.588h-3.587v-21.522h3.587c5.932,0,10.761-4.828,10.761-10.762
			V119.52C190.585,117.536,188.979,115.932,186.998,115.932z"/>
	</g>
</g>
<g>
	<g>
		<path fill="#2469A8" d="M161.887,97.995c-7.91,0-14.349,6.438-14.349,14.349v16.354l-10.761,3.588v-5.592h3.586
			c1.982,0,3.589-1.604,3.589-3.588c0-1.982-1.606-3.586-3.589-3.586H97.317c-1.982,0-3.587,1.603-3.587,3.586
			s1.604,3.588,3.587,3.588h3.587v5.592l-10.761-3.588v-16.354c0-7.912-6.438-14.349-14.35-14.349
			c-7.911,0-14.349,6.438-14.349,14.349v28.697c0,3.293,2.241,6.162,5.433,6.96l24.293,6.073l6.285,31.421
			c0.672,3.354,3.615,5.767,7.035,5.767h28.697c3.422,0,6.363-2.412,7.035-5.767l6.285-31.421l24.291-6.073
			c3.194-0.798,5.436-3.667,5.436-6.96v-28.697C176.236,104.433,169.797,97.995,161.887,97.995z M100.904,166.15l-3.587-17.936
			L68.62,141.04v-28.697c0-3.962,3.211-7.174,7.174-7.174s7.175,3.212,7.175,7.174v21.523l17.936,5.979L100.904,166.15
			L100.904,166.15z M129.602,134.887v27.678v21.523h-21.522v-21.523v-27.678v-8.193h21.522V134.887z M169.061,141.041l-28.697,7.175
			l-3.586,17.937v-26.307l17.936-5.979v-21.523c0-3.962,3.211-7.174,7.174-7.174s7.176,3.212,7.176,7.174v28.697H169.061z"/>
	</g>
</g>
</svg>
