<?xml version="1.0" encoding="utf-8"?>
<!-- Generator: Adobe Illustrator 15.0.0, SVG Export Plug-In . SVG Version: 6.00 Build 0)  -->
<!DOCTYPE svg PUBLIC "-//W3C//DTD SVG 1.1//EN" "http://www.w3.org/Graphics/SVG/1.1/DTD/svg11.dtd">
<svg version="1.1" id="Layer_1" xmlns="http://www.w3.org/2000/svg" xmlns:xlink="http://www.w3.org/1999/xlink" x="0px" y="0px"
	 width="412px" height="346px" viewBox="0 0 412 346" enable-background="new 0 0 412 346" xml:space="preserve">
<path fill="#0278AA" d="M317.261,161.556H97.497c-15.541,0-28.139,12.599-28.139,28.139v118.974
	c0,15.54,12.599,28.139,28.139,28.139h219.764c15.541,0,28.141-12.599,28.141-28.139V189.695
	C345.401,174.154,332.802,161.556,317.261,161.556z"/>
<path fill="#06344C" d="M214.453,20.171c-0.304-4.963-4.495-10.027-9.312-11.255c0,0-13.4-3.416-47.109-3.416
	s-47.109,3.416-47.109,3.416c-4.817,1.228-9.008,6.293-9.312,11.255c0,0-3.229,66.928-3.268,129.527
	c0.037,62.6,3.268,129.527,3.268,129.527h112.841c0,0,3.229-66.928,3.268-129.527C217.682,87.099,214.453,20.171,214.453,20.171z"/>
<path fill="#0A547B" d="M158.032,258.979c-3.05,0-5.521-2.472-5.521-5.521v-6.816c0-3.049,2.472-5.521,5.521-5.521
	s5.521,2.473,5.521,5.521v6.815C163.554,256.508,161.082,258.979,158.032,258.979z"/>
<g>
	<path fill="#0278AA" d="M134.343,216.807h-6.348c-3.05,0-5.521-2.472-5.521-5.521c0-3.049,2.472-5.521,5.521-5.521h6.348
		c3.05,0,5.521,2.473,5.521,5.521C139.864,214.335,137.393,216.807,134.343,216.807z"/>
	<path fill="#0278AA" d="M188.069,216.807h-6.348c-3.05,0-5.522-2.472-5.522-5.521c0-3.049,2.473-5.521,5.522-5.521h6.348
		c3.049,0,5.521,2.473,5.521,5.521C193.59,214.335,191.118,216.807,188.069,216.807z"/>
	<path fill="#0278AA" d="M161.845,216.807h-6.347c-3.05,0-5.522-2.472-5.522-5.521c0-3.049,2.473-5.521,5.522-5.521h6.347
		c3.049,0,5.521,2.473,5.521,5.521C167.367,214.335,164.895,216.807,161.845,216.807z"/>
	<path fill="#0278AA" d="M134.343,188.959h-6.348c-3.05,0-5.521-2.473-5.521-5.521s2.472-5.521,5.521-5.521h6.348
		c3.05,0,5.521,2.472,5.521,5.521S137.393,188.959,134.343,188.959z"/>
	<path fill="#0278AA" d="M188.069,188.959h-6.348c-3.05,0-5.522-2.473-5.522-5.521s2.473-5.521,5.522-5.521h6.348
		c3.049,0,5.521,2.472,5.521,5.521S191.118,188.959,188.069,188.959z"/>
	<path fill="#0278AA" d="M161.845,188.959h-6.347c-3.05,0-5.522-2.473-5.522-5.521s2.473-5.521,5.522-5.521h6.347
		c3.049,0,5.521,2.472,5.521,5.521S164.895,188.959,161.845,188.959z"/>
	<path fill="#0278AA" d="M134.343,161.111h-6.348c-3.05,0-5.521-2.472-5.521-5.521c0-3.05,2.472-5.522,5.521-5.522h6.348
		c3.05,0,5.521,2.473,5.521,5.522C139.865,158.639,137.393,161.111,134.343,161.111z"/>
	<path fill="#0278AA" d="M188.069,161.111h-6.348c-3.05,0-5.522-2.472-5.522-5.521c0-3.05,2.473-5.522,5.522-5.522h6.348
		c3.049,0,5.521,2.473,5.521,5.522C193.591,158.639,191.118,161.111,188.069,161.111z"/>
	<path fill="#0278AA" d="M161.845,161.111h-6.347c-3.05,0-5.522-2.472-5.522-5.521c0-3.05,2.473-5.522,5.522-5.522h6.347
		c3.049,0,5.521,2.473,5.521,5.522C167.367,158.639,164.895,161.111,161.845,161.111z"/>
</g>
<rect x="124.449" y="69.244" fill="#9BFFB4" width="67.167" height="50.992"/>
<circle fill="#06344C" cx="281.563" cy="261.314" r="31.902"/>
<g>
	<path fill="#0A547B" d="M313.464,201.006h-63.808c-3.05,0-5.522-2.474-5.522-5.522s2.473-5.521,5.522-5.521h63.808
		c3.049,0,5.521,2.473,5.521,5.521S316.513,201.006,313.464,201.006z"/>
	<path fill="#0A547B" d="M217.72,284.748H98.345c-3.05,0-5.521-2.473-5.521-5.521c0-3.05,2.472-5.521,5.521-5.521H217.72
		c3.05,0,5.521,2.473,5.521,5.521S220.77,284.748,217.72,284.748z"/>
</g>
</svg>
