<?xml version="1.0" encoding="utf-8"?>
<!-- Generator: Adobe Illustrator 15.0.0, SVG Export Plug-In . SVG Version: 6.00 Build 0)  -->
<!DOCTYPE svg PUBLIC "-//W3C//DTD SVG 1.1//EN" "http://www.w3.org/Graphics/SVG/1.1/DTD/svg11.dtd">
<svg version="1.1" id="Layer_1" xmlns="http://www.w3.org/2000/svg" xmlns:xlink="http://www.w3.org/1999/xlink" x="0px" y="0px"
	 width="900px" height="900px" viewBox="0 0 900 900" enable-background="new 0 0 900 900" xml:space="preserve">
<g id="Layer_1_1_">
	<circle fill="#C3DFF4" cx="446.471" cy="446.275" r="382.248"/>
	<g id="Layer_3">
		<path fill="#D8D8D8" d="M244.834,290.818l-58.236,66.183l-7.192-6.457l58.237-66.178l1.292-5.908l19.322-17.599l7.725,6.932
			l-15.416,21.106l-5.732,1.925V290.818L244.834,290.818z"/>
		<path fill="#C9C9C9" d="M244.834,290.818l-57.025,64.807l-2.783-4.106l77.092-87.195l3.863,3.468l-15.417,21.105L244.834,290.818
			L244.834,290.818L244.834,290.818z"/>
		<path fill="#333333" d="M184.46,362.074l3.714-4.14c0.982-1.097,0.893-2.795-0.204-3.777l-5.884-5.279
			c-1.096-0.983-2.793-0.891-3.776,0.203l-3.715,4.141c-4.134-2.958-9.962-2.393-13.433,1.472l-47.367,52.782
			c-3.72,4.147-3.374,10.582,0.774,14.302l8.205,7.362c4.146,3.721,10.583,3.371,14.304-0.772l47.365-52.781
			C187.911,371.72,187.847,365.86,184.46,362.074L184.46,362.074L184.46,362.074z"/>
		<path fill="#282828" d="M184.46,362.074l3.716-4.141c0.983-1.095,0.891-2.794-0.205-3.776l-2.941-2.642l-66.358,73.943
			l4.106,3.685c4.146,3.721,10.582,3.369,14.303-0.772l47.366-52.782c3.47-3.866,3.405-9.724,0.017-13.512L184.46,362.074z"/>
		<path fill="#AFAFAF" d="M241.607,380.131c9.733-1.571,20.039,2.359,26.264,11.008c6.529,9.077,6.706,20.772,1.368,29.684
			l-12.265-17.049l-17.499,12.592l12.071,16.775c-9.92,1.861-20.554-2.054-26.916-10.894c-6.221-8.647-6.674-19.675-2.086-28.403
			l-52.581-68.85c-12.28,2.167-25.372-2.727-33.233-13.653c-7.398-10.287-8.258-23.272-3.357-33.895l19.051,26.478l26.223-18.865
			l-19.054-26.479c11.633-1.266,23.672,3.672,31.071,13.962c7.862,10.927,8.34,24.894,2.378,35.844L241.607,380.131L241.607,380.131
			L241.607,380.131z"/>
		<path fill="#A5A4A4" d="M241.606,380.132c9.733-1.572,20.04,2.36,26.262,11.007c6.533,9.08,6.706,20.774,1.371,29.688
			l-12.266-17.051l-8.438,6.076l-82.999-115.354l13.11-9.432l-19.052-26.48c11.628-1.27,23.667,3.671,31.07,13.958
			c7.864,10.929,8.34,24.897,2.383,35.845l48.562,71.748L241.606,380.132z"/>
	</g>
	<path fill="#4D4D4D" d="M270.733,330.562h355.199c11.345,0,20.62,9.28,20.62,20.621v196.314c0,11.342-9.28,20.626-20.62,20.626
		H270.733c-11.343,0-20.62-9.28-20.62-20.626V351.183C250.113,339.841,259.394,330.562,270.733,330.562z"/>
	<path fill="#333333" d="M640.496,336.62c3.743,3.739,6.062,8.893,6.062,14.569v196.313c0,11.344-9.278,20.627-20.618,20.627
		H270.738c-6.912,0-13.054-3.448-16.802-8.711l386.566-222.8L640.496,336.62L640.496,336.62z"/>
	<path fill="#E5C9A5" d="M269.499,345.991h357.679v206.711H269.499V345.991L269.499,345.991z"/>
	<path fill="#333333" d="M248.464,575.761h199.015h1.721h199.009c5.168,0,35.442,44.466,40.545,50.607
		c3.201,3.855,1.234,6.703-3.871,6.688l-236.544-0.586l-236.548,0.586c-5.106,0.017-7.066-2.83-3.872-6.688
		C213.017,620.229,243.292,575.761,248.464,575.761z"/>
	<path fill="#4D4D4D" d="M248.458,575.761c-5.166,0-35.441,44.466-40.54,50.607c-3.2,3.855-1.237,6.703,3.872,6.688l236.543-0.586
		l236.544,0.586c3.521,0.011,5.546-1.345,5.422-3.44L248.46,575.767L248.458,575.761L248.458,575.761z"/>
	<path fill="#333333" d="M227.956,644.164c-5.117-0.005-20.513-8.318-21.325-12.448l-0.349-1.744c159.536,0,324.486,0,484.021,0
		l-0.35,1.744c-0.812,4.117-14.574,12.443-19.691,12.448C522.484,644.439,375.735,644.439,227.956,644.164z"/>
	<path fill="#EBECEC" d="M410.087,610.286h21.062h39.723h21.056l6.635,17h-27.688h-39.723h-27.693L410.087,610.286z"/>
	<path fill="#333333" d="M340.051,568.125h26.035v7.642h-26.035V568.125z M530.592,568.125h26.041v7.642h-26.041V568.125
		L530.592,568.125z"/>
	<path fill="#57737F" d="M546.922,372.626h181.312c6.459,0,11.693,5.237,11.693,11.695V505.68c0,6.46-5.234,11.697-11.693,11.697
		H546.922c-6.458,0-11.693-5.237-11.693-11.697V384.321C535.229,377.862,540.465,372.626,546.922,372.626z"/>
	<path fill="#49626B" d="M736.59,376.159c2.062,2.112,3.334,4.995,3.334,8.162v121.358c0,6.437-5.262,11.697-11.695,11.697H546.922
		c-3.367,0-6.417-1.445-8.554-3.738L736.59,376.159z"/>
	<rect x="551.78" y="384.321" fill="#F7F7F8" width="171.624" height="109.135"/>
	<circle fill="#CCCCCC" cx="637.576" cy="505.027" r="7.771"/>
	<path fill="#1F2B33" d="M593.523,442.685c0,5.337,4.364,9.697,9.702,9.697h68.7c5.338,0,9.705-4.363,9.705-9.697
		c0-48.755,0-97.533,0-146.301c0-5.332-4.367-9.698-9.705-9.698h-68.7c-5.338,0-9.702,4.366-9.702,9.698
		C593.523,345.142,593.523,393.918,593.523,442.685z"/>
	<path fill="#1B252D" d="M596.366,449.524c1.761,1.763,4.188,2.856,6.856,2.856h68.7c5.338,0,9.703-4.363,9.703-9.697
		c0-48.756,0-97.533,0-146.301c0-2.668-1.09-5.096-2.851-6.847L596.36,449.528L596.366,449.524z"/>
	<g>
		<path fill="#FFFFFF" d="M630.371,439.745c0,6.048,1.26,6.125,7.392,6.125c3.237,0,5.118-0.703,5.351-3.9
			c0.196-2.72,0.463-6.718-1.359-8.042c-1.365-0.987-6.328-1.006-8.279-0.635C630.118,433.929,630.371,436.362,630.371,439.745z"/>
		<path fill="#FFFFFF" d="M613.291,294.194c1.635,0,2.962,1.329,2.962,2.963c0,1.634-1.325,2.962-2.962,2.962
			c-1.635,0-2.962-1.325-2.962-2.962C610.327,295.52,611.652,294.194,613.291,294.194z"/>
		<path fill="#FFFFFF" d="M630.489,296.564h17.478c0.844,0,1.527,0.681,1.527,1.531l0,0c0,0.838-0.682,1.526-1.527,1.526h-17.478
			c-0.842,0-1.526-0.688-1.526-1.526l0,0C628.963,297.252,629.646,296.564,630.489,296.564z"/>
	</g>
	<path fill="#D14747" d="M636.948,436.474h0.06c1.724,0,3.128,1.409,3.128,3.126l0,0c0,1.72-1.409,3.126-3.128,3.126h-0.06
		c-1.72,0-3.128-1.406-3.128-3.126l0,0C633.822,437.878,635.229,436.474,636.948,436.474z"/>
	<path fill="#F7F7F8" d="M603.013,306.292h70.141v122.463h-70.141V306.292z"/>
	<g>
		<path fill="#0B4982" d="M399.422,461.856v-20.539l-14.998-1.506c-1.019-3.796-2.522-7.394-4.439-10.724l9.542-11.665
			l-14.527-14.527l-11.664,9.55c-3.329-1.924-6.923-3.42-10.719-4.447h-0.005l-1.503-14.993h-20.541l-1.505,14.993
			c-3.798,1.024-7.396,2.528-10.726,4.447l-11.665-9.543l-14.527,14.521l9.549,11.665c-1.923,3.331-3.419,6.928-4.447,10.724
			l-14.992,1.506v20.539l14.992,1.505c1.024,3.797,2.53,7.391,4.447,10.724l-9.543,11.665l14.521,14.527l11.665-9.544
			c3.33,1.917,6.928,3.421,10.726,4.44l1.505,14.997h20.541l1.503-14.998c3.796-1.018,7.389-2.523,10.724-4.44l11.664,9.543
			l14.527-14.526l-9.542-11.665c1.917-3.333,3.419-6.928,4.439-10.725L399.422,461.856z M340.846,475.35
			c-13.13,0-23.772-10.644-23.772-23.771s10.646-23.775,23.772-23.775c13.129,0,23.773,10.648,23.773,23.775
			C364.62,464.706,353.975,475.35,340.846,475.35z"/>
		<path fill="#0B4982" d="M458.402,416.108l-3.593-12.021l-9.988,1.927c-0.723-1.052-1.521-2.041-2.395-2.951l3.917-9.385
			l-11.042-5.962l-5.699,8.423c-1.231-0.23-2.5-0.36-3.779-0.39l-3.862-9.405l-12.026,3.592l1.931,9.983
			c-1.053,0.723-2.039,1.526-2.948,2.398l-9.385-3.917l-5.963,11.041l8.423,5.699c-0.229,1.24-0.36,2.509-0.391,3.782l-9.402,3.867
			l3.59,12.019l9.982-1.924c0.725,1.053,1.527,2.038,2.4,2.949l-3.922,9.388l11.044,5.961l5.699-8.425
			c1.241,0.229,2.507,0.362,3.782,0.391l3.861,9.403l12.024-3.591l-1.929-9.981c1.058-0.726,2.044-1.527,2.947-2.4l9.39,3.919
			l5.96-11.042l-8.424-5.699c0.225-1.239,0.354-2.506,0.385-3.779L458.402,416.108z M428.873,431.408
			c-6.606,1.973-13.563-1.783-15.536-8.385c-1.972-6.607,1.783-13.562,8.39-15.537c6.607-1.974,13.56,1.785,15.532,8.392
			C439.232,422.486,435.473,429.436,428.873,431.408z"/>
		<path fill="#0B4982" d="M457.453,486.02l-3.934-13.357l-5.983,1.102c-1.013-1.571-2.186-3.022-3.478-4.327l2.549-5.559
			l-12.229-6.666l-3.445,5.011c-1.796-0.396-3.642-0.603-5.52-0.608v-0.002l0.009-0.003l-2.128-5.729l-13.358,3.932l1.102,5.979
			c-1.58,1.009-3.026,2.18-4.335,3.478l-5.561-2.546l-6.667,12.225l5.014,3.45c-0.396,1.795-0.604,3.643-0.608,5.521l-5.733,2.13
			l3.934,13.358l5.978-1.104c1.011,1.577,2.184,3.028,3.479,4.334l-2.545,5.559l12.221,6.661l3.451-5.013
			c1.796,0.396,3.644,0.608,5.521,0.614l2.131,5.733l13.358-3.934l-1.104-5.979c1.577-1.008,3.023-2.179,4.333-3.479l5.557,2.546
			l6.662-12.22l-5.012-3.451c0.395-1.796,0.606-3.645,0.612-5.522L457.453,486.02z M428.133,497.68
			c-5.326,1.569-10.914-1.477-12.479-6.799c-1.568-5.327,1.479-10.914,6.805-12.48c5.325-1.567,10.914,1.479,12.479,6.805
			C436.504,490.524,433.458,496.112,428.133,497.68z"/>
	</g>
</g>
<g id="Layer_2">
</g>
</svg>
