<?xml version="1.0" encoding="utf-8"?>
<!-- Generator: Adobe Illustrator 15.0.0, SVG Export Plug-In . SVG Version: 6.00 Build 0)  -->
<!DOCTYPE svg PUBLIC "-//W3C//DTD SVG 1.1//EN" "http://www.w3.org/Graphics/SVG/1.1/DTD/svg11.dtd">
<svg version="1.1" id="Layer_1" xmlns="http://www.w3.org/2000/svg" xmlns:xlink="http://www.w3.org/1999/xlink" x="0px" y="0px"
	 width="250px" height="250px" viewBox="0 0 250 250" enable-background="new 0 0 250 250" xml:space="preserve">
<g>
	<g>
		<path fill="#61B4E2" d="M180.438,108.609c-1.197,0-2.168,0.971-2.168,2.168v18.501c0,1.197,0.971,2.169,2.168,2.169
			c1.198,0,2.168-0.971,2.168-2.169v-18.501C182.606,109.58,181.637,108.609,180.438,108.609z"/>
	</g>
</g>
<g>
	<g>
		<path fill="#61B4E2" d="M189.688,71.607h-18.499H55.558c-1.198,0-2.168,0.97-2.168,2.168v92.504c0,1.197,0.969,2.168,2.168,2.168
			h81.097l31.741,31.742c0.424,0.423,0.978,0.634,1.534,0.634c0.554,0,1.109-0.211,1.533-0.634l9.811-9.812
			c0.847-0.846,0.847-2.22,0-3.067l-18.863-18.865h8.777h18.5c1.199,0,2.169-0.97,2.169-2.167V73.775
			C191.857,72.577,190.888,71.607,189.688,71.607z M176.676,188.845l-6.745,6.745l-30.844-30.843l-15.147-15.148l6.745-6.745
			l24.96,24.96L176.676,188.845z M109.122,130.946l3.864,7.727h-9.007v-16.478h9.394h7.083v10.052l-8.425-4.211
			c-0.835-0.418-1.842-0.254-2.503,0.406C108.868,129.103,108.705,130.111,109.122,130.946z M121.654,137.695l5.37,2.686
			l-5.558,5.558l-3.033-6.066l-2.524-5.049L121.654,137.695z M169.02,164.111h-10.945l-25.856-25.858
			c-0.006-0.003-0.01-0.007-0.013-0.011c-0.032-0.033-0.068-0.062-0.103-0.094c-0.021-0.016-0.041-0.034-0.062-0.054
			c-0.027-0.021-0.058-0.042-0.086-0.062c-0.033-0.022-0.063-0.048-0.096-0.068c-0.02-0.013-0.042-0.025-0.062-0.037
			c-0.044-0.024-0.085-0.049-0.131-0.072c-0.005-0.003-0.007-0.005-0.011-0.008l-6.861-3.431v-14.391
			c0-1.197-0.972-2.167-2.169-2.167h-7.083v-4.914h32.666v4.914h-9.395c-1.197,0-2.167,0.97-2.167,2.167v20.815
			c0,1.196,0.97,2.167,2.167,2.167h20.813c1.197,0,2.168-0.971,2.168-2.167v-20.815c0-1.197-0.97-2.167-2.168-2.167h-7.082v-7.083
			c0-1.197-0.971-2.168-2.169-2.168h-34.833v-1.445h12.865c1.199,0,2.169-0.971,2.169-2.168V81.869c0-1.198-0.97-2.168-2.169-2.168
			H99.499c-1.198,0-2.168,0.97-2.168,2.168v23.126c0,1.197,0.971,2.168,2.168,2.168h11.707v1.445H74.059
			c-1.197,0-2.167,0.97-2.167,2.168v7.083h-7.083c-1.198,0-2.168,0.97-2.168,2.168v20.814c0,1.197,0.969,2.168,2.168,2.168h20.812
			c1.198,0,2.169-0.971,2.169-2.168v-20.814c0-1.198-0.97-2.168-2.169-2.168h-9.395v-4.915h34.979v4.915h-9.395
			c-1.197,0-2.168,0.97-2.168,2.168v20.814c0,1.197,0.97,2.168,2.168,2.168h13.343l3.78,7.558c0.001,0.004,0.004,0.006,0.005,0.009
			c0.042,0.084,0.091,0.166,0.146,0.246c0.011,0.016,0.025,0.033,0.036,0.049c0.042,0.058,0.086,0.111,0.133,0.163
			c0.019,0.023,0.038,0.044,0.058,0.065c0.01,0.012,0.018,0.021,0.029,0.032l12.98,12.979H57.726V75.943H169.02V164.111
			L169.02,164.111z M101.666,102.827v-18.79h24.571v18.79H101.666z M157.458,122.196v16.477H140.98v-16.477H157.458z
			 M83.454,122.196v16.477H66.977v-16.477H83.454z M187.522,164.111h-14.166V75.943h14.166V164.111z"/>
	</g>
</g>
</svg>
