<?xml version="1.0" encoding="utf-8"?>
<!-- Generator: Adobe Illustrator 15.0.0, SVG Export Plug-In . SVG Version: 6.00 Build 0)  -->
<!DOCTYPE svg PUBLIC "-//W3C//DTD SVG 1.1//EN" "http://www.w3.org/Graphics/SVG/1.1/DTD/svg11.dtd">
<svg version="1.1" id="Layer_1" xmlns="http://www.w3.org/2000/svg" xmlns:xlink="http://www.w3.org/1999/xlink" x="0px" y="0px"
	 width="250px" height="250px" viewBox="0 0 250 250" enable-background="new 0 0 250 250" xml:space="preserve">
<g id="Layer_1_1_">
</g>
<g id="Layer_2">
	<g>
		<g>
			<rect x="157.9" y="72.801" fill="#61B4E2" width="5.179" height="5.177"/>
			<rect x="144.958" y="72.801" fill="#61B4E2" width="5.178" height="5.177"/>
			<rect x="132.015" y="72.801" fill="#61B4E2" width="5.178" height="5.177"/>
			<polygon fill="#61B4E2" points="97.842,112.151 115.713,120.19 115.713,116.806 101.476,110.857 115.713,104.909 115.713,101.55 
				97.842,109.04 			"/>
			<polygon fill="#61B4E2" points="125.545,96.372 117.778,124.322 120.368,124.322 128.134,96.372 			"/>
			<polygon fill="#61B4E2" points="148.069,108.792 130.199,101.275 130.199,104.635 144.46,110.608 130.199,116.558 
				130.199,119.917 148.069,112.151 			"/>
			<path fill="#61B4E2" d="M157.9,138.56c-7.765,0-14.236,6.472-14.236,14.237s6.472,14.236,14.236,14.236
				c7.767,0,14.237-6.471,14.237-14.236S165.691,138.56,157.9,138.56z M157.9,161.856c-4.928,0-9.06-4.131-9.06-9.06
				s4.13-9.061,9.06-9.061s9.062,4.132,9.062,9.061C166.986,157.726,162.829,161.856,157.9,161.856z"/>
			<path fill="#61B4E2" d="M185.255,145.578h-4.853c-0.399-1.194-0.871-2.339-1.418-3.435l3.433-3.434
				c1.321-1.32,1.321-3.46,0-4.779l-3.782-3.783V62.172H67.302v108.744c0,1.543,1.045,2.588,2.588,2.588h64.688l4.133,4.133
				c1.318,1.32,3.458,1.32,4.777,0l3.436-3.435c1.096,0.548,2.239,1.046,3.435,1.418v4.854c0,1.867,1.519,3.359,3.361,3.359h8.038
				c1.867,0,3.361-1.518,3.361-3.359v-4.853c1.194-0.399,2.338-0.871,3.435-1.419l3.435,3.435c1.319,1.32,3.459,1.32,4.779,0
				l5.675-5.674c1.318-1.32,1.318-3.461,0-4.779l-3.435-3.437c0.547-1.094,1.046-2.24,1.418-3.434h4.829
				c1.867,0,3.36-1.519,3.36-3.36v-8.038C188.641,147.098,187.121,145.578,185.255,145.578L185.255,145.578z M72.479,67.349h100.979
				v16.303H72.479V67.349z M133.036,167.209c-0.323,0.323-0.572,0.721-0.747,1.119H72.205V88.855h100.979v38.629
				c-0.448,0.175-0.872,0.423-1.22,0.771l-3.435,3.436c-1.096-0.548-2.24-1.047-3.435-1.419v-4.854c0-1.867-1.519-3.361-3.36-3.361
				h-8.039c-1.867,0-3.362,1.518-3.362,3.361v4.854c-1.194,0.397-2.338,0.871-3.434,1.419l-3.435-3.436
				c-1.32-1.319-3.46-1.319-4.779,0l-5.675,5.675c-1.319,1.319-1.319,3.46,0,4.779l3.435,3.435
				c-0.548,1.096-1.044,2.239-1.418,3.435h-4.854c-1.866,0-3.359,1.519-3.359,3.36v8.04c0,1.867,1.517,3.36,3.359,3.36h4.854
				c0.398,1.193,0.87,2.339,1.418,3.435L133.036,167.209L133.036,167.209z M183.413,155.136h-6.123
				c-0.424,3.809-1.917,7.294-4.207,10.155l4.332,4.331l-3.062,3.062l-4.332-4.355c-2.836,2.29-6.321,3.783-10.154,4.207v6.122
				h-4.331v-6.122c-3.808-0.423-7.294-1.917-10.155-4.207l-4.331,4.331l-3.062-3.062l4.331-4.33
				c-2.291-2.837-3.783-6.322-4.206-10.155h-6.123v-4.33h6.123c0.423-3.809,1.915-7.294,4.206-10.155l-4.331-4.331l3.062-3.062
				l4.331,4.33c2.837-2.29,6.322-3.783,10.155-4.206v-6.124h4.331v6.124c3.807,0.423,7.293,1.916,10.154,4.206l4.332-4.33
				l3.062,3.062l-4.332,4.331c2.29,2.837,3.783,6.32,4.207,10.155h6.123V155.136z"/>
		</g>
	</g>
</g>
</svg>
