<?xml version="1.0" encoding="utf-8"?>
<!-- Generator: Adobe Illustrator 15.0.0, SVG Export Plug-In . SVG Version: 6.00 Build 0)  -->
<!DOCTYPE svg PUBLIC "-//W3C//DTD SVG 1.1//EN" "http://www.w3.org/Graphics/SVG/1.1/DTD/svg11.dtd">
<svg version="1.1" xmlns="http://www.w3.org/2000/svg" xmlns:xlink="http://www.w3.org/1999/xlink" x="0px" y="0px" width="300px"
	 height="300px" viewBox="0 0 300 300" enable-background="new 0 0 300 300" xml:space="preserve">
<g id="Layer_1" display="none">
	<path display="inline" d="M210.736,297.5H92.925c-12.518,0-22.757-10.239-22.757-22.757V26.258
		c0-12.518,10.239-22.757,22.757-22.757h117.816c12.518,0,22.757,10.239,22.757,22.757v248.485
		C233.493,287.261,223.254,297.5,210.736,297.5z"/>
	<rect x="80.94" y="26.677" display="inline" fill="#3579A8" width="141.78" height="231.846"/>
	<g display="inline">
		<path fill="#CCCCCC" d="M173.096,17.526h-29.015c-1.304,0-2.371-1.065-2.371-2.371l0,0c0-1.304,1.066-2.37,2.371-2.37h29.015
			c1.304,0,2.37,1.066,2.37,2.37l0,0C175.466,16.46,174.399,17.526,173.096,17.526z"/>
		<circle fill="#CCCCCC" cx="130.566" cy="15.156" r="2.37"/>
		<path fill="#CCCCCC" d="M151.831,289.213c-6.183,0-11.209-5.03-11.209-11.209c0-6.178,5.03-11.208,11.209-11.208
			c6.179,0,11.209,5.03,11.209,11.208C163.04,284.183,158.01,289.213,151.831,289.213z M151.831,269.088
			c-4.916,0-8.912,3.996-8.912,8.912c0,4.915,3.997,8.911,8.912,8.911c4.915,0,8.912-3.996,8.912-8.911
			C160.743,273.084,156.746,269.088,151.831,269.088z"/>
	</g>
	<rect x="80.844" y="153.826" display="inline" fill="#FFFFFF" width="141.78" height="104.701"/>
	<rect x="93.527" y="172.486" display="inline" width="116.418" height="3.381"/>
	<g display="inline">
		<rect x="93.527" y="183.874" fill="#CCCCCC" width="116.418" height="3.381"/>
		<rect x="93.527" y="192.603" fill="#CCCCCC" width="116.418" height="3.381"/>
		<rect x="93.527" y="201.376" fill="#CCCCCC" width="116.418" height="3.382"/>
		<rect x="93.527" y="210.086" fill="#CCCCCC" width="116.418" height="3.381"/>
		<rect x="93.527" y="218.814" fill="#CCCCCC" width="116.418" height="3.381"/>
	</g>
	<rect id="SVGCleanerId_0" x="124.172" y="237.759" display="inline" fill="#CCCCCC" width="55.125" height="3.381"/>
	<g display="inline">
		<rect id="SVGCleanerId_0_1_" x="124.172" y="237.759" fill="#CCCCCC" width="55.125" height="3.381"/>
	</g>
	<g display="inline">
		<path fill="#FFFFFF" d="M148.088,76.911V73.64c-1.879-0.032-3.822-0.615-4.957-1.424l0.776-2.173
			c1.167,0.776,2.853,1.392,4.663,1.392c2.302,0,3.854-1.328,3.854-3.175c0-1.782-1.264-2.88-3.661-3.854
			c-3.303-1.295-5.342-2.784-5.342-5.604c0-2.688,1.911-4.731,4.892-5.214v-3.271h2.008v3.142c1.943,0.064,3.271,0.583,4.213,1.135
			l-0.809,2.136c-0.681-0.39-2.008-1.103-4.081-1.103c-2.494,0-3.431,1.489-3.431,2.784c0,1.686,1.199,2.526,4.015,3.693
			c3.335,1.36,5.021,3.045,5.021,5.926c0,2.559-1.782,4.957-5.118,5.508v3.367h-2.044V76.911z"/>
		<polygon fill="#FFFFFF" points="165.467,93.552 180.911,52.571 194.058,52.571 194.058,56.085 183.341,56.085 168.751,94.792 		
			"/>
		<polygon fill="#FFFFFF" points="117.251,80.63 184.669,80.63 175.247,111.674 126.673,111.674 		"/>
		<circle fill="#FFFFFF" cx="166.799" cy="124.202" r="7.653"/>
		<circle fill="#FFFFFF" cx="135.121" cy="124.202" r="7.653"/>
	</g>
</g>
<g id="Layer_2">
	<path d="M209.8,300.5H90.586c-12.667,0-23.028-10.361-23.028-23.028V26.031c0-12.667,10.361-23.028,23.028-23.028h119.217
		c12.667,0,23.028,10.361,23.028,23.028v251.441C232.827,290.139,222.466,300.5,209.8,300.5z"/>
	<g>
		<rect x="78.459" y="26.454" fill="#F7F7F7" width="143.468" height="234.604"/>
		<path fill="#CCCCCC" d="M171.71,17.194h-29.359c-1.32,0-2.398-1.079-2.398-2.398l0,0c0-1.32,1.079-2.398,2.398-2.398h29.359
			c1.321,0,2.399,1.078,2.399,2.398l0,0C174.109,16.116,173.031,17.194,171.71,17.194z"/>
		<circle fill="#CCCCCC" cx="128.676" cy="14.796" r="2.398"/>
		<path fill="#CCCCCC" d="M150.192,292.115c-6.256,0-11.342-5.091-11.342-11.343c0-6.253,5.09-11.343,11.342-11.343
			c6.253,0,11.343,5.09,11.343,11.343C161.535,287.024,156.449,292.115,150.192,292.115z M150.192,271.75
			c-4.974,0-9.018,4.044-9.018,9.018s4.044,9.018,9.018,9.018c4.975,0,9.019-4.044,9.019-9.018S155.167,271.75,150.192,271.75z"/>
	</g>
	<rect x="78.459" y="120.018" fill="#3579A8" width="143.468" height="35.207"/>
	<rect x="78.459" y="155.116" fill="#FFFFFF" width="143.468" height="105.947"/>
	<rect x="91.293" y="173.998" width="117.803" height="3.422"/>
	<g>
		<rect x="91.293" y="185.522" fill="#CCCCCC" width="117.803" height="3.421"/>
		<rect x="91.293" y="194.354" fill="#CCCCCC" width="117.803" height="3.421"/>
		<rect x="91.293" y="203.232" fill="#CCCCCC" width="117.803" height="3.422"/>
		<rect x="91.293" y="212.046" fill="#CCCCCC" width="117.803" height="3.421"/>
		<rect x="91.293" y="220.878" fill="#CCCCCC" width="117.803" height="3.422"/>
	</g>
	<rect x="122.302" y="240.048" fill="#CCCCCC" width="55.781" height="3.421"/>
	<text transform="matrix(1 0 0 1 116.9756 143.3232)" fill="#FFFFFF" font-family="'ArialMT'" font-size="18.8415">Booking</text>
	<g>
		<g>
			<path d="M107.726,109.508c-0.805,1.531-0.218,3.425,1.314,4.229c1.53,0.808,3.425,0.217,4.23-1.314
				c0.03-0.057,5.866-5.666,34.943-5.666c31.491,0,40.106,7.91,40.143,7.942c0.617,0.641,1.438,0.962,2.262,0.962
				c0.777,0,1.56-0.289,2.169-0.871c1.248-1.2,1.288-3.181,0.092-4.429c-0.499-0.519-3.245-3.098-10.405-5.492
				c0.646-0.649,1.046-1.544,1.046-2.534V85.436c0,0,1.274,0,2.848,0c1.574,0,1.841-1.255,0.595-2.804l-14.863-18.505
				c-1.239-1.549-3.242-1.539-4.469,0.024l-0.664,0.848c1.355,1.084,1.912,2.891,1.379,4.553c-0.548,1.71-2.121,2.879-3.917,2.913
				l-0.301,0.007l9.024,9.879c1.119,1.229,1.409,3.004,0.738,4.524c-0.672,1.52-2.18,2.503-3.839,2.503h-10.876v11.454
				c-0.592-0.037-1.185-0.075-1.799-0.106V87.592h12.675c0.952,0,1.81-0.56,2.193-1.43c0.385-0.871,0.22-1.884-0.424-2.585
				L160.12,70.761l4.274-0.079c1.024-0.021,1.925-0.689,2.236-1.665c0.313-0.978-0.026-2.045-0.85-2.656l-5.165-3.843h0.536
				c0.005,0,0.01,0,0.012,0c1.278,0.016,2.411-1.07,2.411-2.397c0-0.629-0.239-1.203-0.639-1.629l-6.018-8.437h0.59
				c0.005,0,0.007,0,0.014,0c1.315-0.046,2.409-1.071,2.409-2.397c0-0.653-0.261-1.245-0.684-1.679l-9.39-12.382
				c-0.459-0.608-1.137-0.992-1.949-0.949c-0.765,0.013-1.477,0.389-1.919,1.014l-8.663,12.245
				c-0.518,0.731-0.583,1.692-0.173,2.488c0.361,0.694,1.033,1.164,1.795,1.271l-6.421,8.907c-0.446,0.618-0.545,1.398-0.322,2.113
				c1.104,0.213,2.13,0.798,2.936,1.688l0.629,0.755l6.607,8.225l1.224-1.632c0.545-0.725,0.631-1.699,0.226-2.51
				c-0.405-0.812-1.235-1.326-2.144-1.326h-1.954l3.766-4.341c0.616-0.709,0.76-1.713,0.37-2.567
				c-0.39-0.854-1.242-1.402-2.181-1.402h-2.526l6.402-8.881c0.527-0.729,0.598-1.694,0.188-2.494
				c-0.365-0.714-1.059-1.192-1.845-1.288l4.108-5.806l4.667,6.156h-0.42c-0.9,0-1.721,0.501-2.132,1.3
				c-0.411,0.799-0.34,1.759,0.18,2.49l6.188,8.674h-3.122c-1.032,0-1.951,0.662-2.275,1.644s0.016,2.061,0.846,2.68l5.343,3.974
				l-2.558,0.049c-0.942,0.017-1.787,0.584-2.158,1.45c-0.369,0.866-0.203,1.868,0.433,2.564l11.607,12.715h-9.638
				c-1.325,0-2.397,1.074-2.397,2.398v15.355c-1.175-0.028-2.376-0.045-3.616-0.051V87.702c-0.369,0.097-0.76,0.154-1.18,0.154
				h-0.451v12.648c-0.6,0.002-1.2,0.005-1.781,0.011V85.443c0,0,1.274,0,2.848,0c1.572,0,1.837-1.254,0.594-2.803l-14.863-18.513
				c-1.244-1.551-3.246-1.538-4.471,0.025l-14.481,18.456c-1.225,1.562-0.946,2.829,0.628,2.829h2.846v16.897
				c0,0.355,0.068,0.691,0.162,1.014C110.692,105.506,108.366,108.294,107.726,109.508z M133.192,85.636h4.333v6.366h-4.333V85.636z
				 M133.192,94.835h4.333v5.932c-1.521,0.084-2.961,0.186-4.333,0.298V94.835z M126.03,85.636h4.333v6.366h-4.333V85.636z
				 M126.03,94.835h4.333v6.365h-4.333V94.835z"/>
		</g>
	</g>
	<g>
		<g>
			<path fill="#3579A8" d="M148.961,100.504V87.702c-0.369,0.097-0.76,0.154-1.18,0.154h-0.451v12.567
				c0.554,0.009,1.105,0.047,1.653,0.113c0.077-0.009,0.156-0.021,0.234-0.03C149.131,100.506,149.046,100.505,148.961,100.504z"/>
			<path fill="#3579A8" d="M186.961,82.631l-14.863-18.505c-1.239-1.549-3.242-1.539-4.469,0.024l-0.664,0.848
				c1.355,1.084,1.912,2.891,1.379,4.553c-0.548,1.71-2.121,2.879-3.917,2.913l-0.301,0.007l9.024,9.879
				c1.119,1.229,1.409,3.004,0.738,4.524c-0.672,1.52-2.18,2.503-3.839,2.503h-10.876v11.454c-0.592-0.037-1.185-0.075-1.799-0.106
				V87.592h12.675c0.952,0,1.81-0.56,2.193-1.43c0.385-0.871,0.22-1.884-0.424-2.585L160.12,70.761l4.274-0.079
				c1.024-0.021,1.925-0.689,2.236-1.665c0.313-0.978-0.026-2.045-0.85-2.656l-5.165-3.843h0.548
				c1.278,0.016,2.411-1.07,2.411-2.397c0-0.629-0.239-1.203-0.639-1.629l-6.018-8.437h0.604c1.315-0.046,2.409-1.071,2.409-2.397
				c0-0.653-0.261-1.245-0.684-1.679l-9.39-12.382c-0.459-0.608-1.137-0.992-1.949-0.949c-0.765,0.013-1.477,0.389-1.919,1.014
				l-8.663,12.245c-0.518,0.731-0.583,1.692-0.173,2.488c0.361,0.694,1.033,1.164,1.795,1.271l-6.421,8.907
				c-0.446,0.618-0.545,1.398-0.322,2.113c1.104,0.213,2.13,0.798,2.936,1.688l0.629,0.755l6.607,8.225l1.224-1.632
				c0.545-0.725,0.631-1.699,0.226-2.51c-0.405-0.812-1.235-1.326-2.144-1.326h-1.954l3.766-4.341
				c0.616-0.709,0.76-1.713,0.37-2.567c-0.39-0.854-1.242-1.402-2.181-1.402h-2.526l6.402-8.881
				c0.527-0.729,0.598-1.694,0.188-2.494c-0.365-0.714-1.059-1.192-1.845-1.288l4.108-5.806l4.667,6.156h-0.42
				c-0.9,0-1.721,0.501-2.132,1.3c-0.411,0.799-0.34,1.759,0.18,2.49l6.188,8.674h-3.122c-1.032,0-1.951,0.662-2.275,1.644
				s0.016,2.061,0.846,2.68l5.343,3.974l-2.558,0.049c-0.942,0.017-1.787,0.584-2.158,1.45c-0.369,0.866-0.203,1.868,0.433,2.564
				l11.607,12.715h-9.638c-1.325,0-2.397,1.074-2.397,2.398v15.317c0.067,0.007,0.134,0.018,0.2,0.026
				c0.283-0.016,0.567-0.027,0.854-0.027c0.832,0,1.651,0.073,2.452,0.205c0.074-0.001,0.148-0.006,0.223-0.006
				c0.578,0,1.146,0.037,1.709,0.1c0.025,0,0.051-0.001,0.075-0.001c0.178,0.024,0.356,0.048,0.533,0.072
				c0.477-0.045,0.961-0.072,1.449-0.072c0.634,0,1.258,0.044,1.875,0.121c0.837,0.043,1.656,0.156,2.457,0.33
				c0.699,0.059,1.388,0.165,2.062,0.316c0.35,0.033,0.699,0.076,1.041,0.132c1.266,0.034,2.498,0.225,3.68,0.551
				c0.312,0.046,0.625,0.098,0.931,0.162c0.948,0.053,1.875,0.194,2.775,0.414c1.162,0.088,2.293,0.308,3.374,0.643
				c1.46,0.286,2.851,0.779,4.145,1.448c0.066,0.012,0.138,0.021,0.205,0.035c0.016-0.01,0.032-0.02,0.049-0.03
				c-0.064-0.021-0.127-0.043-0.192-0.066c0.646-0.649,1.046-1.544,1.046-2.534V85.436c0,0,1.274,0,2.848,0
				C187.94,85.436,188.207,84.181,186.961,82.631z"/>
		</g>
	</g>
</g>
</svg>
