<?xml version="1.0" encoding="utf-8"?>
<!-- Generator: Adobe Illustrator 15.0.0, SVG Export Plug-In . SVG Version: 6.00 Build 0)  -->
<!DOCTYPE svg PUBLIC "-//W3C//DTD SVG 1.1//EN" "http://www.w3.org/Graphics/SVG/1.1/DTD/svg11.dtd">
<svg version="1.1" id="Layer_1" xmlns="http://www.w3.org/2000/svg" xmlns:xlink="http://www.w3.org/1999/xlink" x="0px" y="0px"
	 width="250px" height="250px" viewBox="0 0 250 250" enable-background="new 0 0 250 250" xml:space="preserve">
<g id="Layer_1_1_">
	<g>
		<g>
			<path fill="#61B4E2" d="M120.061,165.787c-4.817,0-8.724,3.911-8.724,8.725c0,4.822,3.907,8.724,8.724,8.724
				c4.818,0,8.725-3.901,8.725-8.724C128.786,169.698,124.879,165.787,120.061,165.787z M120.061,177.421
				c-1.604,0-2.907-1.303-2.907-2.909c0-1.603,1.303-2.905,2.907-2.905s2.908,1.303,2.908,2.905
				C122.968,176.118,121.666,177.421,120.061,177.421z"/>
		</g>
	</g>
	<g>
		<g>
			<path fill="#61B4E2" d="M185.375,134.162l-1.303,0.579c-6.646-34.775-13.354-47.714-14.187-49.224
				c-1.241-2.68-3.544-4.607-6.201-5.306V61.1c0-6.424-5.21-11.632-11.635-11.632H90.981c-6.424,0-11.634,5.208-11.634,11.632
				v116.322c0,6.424,5.21,11.634,11.634,11.634h61.069c6.425,0,11.635-5.21,11.635-11.634v-8.071l31.19-13.947L185.375,134.162z
				 M160.122,86.04c0.444-0.2,0.899-0.3,1.352-0.3c1.325,0,2.534,0.874,3.165,2.279l0.06,0.134l0.073,0.125
				c0.071,0.124,6.999,12.479,13.85,48.908l-35.188,15.735l-1.763-1.956l-33.126-17.937c-1.096-0.597-1.893-1.576-2.242-2.77
				c-0.352-1.192-0.211-2.453,0.394-3.552c0.835-1.521,2.435-2.463,4.174-2.463c0.786,0,1.539,0.188,2.233,0.563l14.522,7.872
				l-23.95-53.547c-0.5-1.119-0.177-2.213,0.06-2.765c0.428-0.992,1.216-1.806,2.164-2.23c0.53-0.237,1.137-0.363,1.757-0.363
				c1.323,0,2.936,0.616,3.548,1.991l10.217,22.841l4.896,10.943l0.001-0.001c0.007,0.016,0.014,0.032,0.02,0.048
				c0.656,1.465,2.374,2.122,3.841,1.465c1.467-0.653,2.125-2.375,1.469-3.839c-0.008-0.017-0.016-0.029-0.023-0.046h0.003
				l-4.955-11.079c-0.468-1.049-0.091-2.174,0.177-2.748c0.492-1.051,1.372-1.941,2.352-2.381c0.086-0.036,0.172-0.07,0.258-0.102
				l0.141-0.056c0.547-0.233,1.185-0.355,1.842-0.355c1.404,0,3.083,0.583,3.664,1.887l4.949,11.063h0.003
				c0.008,0.015,0.012,0.032,0.017,0.046c0.656,1.466,2.379,2.123,3.845,1.468c1.466-0.656,2.121-2.375,1.466-3.842
				c-0.009-0.015-0.017-0.03-0.026-0.045l0.006-0.002l-2.952-6.601c-0.75-1.68,0.52-4.23,2.563-5.144
				c0.563-0.251,1.219-0.383,1.901-0.383c1.389,0,3.059,0.587,3.647,1.901l1.311,2.941l1.637,3.659h0.004
				c0.005,0.015,0.013,0.032,0.021,0.047c0.656,1.468,2.372,2.123,3.842,1.468c1.466-0.655,2.122-2.375,1.466-3.842
				c-0.009-0.014-0.018-0.029-0.024-0.044h0.004l-1.641-3.662C156.435,89.781,157.993,86.993,160.122,86.04z M105.776,138.141
				l8.468,4.589v5.609H96.795v-17.448h3.684c0.063,0.341,0.145,0.677,0.242,1.014C101.512,134.589,103.307,136.808,105.776,138.141z
				 M96.795,116.352V98.903h9.351l7.804,17.448H96.795z M98.365,81.508l1.278,2.857h-2.848V66.916h17.449v3.438
				c-1.738-1.51-4.075-2.394-6.588-2.394c-1.431,0-2.861,0.301-4.132,0.87c-2.264,1.014-4.136,2.925-5.132,5.244
				C97.333,76.538,97.324,79.178,98.365,81.508z M128.786,84.365L128.786,84.365V66.916h17.45v16.192
				c-1.273,0.074-2.522,0.371-3.638,0.869c-0.261,0.117-0.512,0.249-0.764,0.389L128.786,84.365L128.786,84.365z M85.164,61.1
				c0-3.208,2.609-5.816,5.817-5.816h61.069c3.209,0,5.815,2.608,5.815,5.816v19.583c-0.038,0.017-0.076,0.031-0.119,0.05
				c-1.905,0.851-3.622,2.371-4.822,4.213c-0.281-0.198-0.571-0.381-0.874-0.549V64.006c0-1.606-1.298-2.907-2.908-2.907h-23.264
				c-1.607,0-2.91,1.301-2.91,2.907v23.265c0,0.277,0.04,0.543,0.113,0.799l-3.02-6.752V64.006c0-1.606-1.301-2.907-2.907-2.907
				H93.889c-1.606,0-2.908,1.301-2.908,2.907v23.265c0,1.606,1.301,2.908,2.908,2.908h8.356l1.301,2.91h-9.657
				c-1.606,0-2.908,1.301-2.908,2.907v23.265c0,1.606,1.301,2.908,2.908,2.908h8.903c-0.449,0.53-0.851,1.11-1.193,1.735
				c-0.211,0.384-0.394,0.776-0.554,1.172h-7.157c-1.606,0-2.908,1.305-2.908,2.909v23.263c0,1.606,1.301,2.909,2.908,2.909h23.265
				c1.606,0,2.907-1.303,2.907-2.909v-5.371l2.908,1.575v3.796c0,1.606,1.303,2.909,2.91,2.909h9.467l2.408,1.305l-0.497,0.221
				l1.916,4.29H85.164V61.1z M157.865,177.421c0,3.208-2.606,5.814-5.815,5.814h-31.989h-29.08c-3.208,0-5.817-2.606-5.817-5.814
				v-11.634h34.897h21.715l4.98,11.136l11.108-4.972V177.421L157.865,177.421z M149.687,169.237l-4.745-10.618l37.495-16.773
				l4.755,10.616L149.687,169.237z"/>
		</g>
	</g>
</g>
<g id="Layer_2" display="none">
	<g display="inline">
		<g>
			<rect x="179.253" y="56.873" fill="#61B4E2" width="7.912" height="7.912"/>
			<rect x="159.475" y="56.873" fill="#61B4E2" width="7.912" height="7.912"/>
			<rect x="139.695" y="56.873" fill="#61B4E2" width="7.912" height="7.912"/>
			<polygon fill="#61B4E2" points="87.473,117.008 114.783,129.294 114.783,124.121 93.026,115.03 114.783,105.94 114.783,100.806 
				87.473,112.254 			"/>
			<polygon fill="#61B4E2" points="129.807,92.894 117.939,135.607 121.896,135.607 133.764,92.894 			"/>
			<polygon fill="#61B4E2" points="164.229,111.874 136.919,100.387 136.919,105.521 158.714,114.65 136.919,123.741 
				136.919,128.875 164.229,117.008 			"/>
			<path fill="#61B4E2" d="M179.253,157.364c-11.866,0-21.757,9.89-21.757,21.757s9.891,21.757,21.757,21.757
				c11.868,0,21.757-9.89,21.757-21.757S191.158,157.364,179.253,157.364z M179.253,192.967c-7.53,0-13.845-6.314-13.845-13.846
				c0-7.532,6.312-13.846,13.845-13.846s13.847,6.313,13.847,13.846C193.137,186.652,186.784,192.967,179.253,192.967z"/>
			<path fill="#61B4E2" d="M221.055,168.09h-7.416c-0.609-1.824-1.332-3.574-2.168-5.248l5.247-5.249
				c2.019-2.016,2.019-5.286,0-7.303l-5.78-5.781V40.632H40.803v166.179c0,2.357,1.597,3.955,3.956,3.955h98.855l6.313,6.313
				c2.016,2.019,5.287,2.019,7.303,0l5.25-5.248c1.674,0.837,3.422,1.599,5.248,2.168v7.417c0,2.854,2.32,5.135,5.135,5.135h12.285
				c2.854,0,5.137-2.32,5.137-5.135V214c1.824-0.609,3.574-1.331,5.248-2.168l5.249,5.248c2.016,2.018,5.286,2.018,7.304,0
				l8.672-8.671c2.016-2.017,2.016-5.288,0-7.304l-5.249-5.25c0.837-1.672,1.599-3.424,2.168-5.248h7.38
				c2.853,0,5.135-2.319,5.135-5.135v-12.285C226.229,170.411,223.907,168.09,221.055,168.09L221.055,168.09z M48.714,48.543
				h154.312v24.914H48.714V48.543z M141.255,201.145c-0.493,0.494-0.874,1.104-1.142,1.711H48.295V81.407h154.312v59.032
				c-0.686,0.267-1.332,0.646-1.864,1.179l-5.248,5.25c-1.675-0.837-3.425-1.599-5.249-2.168v-7.418c0-2.853-2.32-5.136-5.135-5.136
				h-12.286c-2.853,0-5.136,2.32-5.136,5.136v7.418c-1.825,0.606-3.574,1.331-5.248,2.168l-5.25-5.25
				c-2.017-2.017-5.286-2.017-7.303,0l-8.672,8.673c-2.017,2.016-2.017,5.287,0,7.303l5.248,5.249
				c-0.837,1.675-1.597,3.423-2.168,5.248h-7.417c-2.853,0-5.134,2.321-5.134,5.136v12.285c0,2.854,2.318,5.137,5.134,5.137h7.417
				c0.609,1.824,1.331,3.574,2.168,5.248L141.255,201.145L141.255,201.145z M218.24,182.695h-9.356
				c-0.647,5.82-2.93,11.146-6.429,15.52l6.618,6.618l-4.679,4.679l-6.619-6.656c-4.334,3.5-9.659,5.781-15.519,6.429v9.356h-6.618
				v-9.356c-5.818-0.646-11.145-2.929-15.519-6.429l-6.618,6.619l-4.679-4.68l6.618-6.618c-3.5-4.336-5.781-9.661-6.428-15.519
				h-9.356v-6.618h9.356c0.646-5.819,2.928-11.146,6.428-15.519l-6.618-6.619l4.679-4.678l6.618,6.617
				c4.337-3.499,9.661-5.781,15.519-6.428v-9.357h6.618v9.357c5.82,0.646,11.146,2.929,15.519,6.428l6.619-6.617l4.679,4.678
				l-6.618,6.619c3.499,4.336,5.781,9.66,6.429,15.519h9.356V182.695z"/>
		</g>
	</g>
</g>
</svg>
