<?xml version="1.0" encoding="utf-8"?>
<!-- Generator: Adobe Illustrator 15.0.0, SVG Export Plug-In . SVG Version: 6.00 Build 0)  -->
<!DOCTYPE svg PUBLIC "-//W3C//DTD SVG 1.1//EN" "http://www.w3.org/Graphics/SVG/1.1/DTD/svg11.dtd">
<svg version="1.1" id="Capa_1" xmlns="http://www.w3.org/2000/svg" xmlns:xlink="http://www.w3.org/1999/xlink" x="0px" y="0px"
	 width="300px" height="300px" viewBox="0 0 300 300" enable-background="new 0 0 300 300" xml:space="preserve">
<path fill="#222326" d="M241.936,27.008v11.701h-22.799H58.064V27.008C58.064,12.088,70.154,0,85.073,0h129.855
	C229.839,0,241.936,12.088,241.936,27.008z"/>
<path fill="#222326" d="M86.049,259.678h155.887v13.314c0,14.918-12.097,27.008-27.008,27.008h-7.518H85.073
	c-14.919,0-27.008-12.088-27.008-27.008v-13.314H86.049z"/>
<polygon fill="#BBCCB2" points="241.936,144.355 241.936,259.678 86.049,259.678 219.137,39.693 219.137,38.709 241.936,38.709 
	241.936,111.693 "/>
<polygon fill="#CFE2C5" points="219.137,38.709 219.137,39.693 86.049,259.678 58.064,259.678 58.064,38.709 "/>
<circle fill="#969489" cx="150" cy="279.839" r="12.097"/>
<g>
	<path fill="#1A1A1A" d="M121.814,173.997c-1.877,0-3.754-0.716-5.185-2.148L93.82,149.033c-2.862-2.863-2.862-7.505,0-10.368
		l22.809-22.809c2.863-2.863,7.505-2.863,10.369,0c2.863,2.863,2.863,7.505,0,10.369l-17.625,17.625L127,161.482
		c2.863,2.863,2.861,7.506-0.001,10.369C125.565,173.281,123.689,173.997,121.814,173.997z"/>
	<path fill="#1A1A1A" d="M178.188,173.997c-1.877,0-3.752-0.716-5.184-2.147c-2.863-2.862-2.864-7.504-0.002-10.367l17.626-17.633
		l-17.626-17.625c-2.862-2.863-2.862-7.505,0-10.369c2.865-2.863,7.506-2.863,10.37,0l22.808,22.809
		c2.862,2.863,2.863,7.504,0.001,10.368l-22.808,22.816C181.941,173.279,180.064,173.997,178.188,173.997z"/>
	<path fill="#1A1A1A" d="M140.883,192.238c-0.468,0-0.943-0.045-1.421-0.139c-3.973-0.779-6.562-4.634-5.781-8.607l16.129-82.114
		c0.781-3.974,4.634-6.561,8.607-5.781c3.974,0.78,6.562,4.634,5.781,8.607l-16.129,82.115
		C147.384,189.814,144.317,192.238,140.883,192.238z"/>
</g>
</svg>
