<?xml version="1.0" encoding="utf-8"?>
<!-- Generator: Adobe Illustrator 15.0.0, SVG Export Plug-In . SVG Version: 6.00 Build 0)  -->
<!DOCTYPE svg PUBLIC "-//W3C//DTD SVG 1.1//EN" "http://www.w3.org/Graphics/SVG/1.1/DTD/svg11.dtd">
<svg version="1.1" id="Layer_1" xmlns="http://www.w3.org/2000/svg" xmlns:xlink="http://www.w3.org/1999/xlink" x="0px" y="0px"
	 width="250px" height="250px" viewBox="0 0 250 250" enable-background="new 0 0 250 250" xml:space="preserve">
<g>
	<g>
		<g>
			<path fill="#61B4E2" d="M186.135,41.262l-13.201,9.882l-13.274,30.953h-10.677l-4.194-9.083h2.74c5.01,0,9.085-4.031,9.085-9.041
				v-9.128h4.541V41.219h-13.626v13.626h4.542v9.128c0,2.502-2.036,4.498-4.542,4.498h-4.835l-5.804-12.559l6.952-3.465
				l-22.768-9.751l-5.353,18.733c-0.146-11.145-9.245-20.167-20.426-20.167c-11.271,0-20.438,9.168-20.438,20.438
				c0,6.81,3.45,13.199,9.084,16.975v3.422h-5.5l-0.354,1.862c-1.104,5.725-1.206,11.609-0.304,17.479L62.29,129.052l17.109,3.908
				v28.621h22.71v20.438h54.504v-31.646c15.896-11.246,24.977-29.326,24.962-48.617l0.004-8.285c0-3.123-0.288-6.332-0.87-9.493
				l-0.336-1.883h-4.457l10.219-24.483V41.262L186.135,41.262z M152.069,50.346v-4.542h4.544v4.542H152.069z M143.979,82.097h-8.613
				l-4.128-9.084h8.549L143.979,82.097z M124.022,48.906l9.026,3.868l-2.13,1.045l6.772,14.652h-8.518l-5.535-12.147l-2.033,1.026
				L124.022,48.906z M130.375,82.097h-10.099v-4.499c0-2.505,2.038-4.585,4.543-4.585h1.429l0,0L130.375,82.097z M121.458,62.514
				l2.754,6.062c-4.723,0.319-8.477,4.22-8.477,9.023v4.499h-9.084v-3.422c4.544-3.045,7.628-7.798,8.668-13.091L121.458,62.514z
				 M79.4,61.701c0-8.764,7.133-15.896,15.896-15.896s15.896,7.133,15.896,15.896c0,5.642-3.047,10.912-7.95,13.753l-1.133,0.654
				v5.988h-4.542V68.094c2.637-0.94,4.542-3.438,4.542-6.395c0-3.756-3.058-6.813-6.813-6.813c-3.756,0-6.813,3.057-6.813,6.813
				c0,2.957,1.906,5.455,4.542,6.395v14.003h-4.542v-5.989l-1.133-0.655C82.447,72.611,79.4,67.342,79.4,61.701z M95.296,63.973
				c-1.254,0-2.271-1.021-2.271-2.271c0-1.254,1.017-2.271,2.271-2.271c1.253,0,2.271,1.017,2.271,2.271S96.55,63.973,95.296,63.973
				z M176.552,86.639c0.329,2.271,0.494,4.574,0.494,6.812l0.006,8.3c0.014,18.193-8.964,35.229-23.982,45.569l-0.999,0.681v29.477
				h-45.419V157.04h-22.71v-27.702l-14.718-3.359l13.294-23.701l-0.129-0.811c-0.845-4.969-0.892-10.285-0.158-14.827h1.711h22.71
				H176.552L176.552,86.639z M170.995,82.097h-6.399l11.322-26.394l5.034,2.507L170.995,82.097z M181.593,53.482l-2.511-1.256
				l2.511-1.88V53.482z"/>
			<path fill="#61B4E2" d="M99.839,100.265c-3.756,0-6.813-2.271-6.813-6.813h-4.542c0,6.813,5.094,11.355,11.356,11.355
				c6.261,0,11.354-4.542,11.354-11.355h-4.542C106.651,97.994,103.594,100.265,99.839,100.265z"/>
		</g>
	</g>
</g>
</svg>
