<?xml version="1.0" encoding="utf-8"?>
<!-- Generator: Adobe Illustrator 15.0.0, SVG Export Plug-In . SVG Version: 6.00 Build 0)  -->
<!DOCTYPE svg PUBLIC "-//W3C//DTD SVG 1.1//EN" "http://www.w3.org/Graphics/SVG/1.1/DTD/svg11.dtd">
<svg version="1.1" xmlns="http://www.w3.org/2000/svg" xmlns:xlink="http://www.w3.org/1999/xlink" x="0px" y="0px" width="300px"
	 height="300px" viewBox="0 0 300 300" enable-background="new 0 0 300 300" xml:space="preserve">
<g id="Layer_1" display="none">
	<path display="inline" d="M210.736,297.5H92.925c-12.518,0-22.757-10.239-22.757-22.757V26.258
		c0-12.518,10.239-22.757,22.757-22.757h117.816c12.518,0,22.757,10.239,22.757,22.757v248.485
		C233.493,287.261,223.254,297.5,210.736,297.5z"/>
	<rect x="80.94" y="26.677" display="inline" fill="#3579A8" width="141.78" height="231.846"/>
	<g display="inline">
		<path fill="#CCCCCC" d="M173.096,17.526h-29.015c-1.304,0-2.371-1.065-2.371-2.371l0,0c0-1.304,1.066-2.37,2.371-2.37h29.015
			c1.304,0,2.37,1.066,2.37,2.37l0,0C175.466,16.46,174.399,17.526,173.096,17.526z"/>
		<circle fill="#CCCCCC" cx="130.566" cy="15.156" r="2.37"/>
		<path fill="#CCCCCC" d="M151.831,289.213c-6.183,0-11.209-5.03-11.209-11.209c0-6.178,5.03-11.208,11.209-11.208
			c6.179,0,11.209,5.03,11.209,11.208C163.04,284.183,158.01,289.213,151.831,289.213z M151.831,269.088
			c-4.916,0-8.912,3.996-8.912,8.912c0,4.915,3.997,8.911,8.912,8.911c4.915,0,8.912-3.996,8.912-8.911
			C160.743,273.084,156.746,269.088,151.831,269.088z"/>
	</g>
	<rect x="80.844" y="153.826" display="inline" fill="#FFFFFF" width="141.78" height="104.701"/>
	<rect x="93.527" y="172.486" display="inline" width="116.418" height="3.381"/>
	<g display="inline">
		<rect x="93.527" y="183.874" fill="#CCCCCC" width="116.418" height="3.381"/>
		<rect x="93.527" y="192.603" fill="#CCCCCC" width="116.418" height="3.381"/>
		<rect x="93.527" y="201.376" fill="#CCCCCC" width="116.418" height="3.382"/>
		<rect x="93.527" y="210.086" fill="#CCCCCC" width="116.418" height="3.381"/>
		<rect x="93.527" y="218.814" fill="#CCCCCC" width="116.418" height="3.381"/>
	</g>
	<rect id="SVGCleanerId_0" x="124.172" y="237.759" display="inline" fill="#CCCCCC" width="55.125" height="3.381"/>
	<g display="inline">
		<rect id="SVGCleanerId_0_1_" x="124.172" y="237.759" fill="#CCCCCC" width="55.125" height="3.381"/>
	</g>
	<g display="inline">
		<path fill="#FFFFFF" d="M148.088,76.911V73.64c-1.879-0.032-3.822-0.615-4.957-1.424l0.776-2.173
			c1.167,0.776,2.853,1.392,4.663,1.392c2.302,0,3.854-1.328,3.854-3.175c0-1.782-1.264-2.88-3.661-3.854
			c-3.303-1.295-5.342-2.784-5.342-5.604c0-2.688,1.911-4.731,4.892-5.214v-3.271h2.008v3.142c1.943,0.064,3.271,0.583,4.213,1.135
			l-0.809,2.136c-0.681-0.39-2.008-1.103-4.081-1.103c-2.494,0-3.431,1.489-3.431,2.784c0,1.686,1.199,2.526,4.015,3.693
			c3.335,1.36,5.021,3.045,5.021,5.926c0,2.559-1.782,4.957-5.118,5.508v3.367h-2.044V76.911z"/>
		<polygon fill="#FFFFFF" points="165.467,93.552 180.911,52.571 194.058,52.571 194.058,56.085 183.341,56.085 168.751,94.792 		
			"/>
		<polygon fill="#FFFFFF" points="117.251,80.63 184.669,80.63 175.247,111.674 126.673,111.674 		"/>
		<circle fill="#FFFFFF" cx="166.799" cy="124.202" r="7.653"/>
		<circle fill="#FFFFFF" cx="135.121" cy="124.202" r="7.653"/>
	</g>
</g>
<g id="Layer_2">
	<path d="M224.827,296H80.184c-4.773,0-8.679-3.905-8.679-8.679V15.391c0-4.773,3.905-8.678,8.679-8.678h144.643
		c4.773,0,8.68,3.905,8.68,8.678v271.93C233.507,292.095,229.601,296,224.827,296z"/>
	<g>
		<path fill="#C9C9C9" d="M169.863,278.643h-34.715c-1.591,0-2.893-1.301-2.893-2.893l0,0c0-1.592,1.302-2.893,2.893-2.893h34.715
			c1.591,0,2.893,1.301,2.893,2.893l0,0C172.756,277.342,171.454,278.643,169.863,278.643z"/>
		<path fill="#C9C9C9" d="M150.743,21.268h-25.674c-1.591,0-2.893-1.302-2.893-2.893l0,0c0-1.591,1.301-2.893,2.893-2.893h25.674
			c1.591,0,2.893,1.302,2.893,2.893l0,0C153.636,19.966,152.334,21.268,150.743,21.268z"/>
		<circle fill="#C9C9C9" cx="169.98" cy="18.379" r="2.897"/>
		<circle fill="#C9C9C9" cx="179.943" cy="18.379" r="2.897"/>
	</g>
	<rect x="80.184" y="29.657" fill="#FFFFFF" width="144.643" height="231.43"/>
	<path fill="#3579A8" d="M194.258,143.41h-83.45c-4.972,0-9.041-4.068-9.041-9.04V67.119c0-4.972,4.068-9.04,9.041-9.04h83.45
		c4.973,0,9.04,4.068,9.04,9.04v67.251C203.298,139.342,199.23,143.41,194.258,143.41z"/>
	<g>
		<circle fill="#FFFFFF" cx="152.551" cy="82.271" r="15.02"/>
		<path fill="#FFFFFF" d="M151.823,132.209l-14.514-31.464c0,0-15.224,0.203-15.224,14.211c0,14.008,0,17.253,0,17.253
			S151.924,132.209,151.823,132.209z"/>
		<path fill="#FFFFFF" d="M153.242,132.209l14.515-31.464c0,0,15.225,0.203,15.225,14.211c0,14.008,0,17.253,0,17.253
			S153.139,132.209,153.242,132.209z"/>
		<polygon fill="#FFFFFF" points="152.533,102.01 143.221,102.01 152.533,122.622 161.845,102.01 		"/>
	</g>
	<path fill="#3579A8" d="M198.778,190.247h-92.491c-2.486,0-4.52-2.034-4.52-4.521v-14.314c0-2.486,2.034-4.52,4.52-4.52h92.491
		c2.486,0,4.52,2.033,4.52,4.52v14.314C203.298,188.213,201.265,190.247,198.778,190.247z"/>
	<g>
		<rect x="101.768" y="209.083" fill="#BCBCBC" width="101.53" height="4.521"/>
		<rect x="101.768" y="220.378" fill="#BCBCBC" width="101.53" height="4.521"/>
		<rect x="101.768" y="231.684" fill="#BCBCBC" width="101.53" height="4.52"/>
	</g>
	<text transform="matrix(1 0 0 1 124.3809 183.3379)" fill="#FFFFFF" font-family="'ArialMT'" font-size="13.5001">SUBMIT</text>
</g>
</svg>
