<?xml version="1.0" encoding="utf-8"?>
<!-- Generator: Adobe Illustrator 15.0.0, SVG Export Plug-In . SVG Version: 6.00 Build 0)  -->
<!DOCTYPE svg PUBLIC "-//W3C//DTD SVG 1.1//EN" "http://www.w3.org/Graphics/SVG/1.1/DTD/svg11.dtd">
<svg version="1.1" id="Layer_1" xmlns="http://www.w3.org/2000/svg" xmlns:xlink="http://www.w3.org/1999/xlink" x="0px" y="0px"
	 width="300px" height="300px" viewBox="0 0 300 300" enable-background="new 0 0 300 300" xml:space="preserve">
<path d="M210.736,297.5H92.925c-12.518,0-22.757-10.239-22.757-22.757V26.258c0-12.518,10.239-22.757,22.757-22.757h117.816
	c12.518,0,22.757,10.239,22.757,22.757v248.485C233.493,287.261,223.254,297.5,210.736,297.5z"/>
<rect x="80.94" y="26.677" fill="#3579A8" width="141.78" height="231.846"/>
<g>
	<path fill="#CCCCCC" d="M173.096,17.526h-29.015c-1.304,0-2.371-1.065-2.371-2.371l0,0c0-1.304,1.066-2.37,2.371-2.37h29.015
		c1.304,0,2.37,1.066,2.37,2.37l0,0C175.466,16.46,174.399,17.526,173.096,17.526z"/>
	<circle fill="#CCCCCC" cx="130.566" cy="15.156" r="2.37"/>
	<path fill="#CCCCCC" d="M151.831,289.213c-6.183,0-11.209-5.03-11.209-11.209c0-6.178,5.03-11.208,11.209-11.208
		c6.179,0,11.209,5.03,11.209,11.208C163.04,284.183,158.01,289.213,151.831,289.213z M151.831,269.088
		c-4.916,0-8.912,3.996-8.912,8.912c0,4.915,3.997,8.911,8.912,8.911c4.915,0,8.912-3.996,8.912-8.911
		C160.743,273.084,156.746,269.088,151.831,269.088z"/>
</g>
<rect x="80.844" y="153.826" fill="#FFFFFF" width="141.78" height="104.701"/>
<rect x="93.527" y="172.486" width="116.418" height="3.381"/>
<g>
	<rect x="93.527" y="183.874" fill="#CCCCCC" width="116.418" height="3.381"/>
	<rect x="93.527" y="192.603" fill="#CCCCCC" width="116.418" height="3.381"/>
	<rect x="93.527" y="201.376" fill="#CCCCCC" width="116.418" height="3.382"/>
	<rect x="93.527" y="210.086" fill="#CCCCCC" width="116.418" height="3.381"/>
	<rect x="93.527" y="218.814" fill="#CCCCCC" width="116.418" height="3.381"/>
</g>
<rect id="SVGCleanerId_0" x="124.172" y="237.759" fill="#CCCCCC" width="55.125" height="3.381"/>
<g>
	<rect id="SVGCleanerId_0_1_" x="124.172" y="237.759" fill="#CCCCCC" width="55.125" height="3.381"/>
</g>
<g>
	<path fill="#FFFFFF" d="M148.088,76.911V73.64c-1.879-0.032-3.822-0.615-4.957-1.424l0.776-2.173
		c1.167,0.776,2.853,1.392,4.663,1.392c2.302,0,3.854-1.328,3.854-3.175c0-1.782-1.264-2.88-3.661-3.854
		c-3.303-1.295-5.342-2.784-5.342-5.604c0-2.688,1.911-4.731,4.892-5.214v-3.271h2.008v3.142c1.943,0.064,3.271,0.583,4.213,1.135
		l-0.809,2.136c-0.681-0.39-2.008-1.103-4.081-1.103c-2.494,0-3.431,1.489-3.431,2.784c0,1.686,1.199,2.526,4.015,3.693
		c3.335,1.36,5.021,3.045,5.021,5.926c0,2.559-1.782,4.957-5.118,5.508v3.367h-2.044V76.911z"/>
	<polygon fill="#FFFFFF" points="165.467,93.552 180.911,52.571 194.058,52.571 194.058,56.085 183.341,56.085 168.751,94.792 	"/>
	<polygon fill="#FFFFFF" points="117.251,80.63 184.669,80.63 175.247,111.674 126.673,111.674 	"/>
	<circle fill="#FFFFFF" cx="166.799" cy="124.202" r="7.653"/>
	<circle fill="#FFFFFF" cx="135.121" cy="124.202" r="7.653"/>
</g>
</svg>
