<?xml version="1.0" encoding="utf-8"?>
<!-- Generator: Adobe Illustrator 15.0.0, SVG Export Plug-In . SVG Version: 6.00 Build 0)  -->
<!DOCTYPE svg PUBLIC "-//W3C//DTD SVG 1.1//EN" "http://www.w3.org/Graphics/SVG/1.1/DTD/svg11.dtd">
<svg version="1.1" id="Capa_1" xmlns="http://www.w3.org/2000/svg" xmlns:xlink="http://www.w3.org/1999/xlink" x="0px" y="0px"
	 width="512px" height="512px" viewBox="0 0 512 512" enable-background="new 0 0 512 512" xml:space="preserve">
<g>
	<path d="M256.434,186.359c-2.389,2.391-2.389,6.265,0.001,8.657c2.39,2.391,6.266,2.39,8.658-0.001l5.051-5.055
		c1.818-1.819,2.307-4.579,1.222-6.91c-3.372-7.247-5.083-14.744-5.083-22.284c0-15.349,6.683-29.807,17.95-39.795l0.02,40.065
		c0.002,2.006,0.987,3.886,2.638,5.03l29.04,20.107c2.097,1.45,4.869,1.451,6.965,0.001l29.05-20.098
		c1.651-1.143,2.638-3.024,2.638-5.035l-0.003-40.061c11.268,9.979,17.949,24.424,17.953,39.762c0,14.193-5.526,27.537-15.56,37.574
		c-10.027,10.03-23.355,15.552-37.534,15.552c-0.014,0-0.027,0-0.043,0c-4.88-0.004-14.454-2.365-17.733-3.276
		c-2.126-0.592-4.405,0.009-5.966,1.568l-18.608,18.608c-2.388,2.39-2.388,6.266,0,8.657c1.198,1.194,2.764,1.792,4.33,1.792
		c1.567,0,3.133-0.598,4.327-1.792l16.13-16.13c4.497,1.112,12.225,2.809,17.512,2.813c0.019,0,0.035,0,0.053,0
		c17.446,0,33.851-6.796,46.188-19.137c12.346-12.35,19.144-28.766,19.144-46.23c-0.005-23.523-12.767-45.336-33.309-56.928
		c-1.895-1.069-4.217-1.052-6.092,0.044c-1.881,1.098-3.036,3.111-3.036,5.287l0.006,48.692l-22.928,15.862l-22.919-15.873
		l-0.025-48.696c0-2.175-1.155-4.187-3.035-5.284c-1.878-1.097-4.198-1.112-6.095-0.042c-20.537,11.603-33.295,33.428-33.295,56.962
		c0,7.95,1.518,15.824,4.519,23.467L256.434,186.359z"/>
	<path d="M240.228,267.631l-84.903,84.908c-3.191,3.191-7.432,4.951-11.943,4.955c-0.003,0-0.005,0-0.009,0
		c-4.51-0.001-8.751-1.76-11.941-4.949c-3.189-3.194-4.944-7.441-4.939-11.961c0.004-4.507,1.763-8.736,4.956-11.921l73.028-73.034
		c2.39-2.39,2.39-6.265,0-8.654c-2.39-2.389-6.267-2.39-8.656,0.001L122.8,320.002c-5.503,5.486-8.539,12.789-8.548,20.57
		c-0.01,7.79,3.017,15.116,8.521,20.625c5.505,5.506,12.82,8.535,20.6,8.535c0.005,0,0.012,0,0.015,0
		c7.781-0.004,15.094-3.036,20.594-8.539l84.902-84.904c2.391-2.392,2.391-6.268,0-8.656
		C246.493,265.242,242.618,265.242,240.228,267.631z"/>
	<path fill="#9E8644" d="M143.286,333.153c-2.017,0.002-3.911,0.789-5.308,2.191c-2.942,2.926-2.956,7.704-0.034,10.65
		c0.007,0.007,0.015,0.015,0.022,0.022c1.467,1.464,3.39,2.194,5.317,2.194c1.932,0,3.867-0.736,5.344-2.211
		c2.928-2.942,2.92-7.721-0.007-10.638c-1.422-1.427-3.316-2.211-5.331-2.211C143.289,333.153,143.287,333.153,143.286,333.153z"/>
	<path fill="#9E8644" d="M343.39,302.126c-0.635-0.635-1.4-1.12-2.242-1.427l-17.552-6.362l-63.398-63.402l10.248-10.247
		c2.388-2.391,2.389-6.265,0-8.656c-1.816-1.813-4.485-2.251-6.709-1.312l-95.898-95.886c-5.801-5.819-13.523-9.028-21.749-9.039
		c-0.013,0-0.023,0-0.036,0c-8.225,0-15.957,3.199-21.773,9.009c-5.824,5.826-9.03,13.566-9.025,21.799
		c0.004,8.225,3.212,15.96,9.031,21.775l95.896,95.893c-0.938,2.225-0.502,4.896,1.312,6.709c2.391,2.388,6.267,2.391,8.656,0
		l10.244-10.245l63.401,63.4l6.366,17.554c0.302,0.842,0.791,1.607,1.425,2.238l35.575,35.575c1.194,1.196,2.76,1.793,4.327,1.793
		c1.568,0,3.133-0.598,4.327-1.793l23.147-23.146c1.148-1.148,1.793-2.703,1.793-4.327s-0.645-3.181-1.793-4.33L343.39,302.126z
		 M247.212,226.608c-0.014,0.012-0.026,0.026-0.039,0.039l-18.652,18.652l-95.582-95.579c-3.507-3.506-5.442-8.167-5.444-13.124
		c-0.001-4.96,1.93-9.625,5.437-13.133c3.505-3.5,8.164-5.427,13.122-5.427c0.007,0,0.014,0,0.022,0
		c4.953,0.005,9.603,1.937,13.099,5.444l95.587,95.577l-7.509,7.508C247.239,226.581,247.225,226.594,247.212,226.608z
		 M351.489,356.521l-30.284-30.286l-6.364-17.552c-0.305-0.84-0.793-1.606-1.427-2.24l-64.362-64.362l2.489-2.491l64.362,64.364
		c0.636,0.635,1.4,1.12,2.243,1.426l17.553,6.363l30.282,30.287L351.489,356.521z"/>
	<path d="M150.35,132.232c-2.389-2.389-6.264-2.389-8.655,0c-2.39,2.39-2.39,6.266,0,8.657l84.432,84.431
		c1.196,1.196,2.763,1.793,4.329,1.793s3.133-0.598,4.328-1.793c2.39-2.391,2.39-6.265,0-8.656L150.35,132.232z"/>
</g>
</svg>
