<?xml version="1.0" encoding="utf-8"?>
<!-- Generator: Adobe Illustrator 15.0.0, SVG Export Plug-In . SVG Version: 6.00 Build 0)  -->
<!DOCTYPE svg PUBLIC "-//W3C//DTD SVG 1.1//EN" "http://www.w3.org/Graphics/SVG/1.1/DTD/svg11.dtd">
<svg version="1.1" id="Layer_1" xmlns="http://www.w3.org/2000/svg" xmlns:xlink="http://www.w3.org/1999/xlink" x="0px" y="0px"
	 width="512px" height="512px" viewBox="0 0 512 512" enable-background="new 0 0 512 512" xml:space="preserve">
<g>
	<g>
		<g>
			<path fill="#9E8644" d="M377.515,125.174h-33.591v38.389H104.001v220.728h273.514c13.227,0,23.99-10.764,23.99-23.99V149.167
				C401.506,135.938,390.742,125.174,377.515,125.174z M377.515,374.693H113.598V173.16h230.327v172.745h33.59
				c7.937,0,14.394,6.458,14.394,14.396C391.907,368.236,385.45,374.693,377.515,374.693z M391.907,341.114
				c-4.01-3.017-8.996-4.808-14.393-4.808h-23.994V134.771h23.994c7.936,0,14.393,6.459,14.393,14.396V341.114z"/>
			<path d="M300.738,259.532h-38.388v-19.195h57.582v-28.79h-71.978v-28.791h-38.387v28.791h-71.977v28.79h57.581v19.195h-38.387
				v-9.598h-28.792v28.792h9.597v57.581h-9.597v28.792h28.792v-9.6h38.387v9.6h67.179v-9.6h38.387v9.6h28.792v-28.792h-9.598
				v-57.581h9.598v-28.792h-28.792L300.738,259.532L300.738,259.532z M300.738,221.144h9.597v9.597h-9.597V221.144z
				 M281.544,221.144h9.597v9.597h-9.597V221.144z M262.351,221.144h9.598v9.597h-9.598V221.144z M137.59,259.532h9.598v9.597
				h-9.598V259.532z M147.188,355.5h-9.598v-9.596h9.598V355.5z M195.172,345.904h-38.387v-9.598h-9.597v-23.992h38.387v-9.597
				h-38.387v-23.992h9.597v-9.598h38.387V345.904z M219.165,192.354h19.193v19.194h-19.193V192.354z M156.785,230.741h-9.597v-9.597
				h9.597V230.741z M175.979,230.741h-9.597v-9.597h9.597V230.741z M195.172,230.741h-9.597v-9.597h9.597V230.741z M252.754,230.741
				v4.799V355.5h-19.195v-67.177h-9.597V355.5h-19.194V235.54v-4.799v-9.597h4.799h38.387h4.8V230.741z M319.933,355.5h-9.598
				v-9.596h9.598V355.5z M310.335,259.532h9.598v9.597h-9.598V259.532z M310.335,302.719h-38.387v9.598h38.387v23.99h-9.598v9.598
				h-38.387v-76.775h38.387v9.597h9.598V302.719L310.335,302.719z"/>
			<path d="M171.18,134.771c7.936,0,14.395-6.459,14.395-14.395c0-4.958-2.52-9.339-6.344-11.93
				c4.223-7.341,12.067-12.063,20.739-12.063c8.67,0,16.516,4.722,20.739,12.063c-3.824,2.591-6.343,6.972-6.343,11.93
				c0,7.423,5.667,13.479,12.894,14.242c5.49,11.675,17.212,19.347,30.292,19.347c13.081,0,24.805-7.672,30.293-19.347
				c7.227-0.764,12.893-6.819,12.893-14.242c0-7.937-6.459-14.395-14.396-14.395c-7.935,0-14.395,6.458-14.395,14.395
				c0,4.956,2.518,9.337,6.344,11.928c-4.225,7.341-12.069,12.064-20.74,12.064c-8.67,0-16.516-4.723-20.738-12.064
				c3.824-2.591,6.343-6.972,6.343-11.928c0-7.423-5.667-13.48-12.894-14.242c-5.489-11.675-17.212-19.348-30.292-19.348
				c-13.082,0-24.803,7.673-30.293,19.348c-7.227,0.762-12.893,6.818-12.893,14.242C156.785,128.312,163.244,134.771,171.18,134.771
				z M286.343,115.578c2.649,0,4.798,2.149,4.798,4.798c0,2.648-2.148,4.797-4.798,4.797s-4.797-2.149-4.797-4.797
				C281.544,117.728,283.693,115.578,286.343,115.578z M228.761,115.578c2.649,0,4.798,2.149,4.798,4.798
				c0,2.648-2.149,4.797-4.798,4.797c-2.648,0-4.798-2.149-4.798-4.797C223.963,117.728,226.113,115.578,228.761,115.578z
				 M171.18,115.578c2.648,0,4.798,2.149,4.798,4.798c0,2.648-2.15,4.797-4.798,4.797c-2.649,0-4.799-2.149-4.799-4.797
				C166.381,117.728,168.531,115.578,171.18,115.578z"/>
		</g>
	</g>
</g>
</svg>
