<?xml version="1.0" encoding="utf-8"?>
<!-- Generator: Adobe Illustrator 15.0.0, SVG Export Plug-In . SVG Version: 6.00 Build 0)  -->
<!DOCTYPE svg PUBLIC "-//W3C//DTD SVG 1.1//EN" "http://www.w3.org/Graphics/SVG/1.1/DTD/svg11.dtd">
<svg version="1.1" id="Layer_1" xmlns="http://www.w3.org/2000/svg" xmlns:xlink="http://www.w3.org/1999/xlink" x="0px" y="0px"
	 width="240px" height="240px" viewBox="0 0 240 240" enable-background="new 0 0 240 240" xml:space="preserve">
<circle fill="#E59191" cx="118.75" cy="120.75" r="101.75"/>
<g>
	<path fill="#FFFFFF" d="M106.677,86.47c-0.484,0-1.009-0.202-1.372-0.565c-7.43-7.429-7.43-19.502,0-26.891
		c0.767-0.768,2.019-0.768,2.786,0c0.767,0.767,0.767,2.019,0,2.786c-5.896,5.895-5.896,15.464,0,21.359
		c0.767,0.767,0.767,2.019,0,2.786C107.687,86.268,107.203,86.47,106.677,86.47z"/>
	<path fill="#FFFFFF" d="M130.824,86.47c-0.486,0-1.011-0.202-1.374-0.565c-0.767-0.767-0.767-2.019,0-2.786
		c5.895-5.896,5.895-15.465,0-21.36c-0.767-0.767-0.767-2.019,0-2.786c0.768-0.767,2.019-0.767,2.785,0
		c7.43,7.43,7.43,19.502,0,26.891C131.832,86.268,131.308,86.47,130.824,86.47z"/>
	<path fill="#FFFFFF" d="M99.611,93.537c-0.485,0-1.009-0.202-1.373-0.566c-11.305-11.306-11.305-29.758,0-41.063
		c0.767-0.767,2.018-0.767,2.786,0c0.767,0.767,0.767,2.019,0,2.786c-9.771,9.771-9.771,25.72,0,35.491
		c0.767,0.768,0.767,2.02,0,2.787C100.621,93.374,100.096,93.537,99.611,93.537z"/>
	<path fill="#FFFFFF" d="M137.89,93.537c-0.485,0-1.011-0.202-1.374-0.566c-0.767-0.767-0.767-2.019,0-2.787
		c9.771-9.771,9.771-25.72,0-35.491c-0.767-0.767-0.767-2.02,0-2.786c0.768-0.767,2.02-0.767,2.786,0
		c11.307,11.306,11.307,29.758,0,41.063C138.897,93.374,138.413,93.537,137.89,93.537z"/>
	<path fill="#FFFFFF" d="M91.818,101.329c-0.484,0-1.008-0.202-1.373-0.565c-15.626-15.625-15.626-41.022,0-56.608
		c0.767-0.767,2.019-0.767,2.786,0c0.767,0.767,0.767,2.019,0,2.786c-14.091,14.092-14.091,36.985,0,51.077
		c0.767,0.767,0.767,2.019,0,2.786C92.829,101.126,92.343,101.329,91.818,101.329z"/>
	<path fill="#FFFFFF" d="M145.681,101.329c-0.483,0-1.009-0.202-1.372-0.565c-0.767-0.767-0.767-2.019,0-2.786
		c14.091-14.092,14.091-36.985,0-51.077c-0.767-0.767-0.767-2.019,0-2.786c0.768-0.767,2.02-0.767,2.786,0
		c15.626,15.626,15.626,41.023,0,56.608C146.691,101.126,146.166,101.329,145.681,101.329z"/>
</g>
<path fill="#99382E" d="M29.396,169.445C46.637,201.062,80.19,222.5,118.75,222.5c38.561,0,72.113-21.438,89.354-53.055H29.396z"/>
<g>
	<path fill="#2B3B4E" d="M127.754,129.312h-18.008l6.058-54.228c0.161-1.494,1.453-2.665,2.947-2.665l0,0
		c1.535,0,2.786,1.13,2.948,2.665L127.754,129.312z"/>
	<rect x="164.134" y="162.097" fill="#2B3B4E" width="14.899" height="7.55"/>
	<rect x="58.467" y="162.097" fill="#2B3B4E" width="14.899" height="7.55"/>
</g>
<path fill="#324A5E" d="M188.238,162.984H49.261c-0.767,0-1.413-0.646-1.413-1.414v-33.795c0-0.767,0.646-1.412,1.413-1.412h138.977
	c0.768,0,1.415,0.646,1.415,1.412v33.795C189.653,162.379,189.006,162.984,188.238,162.984z"/>
<rect x="58.467" y="126.402" fill="#E6E9EE" width="120.526" height="25.034"/>
<circle fill="#FF7058" cx="72.074" cy="138.921" r="6.299"/>
<circle fill="#2C9984" cx="110.877" cy="138.92" r="3.149"/>
<circle fill="#324A5E" cx="123.717" cy="138.92" r="3.149"/>
<circle fill="#FFD05B" cx="136.557" cy="138.92" r="3.149"/>
<circle fill="#54C0EB" cx="149.396" cy="138.92" r="3.149"/>
<circle fill="#FF7058" cx="162.236" cy="138.92" r="3.149"/>
</svg>
