<?xml version="1.0" encoding="utf-8"?>
<!-- Generator: Adobe Illustrator 15.0.0, SVG Export Plug-In . SVG Version: 6.00 Build 0)  -->
<!DOCTYPE svg PUBLIC "-//W3C//DTD SVG 1.1//EN" "http://www.w3.org/Graphics/SVG/1.1/DTD/svg11.dtd">
<svg version="1.1" id="Layer_1" xmlns="http://www.w3.org/2000/svg" xmlns:xlink="http://www.w3.org/1999/xlink" x="0px" y="0px"
	 width="240px" height="240px" viewBox="0 0 240 240" enable-background="new 0 0 240 240" xml:space="preserve">
<circle fill="#FFB25F" cx="118.25" cy="124.25" r="101.25"/>
<path fill="#FFFFFF" d="M168.374,100.511h-1.243c0.04-0.561,0.08-1.163,0.08-1.724c0-15.438-12.511-27.949-27.949-27.949
	c-6.055,0-11.668,1.965-16.24,5.253c-5.734-11.589-17.683-19.609-31.478-19.609c-19.408,0-35.167,15.719-35.167,35.167
	c0,3.89,0.681,7.659,1.844,11.188c-7.899,3.729-13.393,11.749-13.393,21.093l0,0c0,12.912,10.465,23.337,23.337,23.337h100.208
	c12.912,0,23.338-10.466,23.338-23.337l0,0C191.712,110.978,181.246,100.511,168.374,100.511z"/>
<rect x="85.93" y="132.992" fill="#2B3B4E" width="64.6" height="45.472"/>
<g>
	<path fill="#324A5E" d="M153.617,120.12H82.882c-1.203,0-2.165,0.962-2.165,2.166v17.042c0,1.203,0.962,2.166,2.165,2.166h70.695
		c1.203,0,2.165-0.963,2.165-2.166v-17.042C155.783,121.122,154.82,120.12,153.617,120.12z"/>
	<path fill="#324A5E" d="M153.617,145.382H82.882c-1.203,0-2.165,0.962-2.165,2.165v17.043c0,1.203,0.962,2.165,2.165,2.165h70.695
		c1.203,0,2.165-0.962,2.165-2.165v-17.043C155.783,146.385,154.82,145.382,153.617,145.382z"/>
	<path fill="#324A5E" d="M153.617,170.645H82.882c-1.203,0-2.165,0.963-2.165,2.166v17.041c0,1.203,0.962,2.165,2.165,2.165h70.695
		c1.203,0,2.165-0.962,2.165-2.165v-17.041C155.783,171.607,154.82,170.645,153.617,170.645z"/>
</g>
<g>
	<circle fill="#FFD05B" cx="142.911" cy="130.105" r="2.687"/>
	<circle fill="#FFD05B" cx="142.911" cy="156.089" r="2.687"/>
	<circle fill="#FFD05B" cx="142.911" cy="182.073" r="2.687"/>
</g>
<g>
	<path fill="#ACB3BA" d="M88.457,150.956c-0.722,0-1.283,0.561-1.283,1.282v7.699c0,0.723,0.561,1.284,1.283,1.284
		c0.722,0,1.283-0.562,1.283-1.284v-7.699C89.74,151.558,89.178,150.956,88.457,150.956z"/>
	<path fill="#ACB3BA" d="M94.231,150.956c-0.722,0-1.284,0.561-1.284,1.282v7.699c0,0.723,0.562,1.284,1.284,1.284
		c0.722,0,1.283-0.562,1.283-1.284v-7.699C95.514,151.558,94.913,150.956,94.231,150.956z"/>
	<path fill="#ACB3BA" d="M99.965,150.956c-0.722,0-1.283,0.561-1.283,1.282v7.699c0,0.723,0.562,1.284,1.283,1.284
		s1.283-0.562,1.283-1.284v-7.699C101.248,151.558,100.687,150.956,99.965,150.956z"/>
	<path fill="#ACB3BA" d="M105.739,150.956c-0.722,0-1.283,0.561-1.283,1.282v7.699c0,0.723,0.562,1.284,1.283,1.284
		s1.283-0.562,1.283-1.284v-7.699C107.022,151.558,106.42,150.956,105.739,150.956z"/>
	<path fill="#ACB3BA" d="M88.457,125.733c-0.722,0-1.283,0.562-1.283,1.284v7.699c0,0.722,0.561,1.282,1.283,1.282
		c0.722,0,1.283-0.561,1.283-1.282v-7.699C89.74,126.295,89.178,125.733,88.457,125.733z"/>
	<path fill="#ACB3BA" d="M94.231,125.733c-0.722,0-1.284,0.562-1.284,1.284v7.699c0,0.722,0.562,1.282,1.284,1.282
		c0.722,0,1.283-0.561,1.283-1.282v-7.699C95.514,126.295,94.913,125.733,94.231,125.733z"/>
	<path fill="#ACB3BA" d="M99.965,125.733c-0.722,0-1.283,0.562-1.283,1.284v7.699c0,0.722,0.562,1.282,1.283,1.282
		s1.283-0.561,1.283-1.282v-7.699C101.248,126.295,100.687,125.733,99.965,125.733z"/>
	<path fill="#ACB3BA" d="M105.739,125.733c-0.722,0-1.283,0.562-1.283,1.284v7.699c0,0.722,0.562,1.282,1.283,1.282
		s1.283-0.561,1.283-1.282v-7.699C107.022,126.295,106.42,125.733,105.739,125.733z"/>
	<path fill="#ACB3BA" d="M88.457,176.218c-0.722,0-1.283,0.562-1.283,1.284v7.699c0,0.722,0.561,1.282,1.283,1.282
		c0.722,0,1.283-0.561,1.283-1.282v-7.699C89.74,176.78,89.178,176.218,88.457,176.218z"/>
	<path fill="#ACB3BA" d="M94.231,176.218c-0.722,0-1.284,0.562-1.284,1.284v7.699c0,0.722,0.562,1.282,1.284,1.282
		c0.722,0,1.283-0.561,1.283-1.282v-7.699C95.514,176.78,94.913,176.218,94.231,176.218z"/>
	<path fill="#ACB3BA" d="M99.965,176.218c-0.722,0-1.283,0.562-1.283,1.284v7.699c0,0.722,0.562,1.282,1.283,1.282
		s1.283-0.561,1.283-1.282v-7.699C101.248,176.78,100.687,176.218,99.965,176.218z"/>
	<path fill="#ACB3BA" d="M105.739,176.218c-0.722,0-1.283,0.562-1.283,1.284v7.699c0,0.722,0.562,1.282,1.283,1.282
		s1.283-0.561,1.283-1.282v-7.699C107.022,176.78,106.42,176.218,105.739,176.218z"/>
</g>
</svg>
