<?xml version="1.0" encoding="utf-8"?>
<!-- Generator: Adobe Illustrator 15.0.0, SVG Export Plug-In . SVG Version: 6.00 Build 0)  -->
<!DOCTYPE svg PUBLIC "-//W3C//DTD SVG 1.1//EN" "http://www.w3.org/Graphics/SVG/1.1/DTD/svg11.dtd">
<svg version="1.1" id="Layer_1" xmlns="http://www.w3.org/2000/svg" xmlns:xlink="http://www.w3.org/1999/xlink" x="0px" y="0px"
	 width="240px" height="240px" viewBox="0 0 240 240" enable-background="new 0 0 240 240" xml:space="preserve">
<g>
	<circle fill="#54C0EB" cx="120.253" cy="120.159" r="102.159"/>
	<path fill="#639CC6" d="M222.413,120.16c0,50.676-36.842,92.666-85.268,100.709c-5.471,0.966-11.1,1.448-16.893,1.448
		c-7.239,0-14.319-0.803-21.235-2.251c-46.173-9.653-80.923-50.677-80.923-99.906c0-50.678,36.842-92.667,85.267-100.712
		c5.47-0.966,11.101-1.449,16.893-1.449c7.241,0,14.32,0.804,21.237,2.252C187.661,29.905,222.413,70.93,222.413,120.16z"/>
</g>
<g>
	<path fill="#FFD05B" d="M106.418,124.503c-0.322,0.645-0.161,1.448-0.161,2.252c0,2.735-1.126,5.148-1.769,7.723
		c0.16-1.125,0.321-2.251,0.482-3.217c0.161-0.644,0.482-1.449,0.482-2.092c0.161-0.805,0.161-1.609,0-2.253
		c-0.162-0.803-0.162-1.608-0.482-2.413c-0.161,0.482,0,0.965,0,1.61c0.161,1.93-0.322,3.86-0.804,5.951c0-1.449,0-2.735,0-4.183
		c-0.161,0.805-0.161,1.608-0.322,2.413c0-1.608-0.161-3.218-0.323-4.827c0,0.966,0,1.932,0.162,2.896c0-0.482,0-0.965,0-1.449
		c0,0.644-0.162,1.288-0.162,1.933c0-1.288-0.161-2.575-0.322-3.7c0.161,2.252,0.322,4.825-0.161,7.721
		c-0.322-1.931-0.644-3.699-0.644-5.309c0-0.16,0-0.321,0-0.482v0.161c0-0.322,0-0.642,0-0.966c0,0.324,0,0.805-0.162,1.127
		c0-0.322,0-0.803-0.161-1.127c0,0.324,0,0.644,0,0.966v-0.161c0,0.161,0,0.322,0,0.482c0,1.609-0.322,3.378-0.644,5.309
		c-0.323-2.896-0.161-5.469-0.161-7.721c-0.162,1.125-0.162,2.412-0.322,3.7c0-0.645-0.161-1.288-0.161-1.933
		c0,0.483,0,0.965,0,1.449c0-0.965,0-1.931,0.161-2.896c-0.161,1.609-0.161,3.219-0.322,4.827c0-0.805-0.161-1.608-0.322-2.413
		c0,1.447,0,2.733,0,4.183c-0.482-2.253-0.965-4.183-0.804-5.951c0-0.482,0.161-1.127,0-1.61c-0.161,0.805-0.321,1.61-0.482,2.413
		c0,0.805-0.161,1.448,0,2.253c0.161,0.643,0.322,1.287,0.482,2.092c0.322,0.966,0.322,2.092,0.482,3.217
		c-0.804-2.574-1.93-5.148-1.77-7.723c0-0.804,0.161-1.447-0.16-2.252c-0.161,1.126-0.322,2.252-0.322,3.379
		c0,0.966,0,1.93,0.322,2.895c0.16,0.805,0.643,1.45,0.804,2.253c0.644,1.609,0.965,3.218,1.126,4.827
		c0,0.322-0.161,0.642-0.161,0.805c0.161,0,0.161,0.159,0.322,0.159c0,0.965,0.161,1.931,0.161,2.896
		c0.804-0.161,1.287-0.644,1.93-1.127c0.644,0.483,1.127,0.966,1.932,1.127c0-0.966,0.162-1.932,0.162-2.896
		c0.161,0,0.161-0.159,0.321-0.159c0-0.322-0.16-0.482-0.16-0.805c0.16-1.609,0.482-3.379,1.126-4.827
		c0.321-0.803,0.643-1.448,0.804-2.253c0.323-0.965,0.323-1.929,0.323-2.895C106.74,126.755,106.74,125.629,106.418,124.503z
		 M102.396,135.282C102.396,135.121,102.396,135.121,102.396,135.282c0-0.161,0-0.323,0-0.644
		C102.396,134.799,102.396,134.959,102.396,135.282C102.396,135.121,102.396,135.121,102.396,135.282z"/>
	<path fill="#FFD05B" d="M121.219,145.258c-1.126-0.482-2.252-1.128-3.54-1.61c0.161-1.448-0.322-3.058-0.482-4.504
		c-0.482-2.255-0.482-4.506-0.482-6.759c0.643,1.288,1.126,2.735,1.449,4.185c0.161,0.804,0.161,1.609,0.161,2.412
		c0,0.965,0,2.092,0.161,3.056c0.804-0.481,0.965-1.449,0.965-2.252c0.161-3.379-0.482-6.756-0.965-10.135
		c1.93,4.022,2.735,8.687,2.091,13.191c0.644-4.021,0.482-8.044,0.323-12.065c0.482,3.861,0.965,7.883,1.287,11.744
		c0.322-3.861,0.322-7.883,0-11.744c0.322,2.253,0.644,4.665,0.644,6.918c0,1.449-0.161,3.057-0.321,4.505
		c0,0.804-0.162,1.448-0.162,2.252c0,0.482-0.16,0.966-0.644,0.966C121.541,145.418,121.381,145.258,121.219,145.258z"/>
	<path fill="#FFD05B" d="M141.008,130.938c-0.323,4.345,0.642,8.688-0.644,12.71c-0.161,0.644-0.644,1.448-1.287,1.61
		c-0.643,0.16-1.125-0.323-1.607-0.806c-0.324-0.482-0.646-0.966-1.129-1.448c-0.32-0.321-0.481-0.482-0.481-0.966
		c0-0.159,0.161-0.319,0.161-0.482c0.643-1.286,0.804-2.895,0.643-4.504c-0.159-1.448-0.481-3.056-0.481-4.505
		c0.964,2.574,1.125,5.632,0.481,8.365c-0.159,0.644-0.481,1.287-0.322,1.931c0.646-0.805,0.805-1.77,0.966-2.733
		c0.322-2.896,0.163-5.632-0.32-8.526c0.803,4.021,1.125,8.044,0.803,12.226c0.322-4.344-0.319-8.849,0.805-13.03
		c-0.643,4.505,1.609,9.17,0.322,13.513c-0.322-2.735-0.161-5.469,0.482-8.044c0.161-0.964,0.482-2.09,0.644-3.055
		c0.16-0.966,0-1.932,0.482-2.736c0,2.736,0,5.309,0,8.044c0,0.805,0,1.448,0,2.253c0,0.644-0.161,1.286-0.322,1.77
		c-0.16,0.645-0.321,1.449-0.481,2.092C140.846,140.109,141.168,135.441,141.008,130.938z"/>
	<path fill="#FFD05B" d="M140.042,130.938c-0.321,4.345,0.643,8.688-0.644,12.71c-0.161,0.644-0.643,1.448-1.286,1.61
		c-0.643,0.16-1.126-0.323-1.608-0.806c-0.483-0.482-0.645-0.966-1.126-1.448c-0.323-0.321-0.483-0.482-0.483-0.966
		c0-0.159,0.16-0.319,0.16-0.482c0.644-1.286,0.805-2.895,0.644-4.504c-0.161-1.448-0.482-3.056-0.482-4.505
		c0.966,2.574,1.125,5.632,0.482,8.365c-0.161,0.644-0.482,1.287-0.32,1.931c0.643-0.805,0.804-1.77,0.963-2.733
		c0.322-2.896,0.163-5.632-0.32-8.526c0.804,4.021,1.125,8.044,0.804,12.226c0.321-4.344-0.32-8.849,0.805-13.03
		c-0.643,4.505,1.608,9.17,0.322,13.513c-0.322-2.735-0.162-5.469,0.482-8.044c0.16-0.964,0.482-2.09,0.644-3.055
		c0.16-0.966,0-1.932,0.482-2.736c0,2.736,0,5.309,0,8.044c0,0.805,0,1.448,0,2.253c0,0.644-0.161,1.286-0.322,1.77
		c-0.16,0.645-0.321,1.449-0.482,2.092C139.881,140.109,140.364,135.441,140.042,130.938z"/>
	<path fill="#FFD05B" d="M135.054,130.938c0.323,4.345-0.642,8.688,0.644,12.71c0.161,0.644,0.644,1.448,1.287,1.61
		c0.644,0.16,1.126-0.323,1.609-0.806c0.322-0.482,0.644-0.966,1.127-1.448c0.32-0.321,0.481-0.482,0.481-0.966
		c0-0.159-0.161-0.319-0.161-0.482c-0.643-1.286-0.804-2.895-0.643-4.504c0.161-1.448,0.482-3.056,0.482-4.505
		c-0.965,2.574-1.126,5.632-0.482,8.365c0.161,0.644,0.482,1.287,0.322,1.931c-0.644-0.805-0.805-1.77-0.966-2.733
		c-0.321-2.896-0.161-5.632,0.322-8.526c-0.805,4.021-1.126,8.044-0.805,12.226c-0.321-4.344,0.321-8.849-0.803-13.03
		c0.642,4.505-1.611,9.17-0.324,13.513c0.324-2.735,0.161-5.469-0.482-8.044c-0.159-0.964-0.481-2.09-0.643-3.055
		c-0.161-0.966,0-1.932-0.483-2.736c0,2.736,0,5.309,0,8.044c0,0.805,0,1.448,0,2.253c0,0.644,0.161,1.286,0.322,1.77
		c0.161,0.645,0.322,1.449,0.481,2.092C135.215,140.109,134.895,135.441,135.054,130.938z"/>
</g>
<path fill="#FFFFFF" d="M124.759,186.763c-0.482-4.986,0.161-9.975,2.253-14.639c0.642-1.449,1.448-2.896,2.251-4.345
	c0.805-1.448,1.448-2.735,2.092-4.023c1.61-3.7,2.093-7.883,2.575-11.905l1.286-10.456l6.436,0.804l-1.286,10.457
	c-0.482,4.344-1.126,9.172-3.057,13.676c-0.644,1.608-1.61,3.214-2.414,4.664c-0.644,1.287-1.447,2.573-1.93,3.699
	c-1.61,3.54-2.092,7.402-1.771,11.263L124.759,186.763z"/>
<path fill="#FF7058" d="M118.806,188.372l-6.275-1.448c1.609-7.4,3.218-14.961,4.022-22.363c0.804-7.561,0.484-15.443,0.322-23.005
	l6.437-0.161c0.16,7.723,0.482,15.927-0.322,23.81C122.185,173.088,120.575,180.971,118.806,188.372z"/>
<path fill="#E6E9EE" d="M109.635,188.533l-6.435-0.322l1.609-27.992c0.161-2.093,0.161-4.021-0.162-5.792
	c-0.321-1.77-1.287-3.699-2.251-5.63c-1.609-3.056-3.378-6.597-3.057-10.618l6.435,0.482c-0.16,2.251,0.967,4.665,2.414,7.4
	c1.126,2.253,2.251,4.666,2.896,7.24c0.482,2.574,0.322,5.148,0.322,7.4L109.635,188.533z"/>
<path fill="#324A5E" d="M137.146,180.488v40.543c-5.469,0.965-11.099,1.449-16.892,1.449c-7.239,0-14.319-0.805-21.235-2.253
	v-39.739H137.146L137.146,180.488z"/>
<g>
	<path fill="#FFD05B" d="M141.49,110.667c-0.162-0.644-0.322-1.448-0.645-2.091c-0.481-1.77-0.643-3.54-0.804-5.631
		c0-0.162,0-0.323,0.161-0.482c0,0,0,0-0.161,0c0-1.126,0-2.413,0-3.7c-0.805,0.161-1.448,0.965-2.091,1.609
		c-0.645-0.804-1.127-1.448-1.932-1.609c0,0.161,0,0.322,0,0.482c-0.322-0.161-0.643-0.482-0.966-0.482c0,3.7,0,7.079-0.803,9.974
		c-0.161,0.805-0.482,1.449-0.643,2.091c-0.161,0.804-0.161,1.609,0,2.413c0,0.965,0.16,1.771,0.481,2.736
		c0.161-0.483,0-1.126,0-1.771c-0.321-3.057,1.287-6.113,1.447-9.813c0,0.483,0,0.804,0,1.287c-0.159,0.965-0.321,1.93-0.482,2.896
		c-0.16,0.804-0.481,1.448-0.641,2.091c-0.163,0.805-0.163,1.609-0.163,2.414c0,0.965,0.163,1.77,0.483,2.735
		c0.16-0.482,0.16-1.126,0-1.771c-0.161-1.769,0.32-3.7,0.964-5.63c0.161,2.413,0.161,4.666,0.483,6.597
		c-0.161-2.574-0.322-5.47,0.159-8.688c0,0.482,0,0.965,0,1.448c0,1.931,0.163,3.7,0.163,5.309c0-0.482,0.159-0.965,0.159-1.449
		c0,1.127,0.161,2.253,0.161,3.379c-0.161-2.575-0.32-5.31,0.162-8.367c-0.162,2.575-0.162,4.986,0.159,7.239
		c0-1.609,0-3.218,0.324-4.827c0.159,0.644,0.159,1.287,0.159,1.931c0,0.643,0,1.287,0.16,1.93c0,0.322,0,0.644,0,0.804
		c0-0.16,0-0.321,0-0.482c0,0.161,0,0.322,0,0.482c0-0.321,0-0.643,0-0.804c0-0.643,0.162-1.287,0.162-1.93
		c0-0.644,0.16-1.287,0.321-1.77c0,1.448,0.161,2.735,0.321,3.861c0-1.609,0.161-3.378,0.161-5.309c0-0.322,0-0.804,0-1.126v-0.161
		c0.482,3.058,0.322,5.953,0.161,8.528c0.161-1.126,0.161-2.252,0.321-3.379c0,0.484,0,0.966,0.161,1.449
		c0-1.609,0.161-3.378,0.161-5.309c0-0.644,0-1.287,0.161-1.93c0.481,3.057,1.606,5.63,1.286,8.204c0,0.644-0.162,1.126,0,1.771
		c0.158-0.804,0.32-1.771,0.481-2.735C141.649,112.276,141.649,111.471,141.49,110.667z"/>
	<path fill="#FFD05B" d="M123.15,106.484c0.161,0.483,0.321,0.965,0.644,1.448c0-0.482,0-0.804,0-1.287
		c0.161,0.482,0.322,0.804,0.644,1.287c0-2.252,0-4.504-0.482-6.757c-0.322-1.448-0.644-3.057-0.483-4.505
		c-0.16,0-0.321-0.161-0.482-0.161c0-0.161,0-0.322,0-0.483c0-0.482-0.161-0.965-0.645-0.965c-0.16,0-0.321,0-0.482,0.161
		c-0.321,0.161-0.644,0.322-0.965,0.483c-0.323-0.161-0.645-0.322-0.967-0.483c-0.161,0-0.321-0.161-0.482-0.161
		c0,0-0.161,0-0.161,0.161c-0.161,0-0.322-0.161-0.322-0.161c-0.483,0-0.643,0.644-0.643,0.965c0,0.805-0.161,1.448-0.161,2.252
		c-0.162,0.964-0.162,2.091-0.323,3.056c-0.322,2.092-0.483,4.344-0.483,6.596c0.322-0.482,0.483-0.965,0.644-1.448
		c0.162,0.965,0.322,2.091,0.482,3.058c0-1.288-0.16-2.575-0.16-3.862c0-0.161,0.16-0.322,0.16-0.644
		c0.161,1.449,0.323,3.058,0.644,4.505c-0.161-2.575-0.161-5.148-0.161-7.562c0.161,1.77,0.322,3.54,0.644,5.31
		c-0.161,1.126-0.322,2.252-0.483,3.378c0.322-0.644,0.483-1.125,0.804-1.77c0,0.322,0,0.483,0.161,0.805c0-0.323,0-0.644,0-0.805
		c0.161-0.321,0.322-0.804,0.322-1.125c0.161,0.644,0.161,1.287,0.322,1.931c0-0.805,0-1.609-0.161-2.413
		c0.161-0.483,0.161-0.805,0.323-1.287c0.16,0.965,0.482,1.93,0.804,2.896c0,0.322,0,0.644,0,0.805c0-0.323,0-0.483,0.161-0.805
		c0.161,0.644,0.482,1.126,0.805,1.77c-0.161-0.803-0.323-1.77-0.484-2.573c0.323,0.804,0.645,1.771,0.967,2.573
		c-0.322-1.93-0.644-3.86-0.806-5.791c0.162-0.966,0.162-2.092,0.323-3.057c0,0.644,0,1.287,0.16,1.931
		c0.161,0.643,0.322,1.287,0.483,1.93c0,1.287,0,2.574-0.161,3.862C122.828,108.576,122.989,107.61,123.15,106.484z
		 M119.449,106.163c0-0.965,0-1.931,0-2.896c0,0.482,0.161,0.965,0.161,1.609C119.61,105.358,119.61,105.841,119.449,106.163z"/>
	<path fill="#FFD05B" d="M99.5,109.379c0.161-1.608,0-3.217,0-4.826C99.5,106.163,99.5,107.771,99.5,109.379z"/>
	<path fill="#FFD05B" d="M105.453,98.119c0-0.322-0.323-0.644-0.482-0.965c-0.482-0.483-0.644-0.965-1.126-1.448
		c-0.323-0.322-0.804-0.644-1.287-0.804l0,0h-0.161h-0.163l0,0c-0.161,0-0.161,0-0.322,0c-0.161,0-0.321-0.161-0.643,0
		c-0.322,0-0.643,0.321-0.804,0.643l0,0l0,0c-0.161,0.322-0.322,0.644-0.483,0.965c0,0.161-0.161,0.322-0.161,0.482l0,0
		c-0.322,0.322-0.482,0.482-0.482,0.965c0,0.162,0.161,0.323,0.161,0.483v0.161c-0.321,1.931-0.161,4.022-0.161,5.952
		c0-1.287,0.161-2.574,0.321-3.861c0,0.322,0,0.643,0,0.965c0,2.736,0,5.31,0,8.045c0.483-0.644,0.483-1.609,0.483-2.413
		c0,0.804,0,1.448,0,2.252c0-0.965,0-1.932,0-2.896c0-0.482,0.161-0.965,0.161-1.287c0,1.449,0,3.058,0,4.505
		c0.482-0.805,0.482-1.771,0.482-2.736c0-0.804,0.161-1.449,0.322-2.092c0,0.322,0,0.483,0.162,0.805c0,0.322,0,0.643,0,0.804
		c0,0.965,0.161,1.93,0,2.896c0.161-0.483,0.161-0.804,0.322-1.288c0,0.484,0.161,0.966,0.322,1.288
		c-0.161-0.965-0.161-1.932,0-2.896c0-0.322,0-0.644,0-0.804c0-0.483,0.161-0.965,0.161-1.448c0.161,1.77,0.482,3.539,0.161,5.309
		c0.162-0.805,0.323-1.609,0.323-2.413c0.161,0.482,0.161,1.126,0.322,1.608c-0.161-0.482-0.161-1.125-0.322-1.608
		c0.161-0.805,0.161-1.449,0.161-2.253c0.161,0.804,0.322,1.448,0.482,2.253c0.161,0.964,0,1.93,0.482,2.734c0-1.93,0-3.7,0-5.631
		c0,0.483,0.161,1.126,0.322,1.608c0,1.287,0,2.413,0,3.701c0-1.126,0-2.252,0-3.379c0.161,0.482,0.323,0.965,0.484,1.608
		c0-1.608-0.323-3.057-0.484-4.504c-0.161-1.609,0-3.058,0.643-4.504C105.453,98.44,105.453,98.28,105.453,98.119z M104.327,100.693
		c0,0.161,0,0.161,0,0.322v0.162C104.327,101.014,104.327,100.854,104.327,100.693z M104.647,99.244c0,0.162,0,0.323-0.161,0.483
		c0-0.322-0.161-0.644-0.161-1.126v-0.161c0-0.161,0.161-0.322,0.161-0.483c0-0.161,0-0.161,0-0.322
		c0.161-0.161,0.161-0.323,0.322-0.482C104.97,97.957,104.81,98.602,104.647,99.244z"/>
</g>
<path fill="#FFFFFF" d="M115.75,53.555c0.482,4.987-0.162,9.975-2.253,14.639c-0.643,1.449-1.447,2.896-2.252,4.344
	c-0.804,1.448-1.448,2.735-2.091,4.022c-1.609,3.7-2.091,7.884-2.575,11.905l-1.287,10.458l-6.436-0.804l1.287-10.458
	c0.483-4.344,1.126-9.17,3.057-13.674c0.644-1.609,1.609-3.218,2.413-4.666c0.643-1.287,1.448-2.574,1.93-3.7
	c1.609-3.54,2.091-7.4,1.77-11.262L115.75,53.555z"/>
<path fill="#FF7058" d="M121.702,51.946l6.274,1.449c-1.61,7.4-3.218,14.961-4.021,22.363c-0.805,7.561-0.483,15.443-0.322,23.005
	l-6.437,0.161c-0.161-7.723-0.482-15.927,0.323-23.81C118.324,67.23,119.932,59.346,121.702,51.946z"/>
<path fill="#E6E9EE" d="M130.872,51.785l6.435,0.322l-1.609,27.994c-0.161,2.091-0.161,4.022,0.161,5.791
	c0.322,1.77,1.287,3.701,2.253,5.631c1.609,3.057,3.379,6.596,3.057,10.618l-6.436-0.483c0.16-2.251-0.966-4.666-2.412-7.4
	c-1.128-2.252-2.254-4.665-2.896-7.239c-0.482-2.574-0.322-5.147-0.322-7.4L130.872,51.785z"/>
<path fill="#324A5E" d="M141.49,20.252V59.99h-38.129V19.448c5.47-0.965,11.101-1.448,16.893-1.448
	C127.494,18,134.573,18.804,141.49,20.252z"/>
</svg>
