<?xml version="1.0" encoding="utf-8"?>
<!-- Generator: Adobe Illustrator 15.0.0, SVG Export Plug-In . SVG Version: 6.00 Build 0)  -->
<!DOCTYPE svg PUBLIC "-//W3C//DTD SVG 1.1//EN" "http://www.w3.org/Graphics/SVG/1.1/DTD/svg11.dtd">
<svg version="1.1" id="Layer_1" xmlns="http://www.w3.org/2000/svg" xmlns:xlink="http://www.w3.org/1999/xlink" x="0px" y="0px"
	 width="240px" height="240px" viewBox="0 0 240 240" enable-background="new 0 0 240 240" xml:space="preserve">
<g>
	<g>
		<g>
			<path fill="#69B6F4" d="M176.977,125.76c-2.214-1.73-25.325-27.379-31.566-31.003V28.2c0-6.765-5.476-12.2-12.2-12.2H70.358
				c-6.765,0-12.2,5.476-12.2,12.2v116.524c0,6.764,5.476,12.199,12.2,12.199H90.53h7.207l-1.127-9.582
				c-0.362-0.322-0.604-0.523-0.966-0.846h-4.026h-8.053c0.402-1.61,0.523-3.383,0.201-5.194c-0.886-5.032-4.872-9.1-9.905-10.026
				c-1.853-0.361-3.664-0.24-5.315,0.162V40.722c0.725,0.121,1.49,0.201,2.255,0.201c6.845,0,12.361-5.556,12.361-12.361
				c0-0.725-0.081-1.45-0.201-2.174h37.526c-0.121,0.725-0.202,1.45-0.202,2.174c0,6.845,5.516,12.361,12.361,12.361
				c0.765,0,1.529-0.081,2.255-0.201v88.542l0,0v25.446c-4.269-3.141-9.02-12.966-9.02-12.966s-2.335-26.131-15.582-26.131
				c-0.362,0-0.685,0-1.047,0.041c0,0-10.026,0.846-1.731,29.514l3.705,31.849c0,0,4.147,17.272,15.583,29.231v3.543
				c0,1.893,1.529,3.463,3.462,3.463h37.245c1.771,0,3.221-1.328,3.422-3.06c1.329-12.401,6.482-58.504,9.502-65.511
				c0.483-1.127,0.887-2.254,1.047-3.462C182.172,137.275,182.413,130.027,176.977,125.76z"/>
		</g>
		<g>
			<g>
				<path fill="#5C97F7" d="M75.028,87.308c0,12.764,8.938,23.434,20.897,26.132c0.362-0.685,0.725-1.289,1.168-1.933
					c3.946-5.757,9.301-6.804,11.113-6.965c0.725-0.081,1.45-0.121,2.174-0.121c2.577,0,6.08,0.483,9.704,2.416
					c5.193-4.872,8.455-11.838,8.455-19.528c0-14.777-11.998-26.775-26.775-26.775C86.987,60.532,75.028,72.531,75.028,87.308z
					 M85.739,84.932c1.61,0,1.65,0,1.892-1.61c0.202-1.248,0.564-2.416,1.047-3.583c0.282-0.645,0.725-0.886,1.369-0.685
					c1.006,0.282,1.973,0.563,2.979,0.886c0.926,0.282,1.047,0.604,0.644,1.49c-0.886,1.812-1.248,3.664-1.127,5.677
					c0.04,0.523,0.081,1.047,0.322,1.49c0.765,1.731,2.658,1.973,3.825,0.523c0.604-0.725,1.007-1.57,1.369-2.456
					c0.644-1.53,1.248-3.06,2.013-4.469c2.537-4.59,8.294-5.838,12.24-2.577c1.409,1.168,2.375,2.698,2.859,4.47
					c0.201,0.765,0.604,1.127,1.409,1.087c0.805-0.04,1.57,0,2.375,0c0.725,0,1.087,0.362,1.087,1.047
					c0.041,0.846,0.041,1.691,0,2.537c0,0.765-0.443,1.087-1.167,1.087c-0.563,0-1.167,0-1.731,0c-1.288,0-1.329,0.041-1.53,1.289
					c-0.242,1.57-0.604,3.101-1.289,4.55c-0.564,1.127-0.846,1.248-2.013,0.926c-0.886-0.242-1.771-0.483-2.617-0.765
					c-1.007-0.322-1.127-0.604-0.644-1.53c0.845-1.57,1.288-3.261,1.53-5.033c0.161-1.127,0.041-2.255-0.443-3.302
					c-0.846-1.973-3.141-2.295-4.51-0.604c-0.483,0.564-0.805,1.208-1.087,1.893c-0.765,1.731-1.329,3.543-2.295,5.154
					c-1.57,2.658-3.745,4.308-6.966,4.107c-3.624-0.201-5.919-2.295-7.127-5.597c-0.483-1.369-0.483-1.369-1.933-1.409
					c-0.483,0-0.966,0-1.45,0c-1.087-0.041-1.288-0.202-1.288-1.289c0-0.322,0-0.685,0-1.007
					C83.443,84.973,83.443,84.973,85.739,84.932z"/>
			</g>
		</g>
	</g>
</g>
</svg>
