<?xml version="1.0" encoding="utf-8"?>
<!-- Generator: Adobe Illustrator 15.0.0, SVG Export Plug-In . SVG Version: 6.00 Build 0)  -->
<!DOCTYPE svg PUBLIC "-//W3C//DTD SVG 1.1//EN" "http://www.w3.org/Graphics/SVG/1.1/DTD/svg11.dtd">
<svg version="1.1" id="Layer_1" xmlns="http://www.w3.org/2000/svg" xmlns:xlink="http://www.w3.org/1999/xlink" x="0px" y="0px"
	 width="900px" height="900px" viewBox="0 0 900 900" enable-background="new 0 0 900 900" xml:space="preserve">
<path fill="#28323D" d="M453.363,485.795c5.195-12.221-0.556-26.467-12.774-31.662l-133.863-56.911
	c-12.219-5.195-26.466,0.554-31.662,12.773L124.893,763.235c-5.195,12.218,1.186,19.984,14.181,17.25l68.343-14.368
	c12.993-2.734,29.392,4.237,36.442,15.49l37.073,59.186c7.049,11.251,17.066,10.462,22.262-1.76L453.363,485.795z"/>
<path fill="#84817E" d="M342.091,412.257L190.109,769.755l17.306-3.638c12.993-2.734,29.392,4.237,36.441,15.49l8.441,13.478
	L403.88,438.526L342.091,412.257z"/>
<path fill="#28323D" d="M416.065,485.795c-5.195-12.221,0.555-26.467,12.772-31.662l133.866-56.911
	c12.218-5.195,26.466,0.554,31.661,12.773l150.171,353.24c5.195,12.219-1.187,19.983-14.182,17.249l-68.343-14.368
	c-12.993-2.733-29.392,4.237-36.441,15.491l-37.073,59.186c-7.048,11.25-17.066,10.462-22.262-1.761L416.065,485.795z"/>
<path fill="#84817E" d="M527.335,412.257l151.98,357.498l-17.305-3.638c-12.993-2.734-29.392,4.237-36.441,15.49l-8.441,13.478
	L465.546,438.526L527.335,412.257z"/>
<circle fill="#BBD8F9" cx="434.71" cy="387.773" r="269.573"/>
<path fill="#FFFFFF" d="M434.714,601.747c-117.986,0-213.972-95.985-213.972-213.97c0-117.985,95.986-213.972,213.972-213.972
	c117.985,0,213.975,95.986,213.975,213.972C648.686,505.763,552.699,601.747,434.714,601.747z M434.714,197.785
	c-104.763,0-189.994,85.229-189.994,189.994c0,104.761,85.229,189.99,189.994,189.99c104.764,0,189.995-85.227,189.995-189.99
	C624.706,283.017,539.477,197.785,434.714,197.785z"/>
<circle fill="#16478E" cx="434.71" cy="387.773" r="139.75"/>
</svg>
