<?xml version="1.0" encoding="utf-8"?>
<!-- Generator: Adobe Illustrator 15.0.0, SVG Export Plug-In . SVG Version: 6.00 Build 0)  -->
<!DOCTYPE svg PUBLIC "-//W3C//DTD SVG 1.1//EN" "http://www.w3.org/Graphics/SVG/1.1/DTD/svg11.dtd">
<svg version="1.1" id="Capa_1" xmlns="http://www.w3.org/2000/svg" xmlns:xlink="http://www.w3.org/1999/xlink" x="0px" y="0px"
	 width="521px" height="521px" viewBox="0 0 521 521" enable-background="new 0 0 521 521" xml:space="preserve">
<rect x="72.039" y="83.114" fill="#4B6846" width="354.772" height="354.772"/>
<g>
	<path fill="#6F9169" d="M190.296,94.94H83.865v106.432c0,3.264,2.649,5.913,5.913,5.913c3.264,0,5.913-2.649,5.913-5.913v-94.606
		h94.606c3.264,0,5.913-2.649,5.913-5.913C196.209,97.589,193.561,94.94,190.296,94.94z"/>
	<path fill="#6F9169" d="M409.073,319.63c-3.265,0-5.913,2.648-5.913,5.912v88.693h-88.693c-3.264,0-5.913,2.648-5.913,5.913
		c0,3.263,2.649,5.912,5.913,5.912h100.519V325.542C414.985,322.278,412.336,319.63,409.073,319.63z"/>
	<path fill="#6F9169" d="M314.467,94.94c-3.264,0-5.913,2.649-5.913,5.913c0,3.264,2.649,5.913,5.913,5.913h88.693v94.606
		c0,3.264,2.648,5.913,5.913,5.913c3.263,0,5.912-2.649,5.912-5.913V94.94H314.467z"/>
	<path fill="#6F9169" d="M190.296,414.235H95.69v-88.693c0-3.264-2.649-5.912-5.913-5.912c-3.264,0-5.913,2.648-5.913,5.912v100.519
		h106.432c3.264,0,5.913-2.649,5.913-5.912C196.209,416.884,193.561,414.235,190.296,414.235z"/>
</g>
<g>
	<path fill="#6F9169" d="M247.847,249.987c-3.003,1.248-4.43,4.701-3.193,7.716c0.125,0.307,12.652,32.16,9.164,132.153
		c-0.111,3.265,2.444,6.003,5.707,6.114c0.071,0,0.136,0,0.207,0c3.169,0,5.794-2.514,5.907-5.706
		c3.606-103.493-9.519-135.812-10.082-137.138C254.292,250.129,250.868,248.733,247.847,249.987z"/>
	<path fill="#6F9169" d="M370.698,204.417c-20.54-48.545-67.867-79.913-120.575-79.913c-17.395,0-34.36,3.4-50.407,10.099
		c-8.875,3.702-17.271,8.106-24.947,13.098c-2.737,1.779-3.518,5.439-1.732,8.177c1.78,2.737,5.446,3.519,8.178,1.733
		c7.078-4.6,14.829-8.669,23.055-12.098c14.605-6.09,30.025-9.183,45.854-9.183c47.948,0,91.005,28.535,109.684,72.693
		c7.45,17.608,11.713,35.058,13.818,56.592c0.296,3.058,2.867,5.339,5.877,5.339c0.189,0,0.386-0.005,0.58-0.03
		c3.252-0.318,5.629-3.203,5.31-6.456C383.169,241.692,378.633,223.173,370.698,204.417z"/>
	<path fill="#6F9169" d="M128.087,254.753c0.887-32.965,12.257-60.441,33.792-81.663c2.33-2.294,2.353-6.038,0.064-8.361
		c-2.293-2.33-6.037-2.359-8.36-0.065c-23.457,23.113-36.359,54.156-37.317,89.77c-0.543,20.174,2.667,42.106,9.543,65.189
		c0.763,2.566,3.117,4.229,5.665,4.229c0.562,0,1.129-0.083,1.691-0.25c3.128-0.933,4.915-4.227,3.98-7.354
		C130.63,294.364,127.584,273.675,128.087,254.753z"/>
	<path fill="#6F9169" d="M348.259,226.501c-13.197-38.913-55.551-71.693-94.404-73.083c-14.896-0.532-29.352,2.094-43.041,7.812
		c-37.801,15.77-62.458,52.394-62.807,93.305l0,0l0,0l0,0l0,0c-0.083,9.655,1.218,19.287,3.861,28.631
		c1.384,4.878,2.797,10.069,3.548,15.196c1.626,11.099,3.412,31.823,2.661,67.535c-0.065,3.265,2.525,5.967,5.788,6.038
		c0.042,0,0.083,0,0.125,0c3.205,0,5.842-2.566,5.913-5.789c0.762-36.528-1.101-57.957-2.792-69.493
		c-0.851-5.831-2.376-11.453-3.873-16.71c-2.341-8.255-3.489-16.769-3.412-25.301l0,0l0,0c0.307-36.164,22.102-68.548,55.535-82.491
		c12.096-5.05,24.91-7.397,38.06-6.9c33.775,1.206,72.073,31.006,83.631,65.064c2.69,7.936,4.707,16.184,6.163,25.225
		c3.623,22.545,3.729,49.732,2.73,86.285c-0.088,3.265,2.483,5.985,5.747,6.073c0.054,0,0.111,0,0.165,0
		c3.193,0,5.819-2.542,5.908-5.752c1.017-37.24,0.893-65.029-2.874-88.488C353.345,243.95,351.174,235.075,348.259,226.501z"/>
	<path fill="#6F9169" d="M215.048,205.067c2.673-1.875,3.316-5.564,1.443-8.237c-1.875-2.667-5.564-3.317-8.237-1.443
		c-18.507,12.991-29.523,34.502-30.221,59.022c0,0.007,0,0.012,0,0.019c-0.242,8.485,0.775,16.987,3.01,25.23
		c0,0.018,0.154,0.567,0.159,0.585c5.05,18.502,6.954,54.015,5.352,99.993c-0.112,3.264,2.441,6.002,5.706,6.113
		c0.071,0,0.136,0,0.207,0c3.169,0,5.795-2.513,5.907-5.706c1.667-47.816-0.326-83.612-5.907-104.042
		c-1.946-7.166-2.827-14.516-2.613-21.843c0,0,0-0.005,0-0.012C190.438,234.005,199.621,215.894,215.048,205.067z"/>
	<path fill="#6F9169" d="M325.554,253.447c-1.827-9.473-4.441-18.153-7.995-26.549c-11.487-27.152-37.953-44.696-67.436-44.696
		c-5.298,0-10.584,0.574-15.704,1.704c-3.193,0.703-5.204,3.855-4.506,7.042c0.697,3.193,3.849,5.197,7.042,4.506
		c4.293-0.946,8.721-1.425,13.162-1.425c24.721,0,46.918,14.711,56.544,37.476c3.223,7.627,5.606,15.539,7.273,24.196
		c0,0.006,0,0.006,0,0.011c4.511,23.416,4.382,52.891,2.384,110.092c-0.114,3.264,2.44,6.001,5.705,6.114c0.071,0,0.136,0,0.207,0
		c3.169,0,5.795-2.513,5.906-5.706c2.029-58.136,2.136-88.215-2.595-112.759C325.554,253.458,325.554,253.452,325.554,253.447z"/>
	<path fill="#6F9169" d="M294.031,350.489c-0.012,0-0.028,0-0.041,0c-3.246,0-5.889,2.618-5.913,5.871
		c-0.022,3.797-0.076,7.71-0.152,11.749c-0.06,3.264,2.536,5.959,5.8,6.024c0.035,0,0.076,0,0.118,0c3.211,0,5.849-2.571,5.913-5.8
		c0.077-4.081,0.129-8.048,0.153-11.892C299.927,353.173,297.295,350.513,294.031,350.489z"/>
	<path fill="#6F9169" d="M293.807,338.272c0.048,0,0.096,0,0.136,0c3.265-0.071,5.85-2.779,5.777-6.043
		c-0.756-33.212-3.785-60.583-8.745-79.168c-1.898-7.101-3.583-11.086-4.416-13.049c-6.209-14.669-20.512-24.148-36.441-24.148
		c-5.25,0-10.377,1.029-15.237,3.057c-14.344,5.983-23.888,19.92-24.314,35.507c-0.142,5.227,0.739,10.359,2.52,14.947
		c0.414,1.279,10.128,32.255,7.089,119.316c-0.111,3.264,2.442,6.002,5.706,6.115c0.072,0,0.137,0,0.208,0
		c3.169,0,5.794-2.514,5.907-5.707c3.057-87.617-6.557-119.979-7.77-123.68c-1.325-3.424-1.945-7.013-1.845-10.667
		c0.301-10.945,6.988-20.725,17.046-24.917c3.412-1.424,7.007-2.146,10.685-2.146c11.168,0,21.198,6.646,25.568,16.981
		c0.703,1.668,2.176,5.139,3.855,11.447c3.293,12.329,7.42,35.596,8.354,76.382C287.977,335.718,290.608,338.272,293.807,338.272z"
		/>
</g>
<rect x="72.039" y="242.762" fill="#F4C33B" width="354.772" height="11.825"/>
</svg>
