<?xml version="1.0" encoding="utf-8"?>
<!-- Generator: Adobe Illustrator 15.0.0, SVG Export Plug-In . SVG Version: 6.00 Build 0)  -->
<!DOCTYPE svg PUBLIC "-//W3C//DTD SVG 1.1//EN" "http://www.w3.org/Graphics/SVG/1.1/DTD/svg11.dtd">
<svg version="1.1" id="Layer_1" xmlns="http://www.w3.org/2000/svg" xmlns:xlink="http://www.w3.org/1999/xlink" x="0px" y="0px"
	 width="521px" height="521px" viewBox="0 0 521 521" enable-background="new 0 0 521 521" xml:space="preserve">
<circle fill="#5E8CB5" cx="256.058" cy="257.692" r="219.058"/>
<path fill="#2B3B4E" d="M126.536,356.79l-0.87-17.125l46.506-2.434l27.035-86.059l16.342,5.129l-28.773,91.795
	c-1.043,3.391-4.172,5.824-7.737,5.998L126.536,356.79z"/>
<path fill="#B7B7B7" d="M118.017,87.662C68.642,127.823,37,189.02,37,257.692c0,68.672,31.642,129.87,81.017,170.03V87.662z"/>
<path fill="#324A5E" d="M118.017,398.168L118.017,398.168V292.811l0,0c8.954,0,16.168,7.216,16.168,16.169v73.02
	C134.185,390.952,126.97,398.168,118.017,398.168z"/>
<path fill="#ACB3BA" d="M195.73,274.904L195.73,274.904c-12.518-6.867-17.038-22.601-10.171-35.119l24.34-44.333l45.289,24.862
	l-24.34,44.333C223.981,277.164,208.248,281.771,195.73,274.904z"/>
<path fill="#324A5E" d="M290.567,253.085l45.638,25.122c0.435,0.261,1.043,0.088,1.304-0.349l22.688-41.29
	c0.262-0.435,0.087-1.043-0.347-1.304l-45.638-25.122c-0.435-0.261-1.043-0.087-1.304,0.348l-22.688,41.291
	C289.959,252.216,290.134,252.824,290.567,253.085z"/>
<path fill="#CED5E0" d="M302.478,281.597l-149.863-82.32c-1.826-1.043-2.521-3.303-1.478-5.128l37.118-67.63
	c1.043-1.825,3.304-2.521,5.129-1.478l149.863,82.32c1.825,1.043,2.521,3.303,1.478,5.129l-37.118,67.629
	C306.562,281.945,304.303,282.641,302.478,281.597z"/>
<g>
	<path fill="#E6E9EE" d="M175.302,141.296l169.422,93.099c22.775,12.518,51.114,7.737,68.587-11.474l8.084-8.866L201.641,93.312
		c-5.216-2.869-11.736-0.956-14.517,4.259l-15.995,29.121C168.174,131.908,170.086,138.428,175.302,141.296z"/>
	<circle fill="#E6E9EE" cx="207.378" cy="253.693" r="10.692"/>
</g>
<circle fill="#72140F" cx="295.522" cy="250.304" r="7.389"/>
</svg>
