<?xml version="1.0" encoding="utf-8"?>
<!-- Generator: Adobe Illustrator 15.0.0, SVG Export Plug-In . SVG Version: 6.00 Build 0)  -->
<!DOCTYPE svg PUBLIC "-//W3C//DTD SVG 1.1//EN" "http://www.w3.org/Graphics/SVG/1.1/DTD/svg11.dtd">
<svg version="1.1" xmlns="http://www.w3.org/2000/svg" xmlns:xlink="http://www.w3.org/1999/xlink" x="0px" y="0px" width="512px"
	 height="512px" viewBox="0 0 512 512" enable-background="new 0 0 512 512" xml:space="preserve">
<g id="Layer_1">
	<g>
		<path fill="#2F3F4E" d="M200.584,54.052v386.847h204.161V54.052H200.584z M394.648,428.554H210.682V66.399h183.967V428.554z"/>
		<rect x="210.682" y="66.399" fill="#01637C" width="183.967" height="362.154"/>
	</g>
	<g>
		<rect x="222.736" y="85.727" fill="#B2BCC5" width="159.398" height="3.117"/>
		<rect x="222.347" y="119.904" fill="#B2BCC5" width="159.398" height="3.117"/>
		<rect x="222.347" y="153.86" fill="#B2BCC5" width="159.398" height="3.117"/>
		<circle fill="#1C98FC" cx="245.091" cy="97.34" r="2.856"/>
		<circle fill="#1C98FC" cx="245.146" cy="164.522" r="2.857"/>
		<circle fill="#1C98FC" cx="245.256" cy="130.846" r="2.857"/>
		<circle fill="#8FBC5F" cx="239.86" cy="97.508" r="2.856"/>
		<circle fill="#8FBC5F" cx="239.914" cy="164.69" r="2.857"/>
		<circle fill="#8FBC5F" cx="240.023" cy="131.012" r="2.856"/>
		<circle fill="#E23C4A" cx="234.452" cy="97.054" r="2.905"/>
		<circle fill="#E23C4A" cx="234.508" cy="164.854" r="2.904"/>
		<circle fill="#E23C4A" cx="234.62" cy="131.121" r="2.905"/>
		<circle fill="#B2BCC5" cx="237.701" cy="84.155" r="7.63"/>
		<circle fill="#B2BCC5" cx="236.922" cy="151.397" r="7.631"/>
		<circle fill="#B2BCC5" cx="237.312" cy="117.608" r="7.631"/>
		<path fill="#2F3F4E" d="M232.979,71.688c-3.764,0-6.791,3.035-6.791,6.799v17.887c0,3.765,3.027,6.819,6.791,6.819h69.504V71.688
			H232.979z M234.681,98.657c-0.855,0-1.548-0.694-1.548-1.549c0-0.855,0.692-1.548,1.548-1.548c0.857,0,1.55,0.693,1.55,1.548
			C236.23,97.962,235.538,98.657,234.681,98.657z M239.702,98.657c-0.854,0-1.548-0.694-1.548-1.549
			c0-0.855,0.693-1.548,1.548-1.548c0.856,0,1.55,0.693,1.55,1.548C241.252,97.962,240.559,98.657,239.702,98.657z M237.268,88.286
			c-2.63,0-4.762-2.13-4.762-4.759c0-2.629,2.132-4.76,4.762-4.76c2.627,0,4.759,2.131,4.759,4.76
			C242.026,86.155,239.895,88.286,237.268,88.286z M244.864,98.657c-0.855,0-1.548-0.694-1.548-1.549
			c0-0.855,0.692-1.548,1.548-1.548s1.549,0.693,1.549,1.548C246.413,97.962,245.72,98.657,244.864,98.657z"/>
		<path fill="#344453" d="M378.684,96.375V78.487c0-3.764-3.062-6.799-6.827-6.799h-69.373v31.505h69.373
			C375.622,103.193,378.684,100.139,378.684,96.375z"/>
		<path fill="#2F3F4E" d="M226.188,112.331v17.888c0,3.764,3.027,6.819,6.791,6.819h69.504v-31.506h-69.504
			C229.216,105.531,226.188,108.566,226.188,112.331z M234.681,132.5c-0.855,0-1.548-0.694-1.548-1.549
			c0-0.854,0.692-1.548,1.548-1.548c0.857,0,1.55,0.694,1.55,1.548C236.23,131.806,235.538,132.5,234.681,132.5z M239.702,132.5
			c-0.854,0-1.548-0.694-1.548-1.549c0-0.854,0.693-1.548,1.548-1.548c0.856,0,1.55,0.694,1.55,1.548
			C241.252,131.806,240.559,132.5,239.702,132.5z M244.864,129.402c0.855,0,1.549,0.694,1.549,1.548
			c0,0.855-0.693,1.549-1.549,1.549s-1.548-0.694-1.548-1.549C243.316,130.097,244.009,129.402,244.864,129.402z M237.268,112.61
			c2.627,0,4.759,2.131,4.759,4.76c0,2.628-2.132,4.76-4.759,4.76c-2.63,0-4.762-2.131-4.762-4.76
			C232.506,114.741,234.638,112.61,237.268,112.61z"/>
		<path fill="#344453" d="M371.856,137.037c3.766,0,6.827-3.055,6.827-6.819v-17.888c0-3.764-3.062-6.799-6.827-6.799h-69.373
			v31.506H371.856z"/>
		<path fill="#344453" d="M371.856,170.882c3.766,0,6.827-3.054,6.827-6.82v-17.888c0-3.764-3.062-6.799-6.827-6.799h-69.373v31.507
			H371.856z"/>
		<path fill="#2F3F4E" d="M226.188,146.175v17.888c0,3.766,3.027,6.82,6.791,6.82h69.504v-31.507h-69.504
			C229.216,139.375,226.188,142.411,226.188,146.175z M234.681,166.344c-0.855,0-1.548-0.693-1.548-1.548
			c0-0.855,0.692-1.548,1.548-1.548c0.857,0,1.55,0.693,1.55,1.548C236.23,165.65,235.538,166.344,234.681,166.344z
			 M239.702,166.344c-0.854,0-1.548-0.693-1.548-1.548c0-0.855,0.693-1.548,1.548-1.548c0.856,0,1.55,0.693,1.55,1.548
			C241.252,165.65,240.559,166.344,239.702,166.344z M244.864,163.247c0.855,0,1.549,0.693,1.549,1.548
			c0,0.855-0.693,1.548-1.549,1.548s-1.548-0.693-1.548-1.548C243.316,163.94,244.009,163.247,244.864,163.247z M237.268,146.453
			c2.627,0,4.759,2.132,4.759,4.761c0,2.628-2.132,4.758-4.759,4.758c-2.63,0-4.762-2.13-4.762-4.758
			C232.506,148.585,234.638,146.453,237.268,146.453z"/>
		<g>
			<path fill="#B2BCC5" d="M219.398,68.687c-2.653,0-4.805,2.151-4.805,4.804v95.586c0,2.654,2.151,4.806,4.805,4.806
				c0.072,0,0.149-0.002,0.221-0.007V68.692C219.548,68.69,219.471,68.687,219.398,68.687z"/>
			<path fill="#D8E0E5" d="M219.619,68.692v105.184c2.552-0.116,4.583-2.22,4.583-4.799V73.491
				C224.202,70.913,222.171,68.809,219.619,68.692z"/>
		</g>
		<g>
			<path fill="#B2BCC5" d="M380.671,73.491v95.586c0,2.654,2.151,4.806,4.804,4.806V68.687
				C382.822,68.687,380.671,70.838,380.671,73.491z"/>
			<path fill="#D8E0E5" d="M385.475,68.687L385.475,68.687v105.196l0,0c2.654,0,4.807-2.152,4.807-4.806V73.491
				C390.281,70.838,388.129,68.687,385.475,68.687z"/>
		</g>
	</g>
	<rect x="209.177" y="175.484" fill="#2F3F4E" width="187.303" height="12.454"/>
	<g>
		<rect x="222.736" y="209.378" fill="#B2BCC5" width="159.398" height="3.117"/>
		<rect x="222.347" y="243.556" fill="#B2BCC5" width="159.398" height="3.118"/>
		<rect x="222.347" y="277.512" fill="#B2BCC5" width="159.398" height="3.116"/>
		<circle fill="#1C98FC" cx="245.091" cy="220.991" r="2.856"/>
		<circle fill="#1C98FC" cx="245.146" cy="288.175" r="2.857"/>
		<circle fill="#1C98FC" cx="245.256" cy="254.498" r="2.857"/>
		<circle fill="#8FBC5F" cx="239.86" cy="221.159" r="2.856"/>
		<circle fill="#8FBC5F" cx="239.914" cy="288.343" r="2.857"/>
		<circle fill="#8FBC5F" cx="240.023" cy="254.664" r="2.856"/>
		<circle fill="#E23C4A" cx="234.452" cy="220.706" r="2.905"/>
		<circle fill="#E23C4A" cx="234.508" cy="288.505" r="2.904"/>
		<circle fill="#E23C4A" cx="234.62" cy="254.772" r="2.905"/>
		<circle fill="#B2BCC5" cx="237.701" cy="207.807" r="7.63"/>
		<circle fill="#B2BCC5" cx="236.922" cy="275.048" r="7.631"/>
		<circle fill="#B2BCC5" cx="237.312" cy="241.26" r="7.631"/>
		<path fill="#2F3F4E" d="M232.979,195.34c-3.764,0-6.791,3.035-6.791,6.798v17.888c0,3.765,3.027,6.818,6.791,6.818h69.504V195.34
			H232.979z M234.681,222.308c-0.855,0-1.548-0.694-1.548-1.548c0-0.855,0.692-1.548,1.548-1.548c0.857,0,1.55,0.693,1.55,1.548
			C236.23,221.614,235.538,222.308,234.681,222.308z M239.702,222.308c-0.854,0-1.548-0.694-1.548-1.548
			c0-0.855,0.693-1.548,1.548-1.548c0.856,0,1.55,0.693,1.55,1.548C241.252,221.614,240.559,222.308,239.702,222.308z
			 M237.268,211.938c-2.63,0-4.762-2.131-4.762-4.76c0-2.628,2.132-4.76,4.762-4.76c2.627,0,4.759,2.132,4.759,4.76
			C242.026,209.807,239.895,211.938,237.268,211.938z M244.864,222.308c-0.855,0-1.548-0.694-1.548-1.548
			c0-0.855,0.692-1.548,1.548-1.548s1.549,0.693,1.549,1.548C246.413,221.614,245.72,222.308,244.864,222.308z"/>
		<path fill="#344453" d="M378.684,220.026v-17.888c0-3.763-3.062-6.798-6.827-6.798h-69.373v31.505h69.373
			C375.622,226.845,378.684,223.792,378.684,220.026z"/>
		<path fill="#2F3F4E" d="M226.188,235.982v17.889c0,3.764,3.027,6.819,6.791,6.819h69.504v-31.506h-69.504
			C229.216,229.184,226.188,232.218,226.188,235.982z M234.681,256.151c-0.855,0-1.548-0.694-1.548-1.549
			c0-0.855,0.692-1.548,1.548-1.548c0.857,0,1.55,0.693,1.55,1.548C236.23,255.458,235.538,256.151,234.681,256.151z
			 M239.702,256.151c-0.854,0-1.548-0.694-1.548-1.549c0-0.855,0.693-1.548,1.548-1.548c0.856,0,1.55,0.693,1.55,1.548
			C241.252,255.458,240.559,256.151,239.702,256.151z M244.864,253.054c0.855,0,1.549,0.693,1.549,1.548
			c0,0.855-0.693,1.549-1.549,1.549s-1.548-0.694-1.548-1.549C243.316,253.747,244.009,253.054,244.864,253.054z M237.268,236.262
			c2.627,0,4.759,2.131,4.759,4.76c0,2.629-2.132,4.76-4.759,4.76c-2.63,0-4.762-2.13-4.762-4.76
			C232.506,238.393,234.638,236.262,237.268,236.262z"/>
		<path fill="#344453" d="M371.856,260.689c3.766,0,6.827-3.055,6.827-6.819v-17.889c0-3.764-3.062-6.798-6.827-6.798h-69.373
			v31.506H371.856z"/>
		<path fill="#344453" d="M371.856,294.532c3.766,0,6.827-3.054,6.827-6.817v-17.889c0-3.765-3.062-6.799-6.827-6.799h-69.373
			v31.505H371.856z"/>
		<path fill="#2F3F4E" d="M226.188,269.826v17.889c0,3.764,3.027,6.817,6.791,6.817h69.504v-31.505h-69.504
			C229.216,263.027,226.188,266.062,226.188,269.826z M234.681,289.996c-0.855,0-1.548-0.695-1.548-1.549
			c0-0.856,0.692-1.548,1.548-1.548c0.857,0,1.55,0.691,1.55,1.548C236.23,289.301,235.538,289.996,234.681,289.996z
			 M239.702,289.996c-0.854,0-1.548-0.695-1.548-1.549c0-0.856,0.693-1.548,1.548-1.548c0.856,0,1.55,0.691,1.55,1.548
			C241.252,289.301,240.559,289.996,239.702,289.996z M244.864,286.899c0.855,0,1.549,0.691,1.549,1.548
			c0,0.854-0.693,1.549-1.549,1.549s-1.548-0.695-1.548-1.549C243.316,287.591,244.009,286.899,244.864,286.899z M237.268,270.105
			c2.627,0,4.759,2.132,4.759,4.76c0,2.629-2.132,4.761-4.759,4.761c-2.63,0-4.762-2.132-4.762-4.761
			C232.506,272.237,234.638,270.105,237.268,270.105z"/>
		<g>
			<path fill="#B2BCC5" d="M219.398,192.338c-2.653,0-4.805,2.151-4.805,4.805v95.586c0,2.653,2.151,4.805,4.805,4.805
				c0.072,0,0.149-0.002,0.221-0.007V192.344C219.548,192.342,219.471,192.338,219.398,192.338z"/>
			<path fill="#D8E0E5" d="M219.619,192.344v105.183c2.552-0.115,4.583-2.219,4.583-4.798v-95.586
				C224.202,194.564,222.171,192.46,219.619,192.344z"/>
		</g>
		<g>
			<path fill="#B2BCC5" d="M380.671,197.144v95.586c0,2.653,2.151,4.805,4.804,4.805V192.338
				C382.822,192.338,380.671,194.49,380.671,197.144z"/>
			<path fill="#D8E0E5" d="M385.475,192.338L385.475,192.338v105.196l0,0c2.654,0,4.807-2.151,4.807-4.805v-95.586
				C390.281,194.49,388.129,192.338,385.475,192.338z"/>
		</g>
	</g>
	<rect x="209.476" y="299.137" fill="#2F3F4E" width="187.304" height="12.452"/>
	<g>
		<rect x="222.736" y="334.601" fill="#B2BCC5" width="159.398" height="3.117"/>
		<rect x="222.347" y="368.778" fill="#B2BCC5" width="159.398" height="3.117"/>
		<rect x="222.347" y="402.732" fill="#B2BCC5" width="159.398" height="3.118"/>
		<circle fill="#1C98FC" cx="245.091" cy="346.214" r="2.856"/>
		<circle fill="#1C98FC" cx="245.146" cy="413.397" r="2.857"/>
		<circle fill="#1C98FC" cx="245.256" cy="379.719" r="2.857"/>
		<circle fill="#8FBC5F" cx="239.86" cy="346.382" r="2.856"/>
		<circle fill="#8FBC5F" cx="239.914" cy="413.563" r="2.857"/>
		<circle fill="#8FBC5F" cx="240.023" cy="379.887" r="2.856"/>
		<circle fill="#E23C4A" cx="234.452" cy="345.928" r="2.905"/>
		<circle fill="#E23C4A" cx="234.508" cy="413.728" r="2.904"/>
		<circle fill="#E23C4A" cx="234.62" cy="379.995" r="2.905"/>
		<circle fill="#B2BCC5" cx="237.701" cy="333.028" r="7.63"/>
		<circle fill="#B2BCC5" cx="236.922" cy="400.271" r="7.631"/>
		<circle fill="#B2BCC5" cx="237.312" cy="366.482" r="7.631"/>
		<path fill="#2F3F4E" d="M232.979,320.562c-3.764,0-6.791,3.034-6.791,6.798v17.887c0,3.766,3.027,6.82,6.791,6.82h69.504v-31.505
			H232.979z M234.681,347.53c-0.855,0-1.548-0.693-1.548-1.55c0-0.854,0.692-1.547,1.548-1.547c0.857,0,1.55,0.692,1.55,1.547
			C236.23,346.837,235.538,347.53,234.681,347.53z M239.702,347.53c-0.854,0-1.548-0.693-1.548-1.55
			c0-0.854,0.693-1.547,1.548-1.547c0.856,0,1.55,0.692,1.55,1.547C241.252,346.837,240.559,347.53,239.702,347.53z
			 M237.268,337.158c-2.63,0-4.762-2.13-4.762-4.758c0-2.63,2.132-4.761,4.762-4.761c2.627,0,4.759,2.131,4.759,4.761
			C242.026,335.028,239.895,337.158,237.268,337.158z M244.864,347.53c-0.855,0-1.548-0.693-1.548-1.55
			c0-0.854,0.692-1.547,1.548-1.547s1.549,0.692,1.549,1.547C246.413,346.837,245.72,347.53,244.864,347.53z"/>
		<path fill="#344453" d="M378.684,345.247V327.36c0-3.764-3.062-6.798-6.827-6.798h-69.373v31.505h69.373
			C375.622,352.067,378.684,349.013,378.684,345.247z"/>
		<path fill="#2F3F4E" d="M226.188,361.204v17.889c0,3.765,3.027,6.818,6.791,6.818h69.504v-31.507h-69.504
			C229.216,354.404,226.188,357.44,226.188,361.204z M234.681,381.373c-0.855,0-1.548-0.694-1.548-1.549s0.692-1.548,1.548-1.548
			c0.857,0,1.55,0.693,1.55,1.548S235.538,381.373,234.681,381.373z M239.702,381.373c-0.854,0-1.548-0.694-1.548-1.549
			s0.693-1.548,1.548-1.548c0.856,0,1.55,0.693,1.55,1.548S240.559,381.373,239.702,381.373z M244.864,378.276
			c0.855,0,1.549,0.693,1.549,1.548s-0.693,1.549-1.549,1.549s-1.548-0.694-1.548-1.549S244.009,378.276,244.864,378.276z
			 M237.268,361.484c2.627,0,4.759,2.13,4.759,4.76c0,2.628-2.132,4.759-4.759,4.759c-2.63,0-4.762-2.131-4.762-4.759
			C232.506,363.614,234.638,361.484,237.268,361.484z"/>
		<path fill="#344453" d="M371.856,385.911c3.766,0,6.827-3.054,6.827-6.818v-17.889c0-3.764-3.062-6.8-6.827-6.8h-69.373v31.507
			H371.856z"/>
		<path fill="#344453" d="M371.856,419.755c3.766,0,6.827-3.056,6.827-6.819v-17.887c0-3.765-3.062-6.799-6.827-6.799h-69.373
			v31.505H371.856z"/>
		<path fill="#2F3F4E" d="M226.188,395.049v17.887c0,3.764,3.027,6.819,6.791,6.819h69.504V388.25h-69.504
			C229.216,388.25,226.188,391.284,226.188,395.049z M234.681,415.219c-0.855,0-1.548-0.695-1.548-1.551
			c0-0.854,0.692-1.548,1.548-1.548c0.857,0,1.55,0.693,1.55,1.548C236.23,414.523,235.538,415.219,234.681,415.219z
			 M239.702,415.219c-0.854,0-1.548-0.695-1.548-1.551c0-0.854,0.693-1.548,1.548-1.548c0.856,0,1.55,0.693,1.55,1.548
			C241.252,414.523,240.559,415.219,239.702,415.219z M244.864,412.12c0.855,0,1.549,0.693,1.549,1.548
			c0,0.855-0.693,1.551-1.549,1.551s-1.548-0.695-1.548-1.551C243.316,412.813,244.009,412.12,244.864,412.12z M237.268,395.328
			c2.627,0,4.759,2.13,4.759,4.76c0,2.629-2.132,4.759-4.759,4.759c-2.63,0-4.762-2.13-4.762-4.759
			C232.506,397.458,234.638,395.328,237.268,395.328z"/>
		<g>
			<path fill="#B2BCC5" d="M219.398,317.561c-2.653,0-4.805,2.151-4.805,4.805v95.585c0,2.654,2.151,4.805,4.805,4.805
				c0.072,0,0.149-0.002,0.221-0.005V317.565C219.548,317.563,219.471,317.561,219.398,317.561z"/>
			<path fill="#D8E0E5" d="M219.619,317.565V422.75c2.552-0.117,4.583-2.221,4.583-4.8v-95.585
				C224.202,319.786,222.171,317.683,219.619,317.565z"/>
		</g>
		<g>
			<path fill="#B2BCC5" d="M380.671,322.365v95.585c0,2.654,2.151,4.805,4.804,4.805V317.561
				C382.822,317.561,380.671,319.712,380.671,322.365z"/>
			<path fill="#D8E0E5" d="M385.475,317.561L385.475,317.561v105.194l0,0c2.654,0,4.807-2.15,4.807-4.805v-95.585
				C390.281,319.712,388.129,317.561,385.475,317.561z"/>
		</g>
	</g>
	<rect x="201.005" y="53.968" fill="#2F3F4E" width="203.74" height="386.014"/>
	<path fill="#DDBB9D" d="M144.887,198.217l-3.29,6.17c0,0-12.341,1.509-12.615,10.696l-0.687,4.938c0,0-3.564,4.25-1.371,6.17
		c2.194,1.919,3.017,1.096,4.114,1.233c0,0-1.37,4.8,1.235,6.309c2.604,1.506,6.033,0,6.033,0s0.548,3.427,2.605,3.976
		c2.058,0.548,5.075-0.274,5.075-0.274s-0.138,1.509,1.783,2.331c1.917,0.822,5.759-2.057,5.759-2.057s11.106-9.46,6.993-23.448
		l-1.374-3.976l2.47-8.776L144.887,198.217z"/>
	<g>
		<g>
			<path fill="#2F3F4E" d="M107.255,81.041v386.851h204.161V81.041H107.255z M301.319,455.542H117.353V93.389h183.966V455.542z"/>
			<rect x="117.353" y="93.389" fill="#01637C" width="183.966" height="362.153"/>
		</g>
		<g>
			<rect x="129.408" y="112.718" fill="#B2BCC5" width="159.397" height="3.117"/>
			<rect x="129.018" y="146.895" fill="#B2BCC5" width="159.398" height="3.117"/>
			<rect x="129.018" y="180.85" fill="#B2BCC5" width="159.398" height="3.118"/>
			<circle fill="#1C98FC" cx="151.763" cy="124.331" r="2.856"/>
			<circle fill="#1C98FC" cx="151.817" cy="191.514" r="2.857"/>
			<circle fill="#1C98FC" cx="151.926" cy="157.835" r="2.856"/>
			<circle fill="#8FBC5F" cx="146.531" cy="124.498" r="2.856"/>
			<circle fill="#8FBC5F" cx="146.585" cy="191.68" r="2.858"/>
			<circle fill="#8FBC5F" cx="146.695" cy="158.003" r="2.857"/>
			<circle fill="#E23C4A" cx="141.123" cy="124.044" r="2.905"/>
			<circle fill="#E23C4A" cx="141.179" cy="191.844" r="2.905"/>
			<circle fill="#E23C4A" cx="141.29" cy="158.11" r="2.905"/>
			<circle fill="#B2BCC5" cx="144.372" cy="111.145" r="7.631"/>
			<circle fill="#B2BCC5" cx="143.593" cy="178.387" r="7.63"/>
			<circle fill="#B2BCC5" cx="143.982" cy="144.599" r="7.632"/>
			<path fill="#2F3F4E" d="M139.65,98.678c-3.763,0-6.792,3.036-6.792,6.799v17.888c0,3.765,3.029,6.819,6.792,6.819h69.504V98.678
				H139.65z M141.351,125.646c-0.855,0-1.547-0.694-1.547-1.549c0-0.854,0.692-1.548,1.547-1.548c0.858,0,1.549,0.694,1.549,1.548
				C142.899,124.953,142.209,125.646,141.351,125.646z M146.374,125.646c-0.854,0-1.547-0.694-1.547-1.549
				c0-0.854,0.693-1.548,1.547-1.548c0.855,0,1.549,0.694,1.549,1.548C147.923,124.953,147.229,125.646,146.374,125.646z
				 M143.937,115.277c-2.628,0-4.76-2.132-4.76-4.761c0-2.629,2.132-4.759,4.76-4.759c2.629,0,4.76,2.13,4.76,4.759
				C148.696,113.145,146.566,115.277,143.937,115.277z M151.535,125.646c-0.854,0-1.547-0.694-1.547-1.549
				c0-0.854,0.693-1.548,1.547-1.548c0.856,0,1.549,0.694,1.549,1.548C153.084,124.953,152.391,125.646,151.535,125.646z"/>
			<path fill="#344453" d="M285.355,123.365v-17.888c0-3.763-3.064-6.799-6.828-6.799h-69.373v31.505h69.373
				C282.291,130.184,285.355,127.13,285.355,123.365z"/>
			<path fill="#2F3F4E" d="M132.858,139.32v17.888c0,3.766,3.029,6.819,6.792,6.819h69.504v-31.506H139.65
				C135.887,132.521,132.858,135.557,132.858,139.32z M141.351,159.49c-0.855,0-1.547-0.693-1.547-1.549
				c0-0.855,0.692-1.549,1.547-1.549c0.858,0,1.549,0.694,1.549,1.549C142.899,158.797,142.209,159.49,141.351,159.49z
				 M146.374,159.49c-0.854,0-1.547-0.693-1.547-1.549c0-0.855,0.693-1.549,1.547-1.549c0.855,0,1.549,0.694,1.549,1.549
				C147.923,158.797,147.229,159.49,146.374,159.49z M151.535,156.393c0.856,0,1.549,0.694,1.549,1.549
				c0,0.855-0.693,1.549-1.549,1.549c-0.854,0-1.547-0.693-1.547-1.549C149.987,157.086,150.68,156.393,151.535,156.393z
				 M143.937,139.601c2.629,0,4.76,2.13,4.76,4.759c0,2.629-2.13,4.76-4.76,4.76c-2.628,0-4.76-2.131-4.76-4.76
				C139.177,141.731,141.309,139.601,143.937,139.601z"/>
			<path fill="#344453" d="M278.527,164.027c3.764,0,6.828-3.053,6.828-6.819V139.32c0-3.763-3.064-6.799-6.828-6.799h-69.373
				v31.506H278.527z"/>
			<path fill="#344453" d="M278.527,197.871c3.764,0,6.828-3.054,6.828-6.82v-17.887c0-3.764-3.064-6.798-6.828-6.798h-69.373
				v31.505H278.527z"/>
			<path fill="#2F3F4E" d="M132.858,173.165v17.887c0,3.766,3.029,6.82,6.792,6.82h69.504v-31.505H139.65
				C135.887,166.366,132.858,169.4,132.858,173.165z M141.351,193.334c-0.855,0-1.547-0.694-1.547-1.549
				c0-0.855,0.692-1.548,1.547-1.548c0.858,0,1.549,0.693,1.549,1.548C142.899,192.64,142.209,193.334,141.351,193.334z
				 M146.374,193.334c-0.854,0-1.547-0.694-1.547-1.549c0-0.855,0.693-1.548,1.547-1.548c0.855,0,1.549,0.693,1.549,1.548
				C147.923,192.64,147.229,193.334,146.374,193.334z M151.535,190.237c0.856,0,1.549,0.693,1.549,1.548
				c0,0.855-0.693,1.549-1.549,1.549c-0.854,0-1.547-0.694-1.547-1.549C149.987,190.93,150.68,190.237,151.535,190.237z
				 M143.937,173.444c2.629,0,4.76,2.132,4.76,4.76c0,2.629-2.13,4.759-4.76,4.759c-2.628,0-4.76-2.13-4.76-4.759
				C139.177,175.576,141.309,173.444,143.937,173.444z"/>
			<g>
				<path fill="#B2BCC5" d="M126.068,95.678c-2.652,0-4.805,2.151-4.805,4.804v95.585c0,2.655,2.153,4.806,4.805,4.806
					c0.074,0,0.149-0.003,0.222-0.006V95.683C126.217,95.679,126.142,95.678,126.068,95.678z"/>
				<path fill="#D8E0E5" d="M126.29,95.683v105.184c2.552-0.117,4.583-2.22,4.583-4.8v-95.585
					C130.874,97.903,128.842,95.799,126.29,95.683z"/>
			</g>
			<g>
				<path fill="#B2BCC5" d="M287.342,100.482v95.585c0,2.655,2.152,4.806,4.804,4.806V95.678
					C289.494,95.678,287.342,97.829,287.342,100.482z"/>
				<path fill="#D8E0E5" d="M292.146,95.678L292.146,95.678v105.194l0,0c2.654,0,4.805-2.151,4.805-4.806v-95.585
					C296.95,97.829,294.8,95.678,292.146,95.678z"/>
			</g>
		</g>
		<rect x="115.848" y="202.474" fill="#2F3F4E" width="187.302" height="12.452"/>
		<g>
			<rect x="129.408" y="236.369" fill="#B2BCC5" width="159.397" height="3.117"/>
			<rect x="129.018" y="270.548" fill="#B2BCC5" width="159.398" height="3.116"/>
			<rect x="129.018" y="304.501" fill="#B2BCC5" width="159.398" height="3.117"/>
			<circle fill="#1C98FC" cx="151.763" cy="247.982" r="2.856"/>
			<circle fill="#1C98FC" cx="151.817" cy="315.166" r="2.857"/>
			<circle fill="#1C98FC" cx="151.926" cy="281.488" r="2.856"/>
			<circle fill="#8FBC5F" cx="146.531" cy="248.149" r="2.856"/>
			<circle fill="#8FBC5F" cx="146.585" cy="315.332" r="2.858"/>
			<circle fill="#8FBC5F" cx="146.695" cy="281.654" r="2.857"/>
			<circle fill="#E23C4A" cx="141.123" cy="247.696" r="2.905"/>
			<circle fill="#E23C4A" cx="141.179" cy="315.496" r="2.905"/>
			<circle fill="#E23C4A" cx="141.29" cy="281.763" r="2.905"/>
			<circle fill="#B2BCC5" cx="144.372" cy="234.795" r="7.631"/>
			<circle fill="#B2BCC5" cx="143.593" cy="302.039" r="7.63"/>
			<circle fill="#B2BCC5" cx="143.982" cy="268.251" r="7.632"/>
			<path fill="#2F3F4E" d="M139.65,222.33c-3.763,0-6.792,3.035-6.792,6.8v17.887c0,3.765,3.029,6.819,6.792,6.819h69.504V222.33
				H139.65z M141.351,249.298c-0.855,0-1.547-0.694-1.547-1.549c0-0.854,0.692-1.547,1.547-1.547c0.858,0,1.549,0.693,1.549,1.547
				C142.899,248.604,142.209,249.298,141.351,249.298z M146.374,249.298c-0.854,0-1.547-0.694-1.547-1.549
				c0-0.854,0.693-1.547,1.547-1.547c0.855,0,1.549,0.693,1.549,1.547C147.923,248.604,147.229,249.298,146.374,249.298z
				 M143.937,238.928c-2.628,0-4.76-2.131-4.76-4.759c0-2.63,2.132-4.76,4.76-4.76c2.629,0,4.76,2.13,4.76,4.76
				C148.696,236.796,146.566,238.928,143.937,238.928z M151.535,249.298c-0.854,0-1.547-0.694-1.547-1.549
				c0-0.854,0.693-1.547,1.547-1.547c0.856,0,1.549,0.693,1.549,1.547C153.084,248.604,152.391,249.298,151.535,249.298z"/>
			<path fill="#344453" d="M285.355,247.016v-17.887c0-3.765-3.064-6.8-6.828-6.8h-69.373v31.506h69.373
				C282.291,253.835,285.355,250.781,285.355,247.016z"/>
			<path fill="#2F3F4E" d="M132.858,262.972v17.889c0,3.764,3.029,6.818,6.792,6.818h69.504v-31.506H139.65
				C135.887,256.173,132.858,259.209,132.858,262.972z M141.351,283.142c-0.855,0-1.547-0.693-1.547-1.549
				c0-0.854,0.692-1.548,1.547-1.548c0.858,0,1.549,0.693,1.549,1.548C142.899,282.448,142.209,283.142,141.351,283.142z
				 M146.374,283.142c-0.854,0-1.547-0.693-1.547-1.549c0-0.854,0.693-1.548,1.547-1.548c0.855,0,1.549,0.693,1.549,1.548
				C147.923,282.448,147.229,283.142,146.374,283.142z M151.535,280.045c0.856,0,1.549,0.693,1.549,1.548
				c0,0.855-0.693,1.549-1.549,1.549c-0.854,0-1.547-0.693-1.547-1.549C149.987,280.738,150.68,280.045,151.535,280.045z
				 M143.937,263.253c2.629,0,4.76,2.13,4.76,4.759c0,2.63-2.13,4.76-4.76,4.76c-2.628,0-4.76-2.13-4.76-4.76
				C139.177,265.383,141.309,263.253,143.937,263.253z"/>
			<path fill="#344453" d="M278.527,287.679c3.764,0,6.828-3.055,6.828-6.818v-17.889c0-3.763-3.064-6.799-6.828-6.799h-69.373
				v31.506H278.527z"/>
			<path fill="#344453" d="M278.527,321.523c3.764,0,6.828-3.054,6.828-6.819v-17.887c0-3.765-3.064-6.8-6.828-6.8h-69.373v31.506
				H278.527z"/>
			<path fill="#2F3F4E" d="M132.858,296.817v17.887c0,3.766,3.029,6.819,6.792,6.819h69.504v-31.506H139.65
				C135.887,290.018,132.858,293.053,132.858,296.817z M141.351,316.985c-0.855,0-1.547-0.695-1.547-1.549
				c0-0.855,0.692-1.548,1.547-1.548c0.858,0,1.549,0.692,1.549,1.548C142.899,316.29,142.209,316.985,141.351,316.985z
				 M146.374,316.985c-0.854,0-1.547-0.695-1.547-1.549c0-0.855,0.693-1.548,1.547-1.548c0.855,0,1.549,0.692,1.549,1.548
				C147.923,316.29,147.229,316.985,146.374,316.985z M151.535,313.889c0.856,0,1.549,0.692,1.549,1.548
				c0,0.854-0.693,1.549-1.549,1.549c-0.854,0-1.547-0.695-1.547-1.549C149.987,314.581,150.68,313.889,151.535,313.889z
				 M143.937,297.095c2.629,0,4.76,2.132,4.76,4.761c0,2.63-2.13,4.76-4.76,4.76c-2.628,0-4.76-2.13-4.76-4.76
				C139.177,299.227,141.309,297.095,143.937,297.095z"/>
			<g>
				<path fill="#B2BCC5" d="M126.068,219.329c-2.652,0-4.805,2.151-4.805,4.804v95.586c0,2.654,2.153,4.805,4.805,4.805
					c0.074,0,0.149-0.002,0.222-0.005V219.334C126.217,219.331,126.142,219.329,126.068,219.329z"/>
				<path fill="#D8E0E5" d="M126.29,219.334v105.184c2.552-0.117,4.583-2.221,4.583-4.8v-95.586
					C130.874,221.554,128.842,219.451,126.29,219.334z"/>
			</g>
			<g>
				<path fill="#B2BCC5" d="M287.342,224.133v95.586c0,2.654,2.152,4.805,4.804,4.805V219.329
					C289.494,219.329,287.342,221.479,287.342,224.133z"/>
				<path fill="#D8E0E5" d="M292.146,219.329L292.146,219.329v105.195l0,0c2.654,0,4.805-2.15,4.805-4.805v-95.586
					C296.95,221.479,294.8,219.329,292.146,219.329z"/>
			</g>
		</g>
		<rect x="116.147" y="326.126" fill="#2F3F4E" width="187.303" height="12.453"/>
		<g>
			<rect x="129.408" y="361.591" fill="#B2BCC5" width="159.397" height="3.116"/>
			<rect x="129.018" y="395.769" fill="#B2BCC5" width="159.398" height="3.118"/>
			<rect x="129.018" y="429.723" fill="#B2BCC5" width="159.398" height="3.118"/>
			<circle fill="#1C98FC" cx="151.763" cy="373.203" r="2.856"/>
			<circle fill="#1C98FC" cx="151.817" cy="440.387" r="2.857"/>
			<circle fill="#1C98FC" cx="151.926" cy="406.709" r="2.856"/>
			<circle fill="#8FBC5F" cx="146.531" cy="373.371" r="2.856"/>
			<circle fill="#8FBC5F" cx="146.585" cy="440.555" r="2.858"/>
			<circle fill="#8FBC5F" cx="146.695" cy="406.877" r="2.857"/>
			<circle fill="#E23C4A" cx="141.123" cy="372.918" r="2.905"/>
			<circle fill="#E23C4A" cx="141.179" cy="440.718" r="2.905"/>
			<circle fill="#E23C4A" cx="141.29" cy="406.983" r="2.905"/>
			<circle fill="#B2BCC5" cx="144.372" cy="360.018" r="7.631"/>
			<circle fill="#B2BCC5" cx="143.593" cy="427.26" r="7.63"/>
			<circle fill="#B2BCC5" cx="143.982" cy="393.472" r="7.632"/>
			<path fill="#2F3F4E" d="M139.65,347.552c-3.763,0-6.792,3.034-6.792,6.799v17.888c0,3.765,3.029,6.818,6.792,6.818h69.504
				v-31.505H139.65z M141.351,374.521c-0.855,0-1.547-0.694-1.547-1.551c0-0.853,0.692-1.546,1.547-1.546
				c0.858,0,1.549,0.693,1.549,1.546C142.899,373.826,142.209,374.521,141.351,374.521z M146.374,374.521
				c-0.854,0-1.547-0.694-1.547-1.551c0-0.853,0.693-1.546,1.547-1.546c0.855,0,1.549,0.693,1.549,1.546
				C147.923,373.826,147.229,374.521,146.374,374.521z M143.937,364.15c-2.628,0-4.76-2.132-4.76-4.761c0-2.63,2.132-4.76,4.76-4.76
				c2.629,0,4.76,2.13,4.76,4.76C148.696,362.019,146.566,364.15,143.937,364.15z M151.535,374.521
				c-0.854,0-1.547-0.694-1.547-1.551c0-0.853,0.693-1.546,1.547-1.546c0.856,0,1.549,0.693,1.549,1.546
				C153.084,373.826,152.391,374.521,151.535,374.521z"/>
			<path fill="#344453" d="M285.355,372.238v-17.888c0-3.765-3.064-6.799-6.828-6.799h-69.373v31.505h69.373
				C282.291,379.057,285.355,376.003,285.355,372.238z"/>
			<path fill="#2F3F4E" d="M132.858,388.194v17.889c0,3.764,3.029,6.817,6.792,6.817h69.504v-31.505H139.65
				C135.887,381.396,132.858,384.43,132.858,388.194z M141.351,408.364c-0.855,0-1.547-0.695-1.547-1.55
				c0-0.854,0.692-1.549,1.547-1.549c0.858,0,1.549,0.695,1.549,1.549C142.899,407.669,142.209,408.364,141.351,408.364z
				 M146.374,408.364c-0.854,0-1.547-0.695-1.547-1.55c0-0.854,0.693-1.549,1.547-1.549c0.855,0,1.549,0.695,1.549,1.549
				C147.923,407.669,147.229,408.364,146.374,408.364z M151.535,405.266c0.856,0,1.549,0.695,1.549,1.549
				c0,0.854-0.693,1.55-1.549,1.55c-0.854,0-1.547-0.695-1.547-1.55C149.987,405.961,150.68,405.266,151.535,405.266z
				 M143.937,388.474c2.629,0,4.76,2.13,4.76,4.76c0,2.629-2.13,4.761-4.76,4.761c-2.628,0-4.76-2.132-4.76-4.761
				C139.177,390.604,141.309,388.474,143.937,388.474z"/>
			<path fill="#344453" d="M278.527,412.9c3.764,0,6.828-3.054,6.828-6.817v-17.889c0-3.765-3.064-6.799-6.828-6.799h-69.373V412.9
				H278.527z"/>
			<path fill="#344453" d="M278.527,446.745c3.764,0,6.828-3.055,6.828-6.82v-17.887c0-3.764-3.064-6.798-6.828-6.798h-69.373
				v31.505H278.527z"/>
			<path fill="#2F3F4E" d="M132.858,422.038v17.887c0,3.766,3.029,6.82,6.792,6.82h69.504V415.24H139.65
				C135.887,415.24,132.858,418.274,132.858,422.038z M141.351,442.208c-0.855,0-1.547-0.695-1.547-1.548
				c0-0.856,0.692-1.551,1.547-1.551c0.858,0,1.549,0.694,1.549,1.551C142.899,441.513,142.209,442.208,141.351,442.208z
				 M146.374,442.208c-0.854,0-1.547-0.695-1.547-1.548c0-0.856,0.693-1.551,1.547-1.551c0.855,0,1.549,0.694,1.549,1.551
				C147.923,441.513,147.229,442.208,146.374,442.208z M151.535,439.109c0.856,0,1.549,0.694,1.549,1.551
				c0,0.853-0.693,1.548-1.549,1.548c-0.854,0-1.547-0.695-1.547-1.548C149.987,439.804,150.68,439.109,151.535,439.109z
				 M143.937,422.317c2.629,0,4.76,2.132,4.76,4.761c0,2.628-2.13,4.76-4.76,4.76c-2.628,0-4.76-2.132-4.76-4.76
				C139.177,424.449,141.309,422.317,143.937,422.317z"/>
			<g>
				<path fill="#B2BCC5" d="M126.068,344.551c-2.652,0-4.805,2.151-4.805,4.804v95.587c0,2.653,2.153,4.805,4.805,4.805
					c0.074,0,0.149-0.003,0.222-0.007V344.557C126.217,344.552,126.142,344.551,126.068,344.551z"/>
				<path fill="#D8E0E5" d="M126.29,344.557v105.183c2.552-0.114,4.583-2.219,4.583-4.798v-95.587
					C130.874,346.776,128.842,344.674,126.29,344.557z"/>
			</g>
			<g>
				<path fill="#B2BCC5" d="M287.342,349.354v95.587c0,2.653,2.152,4.805,4.804,4.805V344.551
					C289.494,344.551,287.342,346.702,287.342,349.354z"/>
				<path fill="#D8E0E5" d="M292.146,344.551L292.146,344.551v105.195l0,0c2.654,0,4.805-2.151,4.805-4.805v-95.587
					C296.95,346.702,294.8,344.551,292.146,344.551z"/>
			</g>
		</g>
	</g>
</g>
<g id="Layer_2">
</g>
</svg>
