<?xml version="1.0" encoding="utf-8"?>
<!-- Generator: Adobe Illustrator 15.0.0, SVG Export Plug-In . SVG Version: 6.00 Build 0)  -->
<!DOCTYPE svg PUBLIC "-//W3C//DTD SVG 1.1//EN" "http://www.w3.org/Graphics/SVG/1.1/DTD/svg11.dtd">
<svg version="1.1" id="Layer_1" xmlns="http://www.w3.org/2000/svg" xmlns:xlink="http://www.w3.org/1999/xlink" x="0px" y="0px"
	 width="320px" height="320px" viewBox="0 0 320 320" enable-background="new 0 0 320 320" xml:space="preserve">
<path fill="#5B9FBA" d="M248.764,97.998c-4.033,0-8.032,0.392-11.953,1.167c0.2-2.167,0.301-4.344,0.301-6.52
	c0-38.72-31.501-70.221-70.221-70.221c-38.356,0-69.629,30.911-70.213,69.13c-6.952-2.414-14.234-3.633-21.736-3.633
	c-36.635,0-66.441,29.806-66.441,66.442c0,16.566,6.132,32.434,17.266,44.68c10.667,11.735,25.06,19.229,40.687,21.226
	c0.655,0.344,1.4,0.537,2.191,0.537h178.86c0.1,0,0.197-0.003,0.295-0.01c0.321,0.006,0.642,0.01,0.964,0.01
	c33.858,0,61.403-27.545,61.403-61.404C310.166,125.544,282.621,97.998,248.764,97.998z"/>
<path fill="#4C889B" d="M96.678,91.555c-6.952-2.414-14.234-3.633-21.736-3.633c-36.636,0-66.442,29.806-66.442,66.441
	c0,16.566,6.132,32.434,17.266,44.68c10.667,11.735,25.06,19.229,40.687,21.226c0.655,0.344,1.4,0.537,2.191,0.537h90.689V22.833
	C124.509,26.576,97.224,55.879,96.678,91.555z"/>
<path fill="#EF9F7D" d="M252.983,169.735l-91.004-73.212c-1.731-1.393-4.199-1.391-5.928,0.004L65.363,169.74
	c-1.558,1.258-2.154,3.36-1.487,5.247c0.667,1.888,2.452,3.15,4.454,3.15h43.14v98.563c0,2.607,2.114,4.723,4.724,4.723h85.651
	c2.607,0,4.724-2.114,4.724-4.723v-98.563h43.454c2.003,0,3.79-1.263,4.456-3.152C255.143,173.095,254.545,170.99,252.983,169.735z"
	/>
<path fill="#D3856A" d="M156.052,96.527L65.363,169.74c-1.558,1.258-2.154,3.36-1.487,5.247c0.667,1.888,2.452,3.15,4.454,3.15
	h43.14v98.563c0,2.607,2.114,4.723,4.724,4.723h43.14V95.506C158.179,95.428,157.004,95.759,156.052,96.527z"/>
<g>
	<path fill="#F0353D" d="M201.844,299.058h-85.651c-2.609,0-4.724-2.114-4.724-4.724s2.115-4.724,4.724-4.724h85.651
		c2.608,0,4.725,2.114,4.725,4.724C206.568,296.942,204.453,299.058,201.844,299.058z"/>
</g>
</svg>
