<?xml version="1.0" encoding="utf-8"?>
<!-- Generator: Adobe Illustrator 15.0.0, SVG Export Plug-In . SVG Version: 6.00 Build 0)  -->
<!DOCTYPE svg PUBLIC "-//W3C//DTD SVG 1.1//EN" "http://www.w3.org/Graphics/SVG/1.1/DTD/svg11.dtd">
<svg version="1.1" id="Layer_1" xmlns="http://www.w3.org/2000/svg" xmlns:xlink="http://www.w3.org/1999/xlink" x="0px" y="0px"
	 width="320px" height="320px" viewBox="0 0 320 320" enable-background="new 0 0 320 320" xml:space="preserve">
<rect x="30.63" y="56.181" fill="#F7EDD7" width="260.239" height="171.88"/>
<path fill="#D8CAAD" d="M290.87,56.181v9.078c-0.605,0-0.605,0-1.211,0H31.841c-0.605,0-0.605,0-1.211,0v-9.078H290.87z"/>
<path fill="#3368B5" d="M128.674,114.281c0,10.289-3.631,19.367-9.683,26.629c-7.868,9.683-19.973,16.34-33.287,16.34
	c-23.603,0-42.97-19.366-42.97-42.969s19.367-42.97,42.97-42.97S128.674,90.678,128.674,114.281z"/>
<path fill="#FFD15C" d="M128.674,114.281h-42.97v-42.97C109.307,71.312,128.674,90.678,128.674,114.281z"/>
<path fill="#ACB3BA" d="M128.674,114.281c0,10.289-3.631,19.367-9.683,26.629l-33.287-26.629H128.674z"/>
<rect x="246.688" y="116.097" fill="#225BAF" width="13.921" height="78.677"/>
<rect x="219.455" y="132.438" fill="#EFB930" width="13.92" height="62.942"/>
<rect x="192.826" y="148.778" fill="#FFD05C" width="13.92" height="45.995"/>
<rect x="166.197" y="112.466" fill="#F2705B" width="13.92" height="82.308"/>
<rect x="138.962" y="166.329" fill="#84DBFF" width="13.92" height="28.444"/>
<rect x="120.806" y="202.037" fill="#343A39" width="157.959" height="13.919"/>
<g>
	<polygon fill="#1A2C3D" points="154.698,232.297 139.567,269.215 120.806,314 83.888,314 102.044,269.215 117.78,232.297 	"/>
	<polygon fill="#1A2C3D" points="237.611,314 200.693,314 181.933,269.215 166.802,232.297 203.72,232.297 219.455,269.215 	"/>
</g>
<g>
	<polygon fill="#0E1A23" points="117.78,232.297 154.698,232.297 139.567,269.215 102.044,269.215 	"/>
	<polygon fill="#0E1A23" points="219.455,269.215 181.933,269.215 166.802,232.297 203.72,232.297 	"/>
</g>
<g>
	<path fill="#375A77" d="M31.841,56.181h257.818c9.077,0,16.34-7.262,16.34-16.34c0-9.078-7.262-16.341-16.34-16.341H31.841
		c-9.078,0-16.341,7.263-16.341,16.341C15.5,48.918,22.763,56.181,31.841,56.181z"/>
	<path fill="#375A77" d="M289.659,228.061H31.841c-9.078,0-16.341,7.262-16.341,16.341c0,9.077,7.263,16.341,16.341,16.341h257.818
		c9.077,0,16.34-7.264,16.34-16.341C306,235.322,298.737,228.061,289.659,228.061z"/>
</g>
</svg>
