<?xml version="1.0" encoding="utf-8"?>
<!-- Generator: Adobe Illustrator 15.0.0, SVG Export Plug-In . SVG Version: 6.00 Build 0)  -->
<!DOCTYPE svg PUBLIC "-//W3C//DTD SVG 1.1//EN" "http://www.w3.org/Graphics/SVG/1.1/DTD/svg11.dtd">
<svg version="1.1" id="Layer_1" xmlns="http://www.w3.org/2000/svg" xmlns:xlink="http://www.w3.org/1999/xlink" x="0px" y="0px"
	 width="320px" height="320px" viewBox="0 0 320 320" enable-background="new 0 0 320 320" xml:space="preserve">
<rect x="54.534" y="77.494" fill="#F7EDD7" width="206.989" height="136.709"/>
<path fill="#D8CAAD" d="M261.522,77.494v7.22c-0.481,0-0.481,0-0.964,0H55.497c-0.481,0-0.481,0-0.963,0v-7.22H261.522z"/>
<path fill="#3368B5" d="M132.516,123.705c0,8.183-2.888,15.403-7.701,21.18c-6.258,7.701-15.887,12.997-26.476,12.997
	c-18.774,0-34.178-15.403-34.178-34.176c0-18.773,15.404-34.178,34.178-34.178C117.112,89.527,132.516,104.932,132.516,123.705z"/>
<path fill="#FFD15C" d="M132.516,123.705H98.339V89.527C117.112,89.528,132.516,104.932,132.516,123.705z"/>
<path fill="#ACB3BA" d="M132.516,123.705c0,8.183-2.888,15.403-7.701,21.18l-26.476-21.18H132.516z"/>
<rect x="226.381" y="125.149" fill="#225BAF" width="11.073" height="62.578"/>
<rect x="204.721" y="138.146" fill="#EFB930" width="11.071" height="50.062"/>
<rect x="183.541" y="151.143" fill="#FFD05C" width="11.072" height="36.584"/>
<rect x="162.36" y="122.261" fill="#F2705B" width="11.072" height="65.466"/>
<rect x="140.699" y="165.103" fill="#84DBFF" width="11.071" height="22.625"/>
<rect x="126.258" y="193.504" fill="#343A39" width="125.636" height="11.071"/>
<g>
	<polygon fill="#1A2C3D" points="153.215,217.571 141.18,246.936 126.258,282.557 96.895,282.557 111.335,246.936 123.851,217.571 	
		"/>
	<polygon fill="#1A2C3D" points="219.162,282.557 189.798,282.557 174.877,246.936 162.843,217.571 192.207,217.571 
		204.721,246.936 	"/>
</g>
<g>
	<polygon fill="#0E1A23" points="123.851,217.571 153.215,217.571 141.18,246.936 111.335,246.936 	"/>
	<polygon fill="#0E1A23" points="204.721,246.936 174.877,246.936 162.843,217.571 192.207,217.571 	"/>
</g>
<g>
	<path fill="#375A77" d="M55.497,77.494h205.062c7.221,0,12.997-5.776,12.997-12.997c0-7.22-5.776-12.997-12.997-12.997H55.497
		c-7.22,0-12.997,5.777-12.997,12.997S48.277,77.494,55.497,77.494z"/>
	<path fill="#375A77" d="M260.559,214.203H55.497c-7.22,0-12.997,5.775-12.997,12.997c0,7.219,5.777,12.996,12.997,12.996h205.062
		c7.221,0,12.997-5.777,12.997-12.996C273.557,219.978,267.779,214.203,260.559,214.203z"/>
</g>
</svg>
