<?xml version="1.0" encoding="utf-8"?>
<!-- Generator: Adobe Illustrator 15.0.0, SVG Export Plug-In . SVG Version: 6.00 Build 0)  -->
<!DOCTYPE svg PUBLIC "-//W3C//DTD SVG 1.1//EN" "http://www.w3.org/Graphics/SVG/1.1/DTD/svg11.dtd">
<svg version="1.1" id="Layer_1" xmlns="http://www.w3.org/2000/svg" xmlns:xlink="http://www.w3.org/1999/xlink" x="0px" y="0px"
	 width="320px" height="320px" viewBox="0 0 320 320" enable-background="new 0 0 320 320" xml:space="preserve">
<path fill="#239B02" d="M166.367,154.078c12.95-12.949,34.253-22.557,46.785-18.798l0,0l0,0l0,0l0,0
	c3.76,12.532-5.431,33.837-18.799,46.785c-12.947,12.95-25.897,14.203-38.847,10.443l0,0l0,0l0,0l0,0
	C152.165,180.395,153.417,167.447,166.367,154.078z"/>
<path fill="#34B515" d="M155.924,192.927L155.924,192.927L155.924,192.927L155.924,192.927L155.924,192.927
	c-3.759-12.949-2.506-25.898,10.443-38.849c12.95-12.949,34.253-22.557,46.785-18.798l0,0l0,0l0,0l0,0"/>
<path fill="#239B02" d="M145.48,154.078c-12.949-12.949-34.253-22.557-46.785-18.798l0,0l0,0l0,0l0,0
	c-3.76,12.532,5.43,33.837,18.797,46.785c12.95,12.95,25.899,14.203,38.848,10.443l0,0l0,0l0,0l0,0
	C159.684,180.395,158.431,167.447,145.48,154.078z"/>
<path fill="#34B515" d="M155.924,192.927L155.924,192.927L155.924,192.927L155.924,192.927L155.924,192.927
	c3.76-12.949,2.507-25.898-10.443-38.849c-12.949-12.949-34.253-22.557-46.785-18.798l0,0l0,0l0,0l0,0"/>
<rect x="151.747" y="129.85" fill="#683100" width="8.355" height="75.191"/>
<path fill="#894400" d="M89.047,200.864c-0.483,0-0.483,5.431-0.483,8.354c0,38.432,30.419,68.927,67.598,68.927
	c37.179,0,67.598-30.495,67.598-68.927c0-3.342-0.482-8.771-0.482-8.771H89.047V200.864z"/>
<path fill="#683100" d="M156.162,278.978c37.179,0,67.598-30.911,67.598-68.924c0-3.342-0.482-8.771-0.965-8.771h-81.118"/>
<rect x="83.736" y="188.332" fill="#C67812" width="144.853" height="16.709"/>
<rect x="112.706" y="267.699" fill="#683100" width="86.912" height="16.71"/>
<circle fill="#04AF76" cx="155.924" cy="80.976" r="54.722"/>
<path fill="#008C61" d="M117.075,42.127c21.305-21.304,55.975-21.304,77.696,0c21.306,21.304,21.306,55.975,0,77.697"/>
<path fill="#FFF6E1" d="M151.747,125.673v-11.697c-8.354-0.417-14.62-2.089-18.798-4.595l2.924-12.114
	c4.595,2.506,10.444,4.595,17.127,4.595c5.849,0,10.025-2.507,10.025-6.684c0-4.177-3.342-6.684-11.279-9.19
	c-11.279-3.76-18.38-9.19-18.38-19.215c0-9.19,5.849-16.709,18.38-18.798V37.95h8.355v9.189c8.354,0.419,12.531,1.671,15.873,3.343
	l-2.925,11.696c-2.923-1.253-7.518-3.759-15.038-3.759c-6.684,0-9.189,2.924-9.189,5.848c0,3.341,3.759,5.848,12.532,9.189
	c12.532,4.595,17.126,10.026,17.126,19.633c0,9.19-6.266,17.545-18.797,19.634v12.531h-7.937V125.673z"/>
<g>
	<path fill="#FFEEBD" d="M155.924,37.95v21.304c0,0,1.253,0,2.088,0c7.52,0,12.532,2.506,15.038,3.76l2.508-11.697
		c-3.343-2.089-7.102-3.759-15.456-4.178V37.95H155.924z"/>
	<path fill="#FFEEBD" d="M161.772,73.875c-2.089-0.836-4.595-1.671-5.849-2.507v15.874c4.178,2.089,7.52,4.595,7.52,7.519
		c0,3.342-2.925,5.849-7.52,6.266v24.646h4.178v-12.532c12.531-2.089,18.797-10.026,18.797-19.634
		C178.898,84.318,174.305,78.47,161.772,73.875z"/>
</g>
</svg>
