<?xml version="1.0" encoding="utf-8"?>
<!-- Generator: Adobe Illustrator 15.0.0, SVG Export Plug-In . SVG Version: 6.00 Build 0)  -->
<!DOCTYPE svg PUBLIC "-//W3C//DTD SVG 1.1//EN" "http://www.w3.org/Graphics/SVG/1.1/DTD/svg11.dtd">
<svg version="1.1" id="Layer_1" xmlns="http://www.w3.org/2000/svg" xmlns:xlink="http://www.w3.org/1999/xlink" x="0px" y="0px"
	 width="320px" height="320px" viewBox="0 0 320 320" enable-background="new 0 0 320 320" xml:space="preserve">
<circle fill="#E5D7B7" cx="159.26" cy="150.958" r="126.384"/>
<rect x="184.35" y="181.542" transform="matrix(0.7071 -0.7071 0.7071 0.7071 -75.6406 194.4301)" fill="#646B79" width="25.074" height="13.965"/>
<circle fill="#4F5565" cx="131.998" cy="123.695" r="87.847"/>
<circle fill="#BFBFBF" cx="131.998" cy="123.695" r="75.897"/>
<circle fill="#D6C6A5" cx="131.998" cy="123.695" r="67.315"/>
<g>
	<path fill="#4F5565" d="M237.512,259.167l5.051,5.891c1.347,1.514,3.701,1.683,5.216,0.167l25.581-25.58
		c1.514-1.515,1.345-3.87-0.169-5.216l-5.891-5.05L237.512,259.167z"/>
	<path fill="#4F5565" d="M215.973,183.942c-1.346-1.18-3.533-1.18-4.881,0.167l-18.681,18.68c-1.346,1.349-1.346,3.366-0.167,4.882
		l1.682,1.851l23.896-23.896L215.973,183.942z"/>
</g>
<polygon fill="#1B3344" points="193.926,209.521 237.512,259.167 267.47,229.211 217.823,185.625 "/>
<rect x="83.025" y="154.828" fill="#646B79" width="97.775" height="6.059"/>
<rect x="89.925" y="124.201" fill="#E2AC33" width="14.977" height="25.243"/>
<rect x="112.981" y="96.433" fill="#4485C5" width="14.978" height="53.179"/>
<rect x="136.036" y="115.281" fill="#EF8C29" width="14.978" height="34.162"/>
<rect x="159.091" y="80.949" fill="#F0582F" width="14.977" height="68.493"/>
</svg>
