<?xml version="1.0" encoding="utf-8"?>
<!-- Generator: Adobe Illustrator 15.0.0, SVG Export Plug-In . SVG Version: 6.00 Build 0)  -->
<!DOCTYPE svg PUBLIC "-//W3C//DTD SVG 1.1//EN" "http://www.w3.org/Graphics/SVG/1.1/DTD/svg11.dtd">
<svg version="1.1" id="Layer_1" xmlns="http://www.w3.org/2000/svg" xmlns:xlink="http://www.w3.org/1999/xlink" x="0px" y="0px"
	 width="800px" height="800px" viewBox="0 0 800 800" enable-background="new 0 0 800 800" xml:space="preserve">
<g>
	<g>
		<polygon fill-rule="evenodd" clip-rule="evenodd" fill="#FFD7B7" points="144.522,683.017 279.941,712.775 303.321,606.38 
			402.234,470.487 200.943,426.257 		"/>
		<path fill-rule="evenodd" clip-rule="evenodd" fill="#DEB99B" d="M212.727,472.912c20.199,31.468,50.238,79.415,17.245,116.255
			C215.279,577.819,196.194,517.437,212.727,472.912z"/>
		<g>
			<path fill-rule="evenodd" clip-rule="evenodd" fill="#004E78" d="M283.617,61.461h195.436c37.845,0,68.809,22.145,68.809,49.214
				v371.09c0,27.065-30.964,49.215-68.809,49.215H283.617c-37.847,0-68.812-22.149-68.812-49.215v-371.09
				C214.805,83.606,245.77,61.461,283.617,61.461z"/>
			<path fill-rule="evenodd" clip-rule="evenodd" fill="#FFFFFF" d="M236.177,100.832h290.316c0.562,0,1.027,0.31,1.027,0.691
				v385.455c0,0.382-0.466,0.691-1.027,0.691H236.177c-0.564,0-1.028-0.31-1.028-0.691V101.523
				C235.148,101.142,235.613,100.832,236.177,100.832z"/>
			<path fill-rule="evenodd" clip-rule="evenodd" fill="#5896CC" d="M345.223,73.076h72.223c1.959,0,3.561,1.601,3.561,3.559v0.002
				c0,1.958-1.602,3.559-3.561,3.559h-72.223c-1.96,0-3.561-1.6-3.561-3.559v-0.002C341.663,74.677,343.263,73.076,345.223,73.076z"
				/>
			<path fill-rule="evenodd" clip-rule="evenodd" fill="#5896CC" d="M381.335,496.626c6.644,0,12.032,5.383,12.032,12.028
				c0,6.647-5.388,12.031-12.032,12.031c-6.65,0-12.032-5.384-12.032-12.031C369.303,502.009,374.685,496.626,381.335,496.626z"/>
		</g>
		<polygon fill-rule="evenodd" clip-rule="evenodd" fill="#4994BA" points="137.438,612.657 311.603,650.691 288.454,756.692 
			105.986,756.692 		"/>
		<path fill-rule="evenodd" clip-rule="evenodd" fill="#FFD7B7" d="M166.958,580.925l22.038,12.406l5.389-34.016l36.681-172.805
			c7.63-35.942-14.744-47.982-36.896-54.746l-39.025,183.853C151.509,532.745,152.605,572.85,166.958,580.925z"/>
		<g>
			<g>
				<path fill-rule="evenodd" clip-rule="evenodd" fill="#FFD7B7" d="M522.117,611.537l60.932,145.155h129.014
					c5.691-5.065,11.264-10.261,16.702-15.582l-62.878-156.909L522.117,611.537z"/>
				<polygon fill-rule="evenodd" clip-rule="evenodd" fill="#4994BA" points="711.213,645.349 754.645,756.692 569.39,756.692 
					550.531,709.343 				"/>
			</g>
			<g>
				<path fill-rule="evenodd" clip-rule="evenodd" fill="#FFD7B7" d="M395.229,497.829l70.219,99.69
					c9.037,12.83,56.058,52.528,69.575,44.554c13.508-7.973-5.561-51.872-14.931-64.483l-53.823-67.485
					C435.412,471.412,408.867,487.593,395.229,497.829z"/>
			</g>
		</g>
		<path fill-rule="evenodd" clip-rule="evenodd" fill="#FFF2E8" d="M201.925,334.396c-2.559-0.971-5.158-1.838-7.756-2.631
			l-8.722,41.083C200.187,372.589,201.426,349.474,201.925,334.396z"/>
		<path fill-rule="evenodd" clip-rule="evenodd" fill="#FFD7B7" d="M212.727,472.912c13.859,24.401,33.548,68.959,21.112,108.333
			C221.405,620.622,186.175,532.544,212.727,472.912z"/>
		<path fill-rule="evenodd" clip-rule="evenodd" fill="#FFF2E8" d="M402.435,493.93c-2.449,1.214-4.855,2.533-7.205,3.899
			l24.188,34.335C429.248,521.182,413.149,504.553,402.435,493.93z"/>
		<polygon fill-rule="evenodd" clip-rule="evenodd" fill="#DEB99B" points="441.729,489.253 475.99,564.152 431.996,487.67 		"/>
	</g>
</g>
<path fill="#F8D8B2" d="M240.344,360.396c4.59,2.625,10.414,1.898,14.267-1.779c-1.824,1.677-4.273,2.695-6.818,3.011"/>
<path fill="#F7C797" d="M239.762,360.063c-0.066-0.042-0.127-0.089-0.192-0.13c-0.318-0.206-0.631-0.417-0.938-0.637"/>
<rect x="317.516" y="155.87" fill="#BDBDBD" width="195.584" height="11.007"/>
<rect x="346.778" y="125.425" fill="#757575" width="148.455" height="11.008"/>
<rect x="317.516" y="175.509" fill="#BDBDBD" width="195.584" height="11.007"/>
<rect x="317.516" y="195.148" fill="#BDBDBD" width="195.584" height="11.008"/>
<rect x="317.516" y="237.585" fill="#BDBDBD" width="195.584" height="11.008"/>
<rect x="317.516" y="257.224" fill="#BDBDBD" width="195.584" height="11.008"/>
<rect x="317.516" y="276.864" fill="#BDBDBD" width="195.584" height="11.008"/>
<rect x="317.516" y="319.3" fill="#BDBDBD" width="195.584" height="11.009"/>
<rect x="317.516" y="338.94" fill="#BDBDBD" width="195.584" height="11.008"/>
<rect x="317.516" y="358.578" fill="#BDBDBD" width="195.584" height="11.01"/>
<path fill="#E0E0E0" d="M255.444,155.87v50.286h50.286V155.87H255.444z M296.856,197.283h-32.539v-32.54h32.539V197.283z"/>
<path fill="#E0E0E0" d="M255.444,237.585v50.287h50.286v-50.287H255.444z M296.856,278.999h-32.539v-32.54h32.539V278.999z"/>
<path fill="#E0E0E0" d="M255.444,319.3v50.288h50.286V319.3H255.444z M296.856,360.713h-32.539v-32.539h32.539V360.713z"/>
<g>
	<polygon fill="#F48940" points="277.106,193.958 261.216,172.327 269.4,166.315 278.774,179.077 305.562,155.87 312.211,163.543 	
		"/>
</g>
<g>
	<polygon fill="#F48940" points="277.106,275.672 261.216,254.042 269.4,248.031 278.774,260.792 305.562,237.585 312.211,245.258 	
		"/>
</g>
<g>
	<polygon fill="#F48940" points="277.106,357.387 261.216,335.757 269.4,329.746 278.774,342.507 305.562,319.3 312.211,326.975 	
		"/>
</g>
<path fill="#F8D8B2" d="M449.802,326.594c0.198,0.008,0.396,0.025,0.595,0.041C450.197,326.621,450.001,326.6,449.802,326.594z"/>
<path fill="#F8D8B2" d="M446.845,326.792c0.069-0.011,0.137-0.023,0.202-0.035C446.981,326.769,446.914,326.781,446.845,326.792z"/>
<path fill="#F8D8B2" d="M445.217,327.173c0.121-0.036,0.243-0.078,0.368-0.111C445.46,327.095,445.341,327.137,445.217,327.173z"/>
<path fill="#F8D8B2" d="M448.352,326.616c0.081-0.005,0.162-0.009,0.243-0.014C448.514,326.607,448.433,326.611,448.352,326.616z"/>
<path fill="#F8D8B2" d="M452.382,326.921c0.26,0.053,0.518,0.11,0.775,0.18C452.899,327.031,452.642,326.975,452.382,326.921z"/>
<path fill="#F8D8B2" d="M453.958,327.344c0.179,0.058,0.356,0.113,0.534,0.18C454.314,327.458,454.137,327.403,453.958,327.344z"/>
<path fill="#F8D8B2" d="M455.481,327.943c0.11,0.048,0.221,0.093,0.325,0.146C455.702,328.036,455.592,327.993,455.481,327.943z"/>
<path fill="#F8D8B2" d="M456.966,328.725c0.04,0.025,0.082,0.046,0.122,0.072C457.048,328.771,457.006,328.75,456.966,328.725z"/>
<path fill="#F8D8B2" d="M450.761,326.668c0.356,0.034,0.712,0.082,1.064,0.142C451.473,326.749,451.117,326.705,450.761,326.668z"/>
<path fill="#F8D8B2" d="M240.344,436.902c4.59,2.626,10.414,1.897,14.267-1.78c-1.824,1.678-4.273,2.695-6.818,3.012"/>
<rect x="317.516" y="395.808" fill="#BDBDBD" width="195.584" height="11.009"/>
<rect x="317.516" y="415.448" fill="#BDBDBD" width="195.584" height="11.008"/>
<rect x="317.516" y="435.084" fill="#BDBDBD" width="195.584" height="11.011"/>
<path fill="#E0E0E0" d="M255.444,395.808v50.287h50.286v-50.287H255.444z M296.856,437.221h-32.539v-32.54h32.539V437.221z"/>
<g>
	<polygon fill="#F48940" points="277.106,433.895 261.216,412.264 269.4,406.253 278.774,419.015 305.562,395.808 312.211,403.483 	
		"/>
</g>
<path fill="#F8D8B2" d="M449.802,403.101c0.198,0.009,0.396,0.025,0.595,0.042C450.197,403.129,450.001,403.106,449.802,403.101z"/>
<path fill="#F8D8B2" d="M446.845,403.3c0.069-0.011,0.137-0.024,0.202-0.035C446.981,403.275,446.914,403.289,446.845,403.3z"/>
<path fill="#F8D8B2" d="M445.217,403.68c0.121-0.036,0.243-0.078,0.368-0.111C445.46,403.602,445.341,403.644,445.217,403.68z"/>
<path fill="#F8D8B2" d="M448.352,403.123c0.081-0.006,0.162-0.008,0.243-0.014C448.514,403.115,448.433,403.117,448.352,403.123z"/>
<path fill="#F8D8B2" d="M452.382,403.428c0.26,0.053,0.518,0.11,0.775,0.18C452.899,403.538,452.642,403.483,452.382,403.428z"/>
<path fill="#F8D8B2" d="M453.958,403.851c0.179,0.059,0.356,0.114,0.534,0.181C454.314,403.965,454.137,403.912,453.958,403.851z"/>
<path fill="#F8D8B2" d="M455.481,404.452c0.11,0.046,0.221,0.091,0.325,0.144C455.702,404.543,455.592,404.501,455.481,404.452z"/>
<path fill="#F8D8B2" d="M456.966,405.231c0.04,0.025,0.082,0.048,0.122,0.072C457.048,405.279,457.006,405.257,456.966,405.231z"/>
<path fill="#F8D8B2" d="M450.761,403.176c0.356,0.033,0.712,0.083,1.064,0.141C451.473,403.256,451.117,403.212,450.761,403.176z"/>
<path fill-rule="evenodd" clip-rule="evenodd" fill="#FFD7B7" d="M402.013,267.192l56.6,129.247
	c4.519-23.406,40.2-26.99,53.112-4.906c1.335-24.624,34.64-30.757,50.247-13.02c4.966-22.493,40.769-24.667,51.348-0.743
	l48.441,109.557c13.601,30.762,14.454,77.692,8.27,99.189c-18.326,63.723-102.553,65.74-132.203,46.157
	c-23.118-15.268-41.301-23.59-48.809-39.957L350.212,289.285C332.62,250.94,388.405,235.289,402.013,267.192z"/>
<path fill-rule="evenodd" clip-rule="evenodd" fill="#DEB99B" d="M580.56,416.155c0,0-9.178-21.917-17.415-41.348
	c-0.483,1.165-0.885,2.399-1.173,3.705c-1.372-1.556-2.88-2.929-4.489-4.119C567.758,393.322,580.56,416.155,580.56,416.155
	L580.56,416.155z M458.757,395.773c0.462-2.067,1.163-3.978,2.081-5.72c9.158,21.808,23.969,59.438,23.969,59.438
	s-18.892-37.038-26.194-53.053C458.727,396.687,458.764,396.401,458.757,395.773L458.757,395.773z M504.854,383.549
	c2.655,2.138,5.004,4.792,6.87,7.983c0.086-1.638,0.321-3.191,0.681-4.663c9.304,21.424,20.722,48.014,20.722,48.014
	S515.358,403.386,504.854,383.549z"/>
<path fill-rule="evenodd" clip-rule="evenodd" fill="#FFF2E8" d="M394.961,268.521l4.825,11.097
	c-8.782,15.752-22.197,20.972-39.481,17.393l-4.812-10.52C342.465,257.835,384.951,244.656,394.961,268.521z"/>
</svg>
