<?xml version="1.0" encoding="utf-8"?>
<!-- Generator: Adobe Illustrator 15.0.0, SVG Export Plug-In . SVG Version: 6.00 Build 0)  -->
<!DOCTYPE svg PUBLIC "-//W3C//DTD SVG 1.1//EN" "http://www.w3.org/Graphics/SVG/1.1/DTD/svg11.dtd">
<svg version="1.1" id="Layer_1" xmlns="http://www.w3.org/2000/svg" xmlns:xlink="http://www.w3.org/1999/xlink" x="0px" y="0px"
	 width="320px" height="320px" viewBox="0 0 320 320" enable-background="new 0 0 320 320" xml:space="preserve">
<circle fill="#86ABE0" cx="157.619" cy="159.619" r="146.119"/>
<path fill="#34495E" d="M227.255,202.587l7.831-14.689l-8.787-9.407c1.141-3.61,1.972-7.241,2.521-10.916l12.059-4.562l-0.56-16.601
	l-12.322-3.752l-0.015,0.068c-0.391-1.855-0.856-3.69-1.422-5.493c-0.533-1.812-1.181-3.609-1.872-5.367l0.047,0.056l8.149-9.973
	l-8.775-14.12l-12.574,2.923c-2.47-2.746-5.19-5.29-8.162-7.662l2.07-12.718l-14.67-7.833l-9.408,8.795
	c-3.617-1.144-7.257-1.979-10.938-2.532l-4.542-12.051L149.267,77.3l-3.745,12.317c-1.804,0.432-3.646,0.89-5.418,1.444
	c-1.818,0.537-3.616,1.183-5.37,1.882l0.046-0.06l-9.966-8.153l-14.111,8.779l2.905,12.554c-2.721,2.519-5.297,5.208-7.658,8.19
	l-12.713-2.074l-7.831,14.67l8.793,9.407c-1.162,3.631-1.974,7.266-2.538,10.913l-12.044,4.57l0.546,16.62l12.32,3.739
	c0.432,1.817,0.889,3.652,1.454,5.438c0.536,1.812,1.171,3.6,1.845,5.353l-8.188,9.922l8.785,14.126l12.536-2.915
	c2.524,2.731,5.248,5.277,8.209,7.642l-2.081,12.713l14.674,7.849l9.417-8.815c3.604,1.141,7.255,1.992,10.916,2.532l4.559,12.065
	l16.618-0.556l3.744-12.32l-0.067-0.01c1.842-0.409,3.688-0.854,5.505-1.436c1.772-0.511,3.567-1.171,5.305-1.815l9.965,8.148
	l14.115-8.784l-2.914-12.576c2.737-2.472,5.296-5.191,7.658-8.165L227.255,202.587z M136.013,202.774
	c-25.074-13.379-34.548-44.559-21.16-69.633c13.379-25.065,44.56-34.541,69.637-21.149c25.055,13.378,34.532,44.563,21.155,69.623
	C192.256,206.683,161.076,216.156,136.013,202.774z"/>
<polygon fill="#CEE2F2" points="110.936,217.334 141.012,233.382 192.961,136.058 162.889,120.017 "/>
<g>
	<path fill="#F2F9FF" d="M231.349,69.688l-19.857,37.209l-22.68,0.754l-11.993-19.261l19.859-37.214
		c-15.368-0.155-30.323,8.035-38.064,22.538c-11.089,20.771-3.242,46.594,17.529,57.684c20.756,11.064,46.579,3.217,57.667-17.523
		C241.542,99.349,240.045,82.396,231.349,69.688z"/>
	<path fill="#F2F9FF" d="M129.602,218.555c-14.532-7.777-32.497-2.454-40.139,11.857c-7.64,14.289-2.053,32.18,12.488,39.945
		c14.538,7.752,32.502,2.438,40.138-11.873C149.724,244.192,144.132,226.317,129.602,218.555z M129.734,261.436l-8.97-0.582
		l-7.129,5.474l-5.936-6.748l-8.908-1.18l0.585-8.956l-5.464-7.132l6.736-5.939l1.177-8.907l8.971,0.584l7.129-5.477l5.92,6.75
		l8.912,1.185l-0.572,8.965l5.46,7.12l-6.748,5.937L129.734,261.436z"/>
</g>
</svg>
