<?xml version="1.0" encoding="utf-8"?>
<!-- Generator: Adobe Illustrator 15.0.0, SVG Export Plug-In . SVG Version: 6.00 Build 0)  -->
<!DOCTYPE svg PUBLIC "-//W3C//DTD SVG 1.1//EN" "http://www.w3.org/Graphics/SVG/1.1/DTD/svg11.dtd">
<svg version="1.1" id="Layer_1" xmlns="http://www.w3.org/2000/svg" xmlns:xlink="http://www.w3.org/1999/xlink" x="0px" y="0px"
	 width="320px" height="320px" viewBox="0 0 320 320" enable-background="new 0 0 320 320" xml:space="preserve">
<circle fill="#E5D7B7" cx="158.916" cy="158.614" r="148.04"/>
<rect x="188.304" y="194.451" transform="matrix(0.7071 -0.7071 0.7071 0.7071 -83.8273 202.8712)" fill="#646B79" width="29.371" height="16.359"/>
<circle fill="#4F5565" cx="126.982" cy="126.679" r="102.899"/>
<circle fill="#BFBFBF" cx="126.982" cy="126.679" r="88.902"/>
<circle fill="#D6C6A5" cx="126.982" cy="126.679" r="78.849"/>
<g>
	<path fill="#4F5565" d="M250.577,285.364l5.915,6.9c1.576,1.773,4.336,1.971,6.109,0.195l29.964-29.963
		c1.773-1.773,1.576-4.533-0.198-6.11l-6.899-5.913L250.577,285.364z"/>
	<path fill="#4F5565" d="M225.346,197.25c-1.577-1.381-4.14-1.381-5.718,0.195l-21.881,21.881c-1.576,1.578-1.576,3.942-0.195,5.718
		l1.971,2.168l27.991-27.991L225.346,197.25z"/>
</g>
<polygon fill="#1B3344" points="199.522,227.212 250.577,285.364 285.666,250.275 227.514,199.221 "/>
<rect x="69.619" y="163.147" fill="#646B79" width="114.529" height="7.097"/>
<rect x="77.701" y="127.271" fill="#E2AC33" width="17.543" height="29.568"/>
<rect x="104.706" y="94.745" fill="#4485C5" width="17.544" height="62.291"/>
<rect x="131.712" y="116.823" fill="#EF8C29" width="17.543" height="40.016"/>
<rect x="158.718" y="76.609" fill="#F0582F" width="17.544" height="80.229"/>
</svg>
