<?xml version="1.0" encoding="utf-8"?>
<!-- Generator: Adobe Illustrator 15.0.0, SVG Export Plug-In . SVG Version: 6.00 Build 0)  -->
<!DOCTYPE svg PUBLIC "-//W3C//DTD SVG 1.1//EN" "http://www.w3.org/Graphics/SVG/1.1/DTD/svg11.dtd">
<svg version="1.1" id="Layer_1" xmlns="http://www.w3.org/2000/svg" xmlns:xlink="http://www.w3.org/1999/xlink" x="0px" y="0px"
	 width="320px" height="320px" viewBox="0 0 320 320" enable-background="new 0 0 320 320" xml:space="preserve">
<circle fill="#86ABE0" cx="158.619" cy="150.619" r="118.119"/>
<path fill="#34495E" d="M214.911,185.354l6.33-11.874l-7.103-7.604c0.922-2.918,1.595-5.854,2.037-8.824l9.748-3.687l-0.452-13.421
	l-9.961-3.033l-0.012,0.056c-0.317-1.5-0.693-2.983-1.149-4.441c-0.432-1.465-0.956-2.917-1.515-4.338l0.038,0.045l6.589-8.062
	l-7.094-11.415l-10.164,2.363c-1.997-2.22-4.196-4.276-6.599-6.194l1.674-10.281l-11.859-6.333l-7.604,7.11
	c-2.925-0.925-5.867-1.6-8.842-2.046l-3.672-9.742l-13.434,0.442l-3.027,9.957c-1.459,0.349-2.948,0.719-4.38,1.167
	c-1.47,0.434-2.923,0.956-4.341,1.521l0.037-0.049l-8.056-6.59l-11.407,7.097l2.348,10.148c-2.199,2.036-4.282,4.21-6.19,6.621
	l-10.277-1.677l-6.33,11.858l7.108,7.604c-0.94,2.936-1.596,5.875-2.052,8.822l-9.736,3.695l0.441,13.435l9.959,3.021
	c0.349,1.47,0.719,2.954,1.176,4.396c0.434,1.465,0.947,2.91,1.491,4.327l-6.619,8.021l7.101,11.42l10.134-2.357
	c2.041,2.208,4.242,4.267,6.636,6.178l-1.682,10.277l11.862,6.345l7.613-7.126c2.913,0.923,5.865,1.609,8.824,2.047l3.686,9.752
	l13.434-0.447l3.026-9.961l-0.054-0.008c1.489-0.331,2.98-0.69,4.449-1.161c1.433-0.413,2.884-0.945,4.288-1.466l8.057,6.587
	l11.409-7.103l-2.356-10.165c2.214-1.998,4.282-4.196,6.191-6.601L214.911,185.354z M141.153,185.504
	c-20.27-10.815-27.928-36.02-17.105-56.289c10.815-20.261,36.021-27.922,56.292-17.096c20.254,10.814,27.914,36.023,17.102,56.282
	C186.618,188.664,161.414,196.322,141.153,185.504z"/>
<polygon fill="#CEE2F2" points="120.882,197.275 145.195,210.247 187.188,131.573 162.88,118.606 "/>
<g>
	<path fill="#F2F9FF" d="M218.221,77.922L202.168,108l-18.333,0.609l-9.696-15.57l16.054-30.083
		c-12.422-0.125-24.511,6.496-30.769,18.22c-8.964,16.791-2.621,37.665,14.168,46.63c16.78,8.944,37.654,2.601,46.619-14.165
		C226.461,101.899,225.25,88.194,218.221,77.922z"/>
	<path fill="#F2F9FF" d="M135.971,198.262c-11.748-6.287-26.269-1.983-32.448,9.586c-6.175,11.552-1.659,26.012,10.096,32.29
		c11.752,6.266,26.274,1.97,32.447-9.598C152.237,218.986,147.716,204.536,135.971,198.262z M136.077,232.926l-7.25-0.472
		l-5.763,4.425l-4.799-5.454l-7.201-0.954l0.473-7.242l-4.416-5.764l5.445-4.802l0.951-7.199l7.251,0.471l5.763-4.427l4.786,5.457
		l7.204,0.958l-0.462,7.246l4.414,5.757l-5.455,4.8L136.077,232.926z"/>
</g>
</svg>
