<?xml version="1.0" encoding="utf-8"?>
<!-- Generator: Adobe Illustrator 15.0.0, SVG Export Plug-In . SVG Version: 6.00 Build 0)  -->
<!DOCTYPE svg PUBLIC "-//W3C//DTD SVG 1.1//EN" "http://www.w3.org/Graphics/SVG/1.1/DTD/svg11.dtd">
<svg version="1.1" id="Layer_1" xmlns="http://www.w3.org/2000/svg" xmlns:xlink="http://www.w3.org/1999/xlink" x="0px" y="0px"
	 width="320px" height="320px" viewBox="0 0 320 320" enable-background="new 0 0 320 320" xml:space="preserve">
<circle fill="#F4D98E" cx="158.945" cy="158.945" r="153.945"/>
<path fill="#FFFFFF" d="M222.929,158.945c0.481-3.608,0.722-7.457,0.722-11.306v-58.21c0,0-60.856-14.433-74.567-26.7v96.215
	L222.929,158.945L222.929,158.945z"/>
<path fill="#324A5E" d="M149.323,62.729c-13.47,12.267-74.567,26.7-74.567,26.7v58.21c0,3.849,0.241,7.457,0.722,11.306h73.846
	L149.323,62.729L149.323,62.729z"/>
<path fill="#FFFFFF" d="M75.478,158.945c3.127,22.61,14.913,44.019,34.638,61.338l39.208,34.878v-96.216H75.478z"/>
<path fill="#324A5E" d="M169.529,218.358c0-20.445,16.597-36.803,36.802-36.803c3.368,0,6.734,0.481,9.862,1.443
	c3.367-7.697,5.773-15.876,6.735-24.054h-73.605v96.215l23.813-21.167C170.731,229.183,169.529,223.891,169.529,218.358z"/>
<circle fill="#FF7058" cx="201.52" cy="213.547" r="41.613"/>
<circle fill="#F1543F" cx="201.52" cy="213.547" r="34.156"/>
<path fill="#FFFFFF" d="M187.088,234.475l-11.064-20.206l7.217-4.088l5.772,10.342c6.976-6.494,21.889-18.521,35.599-20.205
	l0.963,8.178c-15.395,1.926-34.397,21.408-34.638,21.649L187.088,234.475z"/>
</svg>
