<?xml version="1.0" encoding="utf-8"?>
<!-- Generator: Adobe Illustrator 15.0.0, SVG Export Plug-In . SVG Version: 6.00 Build 0)  -->
<!DOCTYPE svg PUBLIC "-//W3C//DTD SVG 1.1//EN" "http://www.w3.org/Graphics/SVG/1.1/DTD/svg11.dtd">
<svg version="1.1" xmlns="http://www.w3.org/2000/svg" xmlns:xlink="http://www.w3.org/1999/xlink" x="0px" y="0px" width="400px"
	 height="600px" viewBox="0 0 400 600" enable-background="new 0 0 400 600" xml:space="preserve">
<g id="Layer_1">
	<path fill="#556080" d="M274.709,161.538H51.656c-8.749,0-15.847-7.098-15.847-15.847V93.933c0-8.749,7.098-15.847,15.847-15.847
		h223.047c8.754,0,15.852,7.098,15.852,15.847v51.753C290.555,154.44,283.457,161.538,274.709,161.538z"/>
	<path fill="#424A60" d="M274.709,244.989H51.656c-8.749,0-15.847-7.098-15.847-15.847v-51.757c0-8.75,7.098-15.847,15.847-15.847
		h223.047c8.754,0,15.848,7.098,15.848,15.847v51.753C290.555,237.892,283.457,244.989,274.709,244.989z"/>
	<path fill="#556080" d="M274.709,328.44H51.656c-8.749,0-15.847-7.098-15.847-15.847v-51.758c0-8.749,7.098-15.847,15.847-15.847
		h223.047c8.754,0,15.848,7.098,15.848,15.847v51.753C290.555,321.343,283.457,328.44,274.709,328.44z"/>
	<circle fill="#7383BF" cx="77.535" cy="119.812" r="15.373"/>
	<circle fill="#7383BF" cx="251.025" cy="113.224" r="4.392"/>
	<circle fill="#7383BF" cx="233.457" cy="113.224" r="4.392"/>
	<circle fill="#7383BF" cx="259.811" cy="126.4" r="4.392"/>
	<circle fill="#7383BF" cx="242.242" cy="126.4" r="4.392"/>
	<circle fill="#7383BF" cx="215.889" cy="113.224" r="4.392"/>
	<circle fill="#7383BF" cx="224.672" cy="126.4" r="4.392"/>
	<circle fill="#7383BF" cx="198.319" cy="113.224" r="4.392"/>
	<circle fill="#7383BF" cx="207.104" cy="126.4" r="4.392"/>
	<circle fill="#7383BF" cx="180.75" cy="113.224" r="4.392"/>
	<circle fill="#7383BF" cx="189.535" cy="126.4" r="4.392"/>
	<circle fill="#7383BF" cx="77.535" cy="203.263" r="15.372"/>
	<circle fill="#7383BF" cx="251.025" cy="196.675" r="4.392"/>
	<circle fill="#7383BF" cx="233.457" cy="196.675" r="4.392"/>
	<circle fill="#7383BF" cx="259.811" cy="209.852" r="4.392"/>
	<circle fill="#7383BF" cx="242.242" cy="209.852" r="4.392"/>
	<circle fill="#7383BF" cx="215.889" cy="196.675" r="4.392"/>
	<circle fill="#7383BF" cx="224.672" cy="209.852" r="4.392"/>
	<circle fill="#7383BF" cx="198.319" cy="196.675" r="4.392"/>
	<circle fill="#7383BF" cx="207.104" cy="209.852" r="4.392"/>
	<circle fill="#7383BF" cx="180.75" cy="196.675" r="4.392"/>
	<circle fill="#7383BF" cx="189.535" cy="209.852" r="4.392"/>
	<circle fill="#7383BF" cx="77.535" cy="286.715" r="15.373"/>
	<circle fill="#7383BF" cx="251.025" cy="280.126" r="4.392"/>
	<circle fill="#7383BF" cx="233.457" cy="280.126" r="4.392"/>
	<circle fill="#7383BF" cx="259.811" cy="293.303" r="4.392"/>
	<circle fill="#7383BF" cx="242.242" cy="293.303" r="4.392"/>
	<circle fill="#7383BF" cx="215.889" cy="280.126" r="4.392"/>
	<circle fill="#7383BF" cx="224.672" cy="293.303" r="4.392"/>
	<circle fill="#7383BF" cx="198.319" cy="280.126" r="4.392"/>
	<circle fill="#7383BF" cx="207.104" cy="293.303" r="4.392"/>
	<circle fill="#7383BF" cx="180.75" cy="280.126" r="4.392"/>
	<circle fill="#7383BF" cx="189.535" cy="293.303" r="4.392"/>
</g>
<g id="Layer_4">
	<path fill="#424A60" d="M390.253,226.62L390.253,226.62c-2.541-16.083-38.84-28.836-83.269-28.836
		c-44.428,0-80.727,12.753-83.268,28.836l0,0h-0.156v1.802v41.452v1.802v1.802v39.65v1.802v1.803v43.254h0.156
		c2.541,16.08,38.845,28.836,83.268,28.836c44.425,0,80.728-12.756,83.269-28.836h0.156v-43.254v-1.803v-1.802v-39.65v-1.802v-1.802
		v-41.452v-1.802H390.253z"/>
	<g>
		<path fill="#424A60" d="M306.984,345.567c-46.074,0-83.424-13.718-83.424-30.638v45.057h0.156
			c2.541,16.08,38.845,28.836,83.268,28.836c44.425,0,80.728-12.756,83.269-28.836h0.156V314.93
			C390.409,331.85,353.06,345.567,306.984,345.567z"/>
		<path fill="#424A60" d="M223.561,313.128v1.802c0-0.605,0.062-1.204,0.156-1.802H223.561z"/>
		<path fill="#424A60" d="M390.253,313.128c0.094,0.598,0.156,1.196,0.156,1.802v-1.802H390.253z"/>
	</g>
	<g>
		<path fill="#556080" d="M306.984,302.314c-46.074,0-83.424-13.719-83.424-30.639v45.057h0.156
			c2.541,16.079,38.845,28.835,83.268,28.835c44.425,0,80.728-12.756,83.269-28.835h0.156v-45.057
			C390.409,288.596,353.06,302.314,306.984,302.314z"/>
		<path fill="#556080" d="M223.561,269.874v1.802c0-0.605,0.062-1.204,0.156-1.802H223.561z"/>
		<path fill="#556080" d="M390.253,269.874c0.094,0.599,0.156,1.197,0.156,1.802v-1.802H390.253z"/>
	</g>
	<ellipse fill="#7FABDA" cx="306.984" cy="228.422" rx="83.425" ry="30.638"/>
	<g>
		<path fill="#7383BF" d="M306.984,259.06c-46.074,0-83.424-13.719-83.424-30.639v45.056h0.156
			c2.541,16.08,38.845,28.837,83.268,28.837c44.425,0,80.728-12.757,83.269-28.837h0.156v-45.056
			C390.409,245.341,353.06,259.06,306.984,259.06z"/>
		<path fill="#7383BF" d="M223.561,226.62v1.802c0-0.605,0.062-1.204,0.156-1.802H223.561z"/>
		<path fill="#7383BF" d="M390.253,226.62c0.094,0.598,0.156,1.196,0.156,1.802v-1.802H390.253z"/>
	</g>
</g>
<g id="Layer_2">
	
		<rect x="76.717" y="319.722" transform="matrix(1 -0.0053 0.0053 1 -1.9996 1.0139)" fill="#B58931" width="229.949" height="121.609"/>
	<path fill="#C1DCF4" d="M112.724,330.411c12.797-7.368,33.073-15.269,50.411-6.053c15.185,8.07,20.131,22.008,24.105,26.228
		c14.292-28.25,52.164-28.329,71.255-20.192c26.861,11.45,31.533,33.544,31.871,60.286c26.319-9.899,53.09,12.643,53.967,41.154
		c1.01,32.797-29.268,63.073-71.742,47.027c-3.703,22.747-9.497,42.285-43.054,51.417c-24.313,6.615-50.45-10.552-54.24-29.012
		c-10.025,21.297-31.943,36.491-56.24,27.972c-21.161-7.418-38.567-35.547-28.938-57.413c-10.748,3.231-26.418,0.43-36.487-5.176
		c-15.477-8.612-21.896-28.525-17.629-45.414c6.426-25.428,33.153-27.019,54.52-20.181
		C80.306,376.807,88.781,344.195,112.724,330.411"/>
	
		<rect x="76.876" y="380.386" transform="matrix(1 -0.0053 0.0053 1 -2.1592 1.0152)" fill="#D1A139" width="229.949" height="60.945"/>
	<polygon fill="#EABA42" points="76.398,320.328 191.691,380.528 77.039,441.936 	"/>
	<polygon fill="#EABA42" points="306.345,319.117 191.691,380.526 306.985,440.726 	"/>
	<polygon fill="#BA8E36" points="76.398,320.328 190.967,243.098 306.345,319.119 	"/>
	<g>
		<defs>
			<rect id="SVGID_1_" x="87.12" y="219.565" width="207.631" height="199.03"/>
		</defs>
		<clipPath id="SVGID_2_">
			<use xlink:href="#SVGID_1_"  overflow="visible"/>
		</clipPath>
		<polygon clip-path="url(#SVGID_2_)" fill="#EFEFEF" points="97.23,331.125 96.95,212.366 281.009,211.153 281.179,332.559 
			191.691,380.528 		"/>
		<path clip-path="url(#SVGID_2_)" fill="#CECECE" d="M255.9,317.826l-129.004,0.68c-2.267,0.013-4.131-1.833-4.143-4.1v-0.002
			c-0.013-2.267,1.832-4.131,4.1-4.143l129.004-0.681c2.268-0.011,4.133,1.835,4.144,4.102
			C260.014,315.949,258.166,317.814,255.9,317.826"/>
		<path clip-path="url(#SVGID_2_)" fill="#CECECE" d="M255.991,334.857l-129.004,0.679c-2.268,0.013-4.133-1.832-4.144-4.098v-0.003
			c-0.013-2.267,1.832-4.13,4.1-4.145l129.005-0.679c2.267-0.012,4.133,1.834,4.144,4.101
			C260.104,332.979,258.258,334.845,255.991,334.857"/>
		<path clip-path="url(#SVGID_2_)" fill="#CECECE" d="M255.9,283.409l-129.004,0.68c-2.267,0.013-4.131-1.833-4.143-4.1v-0.001
			c-0.013-2.266,1.832-4.13,4.1-4.144l129.004-0.68c2.268-0.012,4.133,1.833,4.144,4.101
			C260.014,281.534,258.166,283.397,255.9,283.409"/>
		<path clip-path="url(#SVGID_2_)" fill="#CECECE" d="M255.991,300.44l-129.004,0.681c-2.268,0.011-4.133-1.832-4.144-4.1v-0.001
			c-0.013-2.267,1.832-4.131,4.1-4.144l129.005-0.679c2.267-0.013,4.133,1.833,4.144,4.1
			C260.104,298.563,258.258,300.429,255.991,300.44"/>
		<path clip-path="url(#SVGID_2_)" fill="#CECECE" d="M255.9,248.993l-129.004,0.679c-2.267,0.013-4.131-1.832-4.143-4.099v-0.001
			c-0.013-2.267,1.832-4.13,4.1-4.144l129.004-0.68c2.268-0.012,4.133,1.833,4.144,4.1
			C260.014,247.117,258.166,248.981,255.9,248.993"/>
		<path clip-path="url(#SVGID_2_)" fill="#CECECE" d="M255.991,266.025l-129.004,0.679c-2.268,0.012-4.133-1.832-4.144-4.099v-0.001
			c-0.013-2.267,1.832-4.131,4.1-4.145l129.005-0.678c2.267-0.013,4.133,1.833,4.144,4.1
			C260.104,264.146,258.258,266.012,255.991,266.025"/>
	</g>
	<path fill="#1B61AF" d="M337.335,216.353l24.761,10.986l-59.479,22.731l-23.053-59.354l24.76,10.987c0,0,24.993-32.532-5.79-75.991
		c0,0,34.68,7.96,45.479,46.033C344.01,171.745,350.2,189.564,337.335,216.353z"/>
	<path fill="#1B61AF" d="M23.07,356.631l-18.705-5.485l40.268-21.862l22.078,40.148l-18.703-5.485c0,0-14.739,25.577,11.344,53.654
		c0,0-25.493-2.385-36.811-28.518C22.543,389.084,16.436,376.96,23.07,356.631z"/>
</g>
</svg>
