<?xml version="1.0" encoding="utf-8"?>
<!-- Generator: Adobe Illustrator 15.0.0, SVG Export Plug-In . SVG Version: 6.00 Build 0)  -->
<!DOCTYPE svg PUBLIC "-//W3C//DTD SVG 1.1//EN" "http://www.w3.org/Graphics/SVG/1.1/DTD/svg11.dtd">
<svg version="1.1" id="Layer_1" xmlns="http://www.w3.org/2000/svg" xmlns:xlink="http://www.w3.org/1999/xlink" x="0px" y="0px"
	 width="512px" height="512px" viewBox="0 0 512 512" enable-background="new 0 0 512 512" xml:space="preserve">
<g id="Layer_2" display="none">
	<g display="inline">
		<path fill="#263740" d="M139.124,405.228c-3.712-2.41-4.756-7.362-2.352-11.07l37.036-57.028c2.408-3.708,7.36-4.76,11.068-2.355
			c3.704,2.412,4.756,7.365,2.352,11.071l-37.036,57.032C147.784,406.58,142.832,407.632,139.124,405.228z"/>
		<path fill="#263740" d="M360.876,405.228c3.712-2.41,4.756-7.362,2.352-11.07l-37.034-57.028c-2.408-3.708-7.36-4.76-11.068-2.355
			c-3.704,2.412-4.756,7.365-2.352,11.071l37.034,57.032C352.216,406.58,357.168,407.632,360.876,405.228z"/>
	</g>
	<path display="inline" fill="#242424" d="M246,188c-4.416,0-8-3.584-8-8v-68c0-4.416,3.584-8,8-8s8,3.584,8,8v68
		C254,184.42,250.416,188,246,188z"/>
	<path display="inline" fill="#2D4452" d="M422,136c0,8.836-7.164,16-16,16H90c-8.836,0-16-7.164-16-16l0,0c0-8.836,7.164-16,16-16
		h316C414.836,120,422,127.164,422,136L422,136z"/>
	<path display="inline" fill="#EADFCE" d="M406,152v184c0,8.8-7.2,16-16,16H106c-8.8,0-16-7.2-16-16V152H406z"/>
	<g display="inline">
		<path fill="#CC584C" d="M226,232c-1.024,0-2.048-0.392-2.828-1.172c-1.564-1.564-1.564-4.092,0-5.656l20-20
			c1.564-1.564,4.092-1.564,5.656,0s1.564,4.092,0,5.656l-20,20C228.048,231.608,227.024,232,226,232z"/>
		<path fill="#CC584C" d="M246,232c-1.024,0-2.048-0.392-2.828-1.172l-20-20c-1.564-1.564-1.564-4.092,0-5.656s4.092-1.564,5.656,0
			l20,20c1.564,1.564,1.564,4.092,0,5.656C248.048,231.608,247.024,232,246,232z"/>
		<path fill="#CC584C" d="M246,328c-1.024,0-2.048-0.393-2.828-1.172c-1.564-1.564-1.564-4.092,0-5.656l20-20
			c1.564-1.564,4.092-1.564,5.656,0s1.564,4.092,0,5.656l-20,20C248.048,327.607,247.024,328,246,328z"/>
		<path fill="#CC584C" d="M266,328c-1.023,0-2.048-0.393-2.828-1.172l-20-20c-1.564-1.564-1.564-4.092,0-5.656s4.092-1.564,5.656,0
			l20,20c1.564,1.564,1.564,4.092,0,5.656C268.048,327.607,267.023,328,266,328z"/>
		<path fill="#CC584C" d="M278,284c-1.023,0-2.048-0.393-2.828-1.172c-1.564-1.564-1.564-4.092,0-5.656l20-20
			c1.564-1.564,4.092-1.564,5.656,0c1.562,1.564,1.562,4.092,0,5.656l-20,20C280.048,283.607,279.023,284,278,284z"/>
		<path fill="#CC584C" d="M298,284c-1.023,0-2.048-0.393-2.828-1.172l-20-20c-1.564-1.564-1.564-4.092,0-5.656
			c1.564-1.564,4.092-1.564,5.656,0l20,20c1.562,1.564,1.562,4.092,0,5.656C300.048,283.607,299.023,284,298,284z"/>
	</g>
	<g display="inline">
		<path fill="#406A80" d="M294,204c-8.824,0-16-7.176-16-16s7.176-16,16-16s16,7.176,16,16S302.824,204,294,204z M294,180
			c-4.412,0-8,3.588-8,8s3.588,8,8,8s8-3.588,8-8S298.412,180,294,180z"/>
		<path fill="#406A80" d="M210,320c-8.824,0-16-7.176-16-16s7.176-16,16-16s16,7.176,16,16S218.824,320,210,320z M210,296
			c-4.412,0-8,3.584-8,8s3.588,8,8,8s8-3.584,8-8S214.412,296,210,296z"/>
		<path fill="#406A80" d="M210,280c-2.212,0-4-1.792-4-4c0-22.443,26.144-27.352,49.212-31.676C273.1,240.972,290,237.804,290,228
			v-8c0-2.208,1.788-4,4-4s4,1.792,4,4v8c0,16.44-21.004,20.38-41.316,24.188C231.692,256.872,214,261.324,214,276
			C214,278.208,212.212,280,210,280z"/>
		<path fill="#406A80" d="M306,228c-1.023,0-2.048-0.392-2.828-1.172L294,217.656l-9.172,9.172c-1.564,1.564-4.092,1.564-5.656,0
			s-1.564-4.092,0-5.656l12-12c1.564-1.564,4.092-1.564,5.656,0l12,12c1.562,1.564,1.562,4.092,0,5.656
			C308.048,227.608,307.024,228,306,228z"/>
	</g>
	<rect x="90" y="152" display="inline" fill="#B3B3B3" width="316" height="4"/>
</g>
<g id="Layer_3">
	<g>
		<path fill="#768989" d="M149.027,362.561c0,3.707-3.006,6.712-6.725,6.712h-29.129c-3.706,0-6.723-3.012-6.723-6.712v-15.688
			c0-3.715,3.024-6.724,6.723-6.724h29.13c3.723,0,6.724,3.012,6.724,6.724V362.561L149.027,362.561z"/>
		<path fill="#768989" d="M405.599,362.561c0,3.707-3.012,6.712-6.723,6.712h-29.13c-3.707,0-6.725-3.012-6.725-6.712v-15.688
			c0-3.715,3.024-6.724,6.725-6.724h29.13c3.714,0,6.723,3.012,6.723,6.724V362.561L405.599,362.561z"/>
	</g>
	<path fill="#C17E52" d="M260.494,306.123c0,3.014-2.442,5.458-5.457,5.458H164.69c-3.025,0-5.457-2.444-5.457-5.458v-90.349
		c0-3.013,2.437-5.457,5.457-5.457h90.347c3.014,0,5.457,2.442,5.457,5.457V306.123z"/>
	<path fill="#A86743" d="M159.235,215.774c0-3.013,2.437-5.457,5.456-5.457h90.349c3.012,0,5.455,2.442,5.455,5.457v90.349
		c0,3.013-2.44,5.456-5.455,5.456"/>
	<path fill="#C17E52" d="M376.825,306.123c0,3.014-2.443,5.458-5.456,5.458h-90.35c-3.023,0-5.456-2.444-5.456-5.458v-90.349
		c0-3.013,2.437-5.457,5.456-5.457h90.35c3.012,0,5.456,2.442,5.456,5.457V306.123z"/>
	<path fill="#A86743" d="M275.565,215.774c0-3.013,2.437-5.457,5.456-5.457h90.349c3.012,0,5.456,2.442,5.456,5.457v90.349
		c0,3.013-2.443,5.456-5.456,5.456"/>
	<path fill="#C17E52" d="M314.786,191.735c0,3.013-2.443,5.457-5.457,5.457H218.98c-3.024,0-5.461-2.443-5.461-5.457v-90.348
		c0-3.024,2.443-5.461,5.461-5.461h90.349c3.013,0,5.457,2.443,5.457,5.461V191.735z"/>
	<path fill="#A86743" d="M213.52,101.387c0-3.024,2.443-5.461,5.461-5.461h90.349c3.013,0,5.457,2.443,5.457,5.461v90.348
		c0,3.013-2.443,5.457-5.457,5.457"/>
	<path fill="#FF7F00" d="M118.49,136.239c-5.566,0-10.074,4.509-10.074,10.074v162.466c0,5.566,4.508,10.074,10.074,10.074
		c5.567,0,10.086-4.508,10.086-10.074V146.32C128.576,140.748,124.057,136.239,118.49,136.239z"/>
	<g>
		<path fill="#E56505" d="M66.595,94.186c-3.932,3.926-3.932,10.313,0.012,14.245l44.758,44.771c3.944,3.932,10.313,3.944,14.256,0
			c3.944-3.944,3.944-10.324,0-14.256L80.863,94.173C76.919,90.243,70.538,90.243,66.595,94.186z"/>
	</g>
	<path fill="#93A4A5" d="M418.483,347.147c0,3.704-3.014,6.723-6.712,6.723H100.291c-3.717,0-6.725-3.023-6.725-6.723v-32.491
		c0-3.717,3.013-6.725,6.725-6.725h311.481c3.705,0,6.712,3.014,6.712,6.725V347.147z"/>
	<path fill="#A9BFBF" d="M411.771,307.932H100.291c-3.717,0-6.725,3.014-6.725,6.725v3.35c0,3.717,3.013,6.726,6.725,6.726h311.481
		c3.705,0,6.712-3.013,6.712-6.726v-3.35C418.483,310.938,415.469,307.932,411.771,307.932z"/>
	<path fill="#FFC41F" d="M169.147,376.91c0,14.447-11.738,26.174-26.186,26.174s-26.175-11.727-26.175-26.174
		c0-14.471,11.727-26.198,26.175-26.198S169.147,362.438,169.147,376.91z"/>
	<path fill="#FFA522" d="M142.961,350.712c14.448,0,26.186,11.727,26.186,26.198c0,14.447-11.738,26.174-26.186,26.174"/>
	<path fill="#1A3D5B" d="M142.961,415.409c-21.231,0-38.5-17.28-38.5-38.499c0-21.242,17.27-38.511,38.5-38.511
		c21.229,0,38.499,17.271,38.499,38.511C181.459,398.129,164.19,415.409,142.961,415.409z M142.961,363.037
		c-7.644,0-13.86,6.223-13.86,13.873c0,7.631,6.211,13.849,13.86,13.849c7.648,0,13.872-6.213,13.872-13.849
		C156.832,369.268,150.603,363.037,142.961,363.037z"/>
	<circle fill="#FFC41F" cx="369.09" cy="376.898" r="26.186"/>
	<path fill="#FFA522" d="M350.581,358.381c10.227-10.217,26.809-10.217,37.023,0c10.236,10.224,10.227,26.807,0,37.031"/>
	<path fill="#1A3D5B" d="M396.328,404.131c-15.019,15.018-39.441,15.018-54.462,0c-15.016-15.018-15.016-39.43,0-54.447
		c15.019-15.03,39.442-15.03,54.462,0C411.334,364.696,411.334,389.112,396.328,404.131z M359.306,367.098
		c-5.42,5.408-5.42,14.197,0,19.607c5.397,5.411,14.187,5.411,19.596,0c5.403-5.409,5.403-14.198,0-19.607
		C373.499,361.7,364.703,361.7,359.306,367.098z"/>
</g>
</svg>
