<?xml version="1.0" encoding="utf-8"?>
<!-- Generator: Adobe Illustrator 15.0.0, SVG Export Plug-In . SVG Version: 6.00 Build 0)  -->
<!DOCTYPE svg PUBLIC "-//W3C//DTD SVG 1.1//EN" "http://www.w3.org/Graphics/SVG/1.1/DTD/svg11.dtd">
<svg version="1.1" id="Layer_1" xmlns="http://www.w3.org/2000/svg" xmlns:xlink="http://www.w3.org/1999/xlink" x="0px" y="0px"
	 width="512px" height="512px" viewBox="0 0 512 512" enable-background="new 0 0 512 512" xml:space="preserve">
<g id="Layer_1_1_" display="none">
	<g display="inline">
		<g>
			<g>
				<path fill="#9E8644" d="M377.515,125.174h-33.591v38.389H104.001v220.728h273.514c13.229,0,23.99-10.764,23.99-23.99V149.167
					C401.506,135.938,390.742,125.174,377.515,125.174z M377.515,374.693H113.598V173.16h230.327v172.744h33.59
					c7.938,0,14.396,6.459,14.396,14.396C391.907,368.236,385.45,374.693,377.515,374.693z M391.907,341.114
					c-4.01-3.017-8.996-4.808-14.395-4.808H353.52V134.771h23.994c7.938,0,14.395,6.459,14.395,14.396L391.907,341.114
					L391.907,341.114z"/>
				<path d="M300.738,259.532H262.35v-19.195h57.582v-28.79h-71.978v-28.791h-38.387v28.791H137.59v28.79h57.581v19.195h-38.387
					v-9.598h-28.792v28.792h9.597v57.58h-9.597V365.1h28.792v-9.601h38.387v9.601h67.179v-9.601h38.387v9.601h28.794v-28.793h-9.6
					v-57.58h9.6v-28.792h-28.794L300.738,259.532L300.738,259.532z M300.738,221.144h9.597v9.597h-9.597V221.144L300.738,221.144z
					 M281.544,221.144h9.597v9.597h-9.597V221.144z M262.352,221.144h9.599v9.597h-9.599V221.144z M137.59,259.532h9.598v9.597
					h-9.598V259.532z M147.188,355.5h-9.598v-9.596h9.598V355.5L147.188,355.5z M195.172,345.904h-38.387v-9.598h-9.597v-23.992
					h38.387v-9.599h-38.387v-23.991h9.597v-9.599h38.387V345.904L195.172,345.904z M219.165,192.354h19.193v19.194h-19.193V192.354
					L219.165,192.354z M156.785,230.741h-9.597v-9.597h9.597V230.741z M175.979,230.741h-9.597v-9.597h9.597V230.741z
					 M195.172,230.741h-9.597v-9.597h9.597V230.741z M252.754,230.741v4.799V355.5h-19.195v-67.177h-9.597V355.5h-19.194V235.54
					v-4.799v-9.597h4.799h38.387h4.8V230.741L252.754,230.741z M319.933,355.5h-9.598v-9.596h9.598V355.5z M310.335,259.532h9.598
					v9.597h-9.598V259.532z M310.335,302.719h-38.387v9.598h38.387v23.99h-9.599v9.598H262.35V269.13h38.387v9.597h9.6
					L310.335,302.719L310.335,302.719z"/>
				<path d="M171.18,134.771c7.936,0,14.395-6.459,14.395-14.395c0-4.958-2.52-9.339-6.344-11.93
					c4.223-7.341,12.067-12.063,20.739-12.063c8.67,0,16.516,4.722,20.739,12.063c-3.824,2.591-6.343,6.972-6.343,11.93
					c0,7.423,5.667,13.479,12.894,14.242c5.49,11.675,17.212,19.347,30.292,19.347c13.081,0,24.806-7.672,30.294-19.347
					c7.228-0.764,12.894-6.819,12.894-14.242c0-7.937-6.46-14.395-14.396-14.395c-7.935,0-14.395,6.458-14.395,14.395
					c0,4.956,2.518,9.337,6.344,11.928c-4.226,7.341-12.067,12.064-20.739,12.064c-8.671,0-16.517-4.723-20.739-12.064
					c3.824-2.591,6.343-6.972,6.343-11.928c0-7.423-5.667-13.48-12.894-14.242c-5.489-11.675-17.212-19.348-30.292-19.348
					c-13.082,0-24.803,7.673-30.293,19.348c-7.227,0.762-12.893,6.818-12.893,14.242
					C156.785,128.312,163.244,134.771,171.18,134.771z M286.343,115.578c2.649,0,4.798,2.149,4.798,4.798
					c0,2.648-2.146,4.797-4.798,4.797c-2.649,0-4.797-2.149-4.797-4.797C281.544,117.728,283.693,115.578,286.343,115.578z
					 M228.761,115.578c2.649,0,4.798,2.149,4.798,4.798c0,2.648-2.149,4.797-4.798,4.797c-2.648,0-4.798-2.149-4.798-4.797
					S226.113,115.578,228.761,115.578z M171.18,115.578c2.648,0,4.798,2.149,4.798,4.798c0,2.648-2.15,4.797-4.798,4.797
					c-2.649,0-4.799-2.149-4.799-4.797S168.531,115.578,171.18,115.578z"/>
			</g>
		</g>
	</g>
</g>
<g id="Layer_2">
	<g>
		<path fill="#263740" d="M146.319,405.215c-3.749-2.435-4.803-7.436-2.375-11.181l37.403-57.594
			c2.432-3.744,7.433-4.807,11.178-2.379c3.741,2.437,4.803,7.438,2.375,11.182l-37.403,57.598
			C155.065,406.581,150.063,407.643,146.319,405.215z"/>
		<path fill="#263740" d="M370.27,405.215c3.749-2.435,4.804-7.436,2.375-11.181l-37.401-57.594
			c-2.432-3.744-7.434-4.807-11.178-2.379c-3.741,2.437-4.804,7.438-2.375,11.182l37.401,57.598
			C361.523,406.581,366.525,407.643,370.27,405.215z"/>
	</g>
	<path fill="#242424" d="M254.254,185.833c-4.459,0-8.079-3.62-8.079-8.079v-68.675c0-4.459,3.62-8.079,8.079-8.079
		c4.46,0,8.08,3.62,8.08,8.079v68.675C262.334,182.217,258.715,185.833,254.254,185.833z"/>
	<path fill="#2D4452" d="M432,133.317c0,8.923-7.235,16.159-16.158,16.159H96.708c-8.923,0-16.159-7.235-16.159-16.159l0,0
		c0-8.924,7.235-16.159,16.159-16.159h319.134C424.765,117.159,432,124.394,432,133.317L432,133.317z"/>
	<path fill="#EADFCE" d="M415.842,149.476v185.825c0,8.887-7.272,16.158-16.159,16.158H112.866c-8.887,0-16.159-7.271-16.159-16.158
		V149.476H415.842z"/>
	<g>
		<path fill="#CC584C" d="M234.056,230.27c-1.034,0-2.068-0.396-2.856-1.184c-1.58-1.58-1.58-4.133,0-5.712l20.198-20.198
			c1.58-1.58,4.133-1.58,5.713,0c1.579,1.58,1.579,4.133,0,5.712l-20.199,20.198C236.125,229.874,235.09,230.27,234.056,230.27z"/>
		<path fill="#CC584C" d="M254.254,230.27c-1.034,0-2.068-0.396-2.856-1.184L231.2,208.888c-1.58-1.58-1.58-4.133,0-5.712
			s4.133-1.58,5.712,0l20.199,20.198c1.579,1.58,1.579,4.133,0,5.712C256.323,229.874,255.289,230.27,254.254,230.27z"/>
		<path fill="#CC584C" d="M254.254,327.222c-1.034,0-2.068-0.396-2.856-1.184c-1.58-1.58-1.58-4.133,0-5.713l20.198-20.198
			c1.58-1.58,4.133-1.58,5.713,0c1.579,1.58,1.579,4.133,0,5.713l-20.198,20.198C256.323,326.825,255.289,327.222,254.254,327.222z"
			/>
		<path fill="#CC584C" d="M274.453,327.222c-1.034,0-2.068-0.396-2.856-1.184l-20.198-20.198c-1.58-1.58-1.58-4.133,0-5.713
			s4.133-1.58,5.713,0l20.198,20.198c1.579,1.58,1.579,4.133,0,5.713C276.521,326.825,275.486,327.222,274.453,327.222z"/>
		<path fill="#CC584C" d="M286.572,282.785c-1.034,0-2.068-0.396-2.856-1.184c-1.58-1.58-1.58-4.133,0-5.712l20.198-20.199
			c1.58-1.58,4.133-1.58,5.713,0c1.577,1.58,1.577,4.132,0,5.712l-20.199,20.198C288.641,282.389,287.605,282.785,286.572,282.785z"
			/>
		<path fill="#CC584C" d="M306.771,282.785c-1.034,0-2.068-0.396-2.856-1.184l-20.198-20.198c-1.58-1.58-1.58-4.133,0-5.712
			s4.133-1.58,5.712,0l20.199,20.199c1.577,1.579,1.577,4.132,0,5.712C308.839,282.389,307.804,282.785,306.771,282.785z"/>
	</g>
	<g>
		<path fill="#406A80" d="M302.73,201.992c-8.911,0-16.158-7.247-16.158-16.159s7.247-16.159,16.158-16.159
			c8.912,0,16.159,7.247,16.159,16.159S311.643,201.992,302.73,201.992z M302.73,177.754c-4.456,0-8.079,3.623-8.079,8.079
			s3.623,8.079,8.079,8.079s8.079-3.623,8.079-8.079S307.187,177.754,302.73,177.754z"/>
		<path fill="#406A80" d="M217.897,319.142c-8.912,0-16.159-7.246-16.159-16.158s7.247-16.159,16.159-16.159
			c8.912,0,16.159,7.247,16.159,16.159S226.81,319.142,217.897,319.142z M217.897,294.904c-4.456,0-8.079,3.619-8.079,8.079
			s3.624,8.079,8.079,8.079c4.456,0,8.08-3.619,8.08-8.079S222.354,294.904,217.897,294.904z"/>
		<path fill="#406A80" d="M217.897,278.745c-2.234,0-4.04-1.81-4.04-4.039c0-22.666,26.403-27.624,49.7-31.99
			c18.065-3.385,35.134-6.585,35.134-16.486v-8.079c0-2.23,1.806-4.04,4.039-4.04c2.234,0,4.04,1.81,4.04,4.04v8.079
			c0,16.603-21.212,20.582-41.727,24.428c-25.239,4.73-43.106,9.227-43.106,24.048C221.938,276.936,220.131,278.745,217.897,278.745
			z"/>
		<path fill="#406A80" d="M314.85,226.229c-1.033,0-2.068-0.396-2.856-1.183l-9.263-9.263l-9.263,9.263
			c-1.58,1.579-4.133,1.579-5.712,0c-1.58-1.58-1.58-4.133,0-5.712l12.118-12.119c1.58-1.58,4.133-1.58,5.713,0l12.119,12.119
			c1.578,1.579,1.578,4.133,0,5.712C316.918,225.833,315.884,226.229,314.85,226.229z"/>
	</g>
	<rect x="96.708" y="149.476" fill="#B3B3B3" width="319.134" height="4.04"/>
</g>
</svg>
