<?xml version="1.0" encoding="utf-8"?>
<!-- Generator: Adobe Illustrator 15.0.0, SVG Export Plug-In . SVG Version: 6.00 Build 0)  -->
<!DOCTYPE svg PUBLIC "-//W3C//DTD SVG 1.1//EN" "http://www.w3.org/Graphics/SVG/1.1/DTD/svg11.dtd">
<svg version="1.1" xmlns="http://www.w3.org/2000/svg" xmlns:xlink="http://www.w3.org/1999/xlink" x="0px" y="0px" width="512px"
	 height="512px" viewBox="0 0 512 512" enable-background="new 0 0 512 512" xml:space="preserve">
<g id="Layer_2" display="none">
	<g display="inline">
		<path fill="#263740" d="M139.124,405.228c-3.712-2.411-4.756-7.363-2.352-11.071l37.036-57.028
			c2.408-3.708,7.36-4.76,11.068-2.356c3.704,2.412,4.756,7.365,2.352,11.072l-37.036,57.032
			C147.784,406.58,142.832,407.632,139.124,405.228z"/>
		<path fill="#263740" d="M360.876,405.228c3.712-2.411,4.756-7.363,2.352-11.071l-37.035-57.028
			c-2.408-3.708-7.36-4.76-11.068-2.356c-3.704,2.412-4.756,7.365-2.352,11.072l37.035,57.032
			C352.216,406.58,357.168,407.632,360.876,405.228z"/>
	</g>
	<path display="inline" fill="#242424" d="M246,188c-4.416,0-8-3.584-8-8v-68c0-4.416,3.584-8,8-8s8,3.584,8,8v68
		C254,184.42,250.416,188,246,188z"/>
	<path display="inline" fill="#2D4452" d="M422,136c0,8.836-7.164,16-16,16H90c-8.836,0-16-7.164-16-16l0,0c0-8.836,7.164-16,16-16
		h316C414.836,120,422,127.164,422,136L422,136z"/>
	<path display="inline" fill="#EADFCE" d="M406,152v184c0,8.8-7.2,16-16,16H106c-8.8,0-16-7.2-16-16V152H406z"/>
	<g display="inline">
		<path fill="#CC584C" d="M226,232c-1.024,0-2.048-0.392-2.828-1.172c-1.564-1.564-1.564-4.092,0-5.656l20-20
			c1.564-1.564,4.092-1.564,5.656,0c1.564,1.564,1.564,4.092,0,5.656l-20,20C228.048,231.608,227.024,232,226,232z"/>
		<path fill="#CC584C" d="M246,232c-1.024,0-2.048-0.392-2.828-1.172l-20-20c-1.564-1.564-1.564-4.092,0-5.656s4.092-1.564,5.656,0
			l20,20c1.564,1.564,1.564,4.092,0,5.656C248.048,231.608,247.024,232,246,232z"/>
		<path fill="#CC584C" d="M246,328c-1.024,0-2.048-0.393-2.828-1.172c-1.564-1.564-1.564-4.092,0-5.656l20-20
			c1.564-1.564,4.092-1.564,5.656,0s1.564,4.092,0,5.656l-20,20C248.048,327.607,247.024,328,246,328z"/>
		<path fill="#CC584C" d="M266,328c-1.023,0-2.048-0.393-2.828-1.172l-20-20c-1.564-1.564-1.564-4.092,0-5.656s4.092-1.564,5.656,0
			l20,20c1.564,1.564,1.564,4.092,0,5.656C268.048,327.607,267.023,328,266,328z"/>
		<path fill="#CC584C" d="M278,284c-1.023,0-2.048-0.393-2.828-1.172c-1.564-1.564-1.564-4.092,0-5.656l20-20
			c1.564-1.564,4.092-1.564,5.656,0c1.563,1.564,1.563,4.092,0,5.656l-20,20C280.048,283.607,279.023,284,278,284z"/>
		<path fill="#CC584C" d="M298,284c-1.023,0-2.048-0.393-2.828-1.172l-20-20c-1.564-1.564-1.564-4.092,0-5.656s4.092-1.564,5.656,0
			l20,20c1.563,1.564,1.563,4.092,0,5.656C300.048,283.607,299.023,284,298,284z"/>
	</g>
	<g display="inline">
		<path fill="#406A80" d="M294,204c-8.824,0-16-7.176-16-16s7.176-16,16-16s16,7.176,16,16S302.824,204,294,204z M294,180
			c-4.412,0-8,3.588-8,8s3.588,8,8,8s8-3.588,8-8S298.412,180,294,180z"/>
		<path fill="#406A80" d="M210,320c-8.824,0-16-7.176-16-16s7.176-16,16-16s16,7.176,16,16S218.824,320,210,320z M210,296
			c-4.412,0-8,3.584-8,8s3.588,8,8,8s8-3.584,8-8S214.412,296,210,296z"/>
		<path fill="#406A80" d="M210,280c-2.212,0-4-1.792-4-4c0-22.443,26.144-27.352,49.212-31.676C273.1,240.972,290,237.804,290,228
			v-8c0-2.208,1.788-4,4-4s4,1.792,4,4v8c0,16.44-21.004,20.38-41.316,24.188C231.692,256.872,214,261.324,214,276
			C214,278.208,212.212,280,210,280z"/>
		<path fill="#406A80" d="M306,228c-1.024,0-2.048-0.392-2.828-1.172L294,217.656l-9.172,9.172c-1.564,1.564-4.092,1.564-5.656,0
			s-1.564-4.092,0-5.656l12-12c1.564-1.564,4.092-1.564,5.656,0l12,12c1.563,1.564,1.563,4.092,0,5.656
			C308.048,227.608,307.024,228,306,228z"/>
	</g>
	<rect x="90" y="152" display="inline" fill="#B3B3B3" width="316" height="4"/>
</g>
<g id="Layer_3">
	<path fill="#A2A9AF" d="M375.141,97.785l0.008,63.447L339.637,185.8l-35.5-24.581l-0.032-63.447
		c-22.009,12.433-36.902,36.01-36.902,63.121c0,10.889,2.604,21.141,6.912,30.398L104.562,360.855
		c-11.005,10.968-10.986,28.797-0.024,39.771c11.004,11.004,28.815,10.98,39.794-0.008l171.602-171.606
		c0,0,15.367,4.272,23.677,4.277c40.023,0.031,72.445-32.428,72.445-72.426C412.05,133.789,397.162,110.211,375.141,97.785z"/>
	<circle fill="#FFFFFF" cx="124.329" cy="380.843" r="7.481"/>
	<polygon fill="#4C5870" points="340.634,330.646 246.08,236.093 232.456,249.717 327.01,344.27 335.357,367.292 378.848,410.779 
		407.144,382.482 363.654,338.995 	"/>
	<path fill="#A07037" d="M228.521,274.813L106.385,152.685c-11.783-11.778-11.81-30.882-0.006-42.686
		c11.77-11.757,30.895-11.776,42.658,0.026l122.144,122.129L228.521,274.813z"/>
	<g>
		<path fill="#C49158" d="M236.176,239.81c-2.921,2.922-7.659,2.922-10.581,0L122.38,136.595c-2.921-2.922-2.921-7.66,0-10.581
			c2.922-2.922,7.66-2.922,10.581,0l103.216,103.215C239.099,232.151,239.099,236.889,236.176,239.81z"/>
		<path fill="#C49158" d="M279.77,234.146l-49.256,49.257c-2.922,2.922-7.66,2.922-10.582,0c-2.921-2.921-2.921-7.658,0-10.581
			l49.257-49.257c2.921-2.922,7.66-2.922,10.581,0C282.692,226.487,282.692,231.224,279.77,234.146z"/>
	</g>
</g>
</svg>
