<?xml version="1.0" encoding="utf-8"?>
<!-- Generator: Adobe Illustrator 15.0.0, SVG Export Plug-In . SVG Version: 6.00 Build 0)  -->
<!DOCTYPE svg PUBLIC "-//W3C//DTD SVG 1.1//EN" "http://www.w3.org/Graphics/SVG/1.1/DTD/svg11.dtd">
<svg version="1.1" id="Layer_1" xmlns="http://www.w3.org/2000/svg" xmlns:xlink="http://www.w3.org/1999/xlink" x="0px" y="0px"
	 width="240px" height="240px" viewBox="0 0 240 240" enable-background="new 0 0 240 240" xml:space="preserve">
<g>
	<g>
		<path fill="#1C4488" d="M87.733,118.377l29.887,60.938l29.886-60.938c15.086-9.794,25.079-26.772,25.079-46.112
			c0-30.352-24.604-54.965-54.965-54.965c-30.353,0-54.966,24.613-54.966,54.958C62.654,91.604,72.649,108.591,87.733,118.377z
			 M117.621,40.059c17.781,0,32.199,14.418,32.199,32.2c0,17.781-14.418,32.19-32.199,32.19c-17.782,0-32.2-14.41-32.2-32.19
			C85.421,54.476,99.839,40.059,117.621,40.059z"/>
		<path fill="#1C4488" d="M145.86,141.607l-8.195,16.723c32.857,3.011,50.013,12.805,50.013,16.603
			c0,4.382-22.959,16.833-66.717,17.452l-0.033,0.063h-6.615l-0.024-0.063c-43.767-0.619-66.734-13.062-66.734-17.452
			c0-3.798,17.163-13.601,50.021-16.603l-8.196-16.723c-31.967,3.896-59.333,14.652-59.333,33.33
			c0,24.06,45.397,35.025,87.575,35.025c42.176,0,87.574-10.966,87.574-35.025C205.194,156.26,177.828,145.503,145.86,141.607z"/>
	</g>
</g>
</svg>
