<?xml version="1.0" encoding="utf-8"?>
<!-- Generator: Adobe Illustrator 15.0.0, SVG Export Plug-In . SVG Version: 6.00 Build 0)  -->
<!DOCTYPE svg PUBLIC "-//W3C//DTD SVG 1.1//EN" "http://www.w3.org/Graphics/SVG/1.1/DTD/svg11.dtd">
<svg version="1.1" id="Layer_1" xmlns="http://www.w3.org/2000/svg" xmlns:xlink="http://www.w3.org/1999/xlink" x="0px" y="0px"
	 width="240px" height="240px" viewBox="0 0 240 240" enable-background="new 0 0 240 240" xml:space="preserve">
<g>
	<g>
		<path fill="#1C4488" d="M86.08,123.249l33.693,68.698l33.693-68.698c17.006-11.042,28.272-30.182,28.272-51.984
			c0-34.217-27.737-61.965-61.965-61.965c-34.218,0-61.966,27.748-61.966,61.957C57.807,93.067,69.075,112.217,86.08,123.249z
			 M119.773,34.957c20.045,0,36.3,16.254,36.3,36.3c0,20.046-16.255,36.29-36.3,36.29c-20.046,0-36.3-16.244-36.3-36.29
			C83.473,51.21,99.727,34.957,119.773,34.957z"/>
		<path fill="#1C4488" d="M151.61,149.438l-9.239,18.853c37.041,3.394,56.381,14.435,56.381,18.716
			c0,4.94-25.883,18.977-75.214,19.674l-0.036,0.072h-7.458l-0.027-0.072c-49.34-0.697-75.233-14.725-75.233-19.674
			c0-4.281,19.349-15.332,56.391-18.716l-9.24-18.853c-36.038,4.391-66.889,16.518-66.889,37.576
			c0,27.123,51.178,39.485,98.727,39.485c47.548,0,98.726-12.362,98.726-39.485C218.499,165.956,187.648,153.829,151.61,149.438z"/>
	</g>
</g>
</svg>
