<?xml version="1.0" encoding="utf-8"?>
<!-- Generator: Adobe Illustrator 15.0.0, SVG Export Plug-In . SVG Version: 6.00 Build 0)  -->
<!DOCTYPE svg PUBLIC "-//W3C//DTD SVG 1.1//EN" "http://www.w3.org/Graphics/SVG/1.1/DTD/svg11.dtd">
<svg version="1.1" id="Layer_1" xmlns="http://www.w3.org/2000/svg" xmlns:xlink="http://www.w3.org/1999/xlink" x="0px" y="0px"
	 width="240px" height="240px" viewBox="0 0 240 240" enable-background="new 0 0 240 240" xml:space="preserve">
<path id="path3" inkscape:connector-curvature="0" fill="#1C4488" d="M145.869,62.421v40.667l14.211,8.949
	c0.377,0.108,1.188,0.116,1.562,0L222.807,70.8c0-4.88-4.553-8.379-7.123-8.379H145.869z"/>
<path id="path5" inkscape:connector-curvature="0" fill="#1C4488" d="M145.869,118.26l12.971,8.91c1.826,1.344,4.027,0,4.027,0
	c-2.193,1.344,59.947-39.934,59.947-39.934v74.741c0,8.138-5.209,11.55-11.064,11.55h-65.889V118.26H145.869z"/>
<g id="g23" transform="matrix(3.9178712,0,0,3.9178712,-13.481403,-41.384473)">
	<path id="path25" inkscape:connector-curvature="0" fill="#1C4488" d="M23.533,35.962c-1.128,0-2.027,0.53-2.69,1.589
		c-0.664,1.058-0.997,2.46-0.997,4.203c0,1.77,0.333,3.168,0.997,4.197c0.664,1.03,1.534,1.542,2.611,1.542
		c1.11,0,1.99-0.5,2.64-1.501c0.65-1,0.977-2.389,0.977-4.165c0-1.852-0.315-3.293-0.947-4.323
		C25.492,36.477,24.629,35.962,23.533,35.962z"/>
	<path id="path27" inkscape:connector-curvature="0" fill="#1C4488" d="M7.828,21.224v40.608l30.892,6.477V15.245L7.828,21.224z
		 M28.5,48.393c-1.306,1.718-3.008,2.579-5.108,2.579c-2.047,0-3.713-0.833-5.003-2.497c-1.287-1.666-1.933-3.835-1.933-6.509
		c0-2.824,0.654-5.108,1.963-6.852c1.309-1.744,3.044-2.617,5.202-2.617c2.039,0,3.689,0.833,4.946,2.503
		c1.26,1.67,1.889,3.87,1.889,6.603C30.458,44.411,29.805,46.675,28.5,48.393z"/>
</g>
</svg>
