<?xml version="1.0" encoding="utf-8"?>
<!-- Generator: Adobe Illustrator 15.0.0, SVG Export Plug-In . SVG Version: 6.00 Build 0)  -->
<!DOCTYPE svg PUBLIC "-//W3C//DTD SVG 1.1//EN" "http://www.w3.org/Graphics/SVG/1.1/DTD/svg11.dtd">
<svg version="1.1" id="Layer_1" xmlns="http://www.w3.org/2000/svg" xmlns:xlink="http://www.w3.org/1999/xlink" x="0px" y="0px"
	 width="240px" height="240px" viewBox="0 0 240 240" enable-background="new 0 0 240 240" xml:space="preserve">
<g>
	<path fill="#1C4488" d="M91.204,45.817h120.155v81.151h-66.219v15.219h66.832c8.054,0,14.604-6.548,14.604-14.603V45.2
		c0-8.055-6.55-14.601-14.604-14.601H90.591c-8.055,0-14.606,6.546-14.606,14.601v25.532h15.219V45.817z"/>
	<path fill="#1C4488" d="M145.141,162.703H187.6l13.847-13.845c1.318-1.321,2.786-2.384,4.313-3.312h-60.619V162.703z"/>
	<path fill="#1C4488" d="M133.727,97.854c0-8.664-7.049-15.708-15.712-15.708H65.293c-8.665,0-15.712,7.044-15.712,15.708v21.49
		h7.309c2.972,0,5.748,0.744,8.255,1.969l0.149-23.949h53.215v73.677H75.877v14.363v6.955h40.974
		c-0.141-2.341,0.079-4.674,0.654-6.955c0.973-3.842,2.879-7.504,5.885-10.515c0.007-0.007,0.012-0.014,0.018-0.022
		c2.957-2.957,6.548-4.844,10.318-5.841V97.854L133.727,97.854z M86.75,180.492c0-2.713,2.199-4.905,4.904-4.905
		s4.904,2.192,4.904,4.905s-2.199,4.912-4.904,4.912C88.948,185.404,86.75,183.204,86.75,180.492z"/>
	<path fill="#1C4488" d="M56.889,128.855H20.478c-5.228,0-9.478,4.251-9.478,9.475v68.988c0,5.223,4.25,9.474,9.478,9.474h36.411
		c5.227,0,9.478-4.251,9.478-9.474V138.33C66.367,133.106,62.116,128.855,56.889,128.855z M22.414,140.27h32.54v61.733h-32.54
		V140.27z M34.659,209.391c0-2.223,1.798-4.021,4.028-4.021c2.214,0,4.013,1.799,4.013,4.021c0,2.221-1.798,4.027-4.013,4.027
		C36.458,213.418,34.659,211.611,34.659,209.391z"/>
	<path fill="#1C4488" d="M209.517,156.929l-43.956,43.953l-17.942-17.944c-4.45-4.46-11.682-4.46-16.14,0
		c-4.458,4.458-4.458,11.68,0,16.139l26.012,26.015c2.14,2.141,5.041,3.345,8.07,3.345c3.026,0,5.929-1.204,8.068-3.345
		l52.027-52.023c4.459-4.457,4.459-11.681,0-16.139C221.197,152.472,213.976,152.472,209.517,156.929z"/>
</g>
</svg>
