<?xml version="1.0" encoding="utf-8"?>
<!-- Generator: Adobe Illustrator 15.0.0, SVG Export Plug-In . SVG Version: 6.00 Build 0)  -->
<!DOCTYPE svg PUBLIC "-//W3C//DTD SVG 1.1//EN" "http://www.w3.org/Graphics/SVG/1.1/DTD/svg11.dtd">
<svg version="1.1" id="Layer_1" xmlns="http://www.w3.org/2000/svg" xmlns:xlink="http://www.w3.org/1999/xlink" x="0px" y="0px"
	 width="240px" height="240px" viewBox="0 0 240 240" enable-background="new 0 0 240 240" xml:space="preserve">
<path fill="#1C4488" d="M227.846,191.748c0.202-1.987,0.193-4.021-0.019-6.077l6.145-3.067c-0.994-6.037-3.348-11.536-6.715-16.215
	l-6.5,2.171c-1.303-1.572-2.729-3.009-4.293-4.302l2.181-6.511c-4.756-3.426-10.283-5.769-16.215-6.724l-3.068,6.145
	c-1.997-0.193-4.021-0.193-6.077,0.011l-3.058-6.126c-6.095,0.984-11.622,3.374-16.311,6.781l2.172,6.501
	c-1.506,1.253-2.885,2.634-4.129,4.138l-6.521-2.171c-3.454,4.766-5.835,10.322-6.8,16.293l6.145,3.067
	c-0.192,1.987-0.192,4.022,0.01,6.077l-6.135,3.067c0.983,6.047,3.356,11.536,6.723,16.215l6.491-2.171
	c1.302,1.572,2.729,2.999,4.302,4.293l-2.18,6.51c4.746,3.415,10.272,5.769,16.215,6.724l3.068-6.145
	c1.985,0.194,4.013,0.194,6.076-0.01l3.058,6.126c6.087-0.985,11.613-3.376,16.301-6.781l-2.16-6.502
	c1.495-1.243,2.885-2.632,4.128-4.128l6.521,2.171c3.453-4.765,5.826-10.321,6.801-16.292L227.846,191.748z M205.304,197.719
	l-8.99,3.732l-8.979-3.732l-3.724-9.019l3.724-9.019l8.979-3.743l8.99,3.743l3.724,9.019L205.304,197.719z"/>
<path fill="#1C4488" d="M149.117,196.35l-1.129-7.003l1.292-0.646l-1.312-0.655l1.129-6.994c1.177-7.301,4.128-14.363,8.518-20.419
	l4.157-5.721l1.108,0.375l-0.365-1.108l5.72-4.147c6.028-4.38,13.099-7.312,20.458-8.499l6.993-1.128l0.627,1.272l0.646-1.311
	l7.003,1.129c7.264,1.176,14.287,4.078,20.306,8.419l5.768,4.149l-0.453,1.369l1.351-0.454l2.923,4.042
	c0.009-0.491,0.145-0.983,0.145-1.504c0-23.256-18.829-42.153-42.095-42.153c-0.058,0-0.087,0-0.126,0
	c-1.862-29.449-26.342-52.753-56.254-52.753c-27.606,0-50.573,19.842-55.454,46.021c-0.608-0.019-1.273-0.048-1.891-0.048
	c-20.575,0-37.927,13.63-43.59,32.333c-0.887-0.077-1.775-0.125-2.652-0.125C15.696,140.799,2.5,153.957,2.5,170.219
	s13.176,29.429,29.401,29.429c0.164,0,70.607,0,117.949,0C149.59,198.559,149.301,197.478,149.117,196.35z"/>
<polyline fill="#1C4488" points="196.323,191.006 197.914,190.34 198.591,188.7 "/>
</svg>
