<?xml version="1.0" encoding="utf-8"?>
<!-- Generator: Adobe Illustrator 15.0.0, SVG Export Plug-In . SVG Version: 6.00 Build 0)  -->
<!DOCTYPE svg PUBLIC "-//W3C//DTD SVG 1.1//EN" "http://www.w3.org/Graphics/SVG/1.1/DTD/svg11.dtd">
<svg version="1.1" id="Layer_1" xmlns="http://www.w3.org/2000/svg" xmlns:xlink="http://www.w3.org/1999/xlink" x="0px" y="0px"
	 width="300px" height="300px" viewBox="0 0 300 300" enable-background="new 0 0 300 300" xml:space="preserve">
<path fill="#19283F" d="M287.5,0h-275C5.625,0,0,5.625,0,12.5v275c0,6.875,5.625,12.5,12.5,12.5h275c6.875,0,12.5-5.625,12.5-12.5
	v-275C300,5.625,294.375,0,287.5,0z"/>
<rect x="15.625" y="46.875" fill="#FFFFFF" width="268.75" height="237.5"/>
<rect x="15.4" y="46.644" fill="#CDD6E0" width="268.75" height="36.875"/>
<path fill="#FFFFFF" d="M36.25,65.625L36.25,65.625c0-5,4.375-9.375,9.375-9.375H223.75c5,0,9.375,4.375,9.375,9.375l0,0
	c0,5-4.375,9.375-9.375,9.375H45C40,74.375,36.25,70.625,36.25,65.625z"/>
<circle fill="#FF7058" cx="193.125" cy="23.125" r="12.5"/>
<circle fill="#FFD15C" cx="232.5" cy="23.125" r="12.5"/>
<circle fill="#7CC178" cx="271.875" cy="23.125" r="12.5"/>
<g>
	<polygon fill="#FF7058" points="86.875,194.375 78.125,157.5 65,157.5 55.625,193.75 47.5,157.5 36.875,157.5 49.375,210.625 
		60.625,210.625 71.25,171.25 81.875,210.625 93.125,210.625 106.25,157.5 95,157.5 	"/>
	<polygon fill="#FF7058" points="165.625,194.375 156.875,157.5 143.75,157.5 134.375,193.75 126.25,157.5 115,157.5 
		128.125,210.625 139.375,210.625 150,171.25 160.625,210.625 171.875,210.625 185,157.5 173.75,157.5 	"/>
	<polygon fill="#FF7058" points="252.5,157.5 244.375,194.375 235,157.5 222.5,157.5 213.125,193.75 205,157.5 193.75,157.5 
		206.875,210.625 218.125,210.625 228.75,171.25 239.375,210.625 250.625,210.625 263.125,157.5 	"/>
</g>
</svg>
