<?xml version="1.0" encoding="utf-8"?>
<!-- Generator: Adobe Illustrator 15.0.0, SVG Export Plug-In . SVG Version: 6.00 Build 0)  -->
<!DOCTYPE svg PUBLIC "-//W3C//DTD SVG 1.1//EN" "http://www.w3.org/Graphics/SVG/1.1/DTD/svg11.dtd">
<svg version="1.1" id="Layer_1" xmlns="http://www.w3.org/2000/svg" xmlns:xlink="http://www.w3.org/1999/xlink" x="0px" y="0px"
	 width="300px" height="300px" viewBox="0 0 300 300" enable-background="new 0 0 300 300" xml:space="preserve">
<path fill="#334A5E" d="M290,31.25H12.5C5.625,31.25,0,36.875,0,43.75v167.5h300v-170C300,35.625,295.625,31.25,290,31.25z"/>
<path fill="#CCCCCC" d="M0,211.25V235c0,6.875,5.625,12.5,12.5,12.5h275c6.875,0,12.5-5.625,12.5-12.5v-23.75H0z"/>
<g>
	<circle fill="#F9F9F9" cx="150" cy="229.375" r="6.875"/>
	<rect x="92.5" y="247.5" fill="#BFBFBF" width="115" height="33.75"/>
</g>
<rect x="92.5" y="247.5" fill="#ABB2B9" width="115" height="9.375"/>
<g>
	<rect x="61.875" y="281.25" fill="#B7B7B7" width="175.625" height="18.75"/>
	<path fill="#E58863" d="M206.25,0H67.5C60.625,0,55,5.625,55,12.5v184.375h190V38.125L206.25,0z"/>
</g>
<path fill="#C16A4C" d="M218.75,38.125h25.625L206.25,0v25.625C206.25,32.5,211.875,38.125,218.75,38.125z"/>
<g>
	<polygon fill="#F9EAD2" points="263.75,50 245,196.875 280,196.875 280,50 	"/>
	<polygon fill="#F9EAD2" points="20,50 20,196.875 55,196.875 36.25,50 	"/>
</g>
<polygon fill="#334A5E" points="266.25,31.25 245,31.25 245,50 263.75,50 "/>
<polygon fill="#89D6F7" points="245,50 245,196.875 263.75,50 "/>
<polygon fill="#E2D4BF" points="245,50 245,196.875 263.75,50 "/>
<polygon fill="#334A5E" points="55,31.25 33.75,31.25 36.25,50 55,50 "/>
<polygon fill="#89D6F7" points="36.25,50 55,196.875 55,50 "/>
<polygon fill="#E2D4BF" points="36.25,50 55,196.875 55,50 "/>
<rect x="110.625" y="10.625" fill="#E58863" width="78.75" height="78.75"/>
<g>
	<path fill="#D9DBDD" d="M178.75,47.5l5.625-3.75l-2.5-7.5H175c-0.625-1.875-1.875-3.75-3.125-5l2.5-6.25l-6.25-5l-5.625,4.375
		c-1.875-0.625-3.75-1.875-6.25-1.875l-1.875-6.875h-8.125l-1.875,6.25c-1.875,0.625-3.75,1.25-5.625,1.875l-5.625-4.375
		l-6.25,4.375l1.875,6.875c-0.625,0.625-1.25,1.25-1.875,2.5l0,0c-0.625,0.625-1.25,1.875-1.875,2.5h-6.875l-2.5,6.875l5.625,4.375
		c0,1.875,0,4.375,0,6.25l-5.625,3.75l2.5,7.5H125c1.25,1.875,1.875,3.75,3.75,5l-2.5,6.25l6.25,5l5.625-4.375
		c1.875,0.625,3.75,1.875,6.25,1.875L146.25,85h8.125l1.875-6.875c1.875-0.625,3.75-1.25,5.625-1.875l5.625,4.375l6.25-4.375
		l-1.875-6.875c0.625-0.625,1.25-1.25,1.875-2.5l0,0c0.625-0.625,1.25-1.875,1.875-2.5h6.875l1.875-6.875l-5.625-3.75
		C178.75,51.875,178.75,49.375,178.75,47.5z M163.125,60c-2.5,3.125-6.25,5.625-10.625,6.25c-8.75,1.25-16.875-5-18.125-13.75
		c-1.25-4.375,0-8.75,2.5-11.875c2.5-3.125,6.25-5.625,10.625-6.25c8.75-1.25,16.875,5,18.125,13.75
		C166.875,52.5,165.625,56.875,163.125,60z"/>
	<path fill="#40596B" d="M235,181.25L235,181.25c0-3.75-3.125-6.875-6.875-6.875h-10v13.75h10C232.5,187.5,235,185,235,181.25z"/>
</g>
<polygon fill="#EFDBC7" points="81.875,174.375 81.875,187.5 73.75,184.375 65,181.25 73.75,177.5 "/>
<polygon fill="#40596B" points="73.75,177.5 73.75,184.375 65,181.25 "/>
<polygon fill="#2C72C6" points="81.875,174.375 81.875,178.125 211.875,178.125 211.875,178.125 211.875,174.375 "/>
<rect x="81.875" y="178.125" fill="#1C54A5" width="130" height="5.625"/>
<rect x="81.875" y="183.75" fill="#2C72C6" width="130" height="4.375"/>
<rect x="211.875" y="174.375" fill="#EFEDE8" width="6.25" height="13.75"/>
<path fill="#55BFE9" d="M211.875,174.375h6.875H211.875z"/>
<polygon fill="#FFD15C" points="218.75,178.125 218.75,178.125 218.75,174.375 "/>
<polygon fill="#55BFE9" points="218.75,183.75 218.75,183.75 218.75,178.125 218.75,178.125 "/>
<g>
	<rect x="90.625" y="110" fill="#D64C32" width="118.125" height="14.375"/>
	<rect x="90.625" y="139.375" fill="#D64C32" width="118.125" height="14.375"/>
</g>
</svg>
