<?xml version="1.0" encoding="utf-8"?>
<!-- Generator: Adobe Illustrator 15.0.0, SVG Export Plug-In . SVG Version: 6.00 Build 0)  -->
<!DOCTYPE svg PUBLIC "-//W3C//DTD SVG 1.1//EN" "http://www.w3.org/Graphics/SVG/1.1/DTD/svg11.dtd">
<svg version="1.1" xmlns="http://www.w3.org/2000/svg" xmlns:xlink="http://www.w3.org/1999/xlink" x="0px" y="0px" width="300px"
	 height="300px" viewBox="0 0 300 300" enable-background="new 0 0 300 300" xml:space="preserve">
<g id="Layer_1">
	<path fill="#2D2D2D" d="M6.154,221.016V18.177c0-3.505,2.704-6.511,5.859-6.511h276.716c3.155,0,5.858,3.005,5.858,6.511v202.838
		C294.588,221.016,5.252,220.016,6.154,221.016z"/>
	<g>
		<path fill="#BCBCBC" d="M6.154,220.032v23.437c0,3.154,2.704,5.859,5.859,5.859h276.716c3.155,0,5.858-2.705,5.858-5.859v-23.437
			C294.588,220.032,5.252,220.935,6.154,220.032z"/>
		<rect x="88.628" y="289.806" fill="#BCBCBC" width="123.486" height="5.859"/>
	</g>
	<polygon fill="#2D2D2D" points="191.383,290.789 109.359,290.789 115.218,249.328 185.524,249.328 	"/>
	<rect x="17.872" y="24.688" fill="#FFFFFF" width="265" height="183.306"/>
	<path fill="#CAD1D8" d="M25.893,25.269l250.179-0.062c6.87,0,6.518,0.296,6.518,5.371l0.412,172.368c0,5.073,1.3,6.124-5.569,6.124
		H30.039c-13.768,0-12.476,1.484-12.476-7.702l0.035-171.923C17.598,24.371,19.023,25.269,25.893,25.269z"/>
	<path fill="#FFFFFF" d="M30.039,49.83h240.523c2.286,0,4.146,1.372,4.146,3.062v146.991c0,1.69-1.86,3.062-4.146,3.062H30.039
		c-2.291,0-4.147-1.372-4.147-3.062V52.893C25.891,51.202,27.748,49.83,30.039,49.83z"/>
	<g>
		<ellipse fill="#9BA7AF" cx="26.968" cy="37.579" rx="3.128" ry="3.061"/>
		<ellipse fill="#9BA7AF" cx="39.483" cy="37.579" rx="3.127" ry="3.061"/>
		<ellipse fill="#9BA7AF" cx="51.998" cy="37.579" rx="3.128" ry="3.061"/>
	</g>
	<g>
		<path fill="#595A66" d="M58.255,62.08L58.255,62.08c0,1.691-1.401,3.063-3.129,3.063H39.482c-1.728,0-3.129-1.372-3.129-3.063l0,0
			c0-1.691,1.401-3.062,3.129-3.062h15.644C56.854,59.018,58.255,60.388,58.255,62.08z"/>
		<path fill="#595A66" d="M199.046,62.08L199.046,62.08c0,1.691-1.4,3.063-3.128,3.063h-12.516c-1.728,0-3.128-1.372-3.128-3.063
			l0,0c0-1.691,1.4-3.062,3.128-3.062h12.516C197.646,59.018,199.046,60.388,199.046,62.08z"/>
		<path fill="#595A66" d="M174.017,62.08L174.017,62.08c0,1.691-1.401,3.063-3.129,3.063h-12.516c-1.726,0-3.128-1.372-3.128-3.063
			l0,0c0-1.691,1.402-3.062,3.128-3.062h12.516C172.615,59.018,174.017,60.388,174.017,62.08z"/>
		<path fill="#595A66" d="M148.988,62.08L148.988,62.08c0,1.691-1.402,3.063-3.13,3.063h-12.514c-1.728,0-3.129-1.372-3.129-3.063
			l0,0c0-1.691,1.401-3.062,3.129-3.062h12.514C147.586,59.018,148.988,60.388,148.988,62.08z"/>
	</g>
	<path fill="#E2E5E7" d="M123.957,34.519h143.922c1.725,0,3.127,1.372,3.127,3.062l0,0c0,1.691-1.402,3.062-3.127,3.062H123.957
		c-1.729,0-3.129-1.371-3.129-3.062l0,0C120.828,35.89,122.229,34.519,123.957,34.519z"/>
	<g>
		<path fill="#CAD1D8" d="M133.344,95.766h50.059c1.729,0,3.129,1.371,3.129,3.062l0,0c0,1.69-1.4,3.062-3.129,3.062h-50.059
			c-1.728,0-3.129-1.371-3.129-3.062l0,0C130.215,97.136,131.616,95.766,133.344,95.766z"/>
		<path fill="#CAD1D8" d="M133.344,108.015h43.802c1.728,0,3.129,1.371,3.129,3.062l0,0c0,1.692-1.401,3.063-3.129,3.063h-43.802
			c-1.728,0-3.129-1.371-3.129-3.063l0,0C130.215,109.385,131.616,108.015,133.344,108.015z"/>
		<path fill="#CAD1D8" d="M133.344,120.264h34.415c1.728,0,3.129,1.371,3.129,3.062l0,0c0,1.691-1.401,3.063-3.129,3.063h-34.415
			c-1.728,0-3.129-1.372-3.129-3.063l0,0C130.215,121.635,131.616,120.264,133.344,120.264z"/>
	</g>
	<path fill="#ABE1FA" d="M39.482,83.517h68.831c1.728,0,3.129,1.371,3.129,3.062v48.997c0,1.691-1.401,3.062-3.129,3.062H39.482
		c-1.728,0-3.129-1.371-3.129-3.062V86.578C36.354,84.887,37.754,83.517,39.482,83.517z"/>
	<path fill="#E2E5E7" d="M207.109,167.73h43.802c5.185,0,9.388,4.112,9.388,9.187l0,0c0,5.073-4.203,9.187-9.388,9.187h-43.802
		c-5.184,0-9.387-4.113-9.387-9.187l0,0C197.723,171.843,201.926,167.73,207.109,167.73z"/>
	<path fill="#3CB54A" d="M207.109,164.667h43.802c5.185,0,9.388,4.114,9.388,9.188l0,0c0,5.074-4.203,9.188-9.388,9.188h-43.802
		c-5.184,0-9.387-4.113-9.387-9.188l0,0C197.723,168.781,201.926,164.667,207.109,164.667z"/>
	<g>
		<ellipse fill="#0E9347" cx="229.01" cy="173.855" rx="3.129" ry="3.061"/>
		<ellipse fill="#0E9347" cx="241.525" cy="173.855" rx="3.127" ry="3.061"/>
		<ellipse fill="#0E9347" cx="216.495" cy="173.855" rx="3.128" ry="3.061"/>
	</g>
	<path fill="#F19F35" d="M231.181,126.383c-0.112,0-0.223-0.029-0.319-0.083l-1.833-0.999l-1.832,1.013
		c-0.218,0.145-0.503,0.145-0.722,0c-0.22-0.188-0.307-0.487-0.223-0.764l0.348-2.137l-1.485-1.513
		c-0.211-0.175-0.308-0.454-0.249-0.722c0.076-0.255,0.292-0.444,0.555-0.486l2.054-0.306l0.917-1.943
		c0.146-0.337,0.539-0.492,0.876-0.345c0.155,0.067,0.278,0.19,0.345,0.345l0.916,1.943l2.055,0.306
		c0.263,0.042,0.479,0.23,0.555,0.486c0.084,0.257,0.021,0.54-0.166,0.736l-1.485,1.512l0.319,2.124
		c0.047,0.262-0.055,0.529-0.264,0.694C231.437,126.326,231.312,126.374,231.181,126.383z"/>
	<path fill="#CAD1D8" d="M256.302,126.383c-0.111,0-0.223-0.029-0.319-0.083l-1.832-1.013l-1.833,1.013
		c-0.218,0.145-0.502,0.145-0.721,0c-0.21-0.165-0.311-0.432-0.264-0.694l0.347-2.137l-1.485-1.513
		c-0.187-0.196-0.251-0.478-0.166-0.735c0.076-0.255,0.292-0.444,0.555-0.486l2.041-0.347l0.915-1.943
		c0.147-0.337,0.54-0.492,0.877-0.345c0.155,0.067,0.277,0.19,0.345,0.345l0.916,1.943l2.055,0.306
		c0.263,0.042,0.478,0.23,0.555,0.486c0.084,0.257,0.02,0.54-0.166,0.736l-1.485,1.512l0.348,2.138
		c0.046,0.262-0.056,0.529-0.264,0.694C256.598,126.345,256.45,126.389,256.302,126.383z"/>
	<g>
		<path fill="#F19F35" d="M206.336,126.383c-0.111,0-0.222-0.029-0.318-0.083l-1.832-1.013l-1.832,1.013
			c-0.219,0.145-0.504,0.145-0.722,0c-0.21-0.165-0.312-0.432-0.265-0.694l0.348-2.137l-1.485-1.513
			c-0.187-0.196-0.251-0.478-0.167-0.735c0.077-0.255,0.293-0.444,0.556-0.486l2.04-0.347l0.916-1.943
			c0.146-0.337,0.54-0.492,0.877-0.345c0.154,0.067,0.277,0.19,0.345,0.345l0.916,1.943l2.054,0.306
			c0.263,0.042,0.479,0.23,0.556,0.486c0.084,0.257,0.021,0.54-0.167,0.736l-1.485,1.512l0.348,2.138
			c0.047,0.262-0.055,0.529-0.264,0.694C206.632,126.345,206.485,126.389,206.336,126.383z"/>
		<path fill="#F19F35" d="M218.688,126.383c-0.111,0-0.222-0.029-0.318-0.083l-1.833-0.999l-1.832,1.013
			c-0.219,0.145-0.503,0.145-0.722,0c-0.22-0.188-0.308-0.487-0.223-0.764l0.348-2.137l-1.485-1.513
			c-0.211-0.175-0.308-0.454-0.249-0.722c0.076-0.255,0.292-0.444,0.555-0.486l2.054-0.306l0.917-1.943
			c0.146-0.337,0.539-0.492,0.876-0.345c0.154,0.067,0.278,0.19,0.345,0.345l0.916,1.943l2.054,0.306
			c0.264,0.042,0.479,0.23,0.556,0.486c0.084,0.257,0.021,0.54-0.166,0.736l-1.486,1.512l0.32,2.124
			c0.047,0.262-0.055,0.529-0.264,0.694C218.945,126.326,218.82,126.374,218.688,126.383z"/>
	</g>
	<path fill="#CAD1D8" d="M245.24,120.707l-2.055-0.305l-0.916-1.943c-0.107-0.241-0.347-0.398-0.611-0.402
		c-0.046-0.005-0.092-0.005-0.139,0v7.273l0.139-0.083l1.832,1.013c0.098,0.054,0.208,0.083,0.319,0.083
		c0.146-0.001,0.287-0.05,0.403-0.139c0.209-0.165,0.31-0.432,0.264-0.694l-0.348-2.137l1.555-1.457
		c0.187-0.196,0.251-0.479,0.167-0.736C245.762,120.912,245.521,120.726,245.24,120.707z"/>
	<path fill="#F19F35" d="M241.521,118.056c-0.203,0.037-0.377,0.165-0.473,0.347l-0.916,1.984l-2.054,0.306
		c-0.263,0.042-0.479,0.23-0.555,0.486c-0.085,0.257-0.021,0.54,0.166,0.736l1.485,1.512l-0.333,2.124
		c-0.048,0.262,0.054,0.529,0.264,0.694c0.219,0.145,0.503,0.145,0.722,0l1.693-0.875V118.056L241.521,118.056z"/>
	<rect x="36.445" y="163.667" fill="#9DD3F4" width="24.85" height="17.333"/>
	<rect x="66.36" y="163.668" fill="#9DD3F4" width="24.85" height="17.332"/>
	<rect x="96.87" y="163.668" fill="#9DD3F4" width="24.85" height="17.332"/>
</g>
<g id="Layer_2">
	<rect x="62.552" y="95.441" fill="#556080" width="22.813" height="42.118"/>
	<polygon fill="#8697CB" points="48.512,98.074 48.512,112.113 48.512,127.907 48.512,137.559 62.552,137.559 62.552,127.907 
		62.552,112.113 62.552,98.074 	"/>
	<polygon fill="#8697CB" points="85.365,98.074 85.365,112.113 85.365,127.907 85.365,137.559 99.404,137.559 99.404,127.907 
		99.404,112.113 99.404,98.074 	"/>
	<rect x="66.061" y="99.829" fill="#FFFFFF" width="6.143" height="4.387"/>
	<rect x="75.713" y="99.829" fill="#FFFFFF" width="6.142" height="4.387"/>
	<rect x="88.875" y="103.338" fill="#FFFFFF" width="7.019" height="4.388"/>
	<rect x="88.875" y="111.235" fill="#FFFFFF" width="7.019" height="4.387"/>
	<rect x="52.022" y="103.338" fill="#FFFFFF" width="7.02" height="4.388"/>
	<rect x="52.022" y="111.235" fill="#FFFFFF" width="7.02" height="4.387"/>
	<rect x="66.061" y="107.726" fill="#FFFFFF" width="6.143" height="4.387"/>
	<rect x="75.713" y="107.726" fill="#FFFFFF" width="6.142" height="4.387"/>
	<rect x="66.061" y="115.623" fill="#FFFFFF" width="6.143" height="4.387"/>
	<rect x="75.713" y="115.623" fill="#FFFFFF" width="6.142" height="4.387"/>
	<rect x="66.938" y="125.274" fill="#D0E8F9" width="14.04" height="12.285"/>
	<path fill="#3D324C" d="M80.978,124.397h-14.04c-0.484,0-0.877,0.393-0.877,0.877v12.285h15.794v-12.285
		C81.855,124.79,81.462,124.397,80.978,124.397z"/>
	<rect x="67.816" y="126.152" fill="#D0E8F9" width="12.285" height="11.407"/>
	<rect x="73.081" y="126.152" fill="#3D324C" width="1.755" height="11.407"/>
	<circle fill="#A4E869" cx="55.631" cy="124.483" r="5.118"/>
	<circle fill="#A4E869" cx="94.888" cy="122.472" r="5.849"/>
	<g>
		<path fill="#7F6E5D" d="M57.098,124.67l-1.467,1.467l-1.467-1.467c-0.25-0.25-0.654-0.25-0.904,0c-0.25,0.25-0.25,0.654,0,0.905
			l1.731,1.732v10.612c0,0.354,0.287,0.64,0.64,0.64c0.354,0,0.64-0.287,0.64-0.64v-10.612l1.732-1.732
			c0.25-0.25,0.25-0.654,0-0.905C57.752,124.42,57.348,124.42,57.098,124.67z"/>
		<path fill="#7F6E5D" d="M97.599,122.686c-0.286-0.286-0.749-0.286-1.035,0l-1.676,1.677l-1.676-1.677
			c-0.286-0.286-0.749-0.286-1.035,0c-0.286,0.287-0.286,0.749,0,1.035l1.979,1.979v12.128c0,0.404,0.327,0.731,0.731,0.731
			c0.403,0,0.731-0.328,0.731-0.731V125.7l1.98-1.979C97.884,123.435,97.884,122.973,97.599,122.686z"/>
	</g>
</g>
</svg>
