<?xml version="1.0" encoding="utf-8"?>
<!-- Generator: Adobe Illustrator 15.0.0, SVG Export Plug-In . SVG Version: 6.00 Build 0)  -->
<!DOCTYPE svg PUBLIC "-//W3C//DTD SVG 1.1//EN" "http://www.w3.org/Graphics/SVG/1.1/DTD/svg11.dtd">
<svg version="1.1" id="Layer_1" xmlns="http://www.w3.org/2000/svg" xmlns:xlink="http://www.w3.org/1999/xlink" x="0px" y="0px"
	 width="300px" height="300px" viewBox="0 0 300 300" enable-background="new 0 0 300 300" xml:space="preserve">
<g id="Layer_1_1_">
	<path fill="#464655" d="M281.932,3H17.068c-5.418,0-9.81,5.09-9.81,11.371v181.916H291.74V14.371C291.741,8.09,287.35,3,281.932,3z
		 M277.025,179.232H21.974V20.055h255.053v159.177H277.025z"/>
	<g>
		<path fill="#FFFFFF" d="M21.974,179.232h255.053V20.055H21.974V179.232z"/>
	</g>
	<path fill="#BEC8DC" d="M7.259,217.38c0,5.824,4.392,10.546,9.81,10.546h93.192h78.477h93.193c5.418,0,9.811-4.722,9.811-10.546
		v-21.094H7.259V217.38z M149.5,204.195c4.062,0,7.355,3.541,7.355,7.91s-3.293,7.91-7.355,7.91c-4.063,0-7.357-3.541-7.357-7.91
		S145.437,204.195,149.5,204.195z"/>
	<polygon fill="#AFBBD0" points="105.969,264.838 193.031,264.838 189.966,238.473 109.034,238.473 	"/>
	<path fill="#BEC8DC" d="M105.356,264.838c-2.708,0-4.905,2.361-4.905,5.273s2.196,5.272,4.905,5.272h88.289
		c2.709,0,4.904-2.36,4.904-5.272s-2.195-5.273-4.904-5.273h-0.611H105.97H105.356z"/>
	<g>
		<polygon fill="#96A5B9" points="109.034,238.473 189.966,238.473 188.738,227.927 110.261,227.927 		"/>
		<ellipse fill="#96A5B9" cx="149.5" cy="212.105" rx="7.355" ry="7.91"/>
	</g>
</g>
<g id="Layer_2">
	<rect x="21.308" y="18.601" fill="#F2F2F2" width="256.026" height="177.686"/>
	<rect x="21.308" y="18.6" fill="#F9C573" width="256.026" height="19.399"/>
	<rect x="21.304" y="36.383" fill="#E8E8E8" width="256.034" height="5.591"/>
	<circle fill="#F94B54" cx="30.501" cy="28.052" r="4.201"/>
	<circle fill="#61BCE0" cx="57.668" cy="28.052" r="4.201"/>
	<circle fill="#F2F2F2" cx="44.085" cy="28.052" r="4.201"/>
	<circle fill="#9BD7F4" cx="77.724" cy="91.093" r="37.691"/>
	<path fill="#F94B54" d="M88.578,98.727c4.177-3.247,6.873-8.313,6.873-14c0-9.776-7.954-17.729-17.729-17.729
		c-9.775,0-17.729,7.953-17.729,17.728c0,5.688,2.695,10.756,6.873,14.002c-4.178,3.247-6.874,8.314-6.874,14.005
		c0,2.057,1.669,3.727,3.727,3.727c2.058,0,3.728-1.67,3.728-3.727c0-5.665,4.608-10.274,10.272-10.277c0.001,0,0.002,0,0.003,0
		c0.002,0,0.003,0,0.005,0c5.664,0.003,10.272,4.612,10.272,10.277c0,2.057,1.669,3.727,3.727,3.727c2.059,0,3.728-1.67,3.728-3.727
		C95.453,107.042,92.756,101.974,88.578,98.727z M67.446,84.726c0-5.665,4.608-10.274,10.273-10.274
		c5.665,0,10.274,4.609,10.274,10.274c0,5.664-4.606,10.271-10.269,10.274c-0.001,0-0.002,0-0.004,0c-0.002,0-0.002,0-0.004,0
		C72.053,94.998,67.446,90.39,67.446,84.726z"/>
	<g>
		<rect x="140.994" y="61.719" fill="#4D4D4D" width="35.941" height="9.319"/>
		<rect x="140.994" y="80.233" fill="#4D4D4D" width="119.617" height="9.319"/>
		<rect x="140.994" y="117.261" fill="#4D4D4D" width="119.617" height="9.319"/>
		<rect x="217.963" y="141.443" fill="#4D4D4D" width="41.76" height="9.318"/>
		<rect x="39.029" y="141.443" fill="#4D4D4D" width="168.311" height="9.318"/>
		<rect x="125.486" y="159.957" fill="#4D4D4D" width="134.237" height="9.318"/>
		<rect x="39.029" y="159.951" fill="#4D4D4D" width="76.274" height="9.318"/>
		<rect x="140.994" y="98.747" fill="#4D4D4D" width="35.941" height="9.319"/>
	</g>
	<path fill="#999999" d="M77.72,132.2c-22.667,0-41.107-18.44-41.107-41.107S55.054,49.985,77.72,49.985
		c22.667,0,41.108,18.44,41.108,41.108C118.828,113.76,100.387,132.2,77.72,132.2z M77.72,56.82
		c-18.898,0-34.273,15.375-34.273,34.273c0,18.898,15.375,34.274,34.273,34.274c18.898,0,34.274-15.376,34.274-34.274
		C111.994,72.195,96.619,56.82,77.72,56.82z"/>
</g>
</svg>
