<?xml version="1.0" encoding="utf-8"?>
<!-- Generator: Adobe Illustrator 15.0.0, SVG Export Plug-In . SVG Version: 6.00 Build 0)  -->
<!DOCTYPE svg PUBLIC "-//W3C//DTD SVG 1.1//EN" "http://www.w3.org/Graphics/SVG/1.1/DTD/svg11.dtd">
<svg version="1.1" id="Layer_1" xmlns="http://www.w3.org/2000/svg" xmlns:xlink="http://www.w3.org/1999/xlink" x="0px" y="0px"
	 width="300px" height="300px" viewBox="0 0 300 300" enable-background="new 0 0 300 300" xml:space="preserve">
<path d="M276.194,226.485V56.976c0-4.054-3.316-7.371-7.37-7.371H33.038c-4.054,0-7.37,3.317-7.37,7.371v169.509
	C25.672,226.485,276.812,226.485,276.194,226.485z"/>
<rect x="34.881" y="58.819" fill="#80B29E" width="232.101" height="158.454"/>
<rect x="3.483" y="226.485" fill="#D8D8D8" width="294.797" height="4.607"/>
<polygon fill="#AAAAAA" points="283.592,240.302 18.276,240.302 3.533,231.093 298.331,231.093 "/>
<g opacity="0.7">
	<path fill="#FFFFFF" d="M175.665,226.485h-49.567c0.471,2.585,2.779,4.607,5.663,4.607h38.236
		C172.888,231.093,175.195,229.07,175.665,226.485z"/>
</g>
<circle fill="#FFFFFF" cx="78.071" cy="82.239" r="17.388"/>
<path fill="#1B6FAB" d="M91.042,93.715c-0.292-1.508-1.269-2.793-2.643-3.479l-4.417-2.644c-0.501-0.301-1.038-0.535-1.601-0.695
	v-2.018c2.699-2.402,2.938-6.534,0.536-9.231c-2.401-2.698-6.534-2.938-9.23-0.536c-2.698,2.4-2.939,6.534-0.536,9.23
	c0.168,0.19,0.347,0.369,0.536,0.537v1.947c-0.562,0.162-1.1,0.396-1.6,0.696l-4.451,2.644c-1.375,0.687-2.351,1.97-2.645,3.478
	c6.169,7.21,17.014,8.054,24.225,1.885C89.869,94.972,90.48,94.365,91.042,93.715z"/>
<circle fill="#FFFFFF" cx="147.613" cy="82.239" r="17.388"/>
<path fill="#1B6FAB" d="M160.586,93.715c-0.292-1.508-1.271-2.793-2.644-3.479l-4.417-2.644c-0.501-0.301-1.039-0.535-1.601-0.695
	v-2.018c2.698-2.402,2.938-6.534,0.536-9.231c-2.401-2.697-6.535-2.938-9.231-0.536c-2.697,2.4-2.937,6.534-0.535,9.23
	c0.168,0.19,0.347,0.369,0.535,0.537v1.947c-0.561,0.162-1.099,0.396-1.6,0.696l-4.451,2.644c-1.374,0.687-2.351,1.97-2.645,3.478
	c6.168,7.21,17.015,8.054,24.223,1.885C159.414,94.972,160.023,94.365,160.586,93.715z"/>
<circle fill="#FFFFFF" cx="223.406" cy="82.239" r="17.388"/>
<path fill="#1B6FAB" d="M236.381,93.715c-0.292-1.508-1.27-2.793-2.643-3.479l-4.418-2.644c-0.499-0.301-1.038-0.535-1.597-0.695
	v-2.018c2.694-2.402,2.935-6.534,0.533-9.231c-2.399-2.697-6.534-2.938-9.23-0.536c-2.698,2.4-2.937,6.534-0.535,9.23
	c0.168,0.19,0.348,0.369,0.535,0.537v1.947c-0.56,0.162-1.098,0.396-1.6,0.696l-4.451,2.642c-1.372,0.687-2.351,1.972-2.644,3.479
	c6.169,7.208,17.015,8.054,24.224,1.885C235.209,94.972,235.818,94.365,236.381,93.715z"/>
<g>
	<path fill="#676868" d="M57.203,106.583h41.734c1.92,0,3.478,1.557,3.478,3.478l0,0c0,1.92-1.558,3.478-3.478,3.478H57.203
		c-1.92,0-3.478-1.557-3.478-3.478l0,0C53.725,108.14,55.283,106.583,57.203,106.583z"/>
	<path fill="#676868" d="M67.637,120.494h20.866c1.92,0,3.479,1.557,3.479,3.479l0,0c0,1.92-1.559,3.479-3.479,3.479H67.637
		c-1.92,0-3.479-1.558-3.479-3.479l0,0C64.159,122.051,65.716,120.494,67.637,120.494z"/>
	<path fill="#676868" d="M126.746,106.583h41.734c1.92,0,3.479,1.557,3.479,3.478l0,0c0,1.92-1.559,3.478-3.479,3.478h-41.735
		c-1.92,0-3.479-1.557-3.479-3.478l0,0C123.269,108.14,124.826,106.583,126.746,106.583z"/>
	<path fill="#676868" d="M137.18,120.494h20.867c1.921,0,3.478,1.557,3.478,3.479l0,0c0,1.92-1.557,3.479-3.478,3.479H137.18
		c-1.921,0-3.479-1.558-3.479-3.479l0,0C133.701,122.051,135.258,120.494,137.18,120.494z"/>
	<path fill="#676868" d="M202.541,106.583h41.736c1.92,0,3.478,1.557,3.478,3.478l0,0c0,1.92-1.558,3.478-3.478,3.478h-41.736
		c-1.92,0-3.477-1.557-3.477-3.478l0,0C199.064,108.14,200.621,106.583,202.541,106.583z"/>
	<path fill="#676868" d="M212.975,120.494h20.867c1.918,0,3.477,1.557,3.477,3.479l0,0c0,1.92-1.559,3.479-3.477,3.479h-20.867
		c-1.921,0-3.477-1.558-3.477-3.479l0,0C209.498,122.051,211.054,120.494,212.975,120.494z"/>
</g>
<circle fill="#FFFFFF" cx="78.071" cy="165.707" r="17.39"/>
<path fill="#1B6FAB" d="M91.042,177.185c-0.292-1.509-1.269-2.794-2.643-3.48l-4.417-2.644c-0.501-0.301-1.038-0.533-1.601-0.694
	v-2.018c2.699-2.399,2.938-6.535,0.536-9.23c-2.401-2.698-6.534-2.938-9.23-0.537c-2.698,2.401-2.939,6.535-0.536,9.231
	c0.168,0.188,0.347,0.367,0.536,0.536v1.948c-0.562,0.159-1.1,0.393-1.6,0.693l-4.451,2.645c-1.375,0.685-2.351,1.971-2.645,3.478
	c6.169,7.21,17.014,8.054,24.225,1.886C89.869,178.439,90.48,177.832,91.042,177.185z"/>
<circle fill="#FFFFFF" cx="147.613" cy="165.707" r="17.39"/>
<path fill="#1B6FAB" d="M160.586,177.185c-0.292-1.509-1.271-2.794-2.644-3.48l-4.417-2.644c-0.501-0.301-1.039-0.533-1.601-0.694
	v-2.018c2.698-2.399,2.938-6.535,0.536-9.23c-2.401-2.696-6.535-2.938-9.231-0.537c-2.697,2.401-2.937,6.535-0.535,9.231
	c0.168,0.188,0.347,0.367,0.535,0.536v1.948c-0.561,0.159-1.099,0.393-1.6,0.693l-4.451,2.645c-1.374,0.685-2.351,1.971-2.645,3.478
	c6.168,7.21,17.015,8.054,24.223,1.886C159.414,178.439,160.023,177.832,160.586,177.185z"/>
<circle fill="#FFFFFF" cx="223.406" cy="165.707" r="17.39"/>
<path fill="#1B6FAB" d="M236.381,177.185c-0.292-1.509-1.27-2.794-2.643-3.48l-4.418-2.644c-0.499-0.301-1.038-0.533-1.597-0.694
	v-2.018c2.694-2.399,2.935-6.535,0.533-9.23c-2.399-2.698-6.534-2.938-9.23-0.537c-2.698,2.401-2.937,6.535-0.535,9.231
	c0.168,0.188,0.348,0.367,0.535,0.536v1.948c-0.56,0.159-1.098,0.393-1.6,0.693l-4.451,2.645c-1.372,0.685-2.351,1.971-2.644,3.478
	c6.169,7.21,17.015,8.054,24.224,1.886C235.209,178.439,235.818,177.832,236.381,177.185z"/>
<g>
	<path fill="#676868" d="M57.203,190.053h41.734c1.92,0,3.478,1.556,3.478,3.478l0,0c0,1.918-1.558,3.477-3.478,3.477H57.203
		c-1.92,0-3.478-1.559-3.478-3.477l0,0C53.725,191.608,55.283,190.053,57.203,190.053z"/>
	<path fill="#676868" d="M67.637,203.961h20.866c1.92,0,3.479,1.558,3.479,3.478l0,0c0,1.922-1.559,3.479-3.479,3.479H67.637
		c-1.92,0-3.479-1.557-3.479-3.479l0,0C64.159,205.519,65.716,203.961,67.637,203.961z"/>
	<path fill="#676868" d="M126.746,190.053h41.734c1.92,0,3.479,1.556,3.479,3.478l0,0c0,1.918-1.559,3.477-3.479,3.477h-41.735
		c-1.92,0-3.479-1.559-3.479-3.477l0,0C123.269,191.608,124.826,190.053,126.746,190.053z"/>
	<path fill="#676868" d="M137.18,203.961h20.867c1.921,0,3.478,1.558,3.478,3.478l0,0c0,1.922-1.557,3.479-3.478,3.479H137.18
		c-1.921,0-3.479-1.557-3.479-3.479l0,0C133.701,205.519,135.258,203.961,137.18,203.961z"/>
	<path fill="#676868" d="M202.541,190.053h41.736c1.92,0,3.478,1.556,3.478,3.478l0,0c0,1.918-1.558,3.477-3.478,3.477h-41.736
		c-1.92,0-3.477-1.559-3.477-3.477l0,0C199.064,191.608,200.621,190.053,202.541,190.053z"/>
	<path fill="#676868" d="M212.975,203.961h20.867c1.918,0,3.477,1.558,3.477,3.478l0,0c0,1.922-1.559,3.479-3.477,3.479h-20.867
		c-1.921,0-3.477-1.557-3.477-3.479l0,0C209.498,205.519,211.054,203.961,212.975,203.961z"/>
</g>
</svg>
