<?xml version="1.0" encoding="utf-8"?>
<!-- Generator: Adobe Illustrator 15.0.0, SVG Export Plug-In . SVG Version: 6.00 Build 0)  -->
<!DOCTYPE svg PUBLIC "-//W3C//DTD SVG 1.1//EN" "http://www.w3.org/Graphics/SVG/1.1/DTD/svg11.dtd">
<svg version="1.1" xmlns="http://www.w3.org/2000/svg" xmlns:xlink="http://www.w3.org/1999/xlink" x="0px" y="0px" width="300px"
	 height="300px" viewBox="0 0 300 300" enable-background="new 0 0 300 300" xml:space="preserve">
<g id="Layer_1">
	<path fill="#334A5E" d="M276.815,8.167H22.458C16.156,8.167,11,13.935,11,20.984v171.75h274.98V18.421
		C285.98,12.653,281.97,8.167,276.815,8.167z"/>
	<path fill="#CCCCCC" d="M11,192.734v21.771c0,6.302,5.156,11.457,11.458,11.457h252.065c6.302,0,11.458-5.155,11.458-11.457
		v-21.771H11z"/>
	<g>
		<circle fill="#F9F9F9" cx="148.49" cy="209.349" r="6.302"/>
		<rect x="108.595" y="225.962" fill="#BFBFBF" width="84.809" height="34.688"/>
	</g>
	<rect x="108.595" y="225.962" fill="#ABB2B9" width="84.809" height="8.594"/>
	<g>
		<rect x="67.715" y="260.65" fill="#B7B7B7" width="160.979" height="13.434"/>
	</g>
	<polygon fill="#334A5E" points="255.045,27.747 235.567,27.747 235.567,44.933 252.754,44.933 	"/>
	<polygon fill="#334A5E" points="61.413,27.747 41.936,27.747 44.227,44.933 61.413,44.933 	"/>
</g>
<g id="Layer_2">
	<rect x="24.956" y="22.731" fill="#ECF0F1" width="246.496" height="153.758"/>
	<rect x="24.93" y="22.732" fill="#546A79" width="246.998" height="18.389"/>
	<circle fill="#ED7161" cx="36.938" cy="30.83" r="4.872"/>
	<circle fill="#F0C419" cx="51.552" cy="30.83" r="4.872"/>
	<circle fill="#4FBA6F" cx="66.167" cy="30.83" r="4.872"/>
	<polygon fill="#F7E3B0" points="24.956,39.743 24.956,115.151 50.455,115.151 50.455,91.337 101.454,91.337 101.454,115.151 
		122.704,115.151 122.704,91.337 173.703,91.337 173.703,115.151 194.953,115.151 194.953,91.337 245.951,91.337 245.951,115.151 
		271.451,115.151 271.451,39.743 	"/>
	<path fill="#BDC3C7" d="M97.204,144.328H54.705c-2.35,0-4.25-1.176-4.25-2.625c0-1.448,1.9-2.624,4.25-2.624h42.499
		c2.351,0,4.25,1.176,4.25,2.624C101.454,143.152,99.555,144.328,97.204,144.328z"/>
	<path fill="#BDC3C7" d="M97.204,154.824H54.705c-2.35,0-4.25-1.176-4.25-2.623c0-1.45,1.9-2.625,4.25-2.625h42.499
		c2.351,0,4.25,1.175,4.25,2.625C101.454,153.648,99.555,154.824,97.204,154.824z"/>
	<path fill="#BDC3C7" d="M97.204,165.321H54.705c-2.35,0-4.25-1.176-4.25-2.623c0-1.451,1.9-2.625,4.25-2.625h42.499
		c2.351,0,4.25,1.174,4.25,2.625C101.454,164.146,99.555,165.321,97.204,165.321z"/>
	<path fill="#BDC3C7" d="M169.453,144.328h-42.5c-2.35,0-4.25-1.176-4.25-2.625c0-1.448,1.9-2.624,4.25-2.624h42.5
		c2.35,0,4.25,1.176,4.25,2.624C173.703,143.152,171.803,144.328,169.453,144.328z"/>
	<path fill="#BDC3C7" d="M169.453,154.824h-42.5c-2.35,0-4.25-1.176-4.25-2.623c0-1.45,1.9-2.625,4.25-2.625h42.5
		c2.35,0,4.25,1.175,4.25,2.625C173.703,153.648,171.803,154.824,169.453,154.824z"/>
	<path fill="#BDC3C7" d="M169.453,165.321h-42.5c-2.35,0-4.25-1.176-4.25-2.623c0-1.451,1.9-2.625,4.25-2.625h42.5
		c2.35,0,4.25,1.174,4.25,2.625C173.703,164.146,171.803,165.321,169.453,165.321z"/>
	<path fill="#BDC3C7" d="M241.702,144.328h-42.499c-2.351,0-4.25-1.176-4.25-2.625c0-1.448,1.899-2.624,4.25-2.624h42.499
		c2.35,0,4.249,1.176,4.249,2.624C245.951,143.152,244.052,144.328,241.702,144.328z"/>
	<path fill="#BDC3C7" d="M241.702,154.824h-42.499c-2.351,0-4.25-1.176-4.25-2.623c0-1.45,1.899-2.625,4.25-2.625h42.499
		c2.35,0,4.249,1.175,4.249,2.625C245.951,153.648,244.052,154.824,241.702,154.824z"/>
	<path fill="#BDC3C7" d="M241.702,165.321h-42.499c-2.351,0-4.25-1.176-4.25-2.623c0-1.451,1.899-2.625,4.25-2.625h42.499
		c2.35,0,4.249,1.174,4.249,2.625C245.951,164.146,244.052,165.321,241.702,165.321z"/>
	<rect x="50.455" y="86.251" fill="#D86F19" width="50.999" height="46.539"/>
	<rect x="194.953" y="86.251" fill="#D86F19" width="50.998" height="46.539"/>
	<rect x="122.704" y="86.251" fill="#D86F19" width="51" height="46.539"/>
</g>
</svg>
