<?xml version="1.0" encoding="utf-8"?>
<!-- Generator: Adobe Illustrator 15.0.0, SVG Export Plug-In . SVG Version: 6.00 Build 0)  -->
<!DOCTYPE svg PUBLIC "-//W3C//DTD SVG 1.1//EN" "http://www.w3.org/Graphics/SVG/1.1/DTD/svg11.dtd">
<svg version="1.1" id="Layer_1" xmlns="http://www.w3.org/2000/svg" xmlns:xlink="http://www.w3.org/1999/xlink" x="0px" y="0px"
	 width="300px" height="300px" viewBox="0 0 300 300" enable-background="new 0 0 300 300" xml:space="preserve">
<rect x="146.136" y="24.756" fill="#A1BEBF" width="148.009" height="161.011"/>
<rect x="146.136" y="5.034" fill="#737475" width="148.009" height="24.974"/>
<rect x="5.854" y="208.258" fill="#E6E6E6" width="288.291" height="80.854"/>
<path fill="#999999" d="M294.146,202.406H5.854c-3.232,0-5.854,2.621-5.854,5.854v80.854c0,3.232,2.621,5.854,5.854,5.854h288.293
	c3.232,0,5.854-2.621,5.854-5.854V208.26C300,205.027,297.379,202.406,294.146,202.406z M288.293,231.309h-24.58v-17.195h24.58
	V231.309z M288.293,239.112v19.147h-11.104v-19.147H288.293z M255.908,283.26h-28.799v-17.195h28.799V283.26z M44.091,214.113
	h28.799v17.195H44.091V214.113z M227.109,231.309v-17.195h28.799v17.195H227.109z M242.433,239.112v19.147h-28.8v-19.147H242.433z
	 M219.305,231.309h-28.799v-17.195h28.799V231.309z M205.829,239.112v19.147h-28.8v-19.147H205.829z M182.701,231.309h-28.799
	v-17.195h28.799V231.309z M169.226,239.112v19.147h-28.8v-19.147H169.226z M146.098,231.309h-28.799v-17.195h28.799V231.309z
	 M132.622,239.112v19.147h-28.799v-19.147H132.622z M109.495,231.309H80.695v-17.195h28.799V231.309z M96.019,239.112v19.147H67.219
	v-19.147H96.019z M59.415,239.112v19.147h-28.8v-19.147H59.415z M72.891,266.063v17.195H44.091v-17.195H72.891z M80.695,266.063
	h28.799v17.195H80.695V266.063z M117.299,266.063h65.402v17.195h-65.402V266.063z M190.506,266.063h28.799v17.195h-28.799V266.063z
	 M250.237,258.26v-19.147h19.146v19.147H250.237z M36.287,214.113v17.195H11.707v-17.195H36.287z M22.811,239.112v19.147H11.707
	v-19.147H22.811z M11.707,266.063h24.581v17.195H11.707V266.063z M263.713,283.26v-17.195h24.58v17.195H263.713z"/>
<rect x="5.854" y="5.036" fill="#132223" width="113.482" height="180.732"/>
<g>
	<rect x="25.91" y="29.766" fill="#65AA41" width="66.59" height="9.365"/>
	<rect x="25.91" y="54.146" fill="#65AA41" width="73.36" height="9.365"/>
	<rect x="25.91" y="78.527" fill="#65AA41" width="73.36" height="9.365"/>
	<rect x="25.91" y="102.908" fill="#65AA41" width="41.402" height="9.365"/>
	<rect x="25.91" y="127.289" fill="#65AA41" width="66.59" height="9.365"/>
	<rect x="25.91" y="151.669" fill="#65AA41" width="73.36" height="9.364"/>
</g>
<g>
	<polygon fill="#335417" points="192.24,133.852 163.544,105.156 192.24,76.459 198.311,82.53 175.685,105.156 198.311,127.781 	"/>
	<polygon fill="#335417" points="248.043,133.852 241.973,127.781 264.598,105.156 241.973,82.53 248.043,76.459 276.739,105.156 	
		"/>
	
		<rect x="215.844" y="72.301" transform="matrix(0.9699 0.2436 -0.2436 0.9699 32.2448 -50.4536)" fill="#335417" width="8.586" height="65.715"/>
</g>
</svg>
