<?xml version="1.0" encoding="utf-8"?>
<!-- Generator: Adobe Illustrator 15.0.0, SVG Export Plug-In . SVG Version: 6.00 Build 0)  -->
<!DOCTYPE svg PUBLIC "-//W3C//DTD SVG 1.1//EN" "http://www.w3.org/Graphics/SVG/1.1/DTD/svg11.dtd">
<svg version="1.1" id="Layer_1" xmlns="http://www.w3.org/2000/svg" xmlns:xlink="http://www.w3.org/1999/xlink" x="0px" y="0px"
	 width="320px" height="640px" viewBox="0 0 320 640" enable-background="new 0 0 320 640" xml:space="preserve">
<rect x="-5" y="-8" fill="#D2849A" width="325" height="521"/>
<rect y="423" fill="#8F646F" width="320" height="217"/>
<path fill="#EA97AC" d="M270.54,223.032h-29.559v-27.355H210.46v48.217h-32.281v51.521h-26.602v15.279v52.66v68.97h113.115H324
	V310.694V264.19h-53.459L270.54,223.032L270.54,223.032z M295.243,276.921h14.744v17.688h-14.744V276.921z M295.243,300.001h14.744
	v17.688h-14.744V300.001z M295.243,323.081h14.744v17.687h-14.744V323.081z M273.948,276.921h14.744v17.688h-14.744V276.921z
	 M273.948,300.001h14.744v17.688h-14.744V300.001z M273.948,323.081h14.744v17.687h-14.744V323.081z"/>
<path fill="#EA97AC" d="M113.101,278.165v-30.254H91.375v-20.105H68.939v35.439H45.211v37.869H25.656v11.231v18.314h-48.371v-41.157
	h-27.118v142.82h21.27h59.308v-55.158v-11.188h78.057h43.594v-53.629v-34.182H113.101L113.101,278.165z M59.14,270.243h6.16v10.854
	h-6.16V270.243z M-4.562,407.236h-14.744V389.55h14.744V407.236z M-4.562,384.159h-14.744v-17.688h14.744V384.159z M-4.562,361.077
	h-14.744v-17.688h14.744V361.077z M16.733,407.236H1.99V389.55h14.744L16.733,407.236L16.733,407.236z M16.733,384.159H1.99v-17.688
	h14.744L16.733,384.159L16.733,384.159z M16.733,361.077H1.99v-17.688h14.744L16.733,361.077L16.733,361.077z M36.743,333.066
	h-5.998v-2.405h-0.163v-8.445h6.161V333.066z M36.743,317.648h-6.161v-10.854h6.161V317.648z M45.842,333.066h-6.161v-10.853h6.161
	V333.066z M45.842,317.648h-6.161v-10.854h6.161V317.648z M56.203,296.515H50.04v-10.854h6.163V296.515z M56.203,281.097H50.04
	v-10.854h6.163V281.097z M59.14,285.661h6.16v10.854h-6.16V285.661z M70.2,351.1h-6.16v-10.854h6.16V351.1L70.2,351.1z
	 M70.2,335.679h-6.16v-10.852h6.16V335.679L70.2,335.679z M79.298,351.1h-6.161v-10.854h6.161V351.1z M79.298,335.679h-6.161
	v-10.852h6.161V335.679z M89.659,314.546h-6.161v-10.854h6.161V314.546z M89.659,299.126h-6.161v-10.854h6.161V299.126z
	 M98.758,314.546h-6.161v-10.854h6.161V314.546z M98.758,299.126h-6.161v-10.854h6.161V299.126z M126.443,334.452h-10.837v-13
	h10.837V334.452z M126.443,317.486h-10.837v-13h10.837V317.486z M126.443,300.521h-10.837v-12.998h10.837V300.521z M142.096,334.452
	h-10.839v-13h10.838L142.096,334.452L142.096,334.452z M142.096,317.486h-10.839v-13h10.838L142.096,317.486L142.096,317.486z
	 M142.096,300.521h-10.839v-12.998h10.838L142.096,300.521L142.096,300.521z"/>
<rect x="26.954" y="361.447" fill="#EA97AC" width="125.442" height="70.876"/>
<rect x="66.101" y="372.051" fill="#EA97AC" width="109.081" height="61.632"/>
<path fill="#B0B0B0" d="M43.809,448.627c0,0-1.382,2.571,8.429,4.714h205.358c0,0,6.869-0.439,8.68-3.679l0.012-1.774
	L43.809,448.627z"/>
<path fill="#FFFFFF" d="M43.856,443.436h222.503v5.712c0,0,0.333,0.768-2.285,0.574H45.953c0,0-2.052,0.575-2.241-0.765
	L43.856,443.436z"/>
<path fill="#B0B0B0" d="M139.996,443.48c0,0-0.86,2.86,1.998,3.146h25.814c0,0,2.743,0.354,2.378-3.046L139.996,443.48z"/>
<path fill="#161D21" d="M244.481,443.409V341.994c0-4.604-3.765-8.369-8.366-8.369H73.972c-4.603,0-8.367,3.766-8.367,8.369v101.415
	H244.481L244.481,443.409z"/>
<rect x="71.357" y="339.904" fill="#FFF2CA" width="167.369" height="97.279"/>
<g opacity="0.2">
	<path fill="#FFFFFF" d="M266.359,449.147v-5.712H155.682v9.905h101.914c0,0,6.869-0.439,8.68-3.679l0.002-0.222
		C266.421,449.295,266.359,449.147,266.359,449.147z"/>
</g>
<path fill="#27AAE1" d="M188.578,380.242c0,0.687-0.607,1.238-1.354,1.238h-64.351c-0.747,0-1.354-0.553-1.354-1.238v-20.987
	c0-0.685,0.607-1.238,1.354-1.238h64.351c0.747,0,1.354,0.556,1.354,1.238V380.242z"/>
<g opacity="0.2">
	<g>
		<g>
			<defs>
				<rect id="SVGID_1_" x="122.871" y="359.255" width="65.705" height="22.228"/>
			</defs>
			<clipPath id="SVGID_2_">
				<use xlink:href="#SVGID_1_"  overflow="visible"/>
			</clipPath>
			<path clip-path="url(#SVGID_2_)" fill="#1C75BC" d="M187.223,381.482c0.747,0,1.354-0.554,1.354-1.238v-20.989l-65.705,22.228
				H187.223z"/>
		</g>
	</g>
</g>
<path fill="#FFFFFF" d="M136.834,366.061l-0.598,2.758h0.088c1.03,0,1.764-1.106,1.764-2.052c0-0.694-0.396-1.302-1.366-1.302
	c-2.012,0-3.354,1.129-3.354,3.018c0,0.633,0.162,0.731,0.176,0.844c-0.856,0-1.33-0.312-1.33-1.205
	c0-1.651,2.287-3.229,4.359-3.229c1.949,0,2.819,0.971,2.819,1.987c0,0.733-0.447,1.503-1.244,1.962
	c1.021,0.199,1.43,1.057,1.43,2.023c0,1.603-1.104,3.554-2.471,3.554c-0.746,0-1.467-0.074-1.467-0.858
	c0-0.21,0.05-0.472,0.162-0.781c0.234,0.385,0.657,0.447,0.832,0.447c0.684,0,1.229-1.229,1.229-2.285
	c0-0.807-0.311-1.527-1.13-1.527c-0.161,0-0.398,0.014-0.622,0.037l-1.017,4.758h-1.789l1.688-7.899L136.834,366.061z
	 M145.926,367.996l-0.896,4.224c-0.024,0.138-0.05,0.272-0.05,0.386c0,0.271,0.124,0.471,0.621,0.471
	c0.496,0,1.143-0.694,1.64-1.092h0.423c-0.571,0.571-1.976,2.224-2.943,2.224c-0.845,0-1.415-0.323-1.527-1.044
	c-0.584,0.547-1.255,1.044-1.789,1.044c-0.956,0-1.552-0.425-1.552-1.354c0-0.186,0.024-0.396,0.074-0.633l0.895-4.223h1.788
	l-0.894,4.223c-0.025,0.137-0.05,0.271-0.05,0.385c0,0.272,0.124,0.471,0.621,0.471c0.26,0,0.569-0.197,0.881-0.444
	c0.014-0.125,0.037-0.261,0.074-0.41l0.895-4.223h1.789V367.996z M149.093,367.996l-0.906,4.224
	c-0.037,0.138-0.062,0.272-0.062,0.396c0,0.273,0.137,0.459,0.621,0.459c0.285,0,0.62-0.223,0.943-0.496l0.969-4.582h1.803
	l-1.518,7.203c-0.372,1.775-1.439,2.111-2.26,2.111c-0.759,0-1.466-0.533-1.466-1.342c0-1.154,0.969-1.516,2.147-1.861l0.188-0.856
	c-0.56,0.51-1.191,0.956-1.689,0.956c-0.969,0-1.54-0.424-1.54-1.354c0-0.198,0.026-0.397,0.075-0.633l0.869-4.224H149.093z
	 M148.396,376.205c0.25,0,0.584-0.235,0.733-0.967l0.148-0.733c-0.782,0.26-1.378,0.621-1.378,1.291
	C147.901,375.97,148.124,376.205,148.396,376.205z M164.271,364.917l-1.976,9.29h-1.788c-0.583,0-0.72-1.094-0.72-2.534
	c0-1.218,0.087-2.671,0.087-3.962c0-0.385,0-0.758-0.025-1.105l-1.614,7.603h-1.788l1.802-8.446
	c-1.095,0.46-1.738,1.402-1.738,2.721c0,0.633,0.161,0.732,0.174,0.846c-0.857,0-1.329-0.312-1.329-1.205
	c0-1.652,2.285-3.229,4.358-3.229c1.044,0,1.131,0.534,1.131,2.31c0,1.306-0.137,2.934-0.137,4.138c0,0.569,0.036,1.058,0.123,1.354
	l1.652-7.774h1.788V364.917z M168.68,369.697c0.075,0.074,0.188,0.112,0.36,0.112c0.584,0,0.845-0.424,1.305-0.608l0.049,0.261
	c-0.384,0.485-1.029,0.896-1.75,1.093c-0.237,2.497-1.59,3.727-2.831,3.727c-1.331,0-1.9-0.56-1.9-2.037
	c0-3.055,1.553-4.371,3.267-4.371C168.357,367.873,168.656,368.792,168.68,369.697z M167.724,370.68
	c-0.36,0-0.521-0.261-0.521-0.561c0-0.358,0.212-0.744,0.546-0.868c-0.036-0.41-0.173-0.646-0.521-0.646
	c-1.167,0-1.664,2.532-1.664,3.526c0,0.744,0.347,0.942,0.831,0.942C167.152,373.074,167.575,371.884,167.724,370.68z
	 M177.548,368.865c0,1.938-0.98,5.342-3.489,5.342c-0.846,0-1.391-0.323-1.516-1.031c-0.583,0.534-1.256,1.031-1.776,1.031
	c-0.956,0-1.552-0.424-1.552-1.354c0-0.186,0.024-0.397,0.075-0.633l0.894-4.224h1.789l-0.896,4.224
	c-0.023,0.138-0.051,0.272-0.051,0.386c0,0.271,0.126,0.471,0.622,0.471c0.261,0,0.57-0.187,0.869-0.435
	c0-0.124,0.024-0.272,0.062-0.422l0.895-4.224h1.788l-0.894,4.224c-0.037,0.175-0.062,0.322-0.062,0.459
	c0,0.235,0.111,0.396,0.473,0.396c1.218,0,2.05-2.717,2.05-4.072c-0.075,0.025-0.187,0.051-0.262,0.051
	c-0.359,0-0.521-0.348-0.521-0.695c0-0.261,0.298-0.608,0.707-0.608C177.287,367.748,177.548,368.221,177.548,368.865z"/>
<g opacity="0.5">
	<g>
		<g>
			<defs>
				<rect id="SVGID_3_" x="149.357" y="379.898" width="9.496" height="9.493"/>
			</defs>
			<clipPath id="SVGID_4_">
				<use xlink:href="#SVGID_3_"  overflow="visible"/>
			</clipPath>
			<path clip-path="url(#SVGID_4_)" fill="#FFFFFF" d="M158.854,384.645c0,2.622-2.126,4.747-4.748,4.747s-4.747-2.125-4.747-4.747
				c0-2.621,2.125-4.746,4.747-4.746S158.854,382.023,158.854,384.645"/>
		</g>
	</g>
</g>
<g opacity="0.3">
	<g>
		<g>
			<defs>
				<rect id="SVGID_5_" x="142.693" y="373.232" width="22.825" height="22.824"/>
			</defs>
			<clipPath id="SVGID_6_">
				<use xlink:href="#SVGID_5_"  overflow="visible"/>
			</clipPath>
			<path clip-path="url(#SVGID_6_)" fill="#FFFFFF" d="M154.105,373.232c-6.303,0-11.412,5.11-11.412,11.412
				c0,6.305,5.109,11.412,11.412,11.412s11.413-5.107,11.413-11.412C165.519,378.343,160.408,373.232,154.105,373.232
				 M154.105,392.572c-4.378,0-7.929-3.549-7.929-7.929c0-4.378,3.551-7.927,7.929-7.927s7.928,3.549,7.928,7.927
				C162.033,389.023,158.483,392.572,154.105,392.572"/>
		</g>
	</g>
</g>
<path fill="#FBC088" d="M162.743,395.482c0,0-2.558-1.574-6.642-2.082v-9.125c0-0.744-0.602-1.347-1.345-1.347h-1.326
	c-0.743,0-1.346,0.603-1.346,1.347v10.469v1.271l-2.177-2.273c-0.513-0.537-1.362-0.557-1.9-0.043l-0.957,0.916
	c-0.538,0.514-0.557,1.365-0.042,1.902l3.072,3.212l0.001,0.001l0.104,0.108c0.41,0.442,2.885,1.832,3.032,6.618v4.392
	c0,0.827,0.673,1.498,1.501,1.498h6.398c0.828,0,1.501-0.671,1.501-1.498v-4.784c0,0,0.97-1.02,1.673-2.433v-5.541
	C164.291,396.111,162.743,395.482,162.743,395.482"/>
<path fill="#FBE0B5" d="M154.61,383.473h-1.01c-0.565,0-1.024,0.459-1.024,1.023v1.32h3.06v-1.32
	C155.635,383.932,155.176,383.473,154.61,383.473"/>
<path fill="#FBE0B5" d="M146.674,395.59l-0.034,0.033c0.01,0.32,0.128,0.643,0.368,0.895l1.326,1.385l1.184-1.146l-1.104-1.14
	C147.941,395.129,147.162,395.117,146.674,395.59"/>
<rect x="151.578" y="410.895" fill="#FFFFFF" width="13.317" height="2.961"/>
<rect x="150.972" y="412.611" fill="#F15A29" width="14.396" height="14.267"/>
<path fill="#FFFFFF" d="M164.559,415.234c0,0.742-0.602,1.346-1.345,1.346s-1.347-0.604-1.347-1.346
	c0-0.744,0.604-1.347,1.347-1.347S164.559,414.49,164.559,415.234"/>
<rect x="91.134" y="399.371" fill="#FFFFFF" width="16.365" height="11.84"/>
<path fill="#891021" d="M92.665,424.602c-1.93,0.009-3.506-1.554-3.514-3.482c-0.009-1.93,1.556-3.506,3.483-3.514
	c1.929-0.01,3.505,1.555,3.514,3.483C96.156,423.017,94.594,424.595,92.665,424.602 M92.642,419.105
	c-1.102,0.004-1.995,0.904-1.99,2.008c0.005,1.102,0.905,1.994,2.008,1.989c1.104-0.005,1.995-0.905,1.99-2.007
	C94.645,419.992,93.744,419.1,92.642,419.105"/>
<path fill="#891021" d="M104.015,424.554c-1.928,0.009-3.505-1.554-3.513-3.483c-0.009-1.929,1.554-3.506,3.481-3.514
	c1.931-0.009,3.506,1.555,3.516,3.482C107.508,422.969,105.944,424.545,104.015,424.554 M103.992,419.056
	c-1.103,0.006-1.996,0.905-1.991,2.009c0.007,1.102,0.906,1.994,2.009,1.989c1.102-0.005,1.995-0.903,1.991-2.007
	C105.996,419.943,105.094,419.051,103.992,419.056"/>
<path fill="#891021" d="M111.744,397.548c-0.176-0.038-0.35-0.034-0.515,0.003l-22.146,0.094c-0.031-0.18-0.052-0.292-0.057-0.322
	c-0.017-0.097-0.046-0.19-0.087-0.281c-0.062-0.139-1.574-3.403-5.408-3.389l-3.798,0.018c-0.663,0.002-1.196,0.542-1.194,1.205
	c0.004,0.66,0.543,1.195,1.205,1.193l3.799-0.018c1.964-0.008,2.917,1.445,3.15,1.863c0.133,0.772,0.693,3.912,0.923,7.02
	l0.929,8.834c0.007,0.064,0.021,0.13,0.039,0.193c0.255,0.9,1.395,2.421,4.037,2.408l15.388-0.065
	c0.632-0.003,1.142-0.519,1.14-1.149c-0.004-0.632-0.517-1.142-1.149-1.14L92.61,414.08c-1.28,0.006-1.694-0.519-1.807-0.719
	l-0.083-0.802c0.451,0.13,0.831,0.151,1.031,0.147c0.031,0,0.06,0,0.082-0.002c0.461,0,7.299-0.03,12.318-0.051h0.004
	c4.987-0.021,6.307-3.675,6.36-3.83c0.014-0.045,0.028-0.092,0.038-0.137l2.105-9.714
	C112.802,398.326,112.391,397.689,111.744,397.548 M102.946,407.932l-3.737,2.613c0,0.002,0,0.002,0,0.003
	c-0.035,0.022-0.072,0.045-0.111,0.065c0,0-0.003,0.002-0.004,0.002c-0.008,0.004-0.02,0.006-0.026,0.011
	c-0.028,0.013-0.059,0.024-0.087,0.034c-0.017,0.004-0.029,0.011-0.044,0.014c-0.026,0.008-0.052,0.014-0.078,0.02
	c-0.015,0-0.028,0.006-0.043,0.006c-0.034,0.006-0.069,0.01-0.105,0.01c-0.003,0-0.008,0.001-0.012,0.001
	c-0.043,0-0.087-0.005-0.13-0.011c-0.012-0.002-0.022-0.006-0.035-0.006c-0.031-0.006-0.064-0.016-0.098-0.023
	c-0.011-0.004-0.021-0.006-0.032-0.01c-0.042-0.016-0.083-0.031-0.122-0.051c-0.003-0.002-0.005-0.006-0.008-0.006
	c-0.037-0.02-0.072-0.043-0.105-0.066c-0.005-0.004-0.01-0.004-0.014-0.008l-3.71-2.783c-0.396-0.299-0.479-0.861-0.18-1.258
	c0.297-0.398,0.861-0.479,1.26-0.182l2.262,1.698l-0.029-7.087c-0.002-0.498,0.398-0.902,0.896-0.904s0.903,0.398,0.904,0.896
	l0.031,7.178l2.328-1.629c0.406-0.285,0.969-0.188,1.253,0.22C103.453,407.085,103.353,407.646,102.946,407.932"/>
<path fill="#DB2A28" d="M223.162,402.621c0.459,0.664,0.291,1.572-0.372,2.031l-22.976,15.84c-0.664,0.459-1.574,0.291-2.032-0.375
	l-9.204-13.351c-0.459-0.665-0.291-1.573,0.372-2.032l22.976-15.839c0.664-0.458,1.575-0.29,2.033,0.373L223.162,402.621z"/>
<path fill="#93B3B5" d="M204.746,413.906c0.105,0.154,0.066,0.363-0.087,0.47l-5.298,3.653c-0.151,0.105-0.362,0.065-0.468-0.088
	l-2.123-3.078c-0.105-0.152-0.067-0.363,0.085-0.469l5.298-3.652c0.153-0.105,0.364-0.066,0.471,0.086L204.746,413.906z"/>
<rect x="188.013" y="398.693" transform="matrix(0.8233 -0.5676 0.5676 0.8233 -191.7227 186.3301)" fill="#414042" width="30.828" height="4.843"/>
<rect x="189.601" y="403.103" transform="matrix(-0.8233 0.5676 -0.5676 -0.8233 602.814 619.274)" fill="#FFFFFF" width="30.826" height="0.73"/>
<path fill="#FBB040" d="M217.094,403.139c0.686,0.995,0.188,2.53-1.109,3.428c-1.299,0.895-2.909,0.812-3.597-0.185
	c-0.687-0.997-0.189-2.53,1.109-3.427C214.796,402.06,216.405,402.142,217.094,403.139"/>
<path fill="#27AAE1" d="M219.445,401.517c0.688,0.998,0.19,2.53-1.108,3.427c-1.3,0.896-2.908,0.812-3.596-0.183
	c-0.688-0.997-0.19-2.531,1.107-3.427C217.148,400.439,218.758,400.521,219.445,401.517"/>
<path fill="#657E59" d="M214.841,402.389c-0.488,0.795-0.562,1.704-0.101,2.372c0.461,0.667,1.334,0.922,2.251,0.75
	c0.488-0.797,0.562-1.705,0.103-2.372C216.633,402.471,215.759,402.216,214.841,402.389"/>
<path fill="#275693" d="M228.502,424.251c0.089,0.801-0.487,1.523-1.289,1.614l-27.73,3.111c-0.802,0.091-1.524-0.485-1.616-1.289
	l-1.809-16.113c-0.09-0.804,0.486-1.525,1.289-1.615l27.729-3.113c0.803-0.089,1.525,0.486,1.615,1.289L228.502,424.251z"/>
<path fill="#93B3B5" d="M206.937,425.502c0.021,0.186-0.113,0.352-0.298,0.371l-6.396,0.72c-0.185,0.021-0.352-0.112-0.372-0.298
	l-0.418-3.717c-0.02-0.186,0.112-0.352,0.299-0.371l6.395-0.719c0.186-0.021,0.352,0.112,0.373,0.297L206.937,425.502z"/>
<rect x="196.359" y="411.187" transform="matrix(0.9938 -0.1115 0.1115 0.9938 -44.7898 26.1869)" fill="#414042" width="30.826" height="4.848"/>
<rect x="196.718" y="416.099" transform="matrix(-0.9938 0.1115 -0.1115 -0.9938 469.3786 806.6794)" fill="#FFFFFF" width="30.829" height="0.731"/>
<path fill="#FBB040" d="M222.905,421.841c0.137,1.203-1.025,2.319-2.595,2.496c-1.568,0.175-2.948-0.656-3.084-1.859
	c-0.135-1.202,1.027-2.319,2.596-2.495C221.39,419.805,222.771,420.638,222.905,421.841"/>
<path fill="#BE1E2D" d="M225.744,421.523c0.136,1.201-1.025,2.318-2.595,2.495c-1.566,0.176-2.948-0.655-3.084-1.86
	c-0.135-1.201,1.028-2.319,2.595-2.494C224.229,419.486,225.61,420.32,225.744,421.523"/>
<path fill="#F15A29" d="M221.274,420.115c-0.805,0.473-1.298,1.237-1.209,2.043c0.092,0.807,0.741,1.443,1.631,1.725
	c0.808-0.471,1.3-1.236,1.209-2.043C222.815,421.033,222.164,420.398,221.274,420.115"/>
<ellipse opacity="0.27" fill="#6D4D56" enable-background="new    " cx="153.394" cy="456.744" rx="101.157" ry="3.403"/>
</svg>
