<?xml version="1.0" encoding="utf-8"?>
<!-- Generator: Adobe Illustrator 15.0.0, SVG Export Plug-In . SVG Version: 6.00 Build 0)  -->
<!DOCTYPE svg PUBLIC "-//W3C//DTD SVG 1.1//EN" "http://www.w3.org/Graphics/SVG/1.1/DTD/svg11.dtd">
<svg version="1.1" id="Layer_1" xmlns="http://www.w3.org/2000/svg" xmlns:xlink="http://www.w3.org/1999/xlink" x="0px" y="0px"
	 width="300px" height="200px" viewBox="0 0 300 200" enable-background="new 0 0 300 200" xml:space="preserve">
<g>
	<g>
		<g>
			<path d="M223.294,17.429H76.707c-7.673,0-13.916,6.243-13.916,13.916v111.332c0,7.674,6.243,13.917,13.916,13.917h53.811v20.41
				h-19.483c-1.538,0-2.783,1.246-2.783,2.783s1.246,2.783,2.783,2.783h77.932c1.538,0,2.784-1.246,2.784-2.783
				s-1.246-2.783-2.784-2.783h-19.483v-20.41h53.812c7.673,0,13.916-6.243,13.916-13.917V31.345
				C237.21,23.672,230.967,17.429,223.294,17.429z M163.917,177.004h-27.833v-20.41h27.833V177.004z M231.644,142.677
				c0,4.603-3.746,8.351-8.35,8.351H76.707c-4.604,0-8.35-3.748-8.35-8.351v-8.35h163.287V142.677z M231.644,128.761H68.357V31.345
				c0-4.603,3.746-8.349,8.35-8.349h146.587c4.604,0,8.35,3.746,8.35,8.349V128.761z"/>
			<path d="M223.294,28.562H76.707c-1.537,0-2.783,1.246-2.783,2.782v89.065c0,1.538,1.246,2.784,2.783,2.784h120.609
				c1.538,0,2.784-1.246,2.784-2.784c0-1.536-1.246-2.783-2.784-2.783H79.49V34.129h141.02v83.498h-12.062
				c-1.536,0-2.782,1.247-2.782,2.783c0,1.538,1.246,2.784,2.782,2.784h14.846c1.536,0,2.783-1.246,2.783-2.784V31.345
				C226.077,29.808,224.83,28.562,223.294,28.562z"/>
		</g>
	</g>
</g>
<g>
	<g>
		<polygon points="97.605,108.926 97.605,39.426 93.667,39.426 93.667,111.947 188.188,111.947 188.188,108.926 		"/>
	</g>
</g>
<g>
	<g>
		<polygon points="172.986,57.677 172.986,60.7 181.465,60.7 152.032,83.281 138.801,73.127 123.874,84.58 117.259,79.503 
			102.042,91.178 104.826,93.314 117.259,83.776 123.874,88.852 138.801,77.401 152.032,87.553 184.249,62.835 184.249,69.341 
			188.188,69.341 188.188,57.677 		"/>
	</g>
</g>
</svg>
