<?xml version="1.0" encoding="utf-8"?>
<!-- Generator: Adobe Illustrator 15.0.0, SVG Export Plug-In . SVG Version: 6.00 Build 0)  -->
<!DOCTYPE svg PUBLIC "-//W3C//DTD SVG 1.1//EN" "http://www.w3.org/Graphics/SVG/1.1/DTD/svg11.dtd">
<svg version="1.1" id="Layer_1" xmlns="http://www.w3.org/2000/svg" xmlns:xlink="http://www.w3.org/1999/xlink" x="0px" y="0px"
	 width="300px" height="200px" viewBox="0 0 300 200" enable-background="new 0 0 300 200" xml:space="preserve">
<g>
	<g>
		<path d="M207.186,16.004H91.035c-5.337,0-9.679,4.341-9.679,9.68v148.415c0,5.336,4.342,9.68,9.679,9.68h116.15
			c5.339,0,9.68-4.342,9.68-9.68V25.684C216.865,20.345,212.524,16.004,207.186,16.004z M203.204,22.882
			c2.557,0,4.626,2.073,4.626,4.635c0,2.563-2.069,4.632-4.626,4.632c-2.559,0-4.637-2.069-4.637-4.632
			C198.567,24.955,200.644,22.882,203.204,22.882z M187.625,22.882c2.56,0,4.637,2.073,4.637,4.635c0,2.563-2.072,4.632-4.637,4.632
			c-2.557,0-4.632-2.069-4.632-4.632C182.993,24.955,185.07,22.882,187.625,22.882z M172.049,22.882
			c2.558,0,4.638,2.073,4.638,4.635c0,2.563-2.074,4.632-4.638,4.632c-2.56,0-4.626-2.069-4.626-4.632
			C167.423,24.955,169.489,22.882,172.049,22.882z M210.412,174.099c0,1.776-1.45,3.226-3.227,3.226H91.035
			c-1.774,0-3.226-1.449-3.226-3.226V35.801h122.603V174.099z"/>
		<polygon points="122.949,99.331 136.323,137.447 143.51,86.726 154.209,122.878 171.002,99.083 179.12,108.335 201.11,108.335 
			201.11,103.128 181.489,103.128 170.553,90.704 156.149,111.113 141.71,62.336 134.167,115.607 124.137,86.998 114.699,103.128 
			97.113,103.128 97.113,108.335 117.678,108.335 		"/>
		<rect x="97.113" y="141.833" width="103.985" height="27.16"/>
	</g>
</g>
</svg>
