<?xml version="1.0" encoding="utf-8"?>
<!-- Generator: Adobe Illustrator 15.0.0, SVG Export Plug-In . SVG Version: 6.00 Build 0)  -->
<!DOCTYPE svg PUBLIC "-//W3C//DTD SVG 1.1//EN" "http://www.w3.org/Graphics/SVG/1.1/DTD/svg11.dtd">
<svg version="1.1" id="Layer_1" xmlns="http://www.w3.org/2000/svg" xmlns:xlink="http://www.w3.org/1999/xlink" x="0px" y="0px"
	 width="300px" height="200px" viewBox="0 0 300 200" enable-background="new 0 0 300 200" xml:space="preserve">
<g>
	<path d="M200.894,131.138l-14.92,21.438l-10.529-8.642c-1.134-0.937-2.816-0.766-3.751,0.366c-0.936,1.139-0.771,2.82,0.37,3.753
		l12.76,10.476c0.479,0.396,1.078,0.608,1.692,0.608c0.12,0,0.243-0.01,0.365-0.028c0.735-0.1,1.396-0.506,1.823-1.116
		l16.566-23.807c0.84-1.209,0.545-2.871-0.665-3.712C203.395,129.628,201.736,129.927,200.894,131.138z"/>
	<path d="M137.906,107.418c1.637,2.253,4.167,3.665,6.944,3.884c0.247,0.019,0.494,0.029,0.743,0.029
		c2.509,0,4.925-0.992,6.713-2.783c1.968-1.967,2.97-4.686,2.753-7.461c-0.218-2.772-1.631-5.304-3.89-6.945l-34.512-24.965
		c-1.063-0.771-2.524-0.651-3.446,0.277c-0.926,0.93-1.044,2.389-0.275,3.449L137.906,107.418z M148.043,98.458
		c0.987,0.72,1.608,1.828,1.702,3.048c0.095,1.214-0.344,2.409-1.207,3.272c-0.864,0.862-2.051,1.305-3.273,1.207
		c-1.219-0.096-2.328-0.718-3.043-1.698l-15.229-21.056L148.043,98.458z"/>
	<path d="M221.746,97.999c0-44.105-35.883-79.988-79.987-79.988c-1.471,0-2.666,1.192-2.666,2.666v35.438
		c0,1.473,1.195,2.665,2.666,2.665c1.471,0,2.667-1.192,2.667-2.665V23.392c39.935,1.408,71.99,34.337,71.99,74.607
		c0,7.619-1.147,15.11-3.416,22.33c-0.209-0.234-0.445-0.438-0.659-0.669c-0.438-0.465-0.884-0.924-1.348-1.365
		c-0.418-0.399-0.845-0.785-1.28-1.163c-0.424-0.367-0.856-0.723-1.299-1.065c-0.487-0.384-0.978-0.758-1.484-1.114
		c-0.435-0.302-0.879-0.588-1.331-0.874c-0.531-0.335-1.061-0.671-1.609-0.979c-0.477-0.266-0.966-0.506-1.452-0.747
		c-0.543-0.272-1.084-0.55-1.642-0.792c-0.547-0.24-1.112-0.442-1.675-0.653c-0.525-0.195-1.044-0.408-1.575-0.579
		c-0.648-0.208-1.318-0.371-1.98-0.542c-0.477-0.12-0.938-0.262-1.419-0.364c-0.79-0.168-1.597-0.277-2.405-0.39
		c-0.376-0.053-0.746-0.131-1.125-0.17c-1.192-0.127-2.403-0.195-3.632-0.195c-19.111,0-34.662,15.551-34.662,34.66
		c0,1.229,0.069,2.441,0.194,3.635c0.041,0.386,0.12,0.759,0.175,1.136c0.112,0.802,0.22,1.607,0.386,2.392
		c0.101,0.484,0.247,0.955,0.371,1.434c0.169,0.658,0.328,1.319,0.535,1.964c0.173,0.54,0.388,1.062,0.584,1.593
		c0.206,0.555,0.406,1.111,0.645,1.654c0.247,0.561,0.525,1.111,0.803,1.66c0.239,0.483,0.478,0.964,0.739,1.433
		c0.311,0.557,0.649,1.094,0.991,1.629c0.281,0.44,0.561,0.88,0.861,1.308c0.36,0.515,0.739,1.01,1.127,1.507
		c0.341,0.435,0.688,0.858,1.049,1.274c0.384,0.441,0.776,0.877,1.18,1.3c0.436,0.454,0.887,0.894,1.344,1.323
		c0.236,0.219,0.443,0.458,0.686,0.672c-7.225,2.269-14.716,3.419-22.334,3.419c-41.166,0-74.655-33.491-74.655-74.654
		c0-19.893,7.732-38.608,21.775-52.701c1.04-1.044,1.037-2.729-0.008-3.769c-1.042-1.043-2.732-1.043-3.771,0.005
		C70.053,56.64,61.77,76.692,61.77,98.002c0,44.105,35.883,79.987,79.988,79.987c9.467,0,18.739-1.672,27.596-4.934
		c5.196,3.111,11.247,4.934,17.73,4.934c19.112,0,34.662-15.549,34.662-34.662c0-6.482-1.819-12.533-4.933-17.731
		C220.075,116.737,221.746,107.467,221.746,97.999z M187.084,172.654c-5.934,0-11.452-1.783-16.073-4.827
		c-0.976-0.64-1.9-1.334-2.783-2.071c-0.16-0.136-0.31-0.286-0.468-0.424c-0.663-0.581-1.297-1.191-1.9-1.826
		c-0.27-0.279-0.527-0.564-0.78-0.859c-0.479-0.546-0.936-1.11-1.374-1.688c-0.238-0.317-0.481-0.623-0.706-0.943
		c-0.548-0.783-1.051-1.595-1.517-2.426c-0.118-0.22-0.236-0.439-0.353-0.657c-0.444-0.839-0.847-1.699-1.203-2.582
		c-0.139-0.346-0.256-0.7-0.384-1.049c-0.253-0.703-0.487-1.414-0.688-2.134c-0.103-0.377-0.204-0.752-0.29-1.132
		c-0.18-0.758-0.32-1.525-0.438-2.301c-0.052-0.34-0.117-0.678-0.156-1.021c-0.129-1.118-0.211-2.249-0.211-3.39
		c0-16.171,13.157-29.329,29.328-29.329c1.141,0,2.271,0.083,3.389,0.213c0.344,0.041,0.679,0.104,1.021,0.158
		c0.773,0.118,1.541,0.258,2.299,0.438c0.382,0.091,0.76,0.188,1.136,0.294c0.718,0.2,1.429,0.432,2.131,0.686
		c0.351,0.127,0.707,0.245,1.05,0.387c0.878,0.357,1.737,0.757,2.573,1.196c0.228,0.116,0.451,0.236,0.673,0.364
		c0.828,0.463,1.636,0.969,2.417,1.511c0.326,0.224,0.632,0.472,0.947,0.71c0.578,0.438,1.144,0.892,1.688,1.373
		c0.289,0.256,0.58,0.515,0.859,0.779c0.633,0.605,1.243,1.239,1.826,1.904c0.138,0.159,0.287,0.304,0.425,0.465
		c0.737,0.88,1.429,1.807,2.068,2.78c3.045,4.62,4.829,10.137,4.829,16.072C216.415,159.495,203.255,172.654,187.084,172.654z"/>
</g>
</svg>
