<?xml version="1.0" encoding="utf-8"?>
<!-- Generator: Adobe Illustrator 15.0.0, SVG Export Plug-In . SVG Version: 6.00 Build 0)  -->
<!DOCTYPE svg PUBLIC "-//W3C//DTD SVG 1.1//EN" "http://www.w3.org/Graphics/SVG/1.1/DTD/svg11.dtd">
<svg version="1.1" id="Layer_1" xmlns="http://www.w3.org/2000/svg" xmlns:xlink="http://www.w3.org/1999/xlink" x="0px" y="0px"
	 width="300px" height="200px" viewBox="0 99 300 200" enable-background="new 0 99 300 200" xml:space="preserve">
<g>
	<path d="M212.489,227.5l-16.271,23.378l-11.483-9.424c-1.237-1.021-3.072-0.834-4.091,0.4c-1.02,1.242-0.839,3.076,0.405,4.093
		l13.915,11.424c0.523,0.431,1.175,0.663,1.844,0.663c0.132,0,0.266-0.011,0.399-0.03c0.802-0.109,1.522-0.552,1.988-1.218
		l18.067-25.963c0.916-1.317,0.594-3.129-0.726-4.048C215.216,225.853,213.408,226.18,212.489,227.5z"/>
	<path d="M143.799,201.633c1.785,2.457,4.544,3.997,7.572,4.236c0.27,0.02,0.539,0.032,0.811,0.032c2.736,0,5.371-1.083,7.321-3.036
		c2.146-2.144,3.238-5.109,3.003-8.136c-0.238-3.024-1.779-5.783-4.242-7.575l-37.637-27.224c-1.16-0.84-2.753-0.709-3.759,0.303
		c-1.009,1.013-1.138,2.605-0.299,3.76L143.799,201.633z M154.853,191.861c1.077,0.785,1.755,1.995,1.856,3.324
		c0.104,1.325-0.375,2.627-1.317,3.57c-0.942,0.941-2.236,1.423-3.569,1.316c-1.33-0.104-2.539-0.783-3.318-1.852l-16.608-22.962
		L154.853,191.861z"/>
	<path d="M235.229,191.361c0-48.098-39.131-87.229-87.229-87.229c-1.604,0-2.907,1.299-2.907,2.907v38.646
		c0,1.607,1.303,2.907,2.907,2.907s2.908-1.3,2.908-2.907V110c43.551,1.536,78.507,37.446,78.507,81.362
		c0,8.308-1.251,16.478-3.726,24.352c-0.227-0.256-0.484-0.479-0.718-0.729c-0.477-0.508-0.963-1.008-1.469-1.49
		c-0.456-0.437-0.922-0.857-1.396-1.268c-0.463-0.402-0.935-0.789-1.417-1.163c-0.532-0.418-1.066-0.825-1.619-1.214
		c-0.474-0.33-0.959-0.642-1.451-0.953c-0.58-0.366-1.157-0.733-1.756-1.068c-0.519-0.289-1.052-0.552-1.583-0.816
		c-0.592-0.295-1.183-0.599-1.791-0.862c-0.596-0.262-1.212-0.483-1.826-0.713c-0.572-0.214-1.137-0.445-1.718-0.632
		c-0.707-0.227-1.437-0.404-2.16-0.59c-0.519-0.131-1.023-0.287-1.546-0.398c-0.862-0.183-1.742-0.303-2.624-0.425
		c-0.41-0.057-0.813-0.142-1.227-0.185c-1.3-0.137-2.62-0.213-3.961-0.213c-20.841,0-37.799,16.958-37.799,37.799
		c0,1.339,0.075,2.661,0.212,3.964c0.044,0.419,0.131,0.826,0.19,1.238c0.122,0.874,0.24,1.753,0.42,2.608
		c0.111,0.528,0.271,1.041,0.405,1.564c0.184,0.717,0.358,1.438,0.584,2.14c0.189,0.59,0.422,1.16,0.636,1.738
		c0.226,0.605,0.444,1.212,0.704,1.804c0.269,0.611,0.572,1.213,0.875,1.811c0.261,0.526,0.521,1.05,0.806,1.562
		c0.339,0.606,0.709,1.192,1.081,1.776c0.306,0.479,0.611,0.96,0.94,1.426c0.393,0.561,0.806,1.101,1.229,1.643
		c0.371,0.474,0.75,0.936,1.143,1.39c0.419,0.482,0.846,0.956,1.288,1.418c0.474,0.495,0.966,0.973,1.465,1.443
		c0.257,0.238,0.483,0.5,0.747,0.732c-7.879,2.475-16.048,3.729-24.356,3.729c-44.892,0-81.414-36.523-81.414-81.414
		c0-21.692,8.432-42.102,23.747-57.471c1.134-1.139,1.131-2.977-0.008-4.111c-1.137-1.137-2.98-1.137-4.112,0.006
		c-16.407,16.468-25.44,38.336-25.44,61.574c0,48.099,39.131,87.23,87.229,87.23c10.323,0,20.437-1.824,30.095-5.38
		c5.667,3.392,12.265,5.38,19.335,5.38c20.843,0,37.8-16.957,37.8-37.8c0-7.07-1.985-13.668-5.379-19.337
		C233.406,211.797,235.229,201.685,235.229,191.361z M197.43,272.776c-6.472,0-12.49-1.945-17.529-5.264
		c-1.064-0.698-2.074-1.455-3.036-2.259c-0.174-0.149-0.337-0.312-0.509-0.463c-0.724-0.634-1.415-1.3-2.074-1.991
		c-0.293-0.305-0.574-0.616-0.85-0.937c-0.523-0.596-1.021-1.212-1.498-1.84c-0.26-0.346-0.525-0.68-0.771-1.03
		c-0.596-0.854-1.146-1.738-1.653-2.645c-0.129-0.24-0.258-0.479-0.385-0.716c-0.485-0.916-0.924-1.854-1.313-2.817
		c-0.15-0.376-0.278-0.763-0.417-1.143c-0.276-0.766-0.532-1.542-0.751-2.327c-0.112-0.41-0.221-0.82-0.316-1.235
		c-0.195-0.826-0.349-1.663-0.478-2.51c-0.056-0.369-0.127-0.738-0.171-1.113c-0.14-1.219-0.229-2.452-0.229-3.697
		c0-17.634,14.349-31.983,31.983-31.983c1.244,0,2.477,0.091,3.695,0.232c0.375,0.045,0.741,0.114,1.114,0.172
		c0.842,0.129,1.68,0.282,2.506,0.478c0.416,0.099,0.829,0.204,1.239,0.32c0.783,0.218,1.558,0.471,2.323,0.747
		c0.384,0.14,0.771,0.269,1.146,0.422c0.956,0.39,1.894,0.826,2.806,1.306c0.248,0.127,0.491,0.258,0.733,0.396
		c0.903,0.505,1.785,1.056,2.637,1.648c0.354,0.244,0.688,0.514,1.032,0.774c0.631,0.477,1.247,0.972,1.84,1.497
		c0.317,0.279,0.633,0.562,0.937,0.85c0.691,0.661,1.356,1.352,1.992,2.076c0.151,0.174,0.313,0.332,0.463,0.509
		c0.805,0.959,1.559,1.969,2.256,3.03c3.321,5.039,5.267,11.056,5.267,17.529C229.415,258.426,215.065,272.776,197.43,272.776z"/>
</g>
</svg>
